max v2;#N vpatcher 40 54 1055 774;#P button 402 394 15 0;#P newex 253 553 45 196617 loadbang;#P newex 712 135 53 196617 route 0 0.;#P user GSwitch2 373 665 39 32 1 0;#N comlet bang on end;#P outlet 686 664 15 0;#P newex 402 640 27 16187401 b;#P newex 257 586 21 196617 t 1;#P toggle 373 644 15 0;#N comlet (int) duration in ms;#P outlet 640 663 15 0;#P newex 626 81 53 196617 route 0 0.;#P newex 365 331 49 196617 t f b stop;#P newex 225 135 59 196617 route 0 1 2;#P newex 529 143 38 196617 t clear;#P newex 454 143 71 196617 prepend write;#P newex 483 203 105 196617 nothing;#P newex 386 143 65 196617 prepend read;#P newex 225 89 383 196617 osc-route /state /? /? /read /write /clear /dur-mult /loop /speed;#N comlet (int) current state 0/1/2;#P outlet 572 662 15 0;#P newex 284 203 54 16187401 t record 1;#P toggle 564 41 15 0;#P newex 462 65 118 196617 print-everything to-mtr;#P newex 225 203 52 16187401 t stop 0 0;#P newex 229 391 21 196617 t 2;#P newex 264 392 40 196617 t 1 f f;#P newex 377 596 35 16187401 gate 2;#P newex 229 357 45 196617 route -1;#P outlet 460 661 15 0;#N comlet speed;#P inlet 626 59 15 0;#N comlet things to record;#P inlet 208 51 15 0;#N comlet messages to mtr;#P inlet 225 51 15 0;#P newex 402 558 35 16187401 t next;#P newex 366 202 109 16187401 t next rewind 2 0 stop;#P newex 327 433 27 196617 * 1.;#P newex 402 509 34 196617 zl reg;#P newex 402 463 41 196617 delay 0;#P newex 184 322 55 196617 unpack 1 1;#P flonum 332 392 35 9 0 0 0 247 0 0 0 221 221 221 222 222 222 0 0 0;#P newex 184 278 34 16187401 mtr 1;#P newex 626 178 29 196617 !/ 1.;#P connect 20 0 1 0;#P connect 17 0 1 0;#P fasten 14 0 1 0 382 633 146 633 146 265 189 265;#P connect 7 1 1 0;#P connect 7 0 1 0;#P connect 24 0 1 0;#P connect 1 0 3 0;#P connect 10 0 1 1;#P connect 9 0 22 0;#P connect 22 0 27 0;#P fasten 35 0 17 0 378 712 127 712 127 194 168 194 183 194 183 198;#P connect 27 0 17 0;#P connect 3 1 13 0;#P connect 13 0 16 0;#P connect 37 0 32 0;#P connect 13 1 15 0;#P connect 27 1 20 0;#P connect 15 1 6 0;#P connect 28 0 2 0;#P connect 2 0 6 1;#P connect 0 0 28 0;#P fasten 22 6 28 0 598 141 598 255;#P fasten 35 1 7 0 407 727 91 727 91 186 371 186;#P connect 27 2 7 0;#P connect 32 0 31 0;#P fasten 22 7 31 0 693 142 693 559 393 628;#P connect 31 0 35 0;#P fasten 17 1 14 0 335 480;#P connect 16 0 14 0;#P connect 15 0 14 0;#P connect 22 3 23 0;#P connect 1 1 38 0;#P fasten 7 4 4 0 603 296 603 427 407 427;#P connect 38 0 4 0;#P connect 4 0 5 0;#P connect 5 0 8 0;#P connect 8 0 14 1;#P connect 14 1 33 0;#P connect 33 0 35 1;#P fasten 1 1 5 1 504 390 504 484;#P connect 6 0 4 1;#P fasten 7 3 4 1 554 292 554 438;#P connect 22 4 25 0;#P fasten 5 0 12 0 465 569;#P connect 10 0 18 0;#P connect 9 0 18 0;#P connect 23 0 24 0;#P connect 26 0 24 0;#P connect 25 0 24 0;#P connect 22 5 26 0;#P connect 19 0 18 1;#P connect 20 1 21 0;#P connect 17 2 21 0;#P connect 7 2 21 0;#P connect 11 0 29 0;#P connect 29 2 0 0;#P connect 36 2 0 0;#P fasten 15 2 30 0 639 485 639 647;#P fasten 33 1 34 0 462 687 748 687 748 650;#P fasten 22 8 36 0 717 125;#P pop;