max v2;#N vpatcher 0 44 1280 827;#P origin -10 -7;#P window setfont "Sans Serif" 9.;#P newex 1022 107 65 196617 pvar delsize;#B color 4;#P hidden newex 328 200 71 196617 prepend set 1;#P window setfont Arial 9.;#P comment 185 202 50 131137545 del length;#P flonum 295 201 31 9 0 0 32 2001 0 0 0 221 221 221 222 222 222 0 0 0;#P objectname delsize;#P user multiSlider 126 201 170 13 0. 30000. 1 2936 47 0 1 2 0 0 0;#M frgb 83 83 83;#M brgb 173 173 173;#M rgb2 127 127 127;#M rgb3 0 0 0;#M rgb4 37 52 91;#M rgb5 74 105 182;#M rgb6 112 158 18;#M rgb7 149 211 110;#M rgb8 187 9 201;#M rgb9 224 62 37;#M rgb10 7 114 128;#P window setfont "Sans Serif" 9.;#P hidden newex 328 304 71 196617 prepend set 1;#P newex 155 485 27 196617 b;#P flonum 468 418 35 9 0 0 0 3 0 0 0 221 221 221 222 222 222 0 0 0;#P newex 191 458 48 196617 loadbang;#P newex 325 666 27 196617 *~;#P newex 428 385 82 196617 pvar outputmult;#B color 4;#P message 428 418 37 196617 \$1 30;#P newex 428 449 44 196617 line~ 1.;#P button 313 102 13 0;#P objectname done;#P window setfont Arial 9.;#P comment 185 306 56 131137545 output mult;#P flonum 295 305 31 9 0 0 32 2001 0 0 0 221 221 221 222 222 222 0 0 0;#P objectname outputmult;#P user multiSlider 126 305 170 13 0. 2. 1 2936 47 0 1 2 0 0 0;#M frgb 83 83 83;#M brgb 173 173 173;#M rgb2 127 127 127;#M rgb3 0 0 0;#M rgb4 37 52 91;#M rgb5 74 105 182;#M rgb6 112 158 18;#M rgb7 149 211 110;#M rgb8 187 9 201;#M rgb9 224 62 37;#M rgb10 7 114 128;#P window setfont "Sans Serif" 9.;#P flonum 628 603 35 9 0 0 0 3 0 0 0 221 221 221 222 222 222 0 0 0;#P flonum 707 605 35 9 0 0 0 3 0 0 0 221 221 221 222 222 222 0 0 0;#P user number~ 405 670 500 685 9 3 3 2 0. 0. 0 0. 250 0. 0 0 0 221 221 221 222 222 222 0 0 0;#P user number~ 575 525 670 540 9 3 3 2 0. 0. 0 0. 250 0. 0 0 0 221 221 221 222 222 222 0 0 0;#P newex 655 435 54 196617 pvar done;#B color 4;#P outlet 323 744 15 0;#P window setfont Arial 9.;#P comment 178 236 47 131137545 ramptime;#P comment 178 223 68 131137545 destination;#P window setfont "Sans Serif" 9.;#P comment 130 228 21 196617 go!;#P newex 747 520 73 196617 pvar playhead;#B color 4;#P newex 732 448 84 196617 pvar recordhead;#B color 4;#P newex 598 653 30 196617 t b s;#P newex 872 91 64 196617 pvar record;#B color 4;#P user led 126 103 17 17 0 150;#P objectname record;#P newex 423 196 68 196617 pvar overlap;#B color 4;#P window setfont Arial 9.;#P comment 196 291 40 131137545 overlap;#P number 295 291 31 9 0 0 32 2001 0 0 0 221 221 221 222 222 222 0 0 0;#P objectname overlap;#P user multiSlider 126 291 170 13 0. 6. 1 2920 47 0 1 2 0 0 0;#M frgb 83 83 83;#M brgb 173 173 173;#M rgb2 127 127 127;#M rgb3 0 0 0;#M rgb4 37 52 91;#M rgb5 74 105 182;#M rgb6 112 158 18;#M rgb7 149 211 110;#M rgb8 187 9 201;#M rgb9 224 62 37;#M rgb10 7 114 128;#P comment 178 278 68 131137545 pitch-var;#P comment 178 265 68 131137545 pitch-trans;#P comment 132 250 46 131137545 grain-dur;#P comment 235 250 59 131137545 onset-var;#P flonum 295 277 31 9 0 0 32 2001 0 0 0 221 221 221 222 222 222 0 0 0;#P objectname pitch-trans;#P window setfont "Sans Serif" 9.;#P hidden newex 45 284 71 196617 prepend set 1;#P user multiSlider 126 277 170 13 -1200. 1200. 1 2936 47 0 1 2 0 0 0;#M frgb 83 83 83;#M brgb 173 173 173;#M rgb2 127 127 127;#M rgb3 0 0 0;#M rgb4 37 52 91;#M rgb5 74 105 182;#M rgb6 112 158 18;#M rgb7 149 211 110;#M rgb8 187 9 201;#M rgb9 224 62 37;#M rgb10 7 114 128;#P window setfont Arial 9.;#P flonum 193 250 31 9 0 0 32 2001 0 0 0 221 221 221 222 222 222 0 0 0;#P objectname grain-dur;#P window setfont "Sans Serif" 9.;#P hidden newex 32 251 71 196617 prepend set 1;#P user multiSlider 126 250 68 13 0. 200. 1 2936 47 0 1 2 0 0 0;#M frgb 83 83 83;#M brgb 173 173 173;#M rgb2 127 127 127;#M rgb3 0 0 0;#M rgb4 37 52 91;#M rgb5 74 105 182;#M rgb6 112 158 18;#M rgb7 149 211 110;#M rgb8 187 9 201;#M rgb9 224 62 37;#M rgb10 7 114 128;#P window setfont Arial 9.;#P flonum 295 265 31 9 0 0 32 2001 0 0 0 221 221 221 222 222 222 0 0 0;#P objectname pitch-var;#P window setfont "Sans Serif" 9.;#P hidden newex 45 272 71 196617 prepend set 1;#P user multiSlider 126 265 170 13 -1200. 1200. 1 2936 47 0 1 2 0 0 0;#M frgb 83 83 83;#M brgb 173 173 173;#M rgb2 127 127 127;#M rgb3 0 0 0;#M rgb4 37 52 91;#M rgb5 74 105 182;#M rgb6 112 158 18;#M rgb7 149 211 110;#M rgb8 187 9 201;#M rgb9 224 62 37;#M rgb10 7 114 128;#P window setfont Arial 9.;#P flonum 295 250 31 9 0 0 32 2001 0 0 0 221 221 221 222 222 222 0 0 0;#P objectname onset-var;#P window setfont "Sans Serif" 9.;#P newex 676 564 77 196617 pvar grain-dur;#B color 4;#P newex 423 564 79 196617 pvar onset-var;#B color 4;#P newex 587 565 85 196617 pvar pitch-trans;#B color 4;#P newex 508 565 77 196617 pvar pitch-var;#B color 4;#P newex 873 389 44 196617 pvar go;#B color 4;#P newex 1046 387 73 196617 pvar desttime;#B color 4;#P newex 985 392 53 196617 pvar dest;#B color 4;#P hidden newex 328 249 71 196617 prepend set 1;#P window setfont Arial 9.;#P flonum 295 235 31 9 0 0 32 2001 0 0 0 221 221 221 222 222 222 0 0 0;#P objectname desttime;#P flonum 295 223 31 9 0 0 32 2001 0 0 0 221 221 221 222 222 222 0 0 0;#P objectname dest;#P user multiSlider 126 187 200 12 0. 10000. 1 2936 47 0 1 2 0 0 0;#M frgb 2 214 0;#M brgb 173 173 173;#M rgb2 127 127 127;#M rgb3 0 0 0;#M rgb4 37 52 91;#M rgb5 74 105 182;#M rgb6 112 158 18;#M rgb7 149 211 110;#M rgb8 187 9 201;#M rgb9 224 62 37;#M rgb10 7 114 128;#P objectname playhead;#P button 126 223 25 0;#P objectname go;#P user multiSlider 126 175 200 13 0. 10000. 1 2936 47 0 1 2 0 0 0;#M frgb 166 0 0;#M brgb 173 173 173;#M rgb2 127 127 127;#M rgb3 0 0 0;#M rgb4 37 52 91;#M rgb5 74 105 182;#M rgb6 112 158 18;#M rgb7 149 211 110;#M rgb8 187 9 201;#M rgb9 224 62 37;#M rgb10 7 114 128;#P objectname recordhead;#P window setfont "Sans Serif" 9.;#P user waveform~ 126 102 200 74 3 9;#W mode select;#W mouseoutput continuous;#W unit ms;#W grid 1000.;#W ticks 0;#W labels 0;#W vlabels 0;#W vticks 0;#W bpm 120. 4.;#W frgb 33 0 0;#W brgb 60 178 173;#W rgb2 0 95 255;#W rgb3 0 0 0;#W rgb4 0 0 0;#W rgb5 190 137 255;#W rgb6 100 100 100;#W rgb7 100 100 100;#P objectname waveform;#P user multiSlider 228 250 68 13 0. 200. 1 2936 47 0 1 2 0 0 0;#M frgb 83 83 83;#M brgb 173 173 173;#M rgb2 127 127 127;#M rgb3 0 0 0;#M rgb4 37 52 91;#M rgb5 74 105 182;#M rgb6 112 158 18;#M rgb7 149 211 110;#M rgb8 187 9 201;#M rgb9 224 62 37;#M rgb10 7 114 128;#P newex 620 437 27 196617 t f f;#P newex 1014 255 66 196617 prepend size;#P newex 1003 219 40 196617 t i i i;#P message 904 171 120 196617 /buffer-name $0circbuf;#P newex 901 139 32 196617 sel 1;#P newex 879 114 27 196617 t i i;#P newex 557 118 40 196617 t s b s;#P newex 639 690 149 196617 pack set $0circbuf 5 0. 0. 120;#P newex 589 162 62 196617 prepend set;#P newex 738 121 27 196617 t b l;#P newex 761 149 64 196617 unpack 1. 1.;#P newex 738 64 245 196617 OSC-route /dest /buffer-name /record /delay-size;#P inlet 738 34 15 0;#P inlet 684 59 15 0;#P newex 732 424 70 196617 snapshot~ 20;#P newex 732 385 35 196617 *~ 1.;#P newex 987 475 47 196617 * 1000.;#P comment 1312 464 96 196617 ...in this much time;#P comment 1312 449 52 196617 go here...;#P comment 1312 434 52 196617 play head;#P newex 747 492 70 196617 snapshot~ 50;#P newex 214 488 119 196617 t 5 0. 0. 120. 1. 10000.;#P button 923 386 26 0;#P newex 897 487 36 196617 zl reg;#P newex 923 452 49 196617 pak 1. 1.;#P newex 580 391 32 196617 line~;#P newex 563 492 58 196617 %~ 10000;#P newex 563 466 55 196617 +~ 10000;#P newex 563 429 27 196617 -~;#P newex 858 323 85 196617 prepend range 0.;#P newex 684 385 35 196617 *~ 1.;#P newex 780 284 105 196617 info~ $0circbuf;#P toggle 786 242 15 0;#P newex 923 206 48 196617 loadbang;#P message 923 240 72 196617 set $0circbuf;#P newex 923 287 80 196617 pvar waveform;#B color 4;#P message 812 241 37 196617 loop 1;#P newex 684 284 94 196617 record~ $0circbuf;#P newex 1014 282 125 196617 buffer~ $0circbuf 10000;#P message 423 278 57 196617 overlap \$1;#P number 423 261 35 9 0 0 0 3 0 0 0 221 221 221 222 222 222 0 0 0;#P message 209 548 129 196617 set $0circbuf 5 0. 0. 120.;#P window setfont "Lucida Grande" 14.;#P newex 322 621 219 67108878 sogs~ 6 $0circbuf 5. 0. 0. 120.;#P window setfont "Sans Serif" 9.;#P window linecount 7;#P comment 990 611 338 196617 sogs~ <int> <symbol> <number> <number> <number> <number> \; ... <int>: maximum overlap factor (2^i = # of overlapping grains) \; ... <symbol>: name of buffer~ containing the sound file \; ... <number>: onset variation in msec \; ... <number>: pitch transposition in cent \; ... <number>: pitch variation in cent \; ... <number>: grain duration in msec;#P window linecount 1;#P comment 259 476 73 196617 set everything;#P comment 1312 421 63 196617 record head;#P user multiSlider 150 235 146 13 0. 10000. 1 2936 47 0 1 2 0 0 0;#M frgb 83 83 83;#M brgb 173 173 173;#M rgb2 127 127 127;#M rgb3 0 0 0;#M rgb4 37 52 91;#M rgb5 74 105 182;#M rgb6 112 158 18;#M rgb7 149 211 110;#M rgb8 187 9 201;#M rgb9 224 62 37;#M rgb10 7 114 128;#P user multiSlider 150 223 146 13 0. 10. 1 2936 47 0 1 2 0 0 0;#M frgb 83 83 83;#M brgb 173 173 173;#M rgb2 127 127 127;#M rgb3 0 0 0;#M rgb4 37 52 91;#M rgb5 74 105 182;#M rgb6 112 158 18;#M rgb7 149 211 110;#M rgb8 187 9 201;#M rgb9 224 62 37;#M rgb10 7 114 128;#P hidden connect 69 0 68 0;#P hidden connect 66 0 65 0;#P hidden connect 72 0 71 0;#P hidden connect 110 0 107 0;#P hidden connect 68 0 67 0;#P hidden connect 65 0 64 0;#P hidden connect 71 0 70 0;#P hidden connect 106 0 95 0;#P connect 103 0 105 0;#P hidden connect 67 0 69 0;#P connect 105 0 6 0;#P connect 105 1 26 0;#P hidden connect 55 0 48 0;#P hidden connect 107 0 108 0;#P hidden connect 0 0 53 0;#P hidden connect 1 0 54 0;#P hidden connect 48 0 63 0;#P hidden connect 64 0 66 0;#P hidden connect 70 0 72 0;#P hidden connect 77 0 78 0;#P hidden connect 95 0 96 0;#P connect 21 0 5 0;#P connect 6 0 5 0;#P connect 8 0 5 0;#P connect 40 0 5 0;#P connect 102 0 89 0;#P connect 5 0 102 0;#P hidden connect 108 0 110 0;#P hidden connect 63 0 55 0;#P hidden connect 96 0 106 0;#P connect 99 0 102 1;#P connect 61 0 5 1;#P connect 5 0 92 0;#P connect 80 0 7 0;#P connect 7 0 8 0;#P connect 26 0 61 0;#P connect 59 0 5 2;#P connect 26 4 101 0;#P connect 101 0 100 0;#P connect 100 0 99 0;#P connect 101 0 104 0;#P connect 60 0 5 3;#P connect 26 1 59 0;#P connect 62 0 5 4;#P fasten 36 1 41 0 822 112 668 112 614 100;#P connect 17 0 19 0;#P connect 19 0 20 0;#P connect 20 0 21 0;#P connect 21 0 91 0;#P connect 24 0 22 0;#P connect 22 0 19 1;#P connect 26 2 60 0;#P connect 41 2 39 0;#P fasten 41 0 83 0 562 634;#P connect 47 0 20 1;#P connect 47 1 21 1;#P fasten 45 2 47 0 1038 501 750 535;#P connect 59 0 94 0;#P connect 83 0 40 0;#P connect 22 1 90 0;#P connect 83 1 40 1;#P connect 26 3 62 0;#P connect 15 0 10 0;#P connect 11 0 10 0;#P connect 34 0 10 0;#P connect 10 0 17 0;#P connect 61 0 40 2;#P connect 60 0 93 0;#P connect 16 6 17 1;#P connect 59 0 40 3;#P connect 10 0 32 0;#P connect 32 0 33 0;#P connect 33 0 84 0;#P fasten 44 0 36 0 986 139 955 56;#P connect 35 0 36 0;#P connect 36 0 38 0;#P connect 21 0 27 0;#P connect 27 0 85 0;#P connect 60 0 40 4;#P connect 16 6 32 1;#P connect 38 1 37 0;#P connect 62 0 40 5;#P connect 14 0 16 0;#P connect 39 0 16 0;#P fasten 41 1 16 0 577 199;#P connect 42 0 15 0;#P connect 14 0 11 0;#P connect 16 6 18 0;#P connect 36 2 82 0;#P connect 38 0 58 0;#P connect 82 0 42 0;#P connect 25 0 24 0;#P connect 42 1 43 0;#P connect 43 0 44 0;#P connect 14 0 13 0;#P connect 13 0 12 0;#P connect 58 0 25 0;#P connect 31 0 23 0;#P connect 23 0 24 1;#P connect 57 0 23 1;#P connect 37 0 56 0;#P connect 18 0 56 0;#P connect 56 0 31 0;#P connect 111 0 45 0;#P connect 45 1 46 0;#P connect 46 0 9 0;#P connect 36 3 111 0;#P connect 26 5 111 0;#P connect 37 1 57 0;#P pop;