{
	"patcher" : 	{
		"fileversion" : 1,
		"rect" : [ 25.0, 69.0, 640.0, 506.0 ],
		"bglocked" : 0,
		"defrect" : [ 25.0, 69.0, 640.0, 506.0 ],
		"openrect" : [ 0.0, 0.0, 0.0, 0.0 ],
		"openinpresentation" : 0,
		"default_fontsize" : 12.0,
		"default_fontface" : 0,
		"default_fontname" : "Arial",
		"gridonopen" : 0,
		"gridsize" : [ 15.0, 15.0 ],
		"gridsnaponopen" : 0,
		"toolbarvisible" : 1,
		"boxanimatetime" : 200,
		"imprint" : 0,
		"metadata" : [  ],
		"boxes" : [ 			{
				"box" : 				{
					"maxclass" : "newobj",
					"text" : "p grab source select",
					"id" : "obj-45",
					"fontname" : "Arial",
					"patching_rect" : [ 83.0, 60.0, 119.0, 20.0 ],
					"numoutlets" : 1,
					"outlettype" : [ "" ],
					"fontsize" : 12.0,
					"numinlets" : 1,
					"patcher" : 					{
						"fileversion" : 1,
						"rect" : [ 0.0, 0.0, 640.0, 480.0 ],
						"bglocked" : 0,
						"defrect" : [ 0.0, 0.0, 640.0, 480.0 ],
						"openrect" : [ 0.0, 0.0, 0.0, 0.0 ],
						"openinpresentation" : 0,
						"default_fontsize" : 12.0,
						"default_fontface" : 0,
						"default_fontname" : "Arial",
						"gridonopen" : 0,
						"gridsize" : [ 15.0, 15.0 ],
						"gridsnaponopen" : 0,
						"toolbarvisible" : 1,
						"boxanimatetime" : 200,
						"imprint" : 0,
						"metadata" : [  ],
						"boxes" : [ 							{
								"box" : 								{
									"maxclass" : "newobj",
									"text" : "print",
									"id" : "obj-1",
									"fontname" : "Arial",
									"patching_rect" : [ 338.0, 172.0, 31.0, 20.0 ],
									"numoutlets" : 0,
									"fontsize" : 11.595187,
									"numinlets" : 1
								}

							}
, 							{
								"box" : 								{
									"maxclass" : "newobj",
									"text" : "iter",
									"id" : "obj-20",
									"fontname" : "Arial",
									"patching_rect" : [ 50.0, 151.0, 25.0, 20.0 ],
									"numoutlets" : 1,
									"outlettype" : [ "" ],
									"fontsize" : 11.595187,
									"numinlets" : 1
								}

							}
, 							{
								"box" : 								{
									"maxclass" : "newobj",
									"text" : "t clear",
									"id" : "obj-21",
									"fontname" : "Arial",
									"patching_rect" : [ 145.0, 172.0, 40.0, 20.0 ],
									"numoutlets" : 1,
									"outlettype" : [ "clear" ],
									"fontsize" : 11.595187,
									"numinlets" : 1
								}

							}
, 							{
								"box" : 								{
									"maxclass" : "newobj",
									"text" : "t clear",
									"id" : "obj-22",
									"fontname" : "Arial",
									"patching_rect" : [ 296.0, 172.0, 40.0, 20.0 ],
									"numoutlets" : 1,
									"outlettype" : [ "clear" ],
									"fontsize" : 11.595187,
									"numinlets" : 1
								}

							}
, 							{
								"box" : 								{
									"maxclass" : "message",
									"text" : "input $1",
									"id" : "obj-23",
									"fontname" : "Arial",
									"patching_rect" : [ 201.0, 220.0, 50.0, 18.0 ],
									"numoutlets" : 1,
									"outlettype" : [ "" ],
									"fontsize" : 11.595187,
									"numinlets" : 2
								}

							}
, 							{
								"box" : 								{
									"maxclass" : "umenu",
									"id" : "obj-24",
									"fontname" : "Arial",
									"patching_rect" : [ 201.0, 196.0, 145.0, 20.0 ],
									"numoutlets" : 3,
									"outlettype" : [ "int", "", "" ],
									"fontsize" : 11.595187,
									"items" : [ "Comp 1", ",", "Comp 2", ",", "S-VHS" ],
									"types" : [  ],
									"numinlets" : 1
								}

							}
, 							{
								"box" : 								{
									"maxclass" : "newobj",
									"text" : "prepend append",
									"id" : "obj-25",
									"fontname" : "Arial",
									"patching_rect" : [ 201.0, 172.0, 93.0, 20.0 ],
									"numoutlets" : 1,
									"outlettype" : [ "" ],
									"fontsize" : 11.595187,
									"numinlets" : 1
								}

							}
, 							{
								"box" : 								{
									"maxclass" : "newobj",
									"text" : "iter",
									"id" : "obj-26",
									"fontname" : "Arial",
									"patching_rect" : [ 201.0, 151.0, 25.0, 20.0 ],
									"numoutlets" : 1,
									"outlettype" : [ "" ],
									"fontsize" : 11.595187,
									"numinlets" : 1
								}

							}
, 							{
								"box" : 								{
									"maxclass" : "newobj",
									"text" : "p other",
									"id" : "obj-27",
									"fontname" : "Arial",
									"patching_rect" : [ 338.0, 150.0, 45.0, 20.0 ],
									"numoutlets" : 1,
									"outlettype" : [ "" ],
									"fontsize" : 11.595187,
									"numinlets" : 1,
									"patcher" : 									{
										"fileversion" : 1,
										"rect" : [ 107.0, 474.0, 286.0, 179.0 ],
										"bglocked" : 0,
										"defrect" : [ 107.0, 474.0, 286.0, 179.0 ],
										"openrect" : [ 0.0, 0.0, 0.0, 0.0 ],
										"openinpresentation" : 0,
										"default_fontsize" : 10.0,
										"default_fontface" : 0,
										"default_fontname" : "Arial",
										"gridonopen" : 0,
										"gridsize" : [ 15.0, 15.0 ],
										"gridsnaponopen" : 0,
										"toolbarvisible" : 1,
										"boxanimatetime" : 200,
										"imprint" : 0,
										"metadata" : [  ],
										"boxes" : [ 											{
												"box" : 												{
													"maxclass" : "outlet",
													"id" : "obj-1",
													"patching_rect" : [ 228.0, 107.0, 25.0, 25.0 ],
													"numoutlets" : 0,
													"numinlets" : 1,
													"comment" : ""
												}

											}
, 											{
												"box" : 												{
													"maxclass" : "newobj",
													"text" : "s iidcstate",
													"id" : "obj-2",
													"fontname" : "Arial",
													"patching_rect" : [ 178.25, 78.0, 62.0, 20.0 ],
													"numoutlets" : 0,
													"fontsize" : 11.595187,
													"numinlets" : 1
												}

											}
, 											{
												"box" : 												{
													"maxclass" : "newobj",
													"text" : "s iidccsr",
													"id" : "obj-3",
													"fontname" : "Arial",
													"patching_rect" : [ 128.5, 98.0, 52.0, 20.0 ],
													"numoutlets" : 0,
													"fontsize" : 11.595187,
													"numinlets" : 1
												}

											}
, 											{
												"box" : 												{
													"maxclass" : "newobj",
													"text" : "s iidccaps",
													"id" : "obj-4",
													"fontname" : "Arial",
													"patching_rect" : [ 78.75, 118.0, 61.0, 20.0 ],
													"numoutlets" : 0,
													"fontsize" : 11.595187,
													"numinlets" : 1
												}

											}
, 											{
												"box" : 												{
													"maxclass" : "newobj",
													"text" : "s iidclist",
													"id" : "obj-5",
													"fontname" : "Arial",
													"patching_rect" : [ 29.0, 139.0, 51.0, 20.0 ],
													"numoutlets" : 0,
													"fontsize" : 11.595187,
													"numinlets" : 1
												}

											}
, 											{
												"box" : 												{
													"maxclass" : "newobj",
													"text" : "route iidclist iidc_caps iidc_csr iidc_state",
													"id" : "obj-6",
													"fontname" : "Arial",
													"patching_rect" : [ 29.0, 56.0, 218.0, 20.0 ],
													"numoutlets" : 5,
													"outlettype" : [ "", "", "", "", "" ],
													"fontsize" : 11.595187,
													"numinlets" : 1
												}

											}
, 											{
												"box" : 												{
													"maxclass" : "inlet",
													"id" : "obj-7",
													"patching_rect" : [ 29.0, 27.0, 25.0, 25.0 ],
													"numoutlets" : 1,
													"outlettype" : [ "" ],
													"numinlets" : 0,
													"comment" : ""
												}

											}
 ],
										"lines" : [ 											{
												"patchline" : 												{
													"source" : [ "obj-7", 0 ],
													"destination" : [ "obj-6", 0 ],
													"hidden" : 0,
													"midpoints" : [  ]
												}

											}
, 											{
												"patchline" : 												{
													"source" : [ "obj-6", 0 ],
													"destination" : [ "obj-5", 0 ],
													"hidden" : 0,
													"midpoints" : [  ]
												}

											}
, 											{
												"patchline" : 												{
													"source" : [ "obj-6", 1 ],
													"destination" : [ "obj-4", 0 ],
													"hidden" : 0,
													"midpoints" : [  ]
												}

											}
, 											{
												"patchline" : 												{
													"source" : [ "obj-6", 2 ],
													"destination" : [ "obj-3", 0 ],
													"hidden" : 0,
													"midpoints" : [  ]
												}

											}
, 											{
												"patchline" : 												{
													"source" : [ "obj-6", 3 ],
													"destination" : [ "obj-2", 0 ],
													"hidden" : 0,
													"midpoints" : [  ]
												}

											}
, 											{
												"patchline" : 												{
													"source" : [ "obj-6", 4 ],
													"destination" : [ "obj-1", 0 ],
													"hidden" : 0,
													"midpoints" : [  ]
												}

											}
 ]
									}
,
									"saved_object_attributes" : 									{
										"default_fontname" : "Arial",
										"fontname" : "Arial",
										"default_fontsize" : 10.0,
										"globalpatchername" : "",
										"fontface" : 0,
										"fontsize" : 10.0,
										"default_fontface" : 0
									}

								}

							}
, 							{
								"box" : 								{
									"maxclass" : "message",
									"text" : "vdevice $1",
									"id" : "obj-28",
									"fontname" : "Arial",
									"patching_rect" : [ 50.0, 220.0, 64.0, 18.0 ],
									"numoutlets" : 1,
									"outlettype" : [ "" ],
									"fontsize" : 11.595187,
									"numinlets" : 2
								}

							}
, 							{
								"box" : 								{
									"maxclass" : "umenu",
									"id" : "obj-29",
									"fontname" : "Arial",
									"patching_rect" : [ 50.0, 196.0, 145.0, 20.0 ],
									"numoutlets" : 3,
									"outlettype" : [ "int", "", "" ],
									"fontsize" : 11.595187,
									"items" : [ "DFG1394 VC-00175", ",", "DVCPRO HD (1080i50)", ",", "DVCPRO HD (1080i60)", ",", "DVCPRO HD (720p60)", ",", "DVCPRO HD (720p25/50)", ",", "DV Video", ",", "IIDC FireWire Video", ",", "USB Video Class Video" ],
									"types" : [  ],
									"numinlets" : 1
								}

							}
, 							{
								"box" : 								{
									"maxclass" : "newobj",
									"text" : "prepend append",
									"id" : "obj-30",
									"fontname" : "Arial",
									"patching_rect" : [ 50.0, 172.0, 93.0, 20.0 ],
									"numoutlets" : 1,
									"outlettype" : [ "" ],
									"fontsize" : 11.595187,
									"numinlets" : 1
								}

							}
, 							{
								"box" : 								{
									"maxclass" : "newobj",
									"text" : "route vdevlist inputlist",
									"id" : "obj-31",
									"fontname" : "Arial",
									"patching_rect" : [ 50.0, 121.0, 119.0, 20.0 ],
									"numoutlets" : 3,
									"outlettype" : [ "", "", "" ],
									"fontsize" : 11.595187,
									"numinlets" : 1
								}

							}
, 							{
								"box" : 								{
									"maxclass" : "message",
									"text" : "getinputlist",
									"id" : "obj-61",
									"fontname" : "Arial",
									"patching_rect" : [ 663.0, 164.0, 64.0, 18.0 ],
									"numoutlets" : 1,
									"outlettype" : [ "" ],
									"fontsize" : 11.595187,
									"numinlets" : 2
								}

							}
, 							{
								"box" : 								{
									"maxclass" : "message",
									"text" : "getvdevlist",
									"id" : "obj-65",
									"fontname" : "Arial",
									"patching_rect" : [ 596.0, 164.0, 63.0, 18.0 ],
									"numoutlets" : 1,
									"outlettype" : [ "" ],
									"fontsize" : 11.595187,
									"numinlets" : 2
								}

							}
, 							{
								"box" : 								{
									"maxclass" : "comment",
									"text" : "arguments <width> <height> <vdevice(optional)>",
									"id" : "obj-97",
									"fontname" : "Arial",
									"patching_rect" : [ 70.0, 100.0, 260.0, 20.0 ],
									"numoutlets" : 0,
									"fontsize" : 11.595187,
									"numinlets" : 1
								}

							}
, 							{
								"box" : 								{
									"maxclass" : "inlet",
									"id" : "obj-43",
									"patching_rect" : [ 55.0, 40.0, 25.0, 25.0 ],
									"numoutlets" : 1,
									"outlettype" : [ "" ],
									"numinlets" : 0,
									"comment" : ""
								}

							}
, 							{
								"box" : 								{
									"maxclass" : "outlet",
									"id" : "obj-44",
									"patching_rect" : [ 377.0, 298.0, 25.0, 25.0 ],
									"numoutlets" : 0,
									"numinlets" : 1,
									"comment" : ""
								}

							}
 ],
						"lines" : [ 							{
								"patchline" : 								{
									"source" : [ "obj-61", 0 ],
									"destination" : [ "obj-44", 0 ],
									"hidden" : 0,
									"midpoints" : [  ]
								}

							}
, 							{
								"patchline" : 								{
									"source" : [ "obj-65", 0 ],
									"destination" : [ "obj-44", 0 ],
									"hidden" : 0,
									"midpoints" : [  ]
								}

							}
, 							{
								"patchline" : 								{
									"source" : [ "obj-23", 0 ],
									"destination" : [ "obj-44", 0 ],
									"hidden" : 0,
									"midpoints" : [  ]
								}

							}
, 							{
								"patchline" : 								{
									"source" : [ "obj-28", 0 ],
									"destination" : [ "obj-44", 0 ],
									"hidden" : 0,
									"midpoints" : [  ]
								}

							}
, 							{
								"patchline" : 								{
									"source" : [ "obj-43", 0 ],
									"destination" : [ "obj-31", 0 ],
									"hidden" : 0,
									"midpoints" : [  ]
								}

							}
, 							{
								"patchline" : 								{
									"source" : [ "obj-31", 0 ],
									"destination" : [ "obj-20", 0 ],
									"hidden" : 0,
									"midpoints" : [  ]
								}

							}
, 							{
								"patchline" : 								{
									"source" : [ "obj-20", 0 ],
									"destination" : [ "obj-30", 0 ],
									"hidden" : 0,
									"midpoints" : [  ]
								}

							}
, 							{
								"patchline" : 								{
									"source" : [ "obj-30", 0 ],
									"destination" : [ "obj-29", 0 ],
									"hidden" : 0,
									"midpoints" : [  ]
								}

							}
, 							{
								"patchline" : 								{
									"source" : [ "obj-21", 0 ],
									"destination" : [ "obj-29", 0 ],
									"hidden" : 0,
									"midpoints" : [ 154.5, 192.0, 59.5, 192.0 ]
								}

							}
, 							{
								"patchline" : 								{
									"source" : [ "obj-29", 0 ],
									"destination" : [ "obj-28", 0 ],
									"hidden" : 0,
									"midpoints" : [  ]
								}

							}
, 							{
								"patchline" : 								{
									"source" : [ "obj-31", 0 ],
									"destination" : [ "obj-21", 0 ],
									"hidden" : 0,
									"midpoints" : [ 59.5, 145.0, 154.5, 145.0 ]
								}

							}
, 							{
								"patchline" : 								{
									"source" : [ "obj-31", 1 ],
									"destination" : [ "obj-26", 0 ],
									"hidden" : 0,
									"midpoints" : [ 109.5, 141.0, 210.5, 141.0 ]
								}

							}
, 							{
								"patchline" : 								{
									"source" : [ "obj-26", 0 ],
									"destination" : [ "obj-25", 0 ],
									"hidden" : 0,
									"midpoints" : [  ]
								}

							}
, 							{
								"patchline" : 								{
									"source" : [ "obj-25", 0 ],
									"destination" : [ "obj-24", 0 ],
									"hidden" : 0,
									"midpoints" : [  ]
								}

							}
, 							{
								"patchline" : 								{
									"source" : [ "obj-22", 0 ],
									"destination" : [ "obj-24", 0 ],
									"hidden" : 0,
									"midpoints" : [ 305.5, 192.0, 210.5, 192.0 ]
								}

							}
, 							{
								"patchline" : 								{
									"source" : [ "obj-24", 0 ],
									"destination" : [ "obj-23", 0 ],
									"hidden" : 0,
									"midpoints" : [  ]
								}

							}
, 							{
								"patchline" : 								{
									"source" : [ "obj-31", 1 ],
									"destination" : [ "obj-22", 0 ],
									"hidden" : 0,
									"midpoints" : [ 109.5, 141.0, 305.5, 141.0 ]
								}

							}
, 							{
								"patchline" : 								{
									"source" : [ "obj-31", 2 ],
									"destination" : [ "obj-27", 0 ],
									"hidden" : 0,
									"midpoints" : [ 159.5, 141.0, 347.5, 141.0 ]
								}

							}
, 							{
								"patchline" : 								{
									"source" : [ "obj-27", 0 ],
									"destination" : [ "obj-1", 0 ],
									"hidden" : 0,
									"midpoints" : [  ]
								}

							}
 ]
					}
,
					"saved_object_attributes" : 					{
						"default_fontname" : "Arial",
						"fontname" : "Arial",
						"default_fontsize" : 12.0,
						"globalpatchername" : "",
						"fontface" : 0,
						"fontsize" : 12.0,
						"default_fontface" : 0
					}

				}

			}
 ],
		"lines" : [  ]
	}

}
