{
	"patcher" : 	{
		"fileversion" : 1,
		"rect" : [ 30.0, 89.0, 289.0, 296.0 ],
		"bglocked" : 0,
		"defrect" : [ 30.0, 89.0, 289.0, 296.0 ],
		"openrect" : [ 0.0, 0.0, 0.0, 0.0 ],
		"openinpresentation" : 0,
		"default_fontsize" : 12.0,
		"default_fontface" : 0,
		"default_fontname" : "Arial",
		"gridonopen" : 0,
		"gridsize" : [ 15.0, 15.0 ],
		"gridsnaponopen" : 0,
		"toolbarvisible" : 1,
		"boxanimatetime" : 200,
		"imprint" : 0,
		"metadata" : [  ],
		"boxes" : [ 			{
				"box" : 				{
					"maxclass" : "number~",
					"mode" : 2,
					"htextcolor" : [ 0.870588, 0.870588, 0.870588, 1.0 ],
					"bgcolor" : [ 0.866667, 0.866667, 0.866667, 1.0 ],
					"numinlets" : 2,
					"fontname" : "Arial",
					"numoutlets" : 2,
					"patching_rect" : [ 27.0, 167.0, 65.0, 17.0 ],
					"id" : "obj-1",
					"sig" : 0.0,
					"outlettype" : [ "signal", "float" ],
					"fontsize" : 9.0,
					"interval" : 250.0
				}

			}
, 			{
				"box" : 				{
					"maxclass" : "comment",
					"text" : "record",
					"numinlets" : 1,
					"fontname" : "Arial",
					"numoutlets" : 0,
					"patching_rect" : [ 48.0, 77.0, 40.0, 17.0 ],
					"id" : "obj-2",
					"fontsize" : 9.0
				}

			}
, 			{
				"box" : 				{
					"maxclass" : "comment",
					"text" : "open",
					"numinlets" : 1,
					"fontname" : "Arial",
					"numoutlets" : 0,
					"patching_rect" : [ 86.0, 77.0, 30.0, 17.0 ],
					"id" : "obj-3",
					"fontsize" : 9.0
				}

			}
, 			{
				"box" : 				{
					"maxclass" : "led",
					"bgcolor" : [ 0.35294, 0.35294, 0.35294, 1.0 ],
					"numinlets" : 1,
					"numoutlets" : 1,
					"patching_rect" : [ 58.0, 89.0, 17.0, 17.0 ],
					"id" : "obj-4",
					"outlettype" : [ "int" ]
				}

			}
, 			{
				"box" : 				{
					"maxclass" : "button",
					"numinlets" : 1,
					"numoutlets" : 1,
					"patching_rect" : [ 89.0, 89.0, 17.0, 17.0 ],
					"id" : "obj-5",
					"outlettype" : [ "bang" ]
				}

			}
, 			{
				"box" : 				{
					"maxclass" : "textedit",
					"numinlets" : 1,
					"fontname" : "Geneva",
					"numoutlets" : 3,
					"patching_rect" : [ 27.0, 54.0, 151.0, 19.0 ],
					"id" : "obj-6",
					"outlettype" : [ "", "int", "" ],
					"fontsize" : 9.0
				}

			}
, 			{
				"box" : 				{
					"maxclass" : "newobj",
					"text" : "sfrecord~ 2",
					"numinlets" : 2,
					"fontname" : "Arial",
					"numoutlets" : 1,
					"patching_rect" : [ 27.0, 145.0, 64.0, 17.0 ],
					"id" : "obj-7",
					"outlettype" : [ "signal" ],
					"fontsize" : 9.0
				}

			}
, 			{
				"box" : 				{
					"maxclass" : "comment",
					"text" : "filename",
					"numinlets" : 1,
					"fontname" : "Arial",
					"numoutlets" : 0,
					"patching_rect" : [ 24.0, 42.0, 48.0, 17.0 ],
					"id" : "obj-8",
					"fontsize" : 9.0
				}

			}
, 			{
				"box" : 				{
					"maxclass" : "newobj",
					"text" : "p",
					"numinlets" : 3,
					"fontname" : "Arial",
					"numoutlets" : 1,
					"patching_rect" : [ 27.0, 112.0, 72.0, 17.0 ],
					"id" : "obj-9",
					"outlettype" : [ "int" ],
					"fontsize" : 9.0,
					"patcher" : 					{
						"fileversion" : 1,
						"rect" : [ 30.0, 89.0, 600.0, 426.0 ],
						"bglocked" : 0,
						"defrect" : [ 30.0, 89.0, 600.0, 426.0 ],
						"openrect" : [ 0.0, 0.0, 0.0, 0.0 ],
						"openinpresentation" : 0,
						"default_fontsize" : 12.0,
						"default_fontface" : 0,
						"default_fontname" : "Arial",
						"gridonopen" : 0,
						"gridsize" : [ 15.0, 15.0 ],
						"gridsnaponopen" : 0,
						"toolbarvisible" : 1,
						"boxanimatetime" : 200,
						"imprint" : 0,
						"metadata" : [  ],
						"boxes" : [ 							{
								"box" : 								{
									"maxclass" : "inlet",
									"numinlets" : 0,
									"numoutlets" : 1,
									"patching_rect" : [ 22.0, 52.0, 15.0, 15.0 ],
									"id" : "obj-1",
									"outlettype" : [ "int" ],
									"comment" : ""
								}

							}
, 							{
								"box" : 								{
									"maxclass" : "newobj",
									"text" : "sprintf open :%s",
									"numinlets" : 1,
									"fontname" : "Arial",
									"numoutlets" : 1,
									"patching_rect" : [ 50.0, 165.0, 85.0, 17.0 ],
									"id" : "obj-2",
									"outlettype" : [ "" ],
									"fontsize" : 9.0
								}

							}
, 							{
								"box" : 								{
									"maxclass" : "newobj",
									"text" : "zl reg",
									"numinlets" : 2,
									"fontname" : "Arial",
									"numoutlets" : 2,
									"patching_rect" : [ 50.0, 141.0, 36.0, 17.0 ],
									"id" : "obj-3",
									"outlettype" : [ "", "" ],
									"fontsize" : 9.0
								}

							}
, 							{
								"box" : 								{
									"maxclass" : "newobj",
									"text" : "route text",
									"numinlets" : 1,
									"fontname" : "Arial",
									"numoutlets" : 2,
									"patching_rect" : [ 76.0, 120.0, 56.0, 17.0 ],
									"id" : "obj-4",
									"outlettype" : [ "", "" ],
									"fontsize" : 9.0
								}

							}
, 							{
								"box" : 								{
									"maxclass" : "inlet",
									"numinlets" : 0,
									"numoutlets" : 1,
									"patching_rect" : [ 0.0, 52.0, 15.0, 15.0 ],
									"id" : "obj-5",
									"outlettype" : [ "" ],
									"comment" : ""
								}

							}
, 							{
								"box" : 								{
									"maxclass" : "inlet",
									"numinlets" : 0,
									"numoutlets" : 1,
									"patching_rect" : [ 50.0, 51.0, 15.0, 15.0 ],
									"id" : "obj-6",
									"outlettype" : [ "bang" ],
									"comment" : ""
								}

							}
, 							{
								"box" : 								{
									"maxclass" : "outlet",
									"numinlets" : 1,
									"numoutlets" : 0,
									"patching_rect" : [ 50.0, 187.0, 15.0, 15.0 ],
									"id" : "obj-7",
									"comment" : ""
								}

							}
 ],
						"lines" : [ 							{
								"patchline" : 								{
									"source" : [ "obj-4", 0 ],
									"destination" : [ "obj-3", 1 ],
									"hidden" : 0,
									"midpoints" : [  ]
								}

							}
, 							{
								"patchline" : 								{
									"source" : [ "obj-5", 0 ],
									"destination" : [ "obj-4", 0 ],
									"hidden" : 0,
									"midpoints" : [  ]
								}

							}
, 							{
								"patchline" : 								{
									"source" : [ "obj-1", 0 ],
									"destination" : [ "obj-7", 0 ],
									"hidden" : 0,
									"midpoints" : [ 31.0, 103.0 ]
								}

							}
, 							{
								"patchline" : 								{
									"source" : [ "obj-2", 0 ],
									"destination" : [ "obj-7", 0 ],
									"hidden" : 0,
									"midpoints" : [  ]
								}

							}
, 							{
								"patchline" : 								{
									"source" : [ "obj-3", 0 ],
									"destination" : [ "obj-2", 0 ],
									"hidden" : 0,
									"midpoints" : [  ]
								}

							}
, 							{
								"patchline" : 								{
									"source" : [ "obj-6", 0 ],
									"destination" : [ "obj-3", 0 ],
									"hidden" : 0,
									"midpoints" : [  ]
								}

							}
 ]
					}
,
					"saved_object_attributes" : 					{
						"globalpatchername" : "",
						"default_fontface" : 0,
						"default_fontname" : "Arial",
						"fontname" : "Arial",
						"default_fontsize" : 12.0,
						"fontface" : 0,
						"fontsize" : 12.0
					}

				}

			}
 ],
		"lines" : [ 			{
				"patchline" : 				{
					"source" : [ "obj-5", 0 ],
					"destination" : [ "obj-9", 2 ],
					"hidden" : 0,
					"midpoints" : [  ]
				}

			}
, 			{
				"patchline" : 				{
					"source" : [ "obj-4", 0 ],
					"destination" : [ "obj-9", 1 ],
					"hidden" : 0,
					"midpoints" : [  ]
				}

			}
, 			{
				"patchline" : 				{
					"source" : [ "obj-7", 0 ],
					"destination" : [ "obj-1", 0 ],
					"hidden" : 0,
					"midpoints" : [  ]
				}

			}
, 			{
				"patchline" : 				{
					"source" : [ "obj-9", 0 ],
					"destination" : [ "obj-7", 0 ],
					"hidden" : 0,
					"midpoints" : [  ]
				}

			}
, 			{
				"patchline" : 				{
					"source" : [ "obj-6", 0 ],
					"destination" : [ "obj-9", 0 ],
					"hidden" : 0,
					"midpoints" : [  ]
				}

			}
 ]
	}

}
