max v2;#N vpatcher 12 47 1017 760;#P origin 0 -166;#P newex 638 360 113 196617 prepend /reduce-model;#P button 256 229 15 0;#P newex 64 286 41 196617 print hi;#P message 401 668 31 196617 dump;#P message 310 706 74 196617 /input-gain \$1;#P newex 110 655 40 196617 b 3;#P newex 524 704 40 196617 t s s s;#P button 411 701 15 0;#P newex 496 741 38 196617 listreg;#P newex 321 770 148 196617 sprintf /transform/set %s %s;#N coll $0trans-mix;#T flags 1 0;#P newobj 436 667 85 196617 coll $0trans-mix;#P message 209 726 147 196617 /coll-name $0res-mix;#P newex 299 579 60 196617 prepend set;#P newex 325 520 27 196617 * 1.;#P newex 437 594 99 196617 sprintf store %s %f;#P newex 452 472 27 196617 f;#P message 299 491 17 196617 0.;#P newex 282 448 40 196617 b 3;#P newex 452 550 27 196617 + 0.;#P newex 437 439 40 196617 t s b s;#N coll $0trans-mix;#T flags 1 0;#P newobj 468 523 85 196617 coll $0trans-mix;#P newex 452 494 27 196617 * 1.;#P newex 437 407 58 196617 unpack s 1.;#P newex 487 467 143 196617 coll-copy init-trans-parameters $0trans-mix;#N coll init-trans-parameters;#T flags 1 0;#T store spectral-corner 0.;#T store spectral-slope 0.;#T store rate-scale 1.;#T store gain-scale 1.;#T store frequency-scale 1.;#T store frequency-add 0.;#T store cluster-size 1.;#T store frequency-around 0.;#T store frequency-spread 0.;#T store frequency-stretch 1.;#T store attenuation-spread 0.;#T store rate-spread 0.;#T store rate-stretch 0.;#P newobj 634 467 128 196617 coll init-trans-parameters;#N coll $0trans-parameters;#T flags 1 0;#T store spectral-corner 0.;#T store spectral-slope 0.;#T store rate-scale 1.;#T store gain-scale 1.;#T store frequency-scale 1.;#T store frequency-add 0.;#T store cluster-size 1.;#T store frequency-around 0.;#T store frequency-spread 0.;#T store frequency-stretch 1.;#T store attenuation-spread 0.;#T store rate-spread 0.;#T store rate-stretch 0.;#P newobj 588 584 188 196617 coll $0trans-parameters;#P newex 437 357 78 196617 OSC-route /set;#P newex 325 291 64 196617 prepend amp;#P newex 227 268 40 196617 t f f f;#N coll $0res-mix;#T flags 1 0;#P newobj 209 638 97 196617 coll $0res-mix;#P newex 209 571 27 196617 int;#P newex 209 493 27 196617 t i i;#P newex 209 603 27 196617 join;#P newex 179 545 40 196617 Ladd 0.;#P newex 192 443 27 196617 t l b;#P newex 209 470 66 196617 counter;#P newex 179 572 27 196617 t b l;#P message 282 471 31 196617 clear;#P newex 110 112 183 196617 t b l b;#P message 256 422 14 196617 0;#P newex 310 685 48 196617 accum 0.;#N coll $0res-mix;#T flags 1 0;#P newobj 209 519 97 196617 coll $0res-mix;#P newex 192 420 45 196617 Lmult 1.;#P message 179 377 31 196617 dump;#N coll $0temp_reduced;#T flags 1 0;#P newobj 179 395 184 196617 coll $0temp_reduced;#P newex 179 295 62 196617 coll-dumper;#P message 325 271 20 196617 30;#P newex 325 248 30 196617 sel 0;#P message 325 221 184 196617 $2;#P newex 325 195 45 196617 loadbang;#P newex 179 357 184 196617 res-model-loader $0temp;#P newex 179 314 305 196617 osc-route /coll-name /SDIF-buffer-name /input-gain /transform;#P flonum 519 137 35 9 0 0 0 3 0 0 0 221 221 221 222 222 222 0 0 0;#P flonum 456 142 35 9 0 0 0 3 0 0 0 221 221 221 222 222 222 0 0 0;#P newex 457 112 62 196617 unpack 1. 1.;#P newex 179 244 58 196617 unpack s 1.;#P newex 479 58 30 196617 sel 0;#P message 479 32 222 196617 $1;#P newex 479 6 45 196617 loadbang;#P newex 311 109 70 196617 prepend refer;#P message 13 136 14 196617 3;#P message 34 136 17 196617 2.;#P newex 13 107 45 196617 loadbang;#N comlet (list) connect to poly~ resonators~.voi n;#P outlet 209 750 15 0;#P user GSwitch2 375 178 39 32 0 0;#P inlet 179 1 15 0;#P newex 179 20 271 196617 osc-route /go /position /mix-this-many /distance-order /coordinate-collection /gain /output-channel;#P flonum 242 140 35 9 0 0 0 3 0 0 0 221 221 221 222 222 222 0 0 0;#P message 687 248 85 196617 57-09.aiff 0.47142 57-08.aiff 0.52858;#P newex 687 220 60 196617 prepend set;#P newex 179 199 49 196617 listiter 2;#P number 200 139 35 9 0 0 0 3 0 0 0 221 221 221 222 222 222 0 0 0;#P newex 179 79 38 196617 listreg;#P newex 179 167 75 196617 get-distances;#P connect 11 0 13 0;#P connect 11 0 12 0;#P connect 18 0 71 0;#P connect 1 0 35 0;#P connect 35 0 68 0;#P connect 8 0 7 0;#P connect 7 0 1 0;#P connect 35 1 0 0;#P connect 0 0 3 0;#P connect 3 0 18 0;#P connect 18 0 28 0;#P connect 28 0 22 0;#P connect 22 0 23 0;#P connect 23 0 30 0;#P connect 30 0 29 0;#P connect 39 0 40 0;#P connect 40 0 37 0;#P connect 29 0 31 0;#P connect 31 0 39 0;#P connect 7 2 2 0;#P connect 13 0 2 0;#P connect 2 0 0 1;#P connect 7 1 1 1;#P connect 39 1 38 0;#P connect 38 0 42 0;#P connect 42 0 32 0;#P connect 36 0 32 0;#P connect 57 0 40 1;#P connect 32 0 40 1;#P connect 37 0 43 0;#P connect 43 0 41 0;#P connect 41 0 44 0;#P connect 68 0 62 0;#P fasten 73 0 10 0 643 773 536 798 286 798 251 776;#P connect 62 0 10 0;#P connect 69 0 10 0;#P connect 64 0 10 0;#P connect 6 0 0 2;#P connect 42 1 43 1;#P connect 37 1 41 1;#P connect 18 1 45 0;#P connect 45 0 31 1;#P connect 34 0 38 2;#P connect 7 3 6 0;#P connect 12 0 6 0;#P connect 14 0 0 3;#P connect 3 0 72 0;#P connect 72 0 34 0;#P connect 35 2 56 0;#P connect 56 0 36 0;#P connect 56 1 57 0;#P connect 57 0 61 0;#P connect 61 0 33 0;#P connect 68 1 33 0;#P connect 33 0 69 0;#P connect 7 4 14 0;#P connect 17 1 14 0;#P connect 65 0 64 0;#P connect 24 0 25 0;#P connect 25 0 26 0;#P connect 26 0 27 0;#P connect 27 0 46 0;#P fasten 26 1 46 0 350 282;#P connect 22 2 60 0;#P connect 60 0 33 1;#P connect 45 1 60 1;#P connect 68 2 70 0;#P connect 0 0 9 1;#P connect 63 0 66 0;#P connect 59 0 63 0;#P connect 70 0 63 0;#P connect 22 3 47 0;#P connect 47 0 51 0;#P connect 51 0 54 0;#P connect 54 0 59 0;#P connect 54 1 58 0;#P connect 58 0 52 0;#P connect 52 0 55 0;#P connect 19 0 20 0;#P connect 7 1 19 0;#P connect 63 0 64 1;#P connect 54 2 53 0;#P connect 51 1 58 1;#P connect 45 2 52 1;#P connect 57 0 55 1;#P connect 53 0 55 1;#P connect 15 0 16 0;#P connect 16 0 17 0;#P connect 56 2 50 0;#P connect 66 0 65 0;#P connect 19 1 21 0;#P connect 63 1 67 0;#P connect 67 0 65 1;#P connect 55 0 59 1;#P connect 46 0 73 0;#P connect 9 1 4 0;#P connect 4 0 5 0;#P pop;