max v2;#N vpatcher 8 63 989 767;#P setbglock 1;#P comment 624 43 44 196617 models;#P number 588 37 35 18 0 0 0 3 0 0 0 221 221 221 222 222 222 0 0 0;#P hidden newex 353 45 175 196617 osc-route /position /mix-this-many;#P hidden inlet 353 26 15 0;#P comment 805 42 135 133627922 2-D sample space;#P comment 562 44 25 196617 mix;#P message 187 245 39 196617 /go \$1;#P newex 250 224 85 196617 prepend /impulse;#P newex 250 204 27 196617 f;#P objectname gain;#P newex 161 149 45 196617 loadbang;#P button 15 244 15 0;#P newex 15 264 135 196617 resonance-model-collections;#P message 195 185 45 196617 target 1;#P newex 227 265 95 196617 receive~ 1main-out;#P newex 227 244 115 196617 poly~ resonators~.voi 1;#P objectname resonators~.voi;#P comment 21 38 254 196617 ¥ always work in edit mode;#P background;#P comment 21 90 254 196617 ¥ [x \, y] of top left corner of buttons is what counts;#P background;#P comment 21 77 254 196617 ¥ move the buttons onto the grid;#P background;#P comment 21 64 254 196617 ¥ command-click bottons to audition buffers;#P background;#P user multiSlider 267 162 40 39 0. 1. 1 2681 15;#M frgb 0 0 0;#M brgb 255 255 255;#P message 119 185 31 196617 TEXT;#N thispatcher;#Q end;#P newobj 75 234 59 196617 thispatcher;#P background;#N vpatcher 44 44 1002 744;#P newex 254 571 173 196617 sprintf script nth bang_%s trigger 1;#P newex 14 592 188 196617 sprintf script connect bang_%s 0 gain 0;#P newex 268 626 299 196617 sprintf script new comment_%s comment 10 %d 30 196617 %d;#P newex 15 569 228 196617 sprintf script connect bang_%s 1 message_%s 0;#P newex 268 550 180 196617 sprintf newex 35 %d 80 196617 t b b;#P newex 199 413 38 196617 listreg;#P message 52 173 108 196617 script sendtoback grid;#P comment 118 533 65 196617 connect stuff;#P comment 655 514 155 196617 make buttons and message boxes;#P newex 575 105 71 196617 prepend types;#P newex 887 637 31 196617 out 1;#P newex 871 568 54 196617 group 256;#N comlet (list of symbols) names of loaded files;#P outlet 871 638 15 0;#P newex 32 549 211 196617 sprintf script connect click_%s 0 bang_%s 0;#P newex 331 593 339 196617 sprintf script new message_%s message 35 %d 250 196617 /preset %s;#P newex 199 446 66 196617 t s s s s s;#P newex 8 623 260 196617 sprintf script connect message_%s 0 resonators~.voi 0;#P newex 719 265 144 196617 sprintf script delete buffer%d;#P newex 702 242 27 196617 t i i;#N thispatcher;#Q end;#P newobj 702 323 59 196617 thispatcher;#P newex 297 529 284 196617 sprintf script new click_%s message 288 %d 30 196617 %d;#P button 672 174 15 0;#P newex 702 299 143 196617 sprintf script delete toggle%d;#P newex 672 218 40 196617 uzi;#P newex 595 289 85 196617 print now-loading;#P newex 593 46 45 196617 loadbang;#P newex 199 320 53 196617 t b i i i;#P message 237 242 14 196617 1;#P newex 199 298 66 196617 counter;#P newex 414 416 102 196617 expr 300 + $i1 * 19;#P newex 649 530 199 196617 sprintf newex 35 %d 250 196617 coll %s;#P newex 447 107 40 196617 t b s b;#P newex 462 232 28 196617 t b s;#P newex 462 203 65 196617 route append;#P message 593 73 31 196617 TEXT;#P newex 462 161 35 196617 folder;#N comlet (sym) 4-letter file type;#P inlet 575 47 15 0;#N comlet (bang) delete everything;#P inlet 672 47 15 0;#N comlet (stuff) connect to 'thispatcher';#P outlet 305 661 15 0;#N comlet (sym) path for sound files;#P inlet 447 47 15 0;#P connect 24 0 23 0;#P connect 24 0 38 0;#P connect 24 0 36 0;#P connect 24 0 26 0;#P connect 8 0 33 0;#P connect 7 0 11 0;#P connect 11 0 13 0;#P connect 13 0 34 0;#P connect 34 0 24 0;#P connect 12 0 11 2;#P connect 7 1 34 1;#P connect 24 0 26 1;#P connect 24 0 36 1;#P fasten 8 2 12 0 242 174 242 243;#P connect 24 2 39 0;#P connect 10 0 35 0;#P connect 24 4 37 0;#P connect 24 3 19 0;#P connect 39 0 1 0;#P connect 35 0 1 0;#P connect 19 0 1 0;#P fasten 33 0 1 0 57 633;#P connect 37 0 1 0;#P connect 9 0 1 0;#P connect 25 0 1 0;#P connect 26 0 1 0;#P connect 23 0 1 0;#P connect 38 0 1 0;#P connect 36 0 1 0;#P connect 24 1 25 0;#P connect 10 0 37 1;#P connect 13 3 10 0;#P connect 10 0 19 1;#P connect 0 0 8 0;#P connect 30 0 4 0;#P connect 8 1 4 0;#P connect 4 0 6 0;#P connect 6 0 7 0;#P connect 10 0 25 1;#P connect 13 1 37 2;#P connect 13 2 19 2;#P connect 5 0 30 0;#P connect 3 0 30 0;#P connect 14 0 5 0;#P connect 7 1 15 0;#P connect 10 0 9 0;#P connect 7 1 25 2;#P connect 2 0 18 0;#P connect 4 1 16 1;#P connect 16 2 21 0;#P connect 21 0 17 0;#P connect 22 0 20 0;#P connect 17 0 20 0;#P connect 21 1 22 0;#P connect 7 1 9 1;#P connect 7 1 28 0;#P connect 28 0 27 0;#P connect 28 0 29 0;#P pop;#P newobj 75 210 99 196617 p scripting-madness;#P background;#P comment 6 186 113 196617 file type.......................;#P background;#P toggle 209 287 17 0;#P message 75 131 293 196617 :patches:ali:space-designer-player:resonance-spaces:res-test;#P comment 21 103 254 196617 ¥ which buffer? option-click > Name... the buttons;#P background;#P newex 227 287 50 196617 dac~ 1 2;#P background;#P objectname dac~;#P comment 6 132 69 196617 folder path....;#P background;#P comment 274 147 26 196617 gain;#P background;#P comment 6 24 35 196617 notes:;#P background;#P comment 21 51 254 196617 ¥ from View menu \, select "Hide Connections";#P background;#P user pictslider 353 67 585 586 4 4 4 4 SliderDefaultKnob.pct 1 SliderDefaultBkgnd.pct 1 2163 0 8323072 127 1. 1.;#P background;#P objectname grid;#P connect 23 0 22 0;#P connect 22 0 21 0;#P connect 7 0 10 0;#P connect 10 0 11 0;#P connect 12 0 10 1;#P connect 8 0 26 0;#P connect 23 0 20 0;#P connect 25 0 18 0;#P connect 20 0 18 0;#P connect 26 0 18 0;#P connect 19 0 5 0;#P connect 8 0 5 0;#P connect 24 0 25 0;#P connect 13 0 24 1;#P connect 19 0 5 1;#P hidden connect 29 0 30 0;#P hidden connect 30 0 0 0;#P hidden connect 30 1 31 0;#P pop;