{
	"patcher" : 	{
		"fileversion" : 1,
		"rect" : [ 50.0, 119.0, 600.0, 426.0 ],
		"bglocked" : 0,
		"defrect" : [ 50.0, 119.0, 600.0, 426.0 ],
		"openrect" : [ 0.0, 0.0, 0.0, 0.0 ],
		"openinpresentation" : 0,
		"default_fontsize" : 12.0,
		"default_fontface" : 0,
		"default_fontname" : "Arial",
		"gridonopen" : 0,
		"gridsize" : [ 15.0, 15.0 ],
		"gridsnaponopen" : 0,
		"toolbarvisible" : 1,
		"boxanimatetime" : 200,
		"imprint" : 0,
		"metadata" : [  ],
		"boxes" : [ 			{
				"box" : 				{
					"maxclass" : "newobj",
					"text" : "pak 0. 1.",
					"fontname" : "Arial",
					"outlettype" : [ "" ],
					"fontsize" : 9.0,
					"numinlets" : 2,
					"patching_rect" : [ 209.0, 30.0, 45.0, 17.0 ],
					"id" : "obj-1",
					"numoutlets" : 1
				}

			}
, 			{
				"box" : 				{
					"maxclass" : "flonum",
					"htextcolor" : [ 0.870588, 0.870588, 0.870588, 1.0 ],
					"fontname" : "Gill Sans",
					"outlettype" : [ "float", "bang" ],
					"bgcolor" : [ 0.866667, 0.866667, 0.866667, 1.0 ],
					"fontsize" : 9.0,
					"numinlets" : 1,
					"patching_rect" : [ 280.0, 10.0, 68.0, 17.0 ],
					"id" : "obj-2",
					"numoutlets" : 2,
					"triscale" : 0.9
				}

			}
, 			{
				"box" : 				{
					"maxclass" : "flonum",
					"htextcolor" : [ 0.870588, 0.870588, 0.870588, 1.0 ],
					"fontname" : "Gill Sans",
					"outlettype" : [ "float", "bang" ],
					"bgcolor" : [ 0.866667, 0.866667, 0.866667, 1.0 ],
					"fontsize" : 9.0,
					"numinlets" : 1,
					"patching_rect" : [ 209.0, 10.0, 68.0, 17.0 ],
					"id" : "obj-3",
					"numoutlets" : 2,
					"triscale" : 0.9
				}

			}
, 			{
				"box" : 				{
					"maxclass" : "message",
					"text" : "setrange $1 $2",
					"fontname" : "Arial",
					"outlettype" : [ "" ],
					"fontsize" : 9.0,
					"numinlets" : 2,
					"patching_rect" : [ 209.0, 52.0, 71.0, 15.0 ],
					"id" : "obj-4",
					"numoutlets" : 1
				}

			}
, 			{
				"box" : 				{
					"maxclass" : "flonum",
					"htextcolor" : [ 0.870588, 0.870588, 0.870588, 1.0 ],
					"fontname" : "Gill Sans",
					"outlettype" : [ "float", "bang" ],
					"bgcolor" : [ 0.866667, 0.866667, 0.866667, 1.0 ],
					"fontsize" : 9.0,
					"numinlets" : 1,
					"patching_rect" : [ 209.0, 69.0, 68.0, 17.0 ],
					"id" : "obj-5",
					"numoutlets" : 2,
					"triscale" : 0.9
				}

			}
, 			{
				"box" : 				{
					"maxclass" : "message",
					"text" : "setdomain $1",
					"fontname" : "Arial",
					"outlettype" : [ "" ],
					"fontsize" : 9.0,
					"numinlets" : 2,
					"patching_rect" : [ 209.0, 85.0, 70.0, 15.0 ],
					"id" : "obj-6",
					"numoutlets" : 1
				}

			}
, 			{
				"box" : 				{
					"maxclass" : "function",
					"outlettype" : [ "float", "", "", "bang" ],
					"bordercolor" : [ 0.0, 0.0, 0.0, 1.0 ],
					"domain" : 4.0,
					"numinlets" : 1,
					"patching_rect" : [ 8.0, 10.0, 200.0, 100.0 ],
					"pointcolor" : [ 0.321569, 0.321569, 0.321569, 1.0 ],
					"id" : "obj-7",
					"numoutlets" : 4,
					"linecolor" : [ 0.333333, 0.333333, 0.333333, 1.0 ],
					"addpoints" : [ 0.0, 0.0, 0, 4.0, 1.0, 0 ]
				}

			}
 ],
		"lines" : [ 			{
				"patchline" : 				{
					"source" : [ "obj-2", 0 ],
					"destination" : [ "obj-1", 1 ],
					"hidden" : 0,
					"midpoints" : [  ]
				}

			}
, 			{
				"patchline" : 				{
					"source" : [ "obj-1", 0 ],
					"destination" : [ "obj-4", 0 ],
					"hidden" : 0,
					"midpoints" : [  ]
				}

			}
, 			{
				"patchline" : 				{
					"source" : [ "obj-3", 0 ],
					"destination" : [ "obj-1", 0 ],
					"hidden" : 0,
					"midpoints" : [  ]
				}

			}
, 			{
				"patchline" : 				{
					"source" : [ "obj-4", 0 ],
					"destination" : [ "obj-7", 0 ],
					"hidden" : 1,
					"midpoints" : [  ]
				}

			}
, 			{
				"patchline" : 				{
					"source" : [ "obj-6", 0 ],
					"destination" : [ "obj-7", 0 ],
					"hidden" : 1,
					"midpoints" : [  ]
				}

			}
, 			{
				"patchline" : 				{
					"source" : [ "obj-5", 0 ],
					"destination" : [ "obj-6", 0 ],
					"hidden" : 0,
					"midpoints" : [  ]
				}

			}
 ]
	}

}
