max v2;#N vpatcher 0 44 275 186;#P origin -940 -2281;#P window setfont "Sans Serif" 9.;#P newex 616 -246 61 196617 prepend set;#P number 40 3 47 9 0 0 0 3 0 0 0 221 221 221 222 222 222 0 0 0;#P hidden newex -4 -217 31 196617 t 0 0;#P hidden newex 38 -217 21 196617 t 1;#P hidden newex -44 -123 27 196617 gate;#P hidden newex 11 -242 40 196617 sel 0 1;#P user led 24 3 17 17 1 150;#P hidden newex -73 -296 105 196617 r from-phrase-finder;#P hidden newex -44 -101 93 196617 s to-phrase-finder;#P hidden newex -90 -219 27 196617 del;#P newex -323 329 115 196617 s $0-to-myself;#P hidden newex 75 -233 121 196617 r $0-to-myself;#P hidden newex -338 270 27 196617 gate;#P comment 196 95 13 196617 a;#P comment 76 95 13 196617 a;#P hidden button 166 98 15 0;#P hidden button 196 106 15 0;#P toggle 194 94 15 0;#P comment 149 104 74 196617 ______;#P newex 779 -132 31 196617 t 0.9;#P newex 779 -156 55 196617 route bang;#P newex 615 -169 88 196617 sprintf write :%s;#P message 615 -197 21 196617 $1;#P newex 615 -220 55 196617 route bang;#P window setfont Techno 9.;#P message 114 94 30 131465225 /write;#P window setfont "Sans Serif" 9.;#P hidden newex 336 -118 42 196617 del 100;#P hidden newex 351 -141 27 196617 t b f;#P hidden button 40 98 15 0;#P hidden button 77 106 15 0;#P window setfont Techno 9.;#P message 148 94 45 131465225 /normalize;#P window setfont "Sans Serif" 9.;#P message 778 -94 68 196617 normalize \$1;#P hidden newex 484 -171 105 196617 nothing;#P hidden newex -190 -194 45 196617 loadbang;#P hidden newex 14 137 45 196617 loadbang;#P hidden newex 646 -133 53 196617 delay 300;#P hidden newex 191 -75 173 196617 s ali.sample-recorder~-select-reset;#P hidden newex 216 -123 27 196617 t i 0;#P user led 105 3 17 17 2 150;#P hidden newex 183 -35 173 196617 r ali.sample-recorder~-select-reset;#P hidden newex 251 -75 40 196617 change;#P hidden newex 455 283 85 196617 range-to-minmax;#P hidden newex 574 222 83 196617 scale 0. 1. 0. $2;#P hidden newex 490 222 83 196617 scale 0. 1. 0. $2;#P hidden newex 604 -57 105 196617 info~ $1;#P hidden newex 685 136 27 196617 f;#P hidden newex 15 172 21 196617 t 1;#P hidden newex -217 289 27 196617 * 1.;#P hidden newex -367 271 27 196617 gate;#P hidden newex -369 200 129 196617 t f /crop /normalize b f 0.;#P hidden newex -295 240 105 196617 info~ $1;#P toggle 75 94 15 0;#P window setfont Techno 9.;#P message 18 94 29 131465225 /reset;#P window setfont "Sans Serif" 9.;#P hidden newex 338 223 28 196617 grab;#P hidden newex 218 146 40 196617 t b 0. b;#P hidden newex 380 -161 66 196617 t f f f f f;#P window setfont Techno 9.;#P message 218 94 29 131465225 <--->;#P window setfont "Sans Serif" 9.;#P hidden newex 553 -107 43 196617 t b crop;#P hidden newex 484 -74 28 196617 f $2;#P hidden inlet 162 -392 15 0;#P hidden message 309 -53 41 196617 size \$1;#P window setfont Techno 9.;#P message 48 94 26 131465225 /crop;#P window setfont "Sans Serif" 9.;#P hidden newex -188 -174 21 196617 t 0;#P hidden newex 190 247 27 196617 b;#P hidden newex 50 327 52 196617 pack 1. 1.;#P hidden newex 92 294 27 196617 f;#P hidden newex 50 294 27 196617 f;#P hidden newex 60 -126 45 196617 t b clear;#P hidden newex -369 385 177 196617 prepend $1;#P hidden outlet -369 437 15 0;#P hidden newex -369 342 27 196617 * 1.;#P hidden newex -369 164 53 196617 snapshot~;#P hidden newex -206 -18 27 196617 t i i;#P hidden message -225 18 51 196617 enable \$1;#P hidden newex -227 -106 21 196617 t 0;#P hidden newex -152 -148 115 196617 t 1 1 1 b clear /reset b;#P hidden newex -369 81 60 196617 record~ $1;#P hidden newex -369 -26 95 196617 fade-in-out~ 20 20;#P hidden newex 290 -113 27 196617 t b l;#P hidden newex 379 18 60 196617 prepend set;#P hidden newex 379 -26 35 196617 thresh;#P hidden newex 379 -80 27 196617 bag;#P hidden message 250 20 28 196617;#N coll ;#T flags 1 0;#T 0 mode select;#T 1 mode loop;#T 2 mode move;#T 3 mode draw;#P hidden newobj 4 -35 53 196617 coll;#P user pictslider 2 20 17 73 0 0 0 0 wfknob.pct 1 wfmodes.pct 1 2146 0 0 196608 1. 1.;#P hidden newex 232 -292 329 196617 osc-route /record /in-use /clear /dump /size /crop /reset /auto-crop-reset /center /range /select /select-all /buffer~ /normalize /write /auto-normilize /record-stop-delay /auto-phrase /buffer-name;#P hidden newex 306 61 60 196617 prepend set;#P window setfont Impact 12.;#P message 122 3 129 133627916 $1;#P window setfont "Sans Serif" 9.;#P hidden newex -142 -14 45 196617 loadbang;#P user led 2 3 17 17 0 150;#N comlet (f \, f) loop start (ms) \, loop end (ms);#P hidden outlet 50 367 15 0;#P hidden inlet -369 -251 15 0;#P hidden newex 2 -183 40 196617 sel 0 1;#P hidden message -91 -34 84 196617 set $1;#P user waveform~ 18 20 233 73 3 9;#W mode select;#W snap zero;#W mouseoutput continuous;#W unit ms;#W grid 1000.;#W ticks 0.;#W labels 1;#W vlabels 0;#W vticks 1;#W bpm 120. 4.;#W frgb 163 255 140;#W brgb 5 127 38;#W rgb2 43 86 255;#W rgb3 0 0 0;#W rgb4 0 0 0;#W rgb5 209 255 141;#W rgb6 100 100 100;#W rgb7 140 140 140;#P hidden newex -46 -54 161 196617 buffer~ $1 $2;#P hidden newex -285 14 40 196617 t b 0 0;#P hidden comment 252 4 34 196617 in use;#P hidden comment -154 324 148 196617 arg 1(s): buffer namne \; arg 2(int): buffer length in ms \;;#P comment 19 104 74 196617 ________;#P hidden connect 8 0 22 0;#P connect 98 0 23 0;#P hidden connect 24 1 23 0;#P hidden connect 3 2 23 0;#P hidden connect 22 0 23 0;#P hidden fasten 3 0 28 0 -300 100;#P hidden connect 23 0 28 0;#P hidden connect 28 0 50 0;#P hidden fasten 50 0 29 0 -402 276;#P hidden connect 29 0 31 0;#P hidden connect 31 0 30 0;#P hidden fasten 48 0 51 0 -362 245;#P hidden fasten 44 2 29 1 556 -60 556 142 -271 232;#P hidden connect 50 1 51 1;#P hidden connect 24 0 22 1;#P hidden connect 25 0 22 1;#P hidden fasten 81 0 86 0 -333 242;#P connect 51 0 88 0;#P connect 86 0 88 0;#P connect 50 2 86 1;#P hidden connect 98 0 49 0;#P hidden connect 50 3 49 0;#P hidden fasten 27 0 22 4 -237 9;#P hidden connect 22 2 3 0;#P hidden connect 89 0 25 0;#P hidden connect 27 1 26 0;#P hidden connect 49 6 52 0;#P hidden connect 24 2 27 0;#P hidden fasten 3 1 27 0 -204 52 -148 27 -173 -27;#P hidden connect 37 0 27 0;#P hidden connect 50 4 52 1;#P connect 66 0 37 0;#P hidden connect 7 1 24 0;#P hidden connect 24 3 6 0;#P hidden connect 11 0 6 0;#P hidden connect 32 0 6 0;#P hidden connect 7 0 89 0;#P hidden connect 91 0 89 1;#P hidden fasten 14 16 89 1 49 -178 -29 -219;#P hidden connect 96 0 89 1;#P connect 98 0 4 0;#P hidden connect 24 4 4 0;#P hidden connect 67 0 4 0;#P hidden fasten 39 0 4 0 233 -33 115 -96;#P hidden connect 32 1 4 0;#P hidden connect 77 0 4 0;#P hidden connect 96 1 94 0;#P hidden connect 95 0 94 0;#P hidden connect 94 0 90 0;#P hidden connect 24 6 94 1;#P hidden connect 93 0 96 0;#P hidden connect 10 0 7 0;#P hidden connect 14 0 10 0;#P hidden connect 15 1 16 0;#P hidden connect 92 0 93 0;#P hidden connect 98 0 5 0;#P hidden connect 16 0 5 0;#P hidden connect 13 0 5 0;#P hidden connect 6 0 5 0;#P hidden fasten 42 1 5 0 530 -49;#P hidden connect 68 0 5 0;#P hidden connect 14 17 92 0;#P hidden connect 93 1 95 0;#P hidden connect 91 0 97 0;#P hidden connect 5 2 33 0;#P hidden connect 36 0 33 0;#P hidden connect 33 0 35 0;#P hidden connect 35 0 9 0;#P hidden fasten 14 2 32 0 245 -97 131 -146;#P hidden fasten 14 7 48 0 659 -88 659 57 277 239;#P hidden connect 53 0 48 0;#P fasten 71 0 70 0 45 118 82 118;#P hidden connect 5 3 34 0;#P hidden connect 36 1 34 0;#P hidden connect 34 0 35 1;#P hidden connect 59 0 61 0;#P hidden connect 60 0 61 0;#P hidden connect 62 0 61 0;#P hidden connect 98 0 12 0;#P hidden connect 50 5 5 2;#P hidden connect 45 1 5 2;#P hidden connect 58 0 5 2;#P hidden connect 52 0 5 3;#P hidden connect 46 0 5 3;#P hidden connect 58 1 5 3;#P hidden fasten 14 3 36 0 504 -20 473 111;#P hidden connect 62 1 63 0;#P hidden connect 14 15 81 0;#P fasten 83 0 82 0 171 118 201 118;#P hidden connect 14 10 62 0;#P hidden connect 14 11 43 0;#P hidden connect 73 0 43 0;#P hidden connect 43 0 45 0;#P hidden fasten 51 0 14 0 -362 321 -457 -97 -139 -260;#P hidden connect 87 0 14 0;#P hidden connect 40 0 14 0;#P hidden connect 38 0 14 0;#P hidden connect 47 0 14 0;#P hidden connect 69 0 14 0;#P hidden connect 74 0 14 0;#P hidden connect 24 5 14 0;#P hidden connect 20 0 17 0;#P hidden connect 14 1 21 0;#P hidden connect 12 0 13 0;#P hidden connect 41 0 39 0;#P hidden connect 72 1 39 0;#P hidden connect 72 0 73 0;#P hidden connect 45 2 46 0;#P hidden connect 44 0 72 0;#P hidden connect 21 1 18 0;#P hidden connect 21 0 18 0;#P hidden connect 18 0 19 0;#P hidden connect 19 0 20 0;#P hidden connect 14 4 44 0;#P hidden connect 56 0 58 0;#P hidden connect 14 12 67 0;#P hidden connect 14 6 41 0;#P hidden connect 14 8 56 0;#P hidden connect 44 1 41 1;#P hidden connect 57 0 58 1;#P hidden connect 54 0 56 4;#P hidden connect 14 5 42 0;#P hidden connect 14 9 57 0;#P connect 98 0 55 0;#P hidden connect 64 0 55 0;#P connect 14 14 75 0;#P connect 75 0 76 0;#P connect 76 0 77 0;#P connect 75 1 77 0;#P connect 14 18 98 0;#P hidden connect 54 0 57 4;#P hidden connect 42 0 64 0;#P hidden connect 41 0 54 0;#P hidden fasten 44 3 54 0 586 -56;#P hidden connect 55 6 54 0;#P hidden connect 46 1 54 0;#P connect 78 1 68 0;#P connect 79 0 68 0;#P connect 14 13 78 0;#P connect 78 0 79 0;#P pop;