max v2;#N vpatcher 10 45 1030 754;#P origin 25 0;#P newex 377 114 27 16187401 t i i;#P newex 753 451 75 16187401 prepend /state;#P newex 802 543 52 16187401 prepend ?;#P newex 833 427 86 196617 r $0thispoly;#P newex 833 451 190 196617 sprintf set /sample-recorder~.voi/%d/;#P newex 802 576 31 196617 out 2;#P newex 773 229 160 196617 var-init $3 5000;#P newex 717 348 60 196617 prepend set;#P message 717 370 126 196617 0#1;#P newex 687 275 40 196617 t s s s;#N thispatcher;#Q end;#P newobj 702 324 59 196617 thispatcher;#N vpatcher 30 70 509 411;#N comlet (int) buffer length in ms;#P inlet 420 31 15 0;#P outlet 146 282 15 0;#N comlet (sym) buffer name;#P inlet 68 32 15 0;#P newex 75 175 215 196617 sprintf script connect length_message 0 coll 0;#P newex 107 129 133 196617 sprintf script nth coll coll 1;#P newex 132 85 235 196617 sprintf newex 532 150 200 196617 coll %s.coll 1;#P newex 60 196 195 196617 sprintf script connect nothing 0 buffer~ 0;#P newex 96 154 169 196617 sprintf script nth buffer~ buffer~ 1;#P newex 70 60 53 196617 t s b b s;#P newex 118 107 244 196617 sprintf newex 532 120 200 196617 buffer~ %s %d;#P newex 147 244 105 196617 nothing;#P connect 2 1 4 0;#P connect 8 0 2 0;#P connect 2 1 7 0;#P connect 2 2 3 0;#P connect 2 2 6 0;#P connect 2 3 1 0;#P connect 2 3 5 0;#P connect 0 0 9 0;#P connect 5 0 0 0;#P connect 3 0 0 0;#P connect 4 0 0 0;#P connect 6 0 0 0;#P connect 7 0 0 0;#P connect 1 0 0 0;#P connect 10 0 1 1;#P pop;#P newobj 702 299 55 196617 p scripting;#P button 687 210 15 0;#P newex 747 170 151 196617 var-init $1 sample-recorder~-buffer;#P newex 513 92 105 196617 nothing;#P objectname nothing;#P newex 416 637 27 196617 f;#P message 548 643 110 196617 store buffer-length \$1;#P objectname length_message;#P message 529 202 88 196617 /to-buffer~ clear;#P newex 49 127 45 196617 loadbang;#P newex 687 250 70 196617 sprintf %d%s;#P newex 377 71 215 196617 OSC-route /record /buffer-name /to-buffer~;#P objectname OSC-route;#P newex 687 228 50 196617 thispoly~;#P comment 659 508 30 196617 mute;#P toggle 663 490 15 0;#P toggle 635 490 15 0;#P newex 607 542 50 196617 thispoly~;#P newex 607 466 95 196617 poly~-mute-control;#P newex 487 669 31 196617 out 1;#P newex 377 36 25 196617 in 2;#P newex 219 34 31 196617 in~ 1;#P user number~ 391 440 462 455 9 3 3 2 0. 0. 0 0. 250 0. 0 0 0 222 222 222 222 222 222 0 0 0;#N vpatcher 40 55 440 355;#P inlet 139 47 15 0;#P outlet 220 196 15 0;#P outlet 51 196 15 0;#P newex 220 160 114 196617 sprintf set %f\\\, %f %f;#P newex 51 160 145 196617 sprintf set %f\\\, %f %f %f %f;#P message 265 119 44 196617 0. 1. \$1;#P message 123 119 71 196617 1. 0. \$1 0. \$1;#P connect 0 0 2 0;#P connect 2 0 4 0;#P connect 6 0 0 0;#P connect 1 0 3 0;#P connect 3 0 5 0;#P connect 6 0 1 0;#P pop;#P newobj 49 173 68 196617 p set-rampes;#P message 49 151 69 196617 $2;#P newex 198 612 40 196617 b 3;#P newex 499 336 28 196617 t s s;#P newex 487 526 40 196617 listreg;#P newex 487 643 55 196617 pack foo 1.;#P message 112 296 14 196617 0;#P message 97 296 14 196617 1;#P newex 354 159 27 196617 b;#P newex 69 335 27 196617 gate;#P newex 499 362 60 196617 prepend set;#P newex 433 611 45 196617 select 0.;#P newex 362 613 64 196617 sampstoms~;#P newex 362 591 53 196617 snapshot~;#P message 181 311 14 196617 0;#P toggle 377 91 20 0;#P newex 69 360 53 196617 b 4;#P newex 196 549 33 196617 *~ 0.;#P message 49 251 99 196617;#P newex 49 285 30 196617 line~;#P message 153 251 83 196617;#P message 196 311 14 196617 1;#P newex 196 334 33 196617 gate~;#P comment 258 415 75 196617 start writing...;#P comment 141 441 75 196617 stop writing...;#P newex 289 435 41 196617 sig~ -1;#P newex 243 477 102 196617 selector~ 2 2;#P message 220 439 14 196617 1;#P message 243 415 14 196617 2;#P newex 335 395 38 196617 count~;#P message 307 396 27 196617 stop;#P newex 397 181 146 196617 b 7;#P newex 196 579 80 196617 poke~ no-probm;#P newex 377 137 30 196617 sel 0;#P comment 629 508 29 196617 busy;#P comment 715 597 246 196617 arg1 (s): [optional] buffer-names (integer corresponding to poly~ voice number will be added to begining of name) \; arg2 (int): [optional] ramp time for recording (ms) \; arg3 (int): [optional] buffer length (ms) (def. 5000);#P newex 532 120 200 196617 buffer~ 0#1 0;#P objectname buffer~;#P connect 49 0 35 0;#P connect 35 0 36 0;#P connect 28 0 18 0;#P connect 36 0 18 0;#P connect 16 0 17 0;#P connect 18 0 17 0;#P connect 30 0 27 0;#P connect 29 0 27 0;#P connect 27 0 20 0;#P connect 17 1 27 1;#P connect 28 1 29 0;#P connect 5 2 30 0;#P connect 36 1 16 0;#P connect 5 1 16 0;#P connect 20 1 22 0;#P connect 5 4 15 0;#P connect 15 0 14 0;#P connect 22 0 14 0;#P connect 14 0 19 0;#P fasten 26 0 4 0 504 476;#P connect 19 0 4 0;#P fasten 20 0 34 0 74 575;#P connect 38 0 14 1;#P fasten 17 0 19 1 54 386;#P connect 20 2 9 0;#P connect 10 0 4 1;#P connect 5 3 8 0;#P connect 8 0 10 0;#P connect 9 0 10 0;#P connect 11 0 10 1;#P connect 20 3 6 0;#P connect 6 0 7 0;#P connect 5 0 7 0;#P connect 7 0 10 2;#P connect 3 0 28 0;#P fasten 7 0 23 0 366 439 366 592;#P connect 34 2 23 0;#P connect 23 0 24 0;#P fasten 50 0 47 0 571 242 666 217 763 147 763 81 693 41 615 24 511 24 434 40;#P connect 39 0 47 0;#P connect 47 0 21 0;#P connect 21 0 67 0;#P connect 67 0 3 0;#P connect 7 0 37 0;#P connect 3 1 5 0;#P connect 24 1 52 0;#P connect 52 0 25 0;#P connect 34 1 32 0;#P connect 32 0 31 0;#P connect 31 0 40 0;#P connect 58 0 33 0;#P fasten 47 1 33 0 504 165;#P connect 33 0 26 0;#P connect 47 2 53 0;#P connect 33 1 32 1;#P connect 5 6 50 0;#P connect 53 0 0 0;#P connect 25 1 31 1;#P connect 25 1 51 0;#P connect 34 0 41 0;#P connect 41 0 42 0;#P connect 41 1 43 0;#P connect 5 5 41 1;#P connect 41 2 44 0;#P connect 54 0 55 0;#P connect 55 0 46 0;#P connect 46 0 48 0;#P connect 48 0 58 0;#P connect 58 1 56 0;#P connect 56 0 57 0;#P connect 58 2 60 0;#P connect 60 0 59 0;#P connect 54 0 48 1;#P connect 61 0 56 1;#P fasten 67 1 66 0 624 146 948 146 948 357;#P connect 66 0 65 0;#P connect 63 0 65 0;#P connect 65 0 62 0;#P connect 64 0 63 0;#P pop;