max v2;#N vpatcher 498 58 1081 820;#P user ubumenu 78 87 100 196617 0 1 1 0;#X add nothin;#X add sample playback;#X prefix_set 0 0 <none> 0;#N vpatcher 605 84 1232 789;#P message 252 290 17 196617 0.;#P toggle 362 237 15 0;#P message 362 261 78 196617 /interpolate \$1;#P newex 309 127 75 196617 s init-ali.jToop;#P button 309 103 15 0;#P toggle 161 666 15 0;#P toggle 285 613 15 0;#P message 301 613 92 196617 open low-space.aif;#P newex 301 638 62 196617 sfrecord~ 2;#P flonum 218 354 35 9 0 0 0 3 0 0 0 221 221 221 222 222 222 0 0 0;#P toggle 201 354 15 0;#P newex 201 378 55 196617 metro 200;#P newex 162 519 28 196617 t b s;#P newex 180 544 65 196617 route symbol;#P comment 234 576 308 196617 list <bang sample offset dur transp amp > triggers a sound;#N coll test-space;#P newobj 229 515 75 196617 coll test-space;#P newex 249 486 59 196617 unpack 1 1.;#P newex 70 562 45 196617 loadbang;#P button 224 413 15 0;#P newex 249 441 34 196617 zl reg;#P newex 249 464 45 196617 zl iter 2;#P number 323 389 35 9 0 0 0 3 0 0 0 221 221 221 222 222 222 0 0 0;#P newex 274 414 80 196617 list-get-top-n 3;#P newex 215 157 69 196617 get-distances;#P user multiSlider 273 344 186 39 0. 1. 38 2681 15;#M frgb 0 0 0;#M brgb 255 255 255;#M rgb2 127 127 127;#P newex 472 402 78 196617 pak /lookup 1 1;#P user pictslider 474 311 73 73 4 4 4 4 SliderDefaultKnob.pct 1 low-samp.jToop.space.jpeg 1 2419 0 0 8323199 1. 1.;#P newex 362 285 122 196617 ali.jToop low-samp.jToop;#P newex 9 62 27 196617 - 1;#P message 148 132 35 196617 /clear;#P button 95 244 15 0;#P message 198 224 14 196617 0;#P button 156 265 15 0;#P number 170 265 35 9 0 0 0 3 0 0 0 221 221 221 222 222 222 0 0 0;#P button 170 225 15 0;#N counter 1 41;#X flags 0 0;#P newobj 170 244 66 196617 counter 1 41;#P message 70 595 70 196617 adsr 5 5 80 5;#P toggle 203 56 15 0;#P button 417 56 15 0;#P button 310 55 15 0;#P flonum 203 100 35 9 0 0 0 3 0 0 0 221 221 221 222 222 222 0 0 0;#P newex 203 77 224 196617 maxmsp-settings x 1 1 44100 512 512 1 0 0 0;#P newex 176 665 29 196617 dac~;#P user ubumenu 96 298 143 196617 0 1 1 0;#X prefix_set 0 0 <none> 0;#P comment 56 97 81 196617 drop folder here;#P newex 47 263 110 196617 ali.multibuf test-space;#P newex 47 215 79 196617 prepend /folder;#P message 67 191 469 196617 ÔSanamda:Applications (Mac OS 9):Max4/MSP2:¥for maxmsp:ali's microchism:**new:*for per anders:samples:Õ;#P newex 67 170 60 196617 prepend set;#P newex 147 593 90 196617 pack 0. s 0 0 1. 1.;#P newex 147 628 92 196617 samplor~ 2 86;#P inlet 9 31 15 0;#P user dropfile 50 66 145 145 0;#P user panel 47 63 100 85;#X brgb 255 78 9;#X frgb 0 0 0;#X border 1;#X rounded 0;#X shadow 0;#X done;#P connect 2 0 25 0;#P fasten 1 0 7 0 52 149;#P connect 6 0 7 0;#P connect 7 0 8 0;#P fasten 24 0 8 0 146 155 27 169 27 250;#P connect 1 0 5 0;#P connect 5 0 6 0;#P connect 36 0 17 0;#P connect 8 1 10 0;#P connect 20 0 10 0;#P fasten 25 0 10 0 14 287;#P connect 23 0 8 2;#P connect 41 0 4 0;#P connect 4 0 3 0;#P connect 17 0 3 0;#P fasten 38 0 41 0 193 504;#P connect 10 1 41 0;#P connect 40 0 4 1;#P connect 40 1 4 1;#P connect 19 0 18 0;#P connect 21 0 20 0;#P connect 18 0 20 0;#P connect 3 0 11 0;#P connect 48 0 11 0;#P connect 41 1 40 0;#P connect 3 1 11 1;#P connect 22 0 18 2;#P connect 43 0 42 0;#P connect 16 0 12 0;#P connect 12 0 13 0;#P connect 42 0 35 0;#P connect 37 1 4 5;#P connect 37 0 38 0;#P connect 44 0 42 1;#P connect 35 0 34 0;#P connect 34 0 33 0;#P connect 33 0 37 0;#P connect 53 0 29 0;#P connect 26 1 29 0;#P connect 31 0 34 1;#P connect 29 0 31 0;#P connect 46 0 45 0;#P connect 3 0 45 0;#P connect 47 0 45 0;#P connect 49 0 50 0;#P connect 14 0 12 1;#P connect 32 0 31 1;#P connect 3 1 45 1;#P connect 52 0 51 0;#P connect 51 0 26 0;#P connect 28 0 26 0;#P connect 15 0 12 2;#P connect 26 2 27 0;#P connect 27 0 28 1;#P connect 27 1 28 2;#P pop;#P newobj 162 215 91 196617 p sample-playback;#P newex 162 141 35 196617 gate 2;#P number 187 87 35 9 0 0 0 3 0 0 0 221 221 221 222 222 222 0 0 0;#P newex 187 49 80 196617 r ali.jToop-doer;#P fasten 4 0 2 0 83 116;#P connect 2 0 3 0;#P connect 0 0 1 0;#P connect 1 0 2 1;#P pop;