max v2;#N vpatcher 0 44 537 732;#P origin 249 165;#P window setfont "Sans Serif" 9.;#P newex 567 22 45 196617 loadbang;#P newex 567 44 63 196617 patcherargs;#P user pictslider 6 31 512 512 4 4 4 4 SliderDefaultKnob.pct 1 $1.space.jpeg 1 2163 0 0 8323199 1. 1.;#P objectname lookup-pictslider;#P newex 1157 437 27 196617 gate;#P newex 1157 459 61 196617 prepend set;#P newex 1167 26 91 196617 r to-all-ali.jToops;#N vpatcher 0 44 400 344;#P outlet 114 264 15 0;#P window setfont "Sans Serif" 9.;#P newex 149 236 63 196617 speedlim 10;#P newex 124 156 35 196617 gate 2;#P newex 226 174 29 196617 t 2 f;#P newex 202 174 21 196617 t 1;#P newex 207 131 54 196617 route 0 0.;#P inlet 207 55 15 0;#P inlet 148 59 15 0;#P connect 5 0 7 0;#P connect 6 0 7 0;#P fasten 3 0 5 0 152 121;#P fasten 4 0 5 0 189 211 156 134;#P connect 0 0 5 1;#P connect 5 1 6 0;#P connect 2 1 3 0;#P connect 2 0 3 0;#P connect 4 1 6 1;#P connect 1 0 2 0;#P connect 2 2 4 0;#P pop;#P newobj 648 171 61 196617 p slowdown;#P newex 609 255 27 196617 gate;#P newex 963 202 27 196617 t i i;#P toggle 1152 4 15 0;#P newex 1030 26 134 196617 ali.pe to-ali.jToop-matrices;#P window setfont Verdana 9.;#P comment 272 -2 42 472055817 _disp_;#B color 13;#P window setfont "Sans Serif" 9.;#P newex 963 179 65 196617 pvar display;#B color 14;#P toggle 284 14 15 0;#P objectname display;#P window setfont Skia 10.;#P comment 152 15 13 133693450 !;#P window setfont "Sans Serif" 9.;#P message 1100 690 80 196617 /read listlength;#P message 1149 663 119 196617 /mode swim \, /display 0;#P newex 1205 716 33 196617 defer;#P message 879 40 61 196617 /clear bang;#N vpatcher 220 42 1067 762;#P toggle 103 374 15 0;#P window setfont "Sans Serif" 9.;#P newex 104 404 27 196617 t i i;#P newex 154 442 27 196617 gate;#P newex 117 442 27 196617 gate;#N comlet (int) number of toops;#P inlet 480 26 15 0;#P user textedit 298 81 404 129 0 3 9 32 19;#P outlet 644 730 15 0;#P newex 328 725 34 196617 zl reg;#P number 375 472 35 9 0 0 0 3 0 0 0 221 221 221 222 222 222 0 0 0;#P user multiSlider 557 340 109 53 0. 1. 1 2681 15 0 0 2 0 0 1;#M frgb 0 0 0;#M brgb 255 255 255;#M rgb2 127 127 127;#M rgb3 0 0 0;#M rgb4 37 52 91;#M rgb5 74 105 182;#M rgb6 112 158 18;#M rgb7 149 211 110;#M rgb8 187 9 201;#M rgb9 224 62 37;#M rgb10 7 114 128;#P newex 352 699 27 196617 t l l;#P newex 352 655 99 196617 jit.op @op + @val 0.;#P outlet 327 748 15 0;#P newex 259 493 27 196617 t b f;#P newex 352 618 63 196617 jit.op @op *;#P newex 259 463 73 196617 list-inumerate;#P message 281 548 163 196617 jit_matrix $0jit-mixer-data;#P newex 282 576 62 196617 jit.a.getrow;#P newex 259 411 45 196617 Lmult 1.;#P newex 265 324 70 196617 t b l l clear 0.;#P newex 293 383 29 196617 !/ 1.;#P newex 293 363 43 196617 Lsum 0.;#P message 123 179 65 196617 getcell 1 1 1;#P newex 32 224 250 196617 jit.matrix $0jit-mixer-space 1 float32 128 128 128;#P newex 261 288 44 196617 zl group;#P newex 132 135 27 196617 - 1;#P newex 55 103 55 196617 unpack 1 1;#P newex 58 63 27 196617 t b l;#P newex 29 178 88 196617 pack getcell 1 1 1;#P newex 209 259 49 196617 zl slice 5;#P newex 113 103 40 196617 uzi;#N comlet (int) number of toops;#P inlet 214 30 15 0;#N comlet (list) position;#P inlet 56 23 15 0;#P comment 385 346 100 196617 need to add up rows;#P connect 3 0 5 0;#P connect 11 0 10 0;#P connect 5 0 10 0;#P connect 6 1 7 0;#P connect 7 0 5 1;#P connect 1 0 6 0;#P connect 7 1 5 2;#P fasten 29 0 33 0 561 252 142 343;#P connect 33 0 32 0;#P connect 8 0 5 3;#P connect 6 0 3 0;#P connect 32 0 30 0;#P connect 3 2 8 0;#P connect 14 0 30 1;#P connect 2 0 3 1;#P connect 32 1 31 0;#P connect 15 0 31 1;#P connect 10 1 4 0;#P connect 14 1 15 0;#P connect 31 0 18 0;#P connect 25 0 20 0;#P connect 18 0 20 0;#P connect 4 1 9 0;#P connect 9 0 14 0;#P connect 20 0 17 0;#P connect 17 0 16 0;#P connect 14 2 12 0;#P connect 12 0 13 0;#P connect 13 0 15 1;#P connect 2 0 9 1;#P connect 1 0 28 0;#P connect 26 0 21 0;#P connect 30 0 26 0;#P connect 18 1 16 1;#P connect 25 0 16 1;#P connect 16 0 19 0;#P connect 19 0 22 0;#P connect 22 0 23 0;#P fasten 14 3 23 0 538 479 462 606 481 655;#P connect 23 0 26 1;#P connect 20 1 19 1;#P fasten 23 1 22 1 427 723 493 711 513 676 498 655 459 644;#P fasten 14 4 22 1 506 441 452 578 423 615;#P connect 15 0 24 0;#P fasten 15 0 27 0 580 465;#P pop;#P newobj 650 481 44 196617 p lookup;#P newex 648 66 48 196617 route int;#P newex 774 40 50 196617 zl slice 1;#N comlet (list) ez store: toop# list;#P inlet 774 16 15 0;#P newex 774 63 82 196617 list-to-ali.jToop;#P message 1037 663 105 196617 /draw/jit.window \$1;#P newex 1332 268 41 196617 route 0;#P newex 1085 599 48 196617 pvar init;#B color 14;#P window setfont "Sans Serif" 12.;#P message 8 -6 27 196620 init;#B color 9;#P objectname init;#P window setfont "Sans Serif" 9.;#P newex 1086 716 105 196617 nothing;#P message 1086 741 75 196617 /update matrix;#P newex 1085 628 40 196617 b 3;#P newex 996 68 55 196617 pvar clear;#B color 14;#P newex 567 68 62 196617 pvar update;#B color 14;#P newex 862 69 65 196617 pvar mode 2;#B color 14;#P user ubumenu 328 13 42 196617 0 1 1 0;#X add swim;#X add edit;#X prefix_set 0 0 <none> 0;#X pattrmode 1;#P objectname mode;#P newex 693 285 78 196617 pvar group-add;#B color 14;#P message 167 14 54 196617 speed-add;#B color 8;#P objectname group-add;#P newex 857 560 27 196617 b;#P newex 857 540 64 196617 pvar write2;#B color 14;#P button 9 640 15 0;#P objectname write2;#P newex 852 513 21 196617 t 0;#P newex 852 490 45 196617 loadbang;#P newex 988 668 27 196617 gate;#P newex 780 482 44 196617 t i i i;#P newex 780 463 125 196617 pvar draw-3D-destination;#B color 14;#P user ubumenu 404 13 45 196617 0 1 1 0;#X add window;#X add matrix;#X prefix_set 0 0 <none> 0;#P objectname draw-3D-destination;#P newex 1001 743 45 196617 pcontrol;#P newex 1037 720 39 196617 t close;#P newex 1001 720 35 196617 t open;#P newex 1001 695 40 196617 sel 1 0;#P newex 991 612 40 196617 t i i i;#N vpatcher 9 113 539 643;#P hidden inlet 4 -21 15 0;#P user jit.pwindow 0 0 514 514 0 1 0 1 1 0;#P hidden connect 1 0 0 0;#P pop;#P newobj 779 732 27 196617 p 3d;#P newex 849 371 40 196617 posit;#B color 6;#P hidden newex 130 693 45 196617 loadbang;#P newex 1249 218 45 196617 loadbang;#P newex 578 356 42 196617 t i i;#P newex 650 571 95 196617 pvar lookup-matrix;#B color 14;#P newex 1136 598 75 196617 r init-ali.jToop;#P button 1 25 13 14;#P objectname top-left;#P button 512 536 13 14;#P objectname bottom-right;#P newex 1101 386 117 196617 s $0_to-myself;#N vpatcher 10 100 1024 764;#P origin 0 71;#N comlet ali.mtr dur-mult;#P inlet 225 92 15 0;#N comlet ali.mtr state;#P inlet 172 92 15 0;#P window setfont "Sans Serif" 9.;#P message 218 219 69 196617 /dur-mult \$1;#P message 159 219 52 196617 /state \$1;#N comlet to pictslider;#P outlet 162 429 15 0;#N comlet to top;#P outlet 101 425 15 0;#N comlet to ali.mtr;#P inlet 388 95 15 0;#N comlet y pos;#P inlet 84 93 15 0;#N comlet x pos;#P inlet 58 93 15 0;#P newex 140 345 92 196617 OSC-route /lookup;#P newex 140 309 53 196617 ali.mtr;#P newex 58 251 80 196617 prepend /lookup;#P newex 58 225 45 196617 pack 1 1;#P connect 4 0 0 0;#P connect 0 0 1 0;#P connect 5 0 0 1;#P fasten 1 0 7 0 109 396;#P connect 1 0 2 0;#P connect 2 0 3 0;#P connect 11 0 9 0;#P connect 6 0 2 1;#P connect 9 0 2 1;#P connect 10 0 2 1;#P connect 3 0 8 0;#P connect 12 0 10 0;#P pop;#P newobj 999 559 170 196617 p loopkup-mtr;#P newex 999 500 115 196617 pvar lookup-pictslider 2;#B color 14;#P newex 1119 537 72 196617 pvar dur-mult;#B color 14;#P newex 1079 519 62 196617 pvar record;#B color 14;#P newex 1001 586 72 196617 pvar draw-3D;#B color 14;#P message 991 636 88 196617 /draw/render \$1;#P newex 858 756 80 196617 s $0_to-myself;#N vpatcher 50 40 450 340;#P window setfont "Sans Serif" 9.;#P newex 200 103 72 196617 prepend /read;#P inlet 200 42 15 0;#P outlet 60 141 15 0;#P inlet 86 36 15 0;#P inlet 60 34 15 0;#P newex 60 106 75 196617 prepend /write;#P newex 60 85 34 196617 zl reg;#P newex 86 61 54 196617 route text;#P connect 3 0 1 0;#P connect 1 0 2 0;#P connect 7 0 5 0;#P connect 2 0 5 0;#P connect 0 0 1 1;#P connect 4 0 0 0;#P connect 6 0 7 0;#P pop;#P newobj 858 632 54 196617 p filename;#P newex 904 599 83 196617 pvar favorites 2;#B color 14;#P newex 882 581 70 196617 pvar filename;#B color 14;#P newex 738 657 90 196617 pvar bottom-right;#B color 14;#P newex 713 636 65 196617 pvar top-left;#B color 14;#P comment 405 545 115 196617 ____interpolation____;#B color 13;#P comment 277 545 115 196617 _____one jToop______;#B color 13;#P window setfont Verdana 9.;#P comment 484 -2 36 472055817 boom;#B color 13;#P comment 450 -2 38 472055817 interp;#B color 13;#P comment 370 -2 86 472055817 _2D__3D_____;#B color 13;#P window setfont "Sans Serif" 9.;#P newex 619 302 72 196617 pvar draw-2D;#B color 14;#P toggle 374 14 15 0;#P objectname draw-2D;#P user led 494 12 17 17 1 400;#P newex 721 395 27 196617 gate;#P toggle 619 329 15 0;#N vpatcher 30 70 505 375;#P window setfont "Sans Serif" 9.;#N coll init-jToop 1;#T flags 1 0;#T 1 /interpolate 1;#T 2 /draw-2Dspace 1;#T 3 /speedlim 0;#T 4 /draw-3D 0;#P newobj 259 112 82 196617 coll init-jToop 1;#P newex 152 46 45 196617 loadbang;#P message 161 77 53 196617 init-jToop;#P newex 162 108 62 196617 coll-dumper;#P outlet 140 204 15 0;#P connect 1 0 0 0;#P connect 3 0 2 0;#P connect 2 0 1 0;#P pop;#P newobj 795 93 31 196617 p init;#P newex 626 385 81 196617 pvar interpolate;#B color 14;#P toggle 460 14 15 0;#P objectname interpolate;#P button 1172 53 15 0;#P user jit.fpsgui 1133 233 90 196617 3;#P user jit.fpsgui 1101 202 102 196617 3;#P user jit.fpsgui 1084 167 74 196617 3;#P newex 609 278 60 196617 prepend set;#P newex 592 221 40 196617 t l l l;#N comlet connect to pict slider;#P hidden outlet 659 693 33 0;#P newex 1189 273 27 196617 gate;#P newex 1276 291 21 196617 t 1;#P newex 1276 269 41 196617 route 0;#P message 1101 365 125 196617 /matrix/data dim \$1 128;#P newex 787 396 117 196617 s $0_to-myself;#P newex 1131 141 314 196617 jit.matrix $0jit-mixer-points 9 float32 128;#B color 5;#P newex 1178 168 327 196617 jit.matrix $0jit-mixer-data 1 float32 768 128;#B color 5;#P newex 1084 116 355 196617 jit.matrix $0jit-mixer-space 1 float32 128 128 128;#B color 5;#N vpatcher 30 70 1044 792;#P window setfont "Sans Serif" 9.;#P message 208 135 171 196617 /add 0 128 0.5 3 30 30;#P message 325 94 113 196617 /add 0 128 1. 1. 20 20;#P message 326 57 195 196617 /draw/draw-matrix.voi/1/color 0.5 0.5 0.5;#P message 239 94 75 196617 /draw/recolor;#P message 173 95 65 196617 /draw/reset;#P outlet 140 204 15 0;#P connect 3 0 0 0;#P connect 4 0 0 0;#P connect 2 0 0 0;#P connect 5 0 0 0;#P connect 1 0 0 0;#P pop;#P newobj 755 93 34 196617 p test;#P newex 1084 88 153 196617 OSC-route /space /points /data;#P window setfont Verdana 10.;#P comment 442 621 49 472055818 weights;#N comlet (list of floats) weights;#P hidden outlet 625 693 33 0;#P user multiSlider 420 616 90 41 0. 1. 3 2681 15 0 0 2 0 0 1;#M frgb 138 182 0;#M brgb 206 255 157;#M rgb2 127 127 127;#M rgb3 0 0 0;#M rgb4 37 52 91;#M rgb5 74 105 182;#M rgb6 112 158 18;#M rgb7 149 211 110;#M rgb8 187 9 201;#M rgb9 224 62 37;#M rgb10 7 114 128;#P window setfont "Sans Serif" 9.;#P newex 359 734 84 196617 one-jToop 0 $0_;#P button 150 14 15 14;#P objectname clear;#P message 787 286 98 196617 /draw/n-jToops \$1;#P hidden newex 286 666 60 196617 prepend set;#P newex 787 250 72 196617 pvar n-jToops;#B color 14;#P window setfont Verdana 9.;#P comment 178 624 210 472055817 ____________________________read__;#B color 13;#P user textedit 25 640 183 656 0 7203 9 $1;#P objectname filename;#P button 182 640 16 0;#P bpatcher 196 639 191 21 0 0 ali.favorite.pat 0 favorite-jToops.coll;#P objectname favorites;#P comment 7 625 170 472055817 ___write____________________;#B color 13;#P window setfont "Sans Serif" 9.;#P hidden newex 130 714 24 196617 t 1.;#N vpatcher 60 120 971 755;#P window setfont "Sans Serif" 9.;#P newex 661 140 27 196617 gate;#P newex 279 137 33 196617 defer;#P newex 319 156 33 196617 defer;#P toggle 727 69 15 0;#P newex 266 95 27 196617 gate;#P newex 333 95 27 196617 gate;#P inlet 768 44 15 0;#P outlet 687 445 15 0;#P inlet 632 41 15 0;#P message 675 321 41 196617 size \$1;#P newex 647 247 32 196617 zl len;#P newex 654 186 27 196617 t l l;#P newex 132 222 27 196617 + 1;#P newex 226 139 27 196617 - 1;#P newex 71 298 60 196617 prepend set;#P message 185 237 139 196617 jit_matrix $0jit-mixer-data;#P newex 196 271 62 196617 jit.a.getrow;#P newex 206 161 40 196617 t i b i;#P newex 216 348 27 196617 t l l;#P newex 211 393 41 196617 jit.spill;#P message 486 204 65 196617 listlength \$1;#P newex 493 178 109 196617 r $0-listlength;#P newex 392 395 41 196617 jit.spill;#P newex 389 199 27 196617 t l l;#P outlet 195 470 15 0;#P outlet 299 471 15 0;#P outlet 261 471 15 0;#P outlet 453 487 15 0;#P outlet 393 489 15 0;#P inlet 342 34 15 0;#P inlet 251 31 15 0;#P connect 18 0 16 0;#P connect 13 0 18 0;#P connect 13 1 15 0;#P connect 16 0 6 0;#P connect 15 0 14 0;#P connect 17 0 13 0;#P connect 10 0 11 0;#P connect 12 0 11 0;#P connect 14 0 12 0;#P connect 29 0 17 0;#P connect 13 2 14 1;#P connect 11 0 4 0;#P fasten 27 0 26 0 523 146 379 68;#P connect 25 0 29 0;#P connect 0 0 26 1;#P connect 12 1 5 0;#P connect 26 0 28 0;#P fasten 27 0 25 0 541 130 411 68;#P connect 1 0 25 1;#P connect 28 0 7 0;#P connect 10 0 8 0;#P connect 7 0 8 0;#P connect 8 0 2 0;#P connect 7 1 3 0;#P connect 9 0 10 0;#P connect 19 1 20 0;#P connect 30 0 19 0;#P connect 27 0 30 0;#P connect 20 0 21 0;#P connect 22 0 30 1;#P connect 21 0 23 0;#P fasten 19 0 23 0 570 316;#P connect 24 0 27 0;#P pop;#P hidden newobj 423 677 79 196617 p draw;#P user jit.pwindow 122 562 148 33 0 1 0 0 1 0;#P button 123 594 17 0;#P user jit.fpsgui 227 595 42 196617 2;#P user jit.fpsgui 172 595 56 196617 3;#P newex 123 545 146 196617 jit.matrix $0jit-mixer-data;#B color 5;#P window setfont "Courier New" 9.;#P comment 314 16 13 131399689 !;#P window setfont "Sans Serif" 20.;#P comment 403 570 21 196628 >;#P window setfont Skia 20.;#P comment 390 566 28 133693460 __;#P window setfont Skia 12.;#P number 120 14 33 12 0 0 64 2040 0 0 0 255 227 23 222 222 222 0 0 0;#P objectname n-jToops;#P button 566 126 15 2;#P window setfont Skia 10.;#P comment 105 15 13 133693450 x;#P button 103 14 15 11;#P window setfont "Courier New" 9.;#P comment 77 16 13 131399689 +;#P window setfont "Courier New" 12.;#P comment 90 14 13 131399692 -;#P window setfont Verdana 10.;#P comment 327 572 44 472055818 o n e;#P number 278 560 23 10 0 256 3 7203 0 0 0 255 138 215 222 222 222 0 0 0;#P user jit.pwindow 299 605 92 12 0 1 0 0 1 0;#P user multiSlider 300 560 90 46 0. 1. 768 2937 15 0 0 2 0 0 1;#M frgb 251 107 255;#M brgb 255 173 247;#M rgb2 127 127 127;#M rgb3 0 0 0;#M rgb4 37 52 91;#M rgb5 74 105 182;#M rgb6 112 158 18;#M rgb7 149 211 110;#M rgb8 187 9 201;#M rgb9 224 62 37;#M rgb10 7 114 128;#P window setfont Verdana 9.;#P comment 70 565 38 472055817 speed;#P window setfont Verdana 10.;#P comment 444 571 43 472055818 m i x;#P window setfont "Sans Serif" 9.;#P newex 1101 310 74 196617 pvar listlength;#B color 14;#P flonum 72 580 35 9 0.1 10. 3 3 0 0 0 221 221 221 222 222 222 0 0 0;#P objectname dur-mult;#P window setfont Verdana 9.;#P comment 25 599 29 472055817 play;#P comment 25 582 40 472055817 record;#P user radiogroup 10 564 18 50;#X size 3;#X offset 17;#X inactive 0;#X itemtype 0;#X flagmode 0;#X set 0;#X done;#P objectname record;#P window setfont "Sans Serif" 9.;#P comment 6 545 104 196617 _____record______;#B color 13;#P user jit.pwindow 419 605 92 12 0 1 0 0 1 0;#N vpatcher 412 291 1216 718;#P window setfont "Sans Serif" 9.;#P message 402 190 75 196617 /listlength 800;#P user jit.fpsgui 602 309 60 196617 3;#P message 394 140 75 196617 /listlength 500;#P message 28 132 71 196617 /listlength 10;#P outlet 122 360 15 0;#P number 501 138 35 9 0 0 0 3 0 0 0 221 221 221 222 222 222 0 0 0;#P newex 484 311 35 196617 zl join;#P newex 484 286 27 196617 int;#P newex 513 286 34 196617 zl reg;#P button 484 139 15 0;#P newex 484 340 75 196617 prepend /store;#P newex 537 249 165 196617 jit.matrix $0temp 1 float32 768 1;#P newex 537 216 127 196617 jit.fill $0temp;#P comment 575 10 100 196617 with jit;#P number 182 200 35 9 0 0 0 3 0 0 0 221 221 221 222 222 222 0 0 0;#P user multiSlider 537 138 167 57 0. 1. 768 2681 15 0 0 2 0 0 1;#M frgb 0 0 0;#M brgb 255 255 255;#M rgb2 127 127 127;#M rgb3 0 0 0;#M rgb4 37 52 91;#M rgb5 74 105 182;#M rgb6 112 158 18;#M rgb7 149 211 110;#M rgb8 187 9 201;#M rgb9 224 62 37;#M rgb10 7 114 128;#P message 156 40 72 196617 write :jenga.z;#P number 138 128 35 9 0 0 0 3 0 0 0 221 221 221 222 222 222 0 0 0;#N vpreset 6;#P preset 156 60 94 17;#P newex 121 237 35 196617 zl join;#P newex 121 212 27 196617 int;#P newex 150 212 34 196617 zl reg;#P newex 121 265 75 196617 prepend /store;#P button 121 129 15 0;#P user multiSlider 174 128 167 57 0. 1. 10 2681 15 0 0 2 0 0 1;#M frgb 0 0 0;#M brgb 255 255 255;#M rgb2 127 127 127;#M rgb3 0 0 0;#M rgb4 37 52 91;#M rgb5 74 105 182;#M rgb6 112 158 18;#M rgb7 149 211 110;#M rgb8 187 9 201;#M rgb9 224 62 37;#M rgb10 7 114 128;#P comment 155 11 100 196617 with lists;#P connect 2 0 5 0;#P connect 5 0 6 0;#P connect 6 0 3 0;#P connect 25 0 21 0;#P fasten 23 0 21 0 406 301;#P connect 22 0 21 0;#P connect 15 0 21 0;#P connect 3 0 21 0;#P connect 7 0 8 0;#P connect 8 0 5 1;#P connect 4 0 6 1;#P connect 2 0 4 0;#P connect 9 0 7 0;#P connect 7 0 1 0;#P connect 1 0 4 1;#P connect 16 0 18 0;#P connect 18 0 19 0;#P connect 19 0 15 0;#P connect 20 0 18 1;#P connect 17 0 19 1;#P connect 16 0 17 0;#P connect 10 0 13 0;#P connect 13 0 14 0;#P connect 14 0 17 1;#P connect 14 0 24 0;#P pop;#P newobj 687 93 63 196617 p make-data;#P user multiSlider 420 560 90 46 0. 1. 12 2937 15 0 0 2 0 0 1;#M frgb 25 255 71;#M brgb 152 255 141;#M rgb2 127 127 127;#M rgb3 0 0 0;#M rgb4 37 52 91;#M rgb5 74 105 182;#M rgb6 112 158 18;#M rgb7 149 211 110;#M rgb8 187 9 201;#M rgb9 224 62 37;#M rgb10 7 114 128;#N vpatcher 40 55 1054 716;#P window setfont "Sans Serif" 9.;#P message 392 577 111 196617 /number-of-jToops \$1;#P button 706 219 15 0;#P newex 167 232 105 196617 t b b i i i i b i;#P outlet 11 491 15 0;#N comlet make this many;#P inlet 238 52 15 0;#P newex 346 159 40 196617 uzi;#P newex 346 127 27 196617 int;#N comlet resend IDs;#P inlet 380 54 15 0;#P newex 760 479 27 196617 t i i;#P newex 464 122 40 196617 uzi;#P newex 187 398 330 196617 sprintf script send %done-jToop script send OSC-route /id $0_;#N comlet make;#P inlet 109 53 15 0;#N comlet break;#P inlet 126 53 15 0;#N comlet n;#P inlet 69 53 15 0;#P newex 760 524 40 196617 change;#P newex 760 444 52 196617 maximum;#P newex 690 350 27 196617 b;#P newex 407 230 40 196617 t b i i;#P newex 760 413 65 196617 zl group 256;#P newex 726 285 45 196617 append 0;#P newex 678 285 45 196617 append 1;#P newex 760 354 27 196617 bag;#P newex 438 375 161 196617 sprintf script delete %done-jToop;#P outlet 588 611 15 0;#P newex 107 434 189 196617 sprintf script bringtofront %done-jToop;#P newex 268 346 388 196617 sprintf script new %done-jToop bpatcher 50 50 68 34 0 0 one-jToop 0 %d $0_;#P newex 146 129 27 196617 int;#P newex 118 129 27 196617 int;#P outlet 388 618 15 0;#P comment 491 81 100 196617 how many there are...;#P connect 27 1 26 0;#P connect 27 2 5 0;#P connect 18 0 2 0;#P connect 16 0 2 1;#P connect 17 0 3 0;#P connect 16 0 3 1;#P connect 2 0 27 0;#P connect 24 2 27 0;#P connect 27 3 19 0;#P fasten 20 2 19 0 286 278;#P connect 27 4 4 0;#P connect 25 0 23 0;#P connect 23 0 24 0;#P connect 16 0 23 1;#P connect 29 0 1 0;#P connect 15 0 29 0;#P connect 3 0 12 0;#P connect 12 2 7 0;#P connect 22 0 20 0;#P fasten 21 1 20 1 819 506 851 453 863 348 813 251 657 129 525 97;#P connect 7 0 6 0;#P connect 5 0 6 0;#P connect 4 0 6 0;#P connect 19 0 6 0;#P connect 27 5 4 1;#P connect 27 7 9 0;#P connect 12 0 13 0;#P connect 27 6 13 0;#P connect 28 0 13 0;#P connect 12 1 10 0;#P connect 9 0 8 0;#P connect 10 0 8 0;#P connect 13 1 8 0;#P connect 8 0 11 0;#P connect 13 0 11 0;#P connect 11 0 14 0;#P connect 14 0 21 0;#P connect 21 0 15 0;#P pop;#P hidden newobj 549 167 69 196617 p make-break;#N vpatcher 40 55 522 508;#P window setfont "Sans Serif" 9.;#P newex 330 137 60 196617 prepend set;#P newex 333 100 21 196617 t 1;#P inlet 299 54 15 0;#P outlet 299 310 15 0;#P newex 147 94 27 196617 t i i;#P message 256 265 14 196617 1;#P message 144 201 50 196617 1;#P newex 107 143 60 196617 prepend set;#P newex 46 146 45 196617 loadbang;#P newex 256 244 30 196617 sel 0;#P inlet 154 52 15 0;#P connect 6 0 3 0;#P connect 10 0 4 0;#P connect 3 0 4 0;#P connect 2 0 4 0;#P connect 0 0 6 0;#P connect 6 1 1 0;#P connect 4 0 1 0;#P connect 1 0 5 0;#P connect 5 0 7 0;#P connect 1 1 7 0;#P connect 9 0 10 0;#P connect 8 0 9 0;#P pop;#P newobj 727 194 27 196617 p n;#P newex 1117 339 121 196617 s $0-listlength;#P window setfont Verdana 9.;#P comment 223 -2 51 472055817 _listlen_;#B color 13;#P window setfont Skia 12.;#P number 226 14 39 12 0 0 0 2040 0 0 0 221 221 221 222 222 222 0 0 0;#P objectname listlength;#P window setfont "Sans Serif" 9.;#P newex 1249 241 65 196617 t 768 $1 $2;#P window setfont Verdana 9.;#P comment 37 -2 186 472055817 ____jToops____________________;#B color 13;#P button 89 14 15 14;#P button 75 14 15 6;#P window setfont Skia 12.;#P number 43 14 33 12 0 256 3 2040 0 0 0 221 221 221 222 222 222 0 0 0;#P button 312 14 15 2;#P objectname update;#P window setfont "Sans Serif" 9.;#P newex 917 93 75 196617 prepend /mode;#N vpatcher 20 85 420 385;#P outlet 92 229 15 0;#P outlet 159 229 15 0;#P inlet 102 45 15 0;#P window setfont "Sans Serif" 9.;#P newex 102 94 112 196617 route pictslider matrix;#P connect 0 0 3 0;#P connect 1 0 0 0;#P connect 0 1 2 0;#P pop;#P newobj 899 246 45 196617 p update;#N vpatcher 17 110 1031 670;#P window setfont "Sans Serif" 9.;#P newex 165 193 170 196617 r $0place-pointes-next-time;#P newex 23 240 48 196617 grab-one;#P newex 43 291 32 196617 defer;#P message 40 341 64 196617 /read points;#P newex 122 294 32 196617 defer;#P message 704 280 172 196617 script bringtofront lookup-pictslider;#P outlet 317 414 15 0;#P newex 57 193 40 196617 b 3;#P message 141 337 75 196617 /update matrix;#P newex 437 235 40 196617 b 3;#P message 419 279 89 196617 /update pictslider;#P newex 133 397 80 196617 s $0_to-myself;#P button 437 214 15 0;#P button 57 169 15 0;#P message 546 282 154 196617 script sendtoback lookup-matrix;#P message 223 282 165 196617 script sendtoback lookup-pictslider;#P inlet 106 59 15 0;#P newex 106 88 79 196617 route edit swim;#P connect 10 0 16 0;#P connect 15 0 14 0;#P connect 17 0 16 1;#P connect 16 1 15 0;#P connect 0 0 4 0;#P connect 4 0 10 0;#P connect 1 0 0 0;#P connect 10 1 13 0;#P connect 14 0 6 0;#P connect 9 0 6 0;#P connect 7 0 6 0;#P connect 13 0 9 0;#P connect 10 2 2 0;#P connect 12 0 11 0;#P connect 2 0 11 0;#P connect 3 0 11 0;#P connect 8 0 7 0;#P connect 0 1 5 0;#P connect 5 0 8 0;#P connect 8 1 3 0;#P connect 8 2 12 0;#P pop;#P newobj 1043 310 44 196617 p modes;#N thispatcher;#Q end;#P newobj 932 398 59 196617 thispatcher;#N vpatcher 9 45 1013 765;#P button 655 328 15 0;#P window setfont "Sans Serif" 9.;#N vpatcher 113 68 1181 752;#P outlet 721 467 15 0;#P outlet 49 488 15 0;#P outlet 357 484 15 0;#P window setfont "Sans Serif" 9.;#P user jit.fpsgui 917 483 122 196617 3;#P user jit.fpsgui 579 480 122 196617 3;#P user jit.fpsgui 248 547 122 196617 3;#P button 88 387 15 0;#P newex 726 337 27 196617 t l l;#P newex 768 384 71 196617 jit.matrixinfo;#P newex 427 341 27 196617 t l l;#P newex 469 388 71 196617 jit.matrixinfo;#P newex 135 337 27 196617 t l l;#P newex 177 384 71 196617 jit.matrixinfo;#P button 74 77 15 0;#P number 601 101 35 9 0 0 0 3 0 0 0 221 221 221 222 222 222 0 0 0;#P inlet 74 46 15 0;#P message 427 224 148 196617 jit_matrix $0jit-mixer-points;#P message 578 224 65 196617 splitpoint \$1;#P newex 427 302 99 196617 jit.split @splitdim 0;#P message 135 224 145 196617 jit_matrix $0jit-mixer-space;#P message 332 224 65 196617 splitpoint \$1;#P newex 135 300 99 196617 jit.split @splitdim 2;#P message 708 224 140 196617 jit_matrix $0jit-mixer-data;#P message 851 224 65 196617 splitpoint \$1;#P newex 726 291 99 196617 jit.split @splitdim 1;#P inlet 594 37 15 0;#P user jit.fpsgui 455 480 122 196617 3;#P user jit.fpsgui 792 484 122 196617 3;#P user jit.fpsgui 122 547 122 196617 3;#P connect 17 0 27 0;#P connect 16 0 27 0;#P connect 13 0 15 0;#P connect 17 0 0 0;#P connect 15 0 9 0;#P connect 9 0 7 0;#P connect 8 0 7 0;#P connect 7 0 17 0;#P connect 17 1 16 0;#P fasten 9 0 23 0 310 319;#P connect 14 0 8 0;#P connect 19 0 26 0;#P connect 18 0 26 0;#P connect 15 0 12 0;#P connect 12 0 10 0;#P connect 11 0 10 0;#P connect 10 0 19 0;#P connect 19 0 2 0;#P connect 19 1 18 0;#P connect 14 0 11 0;#P fasten 12 0 24 0 580 300;#P connect 3 0 14 0;#P connect 15 0 6 0;#P connect 21 0 28 0;#P connect 20 0 28 0;#P connect 6 0 4 0;#P connect 5 0 4 0;#P connect 4 0 21 0;#P connect 21 1 20 0;#P connect 21 0 1 0;#P connect 14 0 5 0;#P fasten 6 0 25 0 1008 380;#P pop;#P newobj 657 397 40 196617 p trim;#N comlet read;#P inlet 769 69 15 0;#P newex 623 220 191 196617 s $0place-pointes-next-time;#N comlet to outside pictslider;#P outlet 966 676 15 0;#N comlet to file name text-edit;#P outlet 925 675 15 0;#P newex 611 36 45 196617 loadbang;#N vpatcher 196 138 1210 858;#P window setfont "Sans Serif" 9.;#P newex 564 604 29 196617 - 51;#P number 608 605 35 9 0 0 0 3 0 0 0 221 221 221 222 222 222 0 0 0;#P number 660 606 35 9 0 0 0 3 0 0 0 221 221 221 222 222 222 0 0 0;#P newex 839 599 189 196617 sprintf script bringtofront %done-jToop;#P message 374 385 20 196617 10;#P newex 374 405 27 196617 del;#P comment 419 293 245 196617 dim (def. 128) \, amp \, StdDev \, x0 \, y0 \, R \, G \, B;#P button 141 39 15 0;#P newex 720 533 27 196617 t b l;#P newex 826 628 314 196617 sprintf script send %done-jToop script send OSC-route /StdDev %f;#P newex 800 647 300 196617 sprintf script send %done-jToop script send OSC-route /amp %f;#P newex 731 570 27 196617 int;#P newex 903 561 62 196617 unpack 1. 1.;#P newex 864 537 49 196617 zl slice 3;#P comment 535 467 142 196617 R \, G \, B \, amp \, StdDev;#N comlet to thispatcher;#P outlet 831 716 15 0;#P newex 544 627 30 196617 + 37;#P newex 450 628 27 196617 + 3;#P newex 434 462 40 196617 t b b l;#P inlet 99 38 15 0;#P newex 457 501 55 196617 unpack 1 1;#P newex 544 530 91 196617 zmap 0 127 0 512;#P newex 450 531 91 196617 zmap 0 127 0 512;#P newex 560 574 55 196617 unpack 1 1;#P newex 560 554 98 196617 r $0_mouse-topleft;#P newex 720 510 34 196617 zl reg;#P newex 351 504 27 196617 + 1;#P newex 334 631 27 196617 int;#P newex 99 141 27 196617 t i i;#P newex 434 443 49 196617 zl slice 2;#P newex 434 422 45 196617 zl rot -2;#P comment 492 380 142 196617 amp \, StdDev \, x0 \, y0 \, R \, G \, B;#P newex 434 380 49 196617 zl slice 1;#P comment 368 245 245 196617 on/off dim (def. 128) \, amp \, StdDev \, x0 \, y0 \, R \, G \, B;#P comment 447 354 214 196617 dim (def. 128) \, amp \, StdDev \, x0 \, y0 \, R \, G \, B;#P newex 417 352 27 196617 t b l;#P newex 357 262 49 196617 zl slice 1;#P newex 417 326 34 196617 zl reg;#P newex 357 285 44 196617 route 1.;#P newex 318 223 49 196617 zl slice 3;#P message 99 169 53 196617 getcell \$1;#P newex 99 71 29 196617 t b 0;#N counter 0 128;#X flags 0 0;#P newobj 99 119 72 196617 counter 0 128;#P newex 99 193 229 196617 jit.matrix $0jit-mixer-points 9 float32 128;#B color 5;#P newex 748 666 335 196617 sprintf script send %done-jToop script send OSC-route /color %f %f %f;#P newex 334 670 394 196617 sprintf script new %done-jToop bpatcher %d %d 68 34 0 0 one-jToop 0 %d $0_;#P message 380 141 199 196617 setcell \$1 val 1 \$2 \$3 \$4 \$5 \$6 \$7 \$8 \$9;#P comment 312 161 265 196617 val: on/off dim (def. 128) \, amp \, StdDev \, x0 \, y0 \, R \, G \, B;#P connect 40 0 6 0;#P connect 28 0 6 0;#P connect 6 0 5 0;#P fasten 42 0 5 0 176 488 36 276 61 145;#P connect 5 0 19 0;#P connect 19 0 7 0;#P connect 7 0 4 0;#P connect 6 1 5 2;#P connect 4 1 8 0;#P connect 29 1 20 0;#P connect 20 0 2 0;#P connect 19 1 21 0;#P connect 21 0 20 1;#P connect 8 1 11 0;#P connect 11 0 9 0;#P connect 12 0 43 0;#P connect 43 0 42 0;#P connect 9 0 10 0;#P connect 10 0 12 0;#P connect 12 1 15 0;#P connect 15 1 17 0;#P connect 17 0 18 0;#P connect 18 0 29 0;#P connect 11 1 10 1;#P connect 27 0 25 0;#P connect 25 0 30 0;#P connect 29 2 27 0;#P connect 30 0 2 1;#P connect 24 0 30 1;#P connect 27 1 26 0;#P connect 26 0 31 0;#P connect 23 0 24 0;#P connect 24 1 47 0;#P connect 47 0 31 1;#P connect 31 0 2 2;#P connect 24 0 46 0;#P connect 24 1 45 0;#P connect 20 0 2 3;#P fasten 29 0 22 0 478 494;#P connect 22 0 39 0;#P connect 39 0 36 0;#P connect 18 1 22 1;#P fasten 21 0 36 1 387 631;#P connect 36 0 3 0;#P connect 36 0 37 0;#P connect 36 0 38 0;#P connect 38 0 32 0;#P connect 37 0 32 0;#P connect 3 0 32 0;#P connect 44 0 32 0;#P connect 2 0 32 0;#P connect 36 0 44 0;#P connect 34 0 3 1;#P connect 39 1 34 0;#P connect 34 1 35 0;#P connect 35 0 37 1;#P connect 35 1 38 1;#P pop;#P newobj 68 513 74 196617 p place-jToops;#N vpatcher 9 45 1014 758;#P origin -352 -250;#P button 365 233 15 0;#P button 233 290 15 0;#P window setfont "Sans Serif" 9.;#P newex 215 247 42 196617 del 500;#P newex 221 193 28 196617 t b s;#P newex 299 285 34 196617 zl reg;#P newex 354 272 34 196617 zl reg;#P newex 258 247 42 196617 del 250;#P newex 996 451 105 196617 prepend bkgndpicture;#N comlet to outside pictslider;#P outlet 1042 576 15 0;#N comlet bang to read image only;#P inlet 836 140 15 0;#P newex 815 248 105 196617 sprintf %s.space.jpeg;#P outlet 871 570 15 0;#P newex 864 521 60 196617 prepend set;#P message 624 498 172 196617 script bringtofront lookup-pictslider;#P message 584 478 154 196617 script sendtoback lookup-matrix;#P newex 647 351 40 196617 t b s s;#N comlet to place pointes;#P outlet 770 601 15 0;#P newex 165 313 27 196617 del;#P message 165 293 26 196617 300;#P newex 197 160 108 196617 t b s s s;#N comlet bang to read image only;#P inlet 616 135 15 0;#P outlet 685 601 15 0;#P newex 620 269 27 196617 del;#P newex 647 318 34 196617 zl reg;#P message 620 249 26 196617 300;#P newex 676 412 235 196617 prepend script send lookup-pictslider bkgndpicture;#P newex 698 250 105 196617 sprintf %s.space.jpeg;#P inlet 182 120 15 0;#P newex 369 309 103 196617 sprintf %s.points.jxf;#P outlet 327 609 15 0;#P newex 334 367 65 196617 prepend read;#P newex 499 309 95 196617 sprintf %s.data.jxf;#P newex 245 323 101 196617 sprintf %s.space.jxf;#P outlet 431 616 15 0;#P outlet 256 597 15 0;#P newex 428 367 65 196617 prepend read;#P newex 263 367 65 196617 prepend read;#P connect 18 0 19 0;#P connect 9 0 17 0;#P connect 33 0 34 0;#P connect 17 1 33 0;#P connect 32 0 4 0;#P connect 0 0 2 0;#P connect 33 0 30 0;#P connect 4 0 0 0;#P connect 34 0 32 0;#P connect 35 0 32 0;#P connect 33 1 32 1;#P connect 6 0 7 0;#P connect 8 0 6 0;#P connect 30 0 31 0;#P connect 36 0 31 0;#P connect 31 0 8 0;#P connect 33 1 31 1;#P connect 5 0 1 0;#P connect 1 0 3 0;#P fasten 33 1 5 0 528 250;#P connect 21 0 22 0;#P connect 16 0 12 0;#P connect 12 0 14 0;#P connect 21 0 23 0;#P connect 10 0 13 0;#P connect 14 0 13 0;#P connect 13 0 21 0;#P connect 26 0 13 1;#P connect 21 1 11 0;#P connect 22 0 15 0;#P connect 23 0 15 0;#P connect 11 0 15 0;#P connect 17 2 10 0;#P fasten 19 0 20 0 185 433;#P connect 27 0 26 0;#P fasten 17 3 24 0 1045 233;#P connect 24 0 25 0;#P fasten 21 2 29 0 1034 391;#P connect 29 0 28 0;#P pop;#P newobj 439 393 92 196617 p read;#N vpatcher 30 70 1032 560;#N comlet bang to write image only;#P inlet 83 49 15 0;#P window setfont "Sans Serif" 9.;#P newex 481 239 34 196617 zl reg;#P outlet 477 365 15 0;#P newex 693 100 110 196617 sprintf :%s.space.jpeg;#P newex 204 285 71 196617 prepend write;#P newex 205 209 34 196617 zl reg;#P newex 408 109 105 196617 sprintf :%s.points.jxf;#P newex 307 220 34 196617 zl reg;#P newex 293 286 71 196617 prepend write;#P newex 128 286 71 196617 prepend write;#P newex 564 101 99 196617 sprintf :%s.data.jxf;#P newex 297 107 105 196617 sprintf :%s.space.jxf;#P newex 132 209 34 196617 zl reg;#N comlet (s) base name;#P inlet 286 39 15 0;#N comlet bang to write;#P inlet 27 49 15 0;#P outlet 126 355 15 0;#P outlet 179 356 15 0;#P outlet 240 358 15 0;#P connect 8 0 2 0;#P connect 5 0 8 0;#P connect 3 0 5 0;#P connect 6 0 5 1;#P connect 13 0 1 0;#P connect 12 0 13 0;#P connect 3 0 12 0;#P connect 11 0 12 1;#P connect 9 0 0 0;#P connect 10 0 9 0;#P connect 4 0 6 0;#P connect 3 0 10 0;#P connect 7 0 10 1;#P connect 4 0 11 0;#P connect 16 0 15 0;#P connect 17 0 16 0;#P fasten 3 0 16 0 418 215;#P connect 14 0 16 1;#P connect 4 0 7 0;#P connect 4 0 14 0;#P pop;#P newobj 554 394 53 196617 p write;#P outlet 252 673 15 0;#P message 880 497 60 196617 /clear bang;#N vpatcher 284 70 1115 753;#P window setfont "Sans Serif" 9.;#P newex 292 574 250 196617 sprintf /draw/draw-matrix.voi/%d/color %f %f %f;#P newex 56 406 27 196617 - 1;#P newex 405 536 64 196617 pack 1. 1. 1.;#P newex 275 499 182 196617 unpack cell 1 val 128 1. 1. 1 1 1. 1. 1.;#P newex 26 382 40 196617 uzi;#P newex 56 436 75 196617 prepend getcell;#P newex 56 465 229 196617 jit.matrix $0jit-mixer-points 9 float32 128;#B color 5;#P newex 241 320 27 196617 t i i;#P message 241 178 177 196617 jit_matrix $0jit-mixer-points;#P outlet 452 623 15 0;#P inlet 169 33 15 0;#P message 268 361 111 196617 /number-of-jToops \$1;#P message 568 411 92 196617 /listlength set \$1;#P newex 241 296 31 196617 Lsum;#P message 447 173 139 196617 jit_matrix $0jit-mixer-data;#P user multiSlider 241 235 125 38 0. 2. 3 2937 47 0 0 2 0 0 1;#M frgb 0 0 0;#M brgb 255 255 255;#M rgb2 127 127 127;#M rgb3 0 0 0;#M rgb4 37 52 91;#M rgb5 74 105 182;#M rgb6 112 158 18;#M rgb7 149 211 110;#M rgb8 187 9 201;#M rgb9 224 62 37;#M rgb10 7 114 128;#P newex 241 203 85 196617 jit.spill @plane 0;#P newex 573 258 55 196617 unpack 1 1;#P newex 447 228 199 196617 route planecount type dim;#P newex 447 207 70 196617 jit.matrixinfo;#P newex 167 60 31 196617 t b b;#P message 242 158 235 196617 val: dim (def. 128) \, amp \, StdDev \, x0 \, y0 \, R \, G \, B;#P comment 139 205 100 196617 @listlength 128;#P connect 15 0 18 0;#P connect 18 2 21 0;#P connect 21 0 17 0;#P connect 17 0 16 0;#P connect 12 0 2 0;#P connect 2 0 14 0;#P connect 14 0 6 0;#P connect 6 0 7 0;#P connect 7 0 9 0;#P connect 9 0 15 0;#P connect 15 1 11 0;#P connect 16 1 19 0;#P connect 19 1 22 0;#P connect 20 0 22 1;#P connect 19 8 20 0;#P connect 19 9 20 1;#P connect 2 1 8 0;#P connect 8 0 3 0;#P connect 3 0 4 0;#P connect 11 0 13 0;#P connect 10 0 13 0;#P connect 22 0 13 0;#P connect 19 10 20 2;#P connect 5 0 10 0;#P connect 4 2 5 0;#P pop;#P newobj 160 513 104 196617 p n-jToops_listlength;#P newex 477 122 115 196617 route points 0 listlength;#P newex 475 512 115 196617 prepend /matrix/points;#P newex 295 190 53 196617 t b s s b;#P newex 214 161 55 196617 route bang;#N comlet read;#P inlet 477 66 15 0;#N comlet to thispatcher;#P outlet 850 676 15 0;#N comlet write jpeg image;#P inlet 368 66 15 0;#P outlet 741 674 15 0;#P newex 599 512 108 196617 prepend /matrix/data;#P newex 355 512 114 196617 prepend /matrix/space;#N comlet write all;#P inlet 214 66 15 0;#P newex 582 173 66 196617 t b b s b b;#P message 611 79 86 196617 $1;#P connect 12 0 18 0;#P connect 12 2 13 0;#P connect 2 0 9 0;#P connect 3 0 15 0;#P connect 11 0 15 0;#P connect 4 0 15 0;#P connect 13 0 15 0;#P connect 9 1 10 0;#P connect 16 0 3 0;#P connect 17 0 3 0;#P connect 24 0 3 0;#P connect 1 2 17 0;#P connect 16 1 11 0;#P connect 17 1 11 0;#P connect 24 1 11 0;#P connect 0 0 12 0;#P connect 8 0 12 0;#P connect 6 0 17 1;#P fasten 10 2 17 2 483 271;#P connect 9 0 16 0;#P connect 10 0 16 0;#P connect 12 3 1 0;#P connect 1 2 16 2;#P connect 10 1 16 2;#P connect 16 2 4 0;#P connect 17 2 4 0;#P connect 24 2 4 0;#P connect 19 0 0 0;#P connect 1 3 22 0;#P connect 10 3 25 0;#P fasten 23 0 24 1 774 292;#P connect 16 3 5 0;#P fasten 18 0 7 0 280 563;#P connect 17 3 7 0;#P connect 1 4 14 0;#P connect 17 5 20 0;#P connect 17 6 21 0;#P pop;#P newobj 916 310 105 196617 p read-write;#N thispatcher;#Q end;#P hidden newobj 607 194 59 196617 thispatcher;#N vpatcher 707 208 1269 556;#P window setfont "Sans Serif" 9.;#P newex 183 78 27 196617 b;#P newex 60 77 27 196617 b;#N comlet resend;#P inlet 313 40 15 0;#P newex 221 211 34 196617 zl reg;#P newex 344 211 34 196617 zl reg;#P user textedit 393 151 495 173 0 3 9 513 596;#P user textedit 270 150 337 173 0 3 9 7 82;#P inlet 183 40 15 0;#P inlet 60 39 15 0;#P newex 344 236 143 196617 s $0_mouse-bottomright;#P newex 344 150 45 196617 pack 1 1;#P newex 330 119 66 196617 mousestate;#P newex 221 236 120 196617 s $0_mouse-topleft;#P newex 221 150 45 196617 pack 1 1;#P newex 207 120 66 196617 mousestate;#P connect 6 0 13 0;#P connect 7 0 14 0;#P connect 13 1 0 0;#P connect 0 1 1 0;#P connect 12 0 11 0;#P connect 1 0 11 0;#P fasten 14 0 11 0 188 161;#P connect 11 0 2 0;#P connect 0 2 1 1;#P connect 1 0 8 0;#P connect 14 1 3 0;#P connect 3 1 4 0;#P connect 4 0 10 0;#P fasten 13 0 10 0 65 173;#P connect 12 0 10 0;#P connect 10 0 5 0;#P connect 3 2 4 1;#P connect 4 0 9 0;#P pop;#P newobj 713 709 61 196617 p send-coor;#P toggle 390 14 15 0;#P objectname draw-3D;#N comlet (jit-matrix) interpolated list;#P hidden outlet 591 693 33 0;#N vpatcher 40 55 540 447;#P button 48 186 15 0;#P window setfont "Sans Serif" 9.;#P message 326 129 14 196617 a;#P newex 221 174 135 196617 sprintf exportimage %s jpeg;#P inlet 295 51 15 0;#P user jit.pwindow 97 284 82 62 0 1 0 0 1 0;#P newex 90 173 51 196617 jit.concat;#P newex 90 232 188 196617 jit.matrix $0jit-mixer-2D-display;#P inlet 90 58 15 0;#P connect 0 0 2 0;#P connect 7 0 1 0;#P connect 2 0 1 0;#P connect 5 0 1 0;#P connect 1 0 3 0;#P connect 0 0 2 1;#P connect 4 0 5 0;#P connect 6 0 5 0;#P pop;#P newobj 721 549 59 196617 p save-pict;#P newex 670 40 101 196617 r $0_to-myself;#N vpatcher 157 82 1171 802;#P window setfont "Sans Serif" 9.;#P newex 549 133 74 196617 print storing...;#P outlet 568 683 15 0;#P newex 384 95 27 196617 t l l;#P newex 709 454 45 196617 pack 1 0;#P newex 652 412 27 196617 - 1;#P newex 128 413 27 196617 - 1;#P newex 223 412 27 196617 int;#P newex 177 386 27 196617 t b f;#P newex 65 442 139 196617 sprintf setcell %d %d val %f;#P newex 177 358 73 196617 list-inumerate;#P newex 177 326 34 196617 zl reg;#P newex 622 323 94 196617 prepend jit_matrix;#P newex 598 407 34 196617 zl reg;#P newex 745 413 27 196617 - 1;#P message 652 524 83 196617 dstdimend \$2 \$1;#P message 742 524 91 196617 dstdimstart \$2 \$1;#P newex 745 388 75 196617 r $0-listlength;#P newex 652 453 45 196617 pack 1 1;#P newex 429 312 50 196617 t b i 1;#P newex 384 333 40 196617 t b i 0;#P newex 411 283 35 196617 gate 2;#P newex 561 199 27 196617 t 2 l;#P newex 485 211 27 196617 t 1 l;#P newex 492 505 149 196617 jit.fill $0jit-mixer-data;#P newex 536 321 75 196617 r $0-listlength;#P window setfont Times 10.;#P comment 917 395 115 1310730 Use destination dimensions;#P toggle 902 394 15 0;#P window setfont "Fixedwidth Serif" 10.;#P message 902 412 80 1441802 usedstdim \$1;#P window setfont "Sans Serif" 9.;#P newex 568 640 108 196617 prepend /matrix/data;#P message 466 451 59 196617 offset 0 \$1;#P newex 452 393 94 196617 expr ($i1-1) * $i2;#P newex 440 148 83 196617 route jit_matrix;#P newex 401 123 49 196617 zl slice 1;#P inlet 384 53 15 0;#P connect 27 0 25 0;#P connect 14 1 28 0;#P connect 28 0 25 1;#P fasten 14 0 23 0 182 290;#P connect 23 0 24 0;#P connect 24 0 26 0;#P connect 26 1 25 2;#P connect 11 1 23 1;#P connect 26 0 27 0;#P connect 24 1 27 1;#P connect 0 0 31 0;#P connect 13 0 14 0;#P connect 31 1 1 0;#P connect 12 0 13 0;#P connect 11 0 13 0;#P connect 13 1 15 0;#P connect 1 0 13 1;#P connect 1 1 2 0;#P connect 14 1 3 0;#P connect 3 0 4 0;#P connect 2 1 11 0;#P connect 4 0 10 0;#P connect 9 0 3 1;#P connect 0 0 33 0;#P connect 2 0 12 0;#P connect 21 0 5 0;#P connect 10 0 5 0;#P connect 19 0 5 0;#P connect 18 0 5 0;#P connect 25 0 5 0;#P fasten 6 0 5 0 900 534;#P connect 5 0 32 0;#P fasten 15 0 21 0 474 380 548 388 584 402 597 388;#P connect 12 1 22 0;#P connect 22 0 21 1;#P fasten 15 1 29 0 505 375 570 383 613 374;#P connect 29 0 16 0;#P connect 16 0 19 0;#P connect 20 0 16 1;#P connect 29 0 30 0;#P connect 30 0 18 0;#P connect 17 0 20 0;#P connect 14 2 7 0;#P connect 15 2 7 0;#P connect 7 0 6 0;#P pop;#P newobj 870 310 40 196617 p store;#N vpatcher 30 70 1280 504;#N comlet to posit;#P outlet 1000 362 15 0;#P window setfont "Sans Serif" 9.;#P newex 1000 301 131 196617 sprintf query %done-jToop;#P newex 966 261 27 196617 gate;#P newex 983 232 27 196617 t i i;#N comlet (int) query resutls;#P inlet 1062 64 15 0;#P newex 817 299 161 196617 sprintf script delete %done-jToop;#P newex 951 196 42 196617 uzi 128;#P newex 312 246 115 196617 prepend /matrix/points;#P newex 556 246 108 196617 prepend /matrix/data;#P newex 435 247 114 196617 prepend /matrix/space;#P message 95 196 105 196617 /number-of-jToops 1;#N comlet to thispatcher;#P outlet 800 361 15 0;#P message 645 197 301 196617 script send lookup-pictslider bkgndpicture blank.jToop.space.jpeg;#P outlet 18 338 15 0;#P message 544 196 65 196617 dim 768 128;#P message 370 197 45 196617 dim 128;#P message 456 196 85 196617 dim 128 128 128;#P newex 18 91 40 196617 b 3;#P message 18 196 75 196617 /listlength 768;#P inlet 18 36 15 0;#P message 228 197 31 196617 clear;#P connect 1 0 3 0;#P connect 3 0 2 0;#P connect 12 0 7 0;#P connect 11 0 7 0;#P connect 13 0 7 0;#P connect 10 0 7 0;#P connect 2 0 7 0;#P connect 3 0 10 0;#P connect 3 1 0 0;#P connect 0 0 13 0;#P connect 5 0 13 0;#P connect 3 1 5 0;#P connect 0 0 11 0;#P connect 4 0 11 0;#P connect 3 1 4 0;#P connect 3 1 6 0;#P connect 0 0 12 0;#P connect 6 0 12 0;#P fasten 3 1 8 0 502 157;#P connect 8 0 9 0;#P connect 15 0 9 0;#P connect 18 0 15 0;#P connect 3 2 14 0;#P fasten 16 0 18 0 1067 244;#P connect 14 2 17 0;#P connect 17 0 18 1;#P connect 17 1 19 0;#P connect 19 0 20 0;#P pop;#P newobj 767 310 92 196617 p clear;#N vpatcher 6 46 1260 823;#P origin 0 33;#P window setfont "Sans Serif" 9.;#P newex 573 106 71 196617 print adding...;#P newex 278 398 54 196617 one-jToop;#P newex 1087 107 35 196617 t open;#P newex 1087 166 45 196617 pcontrol;#N comlet group-add;#P inlet 1087 61 15 0;#N vpatcher 536 47 1011 209;#P origin 5 -39;#P window setfont "Sans Serif" 9.;#P newex 944 629 20 196617 t b;#P newex 944 607 65 196617 pvar redraw;#B color 14;#P comment 79 17 51 196617 _______;#P message 125 18 42 196617 redraw;#B color 6;#P objectname redraw;#P message 944 708 75 196617 /update matrix;#P newex 944 652 33 196617 defer;#P message 2 128 32 196617 clear;#B color 5;#N vpreset 2;#P preset 35 127 413 17;#P newex 834 649 27 196617 b;#P message 851 672 64 196617 /draw-2D 1;#P newex 834 626 49 196617 del 2000;#P message 828 590 64 196617 /draw-2D 0;#P newex 491 505 27 196617 - 1;#P newex 637 750 138 196617 s $0_to-myself;#P comment 166 18 105 196617 ________________;#N coll $0temp-add-group 1;#P newobj 265 18 180 196617 coll $0temp-add-group 1;#P comment 2 2 18 196617 go;#P window setfont "Sans Serif" 14.;#P number 35 16 46 14 0 0 0 3 0 0 0 40 204 140 222 222 222 0 0 0;#P objectname counter;#P window setfont "Sans Serif" 9.;#P newex 395 460 65 196617 pvar counter;#B color 14;#P newex 533 499 49 196617 grab-one;#P newex 544 380 27 196617 t i i;#P newex 461 532 31 196617 sel 1;#P newex 461 505 27 196617 ==;#P newex 461 459 27 196617 t i i;#P number 421 323 35 9 0 0 0 3 0 0 0 221 221 221 222 222 222 0 0 0;#P newex 638 276 48 196617 pipe 100;#P button 603 284 15 0;#P newex 725 319 40 196617 change;#P newex 534 527 55 196617 t dump 0 0;#P toggle 638 308 15 0;#P newex 693 145 31 196617 t 0 0;#P newex 638 85 40 196617 sel 1 0;#P newex 637 462 161 196617 pack /add 1 128 1. 1. 1 1 1. 1. 1.;#N coll $0temp-add-group 1;#P newobj 637 593 122 196617 coll $0temp-add-group 1;#P newex 637 501 75 196617 stream-to-coll;#P newex 638 377 40 196617 t b b b;#P newex 756 361 63 196617 pvar spread;#B color 14;#P newex 695 361 60 196617 pvar height;#B color 14;#P newex 638 335 31 196617 gate;#P newex 638 145 53 196617 t 1 1 b b;#P newex 638 355 31 196617 sel 1;#P newex 1022 359 91 196617 Lscale 0 255 0. 1.;#P newex 1022 339 55 196617 pvar color;#B color 14;#P newex 913 361 98 196617 scale 86 598 0 127;#P newex 820 361 92 196617 scale 7 519 0 127;#P comment 734 483 165 196617 on/off 128 height spread x y R G B;#P number 867 333 35 9 0 0 0 3 0 0 0 221 221 221 222 222 222 0 0 0;#P toggle 659 308 15 0;#P toggle 658 225 15 0;#P newex 658 250 51 196617 metro 50;#P newex 725 282 66 196617 mousestate;#N counter;#X flags 0 0;#P newobj 461 423 66 196617 counter;#P newex 638 63 43 196617 pvar go;#B color 14;#P user led 2 18 17 17 0 150;#P objectname go;#P newex 544 241 27 196617 + 1;#P newex 489 241 27 196617 + 1;#P newex 544 355 82 196617 pvar range-max;#B color 14;#P newex 489 324 79 196617 pvar range-min;#B color 14;#P newex 489 216 65 196617 pvar range 2;#B color 14;#P user multiSlider 25 60 23 65 0. 50. 1 2937 14 0 0 2 0 0 1;#M frgb 255 110 90;#M brgb 223 255 157;#M rgb2 127 127 127;#M rgb3 0 0 0;#M rgb4 37 52 91;#M rgb5 74 105 182;#M rgb6 112 158 18;#M rgb7 149 211 110;#M rgb8 187 9 201;#M rgb9 224 62 37;#M rgb10 7 114 128;#P objectname spread;#P user multiSlider 2 60 23 65 0. 0.5 1 2937 13 0 0 2 0 0 1;#M frgb 255 110 90;#M brgb 223 255 157;#M rgb2 127 127 127;#M rgb3 0 0 0;#M rgb4 37 52 91;#M rgb5 74 105 182;#M rgb6 112 158 18;#M rgb7 149 211 110;#M rgb8 187 9 201;#M rgb9 224 62 37;#M rgb10 7 114 128;#P objectname height;#P user swatch 47 60 401 65;#P objectname color;#P inlet 489 144 15 0;#P window setfont "Sans Serif" 14.;#P number 402 40 46 14 0 0 0 3 0 0 0 221 221 221 222 222 222 0 0 0;#P objectname range-max;#P window setfont "Sans Serif" 9.;#P newex 489 169 65 196617 prepend size;#P number 820 333 35 9 0 0 0 3 0 0 0 221 221 221 222 222 222 0 0 0;#P window setfont "Sans Serif" 14.;#P number 2 40 46 14 0 0 0 3 0 0 0 221 221 221 222 222 222 0 0 0;#P objectname range-min;#P user rslider 49 40 352 21 1 1 0 0 0;#P objectname range;#P window setfont "Sans Serif" 9.;#P comment 15 18 26 196617 ___;#P comment 41 2 39 196617 now at;#P hidden connect 62 0 9 0;#P hidden connect 62 0 10 0;#P hidden connect 63 0 62 0;#P hidden connect 62 0 8 0;#P hidden connect 62 0 2 0;#P connect 18 0 51 0;#P connect 12 0 45 0;#P connect 34 2 18 0;#P connect 18 0 46 0;#P connect 46 0 47 0;#P connect 47 0 48 0;#P fasten 49 1 47 1 566 436 508 483;#P connect 7 0 5 0;#P connect 5 0 11 0;#P connect 11 0 14 0;#P connect 14 0 12 0;#P fasten 30 2 12 0 677 204 588 269;#P connect 12 0 18 2;#P connect 46 1 57 0;#P connect 49 0 18 4;#P connect 34 0 50 0;#P connect 50 1 41 0;#P connect 11 1 15 0;#P connect 15 0 13 0;#P connect 13 0 49 0;#P connect 48 0 50 1;#P connect 29 0 43 0;#P connect 34 1 37 0;#P connect 37 0 35 0;#P connect 35 0 36 0;#P connect 41 0 36 0;#P connect 36 0 56 0;#P connect 58 0 56 0;#P connect 60 0 56 0;#P connect 65 0 56 0;#P fasten 41 1 17 0 621 562 1136 562 1136 32 643 32;#P connect 17 0 38 0;#P connect 38 0 30 0;#P connect 30 0 44 0;#P fasten 39 0 44 0 643 191;#P connect 44 0 40 0;#P connect 40 0 31 0;#P connect 31 0 29 0;#P connect 29 0 34 0;#P fasten 57 0 37 1 602 414;#P connect 30 1 21 0;#P fasten 39 1 21 0 745 196;#P connect 21 0 20 0;#P connect 42 0 22 0;#P connect 22 0 31 1;#P fasten 30 3 35 2 772 269 677 350 677 415 600 442 600 487;#P connect 32 0 37 3;#P connect 38 1 39 0;#P connect 33 0 37 4;#P connect 25 0 37 5;#P connect 20 0 19 0;#P connect 19 0 42 0;#P connect 26 0 37 6;#P connect 28 0 37 7;#P connect 19 1 4 0;#P connect 4 0 25 0;#P fasten 41 2 58 0 622 555 833 555;#P connect 36 3 59 0;#P connect 59 0 61 0;#P connect 61 1 60 0;#P connect 19 2 23 0;#P connect 23 0 26 0;#P connect 68 0 69 0;#P connect 69 0 64 0;#P connect 64 0 65 0;#P connect 27 0 28 0;#P pop;#P newobj 1064 216 62 196617 p speed-add;#P number 551 383 35 9 0 0 0 3 0 0 0 221 221 221 222 222 222 0 0 0;#P number 515 383 35 9 0 0 0 3 0 0 0 221 221 221 222 222 222 0 0 0;#P newex 363 529 114 196617 prepend /matrix/space;#P newex 307 502 115 196617 prepend /matrix/points;#P newex 593 244 49 196617 zl slice 2;#P newex 87 157 27 196617 + 1;#N comlet bang when done adding;#P outlet 352 721 15 0;#P newex 87 132 49 196617 zl slice 1;#P newex 87 186 235 196617 sprintf /draw/draw-matrix.voi/%d/recolor bang;#P newex 485 75 66 196617 t l l l l l;#P message 188 260 199 196617 setcell \$1 val 1 \$2 \$3 \$4 \$5 \$6 \$7 \$8 \$9;#P comment 943 398 104 196617 to middle inlet;#P newex 445 291 27 196617 + 1;#P newex 445 261 49 196617 zl slice 1;#N comlet row added;#P outlet 670 714 15 0;#N comlet number of toops;#P inlet 1016 57 15 0;#N comlet bang when done adding;#P outlet 426 721 15 0;#P inlet 549 21 15 0;#P comment 991 313 104 196617 total number of toops;#P number 950 311 35 9 0 0 0 3 0 0 0 221 221 221 222 222 222 0 0 0;#P newex 773 606 93 196617 expr $f1/$f2*$f3;#P newex 812 560 48 196617 grab-one;#P newex 556 332 55 196617 unpack 1 1;#P newex 604 206 49 196617 zl slice 4;#P newex 688 298 53 196617 t i b i i;#P newex 956 371 74 196617 pack dim 1 1 1;#P newex 773 538 27 196617 t f f;#P newex 622 147 92 196617 t b l b l l b l;#P newex 670 203 134 196617 unpack 1 1 1. 1. 1 1 1. 1. 1.;#P user fpic 885 538 276 49 gimg1083.gif 0 0 0 0. 0 0 0;#P flonum 783 310 35 9 0 0 0 3 0 0 0 221 221 221 222 222 222 0 0 0;#P number 860 310 35 9 0 0 0 3 0 0 0 221 221 221 222 222 222 0 0 0;#P number 824 310 35 9 0 0 0 3 0 0 0 221 221 221 222 222 222 0 0 0;#P number 688 277 35 9 0 0 0 3 0 0 0 221 221 221 222 222 222 0 0 0;#P newex 648 483 27 196617 t b i;#P newex 704 507 27 196617 - 1;#P newex 672 507 27 196617 - 1;#P newex 653 631 115 196617 pack setcell 0 0 1 val 1.;#P button 662 336 15 0;#P newex 757 492 235 196617 expr (1./2./3.1415/($f3*$f3))*exp(-1.*(($f1-$f4)*($f1-$f4)+($f2-$f5)*($f2-$f5))/2./($f3*$f3));#P newex 627 424 40 196617 uzi 64;#P newex 662 360 40 196617 uzi 64;#P comment 120 280 235 196617 val: dim (def. 128) \, amp \, StdDev \, x0 \, y0 \, R \, G \, B;#P connect 33 2 35 0;#P connect 35 0 37 0;#P connect 37 0 34 0;#P connect 33 3 32 0;#P connect 32 0 39 0;#P connect 39 0 36 0;#P connect 40 0 36 0;#P fasten 34 0 36 0 125 643;#P connect 5 0 40 0;#P fasten 15 0 26 0 442 196 419 302 442 421 502 553;#P connect 15 1 29 0;#P connect 29 0 30 0;#P connect 25 0 33 0;#P connect 20 0 41 0;#P connect 20 1 42 0;#P connect 38 0 20 0;#P connect 33 4 48 0;#P connect 19 1 38 0;#P connect 15 3 19 0;#P connect 33 1 15 0;#P connect 1 0 2 0;#P fasten 2 2 8 0 662 462 653 462;#P connect 8 0 5 0;#P connect 18 0 2 1;#P fasten 15 2 4 0 537 235;#P connect 4 0 1 0;#P connect 15 4 14 0;#P fasten 30 0 28 0 583 653;#P connect 8 1 6 0;#P connect 6 0 5 1;#P connect 14 1 9 0;#P connect 9 0 18 0;#P connect 18 0 1 1;#P connect 7 0 5 2;#P connect 1 2 7 0;#P fasten 14 0 5 3 513 329;#P connect 2 2 3 0;#P connect 20 0 3 0;#P connect 22 0 5 5;#P connect 3 0 16 0;#P connect 16 0 22 0;#P connect 14 3 12 0;#P connect 16 1 21 0;#P connect 1 2 3 1;#P connect 20 1 3 1;#P connect 21 1 22 1;#P connect 14 4 10 0;#P connect 15 5 21 1;#P fasten 14 2 22 2 744 561;#P connect 14 5 11 0;#P connect 12 0 3 2;#P connect 10 0 3 3;#P connect 27 0 23 0;#P connect 18 1 17 0;#P connect 18 2 17 1;#P connect 11 0 3 4;#P connect 18 3 17 2;#P connect 23 0 17 3;#P connect 45 0 43 0;#P connect 27 0 43 0;#P connect 44 0 46 0;#P connect 46 0 45 0;#P pop;#P newobj 670 337 66 196617 p add;#P newex 648 138 456 196617 osc-route /lookup /add /clear /number-of-jToops /draw /store /write /update /mode /listlength /ali.mtr /read /matrix /interpolate /draw-2D /display /init /speedlim /echo /draw-3D;#P message 721 442 289 196617 /matrix jit_matrix $0jit-mixer-space;#N vpatcher 57 44 1280 842;#P origin 3 9;#P window setfont "Sans Serif" 9.;#P newex 67 169 27 196617 t i i;#P newex 184 708 27 196617 gate;#P newex 184 744 252 196617 jit.gl.render $0jit-mixer_window;#P newex 863 636 40 196617 t l l 1;#P newex 893 669 35 196617 gate 2;#P newex 997 717 25 196617 iter;#P button 919 505 15 0;#P user jit.pwindow 791 461 82 62 0 1 0 0 1 0;#P user jit.pwindow 730 654 82 62 0 1 0 0 1 0;#P user jit.pwindow 752 527 82 62 0 1 0 0 1 0;#P newex 997 738 85 196617 if $f1 > 1. then 2;#P newex 997 695 50 196617 zl slice 3;#P newex 969 673 53 196617 jit.3m;#P user jit.pwindow 463 705 82 62 0 1 0 0 1 0;#P message 571 717 194 196617 exportimage :simpletest.space.jpeg jpeg;#P button 186 90 15 0;#P message 289 446 83 196617 /*/recolor bang;#P newex 609 583 40 196617 sel 0 1;#P inlet 933 31 15 0;#P outlet 832 763 15 0;#P newex 36 329 27 196617 b;#P message 624 627 145 196617 drawto $0jit-mixer-3D-draw;#P newex 521 655 232 196617 jit.matrix $0jit-mixer-3D-draw 4 char 512 512;#P newex 535 552 45 196617 loadbang;#P newex 606 64 45 196617 loadbang;#P message 497 513 83 196617 /*/recolor bang;#P newex 825 55 27 196617 - 1;#P newex 1025 169 49 196617 zl slice 9;#P newex 825 102 210 196617 jit.matrix $0jit-mixer-points 9 float32 128;#P message 825 80 53 196617 getcell \$1;#P number 540 89 35 9 0 0 0 3 0 0 0 221 221 221 222 222 222 0 0 0;#P newex 532 323 79 196617 sprintf set /%d;#P newex 410 499 27 196617 t b l;#P newex 393 66 28 196617 t b b;#P newex 297 41 398 196617 osc-route /matrix /render /reset /recolor /draw-matrix.voi /n-jToops /jit.window;#P newex 863 615 219 196617 jit.matrix $0temp3 4 float32 16 16 @interp 1;#P newex 810 698 111 196617 jit.op @op / @val 255.;#P outlet 801 760 15 0;#P newex 810 722 74 196617 jit.a.normalize;#P newex 295 75 34 196617 zl reg;#P newex 441 89 28 196617 t b b;#P newex 630 247 40 196617 t l l l;#P newex 861 385 53 196617 jit.pack 4;#P newex 1014 349 53 196617 zl group 3;#P newex 1014 329 27 196617 int;#P newex 1014 283 25 196617 iter;#P newex 1014 306 85 196617 zmap 0. 1. 0 255;#P newex 938 583 34 196617 zl reg;#P newex 962 560 27 196617 t l l;#P newex 962 534 62 196617 jit.op @op +;#P newex 962 476 63 196617 jit.op @op *;#P message 1014 377 139 196617 setcell 0 0 val 255 \$1 \$2 \$3;#P newex 1014 402 145 196617 jit.matrix $0temp1 4 char 1 1;#P newex 1014 432 205 196617 jit.matrix $0temp2 4 char 16 16 @interp 1;#P newex 535 576 39 196617 t clear;#P newex 387 342 27 196617 t b i;#P newex 387 321 40 196617 change;#P button 138 229 15 0;#P message 609 607 139 196617 drawto $0jit-mixer_window;#P message 176 41 115 196617 jit_matrix $0jit-mixer;#P message 341 422 83 196617 /*/recolor bang;#P comment 366 448 89 196617 a way of talking to;#P comment 671 211 211 196617 isolate one dimension of the n x n x m matrix;#P newex 561 475 52 196617 prepend ?;#P newex 454 445 70 196617 OSC-to-poly~;#P newex 130 468 70 196617 poly~-control;#P comment 730 416 164 196617 convert n x n x 1 to n x n;#P newex 485 367 52 196617 prepend ?;#P newex 570 355 115 196617 sprintf set /%d/matrix;#P newex 495 227 40 196617 t b i i;#P newex 404 367 75 196617 prepend voices;#N vpatcher 229 169 1149 620;#P inlet 650 130 15 0;#P window setfont "Sans Serif" 9.;#P message 543 290 14 196617 1;#P toggle 609 292 15 0;#P message 609 312 44 196617 axes \$1;#P toggle 520 293 15 0;#P message 520 313 85 196617 poly_mode \$1 \$1;#P user ubumenu 542 163 84 196617 0 1 1 0;#X add points;#X add lines;#X add line_strip;#X add line_loop;#X add triangles;#X add tri_strip;#X add tri_fan;#X add quads;#X add quad_strip;#X add polygon;#X add tri_grid;#X add quad_grid;#X prefix_set 0 0 <none> 0;#P comment 559 210 100 196617 other draw prims;#P message 478 294 20 196617 75;#P newex 688 211 45 196617 loadbang;#P message 439 313 70 196617 lens_angle \$1;#P flonum 439 294 35 9 0 0 0 3 0 0 0 221 221 221 222 222 222 0 0 0;#P message 444 164 52 196617 quad_grid;#P message 191 280 249 196617 lookat 0 0 1 \, camera 0. 3 0 \, color 1. 1. 1. 0.5 \, erase_color 0. 0. 0. 1. \, depth_enable 1 \, usetexture 0;#P outlet 183 391 15 0;#P connect 11 0 0 0;#P connect 9 0 0 0;#P fasten 8 1 0 0 584 253 188 253;#P fasten 2 0 0 0 449 251 188 251;#P fasten 4 0 0 0 444 355 188 355;#P fasten 1 0 0 0 196 284 188 284;#P connect 5 0 1 0;#P connect 6 0 3 0;#P connect 3 0 4 0;#P connect 5 0 2 0;#P connect 5 0 6 0;#P connect 13 0 10 0;#P connect 10 0 9 0;#P connect 5 0 13 0;#P connect 13 0 12 0;#P connect 12 0 11 0;#P pop;#P newobj 138 253 44 196617 p init-gl;#P newex 201 409 70 196617 OSC-to-poly~;#P newex 201 468 263 196617 poly~ jToop.draw-matrix.voi 1 args $0jit-mixer-points;#P newex 599 446 128 196617 jit.matrix 1 float32 16 16;#P newex 515 285 79 196617 t b b i i b i;#P newex 690 85 27 196617 - 1;#P message 690 133 65 196617 splitpoint \$1;#P newex 614 222 42 196617 jit.split;#P newex 295 120 66 196617 t b b 0 l l;#P newex 529 174 34 196617 zl reg;#P newex 395 230 45 196617 pack 1 1;#P newex 606 91 31 196617 t 2 3;#P number 738 71 35 9 0 0 0 3 0 0 0 221 221 221 222 222 222 0 0 0;#P message 738 108 65 196617 splitpoint \$1;#P message 606 118 59 196617 splitdim \$1;#P newex 641 190 42 196617 jit.split;#P newex 476 259 40 196617 uzi;#P newex 439 203 65 196617 unpack 1 1 1;#P inlet 295 19 15 0;#P newex 395 256 62 196617 prepend dim;#P newex 313 182 199 196617 route planecount type dim;#P newex 313 161 70 196617 jit.matrixinfo;#P comment 97 288 97 196617 erase \, then bang to send the geometry \, then bang to swap display buffer.;#P message 20 561 32 196617 reset;#P comment 31 591 154 196617 the window is made in here. drag in window to rotate the rendered geometry. hit 'esc' to toggle fullscreen mode.;#N vpatcher 86 257 1192 694;#P button 275 58 15 0;#P window setfont "Sans Serif" 9.;#P message 439 92 115 196617 script delete jit.window;#P message 233 132 190 196617 script connect fullscreen 0 jit.window 0;#P newex 334 98 27 196617 b;#P newex 149 334 326 196617 vbap_n-to-n;#P message 440 129 293 196617 script new jit.window newex 100 210 300 196617 jit.window $0jit-mixer_window @rect 10 50 200 200 @depthbuffer 1;#P newex 333 67 40 196617 sel 1 0;#N thispatcher;#Q end;#P newobj 333 171 60 196617 thispatcher;#P inlet 333 38 15 0;#P inlet 103 37 15 0;#P newex 104 69 27 196617 gate;#P inlet 8 72 15 0;#P newex 13 183 37 196617 == 0;#P toggle 353 251 15 0;#P message 353 270 75 196617 auto_rotate \$1;#P newex 104 138 27 196617 t i i;#P flonum 262 250 35 9 0 0 0 3 0 0 0 221 221 221 222 222 222 0 0 0;#P message 262 270 51 196617 radius \$1;#P flonum 195 250 35 9 0 0 0 3 0 0 0 221 221 221 222 222 222 0 0 0;#P message 195 270 60 196617 tracking \$1;#P newex 11 291 490 196617 jit.gl.handle $0jit-mixer_window @inherit_transform 1 @depth_enable 1 @tracking 1 @radius 1.414;#P message 13 204 93 196617 \; jit menubar \$1;#P outlet 11 321 15 0;#P newex 104 95 50 196617 select 27;#P newex 150 30 40 196617 key;#P newex 121 183 91 196617 prepend fullscreen;#P objectname fullscreen;#P comment 11 255 178 196617 inherit_transform is important here \, since we are controlling jit.gl.render;#P toggle 104 118 15 0;#P connect 16 0 7 0;#P fasten 13 0 7 0 358 288 16 288;#P fasten 10 0 7 0 267 288 16 288;#P fasten 8 0 7 0 200 285 16 285;#P connect 7 0 5 0;#P fasten 12 0 15 0 109 169 18 169;#P connect 15 0 6 0;#P connect 18 0 17 0;#P connect 17 0 4 0;#P connect 4 0 0 0;#P connect 0 0 12 0;#P connect 3 0 17 1;#P connect 12 1 2 0;#P connect 9 0 8 0;#P connect 24 0 25 0;#P connect 11 0 10 0;#P connect 19 0 21 0;#P connect 25 0 20 0;#P connect 22 0 20 0;#P connect 26 0 20 0;#P connect 21 0 24 0;#P connect 27 0 24 0;#P connect 14 0 13 0;#P connect 21 1 26 0;#P connect 24 1 22 0;#P pop;#P newobj 21 645 115 196617 p window-mouse-rotate;#P toggle 31 195 15 0;#P newex 31 220 55 196617 qmetro 50;#P newex 31 288 55 196617 t b b erase;#P message 201 278 159 196617 plane 0 \, 0 0 1 1 \, plane 1 \, 0 1 0 1;#P newex 201 322 183 196617 jit.matrix $0small 2 float32 2 2;#P newex 201 301 103 196617 jit.fill $0small;#P newex 201 682 105 196617 nothing;#P comment 200 216 97 196617 order of planes for geometry matrix: x \, y \, z \, s \, t \, nx \, ny \, nz \, a \, r \, g \, b \, edges;#P comment 440 413 89 196617 default draw prim;#P newex 201 364 59 196617 prepend /*;#N coll $0-colors 1;#P newobj 462 605 82 196617 coll $0-colors 1;#P newex 462 576 70 196617 prepend store;#P fasten 75 0 14 0 117 207;#P connect 14 0 12 0;#P connect 108 0 11 0;#P connect 11 0 10 0;#P connect 10 0 9 0;#P connect 9 0 88 0;#P fasten 74 1 108 0 357 91;#P fasten 11 0 12 1 18 222 18 490;#P connect 74 6 12 2;#P connect 75 1 51 0;#P connect 51 0 37 0;#P connect 108 1 107 0;#P connect 107 0 106 0;#P connect 29 0 8 0;#P connect 8 0 6 0;#P connect 6 0 7 0;#P connect 18 0 2 0;#P connect 7 0 2 0;#P connect 9 1 2 0;#P connect 41 0 36 0;#P connect 2 0 36 0;#P connect 36 0 35 0;#P connect 43 0 35 0;#P connect 38 0 35 0;#P connect 88 1 5 0;#P connect 87 0 5 0;#P fasten 12 0 5 0 26 674 206 674;#P connect 9 2 5 0;#P connect 37 0 5 0;#P connect 50 0 5 0;#P connect 35 0 5 0;#P connect 5 0 107 1;#P connect 68 0 69 0;#P connect 93 0 69 0;#P connect 74 0 69 0;#P connect 69 0 29 0;#P connect 49 0 29 0;#P connect 19 0 74 0;#P connect 29 3 16 0;#P connect 16 0 17 0;#P connect 68 1 48 0;#P connect 53 0 48 0;#P connect 39 1 52 0;#P connect 52 0 53 0;#P connect 74 2 75 0;#P connect 20 0 27 0;#P connect 27 0 18 0;#P connect 53 1 38 0;#P connect 35 2 76 0;#P connect 20 1 27 1;#P connect 17 2 20 0;#P connect 74 3 68 0;#P connect 45 0 44 0;#P connect 83 0 44 0;#P connect 92 0 44 0;#P fasten 74 4 44 0 585 88 767 66 863 131 897 188 795 347 669 384 626 428 494 425;#P connect 44 0 35 1;#P connect 76 1 0 0;#P connect 0 0 1 0;#P connect 54 0 1 0;#P connect 86 0 95 0;#P fasten 29 1 21 0 300 205 375 250 481 250;#P connect 77 0 41 0;#P connect 33 0 41 0;#P fasten 74 5 39 0 575 200;#P connect 39 2 21 1;#P connect 21 2 33 0;#P connect 94 0 86 0;#P fasten 88 0 86 0 114 541;#P connect 33 1 28 0;#P connect 33 3 77 0;#P connect 85 0 54 0;#P connect 74 5 78 0;#P connect 29 4 28 1;#P connect 34 0 45 0;#P connect 40 0 45 0;#P connect 33 3 40 0;#P connect 18 0 34 0;#P connect 67 0 34 0;#P connect 84 0 26 0;#P connect 26 0 23 0;#P connect 90 0 91 0;#P connect 91 0 50 0;#P connect 23 0 30 0;#P fasten 31 0 30 0 695 156 619 156;#P connect 22 0 30 0;#P connect 91 1 87 0;#P connect 30 1 67 0;#P fasten 23 0 22 0 611 156 646 156;#P fasten 24 0 22 0 743 156 646 156;#P connect 28 0 22 0;#P connect 25 0 32 0;#P connect 32 0 31 0;#P connect 70 0 100 0;#P connect 33 2 25 0;#P connect 26 1 25 0;#P connect 25 0 24 0;#P connect 72 0 99 0;#P connect 73 0 101 0;#P connect 70 0 71 0;#P fasten 104 0 71 0 898 731;#P connect 104 1 72 0;#P connect 72 0 70 0;#P connect 33 5 82 0;#P connect 82 0 79 0;#P connect 79 0 80 0;#P connect 86 0 89 0;#P connect 67 1 66 0;#P connect 18 0 73 0;#P connect 61 0 73 0;#P connect 73 0 105 0;#P connect 67 1 66 1;#P connect 67 1 66 2;#P connect 105 2 104 0;#P connect 98 0 104 0;#P connect 67 1 66 3;#P connect 105 0 104 1;#P fasten 21 1 61 0 552 384;#P connect 102 0 61 0;#P connect 66 0 58 0;#P connect 58 0 59 0;#P connect 59 0 60 0;#P connect 60 0 61 1;#P connect 105 1 96 0;#P connect 96 2 97 0;#P connect 97 0 103 0;#P connect 103 0 98 0;#P connect 81 1 63 0;#P connect 63 0 62 0;#P connect 62 0 64 0;#P connect 64 0 65 0;#P connect 65 0 57 0;#P fasten 33 4 56 0 971 337;#P connect 57 0 56 0;#P connect 56 0 55 0;#P connect 18 0 55 0;#P fasten 29 2 59 1 884 297 951 538;#P fasten 60 1 59 1 1070 600 1087 538 1025 522;#P connect 55 0 58 1;#P connect 80 1 81 0;#P pop;#P newobj 721 513 69 196617 p draw-space;#P comment 1289 100 212 196617 /number-of-toops: int \, total number of toops;#P comment 1289 66 115 196617 /lookup: list of int: x \, y;#P inlet 648 20 15 0;#P comment 1289 82 195 196617 /add: list: toop # \, dim \, amp \, std \, x0 \, y0;#P window setfont Verdana 9.;#P comment 311 -2 60 472055817 __mode__;#B color 13;#P comment 25 564 30 472055817 stop;#P user panel 6 626 384 37;#X brgb 255 241 43;#X frgb 0 0 0;#X border 0;#X rounded 0;#X shadow 0;#X done;#P user panel 6 544 114 82;#X brgb 255 187 43;#X frgb 0 0 0;#X border 0;#X rounded 0;#X shadow 0;#X done;#P user panel 273 544 245 119;#X brgb 255 197 75;#X frgb 0 0 0;#X border 0;#X rounded 0;#X shadow 0;#X done;#P user panel 120 543 153 85;#X brgb 255 224 141;#X frgb 0 0 0;#X border 0;#X rounded 0;#X shadow 0;#X done;#P user panel 8 -6 509 37;#X brgb 255 201 59;#X frgb 0 0 0;#X border 0;#X rounded 0;#X shadow 0;#X done;#P window setfont "Sans Serif" 9.;#P message 567 99 75 196617 /update matrix;#P message 996 95 35 196617 /clear;#N vpatcher 0 44 790 627;#P window setfont "Sans Serif" 9.;#P newex 52 177 44 196617 jit.qball;#P newex 52 119 53 196617 pack 1. 1.;#P newex 105 89 39 196617 / 127.;#P newex 52 89 39 196617 / 127.;#P number 597 163 35 9 0 0 0 3 0 0 0 221 221 221 222 222 222 0 0 0;#P newex 522 135 50 196617 route set;#P number 302 100 35 9 0 0 0 3 0 0 0 221 221 221 222 222 222 0 0 0;#P number 429 100 35 9 0 0 0 3 0 0 0 221 221 221 222 222 222 0 0 0;#P user jit.fpsgui 86 340 60 196617 3;#P inlet 522 44 15 0;#P message 522 186 90 196617 data_widthclip \$1;#P message 274 187 89 196617 data_depthclip \$1;#P message 412 186 105 196617 data_interpolation \$1;#P newex 257 131 27 196617 t i i;#P newex 217 334 50 196617 zl slice 1;#P user jit.fpsgui 444 385 60 196617 3;#P newex 404 354 50 196617 zl slice 1;#P newex 354 352 31 196617 print;#P newex 52 267 295 196617 tap.jit.ali @data_matrix $0jit-mixer-data @space_matrix $0jit-mixer-space @output_type matrix @data_interpolation 1;#P outlet 226 395 15 0;#P message 103 180 79 196617 getdata_matrix;#P message 121 206 85 196617 getspace_matrix;#P message 52 153 69 196617 coords \$1 \$2;#P outlet 52 521 15 0;#P newex 52 61 63 196617 unpack 1. 1.;#P inlet 52 32 15 0;#P inlet 257 43 15 0;#P inlet 412 43 15 0;#P connect 2 0 3 0;#P connect 3 0 24 0;#P connect 24 0 26 0;#P connect 26 0 5 0;#P connect 5 0 27 0;#P connect 27 0 9 0;#P fasten 17 0 9 0 527 231 57 231;#P fasten 7 0 9 0 108 234 57 234;#P fasten 6 0 9 0 126 234 57 234;#P fasten 16 0 9 0 279 234 57 234;#P fasten 15 0 9 0 417 234 57 234;#P connect 9 0 4 0;#P connect 9 0 19 0;#P connect 25 0 26 1;#P connect 3 1 25 0;#P connect 9 1 13 0;#P connect 13 0 8 0;#P connect 1 0 14 0;#P connect 14 0 13 1;#P connect 14 1 16 0;#P connect 1 0 21 0;#P connect 9 2 10 0;#P connect 9 2 11 0;#P connect 0 0 15 0;#P connect 0 0 20 0;#P connect 11 1 12 0;#P connect 18 0 22 0;#P connect 22 1 17 0;#P connect 22 0 17 0;#P connect 22 1 23 0;#P connect 22 0 23 0;#P pop;#P newobj 592 414 64 196617 p tap-lookup;#P user jit.pwindow 4 30 514 514 0 1 0 0 1 0;#P objectname lookup-matrix;#P hidden connect 99 0 187 0;#P hidden connect 80 0 77 0;#P hidden connect 73 0 50 0;#P hidden connect 70 0 67 0;#P hidden connect 67 0 71 0;#P connect 136 0 73 0;#P hidden connect 67 0 68 0;#P hidden connect 76 0 75 0;#P hidden connect 67 0 69 0;#P hidden connect 72 0 56 0;#P hidden connect 75 1 80 0;#P hidden connect 72 1 54 0;#P hidden connect 72 2 55 0;#P hidden connect 72 3 43 0;#P hidden connect 72 4 45 0;#P hidden connect 72 5 84 0;#P hidden connect 1 0 72 0;#P hidden connect 56 0 72 1;#P hidden connect 18 2 72 1;#P hidden connect 1 1 72 2;#P hidden connect 181 1 72 3;#P hidden connect 18 1 109 0;#P hidden connect 33 0 42 0;#P hidden connect 34 0 42 1;#P connect 189 0 188 0;#P connect 157 0 3 0;#P hidden connect 35 0 42 2;#P fasten 17 13 134 0 693 264 583 310;#P hidden connect 60 0 42 3;#P hidden connect 1 0 23 0;#P connect 183 0 98 0;#P connect 98 0 1 0;#P hidden connect 62 0 42 4;#P hidden connect 42 2 26 0;#P fasten 181 0 182 0 645 236;#P connect 182 0 99 0;#P connect 79 0 1 1;#P fasten 17 14 111 0 699 279;#P connect 111 0 107 0;#P hidden connect 1 1 85 0;#P connect 98 1 182 1;#P connect 134 1 105 0;#P connect 134 0 1 2;#P connect 105 0 1 2;#P fasten 17 9 1 3 651 261;#P connect 12 0 169 0;#P connect 21 0 169 0;#P connect 188 1 17 0;#P connect 106 0 17 0;#P connect 88 0 17 0;#P connect 31 0 17 0;#P hidden connect 42 1 17 0;#P connect 44 0 17 0;#P connect 2 0 17 0;#P hidden connect 3 0 17 0;#P connect 166 0 17 0;#P connect 169 1 17 0;#P connect 171 0 17 0;#P connect 184 0 17 0;#P connect 17 0 183 0;#P connect 15 0 133 0;#P fasten 27 4 97 0 1070 407 994 493 808 559;#P fasten 185 0 97 0 811 564;#P connect 17 1 18 0;#P connect 79 0 18 1;#P fasten 17 17 183 1 806 243 746 174 716 188;#P connect 117 0 25 0;#P connect 107 0 108 0;#P connect 108 0 16 0;#P fasten 30 1 16 0 1039 374 1019 427 964 436 869 422 777 434 739 426;#P connect 16 0 15 0;#P fasten 17 4 15 0 775 418;#P connect 15 0 22 0;#P connect 154 0 18 2;#P connect 17 3 41 0;#P connect 18 1 108 1;#P connect 118 0 25 1;#P hidden fasten 42 0 25 2 554 666 768 666;#P connect 17 2 19 0;#P fasten 27 1 22 1 883 498;#P connect 167 0 168 0;#P connect 168 0 166 0;#P fasten 15 1 138 0 785 625;#P connect 143 0 138 0;#P connect 149 0 145 0;#P connect 145 0 146 0;#P connect 146 0 15 1;#P connect 41 0 79 0;#P connect 79 0 81 0;#P connect 81 0 92 0;#P connect 20 0 92 0;#P connect 27 0 92 0;#P connect 19 0 92 0;#P connect 18 0 92 0;#P connect 168 1 166 1;#P connect 19 2 137 0;#P connect 148 0 149 0;#P connect 151 0 152 0;#P connect 152 0 121 0;#P fasten 174 0 122 0 1105 764 863 764;#P fasten 173 0 122 0 1154 762 1129 765 953 765 912 720;#P fasten 160 0 122 0 1091 765 957 765 919 728;#P connect 128 0 122 0;#P connect 123 0 122 0;#P connect 121 0 122 0;#P connect 165 0 122 0;#P connect 17 5 20 0;#P connect 119 0 121 1;#P connect 152 1 119 0;#P fasten 27 3 119 0 990 474;#P connect 17 7 30 0;#P connect 120 1 121 2;#P connect 17 6 27 0;#P connect 156 1 31 0;#P connect 19 1 28 0;#P connect 29 0 28 0;#P connect 27 2 28 0;#P connect 30 0 27 1;#P connect 17 15 177 0;#P connect 177 0 181 0;#P fasten 17 11 27 2 983 246;#P fasten 146 1 147 0 802 617 946 707;#P connect 124 0 139 0;#P connect 139 0 123 0;#P connect 158 0 2 0;#P fasten 128 1 127 0 1164 629 1226 629 1226 489 1004 489;#P connect 127 0 128 0;#P connect 17 19 124 0;#P connect 147 0 140 0;#P connect 140 0 141 0;#P connect 141 0 143 0;#P connect 142 0 143 0;#P connect 139 1 147 1;#P connect 79 0 27 3;#P connect 17 12 179 0;#P connect 139 2 165 0;#P connect 140 1 142 0;#P connect 127 1 128 1;#P connect 17 8 29 0;#P connect 125 0 128 2;#P connect 17 12 87 0;#P connect 103 0 89 0;#P connect 87 0 89 0;#P connect 89 0 100 0;#P fasten 17 16 163 0 1017 220 1239 319 1239 587 1090 587;#P connect 163 0 159 0;#P connect 132 0 159 0;#P connect 159 0 161 0;#P connect 161 0 160 0;#P connect 159 1 174 0;#P connect 91 0 101 0;#P connect 96 0 51 0;#P connect 17 9 51 0;#P connect 51 0 93 0;#P connect 93 0 129 0;#P connect 51 0 40 0;#P connect 126 0 128 3;#P connect 103 0 91 0;#P connect 87 1 91 0;#P connect 90 0 102 0;#P connect 159 2 173 0;#P connect 180 0 179 1;#P connect 17 18 186 0;#P connect 186 0 185 0;#P fasten 17 10 128 4 1200 323 1200 561;#P connect 98 2 186 1;#P connect 87 2 90 0;#P connect 103 0 90 0;#P connect 95 0 96 0;#P connect 37 0 96 1;#P connect 135 0 37 0;#P connect 37 1 94 0;#P connect 94 0 95 0;#P pop;