max v2;#N vpatcher 9 45 1014 758;#P origin 10 146;#P user pictslider 324 232 256 256 4 4 4 4 SliderDefaultKnob.pct 1 SliderDefaultBkgnd.pct 1 3187 0 16711680 255 1. 1.;#P objectname 1one-toop-pictslider;#P user pictslider 324 232 256 256 4 4 4 4 SliderDefaultKnob.pct 1 SliderDefaultBkgnd.pct 1 3187 0 16711680 255 1. 1.;#P objectname 2one-toop-pictslider;#P hidden user pictslider 324 232 256 256 4 4 4 4 SliderDefaultKnob.pct 1 SliderDefaultBkgnd.pct 1 3187 0 16711680 255 1. 1.;#P objectname 3one-toop-pictslider;#P hidden user pictslider 324 232 256 256 4 4 4 4 SliderDefaultKnob.pct 1 SliderDefaultBkgnd.pct 1 3187 0 16711680 255 1. 1.;#P objectname 4one-toop-pictslider;#P hidden user pictslider 324 232 256 256 4 4 4 4 SliderDefaultKnob.pct 1 SliderDefaultBkgnd.pct 1 3187 0 16711680 255 1. 1.;#P objectname 5one-toop-pictslider;#P hidden user pictslider 324 232 256 256 4 4 4 4 SliderDefaultKnob.pct 1 SliderDefaultBkgnd.pct 1 3187 0 16711680 255 1. 1.;#P objectname 6one-toop-pictslider;#P hidden user pictslider 324 232 256 256 4 4 4 4 SliderDefaultKnob.pct 1 SliderDefaultBkgnd.pct 1 3187 0 16711680 255 1. 1.;#P objectname 7one-toop-pictslider;#P hidden user pictslider 324 232 256 256 4 4 4 4 SliderDefaultKnob.pct 1 SliderDefaultBkgnd.pct 1 3187 0 16711680 255 1. 1.;#P objectname 8one-toop-pictslider;#P hidden user pictslider 324 232 256 256 4 4 4 4 SliderDefaultKnob.pct 1 SliderDefaultBkgnd.pct 1 3187 0 16711680 255 1. 1.;#P objectname 9one-toop-pictslider;#P hidden button 705 281 15 0;#P hidden button 582 297 15 0;#P hidden button 704 358 15 0;#P hidden button 581 374 15 0;#P hidden button 703 402 15 0;#P hidden button 580 418 15 0;#P comment 178 404 33 133627913 on/off;#P toggle 309 238 10 0;#P newex 27 127 25 16187401 iter;#P newex 27 159 64 16187401 append set 1;#P hidden newex 27 187 293 16187401 route 21 20 19 18 17 16 15 14 13 12 11 10 9 8 7 6 5 4 3 2 1;#P hidden button 756 185 15 0;#P hidden message 760 222 101 16187401 script show yomama;#P newex 131 574 27 16187401 + 1;#P newex 131 551 55 16187401 unpack 1 1;#P newex 77 579 27 16187401 + 1;#P newex 57 606 65 16187401 zl group 256;#P newex 57 655 103 16187401 s $0to-myself;#P newex 57 633 101 16187401 prepend /active/list;#P hidden newex 45 521 53 16187401 t b b l l;#P newex 78 559 27 16187401 bag;#N thispatcher;#Q end;#P newobj 676 2 59 16187401 thispatcher;#P message 675 -34 222 16187401 script new var1 user led 100 100 18 17 0 150;#P hidden newex 716 289 278 16187401 route 1 2 3 4 5 6 7 8 9 10 11 12 13 14 15 16 17 18 19 20;#P hidden newex 45 493 261 16187401 funnel 20;#P comment 293 465 16 131465225 20;#P comment 293 453 16 131465225 19;#P comment 293 441 16 131465225 18;#P comment 293 429 16 131465225 17;#P comment 293 417 16 131465225 16;#P comment 293 405 16 131465225 15;#P comment 293 393 16 131465225 14;#P comment 293 381 16 131465225 13;#P comment 293 369 16 131465225 12;#P comment 293 357 16 131465225 11;#P comment 293 345 16 131465225 10;#P comment 293 333 12 131465225 9;#P comment 293 321 12 131465225 8;#P comment 293 309 12 131465225 7;#P comment 293 297 12 131465225 6;#P comment 293 285 12 131465225 5;#P comment 293 273 12 131465225 4;#P comment 293 261 12 131465225 3;#P comment 293 249 12 131465225 2;#P toggle 309 467 10 0;#P toggle 309 455 10 0;#P toggle 309 443 10 0;#P toggle 309 431 10 0;#P toggle 309 419 10 0;#P toggle 309 407 10 0;#P toggle 309 395 10 0;#P toggle 309 383 10 0;#P toggle 309 371 10 0;#P toggle 309 359 10 0;#P toggle 309 347 10 0;#P toggle 309 335 10 0;#P toggle 309 323 10 0;#P toggle 309 311 10 0;#P toggle 309 299 10 0;#P toggle 309 287 10 0;#P toggle 309 275 10 0;#P toggle 309 263 10 0;#P toggle 309 251 10 0;#P hidden newex 714 265 27 16187401 t 0 i;#P comment 204 419 82 133627918 interpolation;#N thispatcher;#Q end;#P hidden newobj 37 419 59 16187401 thispatcher;#N vpatcher 40 55 352 284;#P origin -387 -239;#P message 49 118 165 16187401 script sendtoback masta-pictslider;#P newex 49 69 40 16187401 sel 0 1;#P message 64 93 171 16187401 script bringtofront masta-pictslider;#P outlet 85 161 15 0;#P inlet 48 38 15 0;#P connect 0 0 3 0;#P connect 3 0 4 0;#P connect 3 1 2 0;#P connect 4 0 1 0;#P connect 2 0 1 0;#P pop;#P hidden newobj 37 396 44 16187401 p target;#P user led 186 419 17 17 0 150;#N vpatcher 40 55 536 493;#P newex 202 181 40 16187401 t i i i;#P newex 202 271 100 16187401 s $0to-myself;#P newex 217 247 231 16187401 sprintf script bringtofront %done-toop-pictslider;#P newex 202 201 144 16187401 sprintf /toops/%d/dump bang;#P outlet 182 315 15 0;#P inlet 143 45 15 0;#P connect 3 0 1 0;#P connect 0 0 5 0;#P connect 5 0 2 0;#P connect 2 0 4 0;#P connect 5 1 3 0;#P pop;#P hidden newobj 744 265 44 16187401 p target;#P user multiSlider 597 438 100 50 0. 1. 30 2681 15;#M frgb 0 0 0;#M brgb 255 255 255;#P user textedit 597 326 700 364 0 247 9 one;#P flonum 597 397 35 9 0 0 0 247 0 0 0 221 221 221 222 222 222 0 0 0;#P newex 434 -102 100 16187401 r $0to-myself;#P user IncDec 597 261 15 15 0 0;#P number 613 253 55 20 1 20 67 247 0 0 0 221 221 221 222 222 222 0 0 0;#P comment 597 419 58 133627918 contents;#P comment 597 377 56 133627918 strength;#P comment 597 307 74 133627918 description;#P newex 324 567 85 16187401 prepend /position;#P newex 235 6 60 16187401 prepend set;#P hidden user pictslider 324 232 256 256 4 4 4 4 SliderDefaultKnob.pct 1 SliderDefaultBkgnd.pct 1 3187 0 16711680 255 1. 1.;#P objectname 10one-toop-pictslider;#N vpatcher 157 62 943 736;#P newex 77 155 59 16187401 print ready;#P newex 124 100 27 16187401 b;#P newex 124 75 59 16187401 delay 2000;#P newex 166 558 144 16187401 sprintf /toops/%d/dump bang;#P newex 166 530 25 16187401 iter;#P newex 312 558 120 16187401 prepend /mix-this-many;#P newex 312 531 32 16187401 zl len;#P newex 417 474 53 16187401 t l l l l;#P newex 124 50 45 16187401 loadbang;#P message 434 315 14 16187401 0;#P message 416 317 14 16187401 1;#P newex 417 354 27 16187401 gate;#P newex 416 290 20 16187401 t b;#P button 225 79 15 0;#P outlet 438 630 15 0;#P newex 434 535 101 16187401 prepend /active/list;#P newex 417 431 65 16187401 zl group 256;#P message 366 210 51 16187401 target \$1;#P message 312 209 52 16187401 /contents;#P newex 297 154 66 16187401 t i b i b i;#P newex 250 127 40 16187401 uzi 20;#P newex 367 253 165 196617 poly~ multi-coll.voi 20 args homes;#P connect 20 0 21 0;#P connect 13 0 19 0;#P connect 19 0 20 0;#P connect 14 1 17 0;#P connect 17 0 18 0;#P connect 8 0 1 0;#P connect 20 1 1 0;#P connect 1 2 2 0;#P connect 2 1 3 0;#P connect 14 2 15 0;#P connect 15 0 16 0;#P connect 2 2 4 0;#P connect 4 0 0 0;#P connect 3 0 0 0;#P connect 0 0 9 0;#P connect 9 0 11 0;#P connect 11 0 10 0;#P connect 12 0 10 0;#P fasten 1 1 5 0 252 346;#P connect 10 0 5 0;#P connect 5 0 14 0;#P fasten 2 3 12 0 497 199 503 281;#P fasten 2 0 10 1 264 278 350 329;#P connect 14 3 6 0;#P connect 6 0 7 0;#P connect 18 0 7 0;#P connect 16 0 7 0;#P pop;#P newobj 346 -102 84 16187401 p init-active-list;#N vpatcher 40 55 974 654;#P message 108 217 51 16187401 target \$1;#P message 21 245 62 16187401 /write bang;#P newex 91 170 25 16187401 iter;#P newex 91 195 27 16187401 t b i;#P newex 91 148 34 16187401 zl reg;#P newex 81 286 165 196617 poly~ multi-coll.voi 20 args homes;#P inlet 66 37 15 0;#P inlet 121 36 15 0;#P connect 4 0 6 0;#P connect 7 0 2 0;#P connect 1 0 3 0;#P connect 3 0 5 0;#P connect 5 0 4 0;#P connect 4 1 7 0;#P connect 0 0 3 1;#P connect 6 0 2 1;#P pop;#P newobj 541 36 41 16187401 p write;#P newex 441 -5 40 16187401 t l l l;#P user multiSlider 186 438 100 50 0. 1. 30 2681 15;#M frgb 0 0 0;#M brgb 255 255 255;#P hidden button 574 473 15 0;#P hidden button 319 489 15 0;#P hidden button 574 489 15 0;#P hidden button 319 216 15 0;#P hidden button 319 233 15 0;#P hidden button 574 217 15 0;#P newex 143 -124 138 16187401 s $0maximum-toops;#P message 59 -101 82 16187401 /active/all bang;#P newex 59 -148 94 16187401 loadbanger bang 20;#P hidden user pictslider 324 232 256 256 4 4 4 4 SliderDefaultKnob.pct 1 SliderDefaultBkgnd.pct 1 3187 0 16711680 255 1. 1.;#P objectname 20one-toop-pictslider;#P hidden user pictslider 324 232 256 256 4 4 4 4 SliderDefaultKnob.pct 1 SliderDefaultBkgnd.pct 1 3187 0 16711680 255 1. 1.;#P objectname 19one-toop-pictslider;#P hidden user pictslider 324 232 256 256 4 4 4 4 SliderDefaultKnob.pct 1 SliderDefaultBkgnd.pct 1 3187 0 16711680 255 1. 1.;#P objectname 18one-toop-pictslider;#P hidden user pictslider 324 232 256 256 4 4 4 4 SliderDefaultKnob.pct 1 SliderDefaultBkgnd.pct 1 3187 0 16711680 255 1. 1.;#P objectname 17one-toop-pictslider;#P hidden user pictslider 324 232 256 256 4 4 4 4 SliderDefaultKnob.pct 1 SliderDefaultBkgnd.pct 1 3187 0 16711680 255 1. 1.;#P objectname 16one-toop-pictslider;#P hidden user pictslider 324 232 256 256 4 4 4 4 SliderDefaultKnob.pct 1 SliderDefaultBkgnd.pct 1 3187 0 16711680 255 1. 1.;#P objectname 15one-toop-pictslider;#P hidden user pictslider 324 232 256 256 4 4 4 4 SliderDefaultKnob.pct 1 SliderDefaultBkgnd.pct 1 3187 0 16711680 255 1. 1.;#P objectname 14one-toop-pictslider;#P hidden user pictslider 324 232 256 256 4 4 4 4 SliderDefaultKnob.pct 1 SliderDefaultBkgnd.pct 1 3187 0 16711680 255 1. 1.;#P objectname 13one-toop-pictslider;#P hidden user pictslider 324 232 256 256 4 4 4 4 SliderDefaultKnob.pct 1 SliderDefaultBkgnd.pct 1 3187 0 16711680 255 1. 1.;#P objectname 12one-toop-pictslider;#P hidden user pictslider 324 232 256 256 4 4 4 4 SliderDefaultKnob.pct 1 SliderDefaultBkgnd.pct 1 3187 0 16711680 255 1. 1.;#P objectname 11one-toop-pictslider;#P newex 535 561 85 16187401 prepend /position;#P newex 535 539 45 16187401 pack 1 1;#P outlet 189 631 15 0;#N vpatcher 40 55 727 632;#P newex 121 158 59 16187401 unpack 1. 1;#P outlet 110 504 15 0;#P message 231 413 31 16187401 clear;#P newex 121 74 40 16187401 t b l b;#P newex 110 448 41 16187401 Laccum;#P newex 141 350 45 16187401 Lmult 1.;#P newex 121 222 65 16187401 t /contents f;#P newex 121 132 35 16187401 zl rev;#P newex 121 102 45 16187401 zl iter 2;#P message 220 224 51 16187401 target \$1;#P newex 220 265 165 196617 poly~ multi-coll.voi 20 args homes;#P inlet 121 52 15 0;#P fasten 8 0 7 0 80 109 80 423;#P connect 9 0 7 0;#P connect 7 0 10 0;#P connect 0 0 8 0;#P connect 8 1 3 0;#P connect 3 0 4 0;#P connect 4 0 11 0;#P connect 11 0 5 0;#P connect 1 0 6 0;#P connect 6 0 7 1;#P connect 5 1 6 1;#P connect 11 1 2 0;#P connect 5 0 1 0;#P connect 2 0 1 0;#P fasten 8 2 9 0 301 126 301 360;#P pop;#P hidden newobj 144 229 65 16187401 p interpolate;#P outlet 324 636 15 0;#P newex 324 539 45 16187401 pack 1 1;#P newex 325 -30 40 16187401 t l l b;#N vpatcher 220 52 1072 746;#P origin 0 16;#P newex 397 88 30 16187401 print;#P button 401 30 15 0;#P newex 401 51 28 16187401 grab;#P message 620 300 17 16187401 1.;#P newex 620 277 44 16187401 route 0.;#P newex 353 162 28 16187401 grab;#P newex 384 163 28 16187401 grab;#P message 90 337 51 196617 renumber;#P newex 324 101 25 16187401 iter;#P message 414 164 51 16187401 target \$1;#P newex 324 125 100 16187401 t i /position /mass i;#P newex 324 77 34 16187401 zl reg;#N comlet (list of int) active list;#P inlet 348 21 15 0;#P newex 449 18 65 196617 loadbanger 2;#P newex 85 395 27 196617 - 1;#N comlet (stuff) to coll;#P inlet 610 18 15 0;#P newex 522 53 50 196617 t f f;#P newex 562 121 53 196617 Linvert 1.;#N comlet (int) order distance calculartion;#P inlet 521 18 15 0;#P newex 292 638 59 196617 zl group 10;#P newex 292 615 25 196617 iter;#P newex 292 594 49 196617 pack 1 1.;#P newex 200 540 27 196617 * 2;#P newex 292 570 31 196617 Lpair;#P newex 366 514 53 196617 zl group 5;#P newex 200 469 27 196617 t i i;#N vpatcher 40 55 440 355;#P newex 135 81 53 196617 Linvert 1.;#P newex 135 167 27 196617 Ldiv;#P newex 151 145 31 196617 Lsum;#P newex 134 123 27 196617 t l l;#P outlet 135 225 15 0;#P inlet 135 54 15 0;#P connect 5 0 2 0;#P connect 0 0 5 0;#P connect 2 0 4 0;#P connect 4 0 1 0;#P connect 2 1 3 0;#P connect 3 0 4 1;#P pop;#P newobj 366 543 113 196617 p list-invert-normalize;#P newex 292 460 59 196617 unpack 1 1.;#P newex 116 259 27 196617 b;#P newex 231 340 27 196617 t i i;#P outlet 292 664 15 0;#P newex 292 515 53 196617 zl group 5;#N comlet (int) take top this many;#P inlet 200 18 15 0;#P newex 55 369 40 196617 uzi 5;#P message 116 310 50 196617 sort -1 2;#P newex 102 40 66 196617 t b b b l b;#P newex 229 147 62 196617 unpack 1. 1.;#P message 158 289 31 196617 clear;#P newex 231 381 58 196617 pack 1 1 1.;#N coll $0distances;#P newobj 231 420 125 196617 coll $0distances;#P newex 285 340 364 196617 expr pow(abs(pow(($f1-$f2)\\\,$f5)) + abs(pow(($f3-$f4)\\\,$f5))\\\,$f6) / $f7;#N comlet (list) position [0.-127. \, 0.-127.];#P inlet 102 18 15 0;#P newex 353 292 62 196617 unpack 1. 1.;#P newex 414 206 165 196617 poly~ multi-coll.voi 20 args homes;#P connect 8 0 10 0;#P fasten 11 0 10 1 205 261;#P connect 10 2 29 0;#P connect 15 0 36 0;#P connect 2 0 8 0;#P connect 8 1 15 0;#P connect 15 1 9 0;#P connect 8 4 6 0;#P connect 11 0 18 0;#P connect 18 0 21 0;#P connect 8 3 7 0;#P connect 33 0 14 0;#P connect 14 0 5 0;#P connect 29 0 4 0;#P connect 6 0 4 0;#P connect 9 0 4 0;#P connect 5 0 4 0;#P connect 36 0 4 0;#P connect 14 1 5 1;#P connect 3 0 5 2;#P connect 1 0 3 0;#P connect 4 0 16 0;#P connect 16 0 12 0;#P connect 12 0 20 0;#P connect 20 0 22 0;#P connect 22 0 23 0;#P connect 23 0 24 0;#P connect 24 0 13 0;#P connect 17 0 20 1;#P connect 41 1 32 0;#P connect 8 2 32 0;#P connect 32 0 35 0;#P connect 35 0 33 0;#P connect 20 1 22 1;#P connect 18 1 12 1;#P connect 21 0 24 1;#P connect 7 0 3 1;#P connect 31 0 32 1;#P connect 33 1 38 0;#P connect 38 0 1 0;#P connect 16 1 19 0;#P connect 19 0 17 0;#P connect 33 2 37 0;#P connect 41 0 43 0;#P connect 42 0 41 0;#P connect 1 1 3 2;#P connect 18 1 19 1;#P connect 33 3 34 0;#P fasten 28 0 0 0 615 61;#P connect 34 0 0 0;#P connect 37 1 0 0;#P connect 38 1 0 0;#P connect 7 1 3 3;#P connect 27 0 3 4;#P connect 30 0 27 0;#P connect 25 0 27 0;#P connect 27 1 26 0;#P connect 26 0 3 5;#P fasten 37 0 39 0 389 226;#P connect 39 0 40 0;#P connect 39 1 3 6;#P connect 40 0 3 6;#P pop;#P newobj 365 21 66 16187401 p calculate;#P newex 240 66 70 16187401 poly~-control;#P inlet 325 -100 15 0;#P newex 499 -49 114 16187401 OSC-to-poly-leave-on~;#N vpatcher 40 55 510 423;#P inlet 282 27 15 0;#P newex 53 118 90 16187401 prepend /contents;#P inlet 201 30 15 0;#P inlet 125 33 15 0;#P newex 274 54 54 16187401 route text;#P outlet 153 222 15 0;#P newex 222 119 102 16187401 prepend /description;#P newex 146 119 75 16187401 prepend /mass;#P connect 4 0 6 0;#P connect 5 0 0 0;#P connect 6 0 2 0;#P connect 0 0 2 0;#P connect 1 0 2 0;#P connect 3 1 1 0;#P connect 3 0 1 0;#P connect 7 0 3 0;#P pop;#P hidden newobj 597 495 53 16187401 p send;#P newex 324 66 161 16187401 poly~ one-toop.voi 20 args homes;#N vpatcher 118 145 755 652;#P origin 66 0;#P user IncDec 6 52 15 15 0 0;#P hidden newex 59 226 30 16187401 sel 0;#P hidden newex 88 188 27 16187401 + 1;#P newex 130 228 35 16187401 gate 2;#P hidden message 295 293 65 16187401 set /position;#P newex 89 426 85 16187401 prepend /position;#P hidden newex 219 181 90 16187401 prepend /contents;#P hidden newex 219 153 54 16187401 route text;#P number 152 50 35 9 0 0 64 247 0 0 0 221 221 221 222 222 222 0 0 0;#P hidden message 189 50 82 16187401 /active/upto \$1;#P hidden newex 190 430 58 16187401 prepend /?;#P hidden newex 68 273 109 16187401 sprintf set /toops/%d;#P hidden message -4 275 60 16187401 /dump bang;#P hidden outlet 190 528 15 0;#P hidden newex 143 313 85 16187401 prepend /position;#P hidden newex 16 144 53 16187401 t i b i i;#P number 22 52 35 9 0 0 64 247 0 0 0 221 221 221 222 222 222 0 0 0;#P hidden newex 142 196 45 16187401 pack 1 1;#P user pictslider 63 48 75 73 4 4 4 4 ‘dashod~o:Standard Applications:Max4/MSP2:patches:ali:too-many-dimensions:picts:masta-knob.pct’ 1 SliderDefaultBkgnd.pct 1 2163 0 16711680 255 1. 1.;#P comment 20 31 35 16187401 target;#P comment 143 31 72 16187401 # active toops;#P hidden connect 5 1 8 0;#P hidden connect 4 0 20 0;#P hidden connect 4 0 5 0;#P hidden connect 20 0 4 0;#P hidden connect 5 2 19 0;#P hidden connect 19 1 9 0;#P hidden connect 5 3 18 0;#P connect 17 0 15 0;#P hidden connect 18 0 17 0;#P hidden connect 2 0 3 0;#P connect 17 1 6 0;#P connect 3 0 17 1;#P hidden connect 2 1 3 1;#P hidden connect 12 0 11 0;#P hidden connect 14 0 10 0;#P hidden connect 9 0 10 0;#P hidden connect 8 0 10 0;#P connect 6 0 10 0;#P connect 15 0 7 0;#P hidden connect 11 0 7 0;#P connect 10 0 7 0;#P hidden connect 13 0 14 0;#P pop;#P newobj 279 -72 45 16187401 p manual;#N vpatcher 558 111 1366 724;#P number 349 64 35 9 0 0 0 247 0 0 0 221 221 221 222 222 222 0 0 0;#P newex 104 353 40 16187401 t l l l;#P message 18 410 16 16187401 2 1;#P newex 18 367 60 16187401 prepend set;#P outlet 142 507 15 0;#P newex 390 234 59 16187401 zl group 32;#P newex 360 198 40 16187401 uzi 32;#P newex 401 168 27 16187401 t i i;#P newex 248 221 59 16187401 zl group 32;#P newex 274 152 101 16187401 r $0maximum-toops;#P newex 218 185 40 16187401 uzi 32;#P outlet 234 520 15 0;#P newex 288 455 199 16187401 sprintf script show %done-toop-pictslider;#P newex 258 327 101 16187401 r $0maximum-toops;#P newex 258 401 194 16187401 sprintf script hide %done-toop-pictslider;#P newex 163 354 25 16187401 iter;#P newex 180 270 40 16187401 t l l b;#P newex 228 354 40 16187401 uzi 32;#P inlet 180 44 15 0;#P newex 180 69 125 16187401 OSC-route /list /all /upto;#P newex 218 127 27 16187401 int;#P newex 235 102 101 16187401 r $0maximum-toops;#P comment 37 431 100 16187401 currently active;#P connect 21 0 19 0;#P connect 19 0 20 0;#P connect 6 0 21 0;#P connect 21 2 18 0;#P connect 6 1 7 0;#P connect 4 0 3 0;#P connect 17 0 6 0;#P connect 14 0 6 0;#P connect 3 0 6 0;#P connect 3 1 2 0;#P connect 2 0 12 0;#P connect 6 2 5 0;#P connect 10 0 11 0;#P connect 8 0 11 0;#P connect 1 0 2 1;#P connect 13 0 12 1;#P connect 12 2 14 0;#P connect 9 0 5 1;#P connect 5 2 8 0;#P connect 7 0 10 0;#P connect 13 0 14 1;#P connect 3 2 22 0;#P connect 15 0 16 0;#P connect 16 2 17 0;#P connect 3 2 15 0;#P connect 15 1 17 1;#P pop;#P newobj 441 -26 92 16187401 p make-active-list;#P newex 325 -72 280 16187401 OSC-route /position /mix-this-many /active /toops /write;#P hidden number 360 499 35 9 0 0 0 247 0 0 0 221 221 221 222 222 222 0 0 0;#P hidden number 324 499 35 9 0 0 0 247 0 0 0 221 221 221 222 222 222 0 0 0;#N vpatcher 40 55 912 687;#P newex 548 306 50 16187401;#N vpatcher 45 80 862 631;#P inlet 243 48 15 0;#P newex 243 76 58 16187401 route clear;#P newex 206 372 38 16187401 t clear;#P newex 290 242 52 16187401 prepend ?;#P newex 382 200 60 16187401 prepend set;#P newex 382 164 65 16187401 route symbol;#P newex 290 163 65 16187401 route symbol;#P outlet 349 467 15 0;#P outlet 288 467 15 0;#P newex 349 370 60 16187401 prepend set;#P newex 288 370 60 16187401 prepend set;#P newex 290 307 190 16187401 OSC-route /position /mass /description;#P newex 291 107 164 16187401 poly~ multi-coll.voi 4 args thisone;#P connect 11 0 10 0;#P connect 12 0 11 0;#P connect 1 1 2 0;#P connect 2 0 4 0;#P connect 0 0 6 0;#P connect 6 0 9 0;#P connect 6 1 9 0;#P connect 8 0 9 0;#P connect 9 0 1 0;#P connect 11 1 0 0;#P connect 1 2 3 0;#P connect 3 0 5 0;#P connect 10 0 5 0;#P connect 0 1 7 0;#P connect 7 0 8 0;#P connect 7 1 8 0;#P pop;#P newobj 547 350 59 16187401 p store-set;#N vpatcher 40 55 874 677;#P inlet 201 30 15 0;#P inlet 125 33 15 0;#P newex 203 54 54 16187401 route text;#P outlet 153 222 15 0;#P newex 222 119 102 16187401 prepend /description;#P newex 146 119 75 16187401 prepend /mass;#P connect 4 0 0 0;#P connect 1 0 2 0;#P connect 0 0 2 0;#P connect 5 0 3 0;#P connect 3 0 1 0;#P connect 3 1 1 0;#P pop;#P newobj 547 461 53 16187401 p send;#P user textedit 596 393 696 443 0 247 9 three;#P flonum 547 394 35 9 0 0 0 247 0 0 0 221 221 221 222 222 222 0 0 0;#P newex 477 100 173 16187401 sprintf script %done-toop-pictslider;#P message 451 141 118 196617 script bringtofront var1;#P message 312 57 35 16187401 script;#P button 365 71 15 0;#N vpatcher 40 55 930 616;#P message 479 65 14 16187401 1;#P newex 335 160 27 16187401 - 1;#P button 316 70 15 0;#P newex 316 100 40 16187401 uzi 1;#P outlet 312 391 15 0;#P inlet 263 37 15 0;#P newex 324 326 263 16187401 sprintf script send %done-toop-pictslider bottomvalue 0;#P newex 310 308 258 16187401 sprintf script send %done-toop-pictslider topvalue 255;#P newex 296 290 265 16187401 sprintf script send %done-toop-pictslider rightvalue 255;#P newex 282 272 248 16187401 sprintf script send %done-toop-pictslider leftvalue 0;#P newex 267 253 271 16187401 sprintf script send %done-toop-pictslider invisiblebkgnd 1;#P newex 354 224 265 16187401 sprintf script connect mama-osc-route %d %done-toop 0;#P newex 446 199 374 16187401 sprintf script new %done-toop-pictslider newex 400 200 255 196617 pictslider;#P newex 495 174 339 16187401 sprintf script new %done-toop newex 400 200 100 196617 one-toop %d;#P connect 10 2 3 0;#P connect 10 2 4 0;#P connect 10 2 5 0;#P connect 10 2 6 0;#P connect 2 0 9 0;#P connect 7 0 9 0;#P connect 6 0 9 0;#P connect 5 0 9 0;#P connect 4 0 9 0;#P connect 3 0 9 0;#P connect 1 0 9 0;#P connect 0 0 9 0;#P connect 8 0 11 0;#P connect 11 0 10 0;#P connect 10 2 7 0;#P connect 10 2 12 0;#P connect 12 0 2 0;#P connect 13 0 1 0;#P connect 10 2 1 0;#P connect 10 2 0 0;#P connect 10 2 2 1;#P connect 10 2 0 1;#P pop;#P newobj 365 104 104 16187401 p scripting-maddness;#P toggle 125 142 15 0;#P message 112 170 85 16187401 invisiblebkgnd \$1;#P number 265 133 35 9 0 0 0 247 0 0 0 221 221 221 222 222 222 0 0 0;#P toggle 223 141 15 0;#P message 210 169 65 16187401 bkgndsize \$1;#P newex 187 498 85 16187401 prepend /position;#P newex 187 471 45 16187401 pack 1 1;#P number 432 443 35 9 0 0 0 247 0 0 0 221 221 221 222 222 222 0 0 0;#P number 187 443 35 9 0 0 0 247 0 0 0 221 221 221 222 222 222 0 0 0;#P user pictslider 205 198 100 100 4 4 4 4 SliderDefaultKnob.pct 1 SliderDefaultBkgnd.pct 1 2675 0 16711680 255 1. 1.;#P connect 9 0 8 0;#P connect 0 0 1 0;#P connect 1 0 3 0;#P connect 3 0 4 0;#P connect 5 0 0 0;#P connect 8 0 0 0;#P connect 6 0 5 0;#P connect 7 0 5 0;#P connect 2 0 3 1;#P connect 11 0 10 0;#P connect 0 1 2 0;#P connect 18 0 15 0;#P connect 15 0 17 0;#P connect 16 0 17 1;#P connect 18 1 16 0;#P pop;#P newobj 866 636 54 16187401 p whateve;#N thispatcher;#Q end;#P hidden newobj 790 265 59 16187401 thispatcher;#P newex 324 170 278 16187401 route 1 2 3 4 5 6 7 8 9 10 11 12 13 14 15 16 17 18 19 20;#P objectname mama-osc-route;#P comment 597 232 78 133627918 toop number;#P comment 293 237 12 131465225 1;#P user pictslider 324 232 256 256 4 4 4 4 ‘dashod~o:Standard Applications:Max4/MSP2:patches:ali:too-many-dimensions:picts:masta-knob.pct’ 1 SliderDefaultBkgnd.pct 1 3187 0 16711680 255 1. 1.;#P objectname masta-pictslider;#P connect 44 2 119 0;#P connect 119 0 118 0;#P connect 118 0 117 0;#P hidden connect 60 0 61 0;#P hidden connect 61 0 62 0;#P hidden connect 120 0 103 0;#P hidden connect 103 0 108 0;#P connect 108 0 111 0;#P connect 112 0 111 0;#P connect 111 0 109 0;#P connect 109 0 110 0;#P hidden connect 65 0 103 1;#P connect 34 0 35 0;#P hidden connect 66 0 103 2;#P connect 107 0 112 0;#P connect 108 1 107 0;#P connect 108 2 107 0;#P hidden connect 67 0 103 3;#P hidden connect 68 0 103 4;#P hidden connect 69 0 103 5;#P hidden connect 70 0 103 6;#P connect 108 3 113 0;#P connect 113 0 114 0;#P hidden connect 71 0 103 7;#P connect 34 1 36 0;#P hidden fasten 16 0 20 0 159 59;#P hidden connect 72 0 103 8;#P hidden connect 73 0 103 9;#P hidden connect 74 0 103 10;#P hidden connect 64 0 60 0;#P hidden connect 20 0 43 0;#P hidden connect 75 0 103 11;#P hidden fasten 20 0 21 0 159 431;#P hidden connect 76 0 103 12;#P hidden connect 77 0 103 13;#P hidden connect 78 0 103 14;#P connect 17 0 48 0;#P hidden connect 79 0 103 15;#P hidden connect 80 0 103 16;#P hidden connect 81 0 103 17;#P hidden connect 82 0 103 18;#P hidden connect 83 0 103 19;#P hidden connect 117 20 120 0;#P hidden connect 117 19 65 0;#P hidden connect 117 18 66 0;#P hidden connect 117 17 67 0;#P hidden connect 117 16 68 0;#P hidden connect 117 15 69 0;#P hidden connect 117 14 70 0;#P hidden connect 117 13 71 0;#P hidden connect 117 12 72 0;#P hidden connect 117 11 73 0;#P hidden connect 117 10 74 0;#P hidden connect 117 9 75 0;#P hidden connect 117 8 76 0;#P hidden connect 117 7 77 0;#P hidden connect 117 6 78 0;#P hidden connect 117 5 79 0;#P hidden connect 117 4 80 0;#P hidden connect 117 3 81 0;#P hidden connect 117 2 82 0;#P hidden connect 117 1 83 0;#P connect 37 0 38 0;#P connect 42 0 41 0;#P connect 39 0 41 0;#P hidden fasten 23 0 11 0 540 596 301 596 301 35 329 35;#P fasten 13 0 11 0 504 20;#P hidden fasten 12 0 11 0 602 519 282 519 282 52 329 52;#P connect 15 0 11 0;#P connect 11 0 3 0;#P hidden connect 3 19 33 0;#P hidden connect 3 18 32 0;#P hidden connect 3 17 31 0;#P hidden connect 3 16 30 0;#P hidden connect 3 15 29 0;#P hidden connect 3 14 28 0;#P hidden connect 3 13 27 0;#P hidden connect 3 12 26 0;#P hidden connect 3 11 25 0;#P hidden connect 3 10 24 0;#P hidden connect 3 9 47 0;#P hidden connect 3 8 128 0;#P hidden connect 3 7 129 0;#P hidden connect 3 6 130 0;#P hidden connect 3 5 131 0;#P hidden connect 3 4 132 0;#P hidden connect 3 3 133 0;#P hidden connect 3 2 134 0;#P hidden connect 3 1 135 0;#P hidden connect 3 0 136 0;#P hidden connect 48 0 0 0;#P hidden connect 0 0 6 0;#P hidden connect 0 0 18 0;#P connect 18 0 49 0;#P connect 18 0 19 0;#P connect 14 0 8 0;#P connect 10 0 8 0;#P fasten 35 0 8 0 64 -82 330 -82;#P connect 46 0 8 0;#P hidden fasten 49 0 8 0 329 590 242 590 242 -77 330 -77;#P connect 55 0 8 0;#P connect 8 0 17 0;#P hidden connect 0 1 18 1;#P hidden connect 0 1 7 0;#P connect 17 1 16 0;#P connect 8 1 16 1;#P connect 44 0 16 2;#P connect 8 2 9 0;#P connect 9 0 44 0;#P connect 8 3 13 0;#P hidden connect 134 0 22 0;#P hidden connect 32 0 22 0;#P hidden connect 33 0 22 0;#P hidden connect 27 0 22 0;#P hidden connect 28 0 22 0;#P hidden connect 29 0 22 0;#P hidden connect 30 0 22 0;#P hidden connect 31 0 22 0;#P hidden connect 26 0 22 0;#P hidden connect 25 0 22 0;#P hidden connect 24 0 22 0;#P hidden connect 47 0 22 0;#P hidden connect 128 0 22 0;#P hidden connect 129 0 22 0;#P hidden connect 130 0 22 0;#P hidden connect 131 0 22 0;#P hidden connect 132 0 22 0;#P hidden connect 135 0 22 0;#P hidden connect 136 0 22 0;#P hidden connect 133 0 22 0;#P connect 22 0 23 0;#P connect 8 4 45 0;#P hidden connect 134 1 22 1;#P hidden connect 32 1 22 1;#P hidden connect 33 1 22 1;#P hidden connect 31 1 22 1;#P hidden connect 30 1 22 1;#P hidden connect 29 1 22 1;#P hidden connect 28 1 22 1;#P hidden connect 27 1 22 1;#P hidden connect 26 1 22 1;#P hidden connect 25 1 22 1;#P hidden connect 24 1 22 1;#P hidden connect 47 1 22 1;#P hidden connect 128 1 22 1;#P hidden connect 129 1 22 1;#P hidden connect 130 1 22 1;#P hidden connect 131 1 22 1;#P hidden connect 132 1 22 1;#P hidden connect 135 1 22 1;#P hidden connect 136 1 22 1;#P hidden connect 133 1 22 1;#P connect 44 1 45 1;#P connect 37 0 40 0;#P connect 123 0 122 0;#P connect 125 0 124 0;#P connect 127 0 126 0;#P hidden connect 53 0 54 0;#P hidden connect 11 3 57 0;#P hidden connect 11 2 56 0;#P hidden connect 11 1 58 0;#P hidden connect 58 0 12 0;#P hidden connect 114 0 53 0;#P hidden connect 54 0 53 0;#P hidden connect 56 0 12 1;#P hidden connect 57 0 12 2;#P connect 105 0 106 0;#P hidden connect 53 0 64 0;#P hidden connect 64 1 59 0;#P hidden connect 18 0 116 0;#P hidden connect 116 0 115 0;#P hidden connect 115 0 4 0;#P hidden connect 59 0 4 0;#P hidden fasten 9 1 4 0 707 59;#P pop;