max v2;#N vpatcher 30 70 922 628;#P user fpic 405 269 276 49 gimg1083.gif 0 0 0 0. 0 0 0;#P user jit.pwindow 214 425 82 62;#P message 298 336 54 196617 dim \$1 \$1;#P comment 390 156 75 196617 number of dims;#P comment 704 154 42 196617 y offset;#P comment 574 153 42 196617 x offset;#P button 411 356 15 0;#P newex 411 387 148 196617 jit.matrix this 1 float32 16 16;#P newex 411 423 44 196617 jit.print;#N vpreset 3;#X append 1 1 13 137 703 number int 8 \; 12 137 580 number int 8 \; 14 137 509 flonum float 3. \; 11 138 409 number int 16 \;;#X append 2 1 13 137 703 number int 64 \; 12 137 580 number int 64 \; 14 137 509 flonum float 3. \; 11 138 409 number int 128 \;;#P preset 472 84 63 17;#P flonum 509 137 35 9 0 0 0 3 0 0 0 221 221 221 222 222 222 0 0 0;#P number 703 137 35 9 0 0 0 3 0 0 0 221 221 221 222 222 222 0 0 0;#P number 580 137 35 9 0 0 0 3 0 0 0 221 221 221 222 222 222 0 0 0;#P number 409 138 35 9 0 0 0 3 0 0 0 221 221 221 222 222 222 0 0 0;#P comment 286 101 164 196617 ¥ bang to build a 2D function.;#P newex 213 182 27 196617 t b i;#P newex 269 206 27 196617 - 1;#P newex 237 206 27 196617 - 1;#P newex 213 273 108 196617 pack setcell 0 0 val 1.;#P button 239 101 15 0;#P newex 317 221 350 196617 expr 1./2./3.1415/$f3^2*exp(-1.*(($f1-$f4)^2+($f2-$f5)^2)/2./$f3^2);#P newex 214 147 40 196617 uzi 64;#P newex 239 125 40 196617 uzi 64;#P newex 213 378 148 196617 jit.matrix this 1 float32 16 16;#P comment 502 166 42 196617 std dist;#P connect 3 2 9 0;#P connect 9 0 6 0;#P connect 22 0 1 0;#P connect 6 0 1 0;#P fasten 3 1 1 0 140 202;#P connect 2 0 3 0;#P connect 1 0 23 0;#P connect 9 1 7 0;#P connect 7 0 6 1;#P connect 5 0 2 0;#P connect 11 0 3 1;#P connect 8 0 6 2;#P connect 11 0 2 1;#P connect 2 2 8 0;#P connect 11 0 22 0;#P connect 4 0 6 4;#P connect 3 2 4 0;#P connect 2 2 4 1;#P connect 15 0 11 0;#P connect 18 0 17 0;#P connect 17 0 16 0;#P connect 14 0 4 2;#P connect 15 0 14 0;#P connect 12 0 4 3;#P connect 15 0 12 0;#P connect 13 0 4 4;#P connect 15 0 13 0;#P pop;