max v2;#N vpatcher 12 49 1017 762;#P origin -70 -34;#P message 704 303 70 196617 jit_matrix ali;#P newex 710 342 44 196617 jit.print;#P newex 855 343 30 196617 print;#P newex 778 343 44 196617 jit.print;#P button 514 257 15 0;#P message 781 271 70 196617 jit_matrix ali;#P newex 787 308 75 196617 jit.op @op max;#P flonum 625 295 44 9 0 0 0 3 0 0 0 221 221 221 222 222 222 0 0 0;#P newex 530 320 105 196617 jit.op @op * @val 0.5;#P message 264 164 54 196617 dim \$1 \$1;#P newex 247 135 27 196617 t b i;#P message 190 68 75 196617 jit_matrix plot;#P message 266 68 70 196617 jit_matrix ali;#P message 666 137 54 196617 dim \$1 \$1;#P user fpic 731 119 276 49 gimg1083.gif 0 0 0 0. 0 0 0;#P newex 217 91 44 196617 jit.print;#N vpreset 3;#X append 1 1 45 95 857 number int 32 \; 44 95 821 number int 32 \; 46 95 750 flonum float 0.07 \; 43 100 666 number int 64 \;;#X append 2 1 45 95 857 number int 8 \; 44 95 821 number int 8 \; 46 95 750 flonum float 3. \; 43 100 666 number int 16 \;;#X append 3 1 45 95 857 number int 128 \; 44 95 821 number int 128 \; 46 95 750 flonum float 11. \; 43 100 666 number int 256 \;;#P preset 789 42 63 17;#P flonum 750 95 35 9 0 0 0 3 0 0 0 221 221 221 222 222 222 0 0 0;#P number 857 95 35 9 0 0 0 3 0 0 0 221 221 221 222 222 222 0 0 0;#P number 821 95 35 9 0 0 0 3 0 0 0 221 221 221 222 222 222 0 0 0;#P number 666 100 35 9 0 0 0 3 0 0 0 221 221 221 222 222 222 0 0 0;#P hidden message 529 537 14 196617 1;#P comment 572 37 138 196617 ¥ bang to build a 2D function.;#P comment 107 151 97 196617 erase \, then bang to send the geometry \, then bang to swap display buffer.;#P newex 530 140 27 196617 t b i;#P newex 586 164 27 196617 - 1;#P newex 554 164 27 196617 - 1;#P comment 231 421 164 196617 the z coordinate is replaced with the equation matrix.;#P message 30 490 32 196617 reset;#P toggle 595 539 15 0;#P message 595 559 44 196617 axes \$1;#P toggle 506 540 15 0;#P message 506 560 85 196617 poly_mode \$1 \$1;#P newex 211 396 103 196617 jit.pack 3;#P newex 211 359 102 196617 jit.unpack 2;#P user jit.pwindow 704 374 180 166;#P newex 530 224 108 196617 pack setcell 0 0 val 1.;#P button 556 36 15 0;#P newex 634 179 235 196617 expr (1./2./3.1415/($f3*$f3))*exp(-1.*(($f1-$f4)*($f1-$f4)+($f2-$f5)*($f2-$f5))/2./($f3*$f3));#P newex 531 82 40 196617 uzi 64;#P newex 556 60 40 196617 uzi 64;#P newex 530 256 142 196617 jit.matrix ali 1 float32 16 16;#P user ubumenu 546 447 84 196617 0 31;#X add points;#X add lines;#X add line_strip;#X add line_loop;#X add triangles;#X add tri_strip;#X add tri_fan;#X add quads;#X add quad_strip;#X add polygon;#X add tri_grid;#X add quad_grid;#P comment 41 520 154 196617 the window is made in here. drag in window to rotate the rendered geometry. hit 'esc' to toggle fullscreen mode.;#P comment 545 431 100 196617 other draw prims;#P hidden message 464 515 24 196617 45.;#P hidden newex 435 48 50 196617 loadbang;#N vpatcher 511 116 987 468;#P inlet 7 35 15 0;#P newex 12 146 37 196617 == 0;#P toggle 352 214 15 0;#P message 352 233 75 196617 auto_rotate \$1;#P newex 103 101 27 196617 t i i;#P flonum 261 213 35 9 0 0 0 3 0 0 0 221 221 221 222 222 222 0 0 0;#P message 261 233 51 196617 radius \$1;#P flonum 194 213 35 9 0 0 0 3 0 0 0 221 221 221 222 222 222 0 0 0;#P message 194 233 60 196617 tracking \$1;#P newex 10 254 405 196617 jit.gl.handle render_grid @inherit_transform 1 @depth_enable 1 @tracking 1 @radius 1.414;#P message 12 167 93 196617 \; jit menubar \$1;#P outlet 10 284 15 0;#P newex 103 56 50 196617 select 27;#P newex 103 34 40 196617 key;#P newex 120 146 91 196617 prepend fullscreen;#P newex 120 167 189 196617 jit.window render_grid @rect 10 50 200 200 @depthbuffer 1;#P comment 10 218 178 196617 inherit_transform is important here \, since we are controlling jit.gl.render;#P toggle 103 81 15 0;#P fasten 9 0 8 0 199 248 15 248;#P fasten 11 0 8 0 266 251 15 251;#P fasten 14 0 8 0 357 251 15 251;#P connect 17 0 8 0;#P connect 8 0 6 0;#P fasten 13 0 16 0 108 132 17 132;#P connect 16 0 7 0;#P connect 4 0 5 0;#P connect 5 0 0 0;#P connect 0 0 13 0;#P connect 13 1 3 0;#P connect 3 0 2 0;#P connect 10 0 9 0;#P connect 12 0 11 0;#P connect 15 0 14 0;#P pop;#P newobj 31 574 115 196617 p window-mouse-rotate;#P message 425 559 70 196617 lens_angle \$1;#P flonum 425 540 35 9 0 0 0 3 0 0 0 221 221 221 222 222 222 0 0 0;#P toggle 41 58 15 0;#P newex 41 83 55 196617 metro 250;#P newex 41 115 103 196617 jit.qball;#P message 430 448 52 196617 quad_grid;#P newex 41 151 55 196617 t b b erase;#P message 441 478 248 196617 lookat 0 0 0 \, camera 0. -4 5 \, color 1. 1. 1. 0.5 \, erase_color 0. 0. 0. 1. \, depth_enable 1 \, usetexture 0;#P message 211 195 106 196617 plane 0 \, -1 -1 1 1 \, plane 1 \, -1 1 -1 1;#P newex 211 285 147 196617 jit.matrix small 2 float32 2 2;#P newex 211 248 98 196617 jit.fill small;#P newex 211 321 195 196617 jit.matrix plot 2 float32 64 64 @interp 1;#P newex 212 612 120 196617 jit.gl.render render_grid;#P comment 362 177 97 196617 order of planes for geometry matrix: x \, y \, z \, s \, t \, nx \, ny \, nz \, a \, r \, g \, b \, edges;#P comment 323 245 164 196617 a 2 plane \, 2x2 matrix is filled in with jit.fill \, then interpolated to create geometry.;#P comment 430 431 100 196617 default draw prim;#P connect 35 0 16 0;#P connect 13 0 12 0;#P fasten 12 0 11 0 46 110 46 110;#P connect 11 0 9 0;#P connect 53 0 7 0;#P connect 7 0 5 0;#P connect 5 0 6 0;#P connect 9 1 4 0;#P connect 6 0 4 0;#P fasten 54 0 4 0 269 310;#P connect 4 0 29 0;#P connect 29 0 30 0;#P fasten 15 0 3 0 430 576 217 576;#P fasten 8 0 3 0 446 505 217 505;#P fasten 10 0 3 0 435 472 217 472;#P fasten 16 0 3 0 36 603 217 603;#P fasten 21 1 3 0 588 474 217 474;#P connect 30 0 3 0;#P connect 9 0 3 0;#P connect 9 2 3 0;#P connect 31 0 3 0;#P connect 33 0 3 0;#P connect 51 0 48 0;#P connect 52 0 48 0;#P connect 43 0 53 0;#P connect 29 1 30 1;#P connect 53 1 54 0;#P connect 55 0 30 2;#P hidden connect 18 0 14 0;#P connect 14 0 15 0;#P hidden connect 17 0 10 0;#P hidden connect 17 0 8 0;#P hidden connect 17 0 18 0;#P hidden connect 42 0 32 0;#P connect 32 0 31 0;#P hidden connect 17 0 42 0;#P connect 24 2 39 0;#P connect 39 0 27 0;#P fasten 24 1 22 0 498 163;#P connect 59 0 22 0;#P connect 27 0 22 0;#P connect 50 0 22 0;#P connect 22 0 55 0;#P connect 23 0 24 0;#P connect 39 1 37 0;#P connect 37 0 27 1;#P connect 26 0 23 0;#P connect 43 0 24 1;#P connect 38 0 27 2;#P connect 43 0 23 1;#P connect 23 2 38 0;#P hidden connect 42 0 34 0;#P connect 34 0 33 0;#P connect 56 0 55 1;#P connect 25 0 27 4;#P connect 24 2 25 0;#P connect 47 0 43 0;#P connect 43 0 50 0;#P connect 23 2 25 1;#P connect 55 0 28 0;#P connect 63 0 62 0;#P connect 46 0 25 2;#P connect 47 0 46 0;#P connect 57 0 60 0;#P connect 58 0 57 0;#P connect 44 0 25 3;#P connect 47 0 44 0;#P connect 57 1 61 0;#P connect 47 0 45 0;#P connect 45 0 25 4;#P pop;