max v2;#N vpatcher 0 44 681 861;#P outlet 621 750 15 0;#P user function 363 542 516 627 1 1 1 0;#X frgb 82 82 82;#X brgb 204 204 204;#X rgb2 85 85 85;#X rgb3 255 255 255;#X rgb4 0 0 0;#X rgb5 0 0 0;#X add 0. 0. 0;#X add 1. 1. 0;#X domain 1.;#X range 0. 1.;#X done;#P window setfont "Sans Serif" 9.;#P window linecount 1;#P newex 342 175 35 196617 gate 2;#P newex 611 109 27 196617 + 1;#P newex 368 220 27 196617 t i 4;#P newex 569 110 27 196617 + 1;#P message 474 49 138 196617 deferlow-output 0 \, bypass 0;#P newex 228 719 49 196617 deferlow;#P newex 206 691 35 196617 gate 2;#P newex 365 21 45 196617 loadbang;#P newex 365 48 63 196617 patcherargs;#P flonum 422 209 47 9 0 0 0 3 0 0 0 221 221 221 222 222 222 0 0 0;#P flonum 447 138 35 9 0 0 0 3 0 0 0 221 221 221 222 222 222 0 0 0;#P flonum 456 438 35 9 0 0 0 3 0 0 0 221 221 221 222 222 222 0 0 0;#P flonum 494 438 62 9 0 0 0 3 0 0 0 221 221 221 222 222 222 0 0 0;#P outlet 184 749 15 0;#P newex 394 177 27 196617 * 1.;#P newex 376 407 20 196617 t b;#B color 5;#P message 376 479 109 196617 getframecount \, getfps;#P newex 376 385 125 196617 route read fps framecount;#B color 5;#P inlet 330 55 15 0;#P newex 330 78 322 196617 route go rate loc frame jit.qt.movie jit.xfade deferlow-output bypass;#P newex 269 544 30 196617 % 1.;#P flonum 313 538 35 9 0 0 0 3 0 0 0 221 221 221 222 222 222 0 0 0;#P newex 167 129 52 196617 jit.qfaker;#P message 404 244 29 196617 read;#P flonum 150 98 35 9 0 0 0 3 0 0 0 221 221 221 222 222 222 0 0 0;#P newex 261 618 72 196617 prepend xfade;#P newex 244 257 40 196617 change;#P newex 190 653 48 196617 jit.xfade;#P newex 190 549 53 196617 gate 4;#P message 203 313 78 196617 frame \$1 \, bang;#P newex 206 206 27 196617 + 1.;#P newex 167 154 79 196617 t i 1 i 2 f 3;#P newex 203 354 183 196617 jit.qt.movie 320 240 @vol 0. @rate 0.;#P window linecount 2;#P comment 379 513 108 196617 this is the crossfade curve between frames;#P connect 9 0 11 0;#P fasten 14 3 11 0 431 146 365 158 236 105;#P fasten 33 0 11 0 236 113;#P connect 11 0 2 0;#P connect 27 0 20 0;#P connect 28 0 20 0;#P fasten 2 1 5 0 118 296 83 356 112 406 91 462 152 494 133 544 168 555 195 524;#P fasten 2 3 5 0 102 278 90 310 112 369 89 428 147 470 114 526 162 536 195 536;#P fasten 2 5 5 0 85 274 110 324 81 389 125 428 115 483 127 507 145 538 162 529;#P fasten 31 1 5 0 303 497;#P connect 8 0 6 0;#P connect 5 0 6 0;#P fasten 14 5 6 0 585 146 585 591 322 692 258 642;#P connect 2 0 4 0;#P connect 7 0 4 0;#P connect 31 0 4 0;#P fasten 17 0 1 0 153 408;#P connect 4 0 1 0;#P connect 10 0 1 0;#P fasten 14 4 1 0 559 158 559 292;#P connect 2 2 3 0;#P fasten 30 0 27 0 601 138 601 605 322 717 263 666;#P connect 5 1 6 1;#P connect 27 1 28 0;#P connect 6 0 27 1;#P fasten 5 3 27 1 251 677;#P connect 1 0 5 1;#P fasten 2 4 5 1 360 241;#P connect 3 0 7 0;#P fasten 34 0 8 0 343 595;#P connect 5 2 13 0;#P fasten 13 0 12 0 318 553;#P fasten 25 1 14 0 423 71 335 71;#P connect 15 0 14 0;#P fasten 29 0 14 0 479 71 335 71;#P fasten 32 0 33 0 616 289 369 204;#P fasten 13 0 34 0 318 588;#P connect 26 0 25 0;#P connect 19 0 33 1;#P connect 19 0 31 0;#P connect 33 1 31 0;#P connect 1 1 16 0;#P connect 16 0 18 0;#P connect 18 0 17 0;#P connect 14 2 19 0;#P fasten 16 2 19 1 505 426 546 390 546 243;#P connect 19 0 24 0;#P connect 14 2 23 0;#P connect 16 1 22 0;#P fasten 26 0 29 0 370 42 479 42;#P connect 16 2 21 0;#P connect 14 6 30 0;#P connect 14 7 32 0;#P fasten 1 1 35 0 381 378 626 378;#P pop;