max v2;#N vpatcher 20 74 1068 806;#P window setfont "Sans Serif" 9.;#P window linecount 1;#P newex 29 57 53 196617 autopattr;#X prestore parameters[2] 14 0 0. 0. 0. 0. 0. 0. 0. 0. 0. 0. 0. 0. 0. 0.;#P objectname u375000014;#P user multiSlider 433 642 49 23 0. 1. 14 2681 15 0 0 2 0 0 0;#M frgb 0 0 0;#M brgb 255 255 255;#M rgb2 127 127 127;#M rgb3 0 0 0;#M rgb4 37 52 91;#M rgb5 74 105 182;#M rgb6 112 158 18;#M rgb7 149 211 110;#M rgb8 187 9 201;#M rgb9 224 62 37;#M rgb10 7 114 128;#P objectname parameters[2];#P message 433 586 31 196617 print;#P newex 433 607 109 196617 js ali.weight-interp.js;#P bpatcher 555 535 206 58 0 0 ali.pattrstorage-helper.pat 0 parameters;#P newex 555 607 122 196617 pattrstorage parameters;#X client_rect 10 59 650 299;#X storage_rect 0 0 640 240;#P objectname parameters;#N vpatcher 40 104 640 504;#P window setfont "Sans Serif" 9.;#P newex 50 75 82 196617 t getpattrdata 1;#P newex 50 50 57 196617 route read;#P toggle 122 99 15 0;#P message 122 118 55 196617 topattr \$1;#P inlet 50 30 15 0;#P outlet 50 172 15 0;#P connect 1 0 4 0;#P connect 4 0 5 0;#P connect 5 0 0 0;#P connect 2 0 0 0;#P connect 5 1 3 0;#P connect 3 0 2 0;#P pop;#P newobj 555 643 42 196617 p setup;#P bpatcher 699 77 229 403 -11 -45 ali.gauss-kern-wrap.pat 0 ali.gauss-kern.xml;#P objectname ali.gauss-kern-wrap.pat;#P outlet 112 617 15 0;#P inlet 112 227 15 0;#P newex 112 571 79 196617 biquad~;#P newex 112 498 79 196617 biquad~;#P newex 112 429 79 196617 biquad~;#P newex 112 351 79 196617 biquad~;#P newex 112 293 79 196617 biquad~;#P newex 203 217 340 196617 unpack 1. 1. 1. 1. 1. 1. 1. 1. 1. 1. 1. 1. 1. 1. 1. 1. 1. 1. 1. 1. 1. 1. 1. 1. 1.;#P window setfont Helvetica 9.;#P user filtergraph~ 203 93 447 108 21 9 20. 20000. 0.0625 16. 0 1 1 0 0 1 1;#X frgb 170 170 170;#X brgb 209 209 209;#X rgb2 0 0 0;#X rgb3 130 130 130;#X rgb4 0 0 0;#X rgb5 76 108 172;#X rgb6 210 74 54;#X rgb7 255 22 22;#X linmarkers 5512.5 11025. 16537.5;#X logmarkers 10. 100. 1000. 10000.;#X nfilters 5;#X setfilter 4 1 1 0 0 20000.027344 0.957642 0.736791 0. 0. 0. 0. 0. 0.;#X setfilter 3 5 1 0 0 4093.667725 1.961954 0.917209 0. 0. 0. 0. 0. 0.;#X setfilter 2 5 1 0 0 588.54895 1.237313 0.864507 0. 0. 0. 0. 0. 0.;#X setfilter 1 5 1 0 0 92.742577 10.094689 1.060275 0. 0. 0. 0. 0. 0.;#X setfilter 0 2 1 0 0 11.05 1.008003 0.650399 0. 0. 0. 0. 0. 0.;#X done;#P objectname filtergraph;#P connect 7 0 2 0;#P connect 2 0 3 0;#P connect 3 0 4 0;#P connect 4 0 5 0;#P connect 5 0 6 0;#P connect 6 0 8 0;#P connect 1 0 2 1;#P connect 1 5 3 1;#P connect 1 10 4 1;#P connect 1 15 5 1;#P connect 1 20 6 1;#P connect 1 1 2 2;#P connect 1 6 3 2;#P connect 1 11 4 2;#P connect 1 16 5 2;#P connect 1 21 6 2;#P connect 1 2 2 3;#P connect 1 7 3 3;#P connect 1 12 4 3;#P connect 1 17 5 3;#P connect 1 22 6 3;#P connect 1 3 2 4;#P connect 1 8 3 4;#P connect 1 13 4 4;#P connect 1 18 5 4;#P connect 1 23 6 4;#P connect 1 4 2 5;#P connect 1 9 3 5;#P connect 1 14 4 5;#P connect 1 19 5 5;#P connect 1 24 6 5;#P connect 0 0 1 0;#P connect 14 0 13 0;#P connect 10 0 13 0;#P connect 13 0 15 0;#P connect 11 0 13 2;#P connect 13 2 11 0;#P connect 12 0 11 0;#P connect 11 0 10 0;#P fasten 11 0 12 1 560 638 774 638 774 527 756 527;#P pop;