{
	"patcher" : 	{
		"fileversion" : 1,
		"rect" : [ 489.0, 76.0, 747.0, 553.0 ],
		"bglocked" : 0,
		"defrect" : [ 489.0, 76.0, 747.0, 553.0 ],
		"openrect" : [ 0.0, 0.0, 0.0, 0.0 ],
		"openinpresentation" : 1,
		"default_fontsize" : 12.0,
		"default_fontface" : 0,
		"default_fontname" : "Arial",
		"gridonopen" : 0,
		"gridsize" : [ 15.0, 15.0 ],
		"gridsnaponopen" : 0,
		"toolbarvisible" : 1,
		"boxanimatetime" : 200,
		"imprint" : 0,
		"enablehscroll" : 1,
		"enablevscroll" : 1,
		"devicewidth" : 0.0,
		"boxes" : [ 			{
				"box" : 				{
					"maxclass" : "toggle",
					"numoutlets" : 1,
					"patching_rect" : [ 60.457008, 286.441345, 16.0, 16.0 ],
					"presentation" : 1,
					"id" : "obj-40",
					"outlettype" : [ "int" ],
					"presentation_rect" : [ 3.936764, 286.392303, 16.0, 16.0 ],
					"numinlets" : 1
				}

			}
, 			{
				"box" : 				{
					"maxclass" : "newobj",
					"text" : "p test",
					"numoutlets" : 1,
					"patching_rect" : [ 77.873528, 286.122284, 33.0, 17.0 ],
					"id" : "obj-41",
					"fontname" : "Arial",
					"outlettype" : [ "float" ],
					"fontsize" : 9.0,
					"numinlets" : 1,
					"patcher" : 					{
						"fileversion" : 1,
						"rect" : [ 25.0, 69.0, 640.0, 480.0 ],
						"bglocked" : 0,
						"defrect" : [ 25.0, 69.0, 640.0, 480.0 ],
						"openrect" : [ 0.0, 0.0, 0.0, 0.0 ],
						"openinpresentation" : 0,
						"default_fontsize" : 12.0,
						"default_fontface" : 0,
						"default_fontname" : "Arial",
						"gridonopen" : 0,
						"gridsize" : [ 15.0, 15.0 ],
						"gridsnaponopen" : 0,
						"toolbarvisible" : 1,
						"boxanimatetime" : 200,
						"imprint" : 0,
						"enablehscroll" : 1,
						"enablevscroll" : 1,
						"devicewidth" : 0.0,
						"boxes" : [ 							{
								"box" : 								{
									"maxclass" : "newobj",
									"text" : "/ 127.",
									"numoutlets" : 1,
									"patching_rect" : [ 156.0, 263.0, 41.0, 20.0 ],
									"id" : "obj-2",
									"fontname" : "Arial",
									"outlettype" : [ "float" ],
									"fontsize" : 12.0,
									"numinlets" : 2
								}

							}
, 							{
								"box" : 								{
									"maxclass" : "newobj",
									"text" : "metro 100",
									"numoutlets" : 1,
									"patching_rect" : [ 133.0, 164.0, 65.0, 20.0 ],
									"id" : "obj-6",
									"fontname" : "Arial",
									"outlettype" : [ "bang" ],
									"fontsize" : 12.0,
									"numinlets" : 2
								}

							}
, 							{
								"box" : 								{
									"maxclass" : "outlet",
									"numoutlets" : 0,
									"patching_rect" : [ 210.0, 390.0, 25.0, 25.0 ],
									"id" : "obj-5",
									"numinlets" : 1,
									"comment" : ""
								}

							}
, 							{
								"box" : 								{
									"maxclass" : "newobj",
									"text" : "random 127",
									"numoutlets" : 1,
									"patching_rect" : [ 139.0, 198.0, 75.0, 20.0 ],
									"id" : "obj-4",
									"fontname" : "Arial",
									"outlettype" : [ "int" ],
									"fontsize" : 12.0,
									"numinlets" : 2
								}

							}
, 							{
								"box" : 								{
									"maxclass" : "inlet",
									"numoutlets" : 1,
									"patching_rect" : [ 127.0, 83.0, 25.0, 25.0 ],
									"id" : "obj-1",
									"outlettype" : [ "int" ],
									"numinlets" : 0,
									"comment" : ""
								}

							}
 ],
						"lines" : [ 							{
								"patchline" : 								{
									"source" : [ "obj-1", 0 ],
									"destination" : [ "obj-6", 0 ],
									"hidden" : 0,
									"midpoints" : [  ]
								}

							}
, 							{
								"patchline" : 								{
									"source" : [ "obj-6", 0 ],
									"destination" : [ "obj-4", 0 ],
									"hidden" : 0,
									"midpoints" : [  ]
								}

							}
, 							{
								"patchline" : 								{
									"source" : [ "obj-4", 0 ],
									"destination" : [ "obj-2", 0 ],
									"hidden" : 0,
									"midpoints" : [  ]
								}

							}
, 							{
								"patchline" : 								{
									"source" : [ "obj-2", 0 ],
									"destination" : [ "obj-5", 0 ],
									"hidden" : 0,
									"midpoints" : [  ]
								}

							}
 ]
					}
,
					"saved_object_attributes" : 					{
						"default_fontname" : "Arial",
						"fontname" : "Arial",
						"default_fontsize" : 12.0,
						"globalpatchername" : "",
						"fontface" : 0,
						"fontsize" : 12.0,
						"default_fontface" : 0
					}

				}

			}
, 			{
				"box" : 				{
					"maxclass" : "toggle",
					"numoutlets" : 1,
					"patching_rect" : [ 60.457008, 270.441345, 16.0, 16.0 ],
					"presentation" : 1,
					"id" : "obj-38",
					"outlettype" : [ "int" ],
					"presentation_rect" : [ 3.936764, 270.392303, 16.0, 16.0 ],
					"numinlets" : 1
				}

			}
, 			{
				"box" : 				{
					"maxclass" : "newobj",
					"text" : "p test",
					"numoutlets" : 1,
					"patching_rect" : [ 77.873528, 270.122284, 33.0, 17.0 ],
					"id" : "obj-39",
					"fontname" : "Arial",
					"outlettype" : [ "float" ],
					"fontsize" : 9.0,
					"numinlets" : 1,
					"patcher" : 					{
						"fileversion" : 1,
						"rect" : [ 25.0, 69.0, 640.0, 480.0 ],
						"bglocked" : 0,
						"defrect" : [ 25.0, 69.0, 640.0, 480.0 ],
						"openrect" : [ 0.0, 0.0, 0.0, 0.0 ],
						"openinpresentation" : 0,
						"default_fontsize" : 12.0,
						"default_fontface" : 0,
						"default_fontname" : "Arial",
						"gridonopen" : 0,
						"gridsize" : [ 15.0, 15.0 ],
						"gridsnaponopen" : 0,
						"toolbarvisible" : 1,
						"boxanimatetime" : 200,
						"imprint" : 0,
						"enablehscroll" : 1,
						"enablevscroll" : 1,
						"devicewidth" : 0.0,
						"boxes" : [ 							{
								"box" : 								{
									"maxclass" : "newobj",
									"text" : "/ 127.",
									"numoutlets" : 1,
									"patching_rect" : [ 156.0, 263.0, 41.0, 20.0 ],
									"id" : "obj-2",
									"fontname" : "Arial",
									"outlettype" : [ "float" ],
									"fontsize" : 12.0,
									"numinlets" : 2
								}

							}
, 							{
								"box" : 								{
									"maxclass" : "newobj",
									"text" : "metro 100",
									"numoutlets" : 1,
									"patching_rect" : [ 133.0, 164.0, 65.0, 20.0 ],
									"id" : "obj-6",
									"fontname" : "Arial",
									"outlettype" : [ "bang" ],
									"fontsize" : 12.0,
									"numinlets" : 2
								}

							}
, 							{
								"box" : 								{
									"maxclass" : "outlet",
									"numoutlets" : 0,
									"patching_rect" : [ 210.0, 390.0, 25.0, 25.0 ],
									"id" : "obj-5",
									"numinlets" : 1,
									"comment" : ""
								}

							}
, 							{
								"box" : 								{
									"maxclass" : "newobj",
									"text" : "random 127",
									"numoutlets" : 1,
									"patching_rect" : [ 139.0, 198.0, 75.0, 20.0 ],
									"id" : "obj-4",
									"fontname" : "Arial",
									"outlettype" : [ "int" ],
									"fontsize" : 12.0,
									"numinlets" : 2
								}

							}
, 							{
								"box" : 								{
									"maxclass" : "inlet",
									"numoutlets" : 1,
									"patching_rect" : [ 127.0, 83.0, 25.0, 25.0 ],
									"id" : "obj-1",
									"outlettype" : [ "int" ],
									"numinlets" : 0,
									"comment" : ""
								}

							}
 ],
						"lines" : [ 							{
								"patchline" : 								{
									"source" : [ "obj-1", 0 ],
									"destination" : [ "obj-6", 0 ],
									"hidden" : 0,
									"midpoints" : [  ]
								}

							}
, 							{
								"patchline" : 								{
									"source" : [ "obj-6", 0 ],
									"destination" : [ "obj-4", 0 ],
									"hidden" : 0,
									"midpoints" : [  ]
								}

							}
, 							{
								"patchline" : 								{
									"source" : [ "obj-4", 0 ],
									"destination" : [ "obj-2", 0 ],
									"hidden" : 0,
									"midpoints" : [  ]
								}

							}
, 							{
								"patchline" : 								{
									"source" : [ "obj-2", 0 ],
									"destination" : [ "obj-5", 0 ],
									"hidden" : 0,
									"midpoints" : [  ]
								}

							}
 ]
					}
,
					"saved_object_attributes" : 					{
						"default_fontname" : "Arial",
						"fontname" : "Arial",
						"default_fontsize" : 12.0,
						"globalpatchername" : "",
						"fontface" : 0,
						"fontsize" : 12.0,
						"default_fontface" : 0
					}

				}

			}
, 			{
				"box" : 				{
					"maxclass" : "toggle",
					"numoutlets" : 1,
					"patching_rect" : [ 60.457008, 254.44136, 16.0, 16.0 ],
					"presentation" : 1,
					"id" : "obj-36",
					"outlettype" : [ "int" ],
					"presentation_rect" : [ 3.936764, 254.392319, 16.0, 16.0 ],
					"numinlets" : 1
				}

			}
, 			{
				"box" : 				{
					"maxclass" : "newobj",
					"text" : "p test",
					"numoutlets" : 1,
					"patching_rect" : [ 77.873528, 254.122284, 33.0, 17.0 ],
					"id" : "obj-37",
					"fontname" : "Arial",
					"outlettype" : [ "float" ],
					"fontsize" : 9.0,
					"numinlets" : 1,
					"patcher" : 					{
						"fileversion" : 1,
						"rect" : [ 25.0, 69.0, 640.0, 480.0 ],
						"bglocked" : 0,
						"defrect" : [ 25.0, 69.0, 640.0, 480.0 ],
						"openrect" : [ 0.0, 0.0, 0.0, 0.0 ],
						"openinpresentation" : 0,
						"default_fontsize" : 12.0,
						"default_fontface" : 0,
						"default_fontname" : "Arial",
						"gridonopen" : 0,
						"gridsize" : [ 15.0, 15.0 ],
						"gridsnaponopen" : 0,
						"toolbarvisible" : 1,
						"boxanimatetime" : 200,
						"imprint" : 0,
						"enablehscroll" : 1,
						"enablevscroll" : 1,
						"devicewidth" : 0.0,
						"boxes" : [ 							{
								"box" : 								{
									"maxclass" : "newobj",
									"text" : "/ 127.",
									"numoutlets" : 1,
									"patching_rect" : [ 156.0, 263.0, 41.0, 20.0 ],
									"id" : "obj-2",
									"fontname" : "Arial",
									"outlettype" : [ "float" ],
									"fontsize" : 12.0,
									"numinlets" : 2
								}

							}
, 							{
								"box" : 								{
									"maxclass" : "newobj",
									"text" : "metro 100",
									"numoutlets" : 1,
									"patching_rect" : [ 133.0, 164.0, 65.0, 20.0 ],
									"id" : "obj-6",
									"fontname" : "Arial",
									"outlettype" : [ "bang" ],
									"fontsize" : 12.0,
									"numinlets" : 2
								}

							}
, 							{
								"box" : 								{
									"maxclass" : "outlet",
									"numoutlets" : 0,
									"patching_rect" : [ 210.0, 390.0, 25.0, 25.0 ],
									"id" : "obj-5",
									"numinlets" : 1,
									"comment" : ""
								}

							}
, 							{
								"box" : 								{
									"maxclass" : "newobj",
									"text" : "random 127",
									"numoutlets" : 1,
									"patching_rect" : [ 139.0, 198.0, 75.0, 20.0 ],
									"id" : "obj-4",
									"fontname" : "Arial",
									"outlettype" : [ "int" ],
									"fontsize" : 12.0,
									"numinlets" : 2
								}

							}
, 							{
								"box" : 								{
									"maxclass" : "inlet",
									"numoutlets" : 1,
									"patching_rect" : [ 127.0, 83.0, 25.0, 25.0 ],
									"id" : "obj-1",
									"outlettype" : [ "int" ],
									"numinlets" : 0,
									"comment" : ""
								}

							}
 ],
						"lines" : [ 							{
								"patchline" : 								{
									"source" : [ "obj-1", 0 ],
									"destination" : [ "obj-6", 0 ],
									"hidden" : 0,
									"midpoints" : [  ]
								}

							}
, 							{
								"patchline" : 								{
									"source" : [ "obj-6", 0 ],
									"destination" : [ "obj-4", 0 ],
									"hidden" : 0,
									"midpoints" : [  ]
								}

							}
, 							{
								"patchline" : 								{
									"source" : [ "obj-4", 0 ],
									"destination" : [ "obj-2", 0 ],
									"hidden" : 0,
									"midpoints" : [  ]
								}

							}
, 							{
								"patchline" : 								{
									"source" : [ "obj-2", 0 ],
									"destination" : [ "obj-5", 0 ],
									"hidden" : 0,
									"midpoints" : [  ]
								}

							}
 ]
					}
,
					"saved_object_attributes" : 					{
						"default_fontname" : "Arial",
						"fontname" : "Arial",
						"default_fontsize" : 12.0,
						"globalpatchername" : "",
						"fontface" : 0,
						"fontsize" : 12.0,
						"default_fontface" : 0
					}

				}

			}
, 			{
				"box" : 				{
					"maxclass" : "toggle",
					"numoutlets" : 1,
					"patching_rect" : [ 60.457008, 238.44136, 16.0, 16.0 ],
					"presentation" : 1,
					"id" : "obj-34",
					"outlettype" : [ "int" ],
					"presentation_rect" : [ 3.936764, 238.392319, 16.0, 16.0 ],
					"numinlets" : 1
				}

			}
, 			{
				"box" : 				{
					"maxclass" : "newobj",
					"text" : "p test",
					"numoutlets" : 1,
					"patching_rect" : [ 77.873528, 238.122284, 33.0, 17.0 ],
					"id" : "obj-35",
					"fontname" : "Arial",
					"outlettype" : [ "float" ],
					"fontsize" : 9.0,
					"numinlets" : 1,
					"patcher" : 					{
						"fileversion" : 1,
						"rect" : [ 25.0, 69.0, 640.0, 480.0 ],
						"bglocked" : 0,
						"defrect" : [ 25.0, 69.0, 640.0, 480.0 ],
						"openrect" : [ 0.0, 0.0, 0.0, 0.0 ],
						"openinpresentation" : 0,
						"default_fontsize" : 12.0,
						"default_fontface" : 0,
						"default_fontname" : "Arial",
						"gridonopen" : 0,
						"gridsize" : [ 15.0, 15.0 ],
						"gridsnaponopen" : 0,
						"toolbarvisible" : 1,
						"boxanimatetime" : 200,
						"imprint" : 0,
						"enablehscroll" : 1,
						"enablevscroll" : 1,
						"devicewidth" : 0.0,
						"boxes" : [ 							{
								"box" : 								{
									"maxclass" : "newobj",
									"text" : "/ 127.",
									"numoutlets" : 1,
									"patching_rect" : [ 156.0, 263.0, 41.0, 20.0 ],
									"id" : "obj-2",
									"fontname" : "Arial",
									"outlettype" : [ "float" ],
									"fontsize" : 12.0,
									"numinlets" : 2
								}

							}
, 							{
								"box" : 								{
									"maxclass" : "newobj",
									"text" : "metro 100",
									"numoutlets" : 1,
									"patching_rect" : [ 133.0, 164.0, 65.0, 20.0 ],
									"id" : "obj-6",
									"fontname" : "Arial",
									"outlettype" : [ "bang" ],
									"fontsize" : 12.0,
									"numinlets" : 2
								}

							}
, 							{
								"box" : 								{
									"maxclass" : "outlet",
									"numoutlets" : 0,
									"patching_rect" : [ 210.0, 390.0, 25.0, 25.0 ],
									"id" : "obj-5",
									"numinlets" : 1,
									"comment" : ""
								}

							}
, 							{
								"box" : 								{
									"maxclass" : "newobj",
									"text" : "random 127",
									"numoutlets" : 1,
									"patching_rect" : [ 139.0, 198.0, 75.0, 20.0 ],
									"id" : "obj-4",
									"fontname" : "Arial",
									"outlettype" : [ "int" ],
									"fontsize" : 12.0,
									"numinlets" : 2
								}

							}
, 							{
								"box" : 								{
									"maxclass" : "inlet",
									"numoutlets" : 1,
									"patching_rect" : [ 127.0, 83.0, 25.0, 25.0 ],
									"id" : "obj-1",
									"outlettype" : [ "int" ],
									"numinlets" : 0,
									"comment" : ""
								}

							}
 ],
						"lines" : [ 							{
								"patchline" : 								{
									"source" : [ "obj-1", 0 ],
									"destination" : [ "obj-6", 0 ],
									"hidden" : 0,
									"midpoints" : [  ]
								}

							}
, 							{
								"patchline" : 								{
									"source" : [ "obj-6", 0 ],
									"destination" : [ "obj-4", 0 ],
									"hidden" : 0,
									"midpoints" : [  ]
								}

							}
, 							{
								"patchline" : 								{
									"source" : [ "obj-4", 0 ],
									"destination" : [ "obj-2", 0 ],
									"hidden" : 0,
									"midpoints" : [  ]
								}

							}
, 							{
								"patchline" : 								{
									"source" : [ "obj-2", 0 ],
									"destination" : [ "obj-5", 0 ],
									"hidden" : 0,
									"midpoints" : [  ]
								}

							}
 ]
					}
,
					"saved_object_attributes" : 					{
						"default_fontname" : "Arial",
						"fontname" : "Arial",
						"default_fontsize" : 12.0,
						"globalpatchername" : "",
						"fontface" : 0,
						"fontsize" : 12.0,
						"default_fontface" : 0
					}

				}

			}
, 			{
				"box" : 				{
					"maxclass" : "toggle",
					"numoutlets" : 1,
					"patching_rect" : [ 60.457008, 222.44136, 16.0, 16.0 ],
					"presentation" : 1,
					"id" : "obj-32",
					"outlettype" : [ "int" ],
					"presentation_rect" : [ 3.936764, 222.392319, 16.0, 16.0 ],
					"numinlets" : 1
				}

			}
, 			{
				"box" : 				{
					"maxclass" : "newobj",
					"text" : "p test",
					"numoutlets" : 1,
					"patching_rect" : [ 77.873528, 222.122284, 33.0, 17.0 ],
					"id" : "obj-33",
					"fontname" : "Arial",
					"outlettype" : [ "float" ],
					"fontsize" : 9.0,
					"numinlets" : 1,
					"patcher" : 					{
						"fileversion" : 1,
						"rect" : [ 25.0, 69.0, 640.0, 480.0 ],
						"bglocked" : 0,
						"defrect" : [ 25.0, 69.0, 640.0, 480.0 ],
						"openrect" : [ 0.0, 0.0, 0.0, 0.0 ],
						"openinpresentation" : 0,
						"default_fontsize" : 12.0,
						"default_fontface" : 0,
						"default_fontname" : "Arial",
						"gridonopen" : 0,
						"gridsize" : [ 15.0, 15.0 ],
						"gridsnaponopen" : 0,
						"toolbarvisible" : 1,
						"boxanimatetime" : 200,
						"imprint" : 0,
						"enablehscroll" : 1,
						"enablevscroll" : 1,
						"devicewidth" : 0.0,
						"boxes" : [ 							{
								"box" : 								{
									"maxclass" : "newobj",
									"text" : "/ 127.",
									"numoutlets" : 1,
									"patching_rect" : [ 156.0, 263.0, 41.0, 20.0 ],
									"id" : "obj-2",
									"fontname" : "Arial",
									"outlettype" : [ "float" ],
									"fontsize" : 12.0,
									"numinlets" : 2
								}

							}
, 							{
								"box" : 								{
									"maxclass" : "newobj",
									"text" : "metro 100",
									"numoutlets" : 1,
									"patching_rect" : [ 133.0, 164.0, 65.0, 20.0 ],
									"id" : "obj-6",
									"fontname" : "Arial",
									"outlettype" : [ "bang" ],
									"fontsize" : 12.0,
									"numinlets" : 2
								}

							}
, 							{
								"box" : 								{
									"maxclass" : "outlet",
									"numoutlets" : 0,
									"patching_rect" : [ 210.0, 390.0, 25.0, 25.0 ],
									"id" : "obj-5",
									"numinlets" : 1,
									"comment" : ""
								}

							}
, 							{
								"box" : 								{
									"maxclass" : "newobj",
									"text" : "random 127",
									"numoutlets" : 1,
									"patching_rect" : [ 139.0, 198.0, 75.0, 20.0 ],
									"id" : "obj-4",
									"fontname" : "Arial",
									"outlettype" : [ "int" ],
									"fontsize" : 12.0,
									"numinlets" : 2
								}

							}
, 							{
								"box" : 								{
									"maxclass" : "inlet",
									"numoutlets" : 1,
									"patching_rect" : [ 127.0, 83.0, 25.0, 25.0 ],
									"id" : "obj-1",
									"outlettype" : [ "int" ],
									"numinlets" : 0,
									"comment" : ""
								}

							}
 ],
						"lines" : [ 							{
								"patchline" : 								{
									"source" : [ "obj-1", 0 ],
									"destination" : [ "obj-6", 0 ],
									"hidden" : 0,
									"midpoints" : [  ]
								}

							}
, 							{
								"patchline" : 								{
									"source" : [ "obj-6", 0 ],
									"destination" : [ "obj-4", 0 ],
									"hidden" : 0,
									"midpoints" : [  ]
								}

							}
, 							{
								"patchline" : 								{
									"source" : [ "obj-4", 0 ],
									"destination" : [ "obj-2", 0 ],
									"hidden" : 0,
									"midpoints" : [  ]
								}

							}
, 							{
								"patchline" : 								{
									"source" : [ "obj-2", 0 ],
									"destination" : [ "obj-5", 0 ],
									"hidden" : 0,
									"midpoints" : [  ]
								}

							}
 ]
					}
,
					"saved_object_attributes" : 					{
						"default_fontname" : "Arial",
						"fontname" : "Arial",
						"default_fontsize" : 12.0,
						"globalpatchername" : "",
						"fontface" : 0,
						"fontsize" : 12.0,
						"default_fontface" : 0
					}

				}

			}
, 			{
				"box" : 				{
					"maxclass" : "toggle",
					"numoutlets" : 1,
					"patching_rect" : [ 60.457008, 206.44136, 16.0, 16.0 ],
					"presentation" : 1,
					"id" : "obj-30",
					"outlettype" : [ "int" ],
					"presentation_rect" : [ 3.936764, 206.392319, 16.0, 16.0 ],
					"numinlets" : 1
				}

			}
, 			{
				"box" : 				{
					"maxclass" : "newobj",
					"text" : "p test",
					"numoutlets" : 1,
					"patching_rect" : [ 77.873528, 206.122284, 33.0, 17.0 ],
					"id" : "obj-31",
					"fontname" : "Arial",
					"outlettype" : [ "float" ],
					"fontsize" : 9.0,
					"numinlets" : 1,
					"patcher" : 					{
						"fileversion" : 1,
						"rect" : [ 25.0, 69.0, 640.0, 480.0 ],
						"bglocked" : 0,
						"defrect" : [ 25.0, 69.0, 640.0, 480.0 ],
						"openrect" : [ 0.0, 0.0, 0.0, 0.0 ],
						"openinpresentation" : 0,
						"default_fontsize" : 12.0,
						"default_fontface" : 0,
						"default_fontname" : "Arial",
						"gridonopen" : 0,
						"gridsize" : [ 15.0, 15.0 ],
						"gridsnaponopen" : 0,
						"toolbarvisible" : 1,
						"boxanimatetime" : 200,
						"imprint" : 0,
						"enablehscroll" : 1,
						"enablevscroll" : 1,
						"devicewidth" : 0.0,
						"boxes" : [ 							{
								"box" : 								{
									"maxclass" : "newobj",
									"text" : "/ 127.",
									"numoutlets" : 1,
									"patching_rect" : [ 156.0, 263.0, 41.0, 20.0 ],
									"id" : "obj-2",
									"fontname" : "Arial",
									"outlettype" : [ "float" ],
									"fontsize" : 12.0,
									"numinlets" : 2
								}

							}
, 							{
								"box" : 								{
									"maxclass" : "newobj",
									"text" : "metro 100",
									"numoutlets" : 1,
									"patching_rect" : [ 133.0, 164.0, 65.0, 20.0 ],
									"id" : "obj-6",
									"fontname" : "Arial",
									"outlettype" : [ "bang" ],
									"fontsize" : 12.0,
									"numinlets" : 2
								}

							}
, 							{
								"box" : 								{
									"maxclass" : "outlet",
									"numoutlets" : 0,
									"patching_rect" : [ 210.0, 390.0, 25.0, 25.0 ],
									"id" : "obj-5",
									"numinlets" : 1,
									"comment" : ""
								}

							}
, 							{
								"box" : 								{
									"maxclass" : "newobj",
									"text" : "random 127",
									"numoutlets" : 1,
									"patching_rect" : [ 139.0, 198.0, 75.0, 20.0 ],
									"id" : "obj-4",
									"fontname" : "Arial",
									"outlettype" : [ "int" ],
									"fontsize" : 12.0,
									"numinlets" : 2
								}

							}
, 							{
								"box" : 								{
									"maxclass" : "inlet",
									"numoutlets" : 1,
									"patching_rect" : [ 127.0, 83.0, 25.0, 25.0 ],
									"id" : "obj-1",
									"outlettype" : [ "int" ],
									"numinlets" : 0,
									"comment" : ""
								}

							}
 ],
						"lines" : [ 							{
								"patchline" : 								{
									"source" : [ "obj-1", 0 ],
									"destination" : [ "obj-6", 0 ],
									"hidden" : 0,
									"midpoints" : [  ]
								}

							}
, 							{
								"patchline" : 								{
									"source" : [ "obj-6", 0 ],
									"destination" : [ "obj-4", 0 ],
									"hidden" : 0,
									"midpoints" : [  ]
								}

							}
, 							{
								"patchline" : 								{
									"source" : [ "obj-4", 0 ],
									"destination" : [ "obj-2", 0 ],
									"hidden" : 0,
									"midpoints" : [  ]
								}

							}
, 							{
								"patchline" : 								{
									"source" : [ "obj-2", 0 ],
									"destination" : [ "obj-5", 0 ],
									"hidden" : 0,
									"midpoints" : [  ]
								}

							}
 ]
					}
,
					"saved_object_attributes" : 					{
						"default_fontname" : "Arial",
						"fontname" : "Arial",
						"default_fontsize" : 12.0,
						"globalpatchername" : "",
						"fontface" : 0,
						"fontsize" : 12.0,
						"default_fontface" : 0
					}

				}

			}
, 			{
				"box" : 				{
					"maxclass" : "toggle",
					"numoutlets" : 1,
					"patching_rect" : [ 60.457008, 190.44136, 16.0, 16.0 ],
					"presentation" : 1,
					"id" : "obj-28",
					"outlettype" : [ "int" ],
					"presentation_rect" : [ 3.936764, 190.392319, 16.0, 16.0 ],
					"numinlets" : 1
				}

			}
, 			{
				"box" : 				{
					"maxclass" : "newobj",
					"text" : "p test",
					"numoutlets" : 1,
					"patching_rect" : [ 77.873528, 190.122284, 33.0, 17.0 ],
					"id" : "obj-29",
					"fontname" : "Arial",
					"outlettype" : [ "float" ],
					"fontsize" : 9.0,
					"numinlets" : 1,
					"patcher" : 					{
						"fileversion" : 1,
						"rect" : [ 25.0, 69.0, 640.0, 480.0 ],
						"bglocked" : 0,
						"defrect" : [ 25.0, 69.0, 640.0, 480.0 ],
						"openrect" : [ 0.0, 0.0, 0.0, 0.0 ],
						"openinpresentation" : 0,
						"default_fontsize" : 12.0,
						"default_fontface" : 0,
						"default_fontname" : "Arial",
						"gridonopen" : 0,
						"gridsize" : [ 15.0, 15.0 ],
						"gridsnaponopen" : 0,
						"toolbarvisible" : 1,
						"boxanimatetime" : 200,
						"imprint" : 0,
						"enablehscroll" : 1,
						"enablevscroll" : 1,
						"devicewidth" : 0.0,
						"boxes" : [ 							{
								"box" : 								{
									"maxclass" : "newobj",
									"text" : "/ 127.",
									"numoutlets" : 1,
									"patching_rect" : [ 156.0, 263.0, 41.0, 20.0 ],
									"id" : "obj-2",
									"fontname" : "Arial",
									"outlettype" : [ "float" ],
									"fontsize" : 12.0,
									"numinlets" : 2
								}

							}
, 							{
								"box" : 								{
									"maxclass" : "newobj",
									"text" : "metro 100",
									"numoutlets" : 1,
									"patching_rect" : [ 133.0, 164.0, 65.0, 20.0 ],
									"id" : "obj-6",
									"fontname" : "Arial",
									"outlettype" : [ "bang" ],
									"fontsize" : 12.0,
									"numinlets" : 2
								}

							}
, 							{
								"box" : 								{
									"maxclass" : "outlet",
									"numoutlets" : 0,
									"patching_rect" : [ 210.0, 390.0, 25.0, 25.0 ],
									"id" : "obj-5",
									"numinlets" : 1,
									"comment" : ""
								}

							}
, 							{
								"box" : 								{
									"maxclass" : "newobj",
									"text" : "random 127",
									"numoutlets" : 1,
									"patching_rect" : [ 139.0, 198.0, 75.0, 20.0 ],
									"id" : "obj-4",
									"fontname" : "Arial",
									"outlettype" : [ "int" ],
									"fontsize" : 12.0,
									"numinlets" : 2
								}

							}
, 							{
								"box" : 								{
									"maxclass" : "inlet",
									"numoutlets" : 1,
									"patching_rect" : [ 127.0, 83.0, 25.0, 25.0 ],
									"id" : "obj-1",
									"outlettype" : [ "int" ],
									"numinlets" : 0,
									"comment" : ""
								}

							}
 ],
						"lines" : [ 							{
								"patchline" : 								{
									"source" : [ "obj-1", 0 ],
									"destination" : [ "obj-6", 0 ],
									"hidden" : 0,
									"midpoints" : [  ]
								}

							}
, 							{
								"patchline" : 								{
									"source" : [ "obj-6", 0 ],
									"destination" : [ "obj-4", 0 ],
									"hidden" : 0,
									"midpoints" : [  ]
								}

							}
, 							{
								"patchline" : 								{
									"source" : [ "obj-4", 0 ],
									"destination" : [ "obj-2", 0 ],
									"hidden" : 0,
									"midpoints" : [  ]
								}

							}
, 							{
								"patchline" : 								{
									"source" : [ "obj-2", 0 ],
									"destination" : [ "obj-5", 0 ],
									"hidden" : 0,
									"midpoints" : [  ]
								}

							}
 ]
					}
,
					"saved_object_attributes" : 					{
						"default_fontname" : "Arial",
						"fontname" : "Arial",
						"default_fontsize" : 12.0,
						"globalpatchername" : "",
						"fontface" : 0,
						"fontsize" : 12.0,
						"default_fontface" : 0
					}

				}

			}
, 			{
				"box" : 				{
					"maxclass" : "toggle",
					"numoutlets" : 1,
					"patching_rect" : [ 60.457008, 174.44136, 16.0, 16.0 ],
					"presentation" : 1,
					"id" : "obj-12",
					"outlettype" : [ "int" ],
					"presentation_rect" : [ 3.936764, 174.392319, 16.0, 16.0 ],
					"numinlets" : 1
				}

			}
, 			{
				"box" : 				{
					"maxclass" : "newobj",
					"text" : "p test",
					"numoutlets" : 1,
					"patching_rect" : [ 77.873528, 174.122284, 33.0, 17.0 ],
					"id" : "obj-17",
					"fontname" : "Arial",
					"outlettype" : [ "float" ],
					"fontsize" : 9.0,
					"numinlets" : 1,
					"patcher" : 					{
						"fileversion" : 1,
						"rect" : [ 25.0, 69.0, 640.0, 480.0 ],
						"bglocked" : 0,
						"defrect" : [ 25.0, 69.0, 640.0, 480.0 ],
						"openrect" : [ 0.0, 0.0, 0.0, 0.0 ],
						"openinpresentation" : 0,
						"default_fontsize" : 12.0,
						"default_fontface" : 0,
						"default_fontname" : "Arial",
						"gridonopen" : 0,
						"gridsize" : [ 15.0, 15.0 ],
						"gridsnaponopen" : 0,
						"toolbarvisible" : 1,
						"boxanimatetime" : 200,
						"imprint" : 0,
						"enablehscroll" : 1,
						"enablevscroll" : 1,
						"devicewidth" : 0.0,
						"boxes" : [ 							{
								"box" : 								{
									"maxclass" : "newobj",
									"text" : "/ 127.",
									"numoutlets" : 1,
									"patching_rect" : [ 156.0, 263.0, 41.0, 20.0 ],
									"id" : "obj-2",
									"fontname" : "Arial",
									"outlettype" : [ "float" ],
									"fontsize" : 12.0,
									"numinlets" : 2
								}

							}
, 							{
								"box" : 								{
									"maxclass" : "newobj",
									"text" : "metro 100",
									"numoutlets" : 1,
									"patching_rect" : [ 133.0, 164.0, 65.0, 20.0 ],
									"id" : "obj-6",
									"fontname" : "Arial",
									"outlettype" : [ "bang" ],
									"fontsize" : 12.0,
									"numinlets" : 2
								}

							}
, 							{
								"box" : 								{
									"maxclass" : "outlet",
									"numoutlets" : 0,
									"patching_rect" : [ 210.0, 390.0, 25.0, 25.0 ],
									"id" : "obj-5",
									"numinlets" : 1,
									"comment" : ""
								}

							}
, 							{
								"box" : 								{
									"maxclass" : "newobj",
									"text" : "random 127",
									"numoutlets" : 1,
									"patching_rect" : [ 139.0, 198.0, 75.0, 20.0 ],
									"id" : "obj-4",
									"fontname" : "Arial",
									"outlettype" : [ "int" ],
									"fontsize" : 12.0,
									"numinlets" : 2
								}

							}
, 							{
								"box" : 								{
									"maxclass" : "inlet",
									"numoutlets" : 1,
									"patching_rect" : [ 127.0, 83.0, 25.0, 25.0 ],
									"id" : "obj-1",
									"outlettype" : [ "int" ],
									"numinlets" : 0,
									"comment" : ""
								}

							}
 ],
						"lines" : [ 							{
								"patchline" : 								{
									"source" : [ "obj-1", 0 ],
									"destination" : [ "obj-6", 0 ],
									"hidden" : 0,
									"midpoints" : [  ]
								}

							}
, 							{
								"patchline" : 								{
									"source" : [ "obj-6", 0 ],
									"destination" : [ "obj-4", 0 ],
									"hidden" : 0,
									"midpoints" : [  ]
								}

							}
, 							{
								"patchline" : 								{
									"source" : [ "obj-4", 0 ],
									"destination" : [ "obj-2", 0 ],
									"hidden" : 0,
									"midpoints" : [  ]
								}

							}
, 							{
								"patchline" : 								{
									"source" : [ "obj-2", 0 ],
									"destination" : [ "obj-5", 0 ],
									"hidden" : 0,
									"midpoints" : [  ]
								}

							}
 ]
					}
,
					"saved_object_attributes" : 					{
						"default_fontname" : "Arial",
						"fontname" : "Arial",
						"default_fontsize" : 12.0,
						"globalpatchername" : "",
						"fontface" : 0,
						"fontsize" : 12.0,
						"default_fontface" : 0
					}

				}

			}
, 			{
				"box" : 				{
					"maxclass" : "toggle",
					"numoutlets" : 1,
					"patching_rect" : [ 60.457008, 158.44136, 16.0, 16.0 ],
					"presentation" : 1,
					"id" : "obj-10",
					"outlettype" : [ "int" ],
					"presentation_rect" : [ 3.936764, 158.392319, 16.0, 16.0 ],
					"numinlets" : 1
				}

			}
, 			{
				"box" : 				{
					"maxclass" : "newobj",
					"text" : "p test",
					"numoutlets" : 1,
					"patching_rect" : [ 77.873528, 158.122284, 33.0, 17.0 ],
					"id" : "obj-11",
					"fontname" : "Arial",
					"outlettype" : [ "float" ],
					"fontsize" : 9.0,
					"numinlets" : 1,
					"patcher" : 					{
						"fileversion" : 1,
						"rect" : [ 25.0, 69.0, 640.0, 480.0 ],
						"bglocked" : 0,
						"defrect" : [ 25.0, 69.0, 640.0, 480.0 ],
						"openrect" : [ 0.0, 0.0, 0.0, 0.0 ],
						"openinpresentation" : 0,
						"default_fontsize" : 12.0,
						"default_fontface" : 0,
						"default_fontname" : "Arial",
						"gridonopen" : 0,
						"gridsize" : [ 15.0, 15.0 ],
						"gridsnaponopen" : 0,
						"toolbarvisible" : 1,
						"boxanimatetime" : 200,
						"imprint" : 0,
						"enablehscroll" : 1,
						"enablevscroll" : 1,
						"devicewidth" : 0.0,
						"boxes" : [ 							{
								"box" : 								{
									"maxclass" : "newobj",
									"text" : "/ 127.",
									"numoutlets" : 1,
									"patching_rect" : [ 156.0, 263.0, 41.0, 20.0 ],
									"id" : "obj-2",
									"fontname" : "Arial",
									"outlettype" : [ "float" ],
									"fontsize" : 12.0,
									"numinlets" : 2
								}

							}
, 							{
								"box" : 								{
									"maxclass" : "newobj",
									"text" : "metro 100",
									"numoutlets" : 1,
									"patching_rect" : [ 133.0, 164.0, 65.0, 20.0 ],
									"id" : "obj-6",
									"fontname" : "Arial",
									"outlettype" : [ "bang" ],
									"fontsize" : 12.0,
									"numinlets" : 2
								}

							}
, 							{
								"box" : 								{
									"maxclass" : "outlet",
									"numoutlets" : 0,
									"patching_rect" : [ 210.0, 390.0, 25.0, 25.0 ],
									"id" : "obj-5",
									"numinlets" : 1,
									"comment" : ""
								}

							}
, 							{
								"box" : 								{
									"maxclass" : "newobj",
									"text" : "random 127",
									"numoutlets" : 1,
									"patching_rect" : [ 139.0, 198.0, 75.0, 20.0 ],
									"id" : "obj-4",
									"fontname" : "Arial",
									"outlettype" : [ "int" ],
									"fontsize" : 12.0,
									"numinlets" : 2
								}

							}
, 							{
								"box" : 								{
									"maxclass" : "inlet",
									"numoutlets" : 1,
									"patching_rect" : [ 127.0, 83.0, 25.0, 25.0 ],
									"id" : "obj-1",
									"outlettype" : [ "int" ],
									"numinlets" : 0,
									"comment" : ""
								}

							}
 ],
						"lines" : [ 							{
								"patchline" : 								{
									"source" : [ "obj-1", 0 ],
									"destination" : [ "obj-6", 0 ],
									"hidden" : 0,
									"midpoints" : [  ]
								}

							}
, 							{
								"patchline" : 								{
									"source" : [ "obj-6", 0 ],
									"destination" : [ "obj-4", 0 ],
									"hidden" : 0,
									"midpoints" : [  ]
								}

							}
, 							{
								"patchline" : 								{
									"source" : [ "obj-4", 0 ],
									"destination" : [ "obj-2", 0 ],
									"hidden" : 0,
									"midpoints" : [  ]
								}

							}
, 							{
								"patchline" : 								{
									"source" : [ "obj-2", 0 ],
									"destination" : [ "obj-5", 0 ],
									"hidden" : 0,
									"midpoints" : [  ]
								}

							}
 ]
					}
,
					"saved_object_attributes" : 					{
						"default_fontname" : "Arial",
						"fontname" : "Arial",
						"default_fontsize" : 12.0,
						"globalpatchername" : "",
						"fontface" : 0,
						"fontsize" : 12.0,
						"default_fontface" : 0
					}

				}

			}
, 			{
				"box" : 				{
					"maxclass" : "toggle",
					"numoutlets" : 1,
					"patching_rect" : [ 60.457008, 143.0, 16.0, 16.0 ],
					"presentation" : 1,
					"id" : "obj-7",
					"outlettype" : [ "int" ],
					"presentation_rect" : [ 3.936764, 142.950958, 16.0, 16.0 ],
					"numinlets" : 1
				}

			}
, 			{
				"box" : 				{
					"maxclass" : "newobj",
					"text" : "p test",
					"numoutlets" : 1,
					"patching_rect" : [ 77.873528, 142.680923, 33.0, 17.0 ],
					"id" : "obj-5",
					"fontname" : "Arial",
					"outlettype" : [ "float" ],
					"fontsize" : 9.0,
					"numinlets" : 1,
					"patcher" : 					{
						"fileversion" : 1,
						"rect" : [ 25.0, 69.0, 640.0, 480.0 ],
						"bglocked" : 0,
						"defrect" : [ 25.0, 69.0, 640.0, 480.0 ],
						"openrect" : [ 0.0, 0.0, 0.0, 0.0 ],
						"openinpresentation" : 0,
						"default_fontsize" : 12.0,
						"default_fontface" : 0,
						"default_fontname" : "Arial",
						"gridonopen" : 0,
						"gridsize" : [ 15.0, 15.0 ],
						"gridsnaponopen" : 0,
						"toolbarvisible" : 1,
						"boxanimatetime" : 200,
						"imprint" : 0,
						"enablehscroll" : 1,
						"enablevscroll" : 1,
						"devicewidth" : 0.0,
						"boxes" : [ 							{
								"box" : 								{
									"maxclass" : "newobj",
									"text" : "/ 127.",
									"numoutlets" : 1,
									"patching_rect" : [ 156.0, 263.0, 41.0, 20.0 ],
									"id" : "obj-2",
									"fontname" : "Arial",
									"outlettype" : [ "float" ],
									"fontsize" : 12.0,
									"numinlets" : 2
								}

							}
, 							{
								"box" : 								{
									"maxclass" : "newobj",
									"text" : "metro 100",
									"numoutlets" : 1,
									"patching_rect" : [ 133.0, 164.0, 65.0, 20.0 ],
									"id" : "obj-6",
									"fontname" : "Arial",
									"outlettype" : [ "bang" ],
									"fontsize" : 12.0,
									"numinlets" : 2
								}

							}
, 							{
								"box" : 								{
									"maxclass" : "outlet",
									"numoutlets" : 0,
									"patching_rect" : [ 210.0, 390.0, 25.0, 25.0 ],
									"id" : "obj-5",
									"numinlets" : 1,
									"comment" : ""
								}

							}
, 							{
								"box" : 								{
									"maxclass" : "newobj",
									"text" : "random 127",
									"numoutlets" : 1,
									"patching_rect" : [ 139.0, 198.0, 75.0, 20.0 ],
									"id" : "obj-4",
									"fontname" : "Arial",
									"outlettype" : [ "int" ],
									"fontsize" : 12.0,
									"numinlets" : 2
								}

							}
, 							{
								"box" : 								{
									"maxclass" : "inlet",
									"numoutlets" : 1,
									"patching_rect" : [ 127.0, 83.0, 25.0, 25.0 ],
									"id" : "obj-1",
									"outlettype" : [ "int" ],
									"numinlets" : 0,
									"comment" : ""
								}

							}
 ],
						"lines" : [ 							{
								"patchline" : 								{
									"source" : [ "obj-1", 0 ],
									"destination" : [ "obj-6", 0 ],
									"hidden" : 0,
									"midpoints" : [  ]
								}

							}
, 							{
								"patchline" : 								{
									"source" : [ "obj-6", 0 ],
									"destination" : [ "obj-4", 0 ],
									"hidden" : 0,
									"midpoints" : [  ]
								}

							}
, 							{
								"patchline" : 								{
									"source" : [ "obj-4", 0 ],
									"destination" : [ "obj-2", 0 ],
									"hidden" : 0,
									"midpoints" : [  ]
								}

							}
, 							{
								"patchline" : 								{
									"source" : [ "obj-2", 0 ],
									"destination" : [ "obj-5", 0 ],
									"hidden" : 0,
									"midpoints" : [  ]
								}

							}
 ]
					}
,
					"saved_object_attributes" : 					{
						"default_fontname" : "Arial",
						"fontname" : "Arial",
						"default_fontsize" : 12.0,
						"globalpatchername" : "",
						"fontface" : 0,
						"fontsize" : 12.0,
						"default_fontface" : 0
					}

				}

			}
, 			{
				"box" : 				{
					"maxclass" : "multislider",
					"varname" : "multislider[10]",
					"numoutlets" : 2,
					"patching_rect" : [ 128.0, 287.111115, 162.0, 15.0 ],
					"presentation" : 1,
					"id" : "obj-27",
					"outlettype" : [ "", "" ],
					"contdata" : 1,
					"orientation" : 0,
					"setminmax" : [ 0.0, 1.0 ],
					"presentation_rect" : [ 21.0, 287.111115, 162.0, 15.0 ],
					"numinlets" : 1
				}

			}
, 			{
				"box" : 				{
					"maxclass" : "multislider",
					"varname" : "multislider[1]",
					"numoutlets" : 2,
					"patching_rect" : [ 128.0, 271.111115, 162.0, 15.0 ],
					"presentation" : 1,
					"id" : "obj-26",
					"outlettype" : [ "", "" ],
					"contdata" : 1,
					"orientation" : 0,
					"setminmax" : [ 0.0, 1.0 ],
					"presentation_rect" : [ 21.0, 271.111115, 162.0, 15.0 ],
					"numinlets" : 1
				}

			}
, 			{
				"box" : 				{
					"maxclass" : "multislider",
					"varname" : "multislider[2]",
					"numoutlets" : 2,
					"patching_rect" : [ 128.0, 255.111115, 162.0, 15.0 ],
					"presentation" : 1,
					"id" : "obj-25",
					"outlettype" : [ "", "" ],
					"contdata" : 1,
					"orientation" : 0,
					"setminmax" : [ 0.0, 1.0 ],
					"presentation_rect" : [ 21.0, 255.111115, 162.0, 15.0 ],
					"numinlets" : 1
				}

			}
, 			{
				"box" : 				{
					"maxclass" : "multislider",
					"varname" : "multislider[3]",
					"numoutlets" : 2,
					"patching_rect" : [ 128.0, 239.111115, 162.0, 15.0 ],
					"presentation" : 1,
					"id" : "obj-24",
					"outlettype" : [ "", "" ],
					"contdata" : 1,
					"orientation" : 0,
					"setminmax" : [ 0.0, 1.0 ],
					"presentation_rect" : [ 21.0, 239.111115, 162.0, 15.0 ],
					"numinlets" : 1
				}

			}
, 			{
				"box" : 				{
					"maxclass" : "multislider",
					"varname" : "multislider[4]",
					"numoutlets" : 2,
					"patching_rect" : [ 128.0, 223.111115, 162.0, 15.0 ],
					"presentation" : 1,
					"id" : "obj-23",
					"outlettype" : [ "", "" ],
					"contdata" : 1,
					"orientation" : 0,
					"setminmax" : [ 0.0, 1.0 ],
					"presentation_rect" : [ 21.0, 223.111115, 162.0, 15.0 ],
					"numinlets" : 1
				}

			}
, 			{
				"box" : 				{
					"maxclass" : "multislider",
					"varname" : "multislider[5]",
					"numoutlets" : 2,
					"patching_rect" : [ 128.0, 207.111115, 162.0, 15.0 ],
					"presentation" : 1,
					"id" : "obj-22",
					"outlettype" : [ "", "" ],
					"contdata" : 1,
					"orientation" : 0,
					"setminmax" : [ 0.0, 1.0 ],
					"presentation_rect" : [ 21.0, 207.111115, 162.0, 15.0 ],
					"numinlets" : 1
				}

			}
, 			{
				"box" : 				{
					"maxclass" : "multislider",
					"varname" : "multislider[6]",
					"numoutlets" : 2,
					"patching_rect" : [ 128.0, 191.111115, 162.0, 15.0 ],
					"presentation" : 1,
					"id" : "obj-21",
					"outlettype" : [ "", "" ],
					"contdata" : 1,
					"orientation" : 0,
					"setminmax" : [ 0.0, 1.0 ],
					"presentation_rect" : [ 21.0, 191.111115, 162.0, 15.0 ],
					"numinlets" : 1
				}

			}
, 			{
				"box" : 				{
					"maxclass" : "multislider",
					"varname" : "multislider[7]",
					"numoutlets" : 2,
					"patching_rect" : [ 128.0, 175.111115, 162.0, 15.0 ],
					"presentation" : 1,
					"id" : "obj-20",
					"outlettype" : [ "", "" ],
					"contdata" : 1,
					"orientation" : 0,
					"setminmax" : [ 0.0, 1.0 ],
					"presentation_rect" : [ 21.0, 175.111115, 162.0, 15.0 ],
					"numinlets" : 1
				}

			}
, 			{
				"box" : 				{
					"maxclass" : "multislider",
					"varname" : "multislider[8]",
					"numoutlets" : 2,
					"patching_rect" : [ 128.0, 159.111115, 162.0, 15.0 ],
					"presentation" : 1,
					"id" : "obj-19",
					"outlettype" : [ "", "" ],
					"contdata" : 1,
					"orientation" : 0,
					"setminmax" : [ 0.0, 1.0 ],
					"presentation_rect" : [ 21.0, 159.111115, 162.0, 15.0 ],
					"numinlets" : 1
				}

			}
, 			{
				"box" : 				{
					"maxclass" : "multislider",
					"varname" : "multislider[9]",
					"numoutlets" : 2,
					"patching_rect" : [ 128.0, 143.0, 162.0, 15.0 ],
					"presentation" : 1,
					"id" : "obj-18",
					"outlettype" : [ "", "" ],
					"contdata" : 1,
					"orientation" : 0,
					"setminmax" : [ 0.0, 1.0 ],
					"presentation_rect" : [ 21.0, 143.0, 162.0, 15.0 ],
					"numinlets" : 1
				}

			}
, 			{
				"box" : 				{
					"maxclass" : "outlet",
					"numoutlets" : 0,
					"patching_rect" : [ 169.0, 487.0, 15.0, 15.0 ],
					"id" : "obj-1",
					"numinlets" : 1,
					"hidden" : 1,
					"comment" : ""
				}

			}
, 			{
				"box" : 				{
					"maxclass" : "newobj",
					"varname" : "u125000041",
					"text" : "funnel 10",
					"numoutlets" : 1,
					"patching_rect" : [ 176.0, 451.0, 131.0, 17.0 ],
					"id" : "obj-2",
					"fontname" : "Arial",
					"outlettype" : [ "list" ],
					"fontsize" : 9.0,
					"numinlets" : 10,
					"hidden" : 1
				}

			}
, 			{
				"box" : 				{
					"maxclass" : "newobj",
					"varname" : "u875013138",
					"text" : "autopattr",
					"numoutlets" : 4,
					"patching_rect" : [ 200.0, 29.0, 59.5, 17.0 ],
					"id" : "obj-13",
					"fontname" : "Arial",
					"outlettype" : [ "", "", "", "" ],
					"fontsize" : 9.0,
					"numinlets" : 1,
					"hidden" : 1,
					"restore" : 					{
						"multislider[10]" : [ 0.0 ],
						"multislider[1]" : [ 0.0 ],
						"multislider[2]" : [ 0.0 ],
						"multislider[3]" : [ 0.0 ],
						"multislider[4]" : [ 0.0 ],
						"multislider[5]" : [ 0.0 ],
						"multislider[6]" : [ 0.0 ],
						"multislider[7]" : [ 0.0 ],
						"multislider[8]" : [ 0.0 ],
						"multislider[9]" : [ 0.0 ]
					}

				}

			}
, 			{
				"box" : 				{
					"maxclass" : "newobj",
					"varname" : "ali.space-control-gui.xlm",
					"text" : "pattrstorage ali.space-control-gui.xlm",
					"numoutlets" : 1,
					"patching_rect" : [ 511.0, 436.0, 158.0, 17.0 ],
					"id" : "obj-14",
					"fontname" : "Arial",
					"outlettype" : [ "" ],
					"fontsize" : 9.0,
					"numinlets" : 1,
					"saved_object_attributes" : 					{
						"storage_rect" : [ 0, 0, 640, 240 ],
						"client_rect" : [ 341, 679, 981, 919 ]
					}

				}

			}
, 			{
				"box" : 				{
					"maxclass" : "inlet",
					"numoutlets" : 1,
					"patching_rect" : [ 511.0, 416.0, 15.0, 15.0 ],
					"id" : "obj-15",
					"outlettype" : [ "" ],
					"numinlets" : 0,
					"comment" : ""
				}

			}
, 			{
				"box" : 				{
					"maxclass" : "outlet",
					"numoutlets" : 0,
					"patching_rect" : [ 511.0, 458.0, 15.0, 15.0 ],
					"id" : "obj-16",
					"numinlets" : 1,
					"comment" : ""
				}

			}
 ],
		"lines" : [ 			{
				"patchline" : 				{
					"source" : [ "obj-41", 0 ],
					"destination" : [ "obj-27", 0 ],
					"hidden" : 0,
					"midpoints" : [  ]
				}

			}
, 			{
				"patchline" : 				{
					"source" : [ "obj-40", 0 ],
					"destination" : [ "obj-41", 0 ],
					"hidden" : 0,
					"midpoints" : [  ]
				}

			}
, 			{
				"patchline" : 				{
					"source" : [ "obj-39", 0 ],
					"destination" : [ "obj-26", 0 ],
					"hidden" : 0,
					"midpoints" : [  ]
				}

			}
, 			{
				"patchline" : 				{
					"source" : [ "obj-38", 0 ],
					"destination" : [ "obj-39", 0 ],
					"hidden" : 0,
					"midpoints" : [  ]
				}

			}
, 			{
				"patchline" : 				{
					"source" : [ "obj-37", 0 ],
					"destination" : [ "obj-25", 0 ],
					"hidden" : 0,
					"midpoints" : [  ]
				}

			}
, 			{
				"patchline" : 				{
					"source" : [ "obj-36", 0 ],
					"destination" : [ "obj-37", 0 ],
					"hidden" : 0,
					"midpoints" : [  ]
				}

			}
, 			{
				"patchline" : 				{
					"source" : [ "obj-35", 0 ],
					"destination" : [ "obj-24", 0 ],
					"hidden" : 0,
					"midpoints" : [  ]
				}

			}
, 			{
				"patchline" : 				{
					"source" : [ "obj-34", 0 ],
					"destination" : [ "obj-35", 0 ],
					"hidden" : 0,
					"midpoints" : [  ]
				}

			}
, 			{
				"patchline" : 				{
					"source" : [ "obj-33", 0 ],
					"destination" : [ "obj-23", 0 ],
					"hidden" : 0,
					"midpoints" : [  ]
				}

			}
, 			{
				"patchline" : 				{
					"source" : [ "obj-32", 0 ],
					"destination" : [ "obj-33", 0 ],
					"hidden" : 0,
					"midpoints" : [  ]
				}

			}
, 			{
				"patchline" : 				{
					"source" : [ "obj-31", 0 ],
					"destination" : [ "obj-22", 0 ],
					"hidden" : 0,
					"midpoints" : [  ]
				}

			}
, 			{
				"patchline" : 				{
					"source" : [ "obj-30", 0 ],
					"destination" : [ "obj-31", 0 ],
					"hidden" : 0,
					"midpoints" : [  ]
				}

			}
, 			{
				"patchline" : 				{
					"source" : [ "obj-29", 0 ],
					"destination" : [ "obj-21", 0 ],
					"hidden" : 0,
					"midpoints" : [  ]
				}

			}
, 			{
				"patchline" : 				{
					"source" : [ "obj-28", 0 ],
					"destination" : [ "obj-29", 0 ],
					"hidden" : 0,
					"midpoints" : [  ]
				}

			}
, 			{
				"patchline" : 				{
					"source" : [ "obj-17", 0 ],
					"destination" : [ "obj-20", 0 ],
					"hidden" : 0,
					"midpoints" : [  ]
				}

			}
, 			{
				"patchline" : 				{
					"source" : [ "obj-12", 0 ],
					"destination" : [ "obj-17", 0 ],
					"hidden" : 0,
					"midpoints" : [  ]
				}

			}
, 			{
				"patchline" : 				{
					"source" : [ "obj-11", 0 ],
					"destination" : [ "obj-19", 0 ],
					"hidden" : 0,
					"midpoints" : [  ]
				}

			}
, 			{
				"patchline" : 				{
					"source" : [ "obj-10", 0 ],
					"destination" : [ "obj-11", 0 ],
					"hidden" : 0,
					"midpoints" : [  ]
				}

			}
, 			{
				"patchline" : 				{
					"source" : [ "obj-7", 0 ],
					"destination" : [ "obj-5", 0 ],
					"hidden" : 0,
					"midpoints" : [  ]
				}

			}
, 			{
				"patchline" : 				{
					"source" : [ "obj-5", 0 ],
					"destination" : [ "obj-18", 0 ],
					"hidden" : 0,
					"midpoints" : [  ]
				}

			}
, 			{
				"patchline" : 				{
					"source" : [ "obj-18", 0 ],
					"destination" : [ "obj-2", 0 ],
					"hidden" : 0,
					"midpoints" : [  ]
				}

			}
, 			{
				"patchline" : 				{
					"source" : [ "obj-13", 0 ],
					"destination" : [ "obj-18", 0 ],
					"hidden" : 0,
					"midpoints" : [  ]
				}

			}
, 			{
				"patchline" : 				{
					"source" : [ "obj-15", 0 ],
					"destination" : [ "obj-14", 0 ],
					"hidden" : 0,
					"midpoints" : [  ]
				}

			}
, 			{
				"patchline" : 				{
					"source" : [ "obj-14", 0 ],
					"destination" : [ "obj-16", 0 ],
					"hidden" : 0,
					"midpoints" : [  ]
				}

			}
, 			{
				"patchline" : 				{
					"source" : [ "obj-2", 0 ],
					"destination" : [ "obj-1", 0 ],
					"hidden" : 1,
					"midpoints" : [  ]
				}

			}
, 			{
				"patchline" : 				{
					"source" : [ "obj-13", 0 ],
					"destination" : [ "obj-19", 0 ],
					"hidden" : 0,
					"midpoints" : [  ]
				}

			}
, 			{
				"patchline" : 				{
					"source" : [ "obj-19", 0 ],
					"destination" : [ "obj-2", 1 ],
					"hidden" : 0,
					"midpoints" : [  ]
				}

			}
, 			{
				"patchline" : 				{
					"source" : [ "obj-13", 0 ],
					"destination" : [ "obj-20", 0 ],
					"hidden" : 0,
					"midpoints" : [  ]
				}

			}
, 			{
				"patchline" : 				{
					"source" : [ "obj-20", 0 ],
					"destination" : [ "obj-2", 2 ],
					"hidden" : 0,
					"midpoints" : [  ]
				}

			}
, 			{
				"patchline" : 				{
					"source" : [ "obj-13", 0 ],
					"destination" : [ "obj-21", 0 ],
					"hidden" : 0,
					"midpoints" : [  ]
				}

			}
, 			{
				"patchline" : 				{
					"source" : [ "obj-21", 0 ],
					"destination" : [ "obj-2", 3 ],
					"hidden" : 0,
					"midpoints" : [  ]
				}

			}
, 			{
				"patchline" : 				{
					"source" : [ "obj-13", 0 ],
					"destination" : [ "obj-22", 0 ],
					"hidden" : 0,
					"midpoints" : [  ]
				}

			}
, 			{
				"patchline" : 				{
					"source" : [ "obj-22", 0 ],
					"destination" : [ "obj-2", 4 ],
					"hidden" : 0,
					"midpoints" : [  ]
				}

			}
, 			{
				"patchline" : 				{
					"source" : [ "obj-13", 0 ],
					"destination" : [ "obj-23", 0 ],
					"hidden" : 0,
					"midpoints" : [  ]
				}

			}
, 			{
				"patchline" : 				{
					"source" : [ "obj-23", 0 ],
					"destination" : [ "obj-2", 5 ],
					"hidden" : 0,
					"midpoints" : [  ]
				}

			}
, 			{
				"patchline" : 				{
					"source" : [ "obj-13", 0 ],
					"destination" : [ "obj-24", 0 ],
					"hidden" : 0,
					"midpoints" : [  ]
				}

			}
, 			{
				"patchline" : 				{
					"source" : [ "obj-24", 0 ],
					"destination" : [ "obj-2", 6 ],
					"hidden" : 0,
					"midpoints" : [  ]
				}

			}
, 			{
				"patchline" : 				{
					"source" : [ "obj-13", 0 ],
					"destination" : [ "obj-25", 0 ],
					"hidden" : 0,
					"midpoints" : [  ]
				}

			}
, 			{
				"patchline" : 				{
					"source" : [ "obj-25", 0 ],
					"destination" : [ "obj-2", 7 ],
					"hidden" : 0,
					"midpoints" : [  ]
				}

			}
, 			{
				"patchline" : 				{
					"source" : [ "obj-13", 0 ],
					"destination" : [ "obj-26", 0 ],
					"hidden" : 0,
					"midpoints" : [  ]
				}

			}
, 			{
				"patchline" : 				{
					"source" : [ "obj-26", 0 ],
					"destination" : [ "obj-2", 8 ],
					"hidden" : 0,
					"midpoints" : [  ]
				}

			}
, 			{
				"patchline" : 				{
					"source" : [ "obj-13", 0 ],
					"destination" : [ "obj-27", 0 ],
					"hidden" : 0,
					"midpoints" : [  ]
				}

			}
, 			{
				"patchline" : 				{
					"source" : [ "obj-27", 0 ],
					"destination" : [ "obj-2", 9 ],
					"hidden" : 0,
					"midpoints" : [  ]
				}

			}
 ]
	}

}
