{
	"patcher" : 	{
		"fileversion" : 1,
		"rect" : [ 32.0, 49.0, 1309.0, 679.0 ],
		"bgcolor" : [ 1.0, 0.992157, 0.070588, 1.0 ],
		"bglocked" : 0,
		"defrect" : [ 32.0, 49.0, 1309.0, 679.0 ],
		"openrect" : [ 0.0, 0.0, 0.0, 0.0 ],
		"openinpresentation" : 0,
		"default_fontsize" : 12.0,
		"default_fontface" : 0,
		"default_fontname" : "Arial",
		"gridonopen" : 0,
		"gridsize" : [ 15.0, 15.0 ],
		"gridsnaponopen" : 0,
		"toolbarvisible" : 1,
		"boxanimatetime" : 200,
		"imprint" : 0,
		"enablehscroll" : 1,
		"enablevscroll" : 1,
		"devicewidth" : 0.0,
		"boxes" : [ 			{
				"box" : 				{
					"maxclass" : "newobj",
					"text" : "route 0 1 2 3 4 5 6 7 8 9",
					"numoutlets" : 11,
					"patching_rect" : [ 588.0, 90.0, 154.0, 20.0 ],
					"outlettype" : [ "", "", "", "", "", "", "", "", "", "", "" ],
					"fontsize" : 12.0,
					"numinlets" : 1,
					"id" : "obj-19",
					"fontname" : "Arial"
				}

			}
, 			{
				"box" : 				{
					"maxclass" : "bpatcher",
					"varname" : "ali.m4l-device-param[9]",
					"numoutlets" : 2,
					"patching_rect" : [ 590.0, 293.0, 301.0, 46.0 ],
					"presentation" : 1,
					"offset" : [ -18.0, -15.0 ],
					"outlettype" : [ "int", "" ],
					"name" : "ali.m4l.device-param.maxpat",
					"presentation_rect" : [ 195.0, 149.0, 306.0, 49.0 ],
					"args" : [  ],
					"numinlets" : 4,
					"id" : "obj-17"
				}

			}
, 			{
				"box" : 				{
					"maxclass" : "bpatcher",
					"varname" : "ali.m4l-device-param[8]",
					"numoutlets" : 2,
					"patching_rect" : [ 590.0, 277.0, 301.0, 46.0 ],
					"presentation" : 1,
					"offset" : [ -18.0, -15.0 ],
					"outlettype" : [ "int", "" ],
					"name" : "ali.m4l.device-param.maxpat",
					"presentation_rect" : [ 195.0, 133.0, 306.0, 49.0 ],
					"args" : [  ],
					"numinlets" : 4,
					"id" : "obj-16"
				}

			}
, 			{
				"box" : 				{
					"maxclass" : "bpatcher",
					"varname" : "ali.m4l-device-param[7]",
					"numoutlets" : 2,
					"patching_rect" : [ 590.0, 261.0, 301.0, 46.0 ],
					"presentation" : 1,
					"offset" : [ -18.0, -15.0 ],
					"outlettype" : [ "int", "" ],
					"name" : "ali.m4l.device-param.maxpat",
					"presentation_rect" : [ 195.0, 117.0, 306.0, 49.0 ],
					"args" : [  ],
					"numinlets" : 4,
					"id" : "obj-14"
				}

			}
, 			{
				"box" : 				{
					"maxclass" : "bpatcher",
					"varname" : "ali.m4l-device-param[6]",
					"numoutlets" : 2,
					"patching_rect" : [ 590.0, 245.0, 301.0, 46.0 ],
					"presentation" : 1,
					"offset" : [ -18.0, -15.0 ],
					"outlettype" : [ "int", "" ],
					"name" : "ali.m4l.device-param.maxpat",
					"presentation_rect" : [ 195.0, 101.0, 306.0, 49.0 ],
					"args" : [  ],
					"numinlets" : 4,
					"id" : "obj-11"
				}

			}
, 			{
				"box" : 				{
					"maxclass" : "bpatcher",
					"varname" : "ali.m4l-device-param[5]",
					"numoutlets" : 2,
					"patching_rect" : [ 590.0, 229.0, 301.0, 46.0 ],
					"presentation" : 1,
					"offset" : [ -18.0, -15.0 ],
					"outlettype" : [ "int", "" ],
					"name" : "ali.m4l.device-param.maxpat",
					"presentation_rect" : [ 195.0, 85.0, 306.0, 49.0 ],
					"args" : [  ],
					"numinlets" : 4,
					"id" : "obj-8"
				}

			}
, 			{
				"box" : 				{
					"maxclass" : "bpatcher",
					"varname" : "ali.m4l-device-param[4]",
					"numoutlets" : 2,
					"patching_rect" : [ 590.0, 213.0, 301.0, 46.0 ],
					"presentation" : 1,
					"offset" : [ -18.0, -15.0 ],
					"outlettype" : [ "int", "" ],
					"name" : "ali.m4l.device-param.maxpat",
					"presentation_rect" : [ 195.0, 69.0, 306.0, 49.0 ],
					"args" : [  ],
					"numinlets" : 4,
					"id" : "obj-7"
				}

			}
, 			{
				"box" : 				{
					"maxclass" : "bpatcher",
					"varname" : "ali.m4l-device-param[3]",
					"numoutlets" : 2,
					"patching_rect" : [ 590.0, 197.0, 301.0, 46.0 ],
					"presentation" : 1,
					"offset" : [ -18.0, -15.0 ],
					"outlettype" : [ "int", "" ],
					"name" : "ali.m4l.device-param.maxpat",
					"presentation_rect" : [ 195.0, 53.0, 306.0, 49.0 ],
					"args" : [  ],
					"numinlets" : 4,
					"id" : "obj-4"
				}

			}
, 			{
				"box" : 				{
					"maxclass" : "bpatcher",
					"varname" : "ali.m4l-device-param[2]",
					"numoutlets" : 2,
					"patching_rect" : [ 590.0, 181.0, 301.0, 46.0 ],
					"presentation" : 1,
					"offset" : [ -18.0, -15.0 ],
					"outlettype" : [ "int", "" ],
					"name" : "ali.m4l.device-param.maxpat",
					"presentation_rect" : [ 195.0, 37.0, 306.0, 49.0 ],
					"args" : [  ],
					"numinlets" : 4,
					"id" : "obj-3"
				}

			}
, 			{
				"box" : 				{
					"maxclass" : "bpatcher",
					"varname" : "ali.m4l-device-param[1]",
					"numoutlets" : 2,
					"patching_rect" : [ 590.0, 165.0, 301.0, 46.0 ],
					"presentation" : 1,
					"offset" : [ -18.0, -15.0 ],
					"outlettype" : [ "int", "" ],
					"name" : "ali.m4l.device-param.maxpat",
					"presentation_rect" : [ 195.0, 21.0, 306.0, 49.0 ],
					"args" : [  ],
					"numinlets" : 4,
					"id" : "obj-2"
				}

			}
, 			{
				"box" : 				{
					"maxclass" : "bpatcher",
					"varname" : "ali.m4l-device-param",
					"numoutlets" : 2,
					"patching_rect" : [ 584.0, 124.0, 301.0, 46.0 ],
					"presentation" : 1,
					"offset" : [ -18.0, -15.0 ],
					"outlettype" : [ "int", "" ],
					"name" : "ali.m4l.device-param.maxpat",
					"presentation_rect" : [ 195.0, 5.0, 306.0, 49.0 ],
					"args" : [  ],
					"numinlets" : 4,
					"id" : "obj-1"
				}

			}
, 			{
				"box" : 				{
					"maxclass" : "newobj",
					"varname" : "u099001942",
					"text" : "pattrstorage",
					"numoutlets" : 1,
					"patching_rect" : [ 884.0, 476.0, 75.0, 20.0 ],
					"outlettype" : [ "" ],
					"fontsize" : 12.0,
					"numinlets" : 1,
					"id" : "obj-61",
					"fontname" : "Arial",
					"saved_object_attributes" : 					{
						"parameter_enable" : 0,
						"paraminitmode" : 0,
						"client_rect" : [ 341, 679, 981, 919 ],
						"storage_rect" : [ 0, 0, 640, 240 ]
					}

				}

			}
, 			{
				"box" : 				{
					"maxclass" : "bpatcher",
					"varname" : "ali.pattr-interp-helper2[1]",
					"numoutlets" : 2,
					"patching_rect" : [ 882.0, 150.0, 245.0, 166.0 ],
					"presentation" : 1,
					"offset" : [ 0.0, -2.0 ],
					"outlettype" : [ "", "" ],
					"name" : "ali.pattr-interp-m4l.maxpat",
					"presentation_rect" : [ 495.0, 6.0, 245.0, 166.0 ],
					"args" : [  ],
					"lockeddragscroll" : 1,
					"numinlets" : 3,
					"id" : "obj-52"
				}

			}
, 			{
				"box" : 				{
					"maxclass" : "newobj",
					"text" : "route space",
					"numoutlets" : 2,
					"patching_rect" : [ 1062.0, 135.0, 62.0, 17.0 ],
					"outlettype" : [ "", "" ],
					"fontsize" : 9.0,
					"hidden" : 1,
					"numinlets" : 1,
					"id" : "obj-5",
					"fontname" : "Arial"
				}

			}
, 			{
				"box" : 				{
					"maxclass" : "newobj",
					"text" : "pvar deferlow",
					"numoutlets" : 1,
					"patching_rect" : [ 1137.0, 67.0, 74.0, 17.0 ],
					"outlettype" : [ "" ],
					"fontsize" : 9.0,
					"hidden" : 1,
					"numinlets" : 1,
					"id" : "obj-6",
					"fontname" : "Arial",
					"color" : [ 1.0, 0.360784, 0.682353, 1.0 ]
				}

			}
, 			{
				"box" : 				{
					"maxclass" : "newobj",
					"text" : "p map o lemur",
					"numoutlets" : 4,
					"patching_rect" : [ 1062.0, 94.0, 73.0, 17.0 ],
					"outlettype" : [ "", "", "", "" ],
					"fontsize" : 9.0,
					"hidden" : 1,
					"numinlets" : 2,
					"id" : "obj-9",
					"fontname" : "Arial",
					"patcher" : 					{
						"fileversion" : 1,
						"rect" : [ 348.0, 135.0, 905.0, 634.0 ],
						"bglocked" : 0,
						"defrect" : [ 348.0, 135.0, 905.0, 634.0 ],
						"openrect" : [ 0.0, 0.0, 0.0, 0.0 ],
						"openinpresentation" : 0,
						"default_fontsize" : 12.0,
						"default_fontface" : 0,
						"default_fontname" : "Arial",
						"gridonopen" : 0,
						"gridsize" : [ 15.0, 15.0 ],
						"gridsnaponopen" : 0,
						"toolbarvisible" : 1,
						"boxanimatetime" : 200,
						"imprint" : 0,
						"enablehscroll" : 1,
						"enablevscroll" : 1,
						"devicewidth" : 0.0,
						"boxes" : [ 							{
								"box" : 								{
									"maxclass" : "outlet",
									"numoutlets" : 0,
									"patching_rect" : [ 130.0, 489.0, 15.0, 15.0 ],
									"numinlets" : 1,
									"id" : "obj-1",
									"comment" : ""
								}

							}
, 							{
								"box" : 								{
									"maxclass" : "outlet",
									"numoutlets" : 0,
									"patching_rect" : [ 746.0, 494.0, 15.0, 15.0 ],
									"numinlets" : 1,
									"id" : "obj-2",
									"comment" : ""
								}

							}
, 							{
								"box" : 								{
									"maxclass" : "flonum",
									"numoutlets" : 2,
									"patching_rect" : [ 722.0, 256.0, 35.0, 17.0 ],
									"bgcolor" : [ 0.866667, 0.866667, 0.866667, 1.0 ],
									"outlettype" : [ "float", "bang" ],
									"fontsize" : 9.0,
									"triscale" : 0.9,
									"numinlets" : 1,
									"id" : "obj-3",
									"htextcolor" : [ 0.870588, 0.870588, 0.870588, 1.0 ],
									"fontname" : "Arial"
								}

							}
, 							{
								"box" : 								{
									"maxclass" : "flonum",
									"numoutlets" : 2,
									"patching_rect" : [ 812.0, 258.0, 35.0, 17.0 ],
									"bgcolor" : [ 0.866667, 0.866667, 0.866667, 1.0 ],
									"outlettype" : [ "float", "bang" ],
									"fontsize" : 9.0,
									"triscale" : 0.9,
									"numinlets" : 1,
									"id" : "obj-4",
									"htextcolor" : [ 0.870588, 0.870588, 0.870588, 1.0 ],
									"fontname" : "Arial"
								}

							}
, 							{
								"box" : 								{
									"maxclass" : "newobj",
									"text" : "pack 1. 1.",
									"numoutlets" : 1,
									"patching_rect" : [ 736.0, 309.0, 54.0, 17.0 ],
									"outlettype" : [ "" ],
									"fontsize" : 9.0,
									"numinlets" : 2,
									"id" : "obj-5",
									"fontname" : "Arial"
								}

							}
, 							{
								"box" : 								{
									"maxclass" : "newobj",
									"text" : "scale 0. 1. -1. 1.",
									"numoutlets" : 1,
									"patching_rect" : [ 773.0, 215.0, 86.0, 17.0 ],
									"outlettype" : [ "" ],
									"fontsize" : 9.0,
									"numinlets" : 6,
									"id" : "obj-6",
									"fontname" : "Arial"
								}

							}
, 							{
								"box" : 								{
									"maxclass" : "newobj",
									"text" : "scale 0. 1. -1. 1.",
									"numoutlets" : 1,
									"patching_rect" : [ 674.0, 216.0, 86.0, 17.0 ],
									"outlettype" : [ "" ],
									"fontsize" : 9.0,
									"numinlets" : 6,
									"id" : "obj-7",
									"fontname" : "Arial"
								}

							}
, 							{
								"box" : 								{
									"maxclass" : "newobj",
									"text" : "prepend space lookup",
									"numoutlets" : 1,
									"patching_rect" : [ 630.0, 433.0, 104.0, 17.0 ],
									"outlettype" : [ "" ],
									"fontsize" : 9.0,
									"numinlets" : 1,
									"id" : "obj-8",
									"fontname" : "Arial"
								}

							}
, 							{
								"box" : 								{
									"maxclass" : "outlet",
									"numoutlets" : 0,
									"patching_rect" : [ 624.0, 498.0, 15.0, 15.0 ],
									"numinlets" : 1,
									"id" : "obj-9",
									"comment" : ""
								}

							}
, 							{
								"box" : 								{
									"maxclass" : "newobj",
									"text" : "+ 1",
									"numoutlets" : 1,
									"patching_rect" : [ 413.0, 92.0, 27.0, 17.0 ],
									"outlettype" : [ "int" ],
									"fontsize" : 9.0,
									"numinlets" : 2,
									"id" : "obj-10",
									"fontname" : "Arial"
								}

							}
, 							{
								"box" : 								{
									"maxclass" : "inlet",
									"numoutlets" : 1,
									"patching_rect" : [ 411.0, 54.0, 15.0, 15.0 ],
									"outlettype" : [ "" ],
									"numinlets" : 0,
									"id" : "obj-11",
									"comment" : ""
								}

							}
, 							{
								"box" : 								{
									"maxclass" : "newobj",
									"text" : "deferlow",
									"numoutlets" : 1,
									"patching_rect" : [ 318.0, 502.0, 50.0, 17.0 ],
									"outlettype" : [ "" ],
									"fontsize" : 9.0,
									"numinlets" : 1,
									"id" : "obj-12",
									"fontname" : "Arial"
								}

							}
, 							{
								"box" : 								{
									"maxclass" : "newobj",
									"text" : "speedlim 100",
									"numoutlets" : 1,
									"patching_rect" : [ 325.0, 460.0, 70.0, 17.0 ],
									"outlettype" : [ "" ],
									"fontsize" : 9.0,
									"numinlets" : 2,
									"id" : "obj-13",
									"fontname" : "Arial"
								}

							}
, 							{
								"box" : 								{
									"maxclass" : "outlet",
									"numoutlets" : 0,
									"patching_rect" : [ 561.0, 499.0, 15.0, 15.0 ],
									"numinlets" : 1,
									"id" : "obj-14",
									"comment" : ""
								}

							}
, 							{
								"box" : 								{
									"maxclass" : "number",
									"numoutlets" : 2,
									"patching_rect" : [ 599.0, 260.0, 35.0, 17.0 ],
									"bgcolor" : [ 0.866667, 0.866667, 0.866667, 1.0 ],
									"outlettype" : [ "int", "bang" ],
									"fontsize" : 9.0,
									"triscale" : 0.9,
									"numinlets" : 1,
									"id" : "obj-15",
									"htextcolor" : [ 0.870588, 0.870588, 0.870588, 1.0 ],
									"fontname" : "Arial"
								}

							}
, 							{
								"box" : 								{
									"maxclass" : "newobj",
									"text" : "ali.lemur.padnum",
									"numoutlets" : 1,
									"patching_rect" : [ 581.0, 214.0, 86.0, 17.0 ],
									"outlettype" : [ "" ],
									"fontsize" : 9.0,
									"numinlets" : 1,
									"id" : "obj-16",
									"fontname" : "Arial"
								}

							}
, 							{
								"box" : 								{
									"maxclass" : "newobj",
									"text" : "unpack 1. 1.",
									"numoutlets" : 2,
									"patching_rect" : [ 312.0, 361.0, 64.0, 17.0 ],
									"outlettype" : [ "float", "float" ],
									"fontsize" : 9.0,
									"numinlets" : 1,
									"id" : "obj-17",
									"fontname" : "Arial"
								}

							}
, 							{
								"box" : 								{
									"maxclass" : "newobj",
									"text" : "prepend roof",
									"numoutlets" : 1,
									"patching_rect" : [ 383.0, 401.0, 67.0, 17.0 ],
									"outlettype" : [ "" ],
									"fontsize" : 9.0,
									"numinlets" : 1,
									"id" : "obj-18",
									"fontname" : "Arial"
								}

							}
, 							{
								"box" : 								{
									"maxclass" : "flonum",
									"numoutlets" : 2,
									"patching_rect" : [ 180.0, 302.0, 35.0, 17.0 ],
									"bgcolor" : [ 0.866667, 0.866667, 0.866667, 1.0 ],
									"outlettype" : [ "float", "bang" ],
									"fontsize" : 9.0,
									"triscale" : 0.9,
									"numinlets" : 1,
									"id" : "obj-19",
									"htextcolor" : [ 0.870588, 0.870588, 0.870588, 1.0 ],
									"fontname" : "Arial"
								}

							}
, 							{
								"box" : 								{
									"maxclass" : "flonum",
									"numoutlets" : 2,
									"patching_rect" : [ 270.0, 304.0, 35.0, 17.0 ],
									"bgcolor" : [ 0.866667, 0.866667, 0.866667, 1.0 ],
									"outlettype" : [ "float", "bang" ],
									"fontsize" : 9.0,
									"triscale" : 0.9,
									"numinlets" : 1,
									"id" : "obj-20",
									"htextcolor" : [ 0.870588, 0.870588, 0.870588, 1.0 ],
									"fontname" : "Arial"
								}

							}
, 							{
								"box" : 								{
									"maxclass" : "newobj",
									"text" : "prepend floor",
									"numoutlets" : 1,
									"patching_rect" : [ 310.0, 401.0, 70.0, 17.0 ],
									"outlettype" : [ "" ],
									"fontsize" : 9.0,
									"numinlets" : 1,
									"id" : "obj-21",
									"fontname" : "Arial"
								}

							}
, 							{
								"box" : 								{
									"maxclass" : "newobj",
									"text" : "prepend space lookup",
									"numoutlets" : 1,
									"patching_rect" : [ 189.0, 400.0, 104.0, 17.0 ],
									"outlettype" : [ "" ],
									"fontsize" : 9.0,
									"numinlets" : 1,
									"id" : "obj-22",
									"fontname" : "Arial"
								}

							}
, 							{
								"box" : 								{
									"maxclass" : "newobj",
									"text" : "pack 1. 1.",
									"numoutlets" : 1,
									"patching_rect" : [ 194.0, 355.0, 54.0, 17.0 ],
									"outlettype" : [ "" ],
									"fontsize" : 9.0,
									"numinlets" : 2,
									"id" : "obj-23",
									"fontname" : "Arial"
								}

							}
, 							{
								"box" : 								{
									"maxclass" : "newobj",
									"text" : "scale 0. 1. -1. 1.",
									"numoutlets" : 1,
									"patching_rect" : [ 231.0, 261.0, 86.0, 17.0 ],
									"outlettype" : [ "" ],
									"fontsize" : 9.0,
									"numinlets" : 6,
									"id" : "obj-24",
									"fontname" : "Arial"
								}

							}
, 							{
								"box" : 								{
									"maxclass" : "newobj",
									"text" : "scale 0. 1. -1. 1.",
									"numoutlets" : 1,
									"patching_rect" : [ 132.0, 262.0, 86.0, 17.0 ],
									"outlettype" : [ "" ],
									"fontsize" : 9.0,
									"numinlets" : 6,
									"id" : "obj-25",
									"fontname" : "Arial"
								}

							}
, 							{
								"box" : 								{
									"maxclass" : "newobj",
									"text" : "OSC-route /beatspace/x /beatspace/y /probspace/x /probspace/y /prob_range/x /preset /envspace/x /envspace/y /play/x",
									"linecount" : 2,
									"numoutlets" : 10,
									"patching_rect" : [ 32.0, 146.0, 313.0, 27.0 ],
									"outlettype" : [ "", "", "", "", "", "", "", "", "", "" ],
									"fontsize" : 9.0,
									"numinlets" : 1,
									"id" : "obj-26",
									"fontname" : "Arial"
								}

							}
, 							{
								"box" : 								{
									"maxclass" : "toggle",
									"numoutlets" : 1,
									"patching_rect" : [ 222.0, 56.0, 15.0, 15.0 ],
									"outlettype" : [ "int" ],
									"numinlets" : 1,
									"id" : "obj-27"
								}

							}
, 							{
								"box" : 								{
									"maxclass" : "newobj",
									"text" : "ali.pe 1",
									"numoutlets" : 0,
									"patching_rect" : [ 206.0, 102.0, 43.0, 17.0 ],
									"fontsize" : 9.0,
									"numinlets" : 2,
									"id" : "obj-28",
									"fontname" : "Arial"
								}

							}
, 							{
								"box" : 								{
									"maxclass" : "inlet",
									"numoutlets" : 1,
									"patching_rect" : [ 190.0, 56.0, 15.0, 15.0 ],
									"outlettype" : [ "" ],
									"numinlets" : 0,
									"id" : "obj-29",
									"comment" : ""
								}

							}
 ],
						"lines" : [ 							{
								"patchline" : 								{
									"source" : [ "obj-6", 0 ],
									"destination" : [ "obj-4", 0 ],
									"hidden" : 0,
									"midpoints" : [  ]
								}

							}
, 							{
								"patchline" : 								{
									"source" : [ "obj-6", 0 ],
									"destination" : [ "obj-5", 1 ],
									"hidden" : 0,
									"midpoints" : [  ]
								}

							}
, 							{
								"patchline" : 								{
									"source" : [ "obj-26", 7 ],
									"destination" : [ "obj-6", 0 ],
									"hidden" : 0,
									"midpoints" : [  ]
								}

							}
, 							{
								"patchline" : 								{
									"source" : [ "obj-26", 8 ],
									"destination" : [ "obj-2", 0 ],
									"hidden" : 0,
									"midpoints" : [ 879.0, 195.0, 879.0, 281.0 ]
								}

							}
, 							{
								"patchline" : 								{
									"source" : [ "obj-7", 0 ],
									"destination" : [ "obj-5", 0 ],
									"hidden" : 0,
									"midpoints" : [  ]
								}

							}
, 							{
								"patchline" : 								{
									"source" : [ "obj-7", 0 ],
									"destination" : [ "obj-3", 0 ],
									"hidden" : 0,
									"midpoints" : [  ]
								}

							}
, 							{
								"patchline" : 								{
									"source" : [ "obj-26", 6 ],
									"destination" : [ "obj-7", 0 ],
									"hidden" : 0,
									"midpoints" : [  ]
								}

							}
, 							{
								"patchline" : 								{
									"source" : [ "obj-5", 0 ],
									"destination" : [ "obj-8", 0 ],
									"hidden" : 0,
									"midpoints" : [  ]
								}

							}
, 							{
								"patchline" : 								{
									"source" : [ "obj-8", 0 ],
									"destination" : [ "obj-9", 0 ],
									"hidden" : 0,
									"midpoints" : [  ]
								}

							}
, 							{
								"patchline" : 								{
									"source" : [ "obj-16", 0 ],
									"destination" : [ "obj-15", 0 ],
									"hidden" : 0,
									"midpoints" : [  ]
								}

							}
, 							{
								"patchline" : 								{
									"source" : [ "obj-26", 5 ],
									"destination" : [ "obj-16", 0 ],
									"hidden" : 0,
									"midpoints" : [  ]
								}

							}
, 							{
								"patchline" : 								{
									"source" : [ "obj-16", 0 ],
									"destination" : [ "obj-14", 0 ],
									"hidden" : 0,
									"midpoints" : [  ]
								}

							}
, 							{
								"patchline" : 								{
									"source" : [ "obj-11", 0 ],
									"destination" : [ "obj-10", 0 ],
									"hidden" : 0,
									"midpoints" : [  ]
								}

							}
, 							{
								"patchline" : 								{
									"source" : [ "obj-17", 1 ],
									"destination" : [ "obj-18", 0 ],
									"hidden" : 0,
									"midpoints" : [  ]
								}

							}
, 							{
								"patchline" : 								{
									"source" : [ "obj-13", 0 ],
									"destination" : [ "obj-12", 0 ],
									"hidden" : 0,
									"midpoints" : [  ]
								}

							}
, 							{
								"patchline" : 								{
									"source" : [ "obj-26", 4 ],
									"destination" : [ "obj-17", 0 ],
									"hidden" : 0,
									"midpoints" : [ 510.0, 235.0 ]
								}

							}
, 							{
								"patchline" : 								{
									"source" : [ "obj-17", 0 ],
									"destination" : [ "obj-21", 0 ],
									"hidden" : 0,
									"midpoints" : [  ]
								}

							}
, 							{
								"patchline" : 								{
									"source" : [ "obj-24", 0 ],
									"destination" : [ "obj-20", 0 ],
									"hidden" : 0,
									"midpoints" : [  ]
								}

							}
, 							{
								"patchline" : 								{
									"source" : [ "obj-27", 0 ],
									"destination" : [ "obj-28", 1 ],
									"hidden" : 0,
									"midpoints" : [  ]
								}

							}
, 							{
								"patchline" : 								{
									"source" : [ "obj-24", 0 ],
									"destination" : [ "obj-23", 1 ],
									"hidden" : 0,
									"midpoints" : [  ]
								}

							}
, 							{
								"patchline" : 								{
									"source" : [ "obj-26", 3 ],
									"destination" : [ "obj-24", 0 ],
									"hidden" : 0,
									"midpoints" : [  ]
								}

							}
, 							{
								"patchline" : 								{
									"source" : [ "obj-29", 0 ],
									"destination" : [ "obj-28", 0 ],
									"hidden" : 0,
									"midpoints" : [  ]
								}

							}
, 							{
								"patchline" : 								{
									"source" : [ "obj-25", 0 ],
									"destination" : [ "obj-23", 0 ],
									"hidden" : 0,
									"midpoints" : [  ]
								}

							}
, 							{
								"patchline" : 								{
									"source" : [ "obj-23", 0 ],
									"destination" : [ "obj-22", 0 ],
									"hidden" : 0,
									"midpoints" : [  ]
								}

							}
, 							{
								"patchline" : 								{
									"source" : [ "obj-25", 0 ],
									"destination" : [ "obj-19", 0 ],
									"hidden" : 0,
									"midpoints" : [  ]
								}

							}
, 							{
								"patchline" : 								{
									"source" : [ "obj-26", 2 ],
									"destination" : [ "obj-25", 0 ],
									"hidden" : 0,
									"midpoints" : [  ]
								}

							}
, 							{
								"patchline" : 								{
									"source" : [ "obj-22", 0 ],
									"destination" : [ "obj-1", 0 ],
									"hidden" : 0,
									"midpoints" : [  ]
								}

							}
, 							{
								"patchline" : 								{
									"source" : [ "obj-29", 0 ],
									"destination" : [ "obj-26", 0 ],
									"hidden" : 0,
									"midpoints" : [  ]
								}

							}
 ]
					}
,
					"saved_object_attributes" : 					{
						"default_fontsize" : 12.0,
						"globalpatchername" : "",
						"fontface" : 0,
						"fontsize" : 12.0,
						"default_fontface" : 0,
						"default_fontname" : "Arial",
						"fontname" : "Arial"
					}

				}

			}
, 			{
				"box" : 				{
					"maxclass" : "newobj",
					"text" : "pvar lemurin",
					"numoutlets" : 1,
					"patching_rect" : [ 1062.0, 66.0, 68.0, 17.0 ],
					"outlettype" : [ "" ],
					"fontsize" : 9.0,
					"hidden" : 1,
					"numinlets" : 1,
					"id" : "obj-10",
					"fontname" : "Arial",
					"color" : [ 1.0, 0.360784, 0.682353, 1.0 ]
				}

			}
, 			{
				"box" : 				{
					"maxclass" : "bpatcher",
					"varname" : "ali.pattr-interp-helper2[3]",
					"numoutlets" : 2,
					"patching_rect" : [ 408.0, 149.0, 184.0, 166.0 ],
					"presentation" : 1,
					"offset" : [ -4.0, -141.0 ],
					"outlettype" : [ "list", "" ],
					"name" : "ali.dc-space-gui.maxpat",
					"presentation_rect" : [ 11.0, 5.0, 184.0, 166.0 ],
					"args" : [  ],
					"lockeddragscroll" : 1,
					"numinlets" : 1,
					"id" : "obj-29"
				}

			}
 ],
		"lines" : [ 			{
				"patchline" : 				{
					"source" : [ "obj-19", 9 ],
					"destination" : [ "obj-17", 0 ],
					"hidden" : 0,
					"midpoints" : [  ]
				}

			}
, 			{
				"patchline" : 				{
					"source" : [ "obj-19", 8 ],
					"destination" : [ "obj-16", 0 ],
					"hidden" : 0,
					"midpoints" : [  ]
				}

			}
, 			{
				"patchline" : 				{
					"source" : [ "obj-19", 7 ],
					"destination" : [ "obj-14", 0 ],
					"hidden" : 0,
					"midpoints" : [  ]
				}

			}
, 			{
				"patchline" : 				{
					"source" : [ "obj-19", 6 ],
					"destination" : [ "obj-11", 0 ],
					"hidden" : 0,
					"midpoints" : [  ]
				}

			}
, 			{
				"patchline" : 				{
					"source" : [ "obj-19", 5 ],
					"destination" : [ "obj-8", 0 ],
					"hidden" : 0,
					"midpoints" : [  ]
				}

			}
, 			{
				"patchline" : 				{
					"source" : [ "obj-19", 4 ],
					"destination" : [ "obj-7", 0 ],
					"hidden" : 0,
					"midpoints" : [  ]
				}

			}
, 			{
				"patchline" : 				{
					"source" : [ "obj-19", 3 ],
					"destination" : [ "obj-4", 0 ],
					"hidden" : 0,
					"midpoints" : [  ]
				}

			}
, 			{
				"patchline" : 				{
					"source" : [ "obj-19", 2 ],
					"destination" : [ "obj-3", 0 ],
					"hidden" : 0,
					"midpoints" : [  ]
				}

			}
, 			{
				"patchline" : 				{
					"source" : [ "obj-19", 1 ],
					"destination" : [ "obj-2", 0 ],
					"hidden" : 0,
					"midpoints" : [  ]
				}

			}
, 			{
				"patchline" : 				{
					"source" : [ "obj-19", 0 ],
					"destination" : [ "obj-1", 0 ],
					"hidden" : 0,
					"midpoints" : [  ]
				}

			}
, 			{
				"patchline" : 				{
					"source" : [ "obj-52", 0 ],
					"destination" : [ "obj-29", 0 ],
					"hidden" : 0,
					"midpoints" : [ 891.5, 360.0, 398.0, 360.0, 398.0, 136.0, 417.5, 136.0 ]
				}

			}
, 			{
				"patchline" : 				{
					"source" : [ "obj-29", 0 ],
					"destination" : [ "obj-19", 0 ],
					"hidden" : 0,
					"midpoints" : [  ]
				}

			}
, 			{
				"patchline" : 				{
					"source" : [ "obj-6", 0 ],
					"destination" : [ "obj-9", 1 ],
					"hidden" : 1,
					"midpoints" : [  ]
				}

			}
, 			{
				"patchline" : 				{
					"source" : [ "obj-9", 0 ],
					"destination" : [ "obj-5", 0 ],
					"hidden" : 1,
					"midpoints" : [  ]
				}

			}
, 			{
				"patchline" : 				{
					"source" : [ "obj-10", 0 ],
					"destination" : [ "obj-9", 0 ],
					"hidden" : 1,
					"midpoints" : [  ]
				}

			}
 ],
		"parameters" : 		{
			"obj-16::obj-2::obj-15::obj-14" : [ "live-path[2]", "live-path", 0 ],
			"obj-1::obj-15" : [ "live.toggle[9]", "live.toggle", 0 ],
			"obj-4::obj-1::obj-19::obj-19" : [ "saved-int[13]", "saved-int", 0 ],
			"obj-2::obj-7::obj-19::obj-19" : [ "saved-int[17]", "saved-int", 0 ],
			"obj-7::obj-2::obj-15::obj-14" : [ "live-path[10]", "live-path", 0 ],
			"obj-8::obj-7::obj-19::obj-19" : [ "saved-int[8]", "saved-int", 0 ],
			"obj-8::obj-15" : [ "live.toggle[4]", "live.toggle", 0 ],
			"obj-52::obj-23::obj-8" : [ "live.text[1]", "live.text", 0 ],
			"obj-8::obj-7::obj-16::obj-14" : [ "live-path[9]", "live-path", 0 ],
			"obj-52::obj-23::obj-48" : [ "x lookup[1]", "x", 0 ],
			"obj-3::obj-1::obj-19::obj-19" : [ "saved-int[15]", "saved-int", 0 ],
			"obj-1::obj-1::obj-19::obj-19" : [ "saved-int[18]", "saved-int", 0 ],
			"obj-4::obj-15" : [ "live.toggle[6]", "live.toggle", 0 ],
			"obj-16::obj-7::obj-19::obj-19" : [ "saved-int[3]", "saved-int", 0 ],
			"obj-52::obj-23::obj-20" : [ "live.menu", "live.menu", 0 ],
			"obj-2::obj-7::obj-16::obj-14" : [ "live-path[17]", "live-path", 0 ],
			"obj-11::obj-2::obj-15::obj-14" : [ "live-path[6]", "live-path", 0 ],
			"obj-14::obj-1::obj-19::obj-19" : [ "saved-int[4]", "saved-int", 0 ],
			"obj-17::obj-7::obj-16::obj-14" : [ "live-path", "live-path", 0 ],
			"obj-52::obj-23::obj-5" : [ "x lookup", "live.text", 0 ],
			"obj-7::obj-7::obj-19::obj-19" : [ "saved-int[10]", "saved-int", 0 ],
			"obj-3::obj-2::obj-15::obj-14" : [ "live-path[14]", "live-path", 0 ],
			"obj-14::obj-15" : [ "live.toggle[2]", "live.toggle", 0 ],
			"obj-17::obj-7::obj-19::obj-19" : [ "saved-int", "saved-int", 0 ],
			"obj-11::obj-15" : [ "live.toggle[3]", "live.toggle", 0 ],
			"obj-1::obj-7::obj-16::obj-14" : [ "live-path[19]", "live-path", 0 ],
			"obj-4::obj-2::obj-15::obj-14" : [ "live-path[13]", "live-path", 0 ],
			"obj-2::obj-15" : [ "live.toggle[8]", "live.toggle", 0 ],
			"obj-52::obj-23::obj-47" : [ "y lookup", "y", 0 ],
			"obj-7::obj-15" : [ "live.toggle[5]", "live.toggle", 0 ],
			"obj-11::obj-7::obj-19::obj-19" : [ "saved-int[6]", "saved-int", 0 ],
			"obj-52::obj-23::obj-7" : [ "ali.some-rbfs.json", "ali.some-rbfs.json", 0 ],
			"obj-8::obj-2::obj-15::obj-14" : [ "live-path[8]", "live-path", 0 ],
			"obj-14::obj-7::obj-19::obj-19" : [ "saved-int[5]", "saved-int", 0 ],
			"obj-8::obj-1::obj-19::obj-19" : [ "saved-int[9]", "saved-int", 0 ],
			"obj-3::obj-15" : [ "live.toggle[7]", "live.toggle", 0 ],
			"obj-52::obj-11" : [ "pattrfilename", "pattrfilename", 0 ],
			"obj-1::obj-2::obj-15::obj-14" : [ "live-path[18]", "live-path", 0 ],
			"obj-4::obj-7::obj-19::obj-19" : [ "saved-int[12]", "saved-int", 0 ],
			"obj-16::obj-7::obj-16::obj-14" : [ "live-path[3]", "live-path", 0 ],
			"obj-2::obj-1::obj-19::obj-19" : [ "saved-int[16]", "saved-int", 0 ],
			"obj-11::obj-1::obj-19::obj-19" : [ "saved-int[7]", "saved-int", 0 ],
			"obj-14::obj-2::obj-15::obj-14" : [ "live-path[5]", "live-path", 0 ],
			"obj-7::obj-1::obj-19::obj-19" : [ "saved-int[11]", "saved-int", 0 ],
			"obj-3::obj-7::obj-16::obj-14" : [ "live-path[15]", "live-path", 0 ],
			"obj-4::obj-7::obj-16::obj-14" : [ "live-path[12]", "live-path", 0 ],
			"obj-16::obj-1::obj-19::obj-19" : [ "saved-int[2]", "saved-int", 0 ],
			"obj-17::obj-15" : [ "live.toggle", "live.toggle", 0 ],
			"obj-1::obj-7::obj-19::obj-19" : [ "saved-int[19]", "saved-int", 0 ],
			"obj-16::obj-15" : [ "live.toggle[1]", "live.toggle", 0 ],
			"obj-2::obj-2::obj-15::obj-14" : [ "live-path[16]", "live-path", 0 ],
			"obj-14::obj-7::obj-16::obj-14" : [ "live-path[4]", "live-path", 0 ],
			"obj-7::obj-7::obj-16::obj-14" : [ "live-path[11]", "live-path", 0 ],
			"obj-11::obj-7::obj-16::obj-14" : [ "live-path[7]", "live-path", 0 ],
			"obj-3::obj-7::obj-19::obj-19" : [ "saved-int[14]", "saved-int", 0 ],
			"obj-17::obj-1::obj-19::obj-19" : [ "saved-int[1]", "saved-int", 0 ],
			"obj-52::obj-23::obj-14" : [ "y lookup[1]", "y", 0 ],
			"obj-17::obj-2::obj-15::obj-14" : [ "live-path[1]", "live-path", 0 ]
		}

	}

}
