max v2;#N vpatcher 119 113 900 700;#P flonum 534 204 35 9 0 0 0 3 0 0 0 221 221 221 222 222 222 0 0 0;#P flonum 471 209 35 9 0 0 0 3 0 0 0 221 221 221 222 222 222 0 0 0;#P newex 472 179 62 196617 unpack 1. 1.;#P message 241 392 17 196617 1.;#P newex 241 370 33 196617 sel 0.;#P newex 242 449 27 196617 * 1.;#P newex 194 350 58 196617 unpack s 1.;#P newex 194 482 139 196617 sprintf note %s %f %f 0. %s;#P newex 494 87 30 196617 sel 0;#P message 494 61 222 196617 $1;#P newex 494 35 45 196617 loadbang;#P newex 326 138 70 196617 prepend refer;#P message 145 209 14 196617 3;#P message 166 209 17 196617 2.;#P newex 145 180 45 196617 loadbang;#N comlet (list) connect to poly~ play~-sampler.voi n;#P outlet 194 539 15 0;#P user GSwitch2 439 383 39 32 0 0;#P inlet 194 30 15 0;#P newex 194 49 271 196617 osc-route /go /position /mix-this-many /distance-order /coordinates-collection /gain /trans /output-channel;#P flonum 257 207 35 9 0 0 0 3 0 0 0 221 221 221 222 222 222 0 0 0;#P message 468 453 85 196617 57-09.aiff 0.47142 57-08.aiff 0.52858;#P newex 468 425 60 196617 prepend set;#P toggle 386 441 15 0;#P newex 261 518 135 196617 print-everything to-sampler;#P newex 194 326 49 196617 listiter 2;#P number 215 206 35 9 0 0 0 3 0 0 0 221 221 221 222 222 222 0 0 0;#P newex 194 108 38 196617 listreg;#P newex 194 285 75 196617 get-distances;#P comment 54 394 185 196617 in case we're only takin one sample......;#P connect 14 0 16 0;#P connect 14 0 15 0;#P connect 11 0 10 0;#P connect 10 0 2 0;#P connect 2 0 1 0;#P connect 1 0 4 0;#P connect 4 0 22 0;#P connect 22 0 21 0;#P connect 21 0 13 0;#P connect 10 2 3 0;#P connect 16 0 3 0;#P connect 3 0 1 1;#P connect 10 1 2 1;#P connect 9 0 1 2;#P connect 23 0 21 1;#P connect 22 1 24 0;#P connect 24 0 25 0;#P connect 24 1 23 0;#P connect 25 0 23 0;#P connect 10 3 9 0;#P connect 15 0 9 0;#P fasten 17 0 1 3 331 268;#P fasten 10 5 23 1 364 286;#P connect 21 0 5 0;#P fasten 10 6 21 2 397 312;#P fasten 10 7 21 3 430 343;#P connect 10 4 17 0;#P connect 20 1 17 0;#P connect 6 0 5 1;#P connect 1 0 12 1;#P connect 12 1 7 0;#P connect 7 0 8 0;#P connect 26 0 27 0;#P connect 10 1 26 0;#P connect 18 0 19 0;#P connect 19 0 20 0;#P connect 26 1 28 0;#P pop;