max v2;#N vpatcher 10 59 1154 825;#P button 132 440 15 0;#P user jit.cellblock 24 479 160 531 3 9 3 1 45 17 0 1 1 0 0 0 0 0 5 0 0 0 255 255 255 0 0 0 0 0 0 191 191 191 0 0 0 215 215 240 1 1 1 0 4 0 0 0;#P newex 24 536 20 196617 t b;#P newex 24 559 115 196617 jit.matrix 1 float32 3 1;#P user jit.fpsgui 455 612 60 196617 3;#P button 137 500 15 0;#P comment 337 473 85 196617 what is it??!?!?!;#P comment 336 458 145 196617 throw away last column;#P comment 364 269 145 196617 keep just coordinates of points;#P comment 772 520 77 196626 rotated point;#P comment 620 523 89 196626 rotation matrix;#P comment 520 523 69 196626 original point;#P comment 455 420 254 196626 e.g. to rotate around x axix:;#P comment 784 502 19 196617 z1';#P comment 784 482 20 196617 y1';#P comment 784 462 20 196617 x1';#P comment 736 483 35 196617 =;#P comment 681 503 34 196617 cos A;#P comment 681 483 35 196617 -sin A;#P comment 681 463 20 196617 0;#P comment 638 503 35 196617 sin A;#P comment 638 483 34 196617 cos A;#P comment 638 463 20 196617 0;#P comment 609 503 19 196617 0;#P comment 609 483 20 196617 0;#P comment 609 463 20 196617 1;#P comment 541 502 19 196617 z1;#P comment 541 482 20 196617 y1;#P comment 382 598 61 196617 (in radians);#P comment 343 585 31 196617 z rot;#P comment 302 585 32 196617 y rot;#P flonum 341 596 35 9 0 0 64 3 0 0 0 221 221 221 222 222 222 0 0 0;#P user jit.cellblock 911 670 1065 738 3 9 3 3 45 17 0 1 1 0 1 1 1 1 1 0 0 0 255 255 255 0 0 0 0 0 0 191 191 191 0 0 0 215 215 240 1 1 1 0 4 0 0 0;#P user jit.cellblock 294 669 448 737 3 9 1 3 45 17 0 1 1 0 1 1 1 1 1 0 0 0 255 255 255 0 0 0 0 0 0 191 191 191 0 0 0 215 215 240 1 1 1 0 4 0 0 0;#P user jit.cellblock 469 671 674 759 3 9 3 3 45 17 0 1 1 0 1 1 1 1 1 0 0 0 255 255 255 0 0 0 0 0 0 191 191 191 0 0 0 215 215 240 1 1 1 0 4 0 0 0;#P user jit.cellblock 756 670 910 738 3 9 3 3 45 17 0 1 1 0 1 1 1 1 1 0 0 0 255 255 255 0 0 0 0 0 0 191 191 191 0 0 0 215 215 240 1 1 1 0 4 0 0 0;#P flonum 300 596 35 9 0 0 64 3 0 0 0 221 221 221 222 222 222 0 0 0;#P newex 113 716 45 196617 jit.print;#B color 5;#P flonum 261 596 35 9 0 0 64 3 0 0 0 221 221 221 222 222 222 0 0 0;#P newex 200 674 54 196617 jit.la.mult;#N vpatcher 48 212 1288 826;#P newex 278 289 27 196617 f;#P newex 192 289 27 196617 f;#P newex 878 403 185 196617 pack 0. 0. 0. 0. 0. 0. 0. 0. 1. 0. 0. 0. 1.;#P newex 843 164 29 196617 t b b;#P newex 803 455 29 196617 grab;#P newex 903 319 33 196617 * -1.;#P newex 828 126 40 196617 t b b f;#P newex 910 232 29 196617 grab;#P newex 868 232 29 196617 grab;#P newex 1013 232 29 196617 grab;#P newex 960 232 29 196617 grab;#P newex 878 438 75 196617 jit.fill $0z-rot;#P newex 878 495 155 196617 jit.matrix $0z-rot 1 float32 3 3;#P newex 1107 309 27 196617 f;#P newex 1055 309 27 196617 f;#P newex 1144 237 21 196617 sin;#P newex 1090 237 23 196617 cos;#N comlet z rot matrix;#P outlet 825 538 15 0;#N comlet z rot angle (radians);#P inlet 844 42 15 0;#P newex 511 402 185 196617 pack 0. 0. 0. 0. 1. 0. 0. 0. 0. 0. 0. 0. 1.;#P newex 476 163 29 196617 t b b;#P newex 436 454 29 196617 grab;#P newex 588 318 33 196617 * -1.;#P newex 461 125 40 196617 t b b f;#P newex 543 231 29 196617 grab;#P newex 501 231 29 196617 grab;#P newex 646 231 29 196617 grab;#P newex 593 231 29 196617 grab;#P newex 511 437 75 196617 jit.fill $0y-rot;#P newex 511 494 158 196617 jit.matrix $0y-rot 1 float32 3 3;#P newex 740 308 27 196617 f;#P newex 688 308 27 196617 f;#P newex 777 236 21 196617 sin;#P newex 723 236 23 196617 cos;#P newex 141 383 135 196617 pack 1. 0. 0. 0. 0. 0. 0. 0. 0.;#P newex 106 144 29 196617 t b b;#P newex 66 435 29 196617 grab;#N comlet x rot matrix;#P outlet 141 529 15 0;#N comlet y rot matrix;#P outlet 458 537 15 0;#P newex 278 316 33 196617 * -1.;#P newex 91 106 40 196617 t b b f;#P newex 141 418 75 196617 jit.fill $0x-rot;#P newex 141 475 158 196617 jit.matrix $0x-rot 1 float32 3 3;#P newex 368 289 27 196617 f;#P newex 233 289 27 196617 f;#P newex 407 217 21 196617 sin;#P newex 353 217 23 196617 cos;#N comlet y rot angle (radians);#P inlet 477 41 15 0;#N comlet x rot angle (radians);#P inlet 113 55 15 0;#P connect 8 0 12 0;#P connect 0 0 8 0;#P connect 8 1 13 0;#P connect 13 0 14 0;#P connect 14 0 7 0;#P connect 12 1 6 0;#P connect 7 0 6 0;#P connect 12 0 11 0;#P connect 13 1 47 0;#P connect 47 0 14 4;#P connect 2 0 47 1;#P connect 9 0 14 5;#P connect 13 1 4 0;#P connect 5 0 14 7;#P connect 2 0 4 1;#P connect 4 0 14 8;#P connect 13 1 48 0;#P connect 48 0 9 0;#P connect 3 0 48 1;#P connect 8 2 2 0;#P connect 13 1 5 0;#P connect 3 0 5 1;#P connect 8 2 3 0;#P connect 25 0 27 0;#P connect 27 0 10 0;#P connect 1 0 25 0;#P connect 25 1 28 0;#P connect 28 1 23 0;#P connect 23 0 29 0;#P connect 29 0 20 0;#P connect 27 1 19 0;#P connect 20 0 19 0;#P connect 24 0 29 2;#P connect 28 1 24 0;#P connect 21 0 26 0;#P connect 28 1 21 0;#P connect 26 0 29 6;#P connect 22 0 29 8;#P connect 28 1 22 0;#P connect 22 1 17 0;#P connect 23 1 17 0;#P connect 15 0 17 1;#P connect 25 2 15 0;#P connect 21 1 18 0;#P connect 24 1 18 0;#P connect 16 0 18 1;#P connect 25 2 16 0;#P connect 42 0 44 0;#P connect 44 0 31 0;#P connect 30 0 42 0;#P connect 42 1 45 0;#P connect 45 1 40 0;#P connect 40 0 46 0;#P connect 46 0 37 0;#P connect 37 0 36 0;#P connect 44 1 36 0;#P connect 43 0 46 1;#P connect 41 0 43 0;#P connect 45 1 41 0;#P connect 38 0 46 3;#P connect 39 0 46 4;#P connect 45 1 38 0;#P connect 45 1 39 0;#P connect 40 1 34 0;#P connect 39 1 34 0;#P connect 32 0 34 1;#P connect 42 2 32 0;#P connect 41 1 35 0;#P connect 38 1 35 0;#P connect 33 0 35 1;#P connect 42 2 33 0;#P pop;#P newobj 261 623 89 196617 p rotation-matrix;#P newex 200 561 175 196617 jit.matrix $0one-point 1 float32 1 3;#B color 5;#P newex 200 527 94 196617 jit.fill $0one-point;#B color 5;#P newex 200 498 40 196617 jit.iter;#B color 5;#P newex 249 396 27 196617 - 1;#P number 331 368 35 9 0 0 0 3 0 0 0 221 221 221 222 222 222 0 0 0;#P message 249 427 65 196617 splitpoint \$1;#P newex 232 456 99 196617 jit.split @splitdim 0;#B color 5;#P newex 200 294 40 196617 jit.thin;#B color 5;#P newex 232 318 27 196617 t l l;#B color 5;#P newex 249 374 52 196617 route dim;#P newex 249 347 71 196617 jit.matrixinfo;#B color 5;#P newex 200 267 161 196617 jit.split @splitdim 1 @splitpoint 1;#B color 5;#P toggle 736 270 15 0;#P message 736 288 55 196617 floating \$1;#P toggle 663 270 15 0;#P newex 624 269 35 196617 sel 27;#P message 663 288 68 196617 fullscreen \$1;#P newex 581 312 145 196617 jit.window foo @depthbuffer 1;#P newex 579 269 40 196617 key;#P newex 200 239 52 196617 jit.pack 3;#P button 332 44 68 0;#P newex 200 199 170 196617 jit.unpack 12;#P newex 200 80 71 196617 prepend shape;#P user ubumenu 200 54 72 196617 0 1 1 0;#X add sphere;#X add torus;#X add cylinder;#X add opencylinder;#X add cube;#X add opencube;#X add plane;#X add circle;#X prefix_set 0 0 <none> 0;#P newex 529 93 87 196617 jit.gl.handle foo @depth_enable 1 @radius 2.;#P number 109 25 35 9 0 0 0 3 0 0 0 221 221 221 222 222 222 0 0 0;#P message 109 53 54 196617 dim \$1 \$1;#P user jit.fpsgui 63 162 60 196617 0;#P newex 19 74 43 196617 jit.qball;#P number 64 25 35 9 0 0 0 3 0 0 0 221 221 221 222 222 222 0 0 0;#P toggle 19 25 15 0;#P newex 19 51 55 196617 metro 20;#P newex 19 105 55 196617 t b erase b;#P newex 200 166 275 196617 jit.gl.gridshape foo @shape circle @matrixoutput 1 @axis 1;#B color 5;#P newex 19 439 81 196617 jit.gl.render foo;#P comment 264 585 32 196617 x rot;#P comment 541 462 20 196617 x1;#P comment 579 468 13 196626 .;#P comment 455 383 197 196626 what i'm trying to do:;#P comment 256 243 141 196617 throw away color \, blaw blaw;#P connect 9 0 8 0;#P connect 8 0 11 0;#P connect 11 0 7 0;#P connect 6 0 5 0;#P connect 7 0 5 0;#P fasten 7 1 5 0 46 133 24 133;#P fasten 77 0 79 0 29 581 164 581 164 473 29 473;#P connect 80 0 79 0;#P fasten 79 0 78 0 29 534 29 534;#P fasten 78 0 77 0 29 568 29 568;#P connect 7 2 12 0;#P connect 10 0 8 1;#P connect 14 0 13 0;#P connect 41 0 43 0;#P connect 39 0 43 0;#P connect 33 0 75 0;#P fasten 16 1 17 0 236 75 205 75;#P fasten 13 0 6 0 114 129 205 129;#P connect 17 0 6 0;#P fasten 15 0 6 0 534 150 205 150;#P fasten 19 0 6 0 337 130 205 130;#P connect 6 0 18 0;#P connect 18 0 20 0;#P connect 20 0 28 0;#P connect 28 0 32 0;#P connect 33 0 37 0;#P connect 32 0 37 0;#P connect 37 0 38 0;#P connect 38 0 39 0;#P fasten 77 0 41 0 29 633;#P connect 39 0 41 0;#P connect 18 1 20 1;#P connect 31 0 33 0;#P connect 34 0 33 0;#P connect 18 2 20 2;#P connect 40 0 41 1;#P connect 31 1 29 0;#P connect 29 0 30 0;#P connect 30 0 36 0;#P connect 36 0 34 0;#P connect 42 0 40 0;#P fasten 41 0 47 0 253 719;#P connect 44 0 40 1;#P connect 30 0 35 0;#P connect 49 0 40 2;#P fasten 40 0 76 0 324 653;#P connect 40 0 46 0;#P fasten 26 0 22 0 741 307 586 307;#P fasten 23 0 22 0 668 307 586 307;#P fasten 21 0 24 0 584 288 621 288 621 267 629 267;#P fasten 24 0 25 0 629 287 660 287 660 267 668 267;#P connect 25 0 23 0;#P connect 27 0 26 0;#P connect 40 1 45 0;#P connect 40 2 48 0;#P pop;