max v2;#N vpatcher 139 40 839 753;#P newex 193 48 65 196617 loadbanger 3;#P newex 466 27 65 196617 loadbanger 2;#P toggle 545 602 15 0;#P toggle 553 557 15 0;#P newex 464 621 93 196617 print-everything 2;#P newex 471 583 93 196617 print-everything 1;#P newex 78 336 27 196617 - 1;#N comlet (stuff) to coll;#P inlet 603 27 15 0;#P newex 538 47 50 196617 t f f;#P flonum 614 155 35 9 0 0 0 3 0 0 0 221 221 221 222 222 222 0 0 0;#P newex 578 115 53 196617 Linvert 1.;#N comlet (int) order distance calculartion;#P inlet 538 27 15 0;#P newex 285 647 48 196617 group 10;#P newex 285 624 25 196617 iter;#P newex 285 603 48 196617 pack s 1.;#P newex 285 481 61 196617 prepend list;#P newex 193 478 27 196617 * 2;#P newex 285 542 31 196617 Lpair;#P newex 359 452 42 196617 group 5;#P newex 193 407 27 196617 t i i;#N vpatcher 40 55 440 355;#P newex 135 81 53 196617 Linvert 1.;#P newex 135 167 27 196617 Ldiv;#P newex 151 145 31 196617 Lsum;#P newex 134 123 27 196617 t l l;#P outlet 135 225 15 0;#P inlet 135 54 15 0;#P connect 5 0 2 0;#P connect 0 0 5 0;#P connect 2 0 4 0;#P connect 4 0 1 0;#P connect 2 1 3 0;#P connect 3 0 4 1;#P pop;#P newobj 359 481 113 196617 p list-invert-normalize;#P newex 285 398 58 196617 unpack s 1.;#P newex 109 200 27 196617 b;#P message 81 275 51 196617 renumber;#P newex 224 259 27 196617 int;#P outlet 285 673 15 0;#P newex 285 453 42 196617 group 5;#N comlet (int) take top this many;#P inlet 193 27 15 0;#P newex 48 310 40 196617 uzi 5;#P message 109 251 50 196617 sort -1 2;#P newex 95 49 66 196617 t b b b l b;#P newex 222 156 62 196617 unpack 1. 1.;#P message 151 230 31 196617 clear;#P newex 224 229 37 196617 t b s;#P newex 224 300 65 196617 pack 1 s 1.;#N coll distances;#P newobj 224 343 69 196617 coll distances;#P newex 278 254 335 196617 expr pow(abs(pow(($f1-$f2)\\\,$f5)) + abs(pow(($f3-$f4)\\\,$f5))\\\,$f6);#N comlet (list) position [0.-127. \, 0.-127.];#P inlet 95 27 15 0;#P newex 342 151 70 196617 unpack s 1. 1.;#N coll RageCrowds.space.coll;#P newobj 342 129 178 196617 coll 1041timbre-space-collection;#P message 342 88 31 196617 dump;#P connect 10 0 12 0;#P fasten 13 0 12 1 198 270;#P connect 12 2 34 0;#P connect 18 0 17 0;#P connect 3 0 10 0;#P connect 10 1 18 0;#P connect 18 1 11 0;#P connect 10 4 8 0;#P connect 13 0 21 0;#P connect 40 0 21 0;#P connect 21 0 24 0;#P connect 10 3 9 0;#P connect 2 0 7 0;#P connect 7 0 16 0;#P connect 16 0 6 0;#P connect 34 0 5 0;#P connect 17 0 5 0;#P connect 8 0 5 0;#P connect 11 0 5 0;#P connect 6 0 5 0;#P connect 1 1 16 1;#P connect 7 1 6 1;#P connect 2 1 4 0;#P connect 4 0 6 2;#P connect 5 0 19 0;#P connect 19 0 14 0;#P connect 14 0 25 0;#P connect 25 0 23 0;#P connect 23 0 26 0;#P connect 26 0 27 0;#P connect 27 0 28 0;#P connect 28 0 15 0;#P connect 20 0 23 1;#P connect 21 1 14 1;#P connect 23 1 26 1;#P connect 24 0 28 1;#P connect 10 2 0 0;#P fasten 33 0 1 0 608 70;#P connect 0 0 1 0;#P connect 1 0 2 0;#P connect 9 0 4 1;#P connect 19 1 22 0;#P connect 22 0 20 0;#P connect 21 1 22 1;#P connect 2 2 4 2;#P connect 23 1 36 0;#P connect 20 0 35 0;#P connect 9 1 4 3;#P connect 29 0 32 0;#P connect 39 0 32 0;#P connect 32 0 4 4;#P connect 38 0 36 1;#P connect 37 0 35 1;#P connect 32 1 30 0;#P connect 30 0 4 5;#P connect 30 0 31 0;#P pop;