max v2;#N vpatcher 34 44 1234 865;#P origin 20 -189;#P window setfont "Sans Serif" 9.;#P user number~ 307 723 370 738 9 3 3 2 0. 0. 0 0. 250 0. 0 0 0 221 221 221 222 222 222 0 0 0;#P user number~ 23 408 95 423 9 3 3 2 0. 0. 0 0. 250 0. 0 0 0 221 221 221 222 222 222 0 0 0;#P window setfont "Sans Serif" 10.;#P window linecount 1;#P newex 108 388 50 196618 phasor~;#P window setfont "Sans Serif" 9.;#P user number~ 148 711 211 726 9 3 3 2 0. 0. 0 0. 250 0. 0 0 0 221 221 221 222 222 222 0 0 0;#P user number~ 120 693 183 708 9 3 3 2 0. 0. 0 0. 250 0. 0 0 0 221 221 221 222 222 222 0 0 0;#P user number~ 122 652 185 667 9 3 3 2 0. 0. 0 0. 250 0. 0 0 0 221 221 221 222 222 222 0 0 0;#P user number~ 124 617 187 632 9 3 3 2 0. 0. 0 0. 250 0. 0 0 0 221 221 221 222 222 222 0 0 0;#P user number~ 29 571 92 586 9 3 3 2 0. 0. 0 0. 250 0. 0 0 0 221 221 221 222 222 222 0 0 0;#P user number~ 7 759 70 774 9 3 3 2 0. 0. 0 0. 250 0. 0 0 0 221 221 221 222 222 222 0 0 0;#P user number~ 7 708 70 723 9 3 3 2 0. 0. 0 0. 250 0. 0 0 0 221 221 221 222 222 222 0 0 0;#P user number~ 7 652 70 667 9 3 3 2 0. 0. 0 0. 250 0. 0 0 0 221 221 221 222 222 222 0 0 0;#P user number~ 9 617 72 632 9 3 3 2 0. 0. 0 0. 250 0. 0 0 0 221 221 221 222 222 222 0 0 0;#P user number~ 29 549 92 564 9 3 3 2 0. 0. 0 0. 250 0. 0 0 0 221 221 221 222 222 222 0 0 0;#P user number~ 167 776 230 791 9 3 3 2 0. 0. 0 0. 250 0. 0 0 0 221 221 221 222 222 222 0 0 0;#P newex 404 190 41 196617 *~ 1.6;#P window setfont "Sans Serif" 10.;#P newex 688 524 155 196618 biquad~ 1. -1. 0. -0.9997 0.;#P window setfont "Sans Serif" 9.;#N vpatcher 38 59 638 459;#P window setfont "Sans Serif" 9.;#P window linecount 0;#P newex 235 283 170 196617 biquad~ -0.07921 1. 0. -0.07921 0;#P newex 235 253 182 196617 biquad~ -0.677938 1. 0. -0.677938 0;#P newex 235 221 182 196617 biquad~ -0.908714 1. 0. -0.908714 0;#P newex 235 185 182 196617 biquad~ -0.976438 1. 0. -0.976438 0;#P newex 235 154 182 196617 biquad~ -0.994159 1. 0. -0.994159 0;#P newex 235 122 182 196617 biquad~ -0.999229 1. 0. -0.999229 0;#P newex 50 282 172 196617 biquad~ 0.494957 1. 0. 0.494957 0;#P newex 50 252 182 196617 biquad~ -0.439055 1. 0. -0.439055 0;#P newex 50 220 158 196617 biquad~ -0.8252 1. 0. -0.8252 0;#P newex 50 184 182 196617 biquad~ -0.953369 1. 0. -0.953369 0;#P newex 50 153 182 196617 biquad~ -0.988177 1. 0. -0.988177 0;#P newex 50 121 182 196617 biquad~ -0.997327 1. 0. -0.997327 0;#P comment 115 344 100 196617 cos + j sin;#P window linecount 2;#P comment 191 78 204 196617 this can be reduced (multiplied) into 3 pairs of 2nd order filters;#P inlet 50 101 15 0;#P inlet 235 102 15 0;#P outlet 50 304 15 0;#P outlet 235 305 15 0;#P window linecount 1;#P comment 51 27 114 196617 ...as revealed by Dudas;#P connect 4 0 7 0;#P connect 7 0 8 0;#P connect 8 0 9 0;#P connect 9 0 10 0;#P connect 10 0 11 0;#P connect 11 0 12 0;#P connect 12 0 2 0;#P connect 3 0 13 0;#P connect 13 0 14 0;#P connect 14 0 15 0;#P connect 15 0 16 0;#P connect 16 0 17 0;#P connect 17 0 18 0;#P connect 18 0 1 0;#P pop;#P newobj 1058 527 77 196617 p hilbert-filter;#P outlet 829 856 15 0;#P newex 948 525 46 196617 hilbert~;#P user number~ 542 663 605 678 9 3 3 2 0. 0. 0 0. 250 0. 0 0 0 221 221 221 222 222 222 0 0 0;#P user number~ 543 698 609 713 9 3 3 2 0. 0. 0 0. 250 0. 0 0 0 221 221 221 222 222 222 0 0 0;#P user number~ 708 701 774 716 9 3 3 2 0. 0. 0 0. 250 0. 0 0 0 221 221 221 222 222 222 0 0 0;#P user number~ 679 653 745 668 9 3 3 2 0. 0. 0 0. 250 0. 0 0 0 221 221 221 222 222 222 0 0 0;#P flonum 1045 418 55 9 0 0 0 3 0 0 0 221 221 221 222 222 222 0 0 0;#P flonum 894 454 35 9 0 0 0 3 0 0 0 221 221 221 222 222 222 0 0 0;#P user number~ 855 625 921 640 9 3 3 2 0. 0. 0 0. 250 0. 0 0 0 221 221 221 222 222 222 0 0 0;#P user number~ 735 623 801 638 9 3 3 2 0. 0. 0 0. 250 0. 0 0 0 221 221 221 222 222 222 0 0 0;#P user number~ 814 564 873 579 9 3 3 2 0. 0. 0 0. 250 0. 0 0 0 221 221 221 222 222 222 0 0 0;#P user number~ 690 488 729 503 9 3 3 2 0. 0. 0 0. 250 0. 0 0 0 221 221 221 222 222 222 0 0 0;#N vpatcher 1003 151 1603 551;#P window setfont "Sans Serif" 9.;#P newex 173 217 31 196617 cos~;#P newex 128 289 27 196617 +~;#P outlet 132 320 15 0;#P newex 213 123 57 196617 phasor~;#P newex 59 289 27 196617 -~;#P newex 109 252 35 196617 *~;#P newex 59 252 35 196617 *~;#P newex 107 182 31 196617 cos~;#P comment 181 72 109 196617 frequency of shift;#P comment 89 70 64 196617 imaginary;#P comment 52 71 33 196617 real;#P newex 178 182 44 196617 +~ 0.25;#P comment 157 312 171 196617 frequency shifted signal;#P comment 50 50 114 196617 signal to modulate;#P inlet 11 144 15 0;#P inlet 61 144 15 0;#P inlet 213 103 15 0;#P outlet 59 320 15 0;#P connect 3 0 11 0;#P connect 11 0 13 0;#P connect 13 0 0 0;#P connect 12 0 13 1;#P connect 10 0 11 1;#P connect 14 0 10 0;#P connect 2 0 12 0;#P connect 11 0 16 0;#P connect 16 0 15 0;#P connect 17 0 12 1;#P connect 12 0 16 1;#P connect 6 0 17 0;#P connect 14 0 6 0;#P connect 1 0 14 0;#P pop;#P newobj 1000 609 84 196617 p complex-mod~;#N vpatcher 322 165 922 565;#P window setfont "Sans Serif" 9.;#P window linecount 0;#P newex 73 143 234 196617 biquad~ 0.870686 -1.8685 1. 1.8685 -0.870686;#P newex 73 105 246 196617 biquad~ -0.260502 0.02569 1. -0.02569 0.260502;#P newex 326 143 234 196617 biquad~ 0.06338 -0.83774 1. 0.83774 -0.06338;#P newex 326 105 234 196617 biquad~ 0.94657 -1.94632 1. 1.94632 -0.94657;#P comment 286 206 65 196617 signal out;#P comment 50 205 65 196617 signal out;#P window linecount 2;#P comment 132 205 129 196617 <--90 degree phase diff.-->;#P window linecount 1;#P comment 89 50 100 196617 signal in;#P inlet 72 59 15 0;#P outlet 73 165 15 0;#P outlet 326 165 15 0;#P connect 2 0 9 0;#P connect 9 0 10 0;#P connect 10 0 1 0;#P connect 2 0 7 0;#P connect 7 0 8 0;#P connect 8 0 0 0;#P pop;#P newobj 1000 526 48 196617 p hilbert;#N vpatcher 0 44 600 444;#P window setfont "Sans Serif" 9.;#P newex 144 189 31 196617 mtof;#P newex 144 168 33 196617 - 12.;#P newex 144 146 31 196617 ftom;#P newex 50 64 76 196617 route list float;#P newex 50 208 66 196617 pack 1. 100.;#P newex 50 124 76 196617 unpack 1. 100.;#P newex 50 187 31 196617 mtof;#P newex 50 166 33 196617 - 12.;#P newex 50 144 31 196617 ftom;#P inlet 50 30 15 0;#P outlet 50 288 15 0;#P connect 1 0 7 0;#P connect 7 0 5 0;#P connect 5 0 2 0;#P connect 2 0 3 0;#P connect 3 0 4 0;#P connect 4 0 6 0;#P connect 6 0 0 0;#P connect 10 0 0 0;#P connect 5 1 6 1;#P connect 7 1 8 0;#P connect 8 0 9 0;#P connect 9 0 10 0;#P pop;#P newobj 116 99 70 196617 p list or float;#P user number~ 285 225 347 240 9 3 3 2 0. 0. 0 0. 250 0. 0 0 0 221 221 221 222 222 222 0 0 0;#P window setfont "Sans Serif" 10.;#P newex 218 200 42 196618 cycle~;#P window setfont "Sans Serif" 9.;#P user number~ 292 292 364 307 9 3 3 2 0. 0. 0 0. 250 0. 0 0 0 221 221 221 222 222 222 0 0 0;#P user number~ 454 361 526 376 9 3 3 2 0. 0. 0 0. 250 0. 0 0 0 221 221 221 222 222 222 0 0 0;#P button 643 462 15 0;#P user number~ 258 419 330 434 9 3 3 2 0. 0. 0 0. 250 0. 0 0 0 221 221 221 222 222 222 0 0 0;#P user number~ 681 444 720 459 9 3 3 2 0. 0. 0 0. 250 0. 0 0 0 221 221 221 222 222 222 0 0 0;#P window setfont "Sans Serif" 10.;#P newex 526 128 65 196618 pack 1. 30.;#P window setfont "Sans Serif" 9.;#P user number~ 713 731 752 746 9 3 3 2 0. 0. 0 0. 250 0. 0 0 0 221 221 221 222 222 222 0 0 0;#P user number~ 675 762 714 777 9 3 3 2 0. 0. 0 0. 250 0. 0 0 0 221 221 221 222 222 222 0 0 0;#P user number~ 222 741 285 756 9 3 3 2 0. 0. 0 0. 250 0. 0 0 0 221 221 221 222 222 222 0 0 0;#P user number~ 297 741 360 756 9 3 3 2 0. 0. 0 0. 250 0. 0 0 0 221 221 221 222 222 222 0 0 0;#N vpatcher 134 367 734 767;#P window setfont "Sans Serif" 9.;#P newex 173 217 31 196617 cos~;#P newex 128 289 27 196617 +~;#P outlet 132 320 15 0;#P newex 213 123 57 196617 phasor~;#P newex 59 289 27 196617 -~;#P newex 109 252 35 196617 *~;#P newex 59 252 35 196617 *~;#P newex 107 182 31 196617 cos~;#P comment 181 72 109 196617 frequency of shift;#P comment 89 70 64 196617 imaginary;#P comment 52 71 33 196617 real;#P newex 178 182 44 196617 +~ 0.25;#P comment 157 312 171 196617 frequency shifted signal;#P comment 50 50 114 196617 signal to modulate;#P inlet 11 144 15 0;#P inlet 61 144 15 0;#P inlet 213 103 15 0;#P outlet 59 320 15 0;#P connect 3 0 11 0;#P connect 11 0 13 0;#P connect 13 0 0 0;#P connect 12 0 13 1;#P connect 10 0 11 1;#P connect 14 0 10 0;#P connect 2 0 12 0;#P connect 11 0 16 0;#P connect 16 0 15 0;#P connect 17 0 12 1;#P connect 12 0 16 1;#P connect 6 0 17 0;#P connect 14 0 6 0;#P connect 1 0 14 0;#P pop;#P newobj 687 594 84 196617 p complex-mod~;#P newex 725 553 46 196617 hilbert~;#P user number~ 424 740 487 755 9 3 3 2 0. 0. 0 0. 250 0. 0 0 0 221 221 221 222 222 222 0 0 0;#P user number~ 499 740 562 755 9 3 3 2 0. 0. 0 0. 250 0. 0 0 0 221 221 221 222 222 222 0 0 0;#P user number~ 420 603 483 618 9 3 3 2 0. 0. 0 0. 250 0. 0 0 0 221 221 221 222 222 222 0 0 0;#P user number~ 495 603 558 618 9 3 3 2 0. 0. 0 0. 250 0. 0 0 0 221 221 221 222 222 222 0 0 0;#P user number~ 529 254 591 269 9 3 3 2 0. 0. 0 0. 250 0. 0 0 0 221 221 221 222 222 222 0 0 0;#P user number~ 427 264 489 279 9 3 3 2 0. 0. 0 0. 250 0. 0 0 0 221 221 221 222 222 222 0 0 0;#P user number~ 144 260 216 275 9 3 3 2 0. 0. 0 0. 250 0. 0 0 0 221 221 221 222 222 222 0 0 0;#P user number~ 286 198 348 213 9 3 3 2 0. 0. 0 0. 250 0. 0 0 0 221 221 221 222 222 222 0 0 0;#P user number~ 16 453 88 468 9 3 3 2 0. 0. 0 0. 250 0. 0 0 0 221 221 221 222 222 222 0 0 0;#P window setfont "Sans Serif" 10.;#P newex 284 248 41 196618 sig~ 1;#P window setfont "Sans Serif" 9.;#P user number~ 75 339 147 354 9 3 3 2 0. 0. 0 0. 250 0. 0 0 0 221 221 221 222 222 222 0 0 0;#P user number~ 275 312 347 327 9 3 3 2 0. 0. 0 0. 250 0. 0 0 0 221 221 221 222 222 222 0 0 0;#P user number~ 359 229 421 244 9 3 3 2 0. 0. 0 0. 250 0. 0 0 0 221 221 221 222 222 222 0 0 0;#P user number~ 40 256 112 271 9 3 3 2 0. 0. 0 0. 250 0. 0 0 0 221 221 221 222 222 222 0 0 0;#P user number~ 218 369 290 384 9 3 3 2 0. 0. 0 0. 250 0. 0 0 0 221 221 221 222 222 222 0 0 0;#P inlet 244 24 15 0;#P outlet 382 798 15 0;#P window setfont "Sans Serif" 10.;#P newex 291 152 36 196618 line~;#P newex 371 147 36 196618 line~;#P newex 207 152 36 196618 line~;#P window setfont "Sans Serif" 9.;#P message 857 62 43 196617 replace;#P newex 857 104 198 196617 buffer~ ali.paf~-vib1.aif ali.paf~-vib1.aif;#P newex 247 70 407 196617 route freq vfr vib bw amp cf shift phase cfgliss;#P message 948 236 202 196617 window size 0 50 1023 800 \, window exec;#N thispatcher;#Q end;#P newobj 948 266 61 196617 thispatcher;#P window setfont "Sans Serif" 10.;#P newex 192 586 27 196618 *~;#P newex 192 636 32 196618 cos~;#P newex 290 392 27 196618 *~;#P newex 350 357 27 196618 *~;#P comment 391 381 116 196618 divide by fundamental;#P newex 108 413 62 196618 clip~ 0. 1.;#P newex 472 448 45 196618 +~ 0.5;#P newex 472 473 40 196618 %~ 1.;#P comment 463 426 103 196618 second phase signal;#P newex 192 672 35 196618 +~ 1;#P newex 97 493 44 196618 -~ 0.5;#P newex 164 728 27 196618 +~;#P newex 77 590 27 196618 *~;#P newex 77 633 32 196618 cos~;#P window setfont "Sans Serif" 9.;#N vpatcher 0 44 600 444;#P inlet 144 38 15 0;#P window setfont "Sans Serif" 9.;#P newex 188 50 48 196617 loadbang;#P newex 89 88 40 196617 *~ -1.;#P message 185 95 17 196617 0.;#P newex 88 58 38 196617 delta~;#P newex 50 142 31 196617 sah~;#P inlet 88 38 15 0;#P inlet 50 122 15 0;#P outlet 50 164 15 0;#P connect 5 0 3 0;#P connect 1 0 3 0;#P connect 3 0 0 0;#P connect 8 0 3 1;#P connect 6 0 3 1;#P connect 2 0 4 0;#P connect 4 0 6 0;#P connect 7 0 5 0;#P pop;#P newobj 212 559 65 196617 p samphold~;#N vpatcher 0 44 600 444;#P inlet 144 38 15 0;#P window setfont "Sans Serif" 9.;#P newex 188 50 48 196617 loadbang;#P newex 89 88 40 196617 *~ -1.;#P message 185 95 17 196617 0.;#P newex 88 58 38 196617 delta~;#P newex 50 142 31 196617 sah~;#P inlet 88 38 15 0;#P inlet 50 122 15 0;#P outlet 50 164 15 0;#P connect 5 0 3 0;#P connect 1 0 3 0;#P connect 3 0 0 0;#P connect 8 0 3 1;#P connect 6 0 3 1;#P connect 2 0 4 0;#P connect 4 0 6 0;#P connect 7 0 5 0;#P pop;#P newobj 141 545 65 196617 p samphold~;#P window setfont "Sans Serif" 10.;#P newex 77 681 27 196618 *~;#P newex 192 611 83 196618 clip~ -0.5 0.5;#P newex 363 607 27 196618 *~;#P newex 363 670 32 196618 cos~;#P newex 363 691 35 196618 +~ 1;#P newex 309 494 44 196618 -~ 0.5;#P newex 310 607 27 196618 *~;#P newex 310 649 32 196618 cos~;#P window setfont "Sans Serif" 9.;#N vpatcher 0 44 600 444;#P inlet 144 38 15 0;#P window setfont "Sans Serif" 9.;#P newex 188 50 48 196617 loadbang;#P newex 89 88 40 196617 *~ -1.;#P message 185 95 17 196617 0.;#P newex 88 58 38 196617 delta~;#P newex 50 142 31 196617 sah~;#P inlet 88 38 15 0;#P inlet 50 122 15 0;#P outlet 50 164 15 0;#P connect 1 0 3 0;#P connect 5 0 3 0;#P connect 3 0 0 0;#P connect 6 0 3 1;#P connect 8 0 3 1;#P connect 2 0 4 0;#P connect 4 0 6 0;#P connect 7 0 5 0;#P pop;#P newobj 442 562 65 196617 p samphold~;#N vpatcher 0 44 600 444;#P inlet 144 38 15 0;#P window setfont "Sans Serif" 9.;#P newex 188 50 48 196617 loadbang;#P newex 89 88 40 196617 *~ -1.;#P message 185 95 17 196617 0.;#P newex 88 58 38 196617 delta~;#P newex 50 142 31 196617 sah~;#P inlet 88 38 15 0;#P inlet 50 122 15 0;#P outlet 50 164 15 0;#P connect 5 0 3 0;#P connect 1 0 3 0;#P connect 3 0 0 0;#P connect 8 0 3 1;#P connect 6 0 3 1;#P connect 2 0 4 0;#P connect 4 0 6 0;#P connect 7 0 5 0;#P pop;#P newobj 371 562 65 196617 p samphold~;#P window setfont "Sans Serif" 10.;#P newex 310 670 27 196618 *~;#P newex 363 649 83 196618 clip~ -0.5 0.5;#P newex 361 405 75 196618 maximum~ 1;#P newex 121 152 36 196618 line~;#P newex 225 276 27 196618 +~;#P newex 186 298 27 196618 *~;#P newex 225 241 27 196618 *~;#P newex 250 336 27 196618 /~;#P newex 742 246 22 196618 t 0;#P newex 594 185 36 196618 line~;#P newex 676 412 36 196618 line~;#P newex 742 217 49 196618 route 0.;#P newex 698 217 30 196618 t b f;#P newex 675 367 55 196618 pack 0. 0;#P newex 631 327 56 196618 route 0 1;#P newex 631 304 55 196618 pack 0 0.;#P newex 631 280 27 196618 > 0.;#P newex 631 258 59 196618 snapshot~;#P message 568 519 90 196618 -1000099968.;#P newex 757 366 56 196618 line 0 30;#P newex 833 719 40 196618 / 127;#P newex 833 741 59 196618 pack 0 30;#P comment 852 672 35 196618 noise;#P newex 623 836 27 196618 -~;#P newex 672 801 27 196618 *~;#P newex 833 765 36 196618 line~;#P newex 561 476 27 196618 *~;#P comment 697 19 233 196618 WAVE PACKET BASED REPLACEMENT FOR PAF;#P comment 271 44 374 196618 hack to allow glissandi which aren't implemented in the controller window.;#P newex 833 688 105 196618 nothing r;#P newex 594 162 150 196618 linedrive 154 0.02 1.06 30;#P newex 794 505 36 196618 line~;#P newex 880 508 27 196618 > 0.;#P newex 880 541 59 196618 pack 0 10;#P newex 880 565 36 196618 line~;#P newex 640 655 27 196618 -~;#P newex 660 683 27 196618 *~;#P newex 612 757 27 196618 +~;#P newex 766 454 25 196618 t 0.;#P newex 766 430 49 196618 route 0.;#P newex 944 409 32 196618 mtof;#P newex 944 378 37 196618 - 60.;#P newex 831 400 19 196618 t f;#P newex 93 203 123 196618 nothing osc2~ vib1.snd;#P window setfont "Sans Serif" 9.;#P newex 1094 608 76 196617 complex-mod~;#P connect 57 0 131 0;#P connect 54 0 132 0;#P connect 59 0 133 0;#P connect 58 0 130 0;#P connect 65 0 87 0;#P connect 139 0 140 0;#P connect 55 0 129 0;#P connect 56 0 134 0;#P connect 41 0 82 0;#P connect 39 0 85 0;#P connect 60 0 58 0;#P connect 58 0 57 0;#P connect 57 0 54 0;#P connect 55 0 58 1;#P connect 61 0 54 1;#P connect 65 0 60 0;#P connect 39 0 139 0;#P connect 139 0 65 0;#P connect 73 0 110 0;#P connect 69 0 137 0;#P connect 110 0 41 0;#P connect 53 0 136 0;#P connect 70 0 135 0;#P connect 68 0 55 0;#P connect 38 0 89 0;#P connect 61 0 138 0;#P connect 54 0 59 0;#P connect 65 0 55 1;#P connect 44 0 59 1;#P connect 41 0 39 0;#P connect 60 0 70 0;#P connect 70 0 53 0;#P connect 53 0 69 0;#P connect 69 0 61 0;#P connect 26 0 55 2;#P connect 40 0 39 1;#P connect 73 1 76 0;#P connect 56 0 70 1;#P connect 42 0 56 0;#P connect 76 0 108 0;#P connect 37 0 81 0;#P connect 55 0 99 0;#P connect 108 0 38 0;#P connect 38 0 40 0;#P connect 65 0 56 1;#P connect 78 0 38 1;#P connect 86 0 40 1;#P connect 80 0 73 0;#P connect 86 0 37 0;#P connect 68 0 104 0;#P connect 26 0 56 2;#P connect 39 0 37 1;#P connect 40 0 84 0;#P connect 108 0 109 0;#P connect 76 0 88 0;#P connect 34 0 68 0;#P connect 73 2 78 0;#P connect 86 0 107 0;#P connect 56 0 98 0;#P connect 37 0 68 1;#P connect 44 0 141 0;#P connect 63 0 49 0;#P connect 49 0 48 0;#P connect 48 0 47 0;#P connect 47 0 44 0;#P connect 45 0 48 1;#P connect 50 0 44 1;#P connect 127 0 67 0;#P connect 78 0 83 0;#P connect 67 0 42 0;#P connect 49 0 52 0;#P connect 52 0 43 0;#P connect 43 0 51 0;#P connect 51 0 50 0;#P connect 37 0 67 1;#P connect 73 3 77 0;#P connect 68 0 45 0;#P connect 46 0 52 1;#P connect 7 0 79 0;#P connect 63 0 45 1;#P connect 77 0 127 0;#P connect 45 0 93 0;#P connect 48 0 95 0;#P connect 26 0 45 2;#P connect 77 0 90 0;#P connect 42 0 46 0;#P connect 67 0 106 0;#P connect 63 0 46 1;#P connect 65 0 64 0;#P connect 64 0 63 0;#P connect 46 0 92 0;#P connect 26 0 46 2;#P connect 52 0 94 0;#P connect 73 4 102 0;#P connect 35 0 91 0;#P connect 18 0 122 0;#P connect 7 0 121 0;#P fasten 59 0 18 0 417 791;#P connect 35 0 18 1;#P connect 102 0 35 0;#P connect 14 0 35 0;#P connect 18 0 7 0;#P connect 7 0 21 0;#P connect 8 0 7 1;#P connect 32 0 27 0;#P connect 35 0 27 0;#P connect 27 0 28 0;#P connect 28 0 29 0;#P connect 29 0 30 0;#P connect 97 0 9 0;#P connect 20 0 21 1;#P connect 30 0 105 0;#P connect 18 0 9 1;#P connect 9 0 8 0;#P connect 7 0 20 0;#P connect 30 1 31 0;#P connect 7 0 100 0;#P connect 36 0 29 1;#P fasten 33 1 29 1 801 260;#P connect 31 0 34 0;#P connect 30 0 34 0;#P connect 10 0 8 1;#P connect 9 0 119 0;#P connect 34 0 103 0;#P connect 126 0 97 0;#P connect 18 0 126 0;#P connect 19 0 20 1;#P connect 18 0 113 0;#P fasten 73 5 32 0 766 147;#P connect 8 0 120 0;#P connect 25 0 31 1;#P connect 126 0 96 0;#P connect 97 0 115 0;#P connect 32 1 33 0;#P connect 33 0 36 0;#P fasten 73 7 25 0 841 127 914 240;#P connect 13 0 97 2;#P connect 2 0 5 0;#P connect 5 0 6 0;#P connect 4 0 13 0;#P connect 6 0 13 0;#P connect 13 0 114 0;#P connect 97 0 124 0;#P fasten 73 6 2 0 816 137 952 334;#P connect 15 0 24 0;#P connect 24 0 23 0;#P connect 23 0 19 0;#P connect 10 0 116 0;#P connect 75 0 74 0;#P connect 2 0 12 0;#P connect 12 0 11 0;#P connect 11 0 10 0;#P connect 2 0 117 0;#P connect 5 1 3 0;#P connect 3 0 4 0;#P connect 72 0 71 0;#P connect 111 0 112 0;#P connect 111 1 112 1;#P connect 4 0 118 0;#P pop;