max v2;#N vpatcher 9 45 541 732;#P origin 271 106;#P user pictslider 2 38 512 512 4 4 4 4 SliderDefaultKnob.pct 1 $1.space.jpeg 1 2163 0 0 8323199 1. 1.;#P objectname lookup-pictslider;#P button 822 606 15 0;#P newex 574 363 42 196617 t i i;#P newex 669 580 95 196617 pvar lookup-matrix;#B color 14;#P newex 1081 634 75 196617 r init-ali.jToop;#P button -3 32 13 14;#P objectname top-left;#P button 508 544 13 14;#P objectname bottom-right;#P newex 1081 658 99 196617 pvar read-listlength;#B color 14;#P newex 1097 393 117 196617 s $0_to-myself;#N vpatcher 10 100 1024 764;#P origin 0 71;#N comlet ali.mtr dur-mult;#P inlet 225 92 15 0;#N comlet ali.mtr state;#P inlet 172 92 15 0;#P message 218 219 69 196617 /dur-mult \$1;#P message 159 219 52 196617 /state \$1;#N comlet to pictslider;#P outlet 162 429 15 0;#N comlet to top;#P outlet 101 425 15 0;#N comlet to ali.mtr;#P inlet 388 95 15 0;#N comlet y pos;#P inlet 84 93 15 0;#N comlet x pos;#P inlet 58 93 15 0;#P newex 140 345 92 196617 OSC-route /lookup;#P newex 140 309 40 196617 ali.mtr;#P newex 58 251 80 196617 prepend /lookup;#P newex 58 225 45 196617 pack 1 1;#P connect 4 0 0 0;#P connect 0 0 1 0;#P connect 5 0 0 1;#P fasten 1 0 7 0 109 396;#P connect 1 0 2 0;#P connect 2 0 3 0;#P connect 10 0 2 1;#P connect 9 0 2 1;#P connect 6 0 2 1;#P connect 11 0 9 0;#P connect 3 0 8 0;#P connect 12 0 10 0;#P pop;#P newobj 995 611 170 196617 p loopkup-mtr;#P newex 995 507 115 196617 pvar lookup-pictslider 2;#B color 14;#P newex 1115 544 72 196617 pvar dur-mult;#B color 14;#P newex 1075 526 62 196617 pvar record;#B color 14;#P newex 980 685 72 196617 pvar draw-3D;#B color 14;#P message 980 707 88 196617 /draw/render \$1;#P newex 894 744 80 196617 s $0_to-myself;#N vpatcher 50 40 450 340;#P button 32 178 15 0;#P button 134 167 15 0;#P newex 164 103 72 196617 prepend /read;#P inlet 200 42 15 0;#P outlet 71 141 15 0;#P inlet 86 36 15 0;#P inlet 60 34 15 0;#P newex 62 106 75 196617 prepend /write;#P newex 62 85 34 196617 zl reg;#P newex 84 61 54 196617 route text;#P connect 2 0 9 0;#P connect 3 0 1 0;#P connect 1 0 2 0;#P connect 2 0 5 0;#P connect 7 0 5 0;#P connect 4 0 0 0;#P connect 0 0 1 1;#P connect 0 0 8 0;#P connect 6 0 7 0;#P pop;#P newobj 856 639 54 196617 p filename;#P newex 900 605 83 196617 pvar favorites 2;#B color 14;#P newex 878 587 70 196617 pvar filename;#B color 14;#P newex 854 565 55 196617 pvar write;#B color 14;#P newex 734 664 90 196617 pvar bottom-right;#B color 14;#P newex 709 643 65 196617 pvar top-left;#B color 14;#P comment 401 552 115 196617 ____interpolation____;#B color 13;#P comment 273 552 115 196617 _____one jToop______;#B color 13;#P comment 463 6 53 472055817 _boom__;#B color 13;#P comment 362 5 80 472055817 _interpolate__;#B color 13;#P comment 296 5 62 472055817 _2D__3D_;#B color 13;#P newex 615 309 72 196617 pvar draw-2D;#P toggle 305 21 15 0;#P objectname draw-2D;#P user led 479 19 17 17 1 400;#P newex 717 402 27 196617 gate;#P toggle 615 336 15 0;#P comment 14 23 11 196617 i;#N vpatcher 30 70 1044 792;#N coll init-jToop;#T flags 1 0;#T 1 /interpolate 1;#T 2 /draw-2Dspace 1;#P newobj 259 112 72 196617 coll init-jToop;#P newex 152 46 45 196617 loadbang;#P message 161 77 53 196617 init-jToop;#P newex 162 108 62 196617 coll-dumper;#P outlet 140 204 15 0;#P connect 1 0 0 0;#P connect 3 0 2 0;#P connect 2 0 1 0;#P pop;#P newobj 800 109 31 196617 p init;#P newex 622 392 81 196617 pvar interpolate;#B color 14;#P toggle 385 21 15 0;#P objectname interpolate;#P button 11 21 15 2;#P objectname read-listlength;#P newex 1081 683 125 196617 s $0read-jToop_listlength;#P button 1244 123 15 0;#P user jit.fpsgui 1084 254 53 196617 3;#P user jit.fpsgui 1052 223 65 196617 3;#P user jit.fpsgui 1035 188 37 196617 3;#P toggle 1194 69 15 0;#P newex 1044 89 162 196617 print-everything to-space-matrix;#P newex 605 285 60 196617 prepend set;#P newex 588 261 27 196617 t l l;#N comlet connect to pict slider;#P hidden outlet 655 700 33 0;#P toggle 916 43 15 0;#P newex 846 82 84 196617 print-everything;#P newex 1112 280 27 196617 gate;#P newex 1212 292 21 196617 t 1;#P newex 1212 270 41 196617 route 0;#P hidden message 530 148 35 196617 /clear;#P message 1097 372 125 196617 /matrix/data dim \$1 128;#P newex 784 404 117 196617 s $0_to-myself;#P newex 1082 178 229 131465228 jit.matrix $0jit-mixer-points 9 float32 128;#B color 5;#P newex 1129 209 243 131465228 jit.matrix $0jit-mixer-data 1 float32 768 128;#B color 5;#P newex 1035 148 273 131465228 jit.matrix $0jit-mixer-space 1 float32 128 128 128;#B color 5;#N vpatcher 30 70 1044 792;#P message 208 135 171 196617 /add 0 128 0.5 3 30 30;#P message 325 94 113 196617 /add 0 128 1. 1. 20 20;#P message 326 57 195 196617 /draw/draw-matrix.voi/1/color 0.5 0.5 0.5;#P message 239 94 75 196617 /draw/recolor;#P message 173 95 65 196617 /draw/reset;#P outlet 140 204 15 0;#P connect 1 0 0 0;#P connect 5 0 0 0;#P connect 2 0 0 0;#P connect 4 0 0 0;#P connect 3 0 0 0;#P pop;#P newobj 760 109 34 196617 p test;#P newex 1035 120 153 196617 OSC-route /space /points /data;#P comment 438 628 49 472055818 weights;#N comlet (list of floats) weights;#P hidden outlet 621 700 33 0;#P user multiSlider 416 623 90 41 0. 1. 38 2681 15;#M frgb 138 182 0;#M brgb 206 255 157;#M rgb2 127 127 127;#P newex 355 760 84 196617 one-jToop 0 $0_;#P button 146 21 15 14;#P message 783 285 98 196617 /draw/n-jToops \$1;#P hidden newex 282 673 60 196617 prepend set;#P newex 783 257 72 196617 pvar n-jToops;#B color 14;#P comment 174 631 210 472055817 ____________________________read__;#B color 13;#P button 4 647 16 0;#P objectname write;#P user textedit 21 647 179 663 0 2006 9 $1;#P objectname filename;#P button 178 647 16 0;#P bpatcher 192 646 191 21 0 0 ali.favorite 0 favorite-jToops.coll;#P objectname favorites;#P comment 3 632 170 472055817 ___write____________________;#B color 13;#P hidden newex 69 682 68 196617 loadbanger 1.;#N vpatcher 60 120 889 615;#P outlet 687 369 15 0;#P inlet 632 41 15 0;#P message 675 245 41 196617 size \$1;#P newex 647 171 32 196617 zl len;#P newex 654 110 27 196617 t l l;#P newex 132 146 27 196617 + 1;#P newex 226 63 27 196617 - 1;#P newex 71 222 60 196617 prepend set;#P message 185 161 139 196617 jit_matrix $0jit-mixer-data;#P newex 196 195 62 196617 jit.a.getrow;#P newex 206 85 40 196617 t i b i;#P newex 216 272 27 196617 t l l;#P newex 211 317 41 196617 jit.spill;#P message 486 128 65 196617 listlength \$1;#P newex 493 102 75 196617 r $0-listlength;#P newex 392 319 41 196617 jit.spill;#P newex 389 123 27 196617 t l l;#P outlet 195 394 15 0;#P outlet 299 395 15 0;#P outlet 261 395 15 0;#P outlet 453 411 15 0;#P outlet 393 413 15 0;#P inlet 342 34 15 0;#P inlet 251 31 15 0;#P connect 18 0 16 0;#P connect 13 0 18 0;#P connect 13 1 15 0;#P connect 16 0 6 0;#P connect 15 0 14 0;#P connect 17 0 13 0;#P connect 10 0 11 0;#P connect 12 0 11 0;#P connect 14 0 12 0;#P connect 1 0 17 0;#P connect 13 2 14 1;#P connect 11 0 4 0;#P connect 12 1 5 0;#P connect 0 0 7 0;#P connect 7 0 8 0;#P connect 10 0 8 0;#P connect 8 0 2 0;#P connect 7 1 3 0;#P connect 9 0 10 0;#P connect 19 1 20 0;#P connect 22 0 19 0;#P connect 20 0 21 0;#P fasten 19 0 23 0 570 240;#P connect 21 0 23 0;#P pop;#P hidden newobj 419 671 79 196617 p draw;#P user jit.pwindow 118 569 148 33 0 1 0 0 1 0;#P button 119 601 17 0;#P user jit.fpsgui 223 602 42 196617 2;#P user jit.fpsgui 168 602 56 196617 3;#P newex 119 552 146 131465226 jit.matrix $0jit-mixer-data;#B color 5;#P comment 224 24 13 131399689 !;#P comment 399 577 21 196628 >;#P comment 386 573 28 133693460 __;#P number 116 21 33 12 0 0 64 2040 0 0 0 255 227 23 222 222 222 0 0 0;#P objectname n-jToops;#P comment 30 24 13 131399689 !;#P button 562 170 15 2;#P comment 101 22 13 133693450 x;#P button 99 21 15 11;#P comment 73 23 13 131399689 +;#P comment 86 21 13 131399692 -;#P comment 323 579 44 472055818 o n e;#P number 274 567 23 9 0 256 3 2006 0 0 0 255 138 215 222 222 222 0 0 0;#P user jit.pwindow 295 612 92 12 0 1 0 0 1 0;#P user multiSlider 296 567 90 46 0. 1. 768 2937 15;#M frgb 251 107 255;#M brgb 255 173 247;#M rgb2 127 127 127;#P comment 66 572 38 472055817 speed;#P comment 440 578 43 472055818 m i x;#P newex 1097 317 74 196617 pvar listlength;#B color 14;#P flonum 68 587 35 9 0.1 10. 3 3 0 0 0 221 221 221 222 222 222 0 0 0;#P objectname dur-mult;#P comment 21 606 29 472055817 play;#P comment 21 589 40 472055817 record;#P user radiogroup 6 571 18 50;#X size 3;#X offset 17;#X inactive 0;#X itemtype 0;#X flagmode 0;#X set 0;#X done;#P objectname record;#P comment 2 552 104 196617 _____record______;#B color 13;#P user jit.pwindow 415 612 92 12 0 1 0 0 1 0;#N vpatcher 412 291 1213 673;#P message 402 190 75 196617 /listlength 800;#P user jit.fpsgui 602 309 60 196617 3;#P message 394 140 75 196617 /listlength 500;#P message 28 132 71 196617 /listlength 10;#P outlet 122 360 15 0;#P number 501 138 35 9 0 0 0 3 0 0 0 221 221 221 222 222 222 0 0 0;#P newex 484 311 35 196617 zl join;#P newex 484 286 27 196617 int;#P newex 513 286 34 196617 zl reg;#P button 484 139 15 0;#P newex 484 340 75 196617 prepend /store;#P newex 537 249 165 196617 jit.matrix $0temp 1 float32 768 1;#P newex 537 216 127 196617 jit.fill $0temp;#P comment 575 10 100 196617 with jit;#P number 182 200 35 9 0 0 0 3 0 0 0 221 221 221 222 222 222 0 0 0;#P user multiSlider 537 138 167 57 0. 1. 768 2681 15;#M frgb 0 0 0;#M brgb 255 255 255;#M rgb2 127 127 127;#P message 156 40 72 196617 write :jenga.z;#P number 138 128 35 9 0 0 0 3 0 0 0 221 221 221 222 222 222 0 0 0;#N vpreset 6;#X append 1 1 1 128 174 multiSlider list 0.381818 0.527273 0.745455 0.818182 0.854545 0.690909 0.472727 0.290909 0.236364 0.181818 \; 8 128 138 number int 1 \;;#X append 2 1 1 128 174 multiSlider list 0.781818 0.6 0.490909 0.392727 0.294545 0.196364 0.098182 0. 0. 0. \; 8 128 138 number int 2 \;;#X append 3 1 1 128 174 multiSlider list 0.6 0.836364 0.709091 0.345455 0.327273 0.890909 0.181818 0.636364 0.545455 0.363636 \; 8 128 138 number int 3 \;;#X append 4 1 1 128 174 multiSlider list 0.345455 0.618182 0.8 0.836364 0.872727 0.854545 0.8 0.690909 0.418182 0. \; 8 128 138 number int 4 \;;#X append 5 1 1 128 174 multiSlider list 0.890909 0.808081 0.725253 0.642424 0.559596 0.476768 0.393939 0.311111 0.228283 0.109091 \; 8 128 138 number int 5 \;;#P preset 156 60 94 17;#P newex 121 237 35 196617 zl join;#P newex 121 212 27 196617 int;#P newex 150 212 34 196617 zl reg;#P newex 121 265 75 196617 prepend /store;#P button 121 129 15 0;#P user multiSlider 174 128 167 57 0. 1. 10 2681 15;#M frgb 0 0 0;#M brgb 255 255 255;#M rgb2 127 127 127;#P comment 155 11 100 196617 with lists;#P connect 2 0 5 0;#P connect 5 0 6 0;#P connect 6 0 3 0;#P connect 3 0 21 0;#P connect 15 0 21 0;#P connect 22 0 21 0;#P fasten 23 0 21 0 406 301;#P connect 25 0 21 0;#P connect 7 0 8 0;#P connect 8 0 5 1;#P connect 4 0 6 1;#P connect 2 0 4 0;#P connect 9 0 7 0;#P connect 7 0 1 0;#P connect 1 0 4 1;#P connect 16 0 18 0;#P connect 18 0 19 0;#P connect 19 0 15 0;#P connect 20 0 18 1;#P connect 17 0 19 1;#P connect 16 0 17 0;#P connect 10 0 13 0;#P connect 13 0 14 0;#P connect 14 0 17 1;#P connect 14 0 24 0;#P pop;#P newobj 692 108 63 196617 p make-data;#P user multiSlider 416 567 90 46 0. 1. 128 2937 15;#M frgb 25 255 71;#M brgb 152 255 141;#M rgb2 127 127 127;#N vpatcher 40 55 1054 716;#P message 392 577 111 196617 /number-of-jToops \$1;#P user textedit 851 545 951 595 0 3 9 5;#P button 706 219 15 0;#P user textedit 934 481 1034 531 0 3 9 5;#P newex 167 232 105 196617 t b b i i i i b i;#P outlet 11 491 15 0;#N comlet make this many;#P inlet 238 52 15 0;#P newex 346 159 40 196617 uzi;#P newex 346 127 27 196617 int;#N comlet resend IDs;#P inlet 380 54 15 0;#P newex 760 479 27 196617 t i i;#P newex 464 122 40 196617 uzi;#P newex 187 398 330 196617 sprintf script send %done-jToop script send OSC-route /id $0_;#N comlet make;#P inlet 109 53 15 0;#N comlet break;#P inlet 126 53 15 0;#N comlet n;#P inlet 69 53 15 0;#P newex 760 524 40 196617 change;#P newex 760 444 51 196617 maximum;#P newex 690 350 27 196617 b;#P newex 407 230 40 196617 t b i i;#P newex 760 413 65 196617 zl group 256;#P newex 726 285 45 196617 append 0;#P newex 678 285 45 196617 append 1;#P newex 760 354 27 196617 bag;#P newex 438 375 161 196617 sprintf script delete %done-jToop;#P outlet 588 611 15 0;#P newex 107 434 189 196617 sprintf script bringtofront %done-jToop;#P newex 268 346 388 196617 sprintf script new %done-jToop bpatcher 50 50 68 34 0 0 one-jToop 0 %d $0_;#P newex 146 129 27 196617 int;#P newex 118 129 27 196617 int;#P outlet 388 618 15 0;#P comment 491 81 100 196617 how many there are...;#P connect 27 1 26 0;#P connect 27 2 5 0;#P connect 18 0 2 0;#P connect 16 0 2 1;#P connect 17 0 3 0;#P connect 16 0 3 1;#P connect 24 2 27 0;#P connect 2 0 27 0;#P fasten 20 2 19 0 286 278;#P connect 27 3 19 0;#P connect 27 4 4 0;#P connect 25 0 23 0;#P connect 23 0 24 0;#P connect 16 0 23 1;#P connect 31 0 1 0;#P connect 15 0 31 0;#P connect 3 0 12 0;#P connect 12 2 7 0;#P connect 22 0 20 0;#P fasten 21 1 20 1 819 506 851 453 863 348 813 251 657 129 525 97;#P connect 19 0 6 0;#P connect 4 0 6 0;#P connect 5 0 6 0;#P connect 7 0 6 0;#P connect 27 5 4 1;#P connect 27 7 9 0;#P connect 29 0 13 0;#P connect 27 6 13 0;#P connect 12 0 13 0;#P connect 12 1 10 0;#P connect 13 1 8 0;#P connect 10 0 8 0;#P connect 9 0 8 0;#P connect 8 0 11 0;#P connect 13 0 11 0;#P connect 11 0 14 0;#P connect 14 0 21 0;#P connect 21 0 15 0;#P connect 14 0 30 0;#P connect 11 0 28 0;#P pop;#P hidden newobj 545 211 69 196617 p make-break;#N vpatcher 40 55 522 508;#P newex 330 137 60 196617 prepend set;#P newex 333 100 21 196617 t 1;#P inlet 299 54 15 0;#P outlet 299 310 15 0;#P newex 147 94 27 196617 t i i;#P message 256 265 14 196617 1;#P message 144 201 50 196617 0;#P newex 107 143 60 196617 prepend set;#P newex 91 199 45 196617 loadbanger;#P newex 256 244 30 196617 sel 0;#P inlet 154 52 15 0;#P connect 6 0 3 0;#P connect 2 0 4 0;#P connect 3 0 4 0;#P connect 10 0 4 0;#P connect 0 0 6 0;#P connect 4 0 1 0;#P connect 6 1 1 0;#P connect 1 0 5 0;#P connect 1 1 7 0;#P connect 5 0 7 0;#P connect 9 0 10 0;#P connect 8 0 9 0;#P pop;#P newobj 723 201 27 196617 p n;#P newex 1115 352 121 196617 s $0-listlength;#P comment 165 5 51 472055817 _listlen_;#B color 13;#P number 168 21 39 12 0 0 0 2040 0 0 0 221 221 221 222 222 222 0 0 0;#P objectname listlength;#P newex 1129 247 93 196617 loadbanger 768 $1;#P comment 4 5 156 472055817 ____jToops_______________;#B color 13;#P user IncDec 25 21 15 15 0 0;#P button 85 21 15 14;#P button 71 21 15 6;#P number 39 21 33 12 0 256 3 2040 0 0 0 221 221 221 222 222 222 0 0 0;#P button 222 21 15 2;#P hidden newex 557 55 75 196617 prepend /mode;#N vpatcher 20 85 420 385;#P outlet 92 229 15 0;#P outlet 159 229 15 0;#P inlet 102 45 15 0;#P newex 102 94 112 196617 route pictslider matrix;#P connect 0 0 3 0;#P connect 1 0 0 0;#P connect 0 1 2 0;#P pop;#P newobj 895 253 45 196617 p update;#N vpatcher 17 110 1031 670;#P newex 165 193 170 196617 r $0place-pointes-next-time;#P newex 23 240 48 196617 grab-one;#P newex 43 291 32 196617 defer;#P message 40 341 64 196617 /read points;#P newex 122 294 32 196617 defer;#P message 704 280 172 196617 script bringtofront lookup-pictslider;#P outlet 317 414 15 0;#P newex 57 193 40 196617 b 3;#P message 141 337 75 196617 /update matrix;#P newex 437 235 40 196617 b 3;#P message 419 279 89 196617 /update pictslider;#P newex 133 397 80 196617 s $0_to-myself;#P button 437 214 15 0;#P button 57 169 15 0;#P message 546 282 154 196617 script sendtoback lookup-matrix;#P message 223 282 165 196617 script sendtoback lookup-pictslider;#P inlet 106 59 15 0;#P newex 106 88 79 196617 route edit swim;#P connect 10 0 16 0;#P connect 15 0 14 0;#P connect 17 0 16 1;#P connect 16 1 15 0;#P connect 0 0 4 0;#P connect 4 0 10 0;#P connect 1 0 0 0;#P connect 10 1 13 0;#P connect 7 0 6 0;#P connect 9 0 6 0;#P connect 14 0 6 0;#P connect 13 0 9 0;#P connect 10 2 2 0;#P connect 3 0 11 0;#P connect 2 0 11 0;#P connect 12 0 11 0;#P connect 8 0 7 0;#P connect 0 1 5 0;#P connect 5 0 8 0;#P connect 8 1 3 0;#P connect 8 2 12 0;#P pop;#P newobj 1039 317 44 196617 p modes;#N thispatcher;#Q end;#P newobj 928 405 59 196617 thispatcher;#N vpatcher 9 45 1014 758;#P button 628 160 15 0;#P button 672 159 15 0;#P newex 75 219 185 196617 r $0read-jToop_listlength;#P message 213 318 32 196617 1000;#P message 123 300 32 196617 4500;#P newex 123 324 27 196617 del;#P newex 635 259 191 196617 s $0place-pointes-next-time;#P newex 186 377 27 196617 del;#P message 171 420 64 196617 /mode swim;#N comlet to outside pictslider;#P outlet 1006 676 15 0;#N comlet to file name text-edit;#P outlet 965 675 15 0;#P newex 651 36 45 196617 loadbang;#N vpatcher 28 106 1042 826;#P number 600 613 35 9 0 0 0 3 0 0 0 221 221 221 222 222 222 0 0 0;#P number 652 614 35 9 0 0 0 3 0 0 0 221 221 221 222 222 222 0 0 0;#P newex 839 599 189 196617 sprintf script bringtofront %done-jToop;#P message 374 385 20 196617 10;#P newex 374 405 27 196617 del;#P comment 419 293 245 196617 dim (def. 128) \, amp \, StdDev \, x0 \, y0 \, R \, G \, B;#P button 141 39 15 0;#P newex 720 533 27 196617 t b l;#P newex 826 628 314 196617 sprintf script send %done-jToop script send OSC-route /StdDev %f;#P newex 800 647 300 196617 sprintf script send %done-jToop script send OSC-route /amp %f;#P newex 731 570 27 196617 int;#P newex 903 561 62 196617 unpack 1. 1.;#P newex 864 537 49 196617 zl slice 3;#P comment 535 467 142 196617 R \, G \, B \, amp \, StdDev;#N comlet to thispatcher;#P outlet 831 716 15 0;#P newex 544 627 29 196617 + 89;#P newex 450 628 29 196617 + 20;#P newex 434 462 40 196617 t b b l;#P inlet 99 38 15 0;#P newex 457 501 55 196617 unpack 1 1;#P newex 544 530 91 196617 zmap 0 127 0 512;#P newex 450 531 91 196617 zmap 0 127 0 512;#P newex 560 574 55 196617 unpack 1 1;#P newex 560 554 98 196617 r $0_mouse-topleft;#P newex 720 510 34 196617 zl reg;#P newex 351 504 27 196617 + 1;#P newex 334 631 27 196617 int;#P newex 99 141 27 196617 t i i;#P newex 434 443 49 196617 zl slice 2;#P newex 434 422 45 196617 zl rot -2;#P comment 492 380 142 196617 amp \, StdDev \, x0 \, y0 \, R \, G \, B;#P newex 434 380 49 196617 zl slice 1;#P comment 368 245 245 196617 on/off dim (def. 128) \, amp \, StdDev \, x0 \, y0 \, R \, G \, B;#P comment 447 354 214 196617 dim (def. 128) \, amp \, StdDev \, x0 \, y0 \, R \, G \, B;#P newex 417 352 27 196617 t b l;#P newex 357 262 49 196617 zl slice 1;#P newex 417 326 34 196617 zl reg;#P newex 357 285 44 196617 route 1.;#P newex 318 223 49 196617 zl slice 3;#P message 99 169 53 196617 getcell \$1;#P newex 99 71 29 196617 t b 0;#N counter 0 128;#X flags 0 0;#P newobj 99 119 72 196617 counter 0 128;#P newex 99 193 229 131465228 jit.matrix $0jit-mixer-points 9 float32 128;#B color 5;#P newex 748 666 335 196617 sprintf script send %done-jToop script send OSC-route /color %f %f %f;#P newex 334 670 394 196617 sprintf script new %done-jToop bpatcher %d %d 68 34 0 0 one-jToop 0 %d $0_;#P message 380 141 199 196617 setcell \$1 val 1 \$2 \$3 \$4 \$5 \$6 \$7 \$8 \$9;#P comment 312 161 265 196617 val: on/off dim (def. 128) \, amp \, StdDev \, x0 \, y0 \, R \, G \, B;#P connect 28 0 6 0;#P connect 40 0 6 0;#P fasten 42 0 5 0 176 488 36 276 61 145;#P connect 6 0 5 0;#P connect 5 0 19 0;#P connect 19 0 7 0;#P connect 7 0 4 0;#P connect 6 1 5 2;#P connect 4 1 8 0;#P connect 29 1 20 0;#P connect 20 0 2 0;#P connect 19 1 21 0;#P connect 21 0 20 1;#P connect 8 1 11 0;#P connect 11 0 9 0;#P connect 12 0 43 0;#P connect 43 0 42 0;#P connect 9 0 10 0;#P connect 10 0 12 0;#P connect 12 1 15 0;#P connect 15 1 17 0;#P connect 17 0 18 0;#P connect 18 0 29 0;#P connect 11 1 10 1;#P connect 27 0 25 0;#P connect 25 0 30 0;#P connect 29 2 27 0;#P connect 30 0 2 1;#P connect 24 0 30 1;#P connect 27 1 26 0;#P connect 26 0 31 0;#P connect 23 0 24 0;#P connect 24 1 31 1;#P connect 31 0 2 2;#P connect 24 0 46 0;#P connect 24 1 45 0;#P connect 20 0 2 3;#P fasten 29 0 22 0 478 494;#P connect 22 0 39 0;#P connect 39 0 36 0;#P connect 18 1 22 1;#P fasten 21 0 36 1 387 631;#P connect 36 0 3 0;#P connect 36 0 37 0;#P connect 36 0 38 0;#P connect 2 0 32 0;#P connect 44 0 32 0;#P connect 3 0 32 0;#P connect 37 0 32 0;#P connect 38 0 32 0;#P connect 36 0 44 0;#P connect 34 0 3 1;#P connect 39 1 34 0;#P connect 34 1 35 0;#P connect 35 0 37 1;#P connect 35 1 38 1;#P pop;#P newobj 306 513 74 196617 p place-jToops;#N vpatcher 9 45 1014 758;#P origin -352 -250;#P button 365 233 15 0;#P button 233 290 15 0;#P newex 215 247 42 196617 del 500;#P newex 221 193 28 196617 t b s;#P newex 299 285 34 196617 zl reg;#P newex 354 272 34 196617 zl reg;#P newex 258 247 42 196617 del 250;#P newex 996 451 105 196617 prepend bkgndpicture;#N comlet to outside pictslider;#P outlet 1042 576 15 0;#N comlet bang to read image only;#P inlet 836 140 15 0;#P newex 815 248 105 196617 sprintf %s.space.jpeg;#P outlet 871 570 15 0;#P newex 864 521 60 196617 prepend set;#P message 624 498 172 196617 script bringtofront lookup-pictslider;#P message 584 478 154 196617 script sendtoback lookup-matrix;#P newex 647 351 40 196617 t b s s;#N comlet to place pointes;#P outlet 770 601 15 0;#P newex 165 313 27 196617 del;#P message 165 293 26 196617 300;#P newex 197 160 108 196617 t b s s s;#N comlet bang to read image only;#P inlet 616 135 15 0;#P outlet 685 601 15 0;#P newex 620 269 27 196617 del;#P newex 647 318 34 196617 zl reg;#P message 620 249 26 196617 300;#P newex 676 412 235 196617 prepend script send lookup-pictslider bkgndpicture;#P newex 698 250 105 196617 sprintf %s.space.jpeg;#P inlet 182 120 15 0;#P newex 369 309 103 196617 sprintf %s.points.jxf;#P outlet 327 609 15 0;#P newex 334 367 65 196617 prepend read;#P newex 499 309 95 196617 sprintf %s.data.jxf;#P newex 245 323 101 196617 sprintf %s.space.jxf;#P outlet 431 616 15 0;#P outlet 256 597 15 0;#P newex 428 367 65 196617 prepend read;#P newex 263 367 65 196617 prepend read;#P connect 18 0 19 0;#P connect 9 0 17 0;#P connect 33 0 34 0;#P connect 17 1 33 0;#P connect 32 0 4 0;#P connect 0 0 2 0;#P connect 33 0 30 0;#P connect 4 0 0 0;#P connect 35 0 32 0;#P connect 34 0 32 0;#P connect 33 1 32 1;#P connect 6 0 7 0;#P connect 8 0 6 0;#P connect 36 0 31 0;#P connect 30 0 31 0;#P connect 31 0 8 0;#P connect 33 1 31 1;#P connect 5 0 1 0;#P connect 1 0 3 0;#P fasten 33 1 5 0 528 250;#P connect 21 0 22 0;#P connect 16 0 12 0;#P connect 12 0 14 0;#P connect 21 0 23 0;#P connect 14 0 13 0;#P connect 10 0 13 0;#P connect 13 0 21 0;#P connect 26 0 13 1;#P connect 21 1 11 0;#P connect 11 0 15 0;#P connect 23 0 15 0;#P connect 22 0 15 0;#P connect 17 2 10 0;#P fasten 19 0 20 0 185 433;#P connect 27 0 26 0;#P fasten 17 3 24 0 1045 233;#P connect 24 0 25 0;#P fasten 21 2 29 0 1034 391;#P connect 29 0 28 0;#P pop;#P newobj 479 393 92 196617 p read;#N vpatcher 30 70 1032 560;#N comlet bang to write image only;#P inlet 83 49 15 0;#P newex 481 239 34 196617 zl reg;#P outlet 477 365 15 0;#P newex 693 100 110 196617 sprintf :%s.space.jpeg;#P newex 204 285 71 196617 prepend write;#P newex 205 209 34 196617 zl reg;#P newex 408 109 105 196617 sprintf :%s.points.jxf;#P newex 307 220 34 196617 zl reg;#P newex 293 286 71 196617 prepend write;#P newex 128 286 71 196617 prepend write;#P newex 564 101 99 196617 sprintf :%s.data.jxf;#P newex 297 107 105 196617 sprintf :%s.space.jxf;#P newex 132 209 34 196617 zl reg;#N comlet (s) base name;#P inlet 286 39 15 0;#N comlet bang to write;#P inlet 27 49 15 0;#P outlet 126 355 15 0;#P outlet 179 356 15 0;#P outlet 240 358 15 0;#P connect 8 0 2 0;#P connect 5 0 8 0;#P connect 3 0 5 0;#P connect 6 0 5 1;#P connect 13 0 1 0;#P connect 12 0 13 0;#P connect 3 0 12 0;#P connect 11 0 12 1;#P connect 9 0 0 0;#P connect 10 0 9 0;#P connect 4 0 6 0;#P connect 3 0 10 0;#P connect 7 0 10 1;#P connect 4 0 11 0;#P connect 16 0 15 0;#P fasten 3 0 16 0 418 215;#P connect 17 0 16 0;#P connect 14 0 16 1;#P connect 4 0 7 0;#P connect 4 0 14 0;#P pop;#P newobj 594 394 53 196617 p write;#P outlet 292 673 15 0;#P message 920 497 60 196617 /clear bang;#N vpatcher 112 53 943 736;#P newex 89 551 250 196617 sprintf /draw/draw-matrix.voi/%d/color %f %f %f;#P newex 70 369 27 196617 - 1;#P newex 187 509 64 196617 pack 1. 1. 1.;#P message 26 131 235 196617 val: dim (def. 128) \, amp \, StdDev \, x0 \, y0 \, R \, G \, B;#P newex 57 472 182 196617 unpack cell 1 val 128 1. 1. 1 1 1. 1. 1.;#P newex 40 345 40 196617 uzi;#P newex 70 399 75 196617 prepend getcell;#P newex 70 428 229 131465228 jit.matrix $0jit-mixer-points 9 float32 128;#B color 5;#P message 38 307 177 196617 jit_matrix $0jit-mixer-points;#P newex 238 320 27 196617 t i i;#P message 223 178 177 196617 jit_matrix $0jit-mixer-points;#P outlet 452 623 15 0;#P inlet 169 33 15 0;#P message 268 361 111 196617 /number-of-jToops \$1;#P message 568 411 71 196617 /listlength \$1;#P newex 240 296 31 196617 Lsum;#P message 447 173 139 196617 jit_matrix $0jit-mixer-data;#P user multiSlider 223 235 125 38 0. 2. 128 2937 47;#M frgb 0 0 0;#M brgb 255 255 255;#M rgb2 127 127 127;#P newex 223 203 158 196617 jit.spill @plane 0 @listlength 128;#P newex 573 258 55 196617 unpack 1 1;#P newex 447 228 199 196617 route planecount type dim;#P newex 447 207 70 196617 jit.matrixinfo;#P newex 167 60 31 196617 t b b;#P connect 13 0 17 0;#P connect 15 1 18 0;#P connect 17 2 21 0;#P connect 21 0 16 0;#P connect 16 0 15 0;#P connect 18 1 22 0;#P connect 10 0 0 0;#P connect 20 0 22 1;#P connect 18 8 20 0;#P connect 18 9 20 1;#P connect 0 0 12 0;#P connect 12 0 4 0;#P connect 4 0 5 0;#P connect 7 0 13 0;#P connect 5 0 7 0;#P connect 18 10 20 2;#P connect 13 1 9 0;#P connect 0 1 6 0;#P connect 6 0 1 0;#P connect 1 0 2 0;#P connect 22 0 11 0;#P connect 8 0 11 0;#P connect 9 0 11 0;#P connect 3 0 8 0;#P connect 2 2 3 0;#P pop;#P newobj 53 418 104 196617 p n-jToops_listlength;#P newex 517 122 71 196617 route points 0;#P newex 515 512 115 196617 prepend /matrix/points;#P newex 395 190 40 196617 t b s s;#P newex 314 161 55 196617 route bang;#N comlet read;#P inlet 517 88 15 0;#N comlet to thispatcher;#P outlet 890 676 15 0;#P newex 433 160 27 196617 b;#N comlet write jpeg image;#P inlet 408 98 15 0;#P outlet 781 674 15 0;#P newex 639 512 108 196617 prepend /matrix/data;#P newex 395 512 114 196617 prepend /matrix/space;#N comlet write all;#P inlet 314 98 15 0;#P newex 548 172 66 196617 t b b s b b;#P message 651 79 86 196617 $1;#P connect 29 0 14 0;#P connect 26 0 14 0;#P connect 1 0 27 0;#P connect 27 0 26 0;#P connect 24 0 23 0;#P connect 28 0 24 0;#P connect 1 1 28 0;#P connect 15 0 16 0;#P connect 14 0 16 0;#P connect 4 0 16 0;#P connect 12 0 16 0;#P connect 3 0 16 0;#P connect 23 0 16 0;#P connect 13 0 19 0;#P connect 2 0 10 0;#P connect 10 1 11 0;#P connect 18 0 3 0;#P connect 17 0 3 0;#P connect 6 0 7 0;#P connect 1 2 18 0;#P connect 18 1 12 0;#P connect 17 1 12 0;#P connect 0 0 13 0;#P connect 9 0 13 0;#P connect 7 0 18 1;#P connect 13 2 1 0;#P fasten 11 2 18 2 523 271;#P connect 10 0 17 0;#P connect 11 0 17 0;#P connect 13 1 31 0;#P connect 1 3 25 0;#P connect 11 1 17 2;#P connect 1 2 17 2;#P connect 18 2 4 0;#P connect 17 2 4 0;#P connect 20 0 0 0;#P connect 13 2 30 0;#P connect 17 3 5 0;#P connect 18 3 8 0;#P fasten 19 0 8 0 320 563;#P connect 1 4 15 0;#P connect 18 5 21 0;#P connect 18 6 22 0;#P pop;#P newobj 912 317 105 196617 p read-write;#P hidden message 531 122 75 196617 /update matrix;#P message 262 21 30 472055817 swim;#P message 236 21 25 472055817 edit;#P toggle 787 44 15 0;#P newex 717 83 84 196617 print-everything;#N thispatcher;#Q end;#P hidden newobj 603 238 59 196617 thispatcher;#N vpatcher 707 208 1269 556;#P newex 183 78 27 196617 b;#P newex 60 77 27 196617 b;#N comlet resend;#P inlet 313 40 15 0;#P newex 221 211 34 196617 zl reg;#P newex 344 211 34 196617 zl reg;#P user textedit 393 151 495 173 0 3 9 532 603;#P user textedit 270 150 337 173 0 3 9 21 89;#P inlet 183 40 15 0;#P inlet 60 39 15 0;#P newex 344 236 143 196617 s $0_mouse-bottomright;#P newex 344 150 45 196617 pack 1 1;#P newex 330 119 66 196617 mousestate;#P newex 221 236 120 196617 s $0_mouse-topleft;#P newex 221 150 45 196617 pack 1 1;#P newex 207 120 66 196617 mousestate;#P connect 6 0 13 0;#P connect 7 0 14 0;#P connect 13 1 0 0;#P connect 0 1 1 0;#P connect 12 0 11 0;#P connect 1 0 11 0;#P fasten 14 0 11 0 188 161;#P connect 11 0 2 0;#P connect 0 2 1 1;#P connect 1 0 8 0;#P connect 14 1 3 0;#P connect 3 1 4 0;#P connect 4 0 10 0;#P connect 12 0 10 0;#P fasten 13 0 10 0 65 173;#P connect 10 0 5 0;#P connect 3 2 4 1;#P connect 4 0 9 0;#P pop;#P hidden newobj 709 716 61 196617 p send-coor;#P toggle 332 21 15 0;#P objectname draw-3D;#N comlet (jit-matrix) interpolated list;#P hidden outlet 587 700 33 0;#N vpatcher 40 55 540 447;#P button 48 186 15 0;#P message 326 129 14 196617 a;#P newex 221 174 135 196617 sprintf exportimage %s jpeg;#P inlet 295 51 15 0;#P user jit.pwindow 97 284 82 62 0 1 0 0 1 0;#P newex 90 173 51 196617 jit.concat;#P newex 90 232 188 196617 jit.matrix $0jit-mixer-2D-display;#P inlet 90 58 15 0;#P connect 0 0 2 0;#P connect 5 0 1 0;#P connect 2 0 1 0;#P connect 7 0 1 0;#P connect 1 0 3 0;#P connect 0 0 2 1;#P connect 6 0 5 0;#P connect 4 0 5 0;#P pop;#P newobj 717 556 59 196617 p save-pict;#P newex 671 55 101 196617 r $0_to-myself;#N vpatcher 157 82 1171 802;#P newex 549 133 74 196617 print storing...;#P outlet 568 683 15 0;#P newex 384 95 27 196617 t l l;#P newex 709 454 45 196617 pack 1 0;#P newex 652 412 27 196617 - 1;#P newex 128 413 27 196617 - 1;#P newex 223 412 27 196617 int;#P newex 177 386 27 196617 t b f;#P newex 65 442 139 196617 sprintf setcell %d %d val %f;#P newex 177 358 73 196617 list-inumerate;#P newex 177 326 34 196617 zl reg;#P newex 622 323 94 196617 prepend jit_matrix;#P newex 598 407 34 196617 zl reg;#P newex 745 413 27 196617 - 1;#P message 652 524 83 196617 dstdimend \$2 \$1;#P message 742 524 91 196617 dstdimstart \$2 \$1;#P newex 745 388 75 196617 r $0-listlength;#P newex 652 453 45 196617 pack 1 1;#P newex 429 312 50 196617 t b i 1;#P newex 384 333 40 196617 t b i 0;#P newex 411 283 35 196617 gate 2;#P newex 561 199 27 196617 t 2 l;#P newex 485 211 27 196617 t 1 l;#P newex 492 505 149 196617 jit.fill $0jit-mixer-data;#P newex 536 321 75 196617 r $0-listlength;#P comment 917 395 115 1310730 Use destination dimensions;#P toggle 902 394 15 0;#P message 902 412 80 1441802 usedstdim \$1;#P newex 568 640 108 196617 prepend /matrix/data;#P message 466 451 59 196617 offset 0 \$1;#P newex 452 393 94 196617 expr ($i1-1) * $i2;#P newex 440 148 83 196617 route jit_matrix;#P newex 401 123 49 196617 zl slice 1;#P inlet 384 53 15 0;#P connect 27 0 25 0;#P connect 14 1 28 0;#P connect 28 0 25 1;#P fasten 14 0 23 0 182 290;#P connect 23 0 24 0;#P connect 24 0 26 0;#P connect 26 1 25 2;#P connect 11 1 23 1;#P connect 26 0 27 0;#P connect 24 1 27 1;#P connect 0 0 31 0;#P connect 13 0 14 0;#P connect 31 1 1 0;#P connect 11 0 13 0;#P connect 12 0 13 0;#P connect 13 1 15 0;#P connect 1 0 13 1;#P connect 1 1 2 0;#P connect 14 1 3 0;#P connect 3 0 4 0;#P connect 2 1 11 0;#P connect 4 0 10 0;#P connect 9 0 3 1;#P connect 0 0 33 0;#P connect 2 0 12 0;#P fasten 6 0 5 0 900 534;#P connect 25 0 5 0;#P connect 18 0 5 0;#P connect 19 0 5 0;#P connect 10 0 5 0;#P connect 21 0 5 0;#P connect 5 0 32 0;#P fasten 15 0 21 0 474 380 548 388 584 402 597 388;#P connect 12 1 22 0;#P connect 22 0 21 1;#P fasten 15 1 29 0 505 375 570 383 613 374;#P connect 29 0 16 0;#P connect 16 0 19 0;#P connect 20 0 16 1;#P connect 29 0 30 0;#P connect 30 0 18 0;#P connect 17 0 20 0;#P connect 15 2 7 0;#P connect 14 2 7 0;#P connect 7 0 6 0;#P pop;#P newobj 866 317 40 196617 p store;#N vpatcher 30 70 1044 526;#P newex 1023 297 161 196617 sprintf script delete %done-jToop;#P newex 1072 183 42 196617 uzi 128;#P newex 433 233 115 196617 prepend /matrix/points;#P newex 677 233 108 196617 prepend /matrix/data;#P newex 556 234 114 196617 prepend /matrix/space;#P message 189 200 105 196617 /number-of-jToops 1;#N comlet to thispatcher;#P outlet 894 361 15 0;#P message 766 184 301 196617 script send lookup-pictslider bkgndpicture blank.jToop.space.jpeg;#P outlet 81 337 15 0;#P message 665 183 65 196617 dim 768 128;#P message 491 184 45 196617 dim 128;#P message 577 183 85 196617 dim 128 128 128;#P newex 218 89 40 196617 b 3;#P message 112 200 75 196617 /listlength 768;#P inlet 140 31 15 0;#P message 349 184 31 196617 clear;#P connect 2 0 7 0;#P connect 10 0 7 0;#P connect 13 0 7 0;#P connect 11 0 7 0;#P connect 12 0 7 0;#P connect 3 0 2 0;#P connect 3 0 10 0;#P connect 1 0 3 0;#P connect 3 1 0 0;#P connect 0 0 13 0;#P connect 5 0 13 0;#P connect 3 1 5 0;#P connect 0 0 11 0;#P connect 4 0 11 0;#P connect 3 1 4 0;#P connect 3 1 6 0;#P connect 6 0 12 0;#P connect 0 0 12 0;#P fasten 3 1 8 0 596 157;#P connect 15 0 9 0;#P connect 8 0 9 0;#P connect 14 2 15 0;#P connect 3 2 14 0;#P pop;#P newobj 763 317 92 196617 p clear;#N vpatcher 9 45 1023 765;#P number 551 416 35 9 0 0 0 3 0 0 0 221 221 221 222 222 222 0 0 0;#P number 515 416 35 9 0 0 0 3 0 0 0 221 221 221 222 222 222 0 0 0;#P newex 363 562 114 196617 prepend /matrix/space;#P newex 307 535 115 196617 prepend /matrix/points;#P newex 593 277 49 196617 zl slice 2;#P newex 84 185 27 196617 + 1;#N comlet bang when done adding;#P outlet 352 754 15 0;#P newex 87 165 49 196617 zl slice 1;#P newex 86 219 235 196617 sprintf /draw/draw-matrix.voi/%d/recolor bang;#P newex 485 108 53 196617 t l l l l;#P message 188 293 199 196617 setcell \$1 val 1 \$2 \$3 \$4 \$5 \$6 \$7 \$8 \$9;#P comment 953 687 104 196617 to middle inlet;#P newex 445 324 27 196617 + 1;#P newex 445 294 49 196617 zl slice 1;#N comlet row added;#P outlet 670 747 15 0;#N comlet number of toops;#P inlet 1064 135 15 0;#N comlet bang when done adding;#P outlet 426 745 15 0;#P inlet 549 54 15 0;#P comment 991 346 104 196617 total number of toops;#P number 950 344 35 9 0 0 0 3 0 0 0 221 221 221 222 222 222 0 0 0;#P newex 773 639 93 196617 expr $f1/$f2*$f3;#P newex 812 593 48 196617 grab-one;#P newex 556 365 55 196617 unpack 1 1;#P newex 604 239 49 196617 zl slice 4;#P newex 688 331 53 196617 t i b i i;#P newex 966 660 74 196617 pack dim 1 1 1;#P newex 773 571 27 196617 t f f;#P newex 622 180 92 196617 t b l b l l b l;#P newex 670 236 134 196617 unpack 1 1 1. 1. 1 1 1. 1. 1.;#P user fpic 885 571 276 49 gimg1083.gif 0 0 0 0. 0 0 0;#P flonum 783 343 35 9 0 0 0 3 0 0 0 221 221 221 222 222 222 0 0 0;#P number 860 343 35 9 0 0 0 3 0 0 0 221 221 221 222 222 222 0 0 0;#P number 824 343 35 9 0 0 0 3 0 0 0 221 221 221 222 222 222 0 0 0;#P number 688 310 35 9 0 0 0 3 0 0 0 221 221 221 222 222 222 0 0 0;#P newex 648 516 27 196617 t b i;#P newex 704 540 27 196617 - 1;#P newex 672 540 27 196617 - 1;#P newex 653 664 115 196617 pack setcell 0 0 1 val 1.;#P button 662 369 15 0;#P newex 757 525 235 196617 expr (1./2./3.1415/($f3*$f3))*exp(-1.*(($f1-$f4)*($f1-$f4)+($f2-$f5)*($f2-$f5))/2./($f3*$f3));#P newex 627 457 40 196617 uzi 64;#P newex 662 393 40 196617 uzi 64;#P comment 120 313 235 196617 val: dim (def. 128) \, amp \, StdDev \, x0 \, y0 \, R \, G \, B;#P connect 35 0 37 0;#P connect 37 0 34 0;#P connect 33 2 35 0;#P connect 33 3 32 0;#P connect 32 0 39 0;#P fasten 34 0 36 0 125 676;#P connect 40 0 36 0;#P connect 39 0 36 0;#P connect 5 0 40 0;#P fasten 15 0 26 0 442 229 419 335 442 454 502 586;#P connect 15 1 29 0;#P connect 29 0 30 0;#P connect 25 0 33 0;#P connect 20 0 41 0;#P connect 20 1 42 0;#P connect 38 0 20 0;#P connect 19 1 38 0;#P connect 15 3 19 0;#P connect 33 1 15 0;#P connect 1 0 2 0;#P fasten 2 2 8 0 662 495 653 495;#P connect 8 0 5 0;#P connect 18 0 2 1;#P fasten 15 2 4 0 537 268;#P connect 4 0 1 0;#P connect 15 4 14 0;#P fasten 30 0 28 0 583 686;#P connect 8 1 6 0;#P connect 6 0 5 1;#P connect 14 1 9 0;#P connect 9 0 18 0;#P connect 18 0 1 1;#P connect 7 0 5 2;#P connect 1 2 7 0;#P fasten 14 0 5 3 513 362;#P connect 20 0 3 0;#P connect 2 2 3 0;#P connect 22 0 5 5;#P connect 3 0 16 0;#P connect 16 0 22 0;#P connect 14 3 12 0;#P connect 16 1 21 0;#P connect 20 1 3 1;#P connect 1 2 3 1;#P connect 21 1 22 1;#P connect 14 4 10 0;#P connect 15 5 21 1;#P fasten 14 2 22 2 744 594;#P connect 14 5 11 0;#P connect 12 0 3 2;#P connect 10 0 3 3;#P connect 27 0 23 0;#P connect 18 1 17 0;#P connect 11 0 3 4;#P connect 18 2 17 1;#P connect 18 3 17 2;#P connect 23 0 17 3;#P pop;#P newobj 666 334 66 196617 p add;#N vpatcher 220 42 1229 762;#P toggle 103 374 15 0;#P newex 104 404 27 196617 t i i;#P newex 154 442 27 196617 gate;#P newex 117 442 27 196617 gate;#N comlet (int) number of toops;#P inlet 480 26 15 0;#P user textedit 298 81 404 129 0 3 9 41 102;#P outlet 644 730 15 0;#P newex 328 725 34 196617 zl reg;#P number 375 472 35 9 0 0 0 3 0 0 0 221 221 221 222 222 222 0 0 0;#P user multiSlider 557 340 109 53 0. 1. 38 2681 15;#M frgb 0 0 0;#M brgb 255 255 255;#M rgb2 127 127 127;#P newex 352 699 27 196617 t l l;#P newex 352 655 99 196617 jit.op @op + @val 0.;#P outlet 327 748 15 0;#P newex 259 493 27 196617 t b f;#P newex 352 618 63 196617 jit.op @op *;#P newex 259 463 73 196617 list-inumerate;#P message 281 548 163 196617 jit_matrix $0jit-mixer-data;#P newex 282 576 62 196617 jit.a.getrow;#P newex 259 411 45 196617 Lmult 1.;#P newex 265 324 70 196617 t b l l clear 0.;#P newex 293 383 29 196617 !/ 1.;#P newex 293 363 43 196617 Lsum 0.;#P message 123 179 65 196617 getcell 1 1 1;#P newex 32 224 250 196617 jit.matrix $0jit-mixer-space 1 float32 128 128 128;#P newex 261 288 44 196617 zl group;#P newex 132 135 27 196617 - 1;#P newex 55 103 55 196617 unpack 1 1;#P newex 58 63 27 196617 t b l;#P newex 29 178 88 196617 pack getcell 1 1 1;#P newex 209 259 49 196617 zl slice 5;#P newex 113 103 40 196617 uzi;#N comlet (int) number of toops;#P inlet 214 30 15 0;#N comlet (list) position;#P inlet 56 23 15 0;#P comment 385 346 100 196617 need to add up rows;#P connect 3 0 5 0;#P connect 11 0 10 0;#P connect 5 0 10 0;#P connect 6 1 7 0;#P connect 7 0 5 1;#P connect 1 0 6 0;#P connect 7 1 5 2;#P fasten 29 0 33 0 561 252 142 343;#P connect 33 0 32 0;#P connect 8 0 5 3;#P connect 6 0 3 0;#P connect 32 0 30 0;#P connect 3 2 8 0;#P connect 14 0 30 1;#P connect 2 0 3 1;#P connect 32 1 31 0;#P connect 15 0 31 1;#P connect 10 1 4 0;#P connect 14 1 15 0;#P connect 31 0 18 0;#P connect 25 0 20 0;#P connect 18 0 20 0;#P connect 4 1 9 0;#P connect 9 0 14 0;#P connect 20 0 17 0;#P connect 17 0 16 0;#P connect 14 2 12 0;#P connect 12 0 13 0;#P connect 13 0 15 1;#P connect 2 0 9 1;#P connect 1 0 28 0;#P connect 26 0 21 0;#P connect 30 0 26 0;#P connect 25 0 16 1;#P connect 18 1 16 1;#P connect 16 0 19 0;#P connect 19 0 22 0;#P connect 22 0 23 0;#P fasten 14 3 23 0 538 479 462 606 481 655;#P connect 23 0 26 1;#P connect 20 1 19 1;#P fasten 23 1 22 1 427 723 493 711 513 676 498 655 459 644;#P fasten 14 4 22 1 506 441 452 578 423 615;#P connect 15 0 24 0;#P fasten 15 0 27 0 580 465;#P pop;#P newobj 588 451 44 196617 p lookup;#P newex 644 145 342 196617 osc-route /lookup /add /clear /number-of-jToops /draw /store /write /update /mode /listlength /ali.mtr /read /matrix /interpolate /draw-2D;#P message 717 449 289 196617 /matrix jit_matrix $0jit-mixer-space;#N vpatcher 26 55 1040 775;#P message 500 522 83 196617 /*/recolor bang;#P newex 928 65 27 196617 - 1;#P newex 1136 178 49 196617 zl slice 9;#P newex 942 139 210 196617 jit.matrix $0jit-mixer-points 9 float32 128;#P message 942 117 53 196617 getcell \$1;#P number 543 98 35 9 0 0 0 3 0 0 0 221 221 221 222 222 222 0 0 0;#P toggle 173 386 15 0;#P newex 106 417 93 196617 print-everything 1;#P newex 535 332 79 196617 sprintf set /%d;#P newex 413 508 27 196617 t b l;#P newex 396 75 28 196617 t b b;#P newex 300 50 340 196617 osc-route /matrix /render /reset /recolor /draw-matrix.voi /n-jToops;#P newex 866 678 219 196617 jit.matrix $0temp3 4 float32 16 16 @interp 1;#P newex 866 706 111 196617 jit.op @op / @val 255.;#P outlet 865 760 15 0;#P newex 867 730 74 196617 jit.a.normalize;#P newex 298 84 34 196617 zl reg;#P newex 444 98 28 196617 t b b;#P newex 633 256 40 196617 t l l l;#P newex 864 394 53 196617 jit.pack 4;#P newex 1050 366 53 196617 zl group 3;#P newex 1050 346 27 196617 int;#P newex 1050 300 25 196617 iter;#P newex 1050 323 85 196617 zmap 0. 1. 0 255;#P newex 943 649 34 196617 zl reg;#P newex 965 602 27 196617 t l l;#P newex 965 576 62 196617 jit.op @op +;#P newex 965 518 63 196617 jit.op @op *;#P message 1046 394 139 196617 setcell 0 0 val 255 \$1 \$2 \$3;#P newex 1019 419 145 196617 jit.matrix $0temp1 4 char 1 1;#P newex 1019 465 205 196617 jit.matrix $0temp2 4 char 16 16 @interp 1;#P newex 538 585 82 196617 loadbanger clear;#P newex 390 351 27 196617 t b i;#P newex 390 330 40 196617 change;#P newex 465 585 70 196617 prepend store;#N coll $0-colors 1;#P newobj 465 614 82 196617 coll $0-colors 1;#P button 141 238 15 0;#P message 270 639 139 196617 drawto $0jit-mixer_window;#P message 179 50 115 196617 jit_matrix $0jit-mixer;#P message 344 431 83 196617 /*/recolor bang;#P comment 369 457 89 196617 a way of talking to;#P comment 674 220 211 196617 isolate one dimension of the n x n x m matrix;#P newex 564 484 52 196617 prepend ?;#P newex 457 454 70 196617 OSC-to-poly~;#P newex 133 477 70 196617 poly~-control;#P comment 733 458 164 196617 convert n x n x 1 to n x n;#P newex 488 376 52 196617 prepend ?;#P newex 573 364 115 196617 sprintf set /%d/matrix;#P newex 498 236 40 196617 t b i i;#P newex 407 376 75 196617 prepend voices;#N vpatcher 483 189 1205 617;#P inlet 650 130 15 0;#P message 543 290 14 196617 1;#P toggle 609 292 15 0;#P message 609 312 44 196617 axes \$1;#P toggle 520 293 15 0;#P message 520 313 85 196617 poly_mode \$1 \$1;#P user ubumenu 542 163 84 196617 0 1 1;#X add points;#X add lines;#X add line_strip;#X add line_loop;#X add triangles;#X add tri_strip;#X add tri_fan;#X add quads;#X add quad_strip;#X add polygon;#X add tri_grid;#X add quad_grid;#X prefix_set 0 0 <none>;#P comment 559 210 100 196617 other draw prims;#P message 478 294 20 196617 75;#P newex 688 211 50 196617 loadbanger;#P message 439 313 70 196617 lens_angle \$1;#P flonum 439 294 35 9 0 0 0 3 0 0 0 221 221 221 222 222 222 0 0 0;#P message 444 164 52 196617 quad_grid;#P message 191 280 249 196617 lookat 0 0 1 \, camera 0. 3 0 \, color 1. 1. 1. 0.5 \, erase_color 0. 0. 0. 1. \, depth_enable 1 \, usetexture 0;#P outlet 183 391 15 0;#P fasten 1 0 0 0 196 284 188 284;#P fasten 4 0 0 0 444 355 188 355;#P fasten 2 0 0 0 449 251 188 251;#P fasten 8 1 0 0 584 253 188 253;#P connect 9 0 0 0;#P connect 11 0 0 0;#P connect 5 0 1 0;#P connect 6 0 3 0;#P connect 3 0 4 0;#P connect 5 0 2 0;#P connect 5 0 6 0;#P connect 13 0 10 0;#P connect 10 0 9 0;#P connect 5 0 13 0;#P connect 13 0 12 0;#P connect 12 0 11 0;#P pop;#P newobj 141 262 44 196617 p init-gl;#P newex 204 418 70 196617 OSC-to-poly~;#P newex 204 477 263 196617 poly~ jToop.draw-matrix.voi 1 args $0jit-mixer-points;#P newex 602 455 128 196617 jit.matrix 1 float32 16 16;#P newex 518 294 79 196617 t b b i i b i;#P newex 693 94 27 196617 - 1;#P message 693 142 65 196617 splitpoint \$1;#P newex 617 231 42 196617 jit.split;#P newex 298 129 66 196617 t b b 0 l l;#P newex 532 183 34 196617 zl reg;#P newex 398 239 45 196617 pack 1 1;#P newex 609 100 74 196617 loadbanger 2 3;#P number 741 80 35 9 0 0 0 3 0 0 0 221 221 221 222 222 222 0 0 0;#P message 741 117 65 196617 splitpoint \$1;#P message 609 127 59 196617 splitdim \$1;#P newex 644 199 42 196617 jit.split;#P newex 479 268 40 196617 uzi;#P newex 442 212 65 196617 unpack 1 1 1;#P inlet 298 28 15 0;#P newex 398 265 62 196617 prepend dim;#P newex 316 191 199 196617 route planecount type dim;#P newex 316 170 70 196617 jit.matrixinfo;#P comment 100 297 97 196617 erase \, then bang to send the geometry \, then bang to swap display buffer.;#P message 23 570 32 196617 reset;#P comment 34 600 154 196617 the window is made in here. drag in window to rotate the rendered geometry. hit 'esc' to toggle fullscreen mode.;#N vpatcher 510 255 1116 609;#P inlet 103 37 15 0;#P newex 104 69 27 196617 gate;#P inlet 8 72 15 0;#P newex 13 183 37 196617 == 0;#P toggle 353 251 15 0;#P message 353 270 75 196617 auto_rotate \$1;#P newex 104 138 27 196617 t i i;#P flonum 262 250 35 9 0 0 0 3 0 0 0 221 221 221 222 222 222 0 0 0;#P message 262 270 51 196617 radius \$1;#P flonum 195 250 35 9 0 0 0 3 0 0 0 221 221 221 222 222 222 0 0 0;#P message 195 270 60 196617 tracking \$1;#P newex 11 291 490 196617 jit.gl.handle $0jit-mixer_window @inherit_transform 1 @depth_enable 1 @tracking 1 @radius 1.414;#P message 13 204 93 196617 \; jit menubar \$1;#P outlet 11 321 15 0;#P newex 104 95 50 196617 select 27;#P newex 150 30 40 196617 key;#P newex 121 183 91 196617 prepend fullscreen;#P newex 121 204 329 196617 jit.window $0jit-mixer_window @rect 10 50 200 200 @depthbuffer 1;#P comment 11 255 178 196617 inherit_transform is important here \, since we are controlling jit.gl.render;#P toggle 104 118 15 0;#P fasten 9 0 8 0 200 285 16 285;#P fasten 11 0 8 0 267 288 16 288;#P fasten 14 0 8 0 358 288 16 288;#P connect 17 0 8 0;#P connect 8 0 6 0;#P fasten 13 0 16 0 109 169 18 169;#P connect 16 0 7 0;#P connect 19 0 18 0;#P connect 18 0 5 0;#P connect 5 0 0 0;#P connect 0 0 13 0;#P connect 4 0 18 1;#P connect 13 1 3 0;#P connect 3 0 2 0;#P connect 10 0 9 0;#P connect 12 0 11 0;#P connect 15 0 14 0;#P pop;#P newobj 24 654 115 196617 p window-mouse-rotate;#P toggle 34 204 15 0;#P newex 34 229 55 196617 qmetro 50;#P newex 34 297 55 196617 t b b erase;#P message 204 287 159 196617 plane 0 \, 0 0 1 1 \, plane 1 \, 0 1 0 1;#P newex 204 331 183 196617 jit.matrix $0small 2 float32 2 2;#P newex 204 310 103 196617 jit.fill $0small;#P newex 204 691 252 196617 jit.gl.render $0jit-mixer_window;#P comment 203 225 97 196617 order of planes for geometry matrix: x \, y \, z \, s \, t \, nx \, ny \, nz \, a \, r \, g \, b \, edges;#P comment 443 422 89 196617 default draw prim;#P newex 204 373 59 196617 prepend /*;#P fasten 75 0 12 0 120 216;#P connect 12 0 10 0;#P fasten 74 1 9 0 352 108 39 176;#P connect 9 0 8 0;#P connect 8 0 7 0;#P connect 0 0 78 0;#P fasten 9 0 10 1 21 231 21 499;#P connect 75 1 49 0;#P connect 49 0 35 0;#P connect 79 0 78 1;#P connect 27 0 6 0;#P connect 6 0 4 0;#P connect 4 0 5 0;#P connect 16 0 0 0;#P connect 7 1 0 0;#P connect 5 0 0 0;#P connect 39 0 34 0;#P connect 0 0 34 0;#P connect 36 0 33 0;#P connect 41 0 33 0;#P connect 34 0 33 0;#P fasten 10 0 3 0 29 683 209 683;#P connect 7 0 3 0;#P connect 7 2 3 0;#P connect 35 0 3 0;#P connect 48 0 3 0;#P connect 33 0 3 0;#P connect 68 0 69 0;#P connect 74 0 69 0;#P connect 47 0 27 0;#P connect 69 0 27 0;#P connect 17 0 74 0;#P connect 27 3 14 0;#P connect 14 0 15 0;#P connect 53 0 46 0;#P connect 68 1 46 0;#P connect 37 1 52 0;#P connect 52 0 53 0;#P connect 74 2 75 0;#P connect 18 0 25 0;#P connect 25 0 16 0;#P connect 53 1 36 0;#P connect 33 2 76 0;#P connect 18 1 25 1;#P connect 15 2 18 0;#P connect 74 3 68 0;#P connect 85 0 42 0;#P connect 43 0 42 0;#P fasten 74 4 42 0 588 97 770 75 866 140 900 197 798 356 672 393 629 437 497 434;#P connect 42 0 33 1;#P connect 76 1 51 0;#P connect 51 0 50 0;#P connect 54 0 50 0;#P fasten 27 1 19 0 303 214 378 259 484 259;#P connect 31 0 39 0;#P connect 77 0 39 0;#P fasten 74 5 37 0 578 209;#P connect 37 2 19 1;#P connect 19 2 31 0;#P connect 31 1 26 0;#P connect 31 3 77 0;#P connect 74 5 80 0;#P connect 27 4 26 1;#P connect 38 0 43 0;#P connect 32 0 43 0;#P connect 31 3 38 0;#P connect 16 0 32 0;#P connect 67 0 32 0;#P connect 24 0 21 0;#P connect 21 0 28 0;#P connect 20 0 28 0;#P fasten 29 0 28 0 698 165 622 165;#P connect 28 1 67 0;#P connect 26 0 20 0;#P fasten 22 0 20 0 746 165 649 165;#P fasten 21 0 20 0 614 165 649 165;#P connect 23 0 30 0;#P connect 30 0 29 0;#P connect 31 2 23 0;#P connect 24 1 23 0;#P connect 23 0 22 0;#P connect 67 1 66 0;#P connect 70 0 71 0;#P connect 16 0 73 0;#P connect 61 0 73 0;#P connect 73 0 72 0;#P connect 72 0 70 0;#P connect 67 1 66 1;#P connect 67 1 66 2;#P connect 67 1 66 3;#P connect 31 5 84 0;#P connect 84 0 81 0;#P connect 81 0 82 0;#P fasten 19 1 61 0 555 393;#P connect 66 0 58 0;#P connect 58 0 59 0;#P connect 59 0 60 0;#P connect 60 0 61 1;#P fasten 60 1 59 1 1073 642 1090 580 1028 564;#P fasten 27 2 59 1 887 306 954 547;#P connect 55 0 58 1;#P connect 57 0 56 0;#P fasten 31 4 56 0 974 346;#P connect 56 0 55 0;#P connect 16 0 55 0;#P connect 65 0 57 0;#P connect 83 1 63 0;#P connect 63 0 62 0;#P connect 62 0 64 0;#P connect 64 0 65 0;#P connect 82 1 83 0;#P pop;#P newobj 717 474 69 196617 p draw-space;#P comment 1285 107 212 196617 /number-of-toops: int \, total number of toops;#P comment 1285 73 115 196617 /lookup: list of int: x \, y;#P inlet 645 39 15 0;#P comment 1285 89 195 196617 /add: list: toop # \, dim \, amp \, std \, x0 \, y0;#P comment 217 5 76 472055817 ___mode____;#B color 13;#P comment 21 571 30 472055817 stop;#P user panel 2 633 384 37;#X brgb 255 241 43;#X frgb 0 0 0;#X border 0;#X rounded 0;#X shadow 0;#X done;#P user panel 2 551 114 82;#X brgb 255 187 43;#X frgb 0 0 0;#X border 0;#X rounded 0;#X shadow 0;#X done;#P user panel 269 551 245 119;#X brgb 255 197 75;#X frgb 0 0 0;#X border 0;#X rounded 0;#X shadow 0;#X done;#P user panel 116 550 153 85;#X brgb 255 224 141;#X frgb 0 0 0;#X border 0;#X rounded 0;#X shadow 0;#X done;#P user panel 4 1 510 37;#X brgb 255 201 59;#X frgb 0 0 0;#X border 0;#X rounded 0;#X shadow 0;#X done;#P user jit.pwindow 1 37 514 515 0 1 0 0 1 0;#P objectname lookup-matrix;#P hidden connect 108 0 152 0;#P hidden connect 83 0 82 0;#P hidden connect 86 0 82 0;#P hidden connect 36 0 39 0;#P hidden connect 39 0 36 0;#P hidden connect 78 0 54 0;#P hidden connect 75 0 72 0;#P hidden connect 72 0 76 0;#P hidden connect 72 0 73 0;#P hidden connect 81 0 80 0;#P hidden connect 72 0 74 0;#P hidden connect 77 0 60 0;#P hidden connect 80 1 86 0;#P hidden connect 77 1 58 0;#P hidden connect 77 2 59 0;#P hidden connect 77 3 47 0;#P hidden connect 77 4 49 0;#P hidden connect 77 5 90 0;#P hidden connect 15 0 77 0;#P hidden connect 16 2 77 1;#P hidden connect 60 0 77 1;#P hidden connect 16 1 123 0;#P hidden connect 15 1 77 2;#P hidden connect 88 0 100 0;#P hidden connect 35 0 29 0;#P hidden connect 36 0 46 0;#P hidden fasten 27 0 34 0 241 49 562 49;#P hidden fasten 28 0 34 0 267 46 562 46;#P hidden connect 37 0 46 1;#P hidden connect 38 0 46 2;#P fasten 14 13 150 0 689 271 579 317;#P hidden connect 64 0 46 3;#P hidden connect 15 0 21 0;#P connect 14 0 107 0;#P connect 107 0 15 0;#P hidden connect 66 0 46 4;#P hidden connect 46 2 24 0;#P connect 107 1 108 0;#P hidden connect 85 0 15 1;#P fasten 14 14 125 0 695 286;#P connect 125 0 121 0;#P hidden connect 15 1 91 0;#P connect 150 1 118 0;#P connect 118 0 15 2;#P connect 150 0 15 2;#P connect 19 0 14 0;#P connect 119 0 14 0;#P connect 94 0 14 0;#P connect 9 0 14 0;#P hidden connect 29 0 14 0;#P hidden connect 34 0 14 0;#P hidden connect 46 1 14 0;#P connect 48 0 14 0;#P hidden connect 100 0 14 0;#P fasten 30 4 106 0 1067 414 991 500 804 566;#P hidden connect 14 1 16 0;#P connect 12 0 149 0;#P connect 131 0 23 0;#P connect 19 0 25 0;#P connect 121 0 122 0;#P fasten 33 1 13 0 1035 381 1015 434 960 443 865 429 773 441 735 433;#P connect 122 0 13 0;#P connect 13 0 12 0;#P fasten 14 4 12 0 771 425;#P connect 12 0 20 0;#P connect 85 0 16 1;#P connect 14 3 45 0;#P connect 16 1 122 1;#P connect 132 0 23 1;#P hidden fasten 46 0 23 2 550 673 764 673;#P hidden connect 14 2 17 0;#P fasten 30 1 20 1 879 505;#P connect 45 0 85 0;#P connect 85 0 87 0;#P connect 16 0 98 0;#P connect 17 0 98 0;#P connect 30 0 98 0;#P connect 18 0 98 0;#P connect 87 0 98 0;#P connect 26 0 25 1;#P connect 133 0 151 0;#P connect 14 11 104 0;#P connect 133 0 136 0;#P connect 14 5 18 0;#P fasten 30 3 134 0 986 481;#P connect 134 0 136 1;#P connect 136 0 137 0;#P connect 138 0 137 0;#P connect 143 0 137 0;#P connect 14 7 33 0;#P connect 135 1 136 2;#P connect 14 6 30 0;#P connect 105 0 104 1;#P connect 30 2 31 0;#P connect 32 0 31 0;#P connect 17 1 31 0;#P connect 33 0 30 1;#P connect 139 0 138 0;#P fasten 143 1 142 0 1160 636 1222 636 1222 496 1000 496;#P connect 142 0 143 0;#P fasten 14 11 30 2 979 253;#P connect 14 12 93 0;#P connect 114 0 95 0;#P connect 93 0 95 0;#P connect 95 0 111 0;#P connect 142 1 143 1;#P connect 14 8 32 0;#P connect 93 0 109 0;#P connect 97 0 112 0;#P connect 140 0 143 2;#P connect 148 0 145 0;#P connect 145 0 115 0;#P connect 114 0 97 0;#P connect 93 1 97 0;#P connect 96 0 113 0;#P connect 103 0 55 0;#P connect 14 9 55 0;#P connect 55 0 99 0;#P connect 99 0 144 0;#P connect 102 0 103 0;#P connect 55 0 44 0;#P connect 141 0 143 3;#P connect 114 0 96 0;#P connect 93 2 96 0;#P connect 41 0 103 1;#P fasten 14 10 143 4 1196 330 1196 568;#P connect 110 0 109 1;#P connect 41 1 101 0;#P connect 101 0 102 0;#P pop;