max v2;#N vpatcher 9 45 557 744;#P origin 267 99;#P newex 677 587 95 196617 pvar lookup-matrix;#B color 14;#P newex 1089 641 75 196617 r init-ali.jToop;#P button 958 647 15 2;#P button 5 39 13 14;#P objectname top-left;#P button 516 551 13 14;#P objectname bottom-right;#P newex 1089 665 99 196617 pvar read-listlength;#B color 14;#P newex 1105 400 117 196617 s $0_to-myself;#N vpatcher 10 100 1096 764;#P origin 0 71;#N comlet ali.mtr dur-mult;#P inlet 225 92 15 0;#N comlet ali.mtr state;#P inlet 172 92 15 0;#P message 218 219 69 196617 /dur-mult \$1;#P message 159 219 52 196617 /state \$1;#N comlet to pictslider;#P outlet 162 429 15 0;#N comlet to top;#P outlet 101 425 15 0;#N comlet to ali.mtr;#P inlet 388 95 15 0;#N comlet y pos;#P inlet 84 93 15 0;#N comlet x pos;#P inlet 58 93 15 0;#P newex 140 345 92 196617 OSC-route /lookup;#P newex 140 309 40 196617 ali.mtr;#P newex 58 251 80 196617 prepend /lookup;#P newex 58 225 45 196617 pack 1 1;#P connect 4 0 0 0;#P connect 0 0 1 0;#P connect 5 0 0 1;#P fasten 1 0 7 0 109 396;#P connect 1 0 2 0;#P connect 2 0 3 0;#P connect 6 0 2 1;#P connect 9 0 2 1;#P connect 10 0 2 1;#P connect 11 0 9 0;#P connect 3 0 8 0;#P connect 12 0 10 0;#P pop;#P newobj 1003 618 170 196617 p loopkup-mtr;#P newex 1003 514 115 196617 pvar lookup-pictslider 2;#B color 14;#P newex 1123 551 72 196617 pvar dur-mult;#B color 14;#P newex 1083 533 62 196617 pvar record;#B color 14;#P newex 988 692 72 196617 pvar draw-3D;#B color 14;#P message 988 714 88 196617 /draw/render \$1;#P newex 902 751 80 196617 s $0_to-myself;#N vpatcher 50 40 450 340;#P newex 164 103 72 196617 prepend /read;#P inlet 200 42 15 0;#P outlet 71 141 15 0;#P inlet 86 36 15 0;#P inlet 60 34 15 0;#P newex 62 106 75 196617 prepend /write;#P newex 62 85 34 196617 zl reg;#P newex 84 61 54 196617 route text;#P connect 3 0 1 0;#P connect 1 0 2 0;#P connect 2 0 5 0;#P connect 7 0 5 0;#P connect 4 0 0 0;#P connect 0 0 1 1;#P connect 6 0 7 0;#P pop;#P newobj 864 646 54 196617 p filename;#P newex 908 612 83 196617 pvar favorites 2;#B color 14;#P newex 886 594 70 196617 pvar filename;#B color 14;#P newex 864 572 55 196617 pvar write;#B color 14;#P newex 742 671 90 196617 pvar bottom-right;#B color 14;#P newex 717 650 65 196617 pvar top-left;#B color 14;#P comment 409 559 115 196617 ____interpolation____;#B color 13;#P comment 281 559 115 196617 _____one jToop______;#B color 13;#P comment 471 13 53 472055817 _boom__;#B color 13;#P comment 370 12 80 472055817 _interpolate__;#B color 13;#P comment 304 12 62 472055817 _2D__3D_;#B color 13;#P newex 623 316 72 196617 pvar draw-2D;#P toggle 313 28 15 0;#P objectname draw-2D;#P user led 487 26 17 17 1 400;#P newex 725 409 27 196617 gate;#P toggle 623 343 15 0;#P comment 22 30 11 196617 i;#N vpatcher 30 70 1175 792;#N coll init-jToop;#T flags 1 0;#T 1 /interpolate 1;#T 2 /draw-2Dspace 1;#P newobj 259 112 72 196617 coll init-jToop;#P newex 152 46 45 196617 loadbang;#P message 161 77 53 196617 init-jToop;#P newex 162 108 62 196617 coll-dumper;#P outlet 140 204 15 0;#P connect 1 0 0 0;#P connect 3 0 2 0;#P connect 2 0 1 0;#P pop;#P newobj 808 116 31 196617 p init;#P newex 630 399 81 196617 pvar interpolate;#B color 14;#P toggle 393 28 15 0;#P objectname interpolate;#P button 19 28 15 2;#P objectname read-listlength;#P newex 1089 690 125 196617 s $0read-jToop_listlength;#P button 1252 130 15 0;#P user jit.fpsgui 1092 261 53 196617 3;#P user jit.fpsgui 1060 230 65 196617 3;#P user jit.fpsgui 1043 195 37 196617 3;#P toggle 1202 76 15 0;#P newex 1052 96 162 196617 print-everything to-space-matrix;#P newex 613 292 60 196617 prepend set;#P newex 596 268 27 196617 t l l;#N comlet to outside pict slider;#P hidden outlet 663 707 33 0;#P toggle 924 50 15 0;#P newex 854 89 84 196617 print-everything;#P newex 1120 287 27 196617 gate;#P newex 1220 299 21 196617 t 1;#P newex 1220 277 41 196617 route 0;#P hidden message 538 155 35 196617 /clear;#P message 1105 379 125 196617 /matrix/data dim \$1 128;#P newex 792 411 117 196617 s $0_to-myself;#P newex 1090 185 229 131465228 jit.matrix $0jit-mixer-points 9 float32 128;#B color 5;#P newex 1137 216 243 131465228 jit.matrix $0jit-mixer-data 1 float32 768 128;#B color 5;#P newex 1043 155 273 131465228 jit.matrix $0jit-mixer-space 1 float32 128 128 128;#B color 5;#N vpatcher 30 70 1175 792;#P message 208 135 171 196617 /add 0 128 0.5 3 30 30;#P message 325 94 113 196617 /add 0 128 1. 1. 20 20;#P message 326 57 195 196617 /draw/draw-matrix.voi/1/color 0.5 0.5 0.5;#P message 239 94 75 196617 /draw/recolor;#P message 173 95 65 196617 /draw/reset;#P outlet 140 204 15 0;#P connect 3 0 0 0;#P connect 4 0 0 0;#P connect 2 0 0 0;#P connect 5 0 0 0;#P connect 1 0 0 0;#P pop;#P newobj 768 116 34 196617 p test;#P newex 1043 127 153 196617 OSC-route /space /points /data;#P comment 446 635 49 472055818 weights;#P hidden outlet 629 707 33 0;#P user multiSlider 424 630 90 41 0. 1. 38 2681 15;#M frgb 138 182 0;#M brgb 206 255 157;#M rgb2 127 127 127;#P newex 363 767 84 196617 one-jToop 0 $0_;#P button 154 28 15 14;#P message 791 292 98 196617 /draw/n-jToops \$1;#P hidden newex 331 731 60 196617 prepend set;#P newex 791 264 72 196617 pvar n-jToops;#B color 14;#P comment 182 638 210 472055817 ____________________________read__;#B color 13;#P button 12 654 16 0;#P objectname write;#P user textedit 27 654 185 670 0 2006 9 cyc-dur.jToop;#P objectname filename;#P button 186 654 16 0;#P bpatcher 200 653 191 21 0 0 ali.favorite 0 favorite-jToops.coll;#P objectname favorites;#P comment 11 639 170 472055817 ___write____________________;#B color 13;#P hidden newex 80 693 68 196617 loadbanger 1.;#N vpatcher 60 120 889 615;#P outlet 687 369 15 0;#P inlet 632 41 15 0;#P message 675 245 41 196617 size \$1;#P newex 647 171 32 196617 zl len;#P newex 654 110 27 196617 t l l;#P newex 132 146 27 196617 + 1;#P newex 226 63 27 196617 - 1;#P newex 71 222 60 196617 prepend set;#P message 185 161 139 196617 jit_matrix $0jit-mixer-data;#P newex 196 195 62 196617 jit.a.getrow;#P newex 206 85 40 196617 t i b i;#P newex 216 272 27 196617 t l l;#P newex 211 317 41 196617 jit.spill;#P message 486 128 65 196617 listlength \$1;#P newex 493 102 75 196617 r $0-listlength;#P newex 392 319 41 196617 jit.spill;#P newex 389 123 27 196617 t l l;#P outlet 195 394 15 0;#P outlet 299 395 15 0;#P outlet 261 395 15 0;#P outlet 453 411 15 0;#P outlet 393 413 15 0;#P inlet 342 34 15 0;#P inlet 251 31 15 0;#P connect 18 0 16 0;#P connect 13 0 18 0;#P connect 13 1 15 0;#P connect 16 0 6 0;#P connect 15 0 14 0;#P connect 17 0 13 0;#P connect 10 0 11 0;#P connect 12 0 11 0;#P connect 14 0 12 0;#P connect 1 0 17 0;#P connect 13 2 14 1;#P connect 11 0 4 0;#P connect 12 1 5 0;#P connect 0 0 7 0;#P connect 10 0 8 0;#P connect 7 0 8 0;#P connect 8 0 2 0;#P connect 7 1 3 0;#P connect 9 0 10 0;#P connect 19 1 20 0;#P connect 22 0 19 0;#P connect 20 0 21 0;#P connect 21 0 23 0;#P fasten 19 0 23 0 570 240;#P pop;#P hidden newobj 427 678 79 196617 p draw;#P user jit.pwindow 126 576 148 33 0 1 0 0 1 0;#P button 127 608 17 0;#P user jit.fpsgui 231 609 42 196617 2;#P user jit.fpsgui 176 609 56 196617 3;#P newex 127 559 146 131465226 jit.matrix $0jit-mixer-data;#B color 5;#P comment 232 31 13 131399689 !;#P comment 407 584 21 196628 >;#P comment 394 580 28 133693460 __;#P number 124 28 33 12 0 0 64 2040 0 0 0 255 227 23 222 222 222 0 0 0;#P objectname n-jToops;#P comment 38 31 13 131399689 !;#P button 570 177 15 2;#P comment 109 29 13 133693450 x;#P button 107 28 15 11;#P comment 81 30 13 131399689 +;#P comment 94 28 13 131399692 -;#P comment 331 586 44 472055818 o n e;#P number 282 574 23 9 0 256 3 2006 0 0 0 255 138 215 222 222 222 0 0 0;#P user jit.pwindow 303 619 92 12 0 1 0 0 1 0;#P user multiSlider 304 574 90 46 0. 1. 128 2937 15;#M frgb 251 107 255;#M brgb 255 173 247;#M rgb2 127 127 127;#P comment 74 579 38 472055817 speed;#P comment 448 585 43 472055818 m i x;#P newex 1105 324 74 196617 pvar listlength;#B color 14;#P flonum 76 594 35 9 0.1 10. 3 3 0 0 0 221 221 221 222 222 222 0 0 0;#P objectname dur-mult;#P comment 29 613 29 472055817 play;#P comment 29 596 40 472055817 record;#P user radiogroup 14 578 18 50;#X size 3;#X offset 17;#X inactive 0;#X itemtype 0;#X flagmode 0;#X set 0;#X done;#P objectname record;#P comment 10 559 104 196617 _____record______;#B color 13;#P user jit.pwindow 423 619 92 12 0 1 0 0 1 0;#N vpatcher 412 291 1213 673;#P message 402 190 75 196617 /listlength 800;#P user jit.fpsgui 602 309 60 196617 3;#P message 394 140 75 196617 /listlength 500;#P message 28 132 71 196617 /listlength 10;#P outlet 122 360 15 0;#P number 501 138 35 9 0 0 0 3 0 0 0 221 221 221 222 222 222 0 0 0;#P newex 484 311 35 196617 zl join;#P newex 484 286 27 196617 int;#P newex 513 286 34 196617 zl reg;#P button 484 139 15 0;#P newex 484 340 75 196617 prepend /store;#P newex 537 249 165 196617 jit.matrix $0temp 1 float32 768 1;#P newex 537 216 127 196617 jit.fill $0temp;#P comment 575 10 100 196617 with jit;#P number 182 200 35 9 0 0 0 3 0 0 0 221 221 221 222 222 222 0 0 0;#P user multiSlider 537 138 167 57 0. 1. 768 2681 15;#M frgb 0 0 0;#M brgb 255 255 255;#M rgb2 127 127 127;#P message 156 40 72 196617 write :jenga.z;#P number 138 128 35 9 0 0 0 3 0 0 0 221 221 221 222 222 222 0 0 0;#N vpreset 6;#X append 1 1 1 128 174 multiSlider list 0.381818 0.527273 0.745455 0.818182 0.854545 0.690909 0.472727 0.290909 0.236364 0.181818 \; 8 128 138 number int 1 \;;#X append 2 1 1 128 174 multiSlider list 0.781818 0.6 0.490909 0.392727 0.294545 0.196364 0.098182 0. 0. 0. \; 8 128 138 number int 2 \;;#X append 3 1 1 128 174 multiSlider list 0.6 0.836364 0.709091 0.345455 0.327273 0.890909 0.181818 0.636364 0.545455 0.363636 \; 8 128 138 number int 3 \;;#X append 4 1 1 128 174 multiSlider list 0.345455 0.618182 0.8 0.836364 0.872727 0.854545 0.8 0.690909 0.418182 0. \; 8 128 138 number int 4 \;;#X append 5 1 1 128 174 multiSlider list 0.890909 0.808081 0.725253 0.642424 0.559596 0.476768 0.393939 0.311111 0.228283 0.109091 \; 8 128 138 number int 5 \;;#P preset 156 60 94 17;#P newex 121 237 35 196617 zl join;#P newex 121 212 27 196617 int;#P newex 150 212 34 196617 zl reg;#P newex 121 265 75 196617 prepend /store;#P button 121 129 15 0;#P user multiSlider 174 128 167 57 0. 1. 10 2681 15;#M frgb 0 0 0;#M brgb 255 255 255;#M rgb2 127 127 127;#P comment 155 11 100 196617 with lists;#P connect 2 0 5 0;#P connect 5 0 6 0;#P connect 6 0 3 0;#P connect 25 0 21 0;#P fasten 23 0 21 0 406 301;#P connect 22 0 21 0;#P connect 15 0 21 0;#P connect 3 0 21 0;#P connect 7 0 8 0;#P connect 8 0 5 1;#P connect 4 0 6 1;#P connect 2 0 4 0;#P connect 9 0 7 0;#P connect 7 0 1 0;#P connect 1 0 4 1;#P connect 16 0 18 0;#P connect 18 0 19 0;#P connect 19 0 15 0;#P connect 20 0 18 1;#P connect 17 0 19 1;#P connect 16 0 17 0;#P connect 10 0 13 0;#P connect 13 0 14 0;#P connect 14 0 17 1;#P connect 14 0 24 0;#P pop;#P newobj 700 115 63 196617 p make-data;#P user multiSlider 424 574 90 46 0. 1. 128 2937 15;#M frgb 25 255 71;#M brgb 152 255 141;#M rgb2 127 127 127;#N vpatcher 40 55 1240 716;#P message 392 577 111 196617 /number-of-jToops \$1;#P user textedit 851 545 951 595 0 3 9 4;#P button 706 219 15 0;#P user textedit 934 481 1034 531 0 3 9 4 3 2 1;#P newex 167 232 105 196617 t b b i i i i b i;#P outlet 11 491 15 0;#N comlet make this many;#P inlet 238 52 15 0;#P newex 346 159 40 196617 uzi;#P newex 346 127 27 196617 int;#N comlet resend IDs;#P inlet 380 54 15 0;#P newex 760 479 27 196617 t i i;#P newex 464 122 40 196617 uzi;#P newex 187 398 330 196617 sprintf script send %done-jToop script send OSC-route /id $0_;#N comlet make;#P inlet 109 53 15 0;#N comlet break;#P inlet 126 53 15 0;#N comlet n;#P inlet 69 53 15 0;#P newex 760 524 40 196617 change;#P newex 760 444 51 196617 maximum;#P newex 690 350 27 196617 b;#P newex 407 230 40 196617 t b i i;#P newex 760 413 65 196617 zl group 256;#P newex 726 285 45 196617 append 0;#P newex 678 285 45 196617 append 1;#P newex 760 354 27 196617 bag;#P newex 438 375 161 196617 sprintf script delete %done-jToop;#P outlet 588 611 15 0;#P newex 107 434 189 196617 sprintf script bringtofront %done-jToop;#P newex 268 346 388 196617 sprintf script new %done-jToop bpatcher 50 50 68 34 0 0 one-jToop 0 %d $0_;#P newex 146 129 27 196617 int;#P newex 118 129 27 196617 int;#P outlet 388 618 15 0;#P comment 491 81 100 196617 how many there are...;#P connect 27 1 26 0;#P connect 27 2 5 0;#P connect 18 0 2 0;#P connect 16 0 2 1;#P connect 17 0 3 0;#P connect 16 0 3 1;#P connect 2 0 27 0;#P connect 24 2 27 0;#P connect 27 3 19 0;#P fasten 20 2 19 0 286 278;#P connect 27 4 4 0;#P connect 25 0 23 0;#P connect 23 0 24 0;#P connect 16 0 23 1;#P connect 31 0 1 0;#P connect 15 0 31 0;#P connect 3 0 12 0;#P connect 12 2 7 0;#P connect 22 0 20 0;#P fasten 21 1 20 1 819 506 851 453 863 348 813 251 657 129 525 97;#P connect 7 0 6 0;#P connect 5 0 6 0;#P connect 4 0 6 0;#P connect 19 0 6 0;#P connect 27 5 4 1;#P connect 27 7 9 0;#P connect 12 0 13 0;#P connect 27 6 13 0;#P connect 29 0 13 0;#P connect 12 1 10 0;#P connect 9 0 8 0;#P connect 10 0 8 0;#P connect 13 1 8 0;#P connect 13 0 11 0;#P connect 8 0 11 0;#P connect 11 0 14 0;#P connect 14 0 21 0;#P connect 21 0 15 0;#P connect 14 0 30 0;#P connect 11 0 28 0;#P pop;#P hidden newobj 553 218 69 196617 p make-break;#N vpatcher 40 55 522 508;#P newex 330 137 60 196617 prepend set;#P newex 333 100 21 196617 t 1;#P inlet 299 54 15 0;#P outlet 299 310 15 0;#P newex 147 94 27 196617 t i i;#P message 256 265 14 196617 1;#P message 144 201 50 196617 1;#P newex 107 143 60 196617 prepend set;#P newex 91 199 45 196617 loadbanger;#P newex 256 244 30 196617 sel 0;#P inlet 154 52 15 0;#P connect 6 0 3 0;#P connect 10 0 4 0;#P connect 3 0 4 0;#P connect 2 0 4 0;#P connect 0 0 6 0;#P connect 6 1 1 0;#P connect 4 0 1 0;#P connect 1 0 5 0;#P connect 5 0 7 0;#P connect 1 1 7 0;#P connect 9 0 10 0;#P connect 8 0 9 0;#P pop;#P newobj 731 208 27 196617 p n;#P newex 1123 359 121 196617 s $0-listlength;#P comment 173 12 51 472055817 _listlen_;#B color 13;#P number 176 28 39 12 0 0 0 2040 0 0 0 221 221 221 222 222 222 0 0 0;#P objectname listlength;#P newex 1137 254 93 196617 loadbanger 768 $1;#P comment 12 12 156 472055817 ____jToops_______________;#B color 13;#P user IncDec 33 28 15 15 0 0;#P button 93 28 15 14;#P button 79 28 15 6;#P number 47 28 33 12 0 256 3 2040 0 0 0 221 221 221 222 222 222 0 0 0;#P button 230 28 15 2;#P hidden newex 565 62 75 196617 prepend /mode;#N vpatcher 20 85 420 385;#P outlet 92 229 15 0;#P outlet 159 229 15 0;#P inlet 102 45 15 0;#P newex 102 94 112 196617 route pictslider matrix;#P connect 0 0 3 0;#P connect 1 0 0 0;#P connect 0 1 2 0;#P pop;#P newobj 903 260 45 196617 p update;#N vpatcher 17 110 1073 670;#P newex 165 193 170 196617 r $0place-pointes-next-time;#P newex 23 240 48 196617 grab-one;#P newex 43 291 32 196617 defer;#P message 40 341 64 196617 /read points;#P newex 122 294 32 196617 defer;#P message 704 280 172 196617 script bringtofront lookup-pictslider;#P outlet 317 414 15 0;#P newex 57 193 40 196617 b 3;#P message 141 337 75 196617 /update matrix;#P newex 437 235 40 196617 b 3;#P message 419 279 89 196617 /update pictslider;#P newex 133 397 80 196617 s $0_to-myself;#P button 437 214 15 0;#P button 57 169 15 0;#P message 546 282 154 196617 script sendtoback lookup-matrix;#P message 223 282 165 196617 script sendtoback lookup-pictslider;#P inlet 106 59 15 0;#P newex 106 88 79 196617 route edit swim;#P connect 10 0 16 0;#P connect 15 0 14 0;#P connect 17 0 16 1;#P connect 16 1 15 0;#P connect 0 0 4 0;#P connect 4 0 10 0;#P connect 1 0 0 0;#P connect 10 1 13 0;#P connect 14 0 6 0;#P connect 9 0 6 0;#P connect 7 0 6 0;#P connect 13 0 9 0;#P connect 10 2 2 0;#P connect 12 0 11 0;#P connect 2 0 11 0;#P connect 3 0 11 0;#P connect 8 0 7 0;#P connect 0 1 5 0;#P connect 5 0 8 0;#P connect 8 1 3 0;#P connect 8 2 12 0;#P pop;#P newobj 1047 324 44 196617 p modes;#N thispatcher;#Q end;#P newobj 936 412 59 196617 thispatcher;#N vpatcher 15 68 1248 802;#P newex 75 219 185 196617 r $0read-jToop_listlength;#P message 213 318 32 196617 1000;#P message 123 300 32 196617 4500;#P newex 123 324 27 196617 del;#P newex 635 259 191 196617 s $0place-pointes-next-time;#P newex 186 377 27 196617 del;#P message 171 420 64 196617 /mode swim;#N comlet to outside pictslider;#P outlet 1006 676 15 0;#N comlet to file name text-edit;#P outlet 965 675 15 0;#P newex 651 36 45 196617 loadbang;#N vpatcher 28 106 1195 865;#P newex 839 599 189 196617 sprintf script bringtofront %done-jToop;#P message 374 385 20 196617 10;#P newex 374 405 27 196617 del;#P comment 419 293 245 196617 dim (def. 128) \, amp \, StdDev \, x0 \, y0 \, R \, G \, B;#P button 141 39 15 0;#P newex 720 533 27 196617 t b l;#P newex 826 628 314 196617 sprintf script send %done-jToop script send OSC-route /StdDev %f;#P newex 800 647 300 196617 sprintf script send %done-jToop script send OSC-route /amp %f;#P newex 731 570 27 196617 int;#P newex 903 561 62 196617 unpack 1. 1.;#P newex 864 537 49 196617 zl slice 3;#P comment 535 467 142 196617 R \, G \, B \, amp \, StdDev;#N comlet to thispatcher;#P outlet 831 716 15 0;#P newex 544 627 27 196617 + 0;#P newex 450 628 27 196617 + 0;#P newex 434 462 40 196617 t b b l;#P inlet 99 38 15 0;#P newex 457 501 55 196617 unpack 1 1;#P newex 544 530 91 196617 zmap 0 127 0 512;#P newex 450 531 91 196617 zmap 0 127 0 512;#P newex 560 574 55 196617 unpack 1 1;#P newex 560 554 98 196617 r $0_mouse-topleft;#P newex 720 510 34 196617 zl reg;#P newex 351 504 27 196617 + 1;#P newex 334 631 27 196617 int;#P newex 99 141 27 196617 t i i;#P newex 434 443 49 196617 zl slice 2;#P newex 434 422 45 196617 zl rot -2;#P comment 492 380 142 196617 amp \, StdDev \, x0 \, y0 \, R \, G \, B;#P newex 434 380 49 196617 zl slice 1;#P comment 368 245 245 196617 on/off dim (def. 128) \, amp \, StdDev \, x0 \, y0 \, R \, G \, B;#P comment 447 354 214 196617 dim (def. 128) \, amp \, StdDev \, x0 \, y0 \, R \, G \, B;#P newex 417 352 27 196617 t b l;#P newex 357 262 49 196617 zl slice 1;#P newex 417 326 34 196617 zl reg;#P newex 357 285 44 196617 route 1.;#P newex 318 223 49 196617 zl slice 3;#P message 99 169 53 196617 getcell \$1;#P newex 99 71 29 196617 t b 0;#N counter 0 128;#X flags 0 0;#P newobj 99 119 72 196617 counter 0 128;#P newex 99 193 229 131465228 jit.matrix $0jit-mixer-points 9 float32 128;#B color 5;#P newex 748 666 335 196617 sprintf script send %done-jToop script send OSC-route /color %f %f %f;#P newex 334 670 394 196617 sprintf script new %done-jToop bpatcher %d %d 68 34 0 0 one-jToop 0 %d $0_;#P message 380 141 199 196617 setcell \$1 val 1 \$2 \$3 \$4 \$5 \$6 \$7 \$8 \$9;#P comment 312 161 265 196617 val: on/off dim (def. 128) \, amp \, StdDev \, x0 \, y0 \, R \, G \, B;#P connect 40 0 6 0;#P connect 28 0 6 0;#P connect 6 0 5 0;#P fasten 42 0 5 0 176 488 36 276 61 145;#P connect 5 0 19 0;#P connect 19 0 7 0;#P connect 7 0 4 0;#P connect 6 1 5 2;#P connect 4 1 8 0;#P connect 29 1 20 0;#P connect 20 0 2 0;#P connect 19 1 21 0;#P connect 21 0 20 1;#P connect 8 1 11 0;#P connect 11 0 9 0;#P connect 12 0 43 0;#P connect 43 0 42 0;#P connect 9 0 10 0;#P connect 10 0 12 0;#P connect 12 1 15 0;#P connect 15 1 17 0;#P connect 17 0 18 0;#P connect 18 0 29 0;#P connect 11 1 10 1;#P connect 27 0 25 0;#P connect 25 0 30 0;#P connect 29 2 27 0;#P connect 30 0 2 1;#P connect 24 0 30 1;#P connect 27 1 26 0;#P connect 26 0 31 0;#P connect 23 0 24 0;#P connect 24 1 31 1;#P connect 31 0 2 2;#P connect 20 0 2 3;#P fasten 29 0 22 0 478 494;#P connect 22 0 39 0;#P connect 39 0 36 0;#P connect 18 1 22 1;#P fasten 21 0 36 1 387 631;#P connect 36 0 3 0;#P connect 36 0 37 0;#P connect 36 0 38 0;#P connect 38 0 32 0;#P connect 37 0 32 0;#P connect 3 0 32 0;#P connect 44 0 32 0;#P connect 2 0 32 0;#P connect 36 0 44 0;#P connect 34 0 3 1;#P connect 39 1 34 0;#P connect 34 1 35 0;#P connect 35 0 37 1;#P connect 35 1 38 1;#P pop;#P newobj 306 513 74 196617 p place-jToops;#N vpatcher 30 70 1224 811;#P origin -352 -250;#P button 365 233 15 0;#P button 233 290 15 0;#P newex 215 247 42 196617 del 500;#P newex 221 193 28 196617 t b s;#P newex 299 285 34 196617 zl reg;#P newex 354 272 34 196617 zl reg;#P newex 258 247 42 196617 del 250;#P newex 996 451 105 196617 prepend bkgndpicture;#N comlet to outside pictslider;#P outlet 1042 576 15 0;#N comlet bang to read image only;#P inlet 836 140 15 0;#P newex 815 248 105 196617 sprintf %s.space.jpeg;#P outlet 871 570 15 0;#P newex 864 521 60 196617 prepend set;#P message 624 498 172 196617 script bringtofront lookup-pictslider;#P message 584 478 154 196617 script sendtoback lookup-matrix;#P newex 647 351 40 196617 t b s s;#N comlet to place pointes;#P outlet 770 601 15 0;#P newex 165 313 27 196617 del;#P message 165 293 26 196617 300;#P newex 197 160 108 196617 t b s s s;#N comlet bang to read image only;#P inlet 616 135 15 0;#P outlet 685 601 15 0;#P newex 620 269 27 196617 del;#P newex 647 318 34 196617 zl reg;#P message 620 249 26 196617 300;#P newex 676 412 235 196617 prepend script send lookup-pictslider bkgndpicture;#P newex 698 250 105 196617 sprintf %s.space.jpeg;#P inlet 182 120 15 0;#P newex 369 309 103 196617 sprintf %s.points.jxf;#P outlet 327 609 15 0;#P newex 334 367 65 196617 prepend read;#P newex 499 309 95 196617 sprintf %s.data.jxf;#P newex 245 323 101 196617 sprintf %s.space.jxf;#P outlet 431 616 15 0;#P outlet 256 597 15 0;#P newex 428 367 65 196617 prepend read;#P newex 263 367 65 196617 prepend read;#P connect 18 0 19 0;#P connect 9 0 17 0;#P connect 33 0 34 0;#P connect 17 1 33 0;#P connect 32 0 4 0;#P connect 0 0 2 0;#P connect 33 0 30 0;#P connect 4 0 0 0;#P connect 34 0 32 0;#P connect 35 0 32 0;#P connect 33 1 32 1;#P connect 6 0 7 0;#P connect 8 0 6 0;#P connect 30 0 31 0;#P connect 36 0 31 0;#P connect 31 0 8 0;#P connect 33 1 31 1;#P connect 5 0 1 0;#P connect 1 0 3 0;#P fasten 33 1 5 0 528 250;#P connect 21 0 22 0;#P connect 16 0 12 0;#P connect 12 0 14 0;#P connect 21 0 23 0;#P connect 10 0 13 0;#P connect 14 0 13 0;#P connect 13 0 21 0;#P connect 26 0 13 1;#P connect 21 1 11 0;#P connect 22 0 15 0;#P connect 23 0 15 0;#P connect 11 0 15 0;#P connect 17 2 10 0;#P fasten 19 0 20 0 185 433;#P connect 27 0 26 0;#P fasten 17 3 24 0 1045 233;#P connect 24 0 25 0;#P fasten 21 2 29 0 1034 391;#P connect 29 0 28 0;#P pop;#P newobj 479 393 92 196617 p read;#N vpatcher 30 70 1032 560;#N comlet bang to write image only;#P inlet 83 49 15 0;#P newex 481 239 34 196617 zl reg;#P outlet 477 365 15 0;#P newex 693 100 105 196617 sprintf %s.space.jpeg;#P newex 204 285 71 196617 prepend write;#P newex 205 209 34 196617 zl reg;#P newex 408 109 103 196617 sprintf %s.points.jxf;#P newex 307 220 34 196617 zl reg;#P newex 293 286 71 196617 prepend write;#P newex 128 286 71 196617 prepend write;#P newex 564 101 95 196617 sprintf %s.data.jxf;#P newex 297 107 101 196617 sprintf %s.space.jxf;#P newex 132 209 34 196617 zl reg;#N comlet (s) base name;#P inlet 286 39 15 0;#N comlet bang to write;#P inlet 27 49 15 0;#P outlet 126 355 15 0;#P outlet 179 356 15 0;#P outlet 240 358 15 0;#P connect 8 0 2 0;#P connect 5 0 8 0;#P connect 3 0 5 0;#P connect 6 0 5 1;#P connect 13 0 1 0;#P connect 12 0 13 0;#P connect 3 0 12 0;#P connect 11 0 12 1;#P connect 9 0 0 0;#P connect 10 0 9 0;#P connect 4 0 6 0;#P connect 3 0 10 0;#P connect 7 0 10 1;#P connect 4 0 11 0;#P connect 16 0 15 0;#P connect 17 0 16 0;#P fasten 3 0 16 0 418 215;#P connect 14 0 16 1;#P connect 4 0 7 0;#P connect 4 0 14 0;#P pop;#P newobj 594 394 53 196617 p write;#P outlet 292 673 15 0;#P message 920 497 60 196617 /clear bang;#N vpatcher 391 143 963 634;#P message 60 178 177 196617 jit_matrix $0jit-mixer-points;#P outlet 178 429 15 0;#P inlet 169 33 15 0;#P message 80 321 111 196617 /number-of-jToops \$1;#P message 405 411 71 196617 /listlength \$1;#P newex 77 296 31 196617 Lsum;#P message 284 173 139 196617 jit_matrix $0jit-mixer-data;#P user multiSlider 60 235 125 38 0. 2. 128 2937 47;#M frgb 0 0 0;#M brgb 255 255 255;#M rgb2 127 127 127;#P newex 60 203 158 196617 jit.spill @plane 0 @listlength 128;#P newex 410 258 55 196617 unpack 1 1;#P newex 284 228 199 196617 route planecount type dim;#P newex 284 207 70 196617 jit.matrixinfo;#P newex 167 60 31 196617 t b b;#P connect 0 0 12 0;#P connect 12 0 4 0;#P connect 4 0 5 0;#P connect 5 0 7 0;#P connect 7 0 9 0;#P connect 10 0 0 0;#P connect 9 0 11 0;#P connect 8 0 11 0;#P connect 0 1 6 0;#P connect 6 0 1 0;#P connect 1 0 2 0;#P connect 3 0 8 0;#P connect 2 2 3 0;#P pop;#P newobj 53 418 104 196617 p n-jToops_listlength;#P newex 517 122 71 196617 route points 0;#P newex 515 512 115 196617 prepend /matrix/points;#P newex 395 190 40 196617 t b s s;#P newex 314 161 55 196617 route bang;#N comlet read;#P inlet 517 88 15 0;#N comlet to thispatcher;#P outlet 890 676 15 0;#P newex 433 160 27 196617 b;#N comlet write jpeg image;#P inlet 408 98 15 0;#P outlet 781 674 15 0;#P newex 639 512 108 196617 prepend /matrix/data;#P newex 395 512 114 196617 prepend /matrix/space;#N comlet write all;#P inlet 314 98 15 0;#P newex 548 172 66 196617 t b b s b b;#P message 651 79 86 196617 $1;#P connect 26 0 14 0;#P connect 29 0 14 0;#P connect 1 0 27 0;#P connect 27 0 26 0;#P connect 24 0 23 0;#P connect 28 0 24 0;#P connect 1 1 28 0;#P connect 23 0 16 0;#P connect 3 0 16 0;#P connect 12 0 16 0;#P connect 4 0 16 0;#P connect 14 0 16 0;#P connect 15 0 16 0;#P connect 13 0 19 0;#P connect 2 0 10 0;#P connect 10 1 11 0;#P connect 17 0 3 0;#P connect 18 0 3 0;#P connect 6 0 7 0;#P connect 1 2 18 0;#P connect 17 1 12 0;#P connect 18 1 12 0;#P connect 9 0 13 0;#P connect 0 0 13 0;#P connect 7 0 18 1;#P connect 13 2 1 0;#P fasten 11 2 18 2 523 271;#P connect 11 0 17 0;#P connect 10 0 17 0;#P connect 1 3 25 0;#P connect 1 2 17 2;#P connect 11 1 17 2;#P connect 17 2 4 0;#P connect 18 2 4 0;#P connect 20 0 0 0;#P connect 17 3 5 0;#P fasten 19 0 8 0 320 563;#P connect 18 3 8 0;#P connect 1 4 15 0;#P connect 18 5 21 0;#P connect 18 6 22 0;#P pop;#P newobj 920 324 105 196617 p read-write;#P hidden message 539 129 75 196617 /update matrix;#P message 270 28 30 472055817 swim;#P message 244 28 25 472055817 edit;#P toggle 795 51 15 0;#P newex 725 90 84 196617 print-everything;#N thispatcher;#Q end;#P hidden newobj 611 245 59 196617 thispatcher;#N vpatcher 707 208 1269 556;#P newex 183 78 27 196617 b;#P newex 60 77 27 196617 b;#N comlet resend;#P inlet 313 40 15 0;#P newex 221 211 34 196617 zl reg;#P newex 344 211 34 196617 zl reg;#P user textedit 393 151 495 173 0 3 9 532 603;#P user textedit 270 150 337 173 0 3 9 21 89;#P inlet 183 40 15 0;#P inlet 60 39 15 0;#P newex 344 236 143 196617 s $0_mouse-bottomright;#P newex 344 150 45 196617 pack 1 1;#P newex 330 119 66 196617 mousestate;#P newex 221 236 120 196617 s $0_mouse-topleft;#P newex 221 150 45 196617 pack 1 1;#P newex 207 120 66 196617 mousestate;#P connect 6 0 13 0;#P connect 7 0 14 0;#P connect 13 1 0 0;#P connect 0 1 1 0;#P connect 12 0 11 0;#P connect 1 0 11 0;#P fasten 14 0 11 0 188 161;#P connect 11 0 2 0;#P connect 0 2 1 1;#P connect 1 0 8 0;#P connect 14 1 3 0;#P connect 3 1 4 0;#P connect 4 0 10 0;#P fasten 13 0 10 0 65 173;#P connect 12 0 10 0;#P connect 10 0 5 0;#P connect 3 2 4 1;#P connect 4 0 9 0;#P pop;#P hidden newobj 717 723 61 196617 p send-coor;#P toggle 340 28 15 0;#P objectname draw-3D;#P hidden outlet 595 707 33 0;#N vpatcher 40 55 540 447;#P button 48 186 15 0;#P message 326 129 14 196617 a;#P newex 221 174 141 196617 sprintf exportimage :%s jpeg;#P inlet 295 51 15 0;#P user jit.pwindow 97 284 82 62 0 1 0 0 1 0;#P newex 90 173 51 196617 jit.concat;#P newex 90 232 188 196617 jit.matrix $0jit-mixer-2D-display;#P inlet 90 58 15 0;#P connect 0 0 2 0;#P connect 7 0 1 0;#P connect 5 0 1 0;#P connect 2 0 1 0;#P connect 1 0 3 0;#P connect 0 0 2 1;#P connect 6 0 5 0;#P connect 4 0 5 0;#P pop;#P newobj 725 563 59 196617 p save-pict;#P newex 679 62 101 196617 r $0_to-myself;#N vpatcher 157 82 1203 815;#P newex 549 133 55 196617 print store;#P outlet 568 683 15 0;#P newex 384 95 27 196617 t l l;#P user jit.fpsgui 875 198 60 196617 3;#P newex 709 454 45 196617 pack 1 0;#P newex 652 412 27 196617 - 1;#P number 804 450 35 9 0 0 0 3 0 0 0 221 221 221 222 222 222 0 0 0;#P newex 128 413 27 196617 - 1;#P newex 223 412 27 196617 int;#P newex 177 386 27 196617 t b f;#P newex 65 442 139 196617 sprintf setcell %d %d val %f;#P newex 177 358 73 196617 list-inumerate;#P newex 177 331 34 196617 zl reg;#P number 455 602 35 9 0 0 0 3 0 0 0 221 221 221 222 222 222 0 0 0;#P message 463 626 59 196617 offset \$1 0;#P message 401 626 59 196617 offset 0 \$1;#P number 375 602 35 9 0 0 0 3 0 0 0 221 221 221 222 222 222 0 0 0;#P user multiSlider 239 521 94 67 0. 1. 10 2681 47;#M frgb 0 0 0;#M brgb 255 255 255;#M rgb2 127 127 127;#P number 526 451 35 9 0 0 0 3 0 0 0 221 221 221 222 222 222 0 0 0;#P number 408 467 35 9 0 0 0 3 0 0 0 221 221 221 222 222 222 0 0 0;#P newex 502 581 30 196617 print;#P user multiSlider 339 521 94 67 0. 255. 10 2681 15;#M frgb 0 0 0;#M brgb 255 255 255;#M rgb2 127 127 127;#P user multiSlider 752 295 94 67 0. 255. 10 2681 15;#M frgb 0 0 0;#M brgb 255 255 255;#M rgb2 127 127 127;#P newex 622 323 94 196617 prepend jit_matrix;#P newex 598 407 34 196617 zl reg;#P newex 745 413 27 196617 - 1;#P message 652 524 83 196617 dstdimend \$2 \$1;#P message 742 524 91 196617 dstdimstart \$2 \$1;#P newex 745 388 75 196617 r $0-listlength;#P newex 652 453 45 196617 pack 1 1;#P newex 429 312 50 196617 t b i 1;#P newex 384 333 40 196617 t b i 0;#P newex 411 283 35 196617 gate 2;#P newex 561 199 27 196617 t 2 l;#P newex 485 211 27 196617 t 1 l;#P newex 492 505 149 196617 jit.fill $0jit-mixer-data;#P newex 536 321 75 196617 r $0-listlength;#P comment 917 395 115 1310730 Use destination dimensions;#P toggle 902 394 15 0;#P message 902 412 80 1441802 usedstdim \$1;#P newex 568 640 108 196617 prepend /matrix/data;#P message 466 451 59 196617 offset 0 \$1;#P newex 452 393 94 196617 expr ($i1-1) * $i2;#P newex 408 392 34 196617 zl reg;#P newex 440 148 83 196617 route jit_matrix;#P newex 401 123 49 196617 zl slice 1;#N vpatcher 30 70 968 675;#P number 395 40 35 9 0 0 0 3 0 0 0 221 221 221 222 222 222 0 0 0;#P message 403 73 79 196617 setlistlength \$1;#P number 200 218 35 9 0 0 0 3 0 0 0 221 221 221 222 222 222 0 0 0;#P user multiSlider 301 146 145 53 0. 255. 11 2665 47;#M frgb 0 0 0;#M brgb 255 255 255;#M rgb2 127 127 127;#P newex 301 205 114 196617 jit.fill ff @listlength 11;#P message 210 269 50 196617 offset \$1;#P message 328 260 89 196617 dstdimend 767 \$1;#P user jit.fpsgui 672 539 60 196617 3;#P user multiSlider 655 60 145 53 0. 255. 11 2665 47;#M frgb 0 0 0;#M brgb 255 255 255;#M rgb2 127 127 127;#P user jit.fpsgui 707 341 60 196617 3;#P user jit.fpsgui 685 174 60 196617 3;#P button 439 104 15 0;#P user jit.pwindow 553 359 130 146 0 1 0 0 1 0;#P newex 220 380 110 1441802 pak srcdimend 0 0;#P message 418 260 85 196617 dstdimstart 0 \$1;#P number 328 233 35 9 0 0 0 3 0 0 0 221 221 221 222 222 222 0 0 0;#P comment 568 213 115 1310730 Use destination dimensions;#P toggle 553 212 15 0;#P message 553 230 80 1441802 usedstdim \$1;#P newex 509 302 198 196617 jit.matrix ff 1 float32 11 3 @usedstdim 1;#P newex 493 145 135 196617 jit.matrix flu 1 float32 11 1;#P newex 493 120 50 196617 jit.fill flu;#P user multiSlider 533 596 145 53 -1. 1. 500 2681 15;#M frgb 0 0 0;#M brgb 255 255 255;#M rgb2 127 127 127;#P user multiSlider 493 59 145 53 0. 255. 768 2665 15;#M frgb 0 0 0;#M brgb 255 255 255;#M rgb2 127 127 127;#P newex 139 138 115 196617 jit.spill @listlength 768;#P connect 22 0 19 0;#P connect 19 0 20 0;#P connect 21 0 20 0;#P connect 9 0 18 0;#P connect 24 0 23 0;#P connect 9 0 10 0;#P connect 16 0 3 0;#P connect 1 0 3 0;#P fasten 23 0 4 0 416 121;#P connect 13 0 4 0;#P connect 3 0 4 0;#P connect 4 0 5 0;#P fasten 20 0 5 0 418 231 526 254;#P connect 18 0 5 0;#P connect 10 0 5 0;#P connect 6 0 5 0;#P connect 7 0 6 0;#P connect 5 0 12 0;#P connect 12 0 17 0;#P connect 4 0 14 0;#P connect 5 0 15 0;#P pop;#P newobj 730 206 39 196617 p teset;#N vpatcher 50 40 730 724;#P message 419 367 59 196617 offset 0 \$1;#P newex 262 168 27 196617 t 2 l;#P newex 335 167 27 196617 t 1 l;#P newex 335 227 35 196617 gate 2;#P newex 414 317 27 196617 - 1;#P newex 414 290 81 196617 var-init $2 768;#P newex 273 420 45 196617 pack 1 1;#P message 273 468 83 196617 dstdimend \$2 \$1;#P message 363 431 85 196617 dstdimstart 0 \$1;#P number 273 382 35 9 0 0 0 3 0 0 0 221 221 221 222 222 222 0 0 0;#N comlet number of points;#P inlet 299 68 15 0;#P newex 315 299 34 196617 zl reg;#P newex 262 143 83 196617 route jit_matrix;#P outlet 508 628 15 0;#P newex 220 381 27 196617 int;#P newex 174 355 27 196617 t b f;#P newex 196 165 40 196617 t b i i;#P newex 62 411 139 196617 sprintf setcell %d %d val %f;#P newex 174 327 73 196617 list-inumerate;#P newex 174 300 34 196617 zl reg;#P newex 196 98 49 196617 zl slice 1;#P inlet 127 66 15 0;#P connect 7 0 4 0;#P connect 5 1 4 1;#P connect 18 0 2 0;#P connect 2 0 3 0;#P connect 3 0 6 0;#P connect 6 1 4 2;#P connect 0 0 1 0;#P connect 1 0 5 0;#P connect 19 1 2 1;#P connect 6 0 7 0;#P connect 3 1 7 1;#P connect 1 1 9 0;#P connect 9 0 20 0;#P fasten 5 2 12 0 252 300 264 375;#P connect 12 0 15 0;#P connect 15 0 14 0;#P connect 17 0 15 1;#P connect 9 1 19 0;#P connect 20 0 18 0;#P connect 19 0 18 0;#P connect 20 1 10 1;#P connect 5 0 18 1;#P connect 12 0 13 0;#P connect 16 0 17 0;#P connect 13 0 8 0;#P connect 14 0 8 0;#P connect 4 0 8 0;#P pop;#P newobj 729 227 45 196617 p old-fill;#P inlet 384 53 15 0;#P user textedit 707 611 769 640 0 3 9 4 9;#P user textedit 796 611 858 640 0 3 9 4 0;#P connect 42 0 40 0;#P connect 19 1 43 0;#P connect 43 0 40 1;#P fasten 19 0 38 0 182 290;#P connect 38 0 39 0;#P connect 39 0 41 0;#P connect 41 1 40 2;#P connect 16 1 38 1;#P connect 41 0 42 0;#P connect 39 1 42 1;#P connect 7 0 29 0;#P connect 2 0 48 0;#P connect 18 0 19 0;#P connect 48 1 5 0;#P connect 34 0 35 0;#P connect 19 1 31 0;#P connect 17 0 18 0;#P connect 16 0 18 0;#P connect 18 1 20 0;#P connect 16 1 7 1;#P connect 5 0 18 1;#P connect 5 1 6 0;#P connect 19 1 8 0;#P connect 37 0 36 0;#P connect 8 0 9 0;#P connect 6 1 16 0;#P fasten 7 0 15 0 422 447;#P connect 36 0 15 0;#P connect 35 0 15 0;#P connect 33 0 15 0;#P connect 9 0 15 0;#P connect 15 0 30 0;#P connect 8 0 32 0;#P connect 14 0 8 1;#P connect 2 0 50 0;#P connect 6 0 17 0;#P connect 26 0 10 0;#P connect 15 0 10 0;#P connect 24 0 10 0;#P connect 23 0 10 0;#P connect 40 0 10 0;#P fasten 11 0 10 0 900 534;#P connect 10 0 49 0;#P fasten 20 0 26 0 474 380 548 388 584 402 597 388;#P connect 17 1 27 0;#P connect 27 0 26 1;#P fasten 20 1 45 0 505 375 570 383 613 374;#P connect 45 0 21 0;#P connect 21 0 24 0;#P connect 25 0 21 1;#P connect 21 0 1 0;#P connect 45 0 46 0;#P connect 46 0 23 0;#P connect 22 0 25 0;#P connect 16 1 28 0;#P connect 46 0 0 0;#P connect 25 0 44 0;#P connect 26 0 47 0;#P connect 19 2 12 0;#P connect 20 2 12 0;#P connect 12 0 11 0;#P pop;#P newobj 874 324 40 196617 p store;#N vpatcher 30 70 1250 526;#P newex 1023 297 161 196617 sprintf script delete %done-jToop;#P newex 1072 183 42 196617 uzi 128;#P newex 433 233 115 196617 prepend /matrix/points;#P newex 677 233 108 196617 prepend /matrix/data;#P newex 556 234 114 196617 prepend /matrix/space;#P message 189 200 105 196617 /number-of-jToops 1;#N comlet to thispatcher;#P outlet 894 361 15 0;#P message 766 184 301 196617 script send lookup-pictslider bkgndpicture blank.jToop.space.jpeg;#P outlet 81 337 15 0;#P message 665 183 65 196617 dim 768 128;#P message 491 184 45 196617 dim 128;#P message 577 183 85 196617 dim 128 128 128;#P newex 218 89 40 196617 b 3;#P message 112 200 75 196617 /listlength 768;#P inlet 140 31 15 0;#P message 349 184 31 196617 clear;#P connect 12 0 7 0;#P connect 11 0 7 0;#P connect 13 0 7 0;#P connect 10 0 7 0;#P connect 2 0 7 0;#P connect 3 0 2 0;#P connect 3 0 10 0;#P connect 1 0 3 0;#P connect 3 1 0 0;#P connect 0 0 13 0;#P connect 5 0 13 0;#P connect 3 1 5 0;#P connect 0 0 11 0;#P connect 4 0 11 0;#P connect 3 1 4 0;#P connect 3 1 6 0;#P connect 0 0 12 0;#P connect 6 0 12 0;#P fasten 3 1 8 0 596 157;#P connect 8 0 9 0;#P connect 15 0 9 0;#P connect 14 2 15 0;#P connect 3 2 14 0;#P pop;#P newobj 771 324 92 196617 p clear;#N vpatcher 9 45 1270 844;#P newex 363 562 114 196617 prepend /matrix/space;#P newex 307 535 115 196617 prepend /matrix/points;#P newex 593 277 49 196617 zl slice 2;#P newex 84 185 27 196617 + 1;#N comlet bang when done adding;#P outlet 352 754 15 0;#P newex 87 165 49 196617 zl slice 1;#P newex 86 219 235 196617 sprintf /draw/draw-matrix.voi/%d/recolor bang;#P newex 485 108 53 196617 t l l l l;#P message 188 293 199 196617 setcell \$1 val 1 \$2 \$3 \$4 \$5 \$6 \$7 \$8 \$9;#P comment 953 687 104 196617 to middle inlet;#P newex 445 324 27 196617 + 1;#P newex 445 294 49 196617 zl slice 1;#N comlet row added;#P outlet 670 747 15 0;#N comlet number of toops;#P inlet 1064 135 15 0;#N comlet bang when done adding;#P outlet 426 745 15 0;#P inlet 549 54 15 0;#P comment 991 346 104 196617 total number of toops;#P number 950 344 35 9 0 0 0 3 0 0 0 221 221 221 222 222 222 0 0 0;#P newex 773 639 93 196617 expr $f1/$f2*$f3;#P newex 812 593 48 196617 grab-one;#P newex 556 365 55 196617 unpack 1 1;#P newex 605 241 49 196617 zl ecils 5;#P newex 688 331 53 196617 t i b i i;#P newex 966 660 74 196617 pack dim 1 1 1;#P newex 773 571 27 196617 t f f;#P newex 622 180 92 196617 t b l b l l b l;#P newex 670 236 134 196617 unpack 1 1 1. 1. 1 1 1. 1. 1.;#P user fpic 885 571 276 49 gimg1083.gif 0 0 0 0. 0 0 0;#P flonum 783 343 35 9 0 0 0 3 0 0 0 221 221 221 222 222 222 0 0 0;#P number 860 343 35 9 0 0 0 3 0 0 0 221 221 221 222 222 222 0 0 0;#P number 824 343 35 9 0 0 0 3 0 0 0 221 221 221 222 222 222 0 0 0;#P number 688 310 35 9 0 0 0 3 0 0 0 221 221 221 222 222 222 0 0 0;#P newex 648 516 27 196617 t b i;#P newex 704 540 27 196617 - 1;#P newex 672 540 27 196617 - 1;#P newex 653 664 115 196617 pack setcell 0 0 1 val 1.;#P button 662 369 15 0;#P newex 757 525 235 196617 expr (1./2./3.1415/($f3*$f3))*exp(-1.*(($f1-$f4)*($f1-$f4)+($f2-$f5)*($f2-$f5))/2./($f3*$f3));#P newex 627 457 40 196617 uzi 64;#P newex 662 393 40 196617 uzi 64;#P comment 120 313 235 196617 val: dim (def. 128) \, amp \, StdDev \, x0 \, y0 \, R \, G \, B;#P connect 35 0 37 0;#P connect 37 0 34 0;#P connect 33 2 35 0;#P connect 33 3 32 0;#P connect 32 0 39 0;#P connect 39 0 36 0;#P connect 40 0 36 0;#P fasten 34 0 36 0 125 676;#P connect 5 0 40 0;#P fasten 15 0 26 0 442 229 419 335 442 454 502 586;#P connect 15 1 29 0;#P connect 29 0 30 0;#P connect 25 0 33 0;#P connect 38 0 20 0;#P connect 19 1 38 0;#P connect 15 3 19 0;#P connect 33 1 15 0;#P connect 1 0 2 0;#P fasten 2 2 8 0 662 495 653 495;#P connect 8 0 5 0;#P connect 18 0 2 1;#P fasten 15 2 4 0 537 268;#P connect 4 0 1 0;#P connect 15 4 14 0;#P fasten 30 0 28 0 583 686;#P connect 8 1 6 0;#P connect 6 0 5 1;#P connect 14 1 9 0;#P connect 9 0 18 0;#P connect 18 0 1 1;#P connect 7 0 5 2;#P connect 1 2 7 0;#P fasten 14 0 5 3 513 362;#P connect 2 2 3 0;#P connect 20 0 3 0;#P connect 22 0 5 5;#P connect 3 0 16 0;#P connect 16 0 22 0;#P connect 14 3 12 0;#P connect 16 1 21 0;#P connect 1 2 3 1;#P connect 20 1 3 1;#P connect 21 1 22 1;#P connect 14 4 10 0;#P connect 15 5 21 1;#P fasten 14 2 22 2 744 594;#P connect 14 5 11 0;#P connect 12 0 3 2;#P connect 10 0 3 3;#P connect 27 0 23 0;#P connect 18 1 17 0;#P connect 11 0 3 4;#P connect 18 2 17 1;#P connect 18 3 17 2;#P connect 23 0 17 3;#P pop;#P newobj 674 341 66 196617 p add;#N vpatcher 220 42 1229 823;#P toggle 103 374 15 0;#P newex 104 404 27 196617 t i i;#P newex 154 442 27 196617 gate;#P newex 117 442 27 196617 gate;#N comlet (int) number of toops;#P inlet 480 26 15 0;#P user textedit 298 81 404 129 0 3 9 41 102;#P outlet 644 730 15 0;#P newex 328 725 34 196617 zl reg;#P number 375 472 35 9 0 0 0 3 0 0 0 221 221 221 222 222 222 0 0 0;#P user multiSlider 557 340 109 53 0. 1. 38 2681 15;#M frgb 0 0 0;#M brgb 255 255 255;#M rgb2 127 127 127;#P newex 352 699 27 196617 t l l;#P newex 352 655 99 196617 jit.op @op + @val 0.;#P outlet 327 748 15 0;#P newex 259 493 27 196617 t b f;#P newex 352 618 63 196617 jit.op @op *;#P newex 259 463 73 196617 list-inumerate;#P message 281 548 163 196617 jit_matrix $0jit-mixer-data;#P newex 282 576 62 196617 jit.a.getrow;#P newex 259 411 45 196617 Lmult 1.;#P newex 265 324 70 196617 t b l l clear 0.;#P newex 293 383 29 196617 !/ 1.;#P newex 293 363 43 196617 Lsum 0.;#P message 123 179 65 196617 getcell 1 1 1;#P newex 32 224 250 196617 jit.matrix $0jit-mixer-space 1 float32 128 128 128;#P newex 261 288 44 196617 zl group;#P newex 132 135 27 196617 - 1;#P newex 55 103 55 196617 unpack 1 1;#P newex 58 63 27 196617 t b l;#P newex 29 178 88 196617 pack getcell 1 1 1;#P newex 209 259 49 196617 zl slice 5;#P newex 113 103 40 196617 uzi;#N comlet (int) number of toops;#P inlet 214 30 15 0;#N comlet (list) position;#P inlet 56 23 15 0;#P comment 385 346 100 196617 need to add up rows;#P connect 3 0 5 0;#P connect 5 0 10 0;#P connect 11 0 10 0;#P connect 6 1 7 0;#P connect 7 0 5 1;#P connect 1 0 6 0;#P connect 7 1 5 2;#P fasten 29 0 33 0 561 252 142 343;#P connect 33 0 32 0;#P connect 8 0 5 3;#P connect 6 0 3 0;#P connect 32 0 30 0;#P connect 3 2 8 0;#P connect 14 0 30 1;#P connect 2 0 3 1;#P connect 32 1 31 0;#P connect 15 0 31 1;#P connect 10 1 4 0;#P connect 14 1 15 0;#P connect 31 0 18 0;#P connect 25 0 20 0;#P connect 18 0 20 0;#P connect 4 1 9 0;#P connect 9 0 14 0;#P connect 20 0 17 0;#P connect 17 0 16 0;#P connect 14 2 12 0;#P connect 12 0 13 0;#P connect 13 0 15 1;#P connect 2 0 9 1;#P connect 1 0 28 0;#P connect 26 0 21 0;#P connect 30 0 26 0;#P connect 18 1 16 1;#P connect 25 0 16 1;#P connect 16 0 19 0;#P connect 19 0 22 0;#P fasten 14 3 23 0 538 479 462 606 481 655;#P connect 22 0 23 0;#P connect 23 0 26 1;#P connect 20 1 19 1;#P fasten 14 4 22 1 506 441 452 578 423 615;#P fasten 23 1 22 1 427 723 493 711 513 676 498 655 459 644;#P connect 15 0 24 0;#P fasten 15 0 27 0 580 465;#P pop;#P newobj 596 458 44 196617 p lookup;#P newex 652 152 342 196617 osc-route /lookup /add /clear /number-of-jToops /draw /store /write /update /mode /listlength /ali.mtr /read /matrix /interpolate /draw-2D;#P message 725 456 289 196617 /matrix jit_matrix $0jit-mixer-space;#N vpatcher -3 64 1272 864;#P message 1000 77 14 196617 0;#P user textedit 1102 49 1202 99 0 3 9 0. 0. 0.;#P newex 928 65 27 196617 - 1;#P newex 1136 178 49 196617 zl slice 9;#P newex 942 139 210 196617 jit.matrix $0jit-mixer-points 9 float32 128;#P message 942 117 53 196617 getcell \$1;#P number 543 98 35 9 0 0 0 3 0 0 0 221 221 221 222 222 222 0 0 0;#P user jit.pwindow 1084 504 82 62 0 1 0 0 1 0;#P user jit.pwindow 1101 577 82 62 0 1 0 0 1 0;#P user jit.pwindow 1118 656 82 62 0 1 0 0 1 0;#P user jit.pwindow 870 502 82 62 0 1 0 0 1 0;#P user jit.pwindow 817 579 82 62 0 1 0 0 1 0;#P user jit.pwindow 737 669 82 62 0 1 0 0 1 0;#P message 302 561 85 196617 /2/color 0.5 0.5 0.5;#P toggle 681 499 15 0;#P toggle 529 488 15 0;#P toggle 173 386 15 0;#P message 33 52 43 196617 /1 bang;#P newex 106 417 93 196617 print-everything 1;#P newex 483 530 93 196617 print-everything 2;#P newex 593 525 93 196617 print-everything 3;#P newex 535 332 79 196617 sprintf set /%d;#P newex 413 508 27 196617 t b l;#P newex 396 75 28 196617 t b b;#P newex 298 50 340 196617 osc-route /matrix /render /reset /recolor /draw-matrix.voi /n-jToops;#P newex 962 178 60 196617 prepend set;#P message 900 235 200 196617 setcell 0 0 val 255 0 0 0;#P newex 866 678 219 196617 jit.matrix $0temp3 4 float32 16 16 @interp 1;#P newex 866 706 111 196617 jit.op @op / @val 255.;#P outlet 865 760 15 0;#P newex 867 730 74 196617 jit.a.normalize;#P newex 298 84 34 196617 zl reg;#P newex 444 98 28 196617 t b b;#P newex 633 256 40 196617 t l l l;#P newex 864 394 53 196617 jit.pack 4;#P newex 1050 366 53 196617 zl group 3;#P newex 1050 346 27 196617 int;#P newex 1050 300 25 196617 iter;#P newex 1050 323 85 196617 zmap 0. 1. 0 255;#P newex 943 649 34 196617 zl reg;#P newex 965 602 27 196617 t l l;#P newex 965 576 62 196617 jit.op @op +;#P newex 965 518 63 196617 jit.op @op *;#P message 1046 394 139 196617 setcell 0 0 val 255 \$1 \$2 \$3;#P newex 1019 419 145 196617 jit.matrix $0temp1 4 char 1 1;#P newex 1019 465 205 196617 jit.matrix $0temp2 4 char 16 16 @interp 1;#P newex 538 585 82 196617 loadbanger clear;#P newex 390 351 27 196617 t b i;#P newex 390 330 40 196617 change;#P newex 465 585 70 196617 prepend store;#N coll $0-colors 1;#P newobj 465 614 82 196617 coll $0-colors 1;#P button 141 238 15 0;#P message 270 639 139 196617 drawto $0jit-mixer_window;#P message 179 50 115 196617 jit_matrix $0jit-mixer;#P message 344 415 83 196617 /*/recolor bang;#P comment 369 457 89 196617 a way of talking to;#P comment 674 220 211 196617 isolate one dimension of the n x n x m matrix;#P newex 564 484 52 196617 prepend ?;#P newex 457 454 70 196617 OSC-to-poly~;#P newex 133 477 70 196617 poly~-control;#P comment 733 458 164 196617 convert n x n x 1 to n x n;#P newex 488 376 52 196617 prepend ?;#P newex 573 364 115 196617 sprintf set /%d/matrix;#P newex 498 236 40 196617 t b i i;#P newex 407 376 75 196617 prepend voices;#N vpatcher 483 189 1205 617;#P inlet 650 130 15 0;#P message 543 290 14 196617 1;#P toggle 609 292 15 0;#P message 609 312 44 196617 axes \$1;#P toggle 520 293 15 0;#P message 520 313 85 196617 poly_mode \$1 \$1;#P user ubumenu 542 163 84 196617 0 1 1;#X add points;#X add lines;#X add line_strip;#X add line_loop;#X add triangles;#X add tri_strip;#X add tri_fan;#X add quads;#X add quad_strip;#X add polygon;#X add tri_grid;#X add quad_grid;#X prefix_set 0 0 <none>;#P comment 559 210 100 196617 other draw prims;#P message 478 294 20 196617 75;#P newex 688 211 50 196617 loadbanger;#P message 439 313 70 196617 lens_angle \$1;#P flonum 439 294 35 9 0 0 0 3 0 0 0 221 221 221 222 222 222 0 0 0;#P message 444 164 52 196617 quad_grid;#P message 191 280 249 196617 lookat 0 0 1 \, camera 0. 3 0 \, color 1. 1. 1. 0.5 \, erase_color 0. 0. 0. 1. \, depth_enable 1 \, usetexture 0;#P outlet 183 391 15 0;#P connect 11 0 0 0;#P connect 9 0 0 0;#P fasten 8 1 0 0 584 253 188 253;#P fasten 2 0 0 0 449 251 188 251;#P fasten 4 0 0 0 444 355 188 355;#P fasten 1 0 0 0 196 284 188 284;#P connect 5 0 1 0;#P connect 6 0 3 0;#P connect 3 0 4 0;#P connect 5 0 2 0;#P connect 5 0 6 0;#P connect 13 0 10 0;#P connect 10 0 9 0;#P connect 5 0 13 0;#P connect 13 0 12 0;#P connect 12 0 11 0;#P pop;#P newobj 141 262 44 196617 p init-gl;#P newex 204 418 70 196617 OSC-to-poly~;#P newex 204 477 263 196617 poly~ jToop.draw-matrix.voi 1 args $0jit-mixer-points;#P newex 602 455 128 196617 jit.matrix 1 float32 16 16;#P newex 518 294 79 196617 t b b i i b i;#P newex 693 94 27 196617 - 1;#P message 693 142 65 196617 splitpoint \$1;#P newex 617 231 42 196617 jit.split;#P newex 298 129 66 196617 t b b 0 l l;#P newex 532 183 34 196617 zl reg;#P newex 398 239 45 196617 pack 1 1;#P newex 609 100 74 196617 loadbanger 2 3;#P number 741 80 35 9 0 0 0 3 0 0 0 221 221 221 222 222 222 0 0 0;#P message 741 117 65 196617 splitpoint \$1;#P message 609 127 59 196617 splitdim \$1;#P newex 644 199 42 196617 jit.split;#P newex 479 268 40 196617 uzi;#P newex 442 212 65 196617 unpack 1 1 1;#P inlet 298 28 15 0;#P newex 398 265 62 196617 prepend dim;#P newex 316 191 199 196617 route planecount type dim;#P newex 316 170 70 196617 jit.matrixinfo;#P comment 100 297 97 196617 erase \, then bang to send the geometry \, then bang to swap display buffer.;#P message 23 570 32 196617 reset;#P comment 34 600 154 196617 the window is made in here. drag in window to rotate the rendered geometry. hit 'esc' to toggle fullscreen mode.;#N vpatcher 510 255 1116 609;#P inlet 103 37 15 0;#P newex 104 69 27 196617 gate;#P inlet 8 72 15 0;#P newex 13 183 37 196617 == 0;#P toggle 353 251 15 0;#P message 353 270 75 196617 auto_rotate \$1;#P newex 104 138 27 196617 t i i;#P flonum 262 250 35 9 0 0 0 3 0 0 0 221 221 221 222 222 222 0 0 0;#P message 262 270 51 196617 radius \$1;#P flonum 195 250 35 9 0 0 0 3 0 0 0 221 221 221 222 222 222 0 0 0;#P message 195 270 60 196617 tracking \$1;#P newex 11 291 490 196617 jit.gl.handle $0jit-mixer_window @inherit_transform 1 @depth_enable 1 @tracking 1 @radius 1.414;#P message 13 204 93 196617 \; jit menubar \$1;#P outlet 11 321 15 0;#P newex 104 95 50 196617 select 27;#P newex 150 30 40 196617 key;#P newex 121 183 91 196617 prepend fullscreen;#P newex 121 204 329 196617 jit.window $0jit-mixer_window @rect 10 50 200 200 @depthbuffer 1;#P comment 11 255 178 196617 inherit_transform is important here \, since we are controlling jit.gl.render;#P toggle 104 118 15 0;#P connect 17 0 8 0;#P fasten 14 0 8 0 358 288 16 288;#P fasten 11 0 8 0 267 288 16 288;#P fasten 9 0 8 0 200 285 16 285;#P connect 8 0 6 0;#P fasten 13 0 16 0 109 169 18 169;#P connect 16 0 7 0;#P connect 19 0 18 0;#P connect 18 0 5 0;#P connect 5 0 0 0;#P connect 0 0 13 0;#P connect 4 0 18 1;#P connect 13 1 3 0;#P connect 3 0 2 0;#P connect 10 0 9 0;#P connect 12 0 11 0;#P connect 15 0 14 0;#P pop;#P newobj 24 654 115 196617 p window-mouse-rotate;#P toggle 34 204 15 0;#P newex 34 229 55 196617 metro 50;#P newex 34 261 103 196617 jit.qball;#P newex 34 297 55 196617 t b b erase;#P message 204 287 159 196617 plane 0 \, 0 0 1 1 \, plane 1 \, 0 1 0 1;#P newex 204 331 183 196617 jit.matrix $0small 2 float32 2 2;#P newex 204 310 103 196617 jit.fill $0small;#P newex 204 691 252 196617 jit.gl.render $0jit-mixer_window;#P comment 203 225 97 196617 order of planes for geometry matrix: x \, y \, z \, s \, t \, nx \, ny \, nz \, a \, r \, g \, b \, edges;#P comment 443 422 89 196617 default draw prim;#P newex 204 373 59 196617 prepend /*;#P fasten 78 0 13 0 120 216;#P connect 13 0 11 0;#P fasten 77 1 10 0 352 108 39 176;#P connect 10 0 9 0;#P fasten 9 0 8 0 39 256 39 256;#P connect 8 0 7 0;#P connect 0 0 83 0;#P fasten 10 0 11 1 21 231 21 499;#P connect 78 1 50 0;#P connect 50 0 36 0;#P connect 85 0 83 1;#P connect 28 0 6 0;#P connect 6 0 4 0;#P connect 4 0 5 0;#P connect 17 0 0 0;#P connect 5 0 0 0;#P connect 7 1 0 0;#P connect 40 0 35 0;#P connect 84 0 35 0;#P connect 0 0 35 0;#P connect 35 0 34 0;#P connect 42 0 34 0;#P connect 37 0 34 0;#P connect 34 0 3 0;#P connect 49 0 3 0;#P connect 36 0 3 0;#P connect 7 2 3 0;#P connect 7 0 3 0;#P fasten 11 0 3 0 29 683 209 683;#P connect 18 0 77 0;#P connect 77 0 70 0;#P connect 69 0 70 0;#P connect 70 0 28 0;#P connect 48 0 28 0;#P connect 28 3 15 0;#P connect 15 0 16 0;#P connect 69 1 47 0;#P connect 54 0 47 0;#P connect 38 1 53 0;#P connect 53 0 54 0;#P connect 77 2 78 0;#P connect 19 0 26 0;#P connect 26 0 17 0;#P connect 54 1 37 0;#P connect 34 2 79 0;#P connect 19 1 26 1;#P connect 16 2 19 0;#P connect 77 3 69 0;#P connect 44 0 43 0;#P fasten 77 4 43 0 588 97 770 75 866 140 900 197 798 356 675 411 545 453 410 432;#P connect 88 0 43 0;#P connect 43 0 34 1;#P connect 79 1 52 0;#P connect 55 0 51 0;#P connect 52 0 51 0;#P fasten 28 1 20 0 303 214 378 259 484 259;#P connect 40 0 82 0;#P connect 80 0 40 0;#P connect 32 0 40 0;#P fasten 77 5 38 0 578 209;#P connect 38 2 20 1;#P connect 20 2 32 0;#P connect 32 1 27 0;#P connect 32 3 80 0;#P connect 77 5 95 0;#P connect 28 4 27 1;#P connect 33 0 44 0;#P connect 39 0 44 0;#P connect 86 0 82 1;#P connect 32 3 39 0;#P connect 44 0 81 0;#P connect 17 0 33 0;#P connect 68 0 33 0;#P connect 25 0 22 0;#P connect 22 0 29 0;#P fasten 30 0 29 0 698 165 622 165;#P connect 21 0 29 0;#P connect 29 1 68 0;#P fasten 22 0 21 0 614 165 649 165;#P fasten 23 0 21 0 746 165 649 165;#P connect 27 0 21 0;#P connect 87 0 81 1;#P connect 24 0 31 0;#P connect 31 0 30 0;#P connect 71 0 89 0;#P connect 25 1 24 0;#P connect 32 2 24 0;#P connect 24 0 23 0;#P connect 74 0 90 0;#P connect 68 1 67 0;#P connect 71 0 72 0;#P connect 17 0 74 0;#P connect 62 0 74 0;#P connect 74 0 73 0;#P connect 73 0 71 0;#P connect 60 0 91 0;#P connect 68 1 67 1;#P connect 68 1 67 2;#P connect 76 0 75 0;#P connect 68 1 67 3;#P connect 32 5 99 0;#P connect 101 0 96 0;#P connect 99 0 96 0;#P connect 96 0 97 0;#P fasten 20 1 62 0 555 393;#P connect 58 0 76 0;#P connect 67 0 59 0;#P connect 59 0 60 0;#P connect 60 0 61 0;#P connect 61 0 62 1;#P fasten 28 2 60 1 887 306 954 547;#P fasten 61 1 60 1 1073 642 1090 580 1028 564;#P connect 56 0 59 1;#P fasten 32 4 57 0 974 346;#P connect 58 0 57 0;#P connect 57 0 56 0;#P connect 17 0 56 0;#P connect 66 0 58 0;#P connect 98 1 64 0;#P connect 64 0 63 0;#P connect 63 0 65 0;#P connect 65 0 66 0;#P connect 57 0 94 0;#P connect 98 1 100 0;#P connect 56 0 93 0;#P connect 59 0 92 0;#P connect 97 1 98 0;#P pop;#P newobj 725 481 69 196617 p draw-space;#P comment 1293 114 212 196617 /number-of-toops: int \, total number of toops;#P comment 1293 80 115 196617 /lookup: list of int: x \, y;#P inlet 653 46 15 0;#P comment 1293 96 195 196617 /add: list: toop # \, dim \, amp \, std \, x0 \, y0;#P comment 225 12 76 472055817 ___mode____;#B color 13;#P comment 29 578 30 472055817 stop;#P user panel 10 640 384 37;#X brgb 255 241 43;#X frgb 0 0 0;#X border 0;#X rounded 0;#X shadow 0;#X done;#P user panel 10 558 114 82;#X brgb 255 187 43;#X frgb 0 0 0;#X border 0;#X rounded 0;#X shadow 0;#X done;#P user panel 277 558 245 119;#X brgb 255 197 75;#X frgb 0 0 0;#X border 0;#X rounded 0;#X shadow 0;#X done;#P user panel 124 557 153 85;#X brgb 255 224 141;#X frgb 0 0 0;#X border 0;#X rounded 0;#X shadow 0;#X done;#P user panel 12 8 510 37;#X brgb 255 201 59;#X frgb 0 0 0;#X border 0;#X rounded 0;#X shadow 0;#X done;#P user jit.pwindow 9 44 514 515 0 1 0 0 1 0;#P objectname lookup-matrix;#P user pictslider 10 45 512 512 4 4 4 4 SliderDefaultKnob.pct 1 blank.jToop.space.jpeg 1 2163 0 0 8323199 1. 1.;#P objectname lookup-pictslider;#P hidden connect 109 0 0 0;#P hidden connect 84 0 83 0;#P hidden connect 87 0 83 0;#P hidden connect 37 0 40 0;#P hidden connect 40 0 37 0;#P hidden connect 79 0 55 0;#P hidden connect 76 0 73 0;#P hidden connect 73 0 77 0;#P hidden connect 73 0 74 0;#P hidden connect 82 0 81 0;#P hidden connect 73 0 75 0;#P hidden connect 78 0 61 0;#P hidden connect 78 1 59 0;#P hidden connect 78 2 60 0;#P hidden connect 81 1 87 0;#P hidden connect 78 3 48 0;#P hidden connect 78 4 50 0;#P hidden connect 78 5 91 0;#P hidden connect 16 0 78 0;#P hidden connect 61 0 78 1;#P hidden connect 17 2 78 1;#P hidden connect 17 1 124 0;#P hidden connect 16 1 78 2;#P hidden connect 89 0 101 0;#P hidden connect 36 0 30 0;#P hidden connect 37 0 47 0;#P hidden fasten 29 0 35 0 275 53 570 53;#P hidden fasten 28 0 35 0 249 56 570 56;#P hidden connect 38 0 47 1;#P hidden connect 39 0 47 2;#P hidden connect 65 0 47 3;#P hidden connect 16 0 22 0;#P connect 15 0 108 0;#P connect 108 0 16 0;#P hidden connect 67 0 47 4;#P hidden connect 47 2 25 0;#P connect 108 1 109 0;#P hidden connect 86 0 16 1;#P fasten 15 14 126 0 703 293;#P connect 126 0 122 0;#P hidden connect 16 1 92 0;#P fasten 15 13 119 0 666 341 635 378;#P connect 119 0 16 2;#P connect 20 0 15 0;#P hidden connect 101 0 15 0;#P connect 49 0 15 0;#P hidden connect 47 1 15 0;#P hidden connect 35 0 15 0;#P hidden connect 30 0 15 0;#P connect 10 0 15 0;#P connect 95 0 15 0;#P connect 120 0 15 0;#P fasten 31 4 107 0 1075 421 999 507 812 573;#P hidden connect 15 1 17 0;#P connect 13 0 151 0;#P connect 132 0 24 0;#P connect 20 0 26 0;#P connect 122 0 123 0;#P connect 123 0 14 0;#P fasten 34 1 14 0 1043 388 1023 441 968 450 873 436 781 448 743 440;#P fasten 15 4 13 0 779 432;#P connect 14 0 13 0;#P connect 13 0 21 0;#P connect 86 0 17 1;#P connect 15 3 46 0;#P connect 17 1 123 1;#P connect 133 0 24 1;#P hidden fasten 47 0 24 2 558 680 772 680;#P hidden connect 15 2 18 0;#P fasten 31 1 21 1 887 512;#P connect 46 0 86 0;#P connect 86 0 88 0;#P connect 88 0 99 0;#P connect 19 0 99 0;#P connect 31 0 99 0;#P connect 18 0 99 0;#P connect 17 0 99 0;#P connect 27 0 26 1;#P connect 15 11 105 0;#P connect 134 0 137 0;#P connect 15 5 19 0;#P fasten 31 3 135 0 994 488;#P connect 135 0 137 1;#P connect 144 0 138 0;#P connect 139 0 138 0;#P connect 137 0 138 0;#P connect 15 7 34 0;#P connect 136 1 137 2;#P connect 15 6 31 0;#P connect 106 0 105 1;#P connect 18 1 32 0;#P connect 33 0 32 0;#P connect 31 2 32 0;#P connect 136 1 149 0;#P connect 34 0 31 1;#P connect 140 0 139 0;#P fasten 144 1 143 0 1168 643 1230 643 1230 503 1008 503;#P connect 143 0 144 0;#P fasten 15 11 31 2 987 260;#P connect 15 12 94 0;#P connect 115 0 96 0;#P connect 94 0 96 0;#P connect 96 0 112 0;#P connect 143 1 144 1;#P connect 15 8 33 0;#P connect 94 0 110 0;#P connect 98 0 113 0;#P connect 141 0 144 2;#P connect 150 0 146 0;#P connect 146 0 116 0;#P connect 115 0 98 0;#P connect 94 1 98 0;#P connect 97 0 114 0;#P connect 15 9 56 0;#P connect 104 0 56 0;#P connect 56 0 100 0;#P connect 100 0 145 0;#P connect 103 0 104 0;#P connect 56 0 45 0;#P connect 142 0 144 3;#P connect 115 0 97 0;#P connect 94 2 97 0;#P connect 42 0 104 1;#P fasten 15 10 144 4 1204 337 1204 575;#P connect 111 0 110 1;#P connect 42 1 102 0;#P connect 102 0 103 0;#P pop;