max v2;#N vpatcher 3 47 538 743;#P origin 262 168;#P button 831 590 15 0;#P button 833 611 15 0;#P newex 852 526 21 196617 t 0;#P newex 852 503 45 196617 loadbang;#P newex 988 681 30 196617 gate;#P newex 780 495 27 196617 t i i;#P newex 780 476 125 196617 pvar draw-3D-destination;#B color 14;#P user ubumenu 342 26 51 131465225 0 1 1 0;#X add window;#X add matrix;#X prefix_set 0 0 <none> 0;#P objectname draw-3D-destination;#P newex 1001 756 45 196617 pcontrol;#P newex 1037 733 39 196617 t close;#P newex 1001 733 35 196617 t open;#P newex 1001 708 40 196617 sel 1 0;#P newex 991 625 27 196617 t i i;#N vpatcher 9 113 539 643;#P hidden inlet 4 -21 15 0;#P user jit.pwindow 0 0 514 514 0 1 0 0 1 0;#P hidden connect 1 0 0 0;#P pop;#P newobj 967 756 27 196617 p 3d;#P newex 648 199 32 196617 defer;#P newex 849 384 40 196617 posit;#B color 6;#P hidden newex 72 711 45 196617 loadbang;#P newex 1176 231 45 196617 loadbang;#P newex 578 369 42 196617 t i i;#P newex 650 584 95 196617 pvar lookup-matrix;#B color 14;#P newex 1085 640 75 196617 r init-ali.jToop;#P button 1 38 13 14;#P objectname top-left;#P button 512 549 13 14;#P objectname bottom-right;#P newex 1085 664 99 196617 pvar read-listlength;#B color 14;#P newex 1101 399 117 196617 s $0_to-myself;#N vpatcher 10 100 1024 764;#P origin 0 71;#N comlet ali.mtr dur-mult;#P inlet 225 92 15 0;#N comlet ali.mtr state;#P inlet 172 92 15 0;#P message 218 219 69 196617 /dur-mult \$1;#P message 159 219 52 196617 /state \$1;#N comlet to pictslider;#P outlet 162 429 15 0;#N comlet to top;#P outlet 101 425 15 0;#N comlet to ali.mtr;#P inlet 388 95 15 0;#N comlet y pos;#P inlet 84 93 15 0;#N comlet x pos;#P inlet 58 93 15 0;#P newex 140 345 92 196617 OSC-route /lookup;#P newex 140 309 53 196617 ali.mtr;#P newex 58 251 80 196617 prepend /lookup;#P newex 58 225 45 196617 pack 1 1;#P connect 4 0 0 0;#P connect 0 0 1 0;#P connect 5 0 0 1;#P fasten 1 0 7 0 109 396;#P connect 1 0 2 0;#P connect 2 0 3 0;#P connect 11 0 9 0;#P connect 10 0 2 1;#P connect 9 0 2 1;#P connect 6 0 2 1;#P connect 3 0 8 0;#P connect 12 0 10 0;#P pop;#P newobj 999 572 170 196617 p loopkup-mtr;#P newex 999 513 115 196617 pvar lookup-pictslider 2;#B color 14;#P newex 1119 550 72 196617 pvar dur-mult;#B color 14;#P newex 1079 532 62 196617 pvar record;#B color 14;#P newex 991 602 72 196617 pvar draw-3D;#B color 14;#P message 991 649 88 196617 /draw/render \$1;#P newex 858 758 80 196617 s $0_to-myself;#N vpatcher 50 40 450 340;#P button 26 83 15 0;#P button 32 178 15 0;#P button 134 167 15 0;#P newex 164 103 72 196617 prepend /read;#P inlet 200 42 15 0;#P outlet 71 141 15 0;#P inlet 86 36 15 0;#P inlet 60 34 15 0;#P newex 62 106 75 196617 prepend /write;#P newex 62 85 34 196617 zl reg;#P newex 84 61 54 196617 route text;#P connect 3 0 10 0;#P connect 2 0 9 0;#P connect 3 0 1 0;#P connect 1 0 2 0;#P connect 2 0 5 0;#P connect 7 0 5 0;#P connect 4 0 0 0;#P connect 0 0 1 1;#P connect 0 0 8 0;#P connect 6 0 7 0;#P pop;#P newobj 858 645 54 196617 p filename;#P newex 904 597 83 196617 pvar favorites 2;#B color 14;#P newex 882 579 70 196617 pvar filename;#B color 14;#P newex 858 557 58 196617 pvar write;#B color 14;#P newex 738 670 90 196617 pvar bottom-right;#B color 14;#P newex 713 649 65 196617 pvar top-left;#B color 14;#P comment 405 558 115 196617 ____interpolation____;#B color 13;#P comment 277 558 115 196617 _____one jToop______;#B color 13;#P comment 467 11 53 472055817 _boom__;#B color 13;#P comment 391 11 80 472055817 _interpolate__;#B color 13;#P comment 300 11 99 472055817 _2D__3D______;#B color 13;#P newex 619 315 72 196617 pvar draw-2D;#B color 14;#P toggle 309 27 15 0;#P objectname draw-2D;#P user led 483 25 17 17 1 400;#P newex 721 408 27 196617 gate;#P toggle 619 342 15 0;#P comment 18 29 11 196617 i;#N vpatcher 30 70 505 375;#N coll init-jToop 1;#T flags 1 0;#T 1 /interpolate 1;#T 2 /draw-2Dspace 1;#P newobj 259 112 82 196617 coll init-jToop 1;#P newex 152 46 45 196617 loadbang;#P message 161 77 53 196617 init-jToop;#P newex 162 108 62 196617 coll-dumper;#P outlet 140 204 15 0;#P connect 1 0 0 0;#P connect 3 0 2 0;#P connect 2 0 1 0;#P pop;#P newobj 804 115 31 196617 p init;#P newex 626 398 81 196617 pvar interpolate;#B color 14;#P toggle 414 27 15 0;#P objectname interpolate;#P button 15 27 15 2;#P objectname read-listlength;#P newex 1085 689 125 196617 s $0read-jToop_listlength;#P button 1248 97 15 0;#P user jit.fpsgui 1088 260 53 196617 3;#P user jit.fpsgui 1056 229 65 196617 3;#P user jit.fpsgui 1039 194 37 196617 3;#P newex 609 291 60 196617 prepend set;#P newex 592 267 27 196617 t l l;#N comlet connect to pict slider;#P hidden outlet 659 706 33 0;#P newex 1116 286 27 196617 gate;#P newex 1330 304 21 196617 t 1;#P newex 1330 282 41 196617 route 0;#P hidden message 534 154 35 196617 /clear;#P message 1101 378 125 196617 /matrix/data dim \$1 128;#P newex 788 410 117 196617 s $0_to-myself;#P newex 1086 171 220 131465228 jit.matrix $0jit-mixer-points 9 float32 128;#B color 5;#P newex 1133 202 243 131465228 jit.matrix $0jit-mixer-data 1 float32 768 128;#B color 5;#P newex 1039 141 273 131465228 jit.matrix $0jit-mixer-space 1 float32 128 128 128;#B color 5;#N vpatcher 30 70 1044 792;#P message 208 135 171 196617 /add 0 128 0.5 3 30 30;#P message 325 94 113 196617 /add 0 128 1. 1. 20 20;#P message 326 57 195 196617 /draw/draw-matrix.voi/1/color 0.5 0.5 0.5;#P message 239 94 75 196617 /draw/recolor;#P message 173 95 65 196617 /draw/reset;#P outlet 140 204 15 0;#P connect 1 0 0 0;#P connect 5 0 0 0;#P connect 2 0 0 0;#P connect 4 0 0 0;#P connect 3 0 0 0;#P pop;#P newobj 764 115 34 196617 p test;#P newex 1039 113 153 196617 OSC-route /space /points /data;#P comment 442 634 49 472055818 weights;#N comlet (list of floats) weights;#P hidden outlet 625 706 33 0;#P user multiSlider 420 629 90 41 0. 1. 38 2681 15;#M frgb 138 182 0;#M brgb 206 255 157;#M rgb2 127 127 127;#P newex 359 766 84 196617 one-jToop 0 $0_;#P button 150 27 15 14;#P message 787 291 98 196617 /draw/n-jToops \$1;#P hidden newex 286 679 60 196617 prepend set;#P newex 787 263 72 196617 pvar n-jToops;#B color 14;#P comment 178 637 210 472055817 ____________________________read__;#B color 13;#P button 8 653 16 0;#P objectname write;#P user textedit 25 653 183 669 0 2006 9;#P objectname filename;#P button 182 653 16 0;#P bpatcher 196 652 191 21 0 0 ali.favorite 0 favorite-jToops.coll;#P objectname favorites;#P comment 7 638 170 472055817 ___write____________________;#B color 13;#P hidden newex 72 732 24 196617 t 1.;#N vpatcher 60 120 889 615;#P outlet 687 369 15 0;#P inlet 632 41 15 0;#P message 675 245 41 196617 size \$1;#P newex 647 171 32 196617 zl len;#P newex 654 110 27 196617 t l l;#P newex 132 146 27 196617 + 1;#P newex 226 63 27 196617 - 1;#P newex 71 222 60 196617 prepend set;#P message 185 161 139 196617 jit_matrix $0jit-mixer-data;#P newex 196 195 62 196617 jit.a.getrow;#P newex 206 85 40 196617 t i b i;#P newex 216 272 27 196617 t l l;#P newex 211 317 41 196617 jit.spill;#P message 486 128 65 196617 listlength \$1;#P newex 493 102 109 196617 r $0-listlength;#P newex 392 319 41 196617 jit.spill;#P newex 389 123 27 196617 t l l;#P outlet 195 394 15 0;#P outlet 299 395 15 0;#P outlet 261 395 15 0;#P outlet 453 411 15 0;#P outlet 393 413 15 0;#P inlet 342 34 15 0;#P inlet 251 31 15 0;#P connect 18 0 16 0;#P connect 13 0 18 0;#P connect 13 1 15 0;#P connect 16 0 6 0;#P connect 15 0 14 0;#P connect 17 0 13 0;#P connect 10 0 11 0;#P connect 12 0 11 0;#P connect 14 0 12 0;#P connect 1 0 17 0;#P connect 13 2 14 1;#P connect 11 0 4 0;#P connect 12 1 5 0;#P connect 0 0 7 0;#P connect 7 0 8 0;#P connect 10 0 8 0;#P connect 8 0 2 0;#P connect 7 1 3 0;#P connect 9 0 10 0;#P connect 19 1 20 0;#P connect 22 0 19 0;#P connect 20 0 21 0;#P fasten 19 0 23 0 570 240;#P connect 21 0 23 0;#P pop;#P hidden newobj 423 677 79 196617 p draw;#P user jit.pwindow 122 575 148 33 0 1 0 0 1 0;#P button 123 607 17 0;#P user jit.fpsgui 227 608 42 196617 2;#P user jit.fpsgui 172 608 56 196617 3;#P newex 123 558 146 131465226 jit.matrix $0jit-mixer-data;#B color 5;#P comment 228 30 13 131399689 !;#P comment 403 583 21 196628 >;#P comment 390 579 28 133693460 __;#P number 120 27 33 12 0 0 64 2040 0 0 0 255 227 23 222 222 222 0 0 0;#P objectname n-jToops;#P button 566 176 15 2;#P comment 105 28 13 133693450 x;#P button 103 27 15 11;#P comment 77 29 13 131399689 +;#P comment 90 27 13 131399692 -;#P comment 327 585 44 472055818 o n e;#P number 278 573 23 9 0 256 3 2006 0 0 0 255 138 215 222 222 222 0 0 0;#P user jit.pwindow 299 618 92 12 0 1 0 0 1 0;#P user multiSlider 300 573 90 46 0. 1. 10 2937 15;#M frgb 251 107 255;#M brgb 255 173 247;#M rgb2 127 127 127;#P comment 70 578 38 472055817 speed;#P comment 444 584 43 472055818 m i x;#P newex 1101 323 74 196617 pvar listlength;#B color 14;#P flonum 72 593 35 9 0.1 10. 3 3 0 0 0 221 221 221 222 222 222 0 0 0;#P objectname dur-mult;#P comment 25 612 29 472055817 play;#P comment 25 595 40 472055817 record;#P user radiogroup 10 577 18 50;#X size 3;#X offset 17;#X inactive 0;#X itemtype 0;#X flagmode 0;#X set 0;#X done;#P objectname record;#P comment 6 558 104 196617 _____record______;#B color 13;#P user jit.pwindow 419 618 92 12 0 1 0 0 1 0;#N vpatcher 412 291 1216 718;#P message 402 190 75 196617 /listlength 800;#P user jit.fpsgui 602 309 60 196617 3;#P message 394 140 75 196617 /listlength 500;#P message 28 132 71 196617 /listlength 10;#P outlet 122 360 15 0;#P number 501 138 35 9 0 0 0 3 0 0 0 221 221 221 222 222 222 0 0 0;#P newex 484 311 35 196617 zl join;#P newex 484 286 27 196617 int;#P newex 513 286 34 196617 zl reg;#P button 484 139 15 0;#P newex 484 340 75 196617 prepend /store;#P newex 537 249 165 196617 jit.matrix $0temp 1 float32 768 1;#P newex 537 216 127 196617 jit.fill $0temp;#P comment 575 10 100 196617 with jit;#P number 182 200 35 9 0 0 0 3 0 0 0 221 221 221 222 222 222 0 0 0;#P user multiSlider 537 138 167 57 0. 1. 768 2681 15;#M frgb 0 0 0;#M brgb 255 255 255;#M rgb2 127 127 127;#P message 156 40 72 196617 write :jenga.z;#P number 138 128 35 9 0 0 0 3 0 0 0 221 221 221 222 222 222 0 0 0;#N vpreset 6;#X append 1 1 1 128 174 multiSlider list 0.381818 0.527273 0.745455 0.818182 0.854545 0.690909 0.472727 0.290909 0.236364 0.181818 \; 8 128 138 number int 1 \;;#X append 2 1 1 128 174 multiSlider list 0.781818 0.6 0.490909 0.392727 0.294545 0.196364 0.098182 0. 0. 0. \; 8 128 138 number int 2 \;;#X append 3 1 1 128 174 multiSlider list 0.6 0.836364 0.709091 0.345455 0.327273 0.890909 0.181818 0.636364 0.545455 0.363636 \; 8 128 138 number int 3 \;;#X append 4 1 1 128 174 multiSlider list 0.345455 0.618182 0.8 0.836364 0.872727 0.854545 0.8 0.690909 0.418182 0. \; 8 128 138 number int 4 \;;#X append 5 1 1 128 174 multiSlider list 0.890909 0.808081 0.725253 0.642424 0.559596 0.476768 0.393939 0.311111 0.228283 0.109091 \; 8 128 138 number int 5 \;;#P preset 156 60 94 17;#P newex 121 237 35 196617 zl join;#P newex 121 212 27 196617 int;#P newex 150 212 34 196617 zl reg;#P newex 121 265 75 196617 prepend /store;#P button 121 129 15 0;#P user multiSlider 174 128 167 57 0. 1. 10 2681 15;#M frgb 0 0 0;#M brgb 255 255 255;#M rgb2 127 127 127;#P comment 155 11 100 196617 with lists;#P connect 2 0 5 0;#P connect 5 0 6 0;#P connect 6 0 3 0;#P connect 3 0 21 0;#P connect 15 0 21 0;#P connect 22 0 21 0;#P fasten 23 0 21 0 406 301;#P connect 25 0 21 0;#P connect 7 0 8 0;#P connect 8 0 5 1;#P connect 4 0 6 1;#P connect 2 0 4 0;#P connect 9 0 7 0;#P connect 7 0 1 0;#P connect 1 0 4 1;#P connect 16 0 18 0;#P connect 18 0 19 0;#P connect 19 0 15 0;#P connect 20 0 18 1;#P connect 17 0 19 1;#P connect 16 0 17 0;#P connect 10 0 13 0;#P connect 13 0 14 0;#P connect 14 0 17 1;#P connect 14 0 24 0;#P pop;#P newobj 696 114 63 196617 p make-data;#P user multiSlider 420 573 90 46 0. 1. 128 2937 15;#M frgb 25 255 71;#M brgb 152 255 141;#M rgb2 127 127 127;#N vpatcher 40 55 1054 716;#P message 392 577 111 196617 /number-of-jToops \$1;#P button 706 219 15 0;#P newex 167 232 105 196617 t b b i i i i b i;#P outlet 11 491 15 0;#N comlet make this many;#P inlet 238 52 15 0;#P newex 346 159 40 196617 uzi;#P newex 346 127 27 196617 int;#N comlet resend IDs;#P inlet 380 54 15 0;#P newex 760 479 27 196617 t i i;#P newex 464 122 40 196617 uzi;#P newex 187 398 330 196617 sprintf script send %done-jToop script send OSC-route /id $0_;#N comlet make;#P inlet 109 53 15 0;#N comlet break;#P inlet 126 53 15 0;#N comlet n;#P inlet 69 53 15 0;#P newex 760 524 40 196617 change;#P newex 760 444 51 196617 maximum;#P newex 690 350 27 196617 b;#P newex 407 230 40 196617 t b i i;#P newex 760 413 65 196617 zl group 256;#P newex 726 285 45 196617 append 0;#P newex 678 285 45 196617 append 1;#P newex 760 354 27 196617 bag;#P newex 438 375 161 196617 sprintf script delete %done-jToop;#P outlet 588 611 15 0;#P newex 107 434 189 196617 sprintf script bringtofront %done-jToop;#P newex 268 346 388 196617 sprintf script new %done-jToop bpatcher 50 50 68 34 0 0 one-jToop 0 %d $0_;#P newex 146 129 27 196617 int;#P newex 118 129 27 196617 int;#P outlet 388 618 15 0;#P comment 491 81 100 196617 how many there are...;#P connect 27 1 26 0;#P connect 27 2 5 0;#P connect 18 0 2 0;#P connect 16 0 2 1;#P connect 17 0 3 0;#P connect 16 0 3 1;#P connect 24 2 27 0;#P connect 2 0 27 0;#P fasten 20 2 19 0 286 278;#P connect 27 3 19 0;#P connect 27 4 4 0;#P connect 25 0 23 0;#P connect 23 0 24 0;#P connect 16 0 23 1;#P connect 29 0 1 0;#P connect 15 0 29 0;#P connect 3 0 12 0;#P connect 12 2 7 0;#P connect 22 0 20 0;#P fasten 21 1 20 1 819 506 851 453 863 348 813 251 657 129 525 97;#P connect 19 0 6 0;#P connect 4 0 6 0;#P connect 5 0 6 0;#P connect 7 0 6 0;#P connect 27 5 4 1;#P connect 27 7 9 0;#P connect 28 0 13 0;#P connect 27 6 13 0;#P connect 12 0 13 0;#P connect 12 1 10 0;#P connect 13 1 8 0;#P connect 10 0 8 0;#P connect 9 0 8 0;#P connect 8 0 11 0;#P connect 13 0 11 0;#P connect 11 0 14 0;#P connect 14 0 21 0;#P connect 21 0 15 0;#P pop;#P hidden newobj 549 217 69 196617 p make-break;#N vpatcher 40 55 522 508;#P newex 330 137 60 196617 prepend set;#P newex 333 100 21 196617 t 1;#P inlet 299 54 15 0;#P outlet 299 310 15 0;#P newex 147 94 27 196617 t i i;#P message 256 265 14 196617 1;#P message 144 201 50 196617 5;#P newex 107 143 60 196617 prepend set;#P newex 46 146 45 196617 loadbang;#P newex 256 244 30 196617 sel 0;#P inlet 154 52 15 0;#P connect 6 0 3 0;#P connect 2 0 4 0;#P connect 3 0 4 0;#P connect 10 0 4 0;#P connect 0 0 6 0;#P connect 4 0 1 0;#P connect 6 1 1 0;#P connect 1 0 5 0;#P connect 1 1 7 0;#P connect 5 0 7 0;#P connect 9 0 10 0;#P connect 8 0 9 0;#P pop;#P newobj 727 207 27 196617 p n;#P newex 1119 358 121 196617 s $0-listlength;#P comment 169 11 51 472055817 _listlen_;#B color 13;#P number 172 27 39 12 0 0 0 2040 0 0 0 221 221 221 222 222 222 0 0 0;#P objectname listlength;#P newex 1176 254 164 196617 t 768 $1;#P comment 8 11 156 472055817 ____jToops_______________;#B color 13;#P button 89 27 15 14;#P button 75 27 15 6;#P number 43 27 33 12 0 256 3 2040 0 0 0 221 221 221 222 222 222 0 0 0;#P button 226 27 15 2;#P hidden newex 561 61 75 196617 prepend /mode;#N vpatcher 20 85 420 385;#P outlet 92 229 15 0;#P outlet 159 229 15 0;#P inlet 102 45 15 0;#P newex 102 94 112 196617 route pictslider matrix;#P connect 0 0 3 0;#P connect 1 0 0 0;#P connect 0 1 2 0;#P pop;#P newobj 899 259 45 196617 p update;#N vpatcher 17 110 1031 670;#P newex 165 193 170 196617 r $0place-pointes-next-time;#P newex 23 240 48 196617 grab-one;#P newex 43 291 32 196617 defer;#P message 40 341 64 196617 /read points;#P newex 122 294 32 196617 defer;#P message 704 280 172 196617 script bringtofront lookup-pictslider;#P outlet 317 414 15 0;#P newex 57 193 40 196617 b 3;#P message 141 337 75 196617 /update matrix;#P newex 437 235 40 196617 b 3;#P message 419 279 89 196617 /update pictslider;#P newex 133 397 80 196617 s $0_to-myself;#P button 437 214 15 0;#P button 57 169 15 0;#P message 546 282 154 196617 script sendtoback lookup-matrix;#P message 223 282 165 196617 script sendtoback lookup-pictslider;#P inlet 106 59 15 0;#P newex 106 88 79 196617 route edit swim;#P connect 10 0 16 0;#P connect 15 0 14 0;#P connect 17 0 16 1;#P connect 16 1 15 0;#P connect 0 0 4 0;#P connect 4 0 10 0;#P connect 1 0 0 0;#P connect 10 1 13 0;#P connect 7 0 6 0;#P connect 9 0 6 0;#P connect 14 0 6 0;#P connect 13 0 9 0;#P connect 10 2 2 0;#P connect 3 0 11 0;#P connect 2 0 11 0;#P connect 12 0 11 0;#P connect 8 0 7 0;#P connect 0 1 5 0;#P connect 5 0 8 0;#P connect 8 1 3 0;#P connect 8 2 12 0;#P pop;#P newobj 1043 323 44 196617 p modes;#N thispatcher;#Q end;#P newobj 932 411 59 196617 thispatcher;#N vpatcher 9 45 1013 765;#P newex 157 166 60 196617 print here2;#P button 588 160 15 0;#P button 632 159 15 0;#P newex 13 227 185 196617 r $0read-jToop_listlength;#P message 173 318 32 196617 1000;#P message 83 300 32 196617 4500;#P newex 83 324 27 196617 del;#P newex 595 259 191 196617 s $0place-pointes-next-time;#P newex 146 377 27 196617 del;#P message 131 420 64 196617 /mode swim;#N comlet to outside pictslider;#P outlet 966 676 15 0;#N comlet to file name text-edit;#P outlet 925 675 15 0;#P newex 611 36 45 196617 loadbang;#N vpatcher 28 106 1042 826;#P number 600 613 35 9 0 0 0 3 0 0 0 221 221 221 222 222 222 0 0 0;#P number 652 614 35 9 0 0 0 3 0 0 0 221 221 221 222 222 222 0 0 0;#P newex 839 599 189 196617 sprintf script bringtofront %done-jToop;#P message 374 385 20 196617 10;#P newex 374 405 27 196617 del;#P comment 419 293 245 196617 dim (def. 128) \, amp \, StdDev \, x0 \, y0 \, R \, G \, B;#P button 141 39 15 0;#P newex 720 533 27 196617 t b l;#P newex 826 628 314 196617 sprintf script send %done-jToop script send OSC-route /StdDev %f;#P newex 800 647 300 196617 sprintf script send %done-jToop script send OSC-route /amp %f;#P newex 731 570 27 196617 int;#P newex 903 561 62 196617 unpack 1. 1.;#P newex 864 537 49 196617 zl slice 3;#P comment 535 467 142 196617 R \, G \, B \, amp \, StdDev;#N comlet to thispatcher;#P outlet 831 716 15 0;#P newex 544 627 29 196617 + 89;#P newex 450 628 29 196617 + 20;#P newex 434 462 40 196617 t b b l;#P inlet 99 38 15 0;#P newex 457 501 55 196617 unpack 1 1;#P newex 544 530 91 196617 zmap 0 127 0 512;#P newex 450 531 91 196617 zmap 0 127 0 512;#P newex 560 574 55 196617 unpack 1 1;#P newex 560 554 98 196617 r $0_mouse-topleft;#P newex 720 510 34 196617 zl reg;#P newex 351 504 27 196617 + 1;#P newex 334 631 27 196617 int;#P newex 99 141 27 196617 t i i;#P newex 434 443 49 196617 zl slice 2;#P newex 434 422 45 196617 zl rot -2;#P comment 492 380 142 196617 amp \, StdDev \, x0 \, y0 \, R \, G \, B;#P newex 434 380 49 196617 zl slice 1;#P comment 368 245 245 196617 on/off dim (def. 128) \, amp \, StdDev \, x0 \, y0 \, R \, G \, B;#P comment 447 354 214 196617 dim (def. 128) \, amp \, StdDev \, x0 \, y0 \, R \, G \, B;#P newex 417 352 27 196617 t b l;#P newex 357 262 49 196617 zl slice 1;#P newex 417 326 34 196617 zl reg;#P newex 357 285 44 196617 route 1.;#P newex 318 223 49 196617 zl slice 3;#P message 99 169 53 196617 getcell \$1;#P newex 99 71 29 196617 t b 0;#N counter 0 128;#X flags 0 0;#P newobj 99 119 72 196617 counter 0 128;#P newex 99 193 229 131465228 jit.matrix $0jit-mixer-points 9 float32 128;#B color 5;#P newex 748 666 335 196617 sprintf script send %done-jToop script send OSC-route /color %f %f %f;#P newex 334 670 394 196617 sprintf script new %done-jToop bpatcher %d %d 68 34 0 0 one-jToop 0 %d $0_;#P message 380 141 199 196617 setcell \$1 val 1 \$2 \$3 \$4 \$5 \$6 \$7 \$8 \$9;#P comment 312 161 265 196617 val: on/off dim (def. 128) \, amp \, StdDev \, x0 \, y0 \, R \, G \, B;#P connect 28 0 6 0;#P connect 40 0 6 0;#P fasten 42 0 5 0 176 488 36 276 61 145;#P connect 6 0 5 0;#P connect 5 0 19 0;#P connect 19 0 7 0;#P connect 7 0 4 0;#P connect 6 1 5 2;#P connect 4 1 8 0;#P connect 29 1 20 0;#P connect 20 0 2 0;#P connect 19 1 21 0;#P connect 21 0 20 1;#P connect 8 1 11 0;#P connect 11 0 9 0;#P connect 12 0 43 0;#P connect 43 0 42 0;#P connect 9 0 10 0;#P connect 10 0 12 0;#P connect 12 1 15 0;#P connect 15 1 17 0;#P connect 17 0 18 0;#P connect 18 0 29 0;#P connect 11 1 10 1;#P connect 27 0 25 0;#P connect 25 0 30 0;#P connect 29 2 27 0;#P connect 30 0 2 1;#P connect 24 0 30 1;#P connect 27 1 26 0;#P connect 26 0 31 0;#P connect 23 0 24 0;#P connect 24 1 31 1;#P connect 31 0 2 2;#P connect 24 0 46 0;#P connect 24 1 45 0;#P connect 20 0 2 3;#P fasten 29 0 22 0 478 494;#P connect 22 0 39 0;#P connect 39 0 36 0;#P connect 18 1 22 1;#P fasten 21 0 36 1 387 631;#P connect 36 0 3 0;#P connect 36 0 37 0;#P connect 36 0 38 0;#P connect 2 0 32 0;#P connect 44 0 32 0;#P connect 3 0 32 0;#P connect 37 0 32 0;#P connect 38 0 32 0;#P connect 36 0 44 0;#P connect 34 0 3 1;#P connect 39 1 34 0;#P connect 34 1 35 0;#P connect 35 0 37 1;#P connect 35 1 38 1;#P pop;#P newobj 266 513 74 196617 p place-jToops;#N vpatcher 9 45 1014 758;#P origin -352 -250;#P button 365 233 15 0;#P button 233 290 15 0;#P newex 215 247 42 196617 del 500;#P newex 221 193 28 196617 t b s;#P newex 299 285 34 196617 zl reg;#P newex 354 272 34 196617 zl reg;#P newex 258 247 42 196617 del 250;#P newex 996 451 105 196617 prepend bkgndpicture;#N comlet to outside pictslider;#P outlet 1042 576 15 0;#N comlet bang to read image only;#P inlet 836 140 15 0;#P newex 815 248 105 196617 sprintf %s.space.jpeg;#P outlet 871 570 15 0;#P newex 864 521 60 196617 prepend set;#P message 624 498 172 196617 script bringtofront lookup-pictslider;#P message 584 478 154 196617 script sendtoback lookup-matrix;#P newex 647 351 40 196617 t b s s;#N comlet to place pointes;#P outlet 770 601 15 0;#P newex 165 313 27 196617 del;#P message 165 293 26 196617 300;#P newex 197 160 108 196617 t b s s s;#N comlet bang to read image only;#P inlet 616 135 15 0;#P outlet 685 601 15 0;#P newex 620 269 27 196617 del;#P newex 647 318 34 196617 zl reg;#P message 620 249 26 196617 300;#P newex 676 412 235 196617 prepend script send lookup-pictslider bkgndpicture;#P newex 698 250 105 196617 sprintf %s.space.jpeg;#P inlet 182 120 15 0;#P newex 369 309 103 196617 sprintf %s.points.jxf;#P outlet 327 609 15 0;#P newex 334 367 65 196617 prepend read;#P newex 499 309 95 196617 sprintf %s.data.jxf;#P newex 245 323 101 196617 sprintf %s.space.jxf;#P outlet 431 616 15 0;#P outlet 256 597 15 0;#P newex 428 367 65 196617 prepend read;#P newex 263 367 65 196617 prepend read;#P connect 18 0 19 0;#P connect 9 0 17 0;#P connect 33 0 34 0;#P connect 17 1 33 0;#P connect 32 0 4 0;#P connect 0 0 2 0;#P connect 33 0 30 0;#P connect 4 0 0 0;#P connect 35 0 32 0;#P connect 34 0 32 0;#P connect 33 1 32 1;#P connect 6 0 7 0;#P connect 8 0 6 0;#P connect 36 0 31 0;#P connect 30 0 31 0;#P connect 31 0 8 0;#P connect 33 1 31 1;#P connect 5 0 1 0;#P connect 1 0 3 0;#P fasten 33 1 5 0 528 250;#P connect 21 0 22 0;#P connect 16 0 12 0;#P connect 12 0 14 0;#P connect 21 0 23 0;#P connect 14 0 13 0;#P connect 10 0 13 0;#P connect 13 0 21 0;#P connect 26 0 13 1;#P connect 21 1 11 0;#P connect 11 0 15 0;#P connect 23 0 15 0;#P connect 22 0 15 0;#P connect 17 2 10 0;#P fasten 19 0 20 0 185 433;#P connect 27 0 26 0;#P fasten 17 3 24 0 1045 233;#P connect 24 0 25 0;#P fasten 21 2 29 0 1034 391;#P connect 29 0 28 0;#P pop;#P newobj 439 393 92 196617 p read;#N vpatcher 30 70 1032 560;#N comlet bang to write image only;#P inlet 83 49 15 0;#P newex 481 239 34 196617 zl reg;#P outlet 477 365 15 0;#P newex 693 100 110 196617 sprintf :%s.space.jpeg;#P newex 204 285 71 196617 prepend write;#P newex 205 209 34 196617 zl reg;#P newex 408 109 105 196617 sprintf :%s.points.jxf;#P newex 307 220 34 196617 zl reg;#P newex 293 286 71 196617 prepend write;#P newex 128 286 71 196617 prepend write;#P newex 564 101 99 196617 sprintf :%s.data.jxf;#P newex 297 107 105 196617 sprintf :%s.space.jxf;#P newex 132 209 34 196617 zl reg;#N comlet (s) base name;#P inlet 286 39 15 0;#N comlet bang to write;#P inlet 27 49 15 0;#P outlet 126 355 15 0;#P outlet 179 356 15 0;#P outlet 240 358 15 0;#P connect 8 0 2 0;#P connect 5 0 8 0;#P connect 3 0 5 0;#P connect 6 0 5 1;#P connect 13 0 1 0;#P connect 12 0 13 0;#P connect 3 0 12 0;#P connect 11 0 12 1;#P connect 9 0 0 0;#P connect 10 0 9 0;#P connect 4 0 6 0;#P connect 3 0 10 0;#P connect 7 0 10 1;#P connect 4 0 11 0;#P connect 16 0 15 0;#P fasten 3 0 16 0 418 215;#P connect 17 0 16 0;#P connect 14 0 16 1;#P connect 4 0 7 0;#P connect 4 0 14 0;#P pop;#P newobj 554 394 53 196617 p write;#P outlet 252 673 15 0;#P message 880 497 60 196617 /clear bang;#N vpatcher 112 53 943 736;#P newex 89 551 250 196617 sprintf /draw/draw-matrix.voi/%d/color %f %f %f;#P newex 70 369 27 196617 - 1;#P newex 187 509 64 196617 pack 1. 1. 1.;#P message 26 131 235 196617 val: dim (def. 128) \, amp \, StdDev \, x0 \, y0 \, R \, G \, B;#P newex 57 472 182 196617 unpack cell 1 val 128 1. 1. 1 1 1. 1. 1.;#P newex 40 345 40 196617 uzi;#P newex 70 399 75 196617 prepend getcell;#P newex 70 428 229 131465228 jit.matrix $0jit-mixer-points 9 float32 128;#B color 5;#P message 38 307 177 196617 jit_matrix $0jit-mixer-points;#P newex 238 320 27 196617 t i i;#P message 223 178 177 196617 jit_matrix $0jit-mixer-points;#P outlet 452 623 15 0;#P inlet 169 33 15 0;#P message 268 361 111 196617 /number-of-jToops \$1;#P message 568 411 71 196617 /listlength \$1;#P newex 240 296 31 196617 Lsum;#P message 447 173 139 196617 jit_matrix $0jit-mixer-data;#P user multiSlider 223 235 125 38 0. 2. 128 2937 47;#M frgb 0 0 0;#M brgb 255 255 255;#M rgb2 127 127 127;#P newex 223 203 158 196617 jit.spill @plane 0 @listlength 128;#P newex 573 258 55 196617 unpack 1 1;#P newex 447 228 199 196617 route planecount type dim;#P newex 447 207 70 196617 jit.matrixinfo;#P newex 167 60 31 196617 t b b;#P connect 13 0 17 0;#P connect 15 1 18 0;#P connect 17 2 21 0;#P connect 21 0 16 0;#P connect 16 0 15 0;#P connect 18 1 22 0;#P connect 10 0 0 0;#P connect 20 0 22 1;#P connect 18 8 20 0;#P connect 18 9 20 1;#P connect 0 0 12 0;#P connect 12 0 4 0;#P connect 4 0 5 0;#P connect 7 0 13 0;#P connect 5 0 7 0;#P connect 18 10 20 2;#P connect 13 1 9 0;#P connect 0 1 6 0;#P connect 6 0 1 0;#P connect 1 0 2 0;#P connect 22 0 11 0;#P connect 8 0 11 0;#P connect 9 0 11 0;#P connect 3 0 8 0;#P connect 2 2 3 0;#P pop;#P newobj 13 418 104 196617 p n-jToops_listlength;#P newex 477 122 71 196617 route points 0;#P newex 475 512 115 196617 prepend /matrix/points;#P newex 355 190 40 196617 t b s s;#P newex 274 161 55 196617 route bang;#N comlet read;#P inlet 477 88 15 0;#N comlet to thispatcher;#P outlet 850 676 15 0;#P newex 393 160 27 196617 b;#N comlet write jpeg image;#P inlet 368 98 15 0;#P outlet 741 674 15 0;#P newex 599 512 108 196617 prepend /matrix/data;#P newex 355 512 114 196617 prepend /matrix/space;#N comlet write all;#P inlet 274 98 15 0;#P newex 508 172 66 196617 t b b s b b;#P message 611 79 86 196617 $1;#P connect 29 0 14 0;#P connect 26 0 14 0;#P connect 1 0 27 0;#P connect 27 0 26 0;#P connect 24 0 23 0;#P connect 28 0 24 0;#P connect 2 0 32 0;#P connect 1 1 28 0;#P connect 15 0 16 0;#P connect 14 0 16 0;#P connect 4 0 16 0;#P connect 12 0 16 0;#P connect 3 0 16 0;#P connect 23 0 16 0;#P connect 13 0 19 0;#P connect 2 0 10 0;#P connect 10 1 11 0;#P connect 18 0 3 0;#P connect 17 0 3 0;#P connect 6 0 7 0;#P connect 1 2 18 0;#P connect 18 1 12 0;#P connect 17 1 12 0;#P connect 0 0 13 0;#P connect 9 0 13 0;#P connect 7 0 18 1;#P connect 13 2 1 0;#P fasten 11 2 18 2 483 271;#P connect 10 0 17 0;#P connect 11 0 17 0;#P connect 13 1 31 0;#P connect 1 3 25 0;#P connect 1 2 17 2;#P connect 11 1 17 2;#P connect 18 2 4 0;#P connect 17 2 4 0;#P connect 20 0 0 0;#P connect 13 2 30 0;#P connect 17 3 5 0;#P connect 18 3 8 0;#P fasten 19 0 8 0 280 563;#P connect 1 4 15 0;#P connect 18 5 21 0;#P connect 18 6 22 0;#P pop;#P newobj 916 323 105 196617 p read-write;#P hidden message 535 128 75 196617 /update matrix;#P message 266 27 30 472055817 swim;#P message 240 27 25 472055817 edit;#N thispatcher;#Q end;#P hidden newobj 607 244 59 196617 thispatcher;#N vpatcher 707 208 1269 556;#P newex 183 78 27 196617 b;#P newex 60 77 27 196617 b;#N comlet resend;#P inlet 313 40 15 0;#P newex 221 211 34 196617 zl reg;#P newex 344 211 34 196617 zl reg;#P user textedit 393 151 495 173 0 3 9 532 603;#P user textedit 270 150 337 173 0 3 9 21 89;#P inlet 183 40 15 0;#P inlet 60 39 15 0;#P newex 344 236 143 196617 s $0_mouse-bottomright;#P newex 344 150 45 196617 pack 1 1;#P newex 330 119 66 196617 mousestate;#P newex 221 236 120 196617 s $0_mouse-topleft;#P newex 221 150 45 196617 pack 1 1;#P newex 207 120 66 196617 mousestate;#P connect 6 0 13 0;#P connect 7 0 14 0;#P connect 13 1 0 0;#P connect 0 1 1 0;#P connect 12 0 11 0;#P connect 1 0 11 0;#P fasten 14 0 11 0 188 161;#P connect 11 0 2 0;#P connect 0 2 1 1;#P connect 1 0 8 0;#P connect 14 1 3 0;#P connect 3 1 4 0;#P connect 4 0 10 0;#P connect 12 0 10 0;#P fasten 13 0 10 0 65 173;#P connect 10 0 5 0;#P connect 3 2 4 1;#P connect 4 0 9 0;#P pop;#P newobj 713 722 61 196617 p send-coor;#P toggle 328 27 15 0;#P objectname draw-3D;#N comlet (jit-matrix) interpolated list;#P hidden outlet 591 706 33 0;#N vpatcher 40 55 540 447;#P button 48 186 15 0;#P message 326 129 14 196617 a;#P newex 221 174 135 196617 sprintf exportimage %s jpeg;#P inlet 295 51 15 0;#P user jit.pwindow 97 284 82 62 0 1 0 0 1 0;#P newex 90 173 51 196617 jit.concat;#P newex 90 232 188 196617 jit.matrix $0jit-mixer-2D-display;#P inlet 90 58 15 0;#P connect 0 0 2 0;#P connect 5 0 1 0;#P connect 2 0 1 0;#P connect 7 0 1 0;#P connect 1 0 3 0;#P connect 0 0 2 1;#P connect 6 0 5 0;#P connect 4 0 5 0;#P pop;#P newobj 721 562 59 196617 p save-pict;#P newex 675 61 101 196617 r $0_to-myself;#N vpatcher 157 82 1171 802;#P newex 549 133 74 196617 print storing...;#P outlet 568 683 15 0;#P newex 384 95 27 196617 t l l;#P newex 709 454 45 196617 pack 1 0;#P newex 652 412 27 196617 - 1;#P newex 128 413 27 196617 - 1;#P newex 223 412 27 196617 int;#P newex 177 386 27 196617 t b f;#P newex 65 442 139 196617 sprintf setcell %d %d val %f;#P newex 177 358 73 196617 list-inumerate;#P newex 177 326 34 196617 zl reg;#P newex 622 323 94 196617 prepend jit_matrix;#P newex 598 407 34 196617 zl reg;#P newex 745 413 27 196617 - 1;#P message 652 524 83 196617 dstdimend \$2 \$1;#P message 742 524 91 196617 dstdimstart \$2 \$1;#P newex 745 388 75 196617 r $0-listlength;#P newex 652 453 45 196617 pack 1 1;#P newex 429 312 50 196617 t b i 1;#P newex 384 333 40 196617 t b i 0;#P newex 411 283 35 196617 gate 2;#P newex 561 199 27 196617 t 2 l;#P newex 485 211 27 196617 t 1 l;#P newex 492 505 149 196617 jit.fill $0jit-mixer-data;#P newex 536 321 75 196617 r $0-listlength;#P comment 917 395 115 1310730 Use destination dimensions;#P toggle 902 394 15 0;#P message 902 412 80 1441802 usedstdim \$1;#P newex 568 640 108 196617 prepend /matrix/data;#P message 466 451 59 196617 offset 0 \$1;#P newex 452 393 94 196617 expr ($i1-1) * $i2;#P newex 440 148 83 196617 route jit_matrix;#P newex 401 123 49 196617 zl slice 1;#P inlet 384 53 15 0;#P connect 27 0 25 0;#P connect 14 1 28 0;#P connect 28 0 25 1;#P fasten 14 0 23 0 182 290;#P connect 23 0 24 0;#P connect 24 0 26 0;#P connect 26 1 25 2;#P connect 11 1 23 1;#P connect 26 0 27 0;#P connect 24 1 27 1;#P connect 0 0 31 0;#P connect 13 0 14 0;#P connect 31 1 1 0;#P connect 11 0 13 0;#P connect 12 0 13 0;#P connect 13 1 15 0;#P connect 1 0 13 1;#P connect 1 1 2 0;#P connect 14 1 3 0;#P connect 3 0 4 0;#P connect 2 1 11 0;#P connect 4 0 10 0;#P connect 9 0 3 1;#P connect 0 0 33 0;#P connect 2 0 12 0;#P fasten 6 0 5 0 900 534;#P connect 25 0 5 0;#P connect 18 0 5 0;#P connect 19 0 5 0;#P connect 10 0 5 0;#P connect 21 0 5 0;#P connect 5 0 32 0;#P fasten 15 0 21 0 474 380 548 388 584 402 597 388;#P connect 12 1 22 0;#P connect 22 0 21 1;#P fasten 15 1 29 0 505 375 570 383 613 374;#P connect 29 0 16 0;#P connect 16 0 19 0;#P connect 20 0 16 1;#P connect 29 0 30 0;#P connect 30 0 18 0;#P connect 17 0 20 0;#P connect 15 2 7 0;#P connect 14 2 7 0;#P connect 7 0 6 0;#P pop;#P newobj 870 323 40 196617 p store;#N vpatcher 30 70 1044 530;#N comlet to posit;#P outlet 1094 362 15 0;#P newex 1094 301 131 196617 sprintf query %done-jToop;#P newex 1060 261 27 196617 gate;#P newex 1077 232 27 196617 t i i;#N comlet (int) query resutls;#P inlet 1156 64 15 0;#P newex 911 299 161 196617 sprintf script delete %done-jToop;#P newex 1045 196 42 196617 uzi 128;#P newex 406 246 115 196617 prepend /matrix/points;#P newex 650 246 108 196617 prepend /matrix/data;#P newex 529 247 114 196617 prepend /matrix/space;#P message 189 196 105 196617 /number-of-jToops 1;#N comlet to thispatcher;#P outlet 894 361 15 0;#P message 739 197 301 196617 script send lookup-pictslider bkgndpicture blank.jToop.space.jpeg;#P outlet 112 338 15 0;#P message 638 196 65 196617 dim 768 128;#P message 464 197 45 196617 dim 128;#P message 550 196 85 196617 dim 128 128 128;#P newex 112 91 40 196617 b 3;#P message 112 196 75 196617 /listlength 768;#P inlet 112 36 15 0;#P message 322 197 31 196617 clear;#P connect 1 0 3 0;#P connect 3 0 2 0;#P connect 2 0 7 0;#P connect 10 0 7 0;#P connect 13 0 7 0;#P connect 11 0 7 0;#P connect 12 0 7 0;#P connect 3 0 10 0;#P connect 3 1 0 0;#P connect 0 0 13 0;#P connect 5 0 13 0;#P connect 3 1 5 0;#P connect 0 0 11 0;#P connect 4 0 11 0;#P connect 3 1 4 0;#P connect 3 1 6 0;#P connect 0 0 12 0;#P connect 6 0 12 0;#P fasten 3 1 8 0 596 157;#P connect 15 0 9 0;#P connect 8 0 9 0;#P connect 18 0 15 0;#P connect 3 2 14 0;#P fasten 16 0 18 0 1161 244;#P connect 14 2 17 0;#P connect 17 0 18 1;#P connect 17 1 19 0;#P connect 19 0 20 0;#P pop;#P newobj 767 323 92 196617 p clear;#N vpatcher 9 45 1023 765;#P origin 0 40;#P number 551 376 35 9 0 0 0 3 0 0 0 221 221 221 222 222 222 0 0 0;#P number 515 376 35 9 0 0 0 3 0 0 0 221 221 221 222 222 222 0 0 0;#P newex 363 522 114 196617 prepend /matrix/space;#P newex 307 495 115 196617 prepend /matrix/points;#P newex 593 237 49 196617 zl slice 2;#P newex 87 150 27 196617 + 1;#N comlet bang when done adding;#P outlet 352 714 15 0;#P newex 87 125 49 196617 zl slice 1;#P newex 87 179 235 196617 sprintf /draw/draw-matrix.voi/%d/recolor bang;#P newex 485 68 53 196617 t l l l l;#P message 188 253 199 196617 setcell \$1 val 1 \$2 \$3 \$4 \$5 \$6 \$7 \$8 \$9;#P comment 953 647 104 196617 to middle inlet;#P newex 445 284 27 196617 + 1;#P newex 445 254 49 196617 zl slice 1;#N comlet row added;#P outlet 670 707 15 0;#N comlet number of toops;#P inlet 1064 95 15 0;#N comlet bang when done adding;#P outlet 426 705 15 0;#P inlet 549 14 15 0;#P comment 991 306 104 196617 total number of toops;#P number 950 304 35 9 0 0 0 3 0 0 0 221 221 221 222 222 222 0 0 0;#P newex 773 599 93 196617 expr $f1/$f2*$f3;#P newex 812 553 48 196617 grab-one;#P newex 556 325 55 196617 unpack 1 1;#P newex 604 199 49 196617 zl slice 4;#P newex 688 291 53 196617 t i b i i;#P newex 966 620 74 196617 pack dim 1 1 1;#P newex 773 531 27 196617 t f f;#P newex 622 140 92 196617 t b l b l l b l;#P newex 670 196 134 196617 unpack 1 1 1. 1. 1 1 1. 1. 1.;#P user fpic 885 531 276 49 gimg1083.gif 0 0 0 0. 0 0 0;#P flonum 783 303 35 9 0 0 0 3 0 0 0 221 221 221 222 222 222 0 0 0;#P number 860 303 35 9 0 0 0 3 0 0 0 221 221 221 222 222 222 0 0 0;#P number 824 303 35 9 0 0 0 3 0 0 0 221 221 221 222 222 222 0 0 0;#P number 688 270 35 9 0 0 0 3 0 0 0 221 221 221 222 222 222 0 0 0;#P newex 648 476 27 196617 t b i;#P newex 704 500 27 196617 - 1;#P newex 672 500 27 196617 - 1;#P newex 653 624 115 196617 pack setcell 0 0 1 val 1.;#P button 662 329 15 0;#P newex 757 485 235 196617 expr (1./2./3.1415/($f3*$f3))*exp(-1.*(($f1-$f4)*($f1-$f4)+($f2-$f5)*($f2-$f5))/2./($f3*$f3));#P newex 627 417 40 196617 uzi 64;#P newex 662 353 40 196617 uzi 64;#P comment 120 273 235 196617 val: dim (def. 128) \, amp \, StdDev \, x0 \, y0 \, R \, G \, B;#P connect 33 2 35 0;#P connect 35 0 37 0;#P connect 37 0 34 0;#P connect 33 3 32 0;#P connect 32 0 39 0;#P fasten 34 0 36 0 125 636;#P connect 40 0 36 0;#P connect 39 0 36 0;#P connect 5 0 40 0;#P fasten 15 0 26 0 442 189 419 295 442 414 502 546;#P connect 15 1 29 0;#P connect 29 0 30 0;#P connect 25 0 33 0;#P connect 20 0 41 0;#P connect 20 1 42 0;#P connect 38 0 20 0;#P connect 19 1 38 0;#P connect 15 3 19 0;#P connect 33 1 15 0;#P connect 1 0 2 0;#P fasten 2 2 8 0 662 455 653 455;#P connect 8 0 5 0;#P connect 18 0 2 1;#P fasten 15 2 4 0 537 228;#P connect 4 0 1 0;#P connect 15 4 14 0;#P fasten 30 0 28 0 583 646;#P connect 8 1 6 0;#P connect 6 0 5 1;#P connect 14 1 9 0;#P connect 9 0 18 0;#P connect 18 0 1 1;#P connect 7 0 5 2;#P connect 1 2 7 0;#P fasten 14 0 5 3 513 322;#P connect 20 0 3 0;#P connect 2 2 3 0;#P connect 22 0 5 5;#P connect 3 0 16 0;#P connect 16 0 22 0;#P connect 14 3 12 0;#P connect 16 1 21 0;#P connect 20 1 3 1;#P connect 1 2 3 1;#P connect 21 1 22 1;#P connect 14 4 10 0;#P connect 15 5 21 1;#P fasten 14 2 22 2 744 554;#P connect 14 5 11 0;#P connect 12 0 3 2;#P connect 10 0 3 3;#P connect 27 0 23 0;#P connect 18 1 17 0;#P connect 11 0 3 4;#P connect 18 2 17 1;#P connect 18 3 17 2;#P connect 23 0 17 3;#P pop;#P newobj 670 340 66 196617 p add;#N vpatcher 220 42 1067 762;#P toggle 103 374 15 0;#P newex 104 404 27 196617 t i i;#P newex 154 442 27 196617 gate;#P newex 117 442 27 196617 gate;#N comlet (int) number of toops;#P inlet 480 26 15 0;#P user textedit 298 81 404 129 0 3 9 41 102;#P outlet 644 730 15 0;#P newex 328 725 34 196617 zl reg;#P number 375 472 35 9 0 0 0 3 0 0 0 221 221 221 222 222 222 0 0 0;#P user multiSlider 557 340 109 53 0. 1. 38 2681 15;#M frgb 0 0 0;#M brgb 255 255 255;#M rgb2 127 127 127;#P newex 352 699 27 196617 t l l;#P newex 352 655 99 196617 jit.op @op + @val 0.;#P outlet 327 748 15 0;#P newex 259 493 27 196617 t b f;#P newex 352 618 63 196617 jit.op @op *;#P newex 259 463 73 196617 list-inumerate;#P message 281 548 163 196617 jit_matrix $0jit-mixer-data;#P newex 282 576 62 196617 jit.a.getrow;#P newex 259 411 45 196617 Lmult 1.;#P newex 265 324 70 196617 t b l l clear 0.;#P newex 293 383 29 196617 !/ 1.;#P newex 293 363 43 196617 Lsum 0.;#P message 123 179 65 196617 getcell 1 1 1;#P newex 32 224 250 196617 jit.matrix $0jit-mixer-space 1 float32 128 128 128;#P newex 261 288 44 196617 zl group;#P newex 132 135 27 196617 - 1;#P newex 55 103 55 196617 unpack 1 1;#P newex 58 63 27 196617 t b l;#P newex 29 178 88 196617 pack getcell 1 1 1;#P newex 209 259 49 196617 zl slice 5;#P newex 113 103 40 196617 uzi;#N comlet (int) number of toops;#P inlet 214 30 15 0;#N comlet (list) position;#P inlet 56 23 15 0;#P comment 385 346 100 196617 need to add up rows;#P connect 3 0 5 0;#P connect 11 0 10 0;#P connect 5 0 10 0;#P connect 6 1 7 0;#P connect 7 0 5 1;#P connect 1 0 6 0;#P connect 7 1 5 2;#P fasten 29 0 33 0 561 252 142 343;#P connect 33 0 32 0;#P connect 8 0 5 3;#P connect 6 0 3 0;#P connect 32 0 30 0;#P connect 3 2 8 0;#P connect 14 0 30 1;#P connect 2 0 3 1;#P connect 32 1 31 0;#P connect 15 0 31 1;#P connect 10 1 4 0;#P connect 14 1 15 0;#P connect 31 0 18 0;#P connect 25 0 20 0;#P connect 18 0 20 0;#P connect 4 1 9 0;#P connect 9 0 14 0;#P connect 20 0 17 0;#P connect 17 0 16 0;#P connect 14 2 12 0;#P connect 12 0 13 0;#P connect 13 0 15 1;#P connect 2 0 9 1;#P connect 1 0 28 0;#P connect 26 0 21 0;#P connect 30 0 26 0;#P connect 18 1 16 1;#P connect 25 0 16 1;#P connect 16 0 19 0;#P connect 19 0 22 0;#P connect 22 0 23 0;#P fasten 14 3 23 0 538 479 462 606 481 655;#P connect 23 0 26 1;#P connect 20 1 19 1;#P fasten 23 1 22 1 427 723 493 711 513 676 498 655 459 644;#P fasten 14 4 22 1 506 441 452 578 423 615;#P connect 15 0 24 0;#P fasten 15 0 27 0 580 465;#P pop;#P newobj 592 457 44 196617 p lookup;#P newex 648 151 342 196617 osc-route /lookup /add /clear /number-of-jToops /draw /store /write /update /mode /listlength /ali.mtr /read /matrix /interpolate /draw-2D;#P message 721 455 289 196617 /matrix jit_matrix $0jit-mixer-space;#N vpatcher 57 44 1224 832;#P origin 0 9;#P button 189 90 15 0;#P message 292 446 83 196617 /*/recolor bang;#P newex 612 583 40 196617 sel 0 1;#P inlet 936 31 15 0;#P newex 71 85 91 196617 jit.gl.render jenga;#P outlet 928 730 15 0;#P newex 39 329 27 196617 b;#P message 627 627 145 196617 drawto $0jit-mixer-3D-draw;#P newex 524 655 232 196617 jit.matrix $0jit-mixer-3D-draw 4 char 500 500;#P newex 538 552 45 196617 loadbang;#P newex 609 64 45 196617 loadbang;#P message 500 513 83 196617 /*/recolor bang;#P newex 828 55 27 196617 - 1;#P newex 1028 169 49 196617 zl slice 9;#P newex 828 102 210 196617 jit.matrix $0jit-mixer-points 9 float32 128;#P message 828 80 53 196617 getcell \$1;#P number 543 89 35 9 0 0 0 3 0 0 0 221 221 221 222 222 222 0 0 0;#P newex 535 323 79 196617 sprintf set /%d;#P newex 413 499 27 196617 t b l;#P newex 396 66 28 196617 t b b;#P newex 300 41 340 196617 osc-route /matrix /render /reset /recolor /draw-matrix.voi /n-jToops;#P newex 866 648 219 196617 jit.matrix $0temp3 4 float32 16 16 @interp 1;#P newex 866 676 111 196617 jit.op @op / @val 255.;#P outlet 858 738 15 0;#P newex 867 700 74 196617 jit.a.normalize;#P newex 298 75 34 196617 zl reg;#P newex 444 89 28 196617 t b b;#P newex 633 247 40 196617 t l l l;#P newex 864 385 53 196617 jit.pack 4;#P newex 1017 349 53 196617 zl group 3;#P newex 1017 329 27 196617 int;#P newex 1017 283 25 196617 iter;#P newex 1017 306 85 196617 zmap 0. 1. 0 255;#P newex 941 616 34 196617 zl reg;#P newex 965 593 27 196617 t l l;#P newex 965 567 62 196617 jit.op @op +;#P newex 965 509 63 196617 jit.op @op *;#P message 1017 377 139 196617 setcell 0 0 val 255 \$1 \$2 \$3;#P newex 1017 402 145 196617 jit.matrix $0temp1 4 char 1 1;#P newex 1017 448 205 196617 jit.matrix $0temp2 4 char 16 16 @interp 1;#P newex 538 576 39 196617 t clear;#P newex 390 342 27 196617 t b i;#P newex 390 321 40 196617 change;#P button 141 229 15 0;#P message 612 607 139 196617 drawto $0jit-mixer_window;#P message 179 41 115 196617 jit_matrix $0jit-mixer;#P message 344 422 83 196617 /*/recolor bang;#P comment 369 448 89 196617 a way of talking to;#P comment 674 211 211 196617 isolate one dimension of the n x n x m matrix;#P newex 564 475 52 196617 prepend ?;#P newex 457 445 70 196617 OSC-to-poly~;#P newex 133 468 70 196617 poly~-control;#P comment 733 449 164 196617 convert n x n x 1 to n x n;#P newex 488 367 52 196617 prepend ?;#P newex 573 355 115 196617 sprintf set /%d/matrix;#P newex 498 227 40 196617 t b i i;#P newex 407 367 75 196617 prepend voices;#N vpatcher 229 169 1149 620;#P inlet 650 130 15 0;#P message 543 290 14 196617 1;#P toggle 609 292 15 0;#P message 609 312 44 196617 axes \$1;#P toggle 520 293 15 0;#P message 520 313 85 196617 poly_mode \$1 \$1;#P user ubumenu 542 163 84 196617 0 1 1 0;#X add points;#X add lines;#X add line_strip;#X add line_loop;#X add triangles;#X add tri_strip;#X add tri_fan;#X add quads;#X add quad_strip;#X add polygon;#X add tri_grid;#X add quad_grid;#X prefix_set 0 0 <none> 0;#P comment 559 210 100 196617 other draw prims;#P message 478 294 20 196617 75;#P newex 688 211 45 196617 loadbang;#P message 439 313 70 196617 lens_angle \$1;#P flonum 439 294 35 9 0 0 0 3 0 0 0 221 221 221 222 222 222 0 0 0;#P message 444 164 52 196617 quad_grid;#P message 191 280 249 196617 lookat 0 0 1 \, camera 0. 3 0 \, color 1. 1. 1. 0.5 \, erase_color 0. 0. 0. 1. \, depth_enable 1 \, usetexture 0;#P outlet 183 391 15 0;#P fasten 1 0 0 0 196 284 188 284;#P fasten 4 0 0 0 444 355 188 355;#P fasten 2 0 0 0 449 251 188 251;#P fasten 8 1 0 0 584 253 188 253;#P connect 9 0 0 0;#P connect 11 0 0 0;#P connect 5 0 1 0;#P connect 6 0 3 0;#P connect 3 0 4 0;#P connect 5 0 2 0;#P connect 5 0 6 0;#P connect 13 0 10 0;#P connect 10 0 9 0;#P connect 5 0 13 0;#P connect 13 0 12 0;#P connect 12 0 11 0;#P pop;#P newobj 141 253 44 196617 p init-gl;#P newex 204 409 70 196617 OSC-to-poly~;#P newex 204 468 263 196617 poly~ jToop.draw-matrix.voi 1 args $0jit-mixer-points;#P newex 602 446 128 196617 jit.matrix 1 float32 16 16;#P newex 518 285 79 196617 t b b i i b i;#P newex 693 85 27 196617 - 1;#P message 693 133 65 196617 splitpoint \$1;#P newex 617 222 42 196617 jit.split;#P newex 298 120 66 196617 t b b 0 l l;#P newex 532 174 34 196617 zl reg;#P newex 398 230 45 196617 pack 1 1;#P newex 609 91 31 196617 t 2 3;#P number 741 71 35 9 0 0 0 3 0 0 0 221 221 221 222 222 222 0 0 0;#P message 741 108 65 196617 splitpoint \$1;#P message 609 118 59 196617 splitdim \$1;#P newex 644 190 42 196617 jit.split;#P newex 479 259 40 196617 uzi;#P newex 442 203 65 196617 unpack 1 1 1;#P inlet 298 19 15 0;#P newex 398 256 62 196617 prepend dim;#P newex 316 182 199 196617 route planecount type dim;#P newex 316 161 70 196617 jit.matrixinfo;#P comment 100 288 97 196617 erase \, then bang to send the geometry \, then bang to swap display buffer.;#P message 23 561 32 196617 reset;#P comment 34 591 154 196617 the window is made in here. drag in window to rotate the rendered geometry. hit 'esc' to toggle fullscreen mode.;#N vpatcher 510 255 1116 609;#P inlet 103 37 15 0;#P newex 104 69 27 196617 gate;#P inlet 8 72 15 0;#P newex 13 183 37 196617 == 0;#P toggle 353 251 15 0;#P message 353 270 75 196617 auto_rotate \$1;#P newex 104 138 27 196617 t i i;#P flonum 262 250 35 9 0 0 0 3 0 0 0 221 221 221 222 222 222 0 0 0;#P message 262 270 51 196617 radius \$1;#P flonum 195 250 35 9 0 0 0 3 0 0 0 221 221 221 222 222 222 0 0 0;#P message 195 270 60 196617 tracking \$1;#P newex 11 291 490 196617 jit.gl.handle $0jit-mixer_window @inherit_transform 1 @depth_enable 1 @tracking 1 @radius 1.414;#P message 13 204 93 196617 \; jit menubar \$1;#P outlet 11 321 15 0;#P newex 104 95 50 196617 select 27;#P newex 150 30 40 196617 key;#P newex 121 183 91 196617 prepend fullscreen;#P newex 121 204 329 196617 jit.window $0jit-mixer_window @rect 10 50 200 200 @depthbuffer 1;#P comment 11 255 178 196617 inherit_transform is important here \, since we are controlling jit.gl.render;#P toggle 104 118 15 0;#P fasten 9 0 8 0 200 285 16 285;#P fasten 11 0 8 0 267 288 16 288;#P fasten 14 0 8 0 358 288 16 288;#P connect 17 0 8 0;#P connect 8 0 6 0;#P fasten 13 0 16 0 109 169 18 169;#P connect 16 0 7 0;#P connect 19 0 18 0;#P connect 18 0 5 0;#P connect 5 0 0 0;#P connect 0 0 13 0;#P connect 4 0 18 1;#P connect 13 1 3 0;#P connect 3 0 2 0;#P connect 10 0 9 0;#P connect 12 0 11 0;#P connect 15 0 14 0;#P pop;#P newobj 24 645 115 196617 p window-mouse-rotate;#P toggle 34 195 15 0;#P newex 34 220 55 196617 qmetro 50;#P newex 34 288 55 196617 t b b erase;#P message 204 278 159 196617 plane 0 \, 0 0 1 1 \, plane 1 \, 0 1 0 1;#P newex 204 322 183 196617 jit.matrix $0small 2 float32 2 2;#P newex 204 301 103 196617 jit.fill $0small;#P newex 204 682 252 196617 jit.gl.render $0jit-mixer_window;#P comment 203 216 97 196617 order of planes for geometry matrix: x \, y \, z \, s \, t \, nx \, ny \, nz \, a \, r \, g \, b \, edges;#P comment 443 413 89 196617 default draw prim;#P newex 204 364 59 196617 prepend /*;#N coll $0-colors 1;#P newobj 465 605 82 196617 coll $0-colors 1;#P newex 465 576 70 196617 prepend store;#P fasten 75 0 14 0 120 207;#P connect 14 0 12 0;#P fasten 74 1 11 0 352 99 39 167;#P connect 11 0 10 0;#P connect 10 0 9 0;#P connect 9 0 88 0;#P fasten 11 0 12 1 21 222 21 490;#P connect 75 1 51 0;#P connect 51 0 37 0;#P connect 29 0 8 0;#P connect 8 0 6 0;#P connect 6 0 7 0;#P connect 18 0 2 0;#P connect 9 1 2 0;#P connect 7 0 2 0;#P connect 2 0 36 0;#P connect 41 0 36 0;#P connect 38 0 35 0;#P connect 43 0 35 0;#P connect 36 0 35 0;#P connect 88 1 5 0;#P connect 87 0 5 0;#P fasten 12 0 5 0 29 674 209 674;#P connect 9 2 5 0;#P connect 37 0 5 0;#P connect 50 0 5 0;#P connect 35 0 5 0;#P connect 94 0 69 0;#P connect 68 0 69 0;#P connect 74 0 69 0;#P connect 49 0 29 0;#P connect 69 0 29 0;#P connect 19 0 74 0;#P connect 29 3 16 0;#P connect 16 0 17 0;#P connect 53 0 48 0;#P connect 68 1 48 0;#P connect 39 1 52 0;#P connect 52 0 53 0;#P connect 74 2 75 0;#P connect 20 0 27 0;#P connect 27 0 18 0;#P connect 53 1 38 0;#P connect 35 2 76 0;#P connect 20 1 27 1;#P connect 17 2 20 0;#P connect 74 3 68 0;#P connect 93 0 44 0;#P connect 83 0 44 0;#P connect 45 0 44 0;#P fasten 74 4 44 0 588 88 770 66 866 131 900 188 798 347 672 384 629 428 497 425;#P connect 44 0 35 1;#P connect 76 1 0 0;#P connect 54 0 1 0;#P connect 0 0 1 0;#P fasten 29 1 21 0 303 205 378 250 484 250;#P connect 33 0 41 0;#P connect 77 0 41 0;#P fasten 74 5 39 0 578 200;#P connect 39 2 21 1;#P connect 21 2 33 0;#P fasten 88 0 86 0 117 541;#P connect 33 1 28 0;#P connect 33 3 77 0;#P connect 85 0 54 0;#P connect 74 5 78 0;#P connect 29 4 28 1;#P connect 40 0 45 0;#P connect 34 0 45 0;#P connect 33 3 40 0;#P connect 18 0 34 0;#P connect 67 0 34 0;#P connect 84 0 26 0;#P connect 26 0 23 0;#P connect 91 0 92 0;#P connect 92 0 50 0;#P connect 23 0 30 0;#P connect 22 0 30 0;#P fasten 31 0 30 0 698 156 622 156;#P connect 92 1 87 0;#P connect 30 1 67 0;#P connect 28 0 22 0;#P fasten 24 0 22 0 746 156 649 156;#P fasten 23 0 22 0 614 156 649 156;#P connect 25 0 32 0;#P connect 32 0 31 0;#P connect 26 1 25 0;#P connect 33 2 25 0;#P connect 25 0 24 0;#P connect 33 5 82 0;#P connect 82 0 79 0;#P connect 79 0 80 0;#P connect 70 0 71 0;#P connect 67 1 66 0;#P connect 18 0 73 0;#P connect 61 0 73 0;#P connect 73 0 72 0;#P connect 72 0 70 0;#P connect 67 1 66 1;#P connect 67 1 66 2;#P connect 67 1 66 3;#P connect 86 0 89 0;#P fasten 21 1 61 0 555 384;#P connect 66 0 58 0;#P connect 58 0 59 0;#P connect 59 0 60 0;#P connect 60 0 61 1;#P connect 81 1 63 0;#P connect 63 0 62 0;#P connect 62 0 64 0;#P connect 64 0 65 0;#P connect 65 0 57 0;#P connect 57 0 56 0;#P fasten 33 4 56 0 974 337;#P connect 18 0 55 0;#P connect 56 0 55 0;#P fasten 60 1 59 1 1073 633 1090 571 1028 555;#P fasten 29 2 59 1 887 297 954 538;#P connect 55 0 58 1;#P connect 80 1 81 0;#P pop;#P newobj 721 516 69 196617 p draw-space;#P comment 1289 113 212 196617 /number-of-toops: int \, total number of toops;#P comment 1289 79 115 196617 /lookup: list of int: x \, y;#P inlet 649 45 15 0;#P comment 1289 95 195 196617 /add: list: toop # \, dim \, amp \, std \, x0 \, y0;#P comment 221 11 76 472055817 ___mode____;#B color 13;#P comment 25 577 30 472055817 stop;#P user panel 6 639 384 37;#X brgb 255 241 43;#X frgb 0 0 0;#X border 0;#X rounded 0;#X shadow 0;#X done;#P user panel 6 557 114 82;#X brgb 255 187 43;#X frgb 0 0 0;#X border 0;#X rounded 0;#X shadow 0;#X done;#P user panel 273 557 245 119;#X brgb 255 197 75;#X frgb 0 0 0;#X border 0;#X rounded 0;#X shadow 0;#X done;#P user panel 120 556 153 85;#X brgb 255 224 141;#X frgb 0 0 0;#X border 0;#X rounded 0;#X shadow 0;#X done;#P user panel 8 7 510 37;#X brgb 255 201 59;#X frgb 0 0 0;#X border 0;#X rounded 0;#X shadow 0;#X done;#P user jit.pwindow 4 43 514 514 0 1 0 0 1 0;#P objectname lookup-matrix;#P user pictslider 6 44 512 512 4 4 4 4 SliderDefaultKnob.pct 1 blank.jToop.space.jpeg 1 2163 0 0 8323199 1. 1.;#P objectname lookup-pictslider;#P hidden connect 103 0 0 0;#P hidden connect 80 0 79 0;#P hidden connect 83 0 79 0;#P hidden connect 75 0 52 0;#P connect 145 0 75 0;#P hidden connect 72 0 69 0;#P hidden connect 69 0 73 0;#P hidden connect 69 0 70 0;#P hidden connect 78 0 77 0;#P hidden connect 69 0 71 0;#P hidden connect 74 0 58 0;#P hidden connect 77 1 83 0;#P hidden connect 74 1 56 0;#P hidden connect 74 2 57 0;#P hidden connect 74 3 45 0;#P hidden connect 74 4 47 0;#P hidden connect 74 5 87 0;#P hidden connect 16 0 74 0;#P hidden connect 17 2 74 1;#P hidden connect 58 0 74 1;#P hidden connect 17 1 116 0;#P hidden connect 16 1 74 2;#P hidden connect 85 0 97 0;#P hidden connect 34 0 28 0;#P hidden connect 35 0 44 0;#P hidden fasten 26 0 33 0 245 55 566 55;#P hidden fasten 27 0 33 0 271 52 566 52;#P hidden connect 36 0 44 1;#P hidden connect 37 0 44 2;#P fasten 15 13 143 0 693 277 583 323;#P hidden connect 62 0 44 3;#P hidden connect 16 0 22 0;#P connect 147 0 102 0;#P connect 102 0 16 0;#P hidden connect 64 0 44 4;#P hidden connect 44 2 25 0;#P connect 102 1 103 0;#P hidden connect 82 0 16 1;#P fasten 15 14 118 0 699 292;#P connect 118 0 114 0;#P hidden connect 16 1 88 0;#P connect 143 1 111 0;#P connect 111 0 16 2;#P connect 143 0 16 2;#P connect 112 0 15 0;#P connect 91 0 15 0;#P connect 10 0 15 0;#P hidden connect 28 0 15 0;#P hidden connect 33 0 15 0;#P hidden connect 44 1 15 0;#P connect 46 0 15 0;#P hidden connect 97 0 15 0;#P connect 20 0 15 0;#P connect 15 0 147 0;#P connect 13 0 142 0;#P fasten 29 4 101 0 1071 420 995 506 808 572;#P connect 15 1 17 0;#P connect 124 0 24 0;#P connect 114 0 115 0;#P fasten 32 1 14 0 1039 387 1019 440 964 449 869 435 777 447 739 439;#P connect 115 0 14 0;#P connect 14 0 13 0;#P fasten 15 4 13 0 775 431;#P connect 13 0 21 0;#P connect 82 0 17 1;#P connect 15 3 43 0;#P connect 17 1 115 1;#P connect 125 0 24 1;#P hidden fasten 44 0 24 2 554 679 768 679;#P connect 15 2 18 0;#P fasten 29 1 21 1 883 511;#P connect 159 0 155 0;#P connect 155 0 156 0;#P connect 156 0 13 1;#P connect 43 0 82 0;#P connect 82 0 84 0;#P connect 17 0 95 0;#P connect 18 0 95 0;#P connect 29 0 95 0;#P connect 19 0 95 0;#P connect 84 0 95 0;#P connect 126 0 161 0;#P connect 127 0 160 0;#P connect 146 2 18 1;#P connect 18 2 146 0;#P connect 158 0 159 0;#P connect 126 0 129 0;#P connect 129 0 130 0;#P connect 131 0 130 0;#P connect 136 0 130 0;#P connect 15 5 19 0;#P connect 127 0 129 1;#P fasten 29 3 127 0 990 487;#P connect 15 7 32 0;#P connect 128 1 129 2;#P connect 15 6 29 0;#P connect 29 2 30 0;#P connect 31 0 30 0;#P connect 18 1 30 0;#P connect 32 0 29 1;#P connect 153 0 148 0;#P fasten 13 1 148 0 785 638;#P fasten 156 1 157 0 802 636 953 730;#P connect 132 0 149 0;#P connect 149 0 131 0;#P fasten 136 1 135 0 1164 642 1226 642 1226 502 1004 502;#P connect 135 0 136 0;#P connect 157 0 150 0;#P connect 150 0 151 0;#P connect 152 0 153 0;#P connect 151 0 153 0;#P connect 149 1 157 1;#P fasten 15 11 29 2 983 259;#P connect 150 1 152 0;#P connect 15 12 90 0;#P connect 107 0 92 0;#P connect 90 0 92 0;#P connect 92 0 104 0;#P connect 135 1 136 1;#P connect 15 8 31 0;#P connect 94 0 105 0;#P connect 133 0 136 2;#P connect 141 0 138 0;#P connect 138 0 108 0;#P connect 107 0 94 0;#P connect 90 1 94 0;#P connect 93 0 106 0;#P connect 100 0 53 0;#P connect 15 9 53 0;#P connect 53 0 96 0;#P connect 96 0 137 0;#P connect 99 0 100 0;#P connect 53 0 42 0;#P connect 134 0 136 3;#P connect 107 0 93 0;#P connect 90 2 93 0;#P connect 39 0 100 1;#P fasten 15 10 136 4 1200 336 1200 574;#P connect 144 0 39 0;#P connect 39 1 98 0;#P connect 98 0 99 0;#P pop;