max v2;#N vpatcher 0 44 1440 864;#P window setfont "Sans Serif" 9.;#P window linecount 1;#P hidden message 721 727 33 196617 clear;#P hidden newex 922 633 124 196617 ali.listitem-change 9 1. 1;#P hidden newex 601 654 51 196617 pack 1 1.;#P hidden newex 601 542 61 196617 unpack 1 1.;#P hidden message 1000 319 31 196617 5. 1.;#P user function 1122 370 1357 771 1 1 0 0;#X frgb 82 82 82;#X brgb 204 204 204;#X rgb2 85 85 85;#X rgb3 255 255 255;#X rgb4 0 0 0;#X rgb5 0 0 0;#X add 0. 0. 0;#X add 1.838565 0.159574 0;#X add 3.766816 0.37234 0;#X add 4.484305 0.611702 0;#X add 5. 1. 0;#X add 6.143498 2.074468 0;#X add 7.040359 3.164894 0;#X add 8.878924 6.010638 0;#X add 10. 10. 0;#X domain 10.;#X range 0. 10.;#X done;#P window setfont "Gill Sans" 9.;#P number 266 380 17 9 1 50 35 4242 0 0 0 221 221 221 222 222 222 0 0 0;#P objectname updateinterval[8];#P number 250 380 17 9 1 50 35 4242 0 0 0 221 221 221 222 222 222 0 0 0;#P objectname updateinterval[7];#P number 234 380 17 9 1 50 35 4242 0 0 0 221 221 221 222 222 222 0 0 0;#P objectname updateinterval[6];#P number 218 380 17 9 1 50 35 4242 0 0 0 221 221 221 222 222 222 0 0 0;#P objectname updateinterval[5];#P number 202 380 17 9 1 50 35 4242 0 0 0 221 221 221 222 222 222 0 0 0;#P objectname updateinterval[4];#P number 186 380 17 9 1 50 35 4242 0 0 0 221 221 221 222 222 222 0 0 0;#P objectname updateinterval[3];#P number 170 380 17 9 1 50 35 4242 0 0 0 221 221 221 222 222 222 0 0 0;#P objectname updateinterval[2];#P number 154 380 17 9 1 50 35 4242 0 0 0 221 221 221 222 222 222 0 0 0;#P objectname updateinterval[1];#P number 138 380 17 9 1 50 35 4242 0 0 0 221 221 221 222 222 222 0 0 0;#P objectname updateinterval;#P hidden inlet 540 35 15 0;#P window setfont "Sans Serif" 9.;#P hidden newex 553 56 118 196617 route 1 2 3 4 5 6 7 8;#P hidden newex 566 32 156 196617 OSC-route /go /gain /fade /var;#P hidden newex 764 485 141 196617 ali.listitem-change.pat 9 1. 1;#P hidden message 764 509 163 196617 target \$1 \, mode migrator fade \$2;#P window setfont "Gill Sans" 9.;#P comment 283 278 20 278003721 fade;#P user multiSlider 136 261 147 32 0. 1. 9 2937 32 0 1 1 0 0 0;#M frgb 83 83 83;#M brgb 190 190 190;#M rgb2 127 127 127;#M rgb3 0 0 0;#M rgb4 37 52 91;#M rgb5 74 105 182;#M rgb6 112 158 18;#M rgb7 149 211 110;#M rgb8 187 9 201;#M rgb9 224 62 37;#M rgb10 7 114 128;#P window setfont "Sans Serif" 9.;#P hidden newex 602 479 141 196617 ali.listitem-change.pat 9 1. 1;#P hidden message 668 752 160 196617 target \$1 \, mode migrator var \$2;#P window setfont "Gill Sans" 9.;#P comment 285 312 20 278003721 var;#P user multiSlider 136 294 147 32 0. 10. 9 2937 32 0 1 1 0 0 0;#M frgb 83 83 83;#M brgb 190 190 190;#M rgb2 127 127 127;#M rgb3 0 0 0;#M rgb4 37 52 91;#M rgb5 74 105 182;#M rgb6 112 158 18;#M rgb7 149 211 110;#M rgb8 187 9 201;#M rgb9 224 62 37;#M rgb10 7 114 128;#P window setfont "Sans Serif" 9.;#N vpatcher 10 59 610 459;#P window setfont "Sans Serif" 9.;#P newex 57 50 58 196617 unpack 1 1;#P message 50 87 124 196617 target \$1 \, transform-gui;#P inlet 57 30 15 0;#P outlet 50 107 15 0;#P connect 3 0 2 0;#P connect 2 0 0 0;#P connect 1 0 3 0;#P pop;#P hidden newobj 301 509 58 196617 p trans gui;#N vpatcher 10 59 610 459;#P window setfont "Sans Serif" 9.;#P newex 89 124 51 196617 pack 1 1.;#P message 92 148 171 196617 target \$1 \, env \$2 \, gain \$2 \, gain \$2;#P newex 83 72 58 196617 unpack 1 1;#P newex 50 50 43 196617 route 0;#P inlet 50 30 15 0;#P outlet 92 168 15 0;#P connect 1 0 2 0;#P connect 2 1 3 0;#P connect 3 0 5 0;#P connect 5 0 4 0;#P connect 4 0 0 0;#P connect 3 1 5 1;#P pop;#P hidden newobj 112 509 34 196617 p env;#N vpatcher 10 59 610 459;#P window setfont "Sans Serif" 9.;#P newex 63 179 43 196617 pipe 20;#P newex 50 210 49 196617 append 1;#P message 130 154 105 196617 target \$1 \, go noteoff;#P newex 137 107 52 196617 route 0 1;#P newex 136 81 37 196617 zl rev;#P newex 113 50 43 196617 route 0;#P inlet 113 30 15 0;#P outlet 158 129 15 0;#P outlet 130 174 15 0;#P outlet 50 232 15 0;#P connect 9 0 8 0;#P connect 8 0 0 0;#P connect 6 1 9 0;#P connect 3 0 4 0;#P connect 6 0 7 0;#P connect 7 0 1 0;#P connect 4 1 5 0;#P connect 5 0 6 0;#P connect 6 1 2 0;#P pop;#P hidden newobj 14 509 40 196617 p go;#P window setfont "Gill Sans" 9.;#P comment 283 245 33 278003721 gains;#P window setfont "Sans Serif" 9.;#P hidden newex 128 627 61 196617 listfunnel 1;#P hidden message 131 666 99 196617 target \$1 \, gain2 \$2;#P user multiSlider 136 228 147 32 0. 1. 9 2937 32 0 1 1 0 0 0;#M frgb 83 83 83;#M brgb 190 190 190;#M rgb2 127 127 127;#M rgb3 0 0 0;#M rgb4 37 52 91;#M rgb5 74 105 182;#M rgb6 112 158 18;#M rgb7 149 211 110;#M rgb8 187 9 201;#M rgb9 224 62 37;#M rgb10 7 114 128;#P hidden message 449 512 133 196617 target \$1 \, output_spect \$2;#P hidden newex 431 483 131 196617 funnel 10;#P window setfont "Gill Sans" 9.;#P window linecount 2;#P comment 283 325 39 278003721 show spect;#P toggle 266 327 17 0;#P toggle 250 327 17 0;#P toggle 234 327 17 0;#P toggle 218 327 17 0;#P toggle 202 327 17 0;#P toggle 186 327 17 0;#P toggle 170 327 17 0;#P toggle 154 327 17 0;#P toggle 138 327 17 0;#P window setfont "Sans Serif" 9.;#P window linecount 1;#P hidden newex 40 56 118 196617 route 1 2 3 4 5 6 7 8;#P hidden newex 541 83 62 196617 prepend set;#P window setfont "Gill Sans" 9.;#P comment 283 212 21 278003721 env;#P window setfont "Sans Serif" 9.;#P hidden newex 112 466 131 196617 funnel 10;#P toggle 265 210 17 0;#P toggle 249 210 17 0;#P toggle 233 210 17 0;#P toggle 217 210 17 0;#P toggle 201 210 17 0;#P toggle 185 210 17 0;#P toggle 169 210 17 0;#P toggle 153 210 17 0;#P toggle 137 210 17 0;#P hidden newex 404 54 27 196617 t l b;#P hidden button 265 88 17 0;#P hidden button 249 88 17 0;#P hidden button 233 88 17 0;#P hidden button 217 88 17 0;#P hidden button 201 88 17 0;#P hidden button 185 88 17 0;#P hidden button 169 88 17 0;#P hidden button 153 88 17 0;#P window setfont "Gill Sans" 9.;#P hidden comment 283 89 34 278003721 store;#P hidden button 137 88 17 0;#P window setfont "Sans Serif" 9.;#P hidden message 456 391 30 196617 next;#P button 119 160 17 0;#P objectname analyze;#P hidden newex 634 149 40 196617 t dump;#P hidden newex 634 128 155 196617 r $4-many;#P hidden outlet 474 683 15 0;#P hidden newex 456 363 86 196617 pvar sendToNext;#P window linecount 3;#P hidden comment 1075 131 50 196617 send to next voice;#P window linecount 1;#P hidden newex 693 449 27 196617 t b i;#P hidden newex 404 83 37 196617 zl rev;#P hidden newex 404 104 58 196617 unpack 1 1;#P hidden button 866 174 15 0;#P hidden newex 543 184 48 196617 pack 1 1;#P hidden newex 791 173 49 196617 t dump 2;#P hidden message 801 539 124 196617 target \$1 \, transform-gui;#P hidden newex 787 325 58 196617 unpack 1 1;#P hidden newex 787 349 32 196617 sel 1;#P hidden newex 787 449 27 196617 int;#P hidden newex 693 325 58 196617 unpack 1 1;#P hidden newex 710 227 49 196617 t dump 1;#P hidden newex 573 295 40 196617 gate 3;#P hidden newex 573 265 48 196617 pack 1 1;#P hidden newex 791 129 80 196617 pvar transform;#P button 119 194 17 0;#P objectname transform;#P hidden newex 373 145 118 196617 gate 9;#P hidden newex 285 484 131 196617 funnel 10;#P toggle 265 160 17 0;#P button 265 194 17 0;#P user led 265 177 17 17 0 150;#P toggle 249 160 17 0;#P button 249 194 17 0;#P user led 249 177 17 17 0 150;#P toggle 233 160 17 0;#P button 233 194 17 0;#P user led 233 177 17 17 0 150;#P toggle 217 160 17 0;#P button 217 194 17 0;#P user led 217 177 17 17 0 150;#P toggle 201 160 17 0;#P button 201 194 17 0;#P user led 201 177 17 17 0 150;#P toggle 185 160 17 0;#P button 185 194 17 0;#P user led 185 177 17 17 0 150;#P toggle 169 160 17 0;#P button 169 194 17 0;#P user led 169 177 17 17 0 150;#P toggle 153 160 17 0;#P button 153 194 17 0;#P user led 153 177 17 17 0 150;#P hidden user matrixctrl 137 115 146 18 MatrixDefaultCell.pct MatrixDefaultBkgnd.pct 146 18 16 16 9 1 16 16 1 1 48 2 5120 0;#P objectname matrix;#P hidden newex 693 426 27 196617 + 1;#P hidden newex 14 447 131 196617 funnel 10;#P toggle 137 160 17 0;#P hidden newex 404 30 113 196617 route busy sendToNext;#P hidden inlet 387 30 15 0;#P hidden outlet 364 689 15 0;#P hidden newex 693 358 32 196617 sel 1;#P hidden newex 693 388 27 196617 int;#P hidden newex 543 128 65 196617 pvar matrix;#P hidden newex 710 198 68 196617 pvar analyze;#P hidden newex 543 162 67 196617 unpack 1 1 1;#N coll ;#P hidden newobj 584 216 53 196617 coll;#P window setfont "Gill Sans" 9.;#P window linecount 2;#P comment 283 192 50 278003721 show transform;#P window linecount 1;#P comment 283 179 31 278003721 busy;#P button 137 194 17 0;#P user led 137 177 17 17 0 150;#P comment 283 162 18 278003721 go;#P hidden button 1056 118 70 0;#P objectname sendToNext;#P hidden connect 66 0 16 0;#P hidden connect 16 0 108 0;#P hidden connect 15 0 16 1;#P hidden connect 108 0 91 0;#P hidden connect 21 0 16 2;#P hidden connect 24 0 16 3;#P hidden connect 27 0 16 4;#P hidden connect 30 0 16 5;#P hidden connect 33 0 16 6;#P hidden connect 36 0 16 7;#P hidden connect 88 0 109 0;#P hidden connect 39 0 16 8;#P hidden connect 79 0 88 1;#P hidden connect 104 0 106 0;#P hidden connect 42 0 16 9;#P hidden connect 106 0 105 0;#P hidden connect 119 1 104 0;#P hidden connect 119 2 115 0;#P hidden connect 119 3 111 0;#P hidden connect 120 0 15 0;#P hidden connect 44 0 2 0;#P hidden connect 91 0 79 0;#P hidden connect 80 0 88 2;#P hidden connect 81 0 88 3;#P hidden connect 120 1 21 0;#P hidden connect 44 1 19 0;#P hidden connect 91 1 80 0;#P hidden connect 82 0 88 4;#P hidden connect 120 2 24 0;#P hidden connect 44 2 22 0;#P hidden connect 91 2 81 0;#P hidden connect 83 0 88 5;#P hidden connect 120 3 27 0;#P hidden connect 44 3 25 0;#P hidden connect 91 3 82 0;#P hidden connect 84 0 88 6;#P hidden connect 120 4 30 0;#P hidden connect 44 4 28 0;#P hidden connect 91 4 83 0;#P hidden connect 85 0 88 7;#P hidden connect 86 0 88 8;#P hidden connect 120 5 33 0;#P hidden connect 44 5 31 0;#P hidden connect 91 5 84 0;#P hidden connect 87 0 88 9;#P hidden connect 120 6 36 0;#P hidden connect 44 6 34 0;#P hidden connect 91 6 85 0;#P hidden connect 120 7 39 0;#P hidden connect 44 7 37 0;#P hidden connect 91 7 86 0;#P hidden connect 120 8 42 0;#P hidden connect 44 8 40 0;#P hidden connect 91 8 87 0;#P hidden connect 45 0 43 0;#P hidden connect 3 0 43 1;#P hidden connect 43 0 110 0;#P hidden connect 20 0 43 2;#P hidden connect 23 0 43 3;#P hidden connect 26 0 43 4;#P hidden connect 29 0 43 5;#P hidden connect 32 0 43 6;#P hidden connect 117 0 12 0;#P hidden connect 113 0 12 0;#P hidden connect 110 0 12 0;#P hidden connect 109 0 12 0;#P hidden connect 108 1 12 0;#P hidden connect 105 0 12 0;#P hidden connect 54 0 12 0;#P hidden connect 103 0 12 0;#P hidden connect 58 1 44 0;#P hidden connect 35 0 43 7;#P hidden connect 38 0 43 8;#P hidden connect 41 0 43 9;#P hidden connect 13 0 14 0;#P hidden connect 14 0 78 0;#P hidden connect 78 0 59 0;#P hidden connect 59 0 58 0;#P hidden connect 92 0 102 1;#P hidden connect 102 0 103 0;#P hidden connect 14 1 62 0;#P hidden connect 62 0 67 0;#P hidden connect 93 0 102 2;#P hidden connect 94 0 102 3;#P hidden connect 108 2 63 0;#P hidden connect 60 1 63 0;#P hidden connect 67 0 63 0;#P hidden connect 90 0 44 1;#P hidden connect 95 0 102 4;#P hidden connect 96 0 102 5;#P hidden connect 97 0 102 6;#P hidden connect 98 0 102 7;#P hidden connect 99 0 102 8;#P hidden fasten 58 0 90 0 546 76;#P hidden connect 9 0 7 0;#P hidden connect 7 0 56 0;#P hidden connect 100 0 102 9;#P hidden connect 119 0 120 0;#P hidden connect 121 0 119 0;#P hidden connect 6 0 47 0;#P hidden fasten 49 1 48 0 736 253;#P hidden fasten 55 1 48 0 779 250;#P hidden connect 7 2 56 1;#P hidden connect 49 0 6 0;#P hidden connect 65 0 6 0;#P hidden connect 56 0 6 0;#P hidden connect 55 0 6 0;#P connect 114 0 133 0;#P connect 133 0 134 0;#P hidden connect 111 0 114 0;#P hidden connect 47 0 48 1;#P hidden connect 6 1 47 1;#P hidden connect 64 0 65 0;#P connect 131 0 134 1;#P connect 134 0 113 0;#P hidden connect 48 0 50 0;#P hidden connect 50 0 11 0;#P hidden connect 11 0 10 0;#P hidden connect 10 0 17 0;#P hidden connect 17 0 60 0;#P hidden connect 8 0 49 0;#P hidden connect 50 1 10 1;#P hidden connect 115 0 118 0;#P hidden connect 118 0 117 0;#P hidden connect 48 1 53 0;#P hidden connect 53 0 52 0;#P hidden connect 52 0 51 0;#P hidden connect 46 0 55 0;#P hidden connect 51 0 54 0;#P hidden connect 53 1 51 1;#P hidden connect 46 0 57 0;#P connect 136 0 131 0;#P connect 133 1 131 0;#P connect 132 0 131 0;#P pop;