max v2;#N vpatcher 4 44 426 863;#P origin -91 17;#P window setfont "Sans Serif" 9.;#P newex 745 451 76 196617 print frompoly;#P newex 1179 373 86 196617 pvar migOscMult;#B color 14;#P window setfont "Gill Sans" 9.;#P number 219 313 30 9 0 0 0 4242 0 0 0 221 221 221 222 222 222 0 0 0;#P objectname migOscMult;#P window setfont "Sans Serif" 9.;#P newex 718 476 69 196617 print topoly~;#P window setfont "Gill Sans" 9.;#P comment 29 189 26 278003721 now!;#P window setfont "Gill Sans" 12.;#P comment 130 234 53 278003724 ( for all );#P window setfont "Gill Sans" 20.;#P comment 270 306 122 278003732 .. m i g r a t e;#P comment 293 229 88 278003732 .. s l i d e;#P window setfont "Gill Sans" 9.;#P comment 226 293 21 278003721 low;#P comment 229 252 15 278003721 hi;#P window setfont "Sans Serif" 9.;#P window linecount 10;#P hidden message -102 124 27 196617 setslotlabels current down up \, fontsize 7;#P window linecount 1;#P newex 1135 311 61 196617 pvar hifreq;#B color 14;#P newex 1112 292 69 196617 pvar lowfreq;#B color 14;#P window setfont "Gill Sans" 9.;#P number 207 265 52 9 0 0 0 4242 0 0 0 221 221 221 222 222 222 0 0 0;#P objectname hifreq;#P number 207 279 52 9 0 0 0 4242 0 0 0 221 221 221 222 222 222 0 0 0;#P objectname lowfreq;#P window setfont "Sans Serif" 9.;#P newex 1093 274 47 196617 pvar dir;#B color 14;#P user jsui 283 260 93 36 0 0 0 ali.radio.js 28;#P objectname dir;#P toggle 988 528 15 0;#P newex 892 526 89 196617 ali.pe from-poly~;#P window setfont "Gill Sans" 9.;#P user umenu 59 209 100 278003751 1 64 223 1;#X add norm / slide;#X add migrate;#P objectname type;#P window setfont "Gill Sans" 20.;#P comment 207 365 146 278003732 .. e n v e l o p e;#P window setfont "Sans Serif" 9.;#P newex 1101 441 88 196617 unpack 1. 1. 1. 1.;#P newex 1173 491 60 196617 pvar adsrR;#B color 14;#P newex 1162 510 60 196617 pvar adsrS;#B color 14;#P newex 1151 529 60 196617 pvar adsrD;#B color 14;#P newex 1140 548 61 196617 pvar adsrA;#B color 14;#P newex 1168 352 54 196617 pvar adsr;#B color 14;#P user multiSlider 225 393 151 60 0. 1. 4 2937 47 0 1 2 0 0 0;#M frgb 83 83 83;#M brgb 173 173 173;#M rgb2 127 127 127;#M rgb3 0 0 0;#M rgb4 37 52 91;#M rgb5 74 105 182;#M rgb6 112 158 18;#M rgb7 149 211 110;#M rgb8 187 9 201;#M rgb9 224 62 37;#M rgb10 7 114 128;#P objectname adsr;#P button 1339 503 15 0;#P newex 1152 329 73 196617 pvar envelope;#B color 14;#P user led 207 393 17 17 0 150;#P objectname envelope;#N coll $0iana-par-env 1;#P newobj 1397 621 110 196617 coll $0iana-par-env 1;#P newex 1397 598 77 196617 stream-to-coll;#P comment 575 554 23 196617 dur;#B color 5;#P user function 1379 444 1479 494 1 1 0 0;#X frgb 82 82 82;#X brgb 204 204 204;#X rgb2 85 85 85;#X rgb3 255 255 255;#X rgb4 0 0 0;#X rgb5 0 0 0;#X add 0. 0. 0;#X add 0.223077 198.412704 0;#X add 0.411538 515.873047 0;#X add 0.584615 1071.428589 0;#X add 0.726923 2023.809692 0;#X add 0.807692 2896.825684 0;#X add 0.857692 3809.523926 0;#X add 0.903846 5238.095703 0;#X add 0.946154 6626.984375 0;#X add 0.976923 8531.746094 0;#X add 0.999585 10000. 0;#X add 1.1 10000. 0;#X domain 1.1;#X range 0. 10000.;#X done;#P objectname env[1];#P newex 1379 529 93 196617 prepend setdomain;#P newex 1379 501 93 196617 pvar envLengthVal;#B color 14;#P newex 1379 421 79 196617 pvar envLength;#B color 14;#P newex 1379 565 59 196617 pvar env 4;#B color 14;#P newex 1339 524 27 196617 b;#P newex 1278 277 75 196617 loadmess 127.;#P hidden newex -58 99 48 196617 loadbang;#P button 810 552 15 0;#P newex 826 583 89 196617 prepend sinusoids;#P newex 826 559 61 196617 route spect;#P newex 1067 250 54 196617 pvar type;#B color 14;#N vpatcher 10 59 610 459;#P window setfont "Sans Serif" 9.;#P hidden newex 187 71 50 196617 del 1000;#P hidden newex 187 50 48 196617 loadbang;#P hidden newex 50 55 80 196617 r ali.pluggo-init;#P newex 133 96 20 196617 t b;#B color 14;#P message 135 126 287 196617 /* transform /init bang \, /* transform spectral-corner 300.;#P inlet 133 76 15 0;#P outlet 135 146 15 0;#P connect 6 0 3 0;#P connect 4 0 3 0;#P connect 1 0 3 0;#P connect 3 0 2 0;#P connect 2 0 0 0;#P hidden connect 5 0 6 0;#P pop;#P newobj 1021 440 33 196617 p init;#N vpatcher 800 295 1434 826;#P window setfont "Sans Serif" 9.;#P number 176 73 35 9 0 0 0 3 0 0 0 221 221 221 222 222 222 0 0 0;#P outlet 293 316 15 0;#P message 324 52 41 196617 var \$1;#P message 242 123 44 196617 fade \$1;#P newex 97 81 30 196617 t 1 f;#P newex 165 170 91 196617 prepend forcefeed;#P newex 50 82 21 196617 t 2;#P newex 63 55 46 196617 route 0.;#P newex 145 140 47 196617 gate 2 1;#P message 372 51 84 196617 nOsc_smooth \$1;#P newex 280 267 130 196617 prepend /* mode migrator;#P inlet 63 35 15 0;#P inlet 324 32 15 0;#P inlet 372 31 15 0;#P connect 6 0 7 0;#P connect 2 0 6 0;#P connect 6 1 9 0;#P connect 9 0 5 0;#P connect 7 0 5 0;#P connect 5 1 8 0;#P connect 9 1 13 0;#P connect 9 1 10 0;#P connect 11 0 3 0;#P connect 10 0 3 0;#P fasten 8 0 3 0 225 215;#P connect 4 0 3 0;#P fasten 5 0 3 0 112 212;#P connect 3 0 12 0;#P connect 1 0 11 0;#P connect 0 0 4 0;#P pop;#P newobj 947 415 70 196617 p to migrator;#P hidden newex 438 238 71 196617 prepend set 1;#P user multiSlider 206 334 86 13 -3. 3. 1 2920 47 0 1 2 0 0 0;#M frgb 10 166 0;#M brgb 173 173 173;#M rgb2 127 127 127;#M rgb3 0 0 0;#M rgb4 37 52 91;#M rgb5 74 105 182;#M rgb6 112 158 18;#M rgb7 149 211 110;#M rgb8 187 9 201;#M rgb9 224 62 37;#M rgb10 7 114 128;#P objectname multiSlider;#P window setfont "Gill Sans" 9.;#P number 293 334 35 9 0 0 0 4242 0 0 0 221 221 221 222 222 222 0 0 0;#P objectname register;#P comment 367 335 21 278003721 #;#P comment 329 335 38 278003721 register;#P window setfont "Sans Serif" 9.;#P hidden newex 438 291 71 196617 prepend set 1;#P hidden newex 438 275 71 196617 prepend set 1;#P hidden newex 438 258 71 196617 prepend set 1;#P window setfont "Gill Sans" 20.;#P comment 259 327 13 278003732 |;#P user scope~ 886 724 986 774 256 3 128 -1. 1. 0 0. 0 0. 102 255 51 135 135 135 0;#P button 806 304 15 0;#P inlet 579 79 15 0;#P outlet 611 676 15 0;#P outlet 642 676 15 0;#P window setfont "Sans Serif" 9.;#P hidden newex 307 792 100 196617 bgcolor 255 253 11;#P toggle 677 54 15 0;#P newex 641 54 34 196617 ali.pe;#P hidden message 504 200 109 196617 displayrange 0 10000;#P button 896 166 15 0;#P bpatcher 195 21 184 32 -27 -54 ali.from-lemur2.pat 0 ali_analresynth;#P objectname lemurin;#P newex 699 55 68 196617 pvar lemurin;#B color 14;#P window setfont "Gill Sans" 9.;#P window linecount 3;#P comment 292 81 13 278003721 GAIN;#B color 5;#P window linecount 4;#P comment 272 81 13 278003721 #OSC;#B color 5;#P window setfont "Sans Serif" 9.;#P window linecount 1;#P newex 826 271 27 196617 - 1;#P newex 825 231 27 196617 + 1;#P newex 826 251 44 196617 pvar go;#B color 14;#P window linecount 4;#P hidden message -74 124 70 196617 setslotlabels now 1 2 3 4 5 6 7 8 9 10 11 12 \, fontsize 9;#P user jsui 27 164 217 27 0 0 0 ali.radio.js 20;#P objectname go;#P window linecount 1;#P newex 1021 415 49 196617 pvar init;#B color 14;#P newex 947 479 72 196617 OSC-to-poly~;#P message 803 609 80 196617 target 1 \, open 1;#P message 469 581 29 196617 stop;#P message 510 581 67 196617 startwindow;#P window setfont "Gill Sans" 9.;#P message 236 209 23 278003721 init;#B color 5;#P objectname init;#P window setfont "Sans Serif" 9.;#P newex 891 58 49 196617 pvar init;#B color 14;#P button 874 59 15 0;#N vpatcher 10 59 898 658;#P origin 0 85;#P inlet 158 160 15 0;#P outlet 189 433 15 0;#P window setfont "Sans Serif" 9.;#P window linecount 1;#P newex 179 348 79 196617 prepend /poly~;#P newex 179 254 48 196617 loadbang;#P newex 179 312 72 196617 OSC-to-poly~;#P window linecount 2;#P message 179 282 373 196617 /* transform spectral-corner 300 \, /* transform cluster-size 1 \, /* transform attenuate 2. \, /* transform spectral-slope 0. \, /* transform gain-scale 1.;#P connect 5 0 2 0;#P connect 2 0 0 0;#P connect 0 0 1 0;#P connect 1 0 3 0;#P connect 3 0 4 0;#P pop;#P newobj 839 58 33 196617 p init;#N vpatcher 10 59 727 593;#P window setfont "Sans Serif" 9.;#P window linecount 1;#P message 301 396 170 196617 target \$1 \, oscbank~ freqsmooth \$1;#P newex 303 354 48 196617 pack 1 1;#P newex 289 230 27 196617 t b i;#P newex 260 275 40 196617 uzi 9;#P outlet 116 458 15 0;#P window linecount 0;#P message 115 396 169 196617 target \$1 \, oscbank~ magsmooth \$1;#P window linecount 1;#P newex 117 354 48 196617 pack 1 1;#P newex 103 230 27 196617 t b i;#P inlet 184 84 15 0;#P newex 151 172 29 196617 gate;#P newex 99 172 29 196617 gate;#P inlet 71 85 15 0;#P inlet 41 85 15 0;#P window linecount 0;#P newex 74 275 40 196617 uzi 9;#P inlet 150 85 15 0;#P connect 7 0 1 0;#P connect 0 0 4 0;#P connect 8 0 9 0;#P connect 14 0 10 0;#P connect 9 0 10 0;#P connect 1 2 8 0;#P connect 2 0 4 1;#P connect 6 0 5 0;#P connect 7 1 8 1;#P connect 3 0 5 1;#P connect 12 0 11 0;#P connect 5 0 12 0;#P connect 13 0 14 0;#P connect 11 2 13 0;#P connect 12 1 13 1;#P pop;#P newobj 1217 415 53 196617 p all;#P newex 1260 347 101 196617 pvar magsmooth_all;#B color 14;#P newex 1271 373 102 196617 pvar freqsmooth_all;#B color 14;#P toggle 325 162 19 0;#P objectname freqsmooth_all;#P toggle 307 162 19 0;#P objectname magsmooth_all;#P number 783 177 35 9 0 0 0 3 0 0 0 221 221 221 222 222 222 0 0 0;#P toggle 677 128 15 0;#P newex 641 128 34 196617 ali.pe;#P message 860 315 62 196617 sendToNext;#P newex 699 128 638 196617 OSC-route /analyze /poly~ /nummidi /go /numosc /eqtemp /magsmoo /freqsmoo /type /gain /fadetime /var /gui;#N vpatcher 20 44 1440 851;#P window setfont "Sans Serif" 9.;#P window linecount 1;#P newex 1255 236 84 196617 vexpr $f1 * 10.;#P newex 1248 188 72 196617 OSC-route /x;#P newex 1097 219 72 196617 OSC-route /x;#P newex 1150 270 89 196617 prepend /gui/var;#P newex 1109 251 92 196617 prepend /gui/fade;#P window linecount 0;#P newex 1027 180 132 196617 ali.listitem-change.pat 8 1.;#P newex 1014 158 132 196617 ali.listitem-change.pat 8 1.;#P newex 970 202 124 196617 ali.lemur.padnum 1 /type;#P newex 888 215 72 196617 prepend /gain;#P newex 762 158 84 196617 OSC-route /gain;#P message 1052 460 35 196617 /go 0;#P newex 1079 416 20 196617 t b;#P newex 1057 382 40 196617 change;#P newex 1057 333 72 196617 OSC-route /x;#P outlet 931 727 15 0;#N vpatcher 183 322 783 722;#P window setfont "Sans Serif" 9.;#P window linecount 1;#P newex 419 146 91 196617 prepend /nummidi;#P newex 296 146 96 196617 prepend /freqsmoo;#P newex 173 146 95 196617 prepend /magsmoo;#P newex 50 146 83 196617 prepend /numosc;#P window linecount 0;#P newex 173 49 82 196617 OSC-route /exp;#P inlet 173 29 15 0;#P newex 359 50 83 196617 OSC-route /x_s;#P newex 260 50 82 196617 OSC-route /exp;#P newex 50 50 83 196617 OSC-route /x_s;#P inlet 359 30 15 0;#P inlet 260 30 15 0;#P inlet 50 30 15 0;#P outlet 50 252 15 0;#P connect 1 0 4 0;#P connect 4 0 9 0;#P connect 9 0 0 0;#P connect 10 0 0 0;#P connect 11 0 0 0;#P connect 12 0 0 0;#P connect 7 0 8 0;#P connect 8 0 10 0;#P connect 2 0 5 0;#P connect 5 0 11 0;#P connect 3 0 6 0;#P connect 6 0 12 0;#P pop;#P newobj 958 333 67 196617 p osc-routes;#P button 517 130 15 0;#P newex 832 335 114 196617 ali.lemur.padnum 0 /go;#P newex 634 263 72 196617 OSC-route /x;#P inlet 283 45 15 0;#P newex 284 270 86 196617 OSC-route /x /z;#N vpatcher 10 59 757 817;#P inlet 160 75 15 0;#P window setfont "Sans Serif" 9.;#P newex 191 377 143 196617 prepend transform gain-scale;#N vpatcher 378 53 1397 783;#P user multiSlider 166 167 288 20 0. 1. 1 2936 47 0 1 2 0 0 0;#M frgb 83 83 83;#M brgb 173 173 173;#M rgb2 127 127 127;#M rgb3 0 0 0;#M rgb4 37 52 91;#M rgb5 74 105 182;#M rgb6 112 158 18;#M rgb7 149 211 110;#M rgb8 187 9 201;#M rgb9 224 62 37;#M rgb10 7 114 128;#P window setfont "Sans Serif" 9.;#P flonum 237 148 35 9 0 0 0 3 0 0 0 221 221 221 222 222 222 0 0 0;#P window linecount 0;#P message 333 130 76 196617 range -1.5 0.1;#P flonum 195 657 35 9 0 0 0 3 0 0 0 221 221 221 222 222 222 0 0 0;#P flonum 532 586 35 9 0 0 0 3 0 0 0 221 221 221 222 222 222 0 0 0;#P outlet 506 615 15 0;#P message 530 59 65 196617 range 0. 10.;#P message 551 117 105 196617 0.5 1. \, 0.4 1. \, 0.6 1.;#P user function 522 168 814 565 1 1 0 0;#X frgb 82 82 82;#X brgb 204 204 204;#X rgb2 85 85 85;#X rgb3 255 255 255;#X rgb4 0 0 0;#X rgb5 0 0 0;#X add 0. 10. 0;#X add 0.055 9.892473 0;#X add 0.090357 9.731183 0;#X add 0.1375 9.327957 0;#X add 0.176786 8.655914 0;#X add 0.204286 8.037635 0;#X add 0.231786 7.177419 0;#X add 0.259286 5.16129 0;#X add 0.294643 2.903226 0;#X add 0.318214 1.989247 0;#X add 0.33 1.505376 0;#X add 0.353571 1.182796 0;#X add 0.4 1. 0;#X add 0.5 1. 0;#X add 0.5 1. 0;#X add 0.5 1. 0;#X add 0.6 1. 0;#X add 0.628571 0.739247 0;#X add 0.652143 0.30914 0;#X add 0.671786 0.147849 0;#X add 0.722857 0.037634 0;#X add 0.848571 0.010753 0;#X add 1. 0. 0;#X add 1.1 0. 0;#X domain 1.1;#X range 0. 10.;#X done;#P outlet 135 660 15 0;#P message 309 97 135 196617 clear \, 0.5 0. \, 0.4 0. \, 0.6 0.;#P user function 171 188 449 614 1 1 0 0;#X frgb 82 82 82;#X brgb 204 204 204;#X rgb2 85 85 85;#X rgb3 255 255 255;#X rgb4 0 0 0;#X rgb5 0 0 0;#X add 0. -1.392519 0;#X add 0.029255 -0.768 0;#X add 0.076064 -0.272 0;#X add 0.122872 -0.18 0;#X add 0.181383 -0.096 0;#X add 0.4 0. 0;#X add 0.5 0. 0;#X add 0.6 0. 0;#X add 0.78985 0.004239 0;#X add 0.893233 0.02818 0;#X add 0.967669 0.05611 0;#X add 1. 0.1 0;#X add 1.1 0.1 0;#X domain 1.1;#X range -1.5 0.1;#X done;#P inlet 271 51 15 0;#P window linecount 1;#P message 334 147 57 196617 0.8 0.05;#P connect 2 0 4 0;#P connect 1 0 13 0;#P connect 1 0 2 0;#P connect 0 0 2 0;#P connect 3 0 2 0;#P connect 11 0 2 0;#P connect 2 0 10 0;#P connect 1 0 12 0;#P connect 5 0 8 0;#P connect 7 0 5 0;#P connect 6 0 5 0;#P connect 1 0 5 0;#P connect 5 0 9 0;#P pop;#P newobj 157 333 41 196617 p scale;#N vpatcher 20 74 682 713;#P window setfont "Sans Serif" 9.;#P newex 74 452 37 196617 zl rev;#P newex 74 493 61 196617 unpack 1. 1;#P newex 75 400 131 196617 funnel 10;#P newex 159 181 52 196617 change 0.;#P newex 144 202 52 196617 change 0.;#P newex 131 224 52 196617 change 0.;#P newex 117 245 52 196617 change 0.;#P newex 104 267 52 196617 change 0.;#P newex 90 288 52 196617 change 0.;#P newex 77 310 52 196617 change 0.;#P newex 63 331 52 196617 change 0.;#P newex 50 353 52 196617 change 0.;#P newex 50 152 148 196617 unpack 1. 1. 1. 1. 1. 1. 1. 1. 1.;#P inlet 50 30 15 0;#P outlet 125 563 15 0;#P outlet 74 563 15 0;#P connect 2 0 3 0;#P connect 3 0 4 0;#P connect 3 1 5 0;#P connect 13 0 15 0;#P connect 15 0 14 0;#P connect 14 0 0 0;#P connect 3 2 6 0;#P connect 4 0 13 1;#P connect 3 3 7 0;#P connect 5 0 13 2;#P connect 3 4 8 0;#P connect 6 0 13 3;#P connect 3 5 9 0;#P connect 14 1 1 0;#P connect 7 0 13 4;#P connect 3 6 10 0;#P connect 8 0 13 5;#P connect 3 7 11 0;#P connect 9 0 13 6;#P connect 3 8 12 0;#P connect 10 0 13 7;#P connect 11 0 13 8;#P connect 12 0 13 9;#P pop;#P newobj 189 163 48 196617 p change;#P newex 122 434 162 196617 prepend transform spectral-slope;#P newex 323 525 79 196617 prepend /poly~;#P newex 389 482 76 196617 prepend target;#P outlet 323 547 15 0;#P connect 5 0 3 0;#P connect 4 0 5 0;#P connect 7 0 4 0;#P connect 5 1 6 0;#P connect 6 0 2 0;#P fasten 3 0 2 0 167 522;#P connect 1 0 2 0;#P connect 2 0 0 0;#P connect 4 1 1 0;#P pop;#P newobj 255 335 68 196617 p spect slope;#N vpatcher 10 59 610 459;#P inlet 159 32 15 0;#P window setfont "Sans Serif" 9.;#P window linecount 1;#P newex 134 93 59 196617 * 132300.;#P window linecount 0;#P newex 50 93 59 196617 * 132300.;#P window linecount 1;#P message 150 151 73 196617 /freqsmoo \$1;#P window linecount 0;#P message 46 151 72 196617 /magsmoo \$1;#P inlet 50 30 15 0;#P outlet 65 192 15 0;#P connect 4 0 2 0;#P connect 1 0 4 0;#P connect 3 0 0 0;#P connect 2 0 0 0;#P connect 6 0 5 0;#P connect 5 0 3 0;#P pop;#P newobj 757 335 41 196617 p smoo;#N vpatcher 307 52 1406 843;#P origin 0 10;#P window setfont "Sans Serif" 9.;#P window linecount 0;#P newex 115 123 29 196617 gate;#P newex 444 180 27 196617 > 0;#P newex 444 146 33 196617 Lsum;#P newex 400 74 72 196617 OSC-route /x;#P newex 444 760 32 196617 print;#P newex 400 110 27 196617 t l l;#P message 546 161 320 196617 clear \, 0. 0.25 \, 0.249 0.25 \, 0.25 0.5 \, 0.499 0.5 \, 0.5 1. \, 0.749 1. \, 0.75 2. \, 1. 2.;#P message 742 50 73 196617 setrange 0. 2.;#P message 251 295 83 196617 0.37 0. \, 0.63 0.;#P message 241 276 88 196617 range -100. 100.;#P message 637 33 85 196617 setrange 0. 180.;#P flonum 526 417 35 9 0 0 0 3 0 0 0 221 221 221 222 222 222 0 0 0;#P flonum 583 541 35 9 0 0 0 3 0 0 0 221 221 221 222 222 222 0 0 0;#P message 616 86 33 196617 clear;#P user function 813 25 1051 770 1 1 0 0;#X frgb 82 82 82;#X brgb 204 204 204;#X rgb2 85 85 85;#X rgb3 255 255 255;#X rgb4 0 0 0;#X rgb5 0 0 0;#X add 0. 0.25 0;#X add 0.212389 0.25 0;#X add 0.230089 0.266667 0;#X add 0.247788 0.288889 0;#X add 0.261062 0.319444 0;#X add 0.265487 0.347222 0;#X add 0.269911 0.461111 0;#X add 0.274336 0.488889 0;#X add 0.29646 0.5 0;#X add 0.455752 0.5 0;#X add 0.482301 0.519444 0;#X add 0.49115 0.541667 0;#X add 0.530973 0.972222 0;#X add 0.535398 0.994444 0;#X add 0.566372 1. 0;#X add 0.712389 1. 0;#X add 0.738938 1.016667 0;#X add 0.756637 1.094445 0;#X add 0.774336 1.188889 0;#X add 0.787611 1.327778 0;#X add 0.79646 1.977778 0;#X add 0.80531 1.994444 0;#X add 0.827434 2. 0;#X add 1. 2. 0;#X domain 1.;#X range 0. 2.;#X done;#P newex 463 538 51 196617 pack 1 1.;#P newex 463 417 61 196617 unpack 1 1.;#P message 464 571 220 196617 target \$1 \, transform frequency-scale mult \$2;#P newex 463 392 46 196617 route 1.;#P newex 463 366 63 196617 pack 1. 1 1.;#P newex 430 308 84 196617 list-inumerate 1;#P newex 239 119 64 196617 unpack 1. 1.;#P newex 281 178 29 196617 t b f;#P newex 427 271 36 196617 zl reg;#P flonum 171 418 35 9 0 0 0 3 0 0 0 221 221 221 222 222 222 0 0 0;#P flonum 228 479 35 9 0 0 0 3 0 0 0 221 221 221 222 222 222 0 0 0;#P message 242 331 33 196617 clear;#P user function 216 366 416 466 1 1 0 0;#X frgb 82 82 82;#X brgb 204 204 204;#X rgb2 85 85 85;#X rgb3 255 255 255;#X rgb4 0 0 0;#X rgb5 0 0 0;#X add 0. -100. 0;#X add 0.37 0. 0;#X add 0.63 0. 0;#X add 1. 100. 0;#X domain 1.;#X range -100. 100.;#X done;#P window linecount 1;#P newex 108 476 51 196617 pack 1 1.;#P newex 108 418 61 196617 unpack 1 1.;#P window linecount 0;#P message 109 542 189 196617 target \$1 \, transform frequency-add \$2;#P window linecount 1;#P newex 108 393 46 196617 route 1.;#P newex 108 367 63 196617 pack 1. 1 1.;#P newex 75 309 84 196617 list-inumerate 1;#P newex 573 668 183 196617 prepend /transform frequency-around;#P newex 53 172 64 196617 unpack 1. 1.;#P newex 83 222 29 196617 t b f;#P newex 72 272 36 196617 zl reg;#P newex 81 40 101 196617 OSC-route /x /y /z;#P newex 336 650 79 196617 prepend /poly~;#P inlet 81 20 15 0;#P inlet 581 42 15 0;#P outlet 336 672 15 0;#P connect 42 0 7 0;#P connect 6 0 5 0;#P connect 5 0 9 0;#P connect 2 0 4 0;#P connect 7 0 6 0;#P connect 37 0 5 1;#P connect 9 0 10 0;#P connect 10 0 11 0;#P connect 11 0 13 0;#P connect 13 0 14 0;#P connect 14 0 12 0;#P fasten 41 0 42 0 138 103;#P connect 4 0 42 1;#P connect 9 1 10 1;#P connect 15 0 14 1;#P fasten 6 1 10 2 147 265 190 310;#P connect 13 1 18 0;#P connect 32 0 15 0;#P connect 16 0 15 0;#P connect 13 1 15 0;#P connect 33 0 15 0;#P connect 34 0 15 0;#P connect 15 0 17 0;#P connect 4 1 21 0;#P connect 21 0 20 0;#P connect 12 0 3 0;#P fasten 25 0 3 0 461 523;#P connect 3 0 0 0;#P connect 1 0 39 0;#P connect 39 0 37 0;#P connect 20 0 19 0;#P connect 19 0 22 0;#P connect 37 1 40 0;#P connect 40 0 41 0;#P connect 3 0 38 0;#P connect 37 0 19 1;#P connect 22 0 23 0;#P connect 23 0 24 0;#P connect 24 0 26 0;#P connect 26 0 27 0;#P connect 27 0 25 0;#P connect 22 1 23 1;#P connect 28 0 27 1;#P fasten 20 1 23 2 502 264 545 309;#P connect 26 1 31 0;#P connect 28 0 30 0;#P connect 32 0 28 0;#P connect 26 1 28 0;#P connect 29 0 28 0;#P connect 35 0 28 0;#P connect 36 0 28 0;#P pop;#P newobj 410 335 94 196617 p freqadd-register;#N vpatcher 199 418 799 818;#P window setfont "Sans Serif" 9.;#P window linecount 1;#P newex 114 66 72 196617 OSC-route /x;#P user textedit 214 252 314 302 32896 3 9 0.423706 0. 0. 0. 0. 0. 0. 0. 0.;#P window linecount 0;#P newex 50 266 123 196617 if $f1 > 0. then 1. else 0.;#P newex 50 287 55 196617 zl group 9;#P newex 50 160 20 196617 t b;#P newex 50 230 25 196617 iter;#P newex 113 119 40 196617 change;#P newex 50 197 36 196617 zl reg;#P toggle 113 99 15 0;#P inlet 76 32 15 0;#P inlet 113 31 15 0;#P outlet 50 309 15 0;#P connect 5 1 7 0;#P connect 7 0 4 0;#P connect 4 0 6 0;#P connect 6 0 9 0;#P connect 9 0 8 0;#P connect 8 0 0 0;#P connect 2 0 4 1;#P connect 11 0 3 0;#P connect 3 0 5 0;#P connect 1 0 11 0;#P connect 4 0 10 0;#P pop;#P newobj 522 335 36 196617 p hold;#N vpatcher 10 59 610 459;#P window setfont "Sans Serif" 9.;#P message 292 315 48 196617 set \$1 1;#N vpatcher 10 59 610 459;#P window setfont "Sans Serif" 9.;#P newex 75 298 131 196617 funnel 10;#P newex 159 79 40 196617 change;#P newex 144 100 40 196617 change;#P newex 131 122 40 196617 change;#P newex 117 143 40 196617 change;#P newex 104 165 40 196617 change;#P newex 90 186 40 196617 change;#P newex 77 208 40 196617 change;#P newex 63 229 40 196617 change;#P newex 50 251 40 196617 change;#P newex 50 50 121 196617 unpack 1 1 1 1 1 1 1 1 1;#P inlet 50 30 15 0;#P outlet 75 320 15 0;#P connect 1 0 2 0;#P connect 2 0 3 0;#P connect 2 1 4 0;#P connect 12 0 0 0;#P connect 2 2 5 0;#P connect 3 0 12 1;#P connect 2 3 6 0;#P connect 4 0 12 2;#P connect 2 4 7 0;#P connect 5 0 12 3;#P connect 2 5 8 0;#P connect 6 0 12 4;#P connect 2 6 9 0;#P connect 7 0 12 5;#P connect 2 7 10 0;#P connect 8 0 12 6;#P connect 2 8 11 0;#P connect 9 0 12 7;#P connect 10 0 12 8;#P connect 11 0 12 9;#P pop;#P newobj 68 134 48 196617 p change;#P newex 72 245 40 196617 t i b i;#P newex 75 300 88 196617 prepend /analyze;#P newex 72 209 43 196617 route 1;#P newex 50 74 123 196617 if $f1 > 0. then 1. else 0.;#P newex 50 95 55 196617 zl group 9;#P newex 50 50 25 196617 iter;#P newex 73 176 37 196617 zl rev;#P inlet 50 30 15 0;#P outlet 75 322 15 0;#P outlet 292 335 15 0;#P connect 2 0 4 0;#P connect 4 0 6 0;#P connect 6 0 5 0;#P connect 5 0 10 0;#P connect 3 0 7 0;#P connect 7 0 9 0;#P connect 10 0 3 0;#P connect 9 0 8 0;#P connect 8 0 1 0;#P connect 9 2 11 0;#P connect 11 0 0 0;#P connect 9 1 0 0;#P pop;#P newobj 326 335 52 196617 p analyze;#N vpatcher 10 59 833 654;#P window setfont "Sans Serif" 9.;#P message 298 170 48 196617 set \$1 0;#P newex 258 129 27 196617 t b i;#P newex 258 102 43 196617 route 0;#P newex 258 74 37 196617 zl rev;#P newex 258 50 58 196617 route busy;#P inlet 258 30 15 0;#P outlet 258 151 15 0;#P connect 1 0 2 0;#P connect 2 0 3 0;#P connect 3 0 4 0;#P connect 4 0 5 0;#P connect 5 0 0 0;#P connect 6 0 0 0;#P connect 5 1 6 0;#P pop;#P newobj 707 335 38 196617 p done;#N vpatcher 10 59 610 459;#P window setfont "Sans Serif" 9.;#P window linecount 1;#P newex 49 58 72 196617 OSC-route /x;#P window linecount 0;#P newex 65 137 21 196617 t 9;#P newex 50 103 40 196617 change;#P toggle 50 83 15 0;#P newex 65 203 67 196617 list-maker 0;#P inlet 50 30 15 0;#P outlet 65 225 15 0;#P connect 1 0 6 0;#P connect 6 0 3 0;#P connect 3 0 4 0;#P connect 4 1 5 0;#P connect 5 0 2 0;#P connect 2 0 0 0;#P pop;#P newobj 591 335 40 196617 p flush;#N vpatcher 10 59 644 824;#P origin 0 10;#P window setfont "Sans Serif" 9.;#P window linecount 1;#P newex 53 312 91 196617 prepend /gui/gain;#P newex 532 323 32 196617 sel 1;#P newex 532 297 40 196617 change;#P newex 532 267 27 196617 > 0.;#P newex 532 226 33 196617 Lsum;#P message 455 365 68 196617 /analyzeto 0;#P newex 455 388 87 196617 s to-ali.iana-mod;#P newex 460 199 29 196617 gate;#P newex 458 138 105 196617 r $0getNextAnalysis;#P flonum 368 202 35 9 0 0 0 3 0 0 0 221 221 221 222 222 222 0 0 0;#P newex 332 141 72 196617 OSC-route /x;#P window linecount 0;#P newex 95 595 66 196617 prepend gain;#N vpatcher 20 74 648 570;#P window setfont "Sans Serif" 9.;#P newex 74 350 37 196617 zl rev;#P newex 74 391 61 196617 unpack 1. 1;#P newex 75 298 131 196617 funnel 10;#P newex 159 79 52 196617 change 0.;#P newex 144 100 52 196617 change 0.;#P newex 131 122 52 196617 change 0.;#P newex 117 143 52 196617 change 0.;#P newex 104 165 52 196617 change 0.;#P newex 90 186 52 196617 change 0.;#P newex 77 208 52 196617 change 0.;#P newex 63 229 52 196617 change 0.;#P newex 50 251 52 196617 change 0.;#P newex 50 50 148 196617 unpack 1. 1. 1. 1. 1. 1. 1. 1. 1.;#P inlet 50 30 15 0;#P outlet 125 413 15 0;#P outlet 74 413 15 0;#P connect 2 0 3 0;#P connect 3 0 4 0;#P connect 3 1 5 0;#P connect 13 0 15 0;#P connect 15 0 14 0;#P connect 14 0 0 0;#P connect 3 2 6 0;#P connect 4 0 13 1;#P connect 3 3 7 0;#P connect 5 0 13 2;#P connect 3 4 8 0;#P connect 6 0 13 3;#P connect 3 5 9 0;#P connect 14 1 1 0;#P connect 7 0 13 4;#P connect 3 6 10 0;#P connect 8 0 13 5;#P connect 3 7 11 0;#P connect 9 0 13 6;#P connect 3 8 12 0;#P connect 10 0 13 7;#P connect 11 0 13 8;#P connect 12 0 13 9;#P pop;#P newobj 135 283 48 196617 p change;#P newex 211 598 72 196617 prepend gain2;#N vpatcher 20 74 620 474;#P window setfont "Sans Serif" 9.;#P newex 74 350 37 196617 zl rev;#P newex 74 391 61 196617 unpack 1. 1;#P newex 75 298 131 196617 funnel 10;#P newex 159 79 52 196617 change 0.;#P newex 144 100 52 196617 change 0.;#P newex 131 122 52 196617 change 0.;#P newex 117 143 52 196617 change 0.;#P newex 104 165 52 196617 change 0.;#P newex 90 186 52 196617 change 0.;#P newex 77 208 52 196617 change 0.;#P newex 63 229 52 196617 change 0.;#P newex 50 251 52 196617 change 0.;#P newex 50 50 148 196617 unpack 1. 1. 1. 1. 1. 1. 1. 1. 1.;#P inlet 50 30 15 0;#P outlet 125 413 15 0;#P outlet 74 413 15 0;#P connect 2 0 3 0;#P connect 3 0 4 0;#P connect 3 1 5 0;#P connect 13 0 15 0;#P connect 15 0 14 0;#P connect 14 0 0 0;#P connect 3 2 6 0;#P connect 4 0 13 1;#P connect 3 3 7 0;#P connect 5 0 13 2;#P connect 3 4 8 0;#P connect 6 0 13 3;#P connect 3 5 9 0;#P connect 14 1 1 0;#P connect 7 0 13 4;#P connect 3 6 10 0;#P connect 8 0 13 5;#P connect 3 7 11 0;#P connect 9 0 13 6;#P connect 3 8 12 0;#P connect 10 0 13 7;#P connect 11 0 13 8;#P connect 12 0 13 9;#P pop;#P newobj 214 284 48 196617 p change;#N vpatcher 20 74 620 474;#P window setfont "Sans Serif" 9.;#P newex 74 350 37 196617 zl rev;#P newex 74 391 61 196617 unpack 1. 1;#P newex 75 298 131 196617 funnel 10;#P newex 159 79 52 196617 change 0.;#P newex 144 100 52 196617 change 0.;#P newex 131 122 52 196617 change 0.;#P newex 117 143 52 196617 change 0.;#P newex 104 165 52 196617 change 0.;#P newex 90 186 52 196617 change 0.;#P newex 77 208 52 196617 change 0.;#P newex 63 229 52 196617 change 0.;#P newex 50 251 52 196617 change 0.;#P newex 50 50 148 196617 unpack 1. 1. 1. 1. 1. 1. 1. 1. 1.;#P inlet 50 30 15 0;#P outlet 125 413 15 0;#P outlet 74 413 15 0;#P connect 2 0 3 0;#P connect 3 0 4 0;#P connect 3 1 5 0;#P connect 13 0 15 0;#P connect 15 0 14 0;#P connect 14 0 0 0;#P connect 3 2 6 0;#P connect 4 0 13 1;#P connect 3 3 7 0;#P connect 5 0 13 2;#P connect 3 4 8 0;#P connect 6 0 13 3;#P connect 3 5 9 0;#P connect 14 1 1 0;#P connect 7 0 13 4;#P connect 3 6 10 0;#P connect 8 0 13 5;#P connect 3 7 11 0;#P connect 9 0 13 6;#P connect 3 8 12 0;#P connect 10 0 13 7;#P connect 11 0 13 8;#P connect 12 0 13 9;#P pop;#P newobj 273 284 48 196617 p change;#P user textedit 190 128 245 254 32896 3 9 0. 0. 0. 0. 0. 0. 0. 0. 0.;#P user textedit 52 127 107 253 32896 3 9 0.576199 0.118112 0.576271 0.533511 0.435059 0.311951 0. 0. 0.;#P user textedit 125 128 180 254 32896 3 9 0.669429 0.707351 0.055901 0.5632 0.961788 0.876652 0. 0. 0.;#P newex 81 40 101 196617 OSC-route /x /y /z;#P newex 336 650 79 196617 prepend /poly~;#P newex 326 604 64 196617 prepend env;#P newex 402 607 76 196617 prepend target;#P inlet 81 20 15 0;#P inlet 355 42 15 0;#P outlet 336 672 15 0;#P connect 6 0 8 0;#P connect 15 0 25 0;#P connect 2 0 6 0;#P connect 13 0 14 0;#P connect 6 1 7 0;#P connect 6 2 9 0;#P connect 11 0 12 0;#P connect 6 1 11 0;#P connect 6 2 10 0;#P connect 10 0 4 0;#P connect 1 0 15 0;#P connect 3 0 5 0;#P connect 4 0 5 0;#P connect 12 0 5 0;#P connect 14 0 5 0;#P connect 25 0 0 0;#P connect 5 0 0 0;#P connect 15 0 16 0;#P connect 10 1 3 0;#P connect 11 1 3 0;#P connect 13 1 3 0;#P connect 24 0 20 0;#P connect 20 0 19 0;#P connect 17 0 18 0;#P fasten 6 2 18 1 404 107;#P connect 18 0 21 0;#P connect 21 0 22 0;#P connect 22 0 23 0;#P connect 23 0 24 0;#P pop;#P newobj 97 333 82 196617 p gain env spect;#P newex 659 335 27 196617 t l l;#P user multiSlider 546 506 247 70 0. 1. 9 2681 47 0 0 2 0 0 0;#M frgb 0 0 0;#M brgb 255 255 255;#M rgb2 127 127 127;#M rgb3 0 0 0;#M rgb4 37 52 91;#M rgb5 74 105 182;#M rgb6 112 158 18;#M rgb7 149 211 110;#M rgb8 187 9 201;#M rgb9 224 62 37;#M rgb10 7 114 128;#P newex 546 621 76 196617 prepend /on/x;#P inlet 927 28 15 0;#P outlet 376 746 15 0;#P newex 905 607 121 196617 prepend /analspace/hold;#P user multiSlider 905 506 247 70 0. 1. 9 2681 15 0 0 2 0 0 0;#M frgb 0 0 0;#M brgb 255 255 255;#M rgb2 127 127 127;#M rgb3 0 0 0;#M rgb4 37 52 91;#M rgb5 74 105 182;#M rgb6 112 158 18;#M rgb7 149 211 110;#M rgb8 187 9 201;#M rgb9 224 62 37;#M rgb10 7 114 128;#P newex 260 79 873 196617 OSC-route /analspace /hold /flush /on /gain /freqadd_register /transform /go /numosc /magsmoo /freqsmoo /nummidi /now /MasterGain /type /osc /fade /var;#P connect 0 0 8 0;#P connect 0 4 8 1;#P connect 16 0 15 0;#P connect 17 0 0 0;#P connect 0 0 16 0;#P connect 16 1 11 0;#P connect 33 0 3 0;#P connect 32 0 3 0;#P connect 8 0 3 0;#P fasten 29 0 3 0 1165 315 1165 518;#P connect 19 0 3 0;#P fasten 28 0 3 0 1141 326 1141 492;#P connect 15 0 3 0;#P connect 14 0 3 0;#P connect 11 0 3 0;#P connect 13 0 3 0;#P connect 21 0 3 0;#P connect 26 0 3 0;#P connect 0 5 13 0;#P connect 0 6 13 1;#P connect 0 7 20 0;#P connect 16 1 12 0;#P connect 7 0 6 0;#P connect 10 0 6 0;#P connect 11 1 6 0;#P connect 6 0 5 0;#P connect 0 1 12 1;#P connect 0 2 9 0;#P connect 0 3 18 0;#P connect 18 0 7 0;#P connect 4 0 10 0;#P connect 0 13 27 0;#P connect 0 7 19 0;#P connect 27 0 28 0;#P connect 7 1 1 0;#P connect 9 0 1 0;#P connect 12 0 1 0;#P connect 1 0 2 0;#P connect 5 0 22 0;#P connect 2 0 22 0;#P connect 0 8 21 0;#P connect 0 14 29 0;#P connect 0 9 21 1;#P connect 0 10 21 2;#P connect 0 15 30 0;#P connect 0 11 21 3;#P connect 25 0 26 0;#P connect 0 12 23 0;#P connect 23 0 24 0;#P connect 24 1 25 0;#P connect 0 16 34 0;#P connect 34 0 32 0;#P connect 36 0 33 0;#P connect 0 17 35 0;#P connect 35 0 36 0;#P pop;#P newobj 699 80 69 196617 p from lemur;#P newex 485 534 112 196617 s to-ali.pluggo-midiout;#N coll $0iana-par-anal-params 1;#T flags 1 0;#T store equalTempored 0;#T store freqsmooth 2690100.;#T store magsmooth 0.;#T store topnOsc 39;#T store type 1;#T store env 1;#T store adsr 10000. 412.537933 1. 3691.039795;#T store dir 2;#T store hifreq 20000;#T store lowfreq 10;#T store migOscMult 1;#P newobj 693 692 150 196617 coll $0iana-par-anal-params 1;#P bpatcher 29 259 194 196 -136 -158 ali.anal-resynth-helper.pat 0 $0iana-par-env $0iana-par-anal $0iana-par-anal-params $0iana-result;#P objectname polygui;#P message 818 634 97 196617 transform-gui bang;#N vpatcher 167 267 1371 805;#P origin 37 8;#P window setfont "Sans Serif" 9.;#P window linecount 1;#P newex 1039 106 127 196617 prepend store migOscMult;#P inlet 1062 27 15 0;#P newex 936 227 102 196617 prepend store hifreq;#P newex 817 226 110 196617 prepend store lowfreq;#P newex 689 227 88 196617 prepend store dir;#P inlet 911 23 15 0;#P inlet 790 23 15 0;#P inlet 853 22 15 0;#P newex 686 130 27 196617 + 1;#P outlet 1069 362 15 0;#P newex 1058 233 95 196617 prepend store adsr;#N vpatcher 0 44 1128 456;#P window setfont "Sans Serif" 9.;#P window linecount 1;#P message 692 56 73 196617 setrange 0. 1.;#P user textedit 577 325 1051 349 32896 3 9 10000. 412.537933 1. 3691.039795;#P user textedit 546 72 646 122 32896 3 9 1. 0.155172 1. 0.724138;#P window linecount 0;#P message 771 80 97 196617 setrange 0. 10000.;#P outlet 320 369 15 0;#P newex 323 319 73 196617 pak 1. 1. 1. 1.;#P inlet 406 40 15 0;#P newex 406 73 88 196617 unpack 1. 1. 1. 1.;#P user function 689 147 889 247 1 1 0 0;#X frgb 82 82 82;#X brgb 204 204 204;#X rgb2 85 85 85;#X rgb3 255 255 255;#X rgb4 0 0 0;#X rgb5 0 0 0;#X add 0. 0. 0;#X add 0.351064 933.333374 0;#X add 0.691489 3200. 0;#X add 0.851064 5600. 0;#X add 0.941489 7600. 0;#X add 1. 10000. 0;#X domain 1.;#X range 0. 10000.;#X done;#P user function 486 147 686 247 1 1 0 0;#X frgb 82 82 82;#X brgb 204 204 204;#X rgb2 85 85 85;#X rgb3 255 255 255;#X rgb4 0 0 0;#X rgb5 0 0 0;#X add 0. 0. 0;#X add 0.351064 0.093333 0;#X add 0.691489 0.32 0;#X add 0.851064 0.56 0;#X add 0.941489 0.76 0;#X add 1. 1. 0;#X domain 1.;#X range 0. 1.;#X done;#P user function 283 147 483 247 1 1 0 0;#X frgb 82 82 82;#X brgb 204 204 204;#X rgb2 85 85 85;#X rgb3 255 255 255;#X rgb4 0 0 0;#X rgb5 0 0 0;#X add 0. 0. 0;#X add 0.351064 933.333374 0;#X add 0.691489 3200. 0;#X add 0.851064 5600. 0;#X add 0.941489 7600. 0;#X add 1. 10000. 0;#X domain 1.;#X range 0. 10000.;#X done;#P user function 80 147 280 247 1 1 0 0;#X frgb 82 82 82;#X brgb 204 204 204;#X rgb2 85 85 85;#X rgb3 255 255 255;#X rgb4 0 0 0;#X rgb5 0 0 0;#X add 0. 0. 0;#X add 0.351064 933.333374 0;#X add 0.691489 3200. 0;#X add 0.851064 5600. 0;#X add 0.941489 7600. 0;#X add 1. 10000. 0;#X domain 1.;#X range 0. 10000.;#X done;#P connect 8 0 0 0;#P connect 4 0 0 0;#P connect 8 0 1 0;#P connect 4 1 1 0;#P connect 6 0 7 0;#P connect 0 0 6 0;#P connect 1 0 6 1;#P connect 2 0 6 2;#P connect 3 0 6 3;#P connect 5 0 4 0;#P connect 11 0 2 0;#P connect 4 2 2 0;#P connect 5 0 9 0;#P connect 6 0 10 0;#P connect 8 0 3 0;#P connect 4 3 3 0;#P pop;#P newobj 1068 155 38 196617 p adsr;#P inlet 1012 27 15 0;#P inlet 951 22 15 0;#P newex 953 179 91 196617 prepend store env;#P inlet 715 22 15 0;#P newex 593 227 95 196617 prepend store type;#P flonum 490 64 35 9 0 0 0 3 0 0 0 221 221 221 222 222 222 0 0 0;#P flonum 628 79 35 9 0 0 0 3 0 0 0 221 221 221 222 222 222 0 0 0;#P newex 576 104 47 196617 * 1000.;#P newex 577 135 66 196617 mstosamps~;#P newex 438 104 47 196617 * 1000.;#P newex 439 135 66 196617 mstosamps~;#P window linecount 0;#N coll $0iana-par-anal-params 1;#T flags 1 0;#T store equalTempored 0;#T store freqsmooth 2690100.;#T store magsmooth 0.;#T store topnOsc 39;#T store type 1;#T store env 1;#T store adsr 10000. 412.537933 1. 3691.039795;#T store dir 2;#T store hifreq 20000;#T store lowfreq 10;#T store migOscMult 1;#P newobj 229 362 150 196617 coll $0iana-par-anal-params 1;#P newex 462 227 126 196617 prepend store freqsmooth;#P newex 333 227 125 196617 prepend store magsmooth;#P newex 153 225 142 196617 prepend store equalTempored;#P newex 41 224 110 196617 prepend store topnOsc;#P inlet 571 23 15 0;#P inlet 442 23 15 0;#P inlet 153 23 15 0;#P inlet 41 22 15 0;#P connect 0 0 4 0;#P connect 1 0 5 0;#P connect 31 0 8 0;#P connect 15 0 8 0;#P connect 5 0 8 0;#P connect 6 0 8 0;#P connect 7 0 8 0;#P connect 4 0 8 0;#P connect 17 0 8 0;#P connect 21 0 8 0;#P connect 28 0 8 0;#P connect 29 0 8 0;#P connect 27 0 8 0;#P connect 9 1 6 0;#P connect 2 0 10 0;#P connect 10 0 9 0;#P connect 11 1 7 0;#P connect 3 0 12 0;#P connect 12 0 11 0;#P connect 23 0 15 0;#P connect 16 0 23 0;#P connect 25 0 27 0;#P connect 24 0 28 0;#P connect 26 0 29 0;#P connect 18 0 17 0;#P connect 30 0 31 0;#P connect 20 0 21 0;#P connect 19 0 20 0;#P connect 20 0 22 0;#P pop;#P newobj 1084 415 126 196617 p analysis params;#N coll $0iana-par-anal-params 1;#T flags 1 0;#T store equalTempored 0;#T store freqsmooth 2690100.;#T store magsmooth 0.;#T store topnOsc 39;#T store type 1;#T store env 1;#T store adsr 10000. 412.537933 1. 3691.039795;#T store dir 2;#T store hifreq 20000;#T store lowfreq 10;#T store migOscMult 1;#P newobj 986 583 150 196617 coll $0iana-par-anal-params 1;#P toggle 12 54 15 0;#P objectname equalTempord;#P window setfont "Gill Sans" 9.;#P comment 260 487 67 278003721 midi vel v. amp;#B color 5;#P window setfont "Gill Sans" 20.;#P comment 24 229 105 278003732 .. s i m p l e;#P user multiSlider 252 547 88 13 1. 20. 1 2920 47 0 1 2 0 0 0;#M frgb 83 83 83;#M brgb 173 173 173;#M rgb2 127 127 127;#M rgb3 0 0 0;#M rgb4 37 52 91;#M rgb5 74 105 182;#M rgb6 112 158 18;#M rgb7 149 211 110;#M rgb8 187 9 201;#M rgb9 224 62 37;#M rgb10 7 114 128;#P objectname topn;#P window setfont "Sans Serif" 9.;#N coll $0iana-par-anal 1;#P newobj 693 672 112 196617 coll $0iana-par-anal 1;#P button 683 195 15 0;#P button 956 581 15 0;#P button 906 581 15 0;#P message 907 621 144 196617 target \$1 \, res-transform-gui;#P newex 907 601 27 196617 int;#P number 924 581 35 9 0 0 0 3 0 0 0 221 221 221 222 222 222 0 0 0;#P user meter~ 784 560 797 621 50 0 168 0 103 103 103 255 153 0 255 0 0 217 217 0 153 186 0 12 3 3 3 3;#P user meter~ 736 559 749 620 50 0 168 0 103 103 103 255 153 0 255 0 0 217 217 0 153 186 0 12 3 3 3 3;#P hidden newex 396 59 71 196617 prepend set 1;#P comment 860 691 344 196617 osc-num \, eq temp \, low pass \, mag smooth \, freq smooth \, freq-coll \, env-coll;#P newex 694 515 136 196617 poly~ ali.anal-resynth.voi 9;#P objectname ali.iana-par-osc.voi;#P newex 980 193 96 196617 pvar equalTempord;#B color 14;#P newex 953 170 69 196617 pvar topnOsc;#B color 14;#P window setfont "Gill Sans" 9.;#P number 269 165 30 9 0 0 0 4242 0 0 0 221 221 221 222 222 222 0 0 0;#P user multiSlider 270 54 17 108 1. 100. 1 2921 47 0 1 2 0 0 0;#M frgb 83 83 83;#M brgb 173 173 173;#M rgb2 127 127 127;#M rgb3 0 0 0;#M rgb4 37 52 91;#M rgb5 74 105 182;#M rgb6 112 158 18;#M rgb7 149 211 110;#M rgb8 187 9 201;#M rgb9 224 62 37;#M rgb10 7 114 128;#P objectname topnOsc;#P user kslider 29 582 35 1 24 84 19 7 1 128 128 128 128 128 128 255 255 255 0 0 0 0 0 0;#P window setfont "Gill Sans" 20.;#P comment 142 624 107 278003732 p r e s e t s;#P comment 205 459 166 278003732 .. m i d i o u t p u t;#P comment 21 27 148 278003732 iana anal-resynth;#P window setfont "Gill Sans" 9.;#P comment 288 209 42 278003721 deferlow;#P comment 349 99 26 278003721 OUT;#B color 5;#P window linecount 4;#P comment 250 70 13 278003721 freq x;#B color 5;#P window setfont "Sans Serif" 9.;#P window linecount 1;#P newex 670 259 76 196617 pvar deferLow;#B color 14;#P toggle 334 209 15 0;#P objectname deferLow;#N vpatcher 551 450 1308 953;#P inlet 216 49 15 0;#P window setfont "Sans Serif" 9.;#P newex 131 73 27 196617 + 1;#P inlet 131 48 15 0;#P outlet 139 284 15 0;#P window linecount 1;#P newex 183 219 50 196617 deferlow;#P window linecount 0;#P newex 131 161 47 196617 gate 2 1;#P connect 3 0 4 0;#P connect 4 0 0 0;#P connect 0 0 2 0;#P connect 1 0 2 0;#P connect 5 0 0 1;#P connect 0 1 1 0;#P pop;#P newobj 670 337 26 196617 p or;#P newex 940 295 76 196617 pvar freqscale;#B color 14;#P window setfont "Gill Sans" 9.;#P flonum 241 148 26 9 0. 16. 35 4242 0 0 0 221 221 221 222 222 222 0 0 0;#P objectname freqscale;#P user multiSlider 241 54 28 92 0.1 2. 1 2937 47 0 1 2 0 0 0;#M frgb 83 83 83;#M brgb 173 173 173;#M rgb2 127 127 127;#M rgb3 0 0 0;#M rgb4 37 52 91;#M rgb5 74 105 182;#M rgb6 112 158 18;#M rgb7 149 211 110;#M rgb8 187 9 201;#M rgb9 224 62 37;#M rgb10 7 114 128;#P bpatcher 119 652 207 52 -22 -60 ali.pattrstorage-helper2 0 ali.iana-par~04.xml;#P hidden newex 119 708 131 278003721 pattrstorage ali.iana-par~04.xml;#X autorestore ali.iana-par~04.xml;#X client_rect 0 0 640 240;#X storage_rect 0 0 640 240;#P objectname ali.iana-par~04.xml;#P window setfont "Sans Serif" 9.;#P hidden newex 397 82 53 196617 autopattr;#X prestore adsr 4 0 1. 0.155172 1. 0.724138;#X prestore amp-to-vel 15 0 1. 0. 127. 0. 0. 0 0.33631 29.882355 0 0.726191 42.333336 0 1. 92.13726 0;#X prestore envelope 1 0 1;#X prestore equalTempord 1 0 0;#X prestore freqscale 1 0 1.;#X prestore freqsmooth 1 0 61;#X prestore gain 1 0 115.528305;#X prestore hifreq 1 0 20000;#X prestore lowfreq 1 0 10;#X prestore magsmooth 1 0 0;#X prestore migOscMult 1 0 1;#X prestore multiSlider 1 0 0;#X prestore topn 1 0 17;#X prestore topnOsc 1 0 39;#P objectname u450000253;#P newex 485 511 92 196617 midiformat;#P newex 519 159 48 196617 loadbang;#P flonum 1155 599 35 9 0 0 0 3 0 0 0 221 221 221 222 222 222 0 0 0;#P objectname envLowpassHz;#P newex 467 371 73 196617 pvar sendMidi;#B color 14;#P newex 467 395 29 196617 gate;#P newex 519 241 29 196617 t 10;#P newex 522 474 78 196617 pvar ampslider;#B color 14;#P user multiSlider 29 565 344 18 0. 1. 280 2937 15 0 0 2 0 0 0;#M frgb 0 0 0;#M brgb 255 255 255;#M rgb2 127 127 127;#M rgb3 0 0 0;#M rgb4 37 52 91;#M rgb5 74 105 182;#M rgb6 112 158 18;#M rgb7 149 211 110;#M rgb8 187 9 201;#M rgb9 224 62 37;#M rgb10 7 114 128;#P objectname ampslider;#P newex 519 410 56 196617 pvar flush;#B color 14;#P window setfont "Gill Sans" 9.;#P message 226 547 25 278003721 flush;#B color 6;#P objectname flush;#P window setfont "Sans Serif" 9.;#P newex 549 450 85 196617 pvar amp-to-vel;#B color 14;#P user function 226 487 376 546 1 0 1 0;#X frgb 82 82 82;#X brgb 204 204 204;#X rgb2 85 85 85;#X rgb3 255 255 255;#X rgb4 0 0 0;#X rgb5 0 0 0;#X add 0. 0. 0;#X add 0.33631 29.882355 0;#X add 0.726191 42.333336 0;#X add 1. 92.13726 0;#X domain 1.;#X range 0. 127.;#X done;#P objectname amp-to-vel;#N vpatcher 470 57 1355 677;#P inlet 148 58 15 0;#P window setfont "Sans Serif" 9.;#P window linecount 1;#P newex 69 92 30 196617 t s b;#P newex 66 252 51 196617 pack 1 1.;#N vpatcher 441 57 1196 793;#P window setfont "Sans Serif" 9.;#P user textedit 477 383 577 433 32896 3 9 0.004851 0.003737 0.003118 0.00293;#P user textedit 475 295 575 345 32896 3 9 209.791214 0.001931 554.523987 0.001623 291.250977 0.001421 743.20459 0.001225 126.445679 0.000789 1116.330322 0.00067 413.27594 0.000524 834.981506 0.000235 1476.991455 0.000062 1258.96814 0.000056;#P user textedit 476 457 576 507 32896 3 9 1. 0.840685 0.735979 0.634493 0.408432 0.3468 0.271322 0.121713 0.031903 0.02894;#P user textedit 469 597 569 647 32896 3 9 209.791214 1. 554.523987 0.840685 291.250977 0.735979 743.20459 0.634493 126.445679 0.408432 1116.330322 0.3468 413.27594 0.271322 834.981506 0.121713 1476.991455 0.031903 1258.96814 0.02894;#P window linecount 1;#P newex 314 447 86 196617 list-normalize 1.;#P newex 236 485 65 196617 interleave 2;#P newex 236 411 75 196617 deinterleave 2;#P window linecount 0;#P newex 236 629 18 196617 t i;#P newex 236 602 31 196617 ftom;#P outlet 236 668 15 0;#P outlet 297 671 15 0;#P newex 236 574 64 196617 unpack 1. 1.;#P newex 236 523 47 196617 zl iter 2;#P newex 358 179 27 196617 * 2;#P newex 236 373 46 196617 zl group;#P newex 69 255 27 196617 - 1;#P inlet 281 70 15 0;#P newex 57 210 40 196617 uzi;#P message 114 237 97 196617 sort 1 2 \, renumber;#N coll 1359iana.coll;#P newobj 236 283 53 196617 coll;#P newex 236 248 72 196617 prepend refer;#P newex 190 111 40 196617 t b b s;#P inlet 190 69 15 0;#P connect 1 0 5 0;#P connect 5 2 7 0;#P fasten 6 0 5 1 294 159;#P connect 1 1 4 0;#P connect 0 0 1 0;#P connect 1 2 2 0;#P connect 2 0 3 0;#P connect 4 0 3 0;#P fasten 7 0 3 0 128 335;#P connect 3 0 8 0;#P connect 8 0 16 0;#P connect 16 0 17 0;#P connect 17 0 10 0;#P connect 10 0 11 0;#P connect 11 0 14 0;#P connect 14 0 15 0;#P connect 15 0 13 0;#P connect 9 0 8 1;#P connect 18 0 17 1;#P connect 11 1 12 0;#P connect 16 1 18 0;#P connect 6 0 9 0;#P connect 17 0 19 0;#P connect 8 0 21 0;#P connect 18 0 20 0;#P pop;#P newobj 70 213 42 196617 p top-n;#P inlet 69 62 15 0;#P window linecount 0;#P newex 487 424 63 196617 pak set 1 1.;#P newex 512 398 87 196617 scale 0. 1. 1 280;#P newex 461 371 61 196617 unpack 1 0.;#P newex 173 420 66 196617 t clear clear;#P newex 296 485 48 196617 pack 1 1;#P newex 244 419 49 196617 append 0;#P newex 205 285 134 196617 t dump 0;#P newex 85 285 66 196617 t l l l l 0;#N coll ;#P newobj 230 362 53 196617 coll;#P newex 345 432 40 196617 Lround;#P newex 345 372 64 196617 unpack 1. 1.;#P inlet 578 58 15 0;#P inlet 205 58 15 0;#P outlet 615 540 15 0;#P outlet 140 577 15 0;#P outlet 312 584 15 0;#P outlet 272 582 15 0;#P connect 18 0 19 0;#P connect 17 0 20 0;#P connect 20 0 18 0;#P connect 19 0 9 0;#P connect 21 0 18 1;#P connect 18 1 19 1;#P connect 12 0 2 0;#P connect 11 0 2 0;#P connect 8 3 13 0;#P connect 20 1 10 0;#P connect 4 0 10 0;#P connect 10 0 8 0;#P fasten 13 1 8 0 186 387;#P connect 9 1 8 0;#P connect 8 1 11 0;#P connect 12 0 0 0;#P connect 13 0 0 0;#P connect 7 0 12 0;#P connect 16 0 1 0;#P connect 10 1 1 0;#P connect 5 0 12 1;#P connect 9 2 6 0;#P connect 6 0 7 0;#P connect 9 3 14 0;#P connect 14 1 15 0;#P connect 15 0 16 1;#P connect 6 1 3 0;#P pop;#P newobj 485 449 53 196617 p midi;#P newex 910 212 48 196617 loadbang;#P newex 910 231 71 196617 t 0 1. 0.5002;#P window setfont "Gill Sans" 9.;#P window linecount 6;#P comment 329 55 13 278003721 frqsmooth;#B color 5;#P window linecount 7;#P comment 310 54 13 278003721 magsmooth;#B color 5;#P window setfont "Sans Serif" 9.;#P window linecount 1;#P newex 1007 213 84 196617 pvar magsmooth;#B color 14;#P newex 1041 232 85 196617 pvar freqsmooth;#B color 14;#P user multiSlider 325 54 19 109 0. 80. 1 2921 47 0 1 2 0 0 0;#M frgb 83 83 83;#M brgb 173 173 173;#M rgb2 127 127 127;#M rgb3 0 0 0;#M rgb4 37 52 91;#M rgb5 74 105 182;#M rgb6 112 158 18;#M rgb7 149 211 110;#M rgb8 187 9 201;#M rgb9 224 62 37;#M rgb10 7 114 128;#P objectname freqsmooth;#P user multiSlider 307 54 19 109 0. 80. 1 2921 47 0 1 2 0 0 0;#M frgb 83 83 83;#M brgb 173 173 173;#M rgb2 127 127 127;#M rgb3 0 0 0;#M rgb4 37 52 91;#M rgb5 74 105 182;#M rgb6 112 158 18;#M rgb7 149 211 110;#M rgb8 187 9 201;#M rgb9 224 62 37;#M rgb10 7 114 128;#P objectname magsmooth;#P user meter~ 359 54 372 163 100 0 168 0 103 103 103 255 153 0 255 0 0 217 217 0 153 186 0 16 4 3 3 3;#P user meter~ 347 54 360 163 100 0 168 0 103 103 103 255 153 0 255 0 0 217 217 0 153 186 0 16 4 3 3 3;#P window setfont "Gill Sans" 9.;#P hidden message 42 750 62 278003721 windowsize;#P number 341 547 35 9 0 0 0 4242 0 0 0 221 221 221 222 222 222 0 0 0;#P window setfont "Sans Serif" 9.;#P newex 505 391 53 196617 pvar topn;#B color 14;#P toggle 528 614 47 0;#P window setfont "Gill Sans" 9.;#N plugconfig;#C useviews 1 1 1 1;#C numprograms 64;#C preempt 1;#C sigvschange 1;#C sigvsdefault 32;#C windowsize;#C defaultview Interface 0 0 0;#C dragscroll 1;#C noinfo;#C package ????;#C uniqueid 128 54 249;#C initialpgm 1;#P hidden newobj 42 773 80 278003721 plugconfig;#P window setfont "Sans Serif" 9.;#P newex 531 697 31 196617 dac~;#P newex 866 399 67 196617 pvar resdisp;#B color 14;#P newex 1255 319 52 196617 pvar gain;#B color 14;#P newex 531 671 48 196617 plugout~;#P user gain~ 750 560 35 37 158 0 1.071519 7.94321 0.;#P user gain~ 702 560 35 37 158 0 1.071519 7.94321 0.;#P user multiSlider 288 54 18 108 0. 157. 1 2937 47 0 1 2 0 0 0;#M frgb 83 83 83;#M brgb 173 173 173;#M rgb2 127 127 127;#M rgb3 0 0 0;#M rgb4 37 52 91;#M rgb5 74 105 182;#M rgb6 112 158 18;#M rgb7 149 211 110;#M rgb8 187 9 201;#M rgb9 224 62 37;#M rgb10 7 114 128;#P objectname gain;#P newex 860 296 73 196617 pvar snapshot;#B color 14;#N vpatcher 250 129 1529 725;#P origin -124 0;#P outlet 1011 497 15 0;#P button 368 65 15 0;#P button 173 212 15 0;#P window setfont "Sans Serif" 9.;#P window linecount 0;#P newex 524 172 105 196617 s $0getNextAnalysis;#P newex 144 520 79 196617 coll-listdumper;#P number 672 152 35 9 0 0 0 3 0 0 0 221 221 221 222 222 222 0 0 0;#P number 313 167 35 9 0 0 0 3 0 0 0 221 221 221 222 222 222 0 0 0;#P comment 370 94 186 196617 "next" or voice number;#P newex 41 352 27 196617 t b l;#P message 37 492 85 196617 $0iana-par-midi;#P newex 49 291 69 196617 sprintf %d_L;#N coll ali.iana-mod.coll 1;#P newobj 49 317 112 196617 coll ali.iana-mod.coll 1;#P newex 58 417 77 196617 stream-to-coll;#P newex 58 380 47 196617 zl iter 2;#P newex 50 121 40 196617 t b b 1;#P newex 50 187 21 196617 t 0;#P newex 50 162 44 196617 del 100;#P newex 75 94 32 196617 sel 0;#P message 124 150 68 196617 /analyzeto 0;#P newex 124 173 87 196617 s to-ali.iana-mod;#P newex 115 242 53 196617 t i b i 0;#N coll $0iana-par-midi 1;#P newobj 58 457 113 196617 coll $0iana-par-midi 1;#P inlet 708 31 15 0;#P newex 308 280 48 196617 pack 1 1;#P message 719 404 324 196617 note go \$1 ali.iana-mod.coll $0iana-par-anal-params $0iana-par-env;#P newex 254 325 38 196617 gate 2;#P newex 262 123 31 196617 t b 2;#P message 199 406 352 196617 target \$2 \, go \$1 ali.iana-mod.coll $0iana-par-anal-params $0iana-par-env;#P newex 347 119 63 196617 t b i clear 1;#P outlet 331 481 15 0;#P newex 239 205 27 196617 int;#P newex 298 90 57 196617 route next;#P inlet 298 28 15 0;#P flonum 990 378 35 9 0 0 0 3 0 0 0 221 221 221 222 222 222 0 0 0;#P message 990 399 98 196617 frequency-scale \$1;#P inlet 1109 42 15 0;#P flonum 1085 314 35 9 0 0 0 3 0 0 0 221 221 221 222 222 222 0 0 0;#P message 1085 335 98 196617 frequency-scale \$1;#P outlet 439 481 15 0;#P newex 561 479 89 196617 prepend sinusoids;#P outlet 967 497 15 0;#P comment 409 354 100 196617;#P window linecount 1;#P comment 719 56 186 196617 analysis number (0 = do one right now);#P connect 34 0 33 0;#P connect 31 0 34 0;#P connect 22 0 32 0;#P connect 32 0 31 0;#P connect 25 0 28 0;#P connect 28 0 26 0;#P connect 26 0 27 0;#P connect 34 1 29 0;#P connect 29 0 30 0;#P connect 30 0 21 0;#P fasten 12 0 25 0 110 64;#P connect 22 1 30 2;#P connect 27 0 22 0;#P connect 25 1 22 0;#P connect 28 1 24 0;#P connect 24 0 23 0;#P connect 33 0 38 0;#P connect 28 1 40 0;#P connect 17 0 15 0;#P connect 14 0 12 0;#P connect 16 0 12 0;#P connect 16 1 17 0;#P connect 14 3 17 0;#P fasten 20 0 12 1 416 242;#P connect 11 0 16 0;#P connect 19 0 17 1;#P connect 10 0 11 0;#P fasten 22 2 19 0 171 283 215 250;#P connect 14 1 36 0;#P connect 15 0 13 0;#P connect 18 0 13 0;#P connect 14 1 19 1;#P connect 11 1 14 0;#P connect 10 0 41 0;#P fasten 33 0 4 0 177 558;#P connect 28 2 39 0;#P fasten 38 0 3 0 278 553;#P connect 20 0 37 0;#P connect 17 1 18 0;#P fasten 3 0 2 0 691 532;#P connect 9 0 8 0;#P connect 41 0 42 0;#P fasten 7 0 6 0 1156 301;#P connect 6 0 5 0;#P pop;#P newobj 694 399 167 196617 p analysis;#P objectname analysis;#P user led 208 487 17 17 0 150;#P objectname sendMidi;#P user jsui 28 54 212 107 1 0 0 resonance-display.js;#P objectname resdisp;#P window setfont "Gill Sans" 9.;#P comment 10 71 18 278003721 eq;#P flonum 141 547 32 9 0 0 160 4242 0 0 0 221 221 221 222 222 222 0 0 0;#P objectname adsrR;#P flonum 108 547 32 9 0 0 160 4242 0 0 0 221 221 221 222 222 222 0 0 0;#P objectname adsrS;#P flonum 75 547 32 9 0 0 160 4242 0 0 0 221 221 221 222 222 222 0 0 0;#P objectname adsrD;#P flonum 42 547 32 9 0 0 160 4242 0 0 0 221 221 221 222 222 222 0 0 0;#P objectname adsrA;#P comment 25 209 100 278003721 mode;#P hidden connect 141 0 172 0;#P hidden connect 141 0 108 0;#P hidden connect 45 0 80 0;#P hidden connect 108 0 107 0;#P hidden connect 117 0 6 0;#P hidden connect 65 2 84 0;#P hidden connect 89 0 84 0;#P hidden fasten 32 1 60 0 347 617;#P hidden connect 21 0 17 0;#P hidden connect 47 0 46 0;#P hidden fasten 46 0 47 1 124 727 330 727 330 647 321 647;#P hidden fasten 87 1 115 0 723 122 505 19 200 19;#P hidden connect 45 0 133 0;#P hidden connect 134 0 133 0;#P hidden connect 45 0 169 0;#P hidden connect 45 0 168 0;#P hidden connect 45 0 152 0;#P hidden fasten 88 12 84 1 1316 183 1317 184 1373 157 1331 71 719 27 502 77;#P hidden connect 45 0 180 0;#P hidden connect 45 0 155 0;#P hidden connect 45 0 33 0;#P hidden connect 67 0 48 0;#P hidden connect 45 0 49 0;#P connect 48 0 49 0;#P hidden connect 45 0 77 0;#P hidden connect 61 0 62 0;#P hidden connect 45 0 61 0;#P hidden connect 172 0 166 0;#P hidden connect 45 0 10 0;#P hidden connect 133 0 132 0;#P hidden connect 45 0 24 0;#P hidden connect 45 0 25 0;#P hidden connect 77 0 20 0;#P hidden connect 11 0 22 0;#P hidden connect 12 0 23 0;#P hidden connect 49 0 67 0;#P hidden connect 132 0 134 0;#P connect 41 0 40 0;#P connect 40 0 32 0;#P connect 32 0 44 0;#P connect 44 0 86 0;#P fasten 8 1 40 1 726 439 459 343;#P connect 19 0 32 1;#P hidden connect 43 0 117 0;#P connect 88 2 19 0;#P connect 39 0 19 0;#P connect 36 0 32 2;#P connect 43 0 39 0;#P connect 32 2 38 0;#P connect 34 0 32 3;#P connect 11 0 13 0;#P fasten 103 0 16 0 474 641 519 691;#P fasten 102 0 16 0 515 664;#P connect 13 0 16 0;#P connect 18 0 16 0;#P connect 32 3 34 0;#P connect 13 1 16 1;#P connect 12 0 13 1;#P connect 11 0 122 0;#P connect 114 0 118 0;#P connect 87 0 90 0;#P connect 12 0 121 0;#P connect 119 0 118 1;#P connect 91 0 90 1;#P connect 53 0 51 0;#P fasten 88 0 51 1 642 161 642 280;#P hidden connect 84 1 51 1;#P connect 51 0 8 0;#P connect 8 0 65 0;#P hidden connect 84 0 65 0;#P fasten 88 1 65 0 578 182 578 457;#P connect 105 0 65 0;#P fasten 97 0 65 0 1067 545 884 545 850 517 836 496;#P connect 83 0 65 0;#P connect 104 0 65 0;#P connect 114 0 87 0;#P connect 87 0 88 0;#P connect 123 0 88 0;#P connect 98 0 88 0;#P connect 14 0 11 0;#P connect 65 0 11 0;#P connect 8 0 179 0;#P connect 11 0 68 0;#P connect 65 2 182 0;#P connect 11 1 12 0;#P connect 65 1 12 0;#P fasten 65 2 87 1 883 561 1286 561 1352 447 763 73;#P fasten 111 0 8 1 831 359;#P connect 88 0 92 0;#P connect 12 0 69 0;#P connect 111 0 124 0;#P connect 65 2 140 0;#P connect 88 3 110 0;#P connect 110 0 109 0;#P connect 109 0 111 0;#P connect 65 2 138 0;#P connect 138 0 139 0;#P connect 99 0 98 0;#P connect 50 0 8 2;#P connect 9 0 89 0;#P connect 8 2 15 0;#P connect 139 0 15 0;#P connect 100 0 99 0;#P connect 11 0 125 0;#P connect 65 2 164 0;#P connect 88 4 116 0;#P connect 73 0 71 0;#P connect 71 0 72 0;#P connect 31 0 30 0;#P connect 70 0 71 1;#P connect 30 1 50 0;#P connect 135 0 105 0;#P connect 136 0 105 0;#P connect 88 4 63 0;#P connect 165 0 164 1;#P connect 88 5 64 0;#P connect 88 6 27 0;#P connect 106 0 136 0;#P connect 88 7 26 0;#P connect 88 8 137 0;#P connect 63 0 82 0;#P connect 64 0 82 1;#P connect 82 0 161 0;#P connect 27 0 82 2;#P connect 26 0 82 3;#P connect 137 0 82 4;#P connect 167 0 82 5;#P connect 161 0 157 0;#P connect 170 0 82 6;#P connect 161 1 158 0;#P connect 171 0 82 7;#P connect 161 2 159 0;#P connect 153 0 82 8;#P connect 161 3 160 0;#P connect 156 0 82 9;#P connect 181 0 82 10;#P connect 27 0 97 0;#P connect 26 0 97 1;#P connect 96 0 97 2;#P connect 88 9 14 0;#P connect 142 0 14 0;#P connect 95 0 97 3;#P connect 8 3 154 0;#P connect 154 0 143 0;#P connect 145 0 148 0;#P connect 148 0 146 0;#P connect 146 0 147 0;#P connect 147 0 144 0;#P connect 143 0 144 0;#P connect 144 1 150 0;#P connect 150 0 151 0;#P connect 143 1 150 2;#P pop;