max v2;#N vpatcher 9 45 973 745;#P origin 0 -22;#P hidden newex 388 246 98 196617 pvar open-pitch-vel;#B color 14;#P hidden newex 351 332 90 196617 pvar open-exsp24;#B color 14;#P message 75 142 28 196617 open;#P objectname open-exsp24;#P comment 11 186 75 196617 pitch/velocity:;#P hidden newex 534 143 42 196617 pvar go;#P user led 7 5 17 17 0 150;#P objectname go;#P hidden outlet -23 303 15 0;#P hidden outlet 8 304 15 0;#P hidden newex 106 315 35 196617 out~ 2;#P hidden newex 731 12 25 196617 in 2;#P hidden inlet 628 -4 15 0;#P hidden newex 387 272 45 196617 pcontrol;#P message 86 185 28 196617 open;#P objectname open-pitch-vel;#N vpatcher 30 70 636 235;#P hidden newex -55 5 54 196617 route text;#P user textedit 2 4 166 23 0 3 9;#P hidden newex 2 -22 60 196617 prepend set;#P outlet -61 453 15 0;#P hidden newex -55 409 58 196617 pack 1 100;#P hidden newex -62 326 27 196617 t i b;#P inlet -241 -59 15 0;#P newex -161 120 49 196617 zl slice 1;#P newex -62 219 27 196617 b;#P newex -161 87 45 196617 zl rot -1;#P newex -161 46 34 196617 zl reg;#N comlet beat pattern;#P hidden inlet -51 -58 15 0;#P newex -7 379 40 196617 RanIJ;#P comment 556 14 22 131465225 vel;#P user rslider 547 27 38 109 128 1 0 7;#P hidden button -62 252 15 0;#N counter 1 1;#X flags 0 0;#P hidden newobj -116 194 66 196617 counter 1 1;#N vtable 128 20 85 230 252 0 128;#P hidden newobj -62 300 30 196617 table;#P bpatcher 2 25 545 110 0 0 pitch-prob-display 0;#P hidden connect 7 0 8 0;#P fasten 10 1 8 0 12 251 -22 118 -133 -6;#P hidden connect 18 0 8 0;#P connect 8 0 9 0;#P connect 9 0 11 0;#P fasten 12 0 2 0 -236 133;#P connect 2 3 10 0;#P connect 10 0 3 0;#P hidden connect 0 6 1 0;#P hidden connect 3 0 1 0;#P connect 1 0 13 0;#P connect 14 0 15 0;#P connect 11 0 2 4;#P hidden connect 17 0 18 0;#P connect 13 0 14 0;#P connect 13 1 6 0;#P connect 6 0 14 1;#P hidden connect 7 0 16 0;#P hidden connect 16 0 17 0;#P hidden connect 4 0 6 1;#P hidden connect 4 1 6 2;#P pop;#P hidden newobj 475 334 35 196617 p play;#P comment 11 143 61 196617 exsp preset;#P hidden newex 625 57 301 196617 OSC-route /go /beats /ali.phasor-flex~ /ali.markov-coll /one-markov-player /exsp24 /altiverb /wetness /beat-pattern;#P hidden newex 22 -74 31 196617 in~ 1;#P hidden inlet 5 -73 15 0;#P hidden newex 386 381 85 196617 pvar exsp-preset;#B color 14;#P hidden newex 559 273 63 196617 debounce 10;#N vpatcher 20 85 489 457;#P message 221 265 23 196617 5 3;#P flonum 342 212 35 9 0 0 0 3 0 0 0 221 221 221 222 222 222 0 0 0;#P user multiSlider 341 131 63 78 0. 3. 1 2681 47;#M frgb 0 0 0;#M brgb 255 255 255;#M rgb2 127 127 127;#P message 213 249 23 196617 7 7;#P message 205 234 23 196617 8 6;#P message 186 202 23 196617 5 5;#P message 112 103 41 196617 2.5 1.5;#P message 195 218 23 196617 6 4;#P message 172 186 23 196617 3 3;#P message 163 169 23 196617 4 2;#P message 93 71 32 196617 1 0.5;#P flonum 277 211 35 9 0 0 0 3 0 0 0 221 221 221 222 222 222 0 0 0;#P user multiSlider 277 131 63 78 0.01 10. 1 2681 47;#M frgb 0 0 0;#M brgb 255 255 255;#M rgb2 127 127 127;#P message 151 152 23 196617 4 3;#P message 103 87 38 196617 2 0.75;#P message 124 119 23 196617 3 2;#P message 137 136 23 196617 2 4;#N vpatcher 30 70 560 498;#P newex 224 121 27 196617 f;#P inlet 304 33 15 0;#P newex 314 92 66 196617 t b b b f 0.01;#P newex 205 222 27 196617 * 1.;#P newex 186 177 27 196617 f;#P newex 147 224 27 196617 * 1.;#P newex 135 182 27 196617 f;#P outlet 218 313 15 0;#P outlet 325 317 15 0;#P newex 221 263 64 196617 pack 1. 0. 1.;#P newex 337 262 64 196617 pack 1. 0. 1.;#P newex 108 101 62 196617 unpack 1. 1.;#P inlet 203 52 15 0;#P inlet 77 56 15 0;#P connect 0 0 2 0;#P connect 2 0 7 0;#P connect 11 1 7 0;#P connect 7 0 8 0;#P connect 11 3 8 1;#P connect 2 1 9 0;#P connect 11 2 9 0;#P connect 9 0 10 0;#P connect 4 0 6 0;#P connect 8 0 4 0;#P connect 11 3 10 1;#P connect 1 0 13 0;#P connect 11 0 13 0;#P connect 13 0 4 2;#P connect 11 4 4 2;#P connect 12 0 11 0;#P connect 3 0 5 0;#P connect 10 0 3 0;#P connect 11 4 3 2;#P connect 13 0 3 2;#P pop;#P newobj 60 216 62 196617 p to-metros;#P connect 10 0 0 0;#P connect 9 0 0 0;#P connect 8 0 0 0;#P connect 4 0 0 0;#P connect 3 0 0 0;#P connect 2 0 0 0;#P connect 1 0 0 0;#P connect 7 0 0 0;#P connect 11 0 0 0;#P connect 12 0 0 0;#P connect 13 0 0 0;#P connect 14 0 0 0;#P connect 17 0 0 0;#P connect 6 0 0 1;#P connect 16 0 0 2;#P connect 5 0 6 0;#P connect 15 0 16 0;#P pop;#P hidden newobj 1170 123 29 196617 p old;#P hidden button 559 254 15 0;#P bpatcher 5 25 190 117 0 0 ali.phasor-flex~ 0;#P objectname ali.flex-phasor~;#P hidden number 559 225 35 9 0 0 0 3 0 0 0 221 221 221 222 222 222 0 0 0;#P hidden newex 559 196 98 13762569 phasor-counter~ 10;#P hidden toggle 534 275 15 0;#P hidden newex 475 381 111 196617 prepend midievent 144;#P hidden newex 534 297 27 196617 gate;#P hidden newex 64 314 35 196617 out~ 1;#P bpatcher 5 204 196 36 0 0 ali.stereo-wetness~ 0;#P hidden newex 386 526 129 196617 vst~ ÔAltiverbª S2S VSTÕ;#P bpatcher 5 157 220 20 0 0 ali.favorite 0 favorite-exsp.coll read;#P objectname exsp-preset;#P hidden newex 386 455 157 196617 vst~ ÔEXSP24 VSTÕ;#P hidden connect 3 0 26 0;#P hidden connect 16 0 10 0;#P hidden connect 15 0 10 0;#P hidden connect 0 0 3 0;#P hidden connect 3 1 25 0;#P hidden connect 0 1 3 1;#P hidden connect 3 0 4 0;#P hidden connect 2 0 3 2;#P hidden connect 3 1 24 0;#P hidden connect 2 1 3 3;#P hidden fasten 17 2 10 1 674 158 338 15 190 15;#P hidden fasten 17 7 3 4 809 549 509 656 218 504 254 284;#P fasten 31 0 0 0 356 395;#P hidden connect 14 0 0 0;#P hidden connect 6 0 0 0;#P hidden fasten 17 5 0 0 722 379;#P hidden fasten 3 3 2 0 157 435;#P hidden fasten 17 6 2 0 765 468;#P hidden connect 0 0 2 0;#P connect 32 0 21 0;#P hidden connect 5 0 19 0;#P hidden connect 21 0 19 0;#P hidden connect 19 0 6 0;#P hidden fasten 17 8 19 1 870 308 629 377 536 364;#P connect 17 0 28 0;#P connect 28 0 7 0;#P hidden connect 7 0 5 0;#P hidden connect 13 0 5 1;#P hidden connect 7 0 8 0;#P hidden connect 8 0 9 0;#P hidden connect 9 0 11 0;#P hidden connect 11 0 13 0;#P hidden connect 10 0 8 1;#P connect 22 0 17 0;#P connect 23 0 17 0;#P hidden connect 17 1 8 2;#P pop;