max v2;#N vpatcher 0 44 263 232;#P origin 0 -2140;#P window setfont "Sans Serif" 9.;#P hidden newex 164 -95 30 196617 !/ 1.;#P hidden newex 165 -122 44 196617 t f 1. 0.;#P hidden newex 10 -184 165 196617 if $f1 >= 1. then $f1 else out2 $f1;#P comment 126 143 32 196617 (sec);#P window setfont Techno 9.;#P flonum 667 189 35 9 0 0 0 2006 0 0 0 221 221 221 222 222 222 0 0 0;#P flonum 467 113 35 9 0 0 0 2006 0 0 0 221 221 221 222 222 222 0 0 0;#P flonum 474 140 35 9 0 0 0 2006 0 0 0 221 221 221 222 222 222 0 0 0;#P button 671 -70 15 0;#P window setfont "Sans Serif" 9.;#P message 946 -154 158 196617 ali.ramping-metro~-master-freq;#P newex 611 -111 21 196617 t 1;#P newex 611 -132 45 196617 loadbang;#P newex 656 125 27 196617 t b f;#P newex 847 -83 61 196617 prepend set;#P newex 847 -122 213 196617 var-init $1 ali.ramping-metro~-master-freq;#P newex 763 162 43 196617 ali.send;#P newex 632 -72 27 196617 gate;#P newex 748 119 40 196617 t 1 f 0;#P newex 632 -17 61 196617 prepend set;#P newex 632 8 114 196617 pvar masterTempoBPM;#B color 14;#P newex 656 102 33 196617 / 60.;#P newex 632 -48 27 196617 t f f;#P newex 649 -108 43 196617 receive;#P comment 59 22 160 196617 master tempo (bpm) -> $1);#P newex 632 -154 43 196617 ali.send;#P flonum 10 20 49 9 0 0 0 3 0 0 0 221 221 221 222 222 222 0 0 0;#P objectname masterTempoBPM;#N comlet to ali.ramping-metro~;#P outlet 457 291 15 0;#N comlet master tempo (bpm);#P inlet 632 -178 15 0;#P newex 483 33 35 196617 zl reg;#P newex 483 -191 95 196617 route dump bang int;#P newex 295 -113 27 196617 t b l;#P newex 483 -96 40 196617 t l 0 1.;#P window setfont "Lucida Grande" 9.;#P newex 483 -64 78 67108873 unpack 1. 0. 0.;#P newex 553 45 78 67108873 unpack 1. 1. 1.;#N comlet last message received;#P outlet 602 240 15 0;#P window setfont "Sans Serif" 9.;#P hidden newex 643 529 27 196617 f;#P hidden newex 594 442 27 196617 t b l;#P hidden newex 594 379 35 196617 del 10;#P hidden newex 594 349 27 196617 t b l;#P hidden newex 481 555 65 196617 pack 1. 0. 0.;#P hidden newex 611 473 75 196617 unpack 1. 0. 0.;#P window setfont Techno 9.;#P flonum 199 102 37 9 0 0 0 2006 198 0 14 221 221 221 222 222 222 0 0 0;#P button 185 102 15 0;#P window setfont "Sans Serif" 9.;#P hidden newex 594 299 27 196617 f;#P hidden newex 594 413 35 196617 zl reg;#P hidden newex 594 326 65 196617 pack 1. 0. 0.;#P user multiSlider 10 102 177 15 1. 21. 1 2680 47 0 0 2 0;#M frgb 0 0 0;#M brgb 255 255 255;#M rgb2 127 127 127;#M rgb3 0 0 0;#M rgb4 37 52 91;#M rgb5 74 105 182;#M rgb6 112 158 18;#M rgb7 149 211 110;#M rgb8 187 9 201;#M rgb9 224 62 37;#M rgb10 7 114 128;#P user led 223 21 17 17 0 150;#P hidden newex 353 126 61 196617 prepend set;#P window setfont Techno 9.;#P flonum 189 83 37 9 0 0 0 2006 198 0 14 221 221 221 222 222 222 0 0 0;#P button 111 248 15 0;#P window setfont "Sans Serif" 9.;#P hidden message 83 344 50 196617 shadow 5;#P hidden message 4 253 55 196617 shadow -4;#P hidden newex 273 452 35 196617 zl reg;#P hidden newex 332 75 45 196617 loadbang;#P hidden newex 297 137 43 196617 t 1 1. 0;#P window setfont Techno 9.;#P flonum 190 142 36 9 0 0 0 2006 0 0 0 221 221 221 222 222 222 0 0 0;#P flonum 190 125 36 9 0 0 0 2006 0 0 0 221 221 221 222 222 222 0 0 0;#P toggle 225 66 15 0;#P window setfont "Sans Serif" 9.;#N vpatcher 30 89 1054 547;#P window setfont "Sans Serif" 9.;#P newex 167 275 27 196617 t f f;#P outlet 138 362 15 0;#P outlet 87 364 15 0;#P newex 79 179 31 196617 sel 2;#P newex 108 118 27 196617 t i i;#P newex 108 90 27 196617 + 1;#P newex 149 170 35 196617 gate 2;#P newex 218 316 70 196617 prepend set 1;#P newex 174 242 39 196617 Lround;#P inlet 108 66 15 0;#P inlet 152 66 15 0;#P connect 6 0 7 0;#P connect 7 0 8 0;#P connect 3 0 8 0;#P connect 1 0 5 0;#P connect 5 0 6 0;#P connect 4 0 9 0;#P connect 10 0 9 0;#P connect 6 1 4 0;#P connect 2 0 10 0;#P connect 0 0 4 1;#P connect 4 1 2 0;#P connect 10 1 3 0;#P pop;#P hidden newobj 241 66 42 196617 p round;#P window setfont Techno 9.;#P flonum 189 66 37 9 0 0 128 2006 0 0 0 221 221 221 222 222 222 0 0 0;#P user multiSlider 10 66 176 15 1. 21. 1 2680 47 0 0 2 0;#M frgb 0 0 0;#M brgb 255 255 255;#M rgb2 127 127 127;#M rgb3 0 0 0;#M rgb4 37 52 91;#M rgb5 74 105 182;#M rgb6 112 158 18;#M rgb7 149 211 110;#M rgb8 187 9 201;#M rgb9 224 62 37;#M rgb10 7 114 128;#P toggle 225 50 15 0;#P window setfont "Sans Serif" 9.;#N vpatcher 30 89 1054 547;#P window setfont "Sans Serif" 9.;#P newex 167 275 27 196617 t f f;#P outlet 138 362 15 0;#P outlet 87 364 15 0;#P newex 79 179 31 196617 sel 2;#P newex 108 118 27 196617 t i i;#P newex 108 90 27 196617 + 1;#P newex 149 170 35 196617 gate 2;#P newex 218 316 70 196617 prepend set 1;#P newex 174 242 39 196617 Lround;#P inlet 108 66 15 0;#P inlet 152 66 15 0;#P connect 6 0 7 0;#P connect 3 0 8 0;#P connect 7 0 8 0;#P connect 1 0 5 0;#P connect 5 0 6 0;#P connect 10 0 9 0;#P connect 4 0 9 0;#P connect 6 1 4 0;#P connect 2 0 10 0;#P connect 0 0 4 1;#P connect 4 1 2 0;#P connect 10 1 3 0;#P pop;#P hidden newobj 241 50 42 196617 p round;#P comment 76 143 55 196617 ramp time;#P comment 84 126 34 196617 phase;#P newex 298 300 60 196617 pak 1. 0. 0.;#P hidden newex 298 241 27 196617 / 1.;#P hidden newex 298 205 63 196617 unpack 1. 1.;#P hidden newex 298 180 48 196617 pak 1. 1.;#P window setfont Techno 9.;#P flonum 189 50 37 9 0 0 0 2006 0 0 0 221 221 221 222 222 222 0 0 0;#P user multiSlider 10 50 176 14 1. 21. 1 2680 47 0 0 2 0;#M frgb 0 0 0;#M brgb 255 255 255;#M rgb2 127 127 127;#M rgb3 0 0 0;#M rgb4 37 52 91;#M rgb5 74 105 182;#M rgb6 112 158 18;#M rgb7 149 211 110;#M rgb8 187 9 201;#M rgb9 224 62 37;#M rgb10 7 114 128;#P user multiSlider 11 142 176 15 0. 20. 1 2680 47 0 0 2 0;#M frgb 0 0 0;#M brgb 255 255 255;#M rgb2 127 127 127;#M rgb3 0 0 0;#M rgb4 37 52 91;#M rgb5 74 105 182;#M rgb6 112 158 18;#M rgb7 149 211 110;#M rgb8 187 9 201;#M rgb9 224 62 37;#M rgb10 7 114 128;#P user multiSlider 11 125 176 15 0. 1. 1 2680 47 0 0 2 0;#M frgb 0 0 0;#M brgb 255 255 255;#M rgb2 127 127 127;#M rgb3 0 0 0;#M rgb4 37 52 91;#M rgb5 74 105 182;#M rgb6 112 158 18;#M rgb7 149 211 110;#M rgb8 187 9 201;#M rgb9 224 62 37;#M rgb10 7 114 128;#P window setfont "Sans Serif" 14.;#P comment 185 77 10 196622 |;#P inlet 483 -211 15 0;#P window setfont "Lucida Grande" 9.;#P newex 483 -5 40 67108873 t l l l;#P window setfont "Sans Serif" 9.;#P newex 483 180 65 196617 pack 1. 1. 1.;#P window setfont "Sans Serif" 14.;#P comment 181 42 10 196622 |;#P comment 170 36 10 196622 |;#P comment 162 42 10 196622 |;#P comment 153 42 10 196622 |;#P comment 144 42 10 196622 |;#P comment 136 42 10 196622 |;#P comment 127 36 10 196622 |;#P comment 118 42 10 196622 |;#P comment 109 42 10 196622 |;#P comment 101 42 10 196622 |;#P comment 93 42 10 196622 |;#P comment 83 36 10 196622 |;#P comment 75 42 10 196622 |;#P comment 66 42 10 196622 |;#P comment 57 42 10 196622 |;#P comment 49 42 10 196622 |;#P comment 40 36 10 196622 |;#P comment 31 42 10 196622 |;#P comment 23 42 10 196622 |;#P comment 15 42 10 196622 |;#P comment 6 42 10 196622 |;#P comment 181 71 10 196622 |;#P comment 170 75 10 196622 |;#P comment 162 71 10 196622 |;#P comment 153 71 10 196622 |;#P comment 144 71 10 196622 |;#P comment 136 71 10 196622 |;#P comment 127 75 10 196622 |;#P comment 118 71 10 196622 |;#P comment 109 71 10 196622 |;#P comment 101 71 10 196622 |;#P comment 93 71 10 196622 |;#P comment 83 75 10 196622 |;#P comment 75 71 10 196622 |;#P comment 66 71 10 196622 |;#P comment 57 71 10 196622 |;#P comment 49 71 10 196622 |;#P comment 40 75 10 196622 |;#P comment 31 71 10 196622 |;#P comment 23 71 10 196622 |;#P comment 15 71 10 196622 |;#P comment 6 71 10 196622 |;#P user ubutton 3 12 242 150 0 2;#P user panel 4 12 240 150;#X brgb 180 100 220;#X frgb 0 0 0;#X border 1;#X rounded 20;#X shadow 5;#X done;#P window setfont "Sans Serif" 9.;#P hidden newex 643 558 65 196617 pack 1. 0. 0.;#P newex 552 99 27 196617 * 1.;#P comment 908 141 202 196617 arg1: send receive name for master tempo;#P hidden connect 72 0 3 0;#P hidden connect 73 0 3 0;#P hidden connect 4 1 72 0;#P hidden connect 92 0 121 0;#P hidden connect 69 1 53 0;#P hidden fasten 122 1 53 0 239 -90;#P hidden connect 121 0 53 0;#P hidden connect 61 0 53 0;#P hidden connect 69 1 63 0;#P hidden connect 123 0 63 0;#P hidden connect 93 2 63 0;#P hidden connect 65 0 63 0;#P hidden connect 92 1 51 0;#P hidden connect 92 2 52 0;#P hidden connect 4 0 73 0;#P hidden connect 4 0 74 0;#P hidden fasten 95 1 74 0 267 -64;#P hidden connect 94 0 74 0;#P hidden connect 122 0 123 0;#P hidden connect 121 1 122 0;#P hidden connect 61 1 54 0;#P hidden connect 65 1 64 0;#P hidden connect 76 0 75 0;#P hidden connect 51 0 67 0;#P hidden connect 52 0 68 0;#P hidden connect 78 0 83 0;#P hidden connect 95 2 77 0;#P hidden connect 69 2 77 0;#P hidden connect 69 0 62 0;#P hidden connect 93 1 62 0;#P hidden connect 69 0 66 0;#P hidden fasten 122 2 66 0 325 -68;#P hidden connect 62 0 61 0;#P hidden connect 66 0 65 0;#P hidden connect 53 0 61 1;#P hidden connect 63 0 65 1;#P hidden connect 74 0 71 0;#P connect 95 3 94 0;#P hidden connect 70 0 69 0;#P hidden connect 54 0 55 0;#P hidden connect 55 0 56 0;#P hidden connect 56 0 57 0;#P hidden connect 57 0 58 0;#P hidden connect 75 0 58 0;#P hidden connect 58 0 71 1;#P hidden connect 56 1 57 1;#P hidden connect 67 0 58 1;#P hidden connect 64 0 55 1;#P hidden connect 68 0 58 2;#P hidden connect 57 0 76 0;#P connect 47 0 98 0;#P hidden connect 77 0 98 0;#P connect 91 0 118 0;#P connect 1 0 117 0;#P connect 84 0 85 0;#P connect 49 0 95 0;#P connect 94 1 93 0;#P connect 93 0 92 0;#P fasten 86 1 48 0 614 368 728 368 728 -21 488 -21;#P fasten 2 0 48 0 648 596 835 596 835 -21 488 -21;#P fasten 85 0 48 0 486 597 831 597 831 -22 488 -22;#P fasten 71 0 48 0 278 594 834 594 834 -22 488 -22;#P fasten 95 0 96 0 590 -95 590 -5;#P connect 48 0 96 0;#P connect 1 0 47 0;#P connect 84 1 85 1;#P fasten 91 1 47 1 590 130;#P connect 84 2 85 2;#P fasten 91 2 47 2 619 153;#P connect 91 0 1 0;#P connect 48 1 91 0;#P fasten 112 1 1 1 652 156 605 90;#P hidden connect 82 0 81 0;#P hidden connect 81 0 79 0;#P connect 79 0 86 0;#P connect 86 0 87 0;#P connect 87 0 80 0;#P connect 80 0 88 0;#P fasten 96 0 90 0 607 172;#P connect 113 0 114 0;#P hidden connect 78 0 81 1;#P connect 88 1 84 0;#P connect 58 0 80 1;#P connect 97 0 100 0;#P fasten 107 2 108 0 783 -87 637 -87;#P fasten 107 0 108 0 753 -83 637 -83;#P connect 114 0 108 0;#P connect 108 0 103 0;#P connect 103 0 106 0;#P connect 106 0 105 0;#P connect 89 0 2 0;#P fasten 111 0 102 0 852 -51 832 -51 832 -123 654 -123;#P connect 102 0 108 1;#P connect 105 0 104 0;#P connect 103 1 104 0;#P connect 104 0 112 0;#P connect 84 0 89 1;#P connect 115 0 100 1;#P fasten 110 0 100 1 852 -96 839 -96 839 -167 670 -167;#P connect 112 1 119 0;#P connect 102 0 116 0;#P connect 105 0 107 0;#P connect 107 1 109 0;#P connect 115 0 109 1;#P fasten 110 0 109 1 852 -93 916 -93 916 43 801 43;#P connect 115 0 111 0;#P connect 110 0 111 0;#P pop;