max v2;#N vpatcher 0 44 261 217;#P origin 0 -2140;#P window setfont "Sans Serif" 9.;#P newex 308 512 40 196617 print 2;#P newex 356 376 40 196617 print 1;#P comment 126 137 32 196617 (sec);#P window setfont Techno 9.;#P flonum 667 183 35 9 0 0 0 2006 0 0 0 221 221 221 222 222 222 0 0 0;#P flonum 467 107 35 9 0 0 0 2006 0 0 0 221 221 221 222 222 222 0 0 0;#P flonum 474 134 35 9 0 0 0 2006 0 0 0 221 221 221 222 222 222 0 0 0;#P button 671 -76 15 0;#P window setfont "Sans Serif" 9.;#P message 946 -160 158 196617 ali.ramping-metro~-master-freq;#P newex 611 -117 21 196617 t 1;#P newex 611 -138 45 196617 loadbang;#P newex 656 119 27 196617 t b f;#P newex 847 -89 61 196617 prepend set;#P newex 847 -128 213 196617 var-init $1 ali.ramping-metro~-master-freq;#P newex 763 156 43 196617 ali.send;#P newex 632 -78 27 196617 gate;#P newex 748 113 40 196617 t 1 f 0;#P newex 632 -23 61 196617 prepend set;#P newex 632 2 114 196617 pvar masterTempoBPM;#B color 14;#P newex 656 96 33 196617 / 60.;#P newex 632 -54 27 196617 t f f;#P newex 649 -114 43 196617 receive;#P comment 59 16 160 196617 master tempo (bpm) -> $1);#P newex 632 -160 43 196617 ali.send;#P flonum 10 14 49 9 0 0 0 3 0 0 0 221 221 221 222 222 222 0 0 0;#P objectname masterTempoBPM;#N comlet to ali.ramping-metro~;#P outlet 457 285 15 0;#N comlet master tempo (bpm);#P inlet 632 -184 15 0;#P newex 483 27 35 196617 zl reg;#P newex 483 -165 95 196617 route dump bang int;#P newex 295 -119 27 196617 t b l;#P newex 483 -102 40 196617 t l 0 1.;#P window setfont "Lucida Grande" 9.;#P newex 483 -70 78 67108873 unpack 1. 0. 0.;#P newex 553 39 78 67108873 unpack 1. 1. 1.;#N comlet last message received;#P outlet 602 234 15 0;#P window setfont "Sans Serif" 9.;#P hidden newex 643 523 27 196617 f;#P hidden newex 594 436 27 196617 t b l;#P hidden newex 594 373 35 196617 del 10;#P hidden newex 594 343 27 196617 t b l;#P hidden newex 481 549 65 196617 pack 1. 0. 0.;#P hidden newex 611 467 75 196617 unpack 1. 0. 0.;#P window setfont Techno 9.;#P flonum 199 96 37 9 0 0 0 2006 198 0 14 221 221 221 222 222 222 0 0 0;#P button 185 96 15 0;#P window setfont "Sans Serif" 9.;#P hidden newex 594 293 27 196617 f;#P hidden newex 594 407 35 196617 zl reg;#P hidden newex 594 320 65 196617 pack 1. 0. 0.;#P user multiSlider 10 96 177 15 1. 21. 1 2680 47 0 0 2 0;#M frgb 0 0 0;#M brgb 255 255 255;#M rgb2 127 127 127;#M rgb3 0 0 0;#M rgb4 37 52 91;#M rgb5 74 105 182;#M rgb6 112 158 18;#M rgb7 149 211 110;#M rgb8 187 9 201;#M rgb9 224 62 37;#M rgb10 7 114 128;#P user led 223 15 17 17 0 150;#P hidden newex 353 120 61 196617 prepend set;#P window setfont Techno 9.;#P flonum 189 77 37 9 0 0 0 2006 198 0 14 221 221 221 222 222 222 0 0 0;#P button 111 242 15 0;#P window setfont "Sans Serif" 9.;#P hidden message 83 338 50 196617 shadow 5;#P hidden message 4 247 55 196617 shadow -4;#P hidden newex 273 446 35 196617 zl reg;#P hidden newex 332 69 45 196617 loadbang;#P hidden newex 297 131 43 196617 t 1 1. 0;#P window setfont Techno 9.;#P flonum 190 136 36 9 0 0 0 2006 0 0 0 221 221 221 222 222 222 0 0 0;#P flonum 190 119 36 9 0 0 0 2006 0 0 0 221 221 221 222 222 222 0 0 0;#P toggle 225 60 15 0;#P window setfont "Sans Serif" 9.;#N vpatcher 30 89 1054 547;#P window setfont "Sans Serif" 9.;#P newex 167 275 27 196617 t f f;#P outlet 138 362 15 0;#P outlet 87 364 15 0;#P newex 79 179 31 196617 sel 2;#P newex 108 118 27 196617 t i i;#P newex 108 90 27 196617 + 1;#P newex 149 170 35 196617 gate 2;#P newex 218 316 70 196617 prepend set 1;#P newex 174 242 39 196617 Lround;#P inlet 108 66 15 0;#P inlet 152 66 15 0;#P connect 6 0 7 0;#P connect 7 0 8 0;#P connect 3 0 8 0;#P connect 1 0 5 0;#P connect 5 0 6 0;#P connect 4 0 9 0;#P connect 10 0 9 0;#P connect 6 1 4 0;#P connect 2 0 10 0;#P connect 0 0 4 1;#P connect 4 1 2 0;#P connect 10 1 3 0;#P pop;#P hidden newobj 241 60 42 196617 p round;#P window setfont Techno 9.;#P flonum 189 60 37 9 0 0 128 2006 0 0 0 221 221 221 222 222 222 0 0 0;#P user multiSlider 10 60 176 15 1. 21. 1 2680 47 0 0 2 0;#M frgb 0 0 0;#M brgb 255 255 255;#M rgb2 127 127 127;#M rgb3 0 0 0;#M rgb4 37 52 91;#M rgb5 74 105 182;#M rgb6 112 158 18;#M rgb7 149 211 110;#M rgb8 187 9 201;#M rgb9 224 62 37;#M rgb10 7 114 128;#P toggle 225 44 15 0;#P window setfont "Sans Serif" 9.;#N vpatcher 30 89 1054 547;#P window setfont "Sans Serif" 9.;#P newex 167 275 27 196617 t f f;#P outlet 138 362 15 0;#P outlet 87 364 15 0;#P newex 79 179 31 196617 sel 2;#P newex 108 118 27 196617 t i i;#P newex 108 90 27 196617 + 1;#P newex 149 170 35 196617 gate 2;#P newex 218 316 70 196617 prepend set 1;#P newex 174 242 39 196617 Lround;#P inlet 108 66 15 0;#P inlet 152 66 15 0;#P connect 6 0 7 0;#P connect 3 0 8 0;#P connect 7 0 8 0;#P connect 1 0 5 0;#P connect 5 0 6 0;#P connect 10 0 9 0;#P connect 4 0 9 0;#P connect 6 1 4 0;#P connect 2 0 10 0;#P connect 0 0 4 1;#P connect 4 1 2 0;#P connect 10 1 3 0;#P pop;#P hidden newobj 241 44 42 196617 p round;#P comment 76 137 55 196617 ramp time;#P comment 84 120 34 196617 phase;#P newex 298 294 60 196617 pak 1. 0. 0.;#P hidden newex 298 235 27 196617 / 1.;#P hidden newex 298 199 63 196617 unpack 1. 1.;#P hidden newex 298 174 48 196617 pak 1. 1.;#P window setfont Techno 9.;#P flonum 189 44 37 9 0 0 0 2006 0 0 0 221 221 221 222 222 222 0 0 0;#P user multiSlider 10 44 176 14 1. 21. 1 2680 47 0 0 2 0;#M frgb 0 0 0;#M brgb 255 255 255;#M rgb2 127 127 127;#M rgb3 0 0 0;#M rgb4 37 52 91;#M rgb5 74 105 182;#M rgb6 112 158 18;#M rgb7 149 211 110;#M rgb8 187 9 201;#M rgb9 224 62 37;#M rgb10 7 114 128;#P user multiSlider 11 136 176 15 0. 20. 1 2680 47 0 0 2 0;#M frgb 0 0 0;#M brgb 255 255 255;#M rgb2 127 127 127;#M rgb3 0 0 0;#M rgb4 37 52 91;#M rgb5 74 105 182;#M rgb6 112 158 18;#M rgb7 149 211 110;#M rgb8 187 9 201;#M rgb9 224 62 37;#M rgb10 7 114 128;#P user multiSlider 11 119 176 15 0. 1. 1 2680 47 0 0 2 0;#M frgb 0 0 0;#M brgb 255 255 255;#M rgb2 127 127 127;#M rgb3 0 0 0;#M rgb4 37 52 91;#M rgb5 74 105 182;#M rgb6 112 158 18;#M rgb7 149 211 110;#M rgb8 187 9 201;#M rgb9 224 62 37;#M rgb10 7 114 128;#P window setfont "Sans Serif" 14.;#P comment 185 71 10 196622 |;#P inlet 483 -185 15 0;#P window setfont "Lucida Grande" 9.;#P newex 483 -11 40 67108873 t l l l;#P window setfont "Sans Serif" 9.;#P newex 483 174 65 196617 pack 1. 1. 1.;#P window setfont "Sans Serif" 14.;#P comment 181 36 10 196622 |;#P comment 170 30 10 196622 |;#P comment 162 36 10 196622 |;#P comment 153 36 10 196622 |;#P comment 144 36 10 196622 |;#P comment 136 36 10 196622 |;#P comment 127 30 10 196622 |;#P comment 118 36 10 196622 |;#P comment 109 36 10 196622 |;#P comment 101 36 10 196622 |;#P comment 93 36 10 196622 |;#P comment 83 30 10 196622 |;#P comment 75 36 10 196622 |;#P comment 66 36 10 196622 |;#P comment 57 36 10 196622 |;#P comment 49 36 10 196622 |;#P comment 40 30 10 196622 |;#P comment 31 36 10 196622 |;#P comment 23 36 10 196622 |;#P comment 15 36 10 196622 |;#P comment 6 36 10 196622 |;#P comment 181 65 10 196622 |;#P comment 170 69 10 196622 |;#P comment 162 65 10 196622 |;#P comment 153 65 10 196622 |;#P comment 144 65 10 196622 |;#P comment 136 65 10 196622 |;#P comment 127 69 10 196622 |;#P comment 118 65 10 196622 |;#P comment 109 65 10 196622 |;#P comment 101 65 10 196622 |;#P comment 93 65 10 196622 |;#P comment 83 69 10 196622 |;#P comment 75 65 10 196622 |;#P comment 66 65 10 196622 |;#P comment 57 65 10 196622 |;#P comment 49 65 10 196622 |;#P comment 40 69 10 196622 |;#P comment 31 65 10 196622 |;#P comment 23 65 10 196622 |;#P comment 15 65 10 196622 |;#P comment 6 65 10 196622 |;#P user ubutton 3 6 242 150 0 2;#P user panel 4 6 240 150;#X brgb 180 100 220;#X frgb 0 0 0;#X border 1;#X rounded 20;#X shadow 5;#X done;#P window setfont "Sans Serif" 9.;#P hidden newex 643 552 65 196617 pack 1. 0. 0.;#P newex 552 93 27 196617 * 1.;#P comment 908 135 202 196617 arg1: send receive name for master tempo;#P hidden connect 72 0 3 0;#P hidden connect 73 0 3 0;#P hidden connect 4 1 72 0;#P hidden connect 69 1 53 0;#P hidden connect 92 0 53 0;#P hidden connect 61 0 53 0;#P hidden connect 69 1 63 0;#P hidden connect 93 2 63 0;#P hidden connect 65 0 63 0;#P hidden connect 92 1 51 0;#P hidden connect 92 2 52 0;#P hidden connect 4 0 73 0;#P hidden connect 4 0 74 0;#P hidden fasten 95 1 74 0 267 -70;#P hidden connect 94 0 74 0;#P hidden connect 61 1 54 0;#P hidden connect 65 1 64 0;#P hidden connect 76 0 75 0;#P hidden connect 51 0 67 0;#P hidden connect 52 0 68 0;#P hidden connect 78 0 83 0;#P hidden connect 95 2 77 0;#P hidden connect 69 2 77 0;#P hidden connect 69 0 62 0;#P hidden connect 93 1 62 0;#P hidden connect 69 0 66 0;#P hidden connect 62 0 61 0;#P hidden connect 66 0 65 0;#P hidden connect 53 0 61 1;#P hidden connect 63 0 65 1;#P hidden connect 74 0 71 0;#P connect 95 3 94 0;#P hidden connect 70 0 69 0;#P hidden connect 54 0 55 0;#P hidden connect 55 0 56 0;#P hidden connect 56 0 57 0;#P hidden connect 57 0 58 0;#P hidden connect 75 0 58 0;#P hidden connect 58 0 71 1;#P connect 71 0 122 0;#P hidden connect 56 1 57 1;#P hidden connect 67 0 58 1;#P hidden connect 64 0 55 1;#P hidden connect 68 0 58 2;#P hidden connect 57 0 76 0;#P connect 58 0 121 0;#P connect 47 0 98 0;#P hidden connect 77 0 98 0;#P connect 91 0 118 0;#P connect 1 0 117 0;#P connect 84 0 85 0;#P connect 49 0 95 0;#P connect 94 1 93 0;#P connect 93 0 92 0;#P fasten 71 0 48 0 278 588 834 588 834 -28 488 -28;#P fasten 86 1 48 0 614 362 728 362 728 -27 488 -27;#P fasten 2 0 48 0 648 590 835 590 835 -27 488 -27;#P fasten 85 0 48 0 486 591 831 591 831 -28 488 -28;#P fasten 95 0 96 0 590 -101 590 -11;#P connect 48 0 96 0;#P connect 1 0 47 0;#P connect 84 1 85 1;#P fasten 91 1 47 1 590 124;#P connect 84 2 85 2;#P fasten 91 2 47 2 619 147;#P connect 91 0 1 0;#P connect 48 1 91 0;#P fasten 112 1 1 1 652 150 605 84;#P hidden connect 82 0 81 0;#P hidden connect 81 0 79 0;#P connect 79 0 86 0;#P connect 86 0 87 0;#P connect 87 0 80 0;#P connect 80 0 88 0;#P fasten 96 0 90 0 607 166;#P connect 113 0 114 0;#P hidden connect 78 0 81 1;#P connect 88 1 84 0;#P connect 58 0 80 1;#P connect 97 0 100 0;#P fasten 107 2 108 0 783 -93 637 -93;#P fasten 107 0 108 0 753 -89 637 -89;#P connect 114 0 108 0;#P connect 108 0 103 0;#P connect 103 0 106 0;#P connect 106 0 105 0;#P connect 89 0 2 0;#P fasten 111 0 102 0 852 -57 832 -57 832 -129 654 -129;#P connect 102 0 108 1;#P connect 105 0 104 0;#P connect 103 1 104 0;#P connect 104 0 112 0;#P connect 84 0 89 1;#P connect 115 0 100 1;#P fasten 110 0 100 1 852 -102 839 -102 839 -173 670 -173;#P connect 112 1 119 0;#P connect 102 0 116 0;#P connect 105 0 107 0;#P connect 107 1 109 0;#P connect 115 0 109 1;#P fasten 110 0 109 1 852 -99 916 -99 916 37 801 37;#P connect 115 0 111 0;#P connect 110 0 111 0;#P pop;