max v2;#N vpatcher 0 44 1280 829;#P origin 0 -392;#P newex 481 19 35 196617 zl reg;#P newex 481 -173 95 196617 route dump bang int;#P newex 481 -135 27 196617 t b l;#P newex 481 -110 40 196617 t l 0 1.;#P newex 481 -78 78 9 unpack 1. 0. 0.;#P newex 570 25 78 9 unpack 1. 1. 1.;#N comlet last message received;#P outlet 600 226 15 0;#N comlet time until next beat (ms);#P outlet 514 225 15 0;#P hidden newex 592 530 27 196617 f;#P newex 719 371 52 9 grab-one;#P hidden newex 592 428 27 196617 t b l;#P hidden newex 592 365 35 196617 del 10;#P hidden newex 592 335 27 196617 t b l;#P hidden newex 479 541 65 196617 pack 1. 0. 0.;#P hidden newex 609 459 75 196617 unpack 1. 0. 0.;#P flonum 197 88 37 9 0 0 0 2006 198 0 14 221 221 221 222 222 222 0 0 0;#P button 183 88 15 0;#P hidden newex 592 285 27 196617 f;#P hidden newex 592 399 35 196617 zl reg;#P hidden newex 592 312 65 196617 pack 1. 0. 0.;#P user multiSlider 8 88 177 15 1. 21. 1 2680 47;#M frgb 0 0 0;#M brgb 255 255 255;#M rgb2 127 127 127;#P message 8 7 181 196617 $1;#P user led 221 7 17 17 0 150;#P newex 426 15 30 196617 == 0;#P newex 426 43 35 196617 mute~;#P newex 389 15 30 196617 == 0;#P newex 389 43 35 196617 mute~;#P hidden newex 351 112 61 196617 prepend set;#P flonum 187 69 37 9 0 0 0 2006 198 0 14 221 221 221 222 222 222 0 0 0;#P hidden button 109 234 15 0;#P hidden message 81 330 50 196617 shadow 5;#P hidden message 2 239 55 196617 shadow -4;#P hidden newex 271 362 35 196617 zl reg;#P hidden newex 330 61 45 196617 loadbang;#P hidden newex 295 123 43 196617 t 1 1. 0;#P flonum 188 128 36 9 0 0 0 2006 0 0 0 221 221 221 222 222 222 0 0 0;#P flonum 188 111 36 9 0 0 0 2006 0 0 0 221 221 221 222 222 222 0 0 0;#P toggle 223 52 15 0;#N vpatcher 30 89 1054 547;#P newex 167 275 27 196617 t f f;#P outlet 138 362 15 0;#P outlet 87 364 15 0;#P newex 79 179 31 196617 sel 2;#P newex 108 118 27 196617 t i i;#P newex 108 90 27 196617 + 1;#P newex 149 170 35 196617 gate 2;#P newex 218 316 70 196617 prepend set 1;#P newex 174 242 39 196617 Lround;#P inlet 108 66 15 0;#P inlet 152 66 15 0;#P connect 6 0 7 0;#P connect 7 0 8 0;#P connect 3 0 8 0;#P connect 1 0 5 0;#P connect 5 0 6 0;#P connect 4 0 9 0;#P connect 10 0 9 0;#P connect 6 1 4 0;#P connect 2 0 10 0;#P connect 0 0 4 1;#P connect 4 1 2 0;#P connect 10 1 3 0;#P pop;#P hidden newobj 239 52 42 196617 p round;#P flonum 187 52 37 9 0 0 128 2006 0 0 0 221 221 221 222 222 222 0 0 0;#P user multiSlider 8 52 176 15 1. 21. 1 2680 47;#M frgb 0 0 0;#M brgb 255 255 255;#M rgb2 127 127 127;#P toggle 223 36 15 0;#N vpatcher 30 89 1054 547;#P newex 167 275 27 196617 t f f;#P outlet 138 362 15 0;#P outlet 87 364 15 0;#P newex 79 179 31 196617 sel 2;#P newex 108 118 27 196617 t i i;#P newex 108 90 27 196617 + 1;#P newex 149 170 35 196617 gate 2;#P newex 218 316 70 196617 prepend set 1;#P newex 174 242 39 196617 Lround;#P inlet 108 66 15 0;#P inlet 152 66 15 0;#P connect 6 0 7 0;#P connect 3 0 8 0;#P connect 7 0 8 0;#P connect 1 0 5 0;#P connect 5 0 6 0;#P connect 10 0 9 0;#P connect 4 0 9 0;#P connect 6 1 4 0;#P connect 2 0 10 0;#P connect 0 0 4 1;#P connect 4 1 2 0;#P connect 10 1 3 0;#P pop;#P hidden newobj 239 36 42 196617 p round;#P comment 74 129 55 196617 ramp time;#P comment 82 112 34 196617 phase;#P hidden newex 296 286 60 196617 pak 1. 0. 0.;#P hidden newex 296 227 27 196617 / 1.;#P hidden newex 296 191 63 196617 unpack 1. 1.;#P hidden newex 296 166 48 196617 pak 1. 1.;#P flonum 187 36 37 9 0 0 0 2006 0 0 0 221 221 221 222 222 222 0 0 0;#P user multiSlider 8 36 176 14 1. 21. 1 2680 47;#M frgb 0 0 0;#M brgb 255 255 255;#M rgb2 127 127 127;#P user multiSlider 9 128 176 15 0. 20000. 1 2680 47;#M frgb 0 0 0;#M brgb 255 255 255;#M rgb2 127 127 127;#P user multiSlider 9 111 176 15 0. 1. 1 2680 47;#M frgb 0 0 0;#M brgb 255 255 255;#M rgb2 127 127 127;#P comment 183 63 10 196622 |;#N comlet bang on je suis arrivŽ;#P outlet 554 226 15 0;#P inlet 481 -193 15 0;#P newex 481 -19 40 9 t l l l;#P newex 548 51 27 9 t b f;#N vpatcher 196 80 1046 791;#P newex 404 80 27 196617 t f b;#P user textedit 613 624 713 674 0 3 9;#P flonum 314 553 35 9 0 0 0 3 0 0 0 221 221 221 222 222 222 0 0 0;#P flonum 70 276 35 9 0 0 0 3 0 0 0 221 221 221 222 222 222 0 0 0;#P user scope~ 612 537 723 617 256 3 128 -1. 1. 0 0. 0 0. 102 255 51 135 135 135 0;#P user scope~ 612 453 723 533 256 3 128 -1. 1. 0 0. 0 0. 102 255 51 135 135 135 0;#P user scope~ 612 369 723 449 256 3 128 -1. 1. 0 0. 0 0. 102 255 51 135 135 135 0;#P user scope~ 612 285 723 365 256 3 128 -1. 1. 0 0. 0 0. 102 255 51 135 135 135 0;#P user scope~ 612 201 723 281 256 3 128 -1. 1. 0 0. 0 0. 102 255 51 135 135 135 0;#P user scope~ 612 117 723 197 256 3 128 -1. 1. 0 0. 0 0. 102 255 51 135 135 135 0;#P user scope~ 612 33 723 113 256 3 128 -1. 1. 0 0. 0 0. 102 255 51 135 135 135 0;#P newex 116 649 98 196617 expr 1./$f1*1000.;#P newex 12 606 27 9 b;#P newex 116 626 54 196617 snapshot~;#P outlet 116 676 15 0;#P newex 40 357 27 196617 + 1.;#P newex 40 329 45 196617 fsplit 0.;#P newex 40 302 27 9 % 1.;#P outlet 296 665 15 0;#P newex 12 543 52 9 >~ 0.001;#P newex 12 576 35 9 edge~;#P inlet 12 24 15 0;#P outlet 12 659 15 0;#P comment 424 39 74 196618 tempo (bps) \; phase \; ligne_temps;#P newex 12 79 32 9 / 60.;#P newex 11 162 45 9 phasor~;#P newex 12 132 32 9 line~;#P newex 12 502 27 9 -~;#P newex 12 106 54 9 pack 1. 1.;#P newex 358 308 27 9 f;#P newex 315 263 27 9 t f b;#P newex 315 336 27 9 + 0.;#P newex 315 365 27 9 / 2.;#P newex 315 403 27 9 * 1.;#P newex 315 429 44 9 / 1000.;#P newex 350 488 27 9 i;#P newex 315 515 27 9 - 0.;#P newex 315 458 27 9 t f f;#P newex 40 274 27 9 + 0.;#P newex 40 426 32 9 line~;#P newex 40 393 54 9 pack 1. 1.;#P newex 56 210 55 9 snapshot~;#P newex 12 51 402 9 unpack 1. 1. 1.;#P newex 40 242 27 9 + 0.;#P comment 448 400 152 196618 tempo moyen sur la variation;#P flonum 389 459 0 14 0 0 13348 13368 0 0 0 221 221 221 222 222 222 0 0 0;#P comment 451 459 139 196618 nb de temps ds la variation;#P flonum 391 403 0 14 0 0 13416 13428 0 0 0 221 221 221 222 222 222 0 0 0;#P flonum 392 542 0 14 0 0 13408 13428 0 0 0 221 221 221 222 222 222 0 0 0;#P comment 440 543 138 196618 dephasage du a la variation;#P comment 158 223 132 196618 phase lors du changement;#P flonum 113 224 0 14 0 0 13444 13476 0 0 0 221 221 221 222 222 222 0 0 0;#P comment 160 265 81 196618 dephasage total;#P flonum 112 265 0 14 0 0 13444 13476 0 0 0 221 221 221 222 222 222 0 0 0;#P comment 182 439 80 196618 nouvelle phase;#P flonum 132 438 0 14 0 0 13444 13476 0 0 0 221 221 221 222 222 222 0 0 0;#P flonum 417 301 0 14 0 0 13444 13476 0 0 0 221 221 221 222 222 222 0 0 0;#P flonum 416 333 0 14 0 0 13444 13476 0 0 0 221 221 221 222 222 222 0 0 0;#P connect 31 0 32 0;#P connect 36 0 15 0;#P connect 15 0 33 0;#P connect 33 0 29 0;#P connect 29 0 31 0;#P connect 32 0 30 0;#P connect 30 0 38 0;#P connect 38 0 37 0;#P connect 37 0 45 0;#P connect 45 0 35 0;#P connect 18 0 30 1;#P connect 21 0 14 0;#P connect 14 0 19 0;#P connect 19 0 40 0;#P connect 40 0 41 0;#P connect 41 0 42 0;#P connect 41 1 17 0;#P connect 42 0 17 0;#P connect 17 0 18 0;#P connect 57 0 29 1;#P connect 32 0 16 0;#P connect 57 1 16 0;#P connect 16 0 14 1;#P connect 15 1 19 1;#P connect 15 1 54 0;#P connect 57 0 17 1;#P fasten 31 0 44 0 410 216 410 439;#P connect 45 1 44 0;#P connect 44 0 46 0;#P connect 46 0 43 0;#P connect 18 1 39 0;#P connect 21 0 55 0;#P connect 33 0 27 0;#P connect 27 0 26 0;#P connect 26 0 25 0;#P connect 25 0 24 0;#P connect 24 0 23 0;#P connect 23 0 20 0;#P connect 20 0 21 0;#P connect 28 0 26 1;#P connect 57 0 24 1;#P connect 22 0 21 1;#P connect 20 1 22 0;#P connect 27 1 28 0;#P connect 27 0 28 1;#P connect 15 2 57 0;#P connect 31 0 47 0;#P connect 32 0 48 0;#P connect 18 0 49 0;#P connect 30 0 50 0;#P connect 17 0 56 0;#P pop;#P newobj 481 196 71 9 patcher syncr;#N vpatcher 317 102 1025 767;#P user textedit 170 585 270 635 0 3 9;#P user textedit 538 530 638 580 0 3 9;#P user textedit 536 439 636 489 0 3 9;#P user textedit 536 349 636 399 0 3 9;#P user textedit 532 210 632 260 0 3 9;#P user textedit 534 278 634 328 0 3 9;#P outlet 19 614 15 0;#P inlet 19 17 15 0;#P inlet 68 17 15 0;#P inlet 116 17 15 0;#P inlet 165 17 15 0;#P newex 19 139 27 9 f;#P newex 288 34 156 9 r $1.speed_ref;#P newex 68 90 27 9 * 1.;#P newex 19 587 84 9 pack 1. 0. 1000.;#P newex 19 50 30 9 t b b;#P newex 253 81 32 9 / 60.;#P newex 261 161 83 9 pd.swap 1000 0;#P newex 261 200 27 9 / 1.;#P newex 261 227 27 9 i;#P newex 216 272 27 9 % 1.;#P newex 454 35 209 9 receive~ $1.phase_rythme;#P newex 393 79 55 9 snapshot~;#P newex 393 131 27 9 / 1.;#P newex 199 322 27 9 + 0.;#P newex 198 404 27 9 - 0.;#P newex 198 376 27 9 f;#P newex 188 346 27 9 t b f;#P newex 51 548 27 9 + 0.;#P newex 198 481 27 9 * 1.;#P newex 202 439 44 9 / 1000.;#P newex 148 438 32 9 / 60.;#P newex 392 157 43 9 * 1000.;#P flonum 296 263 0 14 0 0 27008 1000 0 0 0 221 221 221 222 222 222 0 0 0;#P flonum 242 292 0 14 0 0 27008 1000 0 0 0 221 221 221 222 222 222 0 0 0;#P comment 234 317 186 196618 temps de la transfo % 1. une periode;#P flonum 408 105 0 14 0 0 13360 13584 0 0 0 221 221 221 222 222 222 0 0 0;#P comment 449 181 165 196618 temps depuis la derniere syncro;#P comment 292 283 152 196618 duree d'une periode de syncro;#P flonum 211 433 0 14 0 0 13600 13404 0 0 0 221 221 221 222 222 222 0 0 0;#P comment 271 433 261 196618 temps entre la fin de la transfo et le prochain calage;#P flonum 212 511 0 14 0 0 13368 13692 0 0 0 221 221 221 222 222 222 0 0 0;#P comment 264 512 141 196618 dephasage pendant ce temps;#P flonum 401 184 0 14 0 0 13764 13416 0 0 0 221 221 221 222 222 222 0 0 0;#P connect 36 0 28 0;#P connect 28 0 32 0;#P connect 32 0 29 0;#P connect 29 0 37 0;#P connect 30 0 32 1;#P connect 14 0 15 0;#P connect 15 0 29 1;#P connect 35 0 30 0;#P connect 34 0 15 1;#P connect 31 0 30 1;#P connect 33 0 29 2;#P connect 30 0 12 0;#P connect 15 0 43 0;#P connect 19 0 16 0;#P connect 16 0 17 0;#P connect 17 0 18 0;#P connect 13 0 14 0;#P connect 11 0 19 0;#P connect 18 0 13 0;#P connect 24 0 17 1;#P connect 16 1 18 1;#P connect 12 0 14 1;#P connect 33 0 23 0;#P connect 23 0 19 1;#P connect 24 0 23 1;#P connect 31 0 27 0;#P connect 27 0 26 0;#P connect 26 0 25 0;#P connect 25 0 24 0;#P connect 26 1 25 1;#P connect 20 0 11 0;#P connect 22 0 21 0;#P connect 28 1 21 0;#P connect 21 0 20 0;#P connect 27 0 20 1;#P connect 11 0 39 0;#P connect 11 0 38 0;#P connect 25 0 40 0;#P connect 23 0 41 0;#P connect 14 0 42 0;#P pop;#P newobj 481 166 105 9 patcher calcul_tempo;#N comlet bang on beat;#P hidden outlet 481 223 15 0;#P comment 179 28 10 196622 |;#P comment 168 22 10 196622 |;#P comment 160 28 10 196622 |;#P comment 151 28 10 196622 |;#P comment 142 28 10 196622 |;#P comment 134 28 10 196622 |;#P comment 125 22 10 196622 |;#P comment 116 28 10 196622 |;#P comment 107 28 10 196622 |;#P comment 99 28 10 196622 |;#P comment 91 28 10 196622 |;#P comment 81 22 10 196622 |;#P comment 73 28 10 196622 |;#P comment 64 28 10 196622 |;#P comment 55 28 10 196622 |;#P comment 47 28 10 196622 |;#P comment 38 22 10 196622 |;#P comment 29 28 10 196622 |;#P comment 21 28 10 196622 |;#P comment 13 28 10 196622 |;#P comment 4 28 10 196622 |;#P comment 179 57 10 196622 |;#P comment 168 61 10 196622 |;#P comment 160 57 10 196622 |;#P comment 151 57 10 196622 |;#P comment 142 57 10 196622 |;#P comment 134 57 10 196622 |;#P comment 125 61 10 196622 |;#P comment 116 57 10 196622 |;#P comment 107 57 10 196622 |;#P comment 99 57 10 196622 |;#P comment 91 57 10 196622 |;#P comment 81 61 10 196622 |;#P comment 73 57 10 196622 |;#P comment 64 57 10 196622 |;#P comment 55 57 10 196622 |;#P comment 47 57 10 196622 |;#P comment 38 61 10 196622 |;#P comment 29 57 10 196622 |;#P comment 21 57 10 196622 |;#P comment 13 57 10 196622 |;#P comment 4 57 10 196622 |;#P user ubutton 1 1 242 150 0 2;#P user panel 2 1 240 150;#X brgb 180 100 220;#X frgb 0 0 0;#X border 1;#X rounded 20;#X shadow 5;#X done;#P hidden newex 592 559 65 196617 pack 1. 0. 0.;#P hidden connect 74 0 1 0;#P hidden connect 75 0 1 0;#P hidden connect 2 1 74 0;#P hidden connect 71 1 55 0;#P hidden connect 101 0 55 0;#P hidden connect 63 0 55 0;#P hidden connect 71 1 65 0;#P hidden connect 102 2 65 0;#P hidden connect 67 0 65 0;#P hidden connect 101 1 53 0;#P hidden connect 101 2 54 0;#P hidden connect 2 0 75 0;#P hidden connect 2 0 76 0;#P hidden fasten 104 1 76 0 265 -78;#P hidden connect 103 0 76 0;#P hidden connect 84 0 76 0;#P hidden connect 63 1 56 0;#P hidden connect 67 1 66 0;#P hidden connect 78 0 77 0;#P hidden connect 53 0 69 0;#P hidden connect 54 0 70 0;#P hidden connect 85 0 90 0;#P hidden connect 104 2 83 0;#P hidden connect 71 2 83 0;#P hidden connect 71 0 64 0;#P hidden connect 102 1 64 0;#P hidden connect 71 0 68 0;#P hidden connect 64 0 63 0;#P hidden connect 68 0 67 0;#P hidden connect 55 0 63 1;#P hidden connect 65 0 67 1;#P hidden connect 76 0 73 0;#P hidden connect 72 0 71 0;#P hidden connect 56 0 57 0;#P hidden connect 57 0 58 0;#P hidden connect 58 0 59 0;#P hidden connect 59 0 60 0;#P hidden connect 77 0 60 0;#P hidden connect 60 0 73 1;#P hidden connect 58 1 59 1;#P hidden connect 69 0 60 1;#P hidden connect 66 0 57 1;#P hidden connect 70 0 60 2;#P hidden connect 59 0 78 0;#P hidden fasten 83 0 80 0 360 -20;#P connect 80 0 79 0;#P hidden fasten 83 0 82 0 359 -42;#P connect 82 0 81 0;#P connect 91 0 92 0;#P connect 50 0 104 0;#P connect 104 3 103 0;#P connect 103 1 102 0;#P connect 102 0 101 0;#P fasten 93 1 49 0 612 354 726 354 726 -35 486 -35;#P fasten 0 0 49 0 597 582 833 582 833 -35 486 -35;#P fasten 73 0 49 0 276 580 832 580 832 -36 486 -36;#P fasten 92 0 49 0 484 583 829 583 829 -36 486 -36;#P fasten 104 0 105 0 586 -109 586 -19;#P connect 49 0 105 0;#P connect 48 0 46 0;#P connect 81 0 46 0;#P connect 46 0 47 0;#P connect 79 0 47 0;#P connect 47 0 45 0;#P connect 91 1 92 1;#P connect 48 1 46 1;#P connect 47 1 98 0;#P connect 91 2 92 2;#P connect 100 1 46 2;#P connect 100 0 48 0;#P connect 47 2 51 0;#P connect 49 1 100 0;#P connect 100 2 46 3;#P hidden connect 89 0 88 0;#P hidden connect 88 0 86 0;#P connect 86 0 93 0;#P connect 93 0 94 0;#P connect 94 0 87 0;#P connect 87 0 95 0;#P connect 96 1 97 0;#P connect 97 0 0 0;#P fasten 105 0 99 0 605 158;#P hidden connect 85 0 88 1;#P connect 95 1 91 0;#P connect 91 0 97 1;#P connect 60 0 87 1;#P connect 47 2 96 0;#P connect 95 0 96 1;#P pop;