max v2;#N vpatcher 0 44 346 326;#P origin -10 -7;#P bpatcher 8 23 493 25 -5 -24 ali.pluggo-info.pat 0 "frequency domain recorder/player";#P window setfont "Sans Serif" 9.;#P window linecount 1;#P hidden newex 98 292 100 196617 bgcolor 255 253 18;#P hidden newex 31 309 48 196617 loadbang;#P hidden message 31 328 61 196617 windowsize;#N plugconfig;#C useviews 1 1 1 1;#C numprograms 64;#C preempt 1;#C sigvschange 1;#C sigvsdefault 32;#C windowsize;#C defaultview Interface 0 0 0;#C dragscroll 1;#C noinfo;#C package ????;#C uniqueid 128 182 76;#C initialpgm 1;#P hidden newobj 31 345 55 196617 plugconfig;#P user number~ 816 665 889 680 9 3 3 2 0. 0. 0 0. 250 0. 0 0 0 221 221 221 222 222 222 0 0 0;#P newex 1126 411 85 196617 pvar dest_slider;#B color 4;#P window setfont Arial 9.;#P comment 240 155 50 131137545 play head;#P comment 240 144 59 131137545 record head;#P window setfont "Sans Serif" 9.;#P newex 201 709 27 196617 *~;#P message 241 664 37 196617 \$1 30;#P newex 241 685 32 196617 line~;#P newex 241 631 50 196617 pvar dry;#B color 4;#P message 384 697 37 196617 \$1 30;#P newex 361 718 32 196617 line~;#P newex 324 718 27 196617 *~;#P newex 380 664 51 196617 pvar wet;#B color 4;#P window setfont Arial 9.;#P comment 240 221 38 131137545 wet lev;#P comment 240 208 38 131137545 dry lev;#P user multiSlider 40 220 200 13 0. 1. 1 2936 47 0 1 2 0 0 0;#M frgb 83 83 83;#M brgb 173 173 173;#M rgb2 127 127 127;#M rgb3 0 0 0;#M rgb4 37 52 91;#M rgb5 74 105 182;#M rgb6 112 158 18;#M rgb7 149 211 110;#M rgb8 187 9 201;#M rgb9 224 62 37;#M rgb10 7 114 128;#P objectname wet;#P user multiSlider 40 208 200 13 0. 1. 1 2936 47 0 1 2 0 0 0;#M frgb 83 83 83;#M brgb 173 173 173;#M rgb2 127 127 127;#M rgb3 0 0 0;#M rgb4 37 52 91;#M rgb5 74 105 182;#M rgb6 112 158 18;#M rgb7 149 211 110;#M rgb8 187 9 201;#M rgb9 224 62 37;#M rgb10 7 114 128;#P objectname dry;#P window setfont "Sans Serif" 9.;#P newex 286 777 31 196617 dac~;#P newex 509 245 27 196617 +~;#P newex 509 219 42 196617 plugin~;#P toggle 491 595 15 0;#P newex 262 319 48 196617 loadbang;#P newex 323 687 27 196617 *~;#P newex 426 416 82 196617 pvar outputmult;#B color 4;#P message 426 439 37 196617 \$1 30;#P newex 426 470 44 196617 line~ 2.;#P button 227 54 13 0;#P objectname done;#P newex 278 750 48 196617 plugout~;#P toggle 463 56 15 0;#P message 397 72 31 196617 open;#N sfplay~  2 120960 0 ;#P newobj 397 115 53 196617 sfplay~ 2;#P message 463 73 43 196617 loop \$1;#P toggle 436 72 15 0;#P newex 653 456 54 196617 pvar done;#B color 4;#P window setfont Arial 9.;#P comment 240 183 47 131137545 ramptime;#P comment 240 170 68 131137545 destination;#P window setfont "Sans Serif" 9.;#P comment 42 173 21 196617 go!;#P newex 770 604 73 196617 pvar playhead;#B color 4;#P newex 730 469 84 196617 pvar recordhead;#B color 4;#P newex 596 674 30 196617 t b s;#P newex 870 112 64 196617 pvar record;#B color 4;#P user led 40 49 17 17 0 150;#P objectname record;#P window setfont Arial 9.;#P comment 240 196 68 131137545 pitch-var;#P flonum 209 194 31 9 0 0 32 2001 0 0 0 221 221 221 222 222 222 0 0 0;#P objectname pitch-trans;#P window setfont "Sans Serif" 9.;#P hidden newex -35 191 71 196617 prepend set 1;#P user multiSlider 40 194 170 13 -1200. 1200. 1 2936 47 0 1 2 0 0 0;#M frgb 83 83 83;#M brgb 173 173 173;#M rgb2 127 127 127;#M rgb3 0 0 0;#M rgb4 37 52 91;#M rgb5 74 105 182;#M rgb6 112 158 18;#M rgb7 149 211 110;#M rgb8 187 9 201;#M rgb9 224 62 37;#M rgb10 7 114 128;#P newex 585 586 85 196617 pvar pitch-trans;#B color 4;#P newex 871 410 44 196617 pvar go;#B color 4;#P newex 1044 412 73 196617 pvar desttime;#B color 4;#P newex 983 413 53 196617 pvar dest;#B color 4;#P window setfont Arial 9.;#P flonum 209 180 31 9 0 0 32 2001 0 0 0 221 221 221 222 222 222 0 0 0;#P objectname desttime;#P flonum 209 168 31 9 0 0 32 2001 0 0 0 221 221 221 222 222 222 0 0 0;#P objectname dest;#P user multiSlider 40 155 200 12 0. 10000. 1 2936 47 0 1 2 0 0 0;#M frgb 2 214 0;#M brgb 173 173 173;#M rgb2 127 127 127;#M rgb3 0 0 0;#M rgb4 37 52 91;#M rgb5 74 105 182;#M rgb6 112 158 18;#M rgb7 149 211 110;#M rgb8 187 9 201;#M rgb9 224 62 37;#M rgb10 7 114 128;#P objectname playhead;#P button 40 168 25 0;#P objectname go;#P user multiSlider 40 143 200 13 0. 10000. 1 2936 47 0 1 2 0 0 0;#M frgb 166 0 0;#M brgb 173 173 173;#M rgb2 127 127 127;#M rgb3 0 0 0;#M rgb4 37 52 91;#M rgb5 74 105 182;#M rgb6 112 158 18;#M rgb7 149 211 110;#M rgb8 187 9 201;#M rgb9 224 62 37;#M rgb10 7 114 128;#P objectname recordhead;#P window setfont "Sans Serif" 9.;#P user waveform~ 40 68 200 74 3 9;#W mode select;#W mouseoutput continuous;#W unit ms;#W grid 1000.;#W ticks 0;#W labels 0;#W vlabels 0;#W vticks 0;#W bpm 120. 4.;#W frgb 33 0 0;#W brgb 60 178 173;#W rgb2 0 95 255;#W rgb3 0 0 0;#W rgb4 0 0 0;#W rgb5 190 137 255;#W rgb6 100 100 100;#W rgb7 100 100 100;#P objectname waveform;#P newex 618 458 27 196617 t f f;#P newex 1012 276 66 196617 prepend size;#P newex 1001 240 40 196617 t i i i;#P message 902 192 120 196617 /buffer-name $0circbuf;#P newex 899 160 32 196617 sel 1;#P newex 877 135 40 196617 t i i i;#P newex 555 139 40 196617 t s b s;#P newex 637 711 149 196617 pack set $0circbuf 5 0. 0. 120;#P newex 587 183 62 196617 prepend set;#P newex 736 142 27 196617 t b l;#P newex 759 170 64 196617 unpack 1. 1.;#P newex 736 85 245 196617 OSC-route /dest /buffer-name /record /delay-size;#P inlet 736 55 15 0;#P inlet 682 80 15 0;#P newex 730 445 70 196617 snapshot~ 20;#P newex 730 406 35 196617 *~ 1.;#P newex 985 496 47 196617 * 1000.;#P comment 1310 485 96 196617 ...in this much time;#P comment 1310 470 52 196617 go here...;#P comment 1310 455 52 196617 play head;#P newex 770 576 70 196617 snapshot~ 20;#P newex 262 349 98 196617 t 1. 1. 0.07 120. 1.;#P button 921 407 26 0;#P newex 895 508 36 196617 zl reg;#P newex 921 473 49 196617 pak 1. 1.;#P newex 578 412 56 196617 line~ 0.07;#P newex 561 513 58 196617 %~ 10000;#P newex 561 487 55 196617 +~ 10000;#P newex 561 450 27 196617 -~;#P newex 856 344 85 196617 prepend range 0.;#P newex 682 406 35 196617 *~ 1.;#P newex 778 305 105 196617 info~ $0circbuf;#P toggle 784 263 15 0;#P newex 921 227 48 196617 loadbang;#P message 921 261 72 196617 set $0circbuf;#P newex 921 308 80 196617 pvar waveform;#B color 4;#P message 810 262 37 196617 loop 1;#P newex 682 305 94 196617 record~ $0circbuf;#P newex 1012 303 125 196617 buffer~ $0circbuf 10000;#P toggle 215 745 15 0;#N vpatcher 332 152 932 552;#P window setfont "Sans Serif" 9.;#P message 218 129 75 196617 pitch-scale \$1;#P newex 210 86 97 196617 cents-to-playspeed;#P newex 394 123 48 196617 loadbang;#P message 383 193 163 196617 abs-loc 1 \, buffer-name $0circbuf;#P inlet 209 50 15 0;#P newex 134 296 67 196617 fade-in-out~;#P outlet 134 350 15 0;#P newex 134 196 61 196617 prepend loc;#P toggle 266 152 15 0;#P message 254 194 34 196617 go \$1;#P inlet 134 50 15 0;#P newex 134 133 70 196617 snapshot~ 10;#P inlet 456 50 15 0;#P newex 134 262 135 196617 pfft~ ali.fstretch2~ 1024 4;#P connect 3 0 2 0;#P connect 2 0 6 0;#P connect 10 0 0 0;#P connect 6 0 0 0;#P connect 4 0 0 0;#P connect 13 0 0 0;#P connect 0 0 8 0;#P fasten 8 0 7 0 139 314;#P fasten 5 0 8 1 312 210 312 283;#P connect 9 0 12 0;#P connect 12 0 13 0;#P connect 5 0 4 0;#P connect 1 0 5 0;#P connect 11 0 10 0;#P pop;#P newobj 320 642 160 196617 p no more sogs;#P comment 312 321 73 196617 set everything;#P comment 1310 442 63 196617 record head;#P user multiSlider 64 180 146 13 0. 10000. 1 2936 47 0 1 2 0 0 0;#M frgb 83 83 83;#M brgb 173 173 173;#M rgb2 127 127 127;#M rgb3 0 0 0;#M rgb4 37 52 91;#M rgb5 74 105 182;#M rgb6 112 158 18;#M rgb7 149 211 110;#M rgb8 187 9 201;#M rgb9 224 62 37;#M rgb10 7 114 128;#P user multiSlider 64 168 146 13 0. 10. 1 2936 47 0 1 2 0 0 0;#M frgb 83 83 83;#M brgb 173 173 173;#M rgb2 127 127 127;#M rgb3 0 0 0;#M rgb4 37 52 91;#M rgb5 74 105 182;#M rgb6 112 158 18;#M rgb7 149 211 110;#M rgb8 187 9 201;#M rgb9 224 62 37;#M rgb10 7 114 128;#P objectname dest_slider;#P hidden connect 57 0 56 0;#P hidden connect 102 0 101 0;#P hidden connect 101 0 100 0;#P hidden connect 56 0 55 0;#P connect 82 0 95 0;#P hidden connect 0 0 49 0;#P hidden connect 1 0 50 0;#P hidden connect 55 0 57 0;#P connect 93 0 95 1;#P connect 23 0 92 0;#P connect 92 0 94 0;#P connect 94 0 93 0;#P connect 79 0 23 0;#P connect 89 0 73 0;#P connect 95 0 73 0;#P connect 5 0 83 0;#P connect 73 0 83 0;#P connect 73 1 83 1;#P connect 95 0 73 1;#P connect 89 0 73 1;#P connect 18 0 4 0;#P connect 4 0 78 0;#P connect 78 0 89 0;#P connect 75 0 78 1;#P connect 90 0 89 1;#P connect 91 0 90 0;#P connect 23 1 88 0;#P connect 88 0 91 0;#P connect 54 0 4 1;#P connect 71 0 70 0;#P connect 69 0 70 0;#P connect 68 0 70 0;#P connect 23 4 77 0;#P connect 77 0 76 0;#P connect 76 0 75 0;#P connect 72 0 69 0;#P connect 80 0 4 2;#P fasten 39 2 80 0 1173 228 1173 531 742 672;#P connect 70 0 81 0;#P connect 81 0 82 0;#P connect 81 1 82 1;#P connect 70 1 81 1;#P fasten 33 1 38 0 820 133 666 133 612 121;#P connect 14 0 16 0;#P connect 16 0 17 0;#P connect 17 0 18 0;#P fasten 23 2 19 0 329 399 428 347;#P connect 21 0 19 0;#P connect 19 0 16 1;#P connect 23 3 54 0;#P connect 38 2 36 0;#P fasten 38 0 61 0 560 655;#P connect 44 0 17 1;#P connect 44 1 18 1;#P fasten 42 2 44 0 1036 522 748 556;#P connect 61 0 37 0;#P connect 19 1 67 0;#P connect 61 1 37 1;#P connect 82 0 7 0;#P connect 31 0 7 0;#P connect 8 0 7 0;#P connect 12 0 7 0;#P connect 7 0 14 0;#P connect 13 6 14 1;#P connect 7 0 29 0;#P connect 29 0 30 0;#P connect 30 0 62 0;#P connect 32 0 33 0;#P fasten 41 0 33 0 984 160 953 77;#P connect 33 0 35 0;#P connect 54 0 37 4;#P connect 13 6 29 1;#P connect 35 1 34 0;#P connect 18 0 24 0;#P connect 24 0 63 0;#P connect 11 0 13 0;#P fasten 38 1 13 0 575 220;#P connect 36 0 13 0;#P connect 39 0 12 0;#P connect 11 0 8 0;#P connect 18 0 99 0;#P connect 13 6 15 0;#P connect 33 2 60 0;#P connect 35 0 53 0;#P connect 60 0 39 0;#P connect 22 0 21 0;#P connect 39 1 40 0;#P connect 40 0 41 0;#P connect 11 0 10 0;#P connect 10 0 9 0;#P connect 53 0 22 0;#P connect 28 0 20 0;#P connect 20 0 21 1;#P connect 52 0 20 1;#P fasten 23 2 51 0 350 407 486 328;#P connect 34 0 51 0;#P connect 51 0 28 0;#P connect 33 3 42 0;#P connect 42 1 43 0;#P connect 43 0 6 0;#P connect 34 1 52 0;#P pop;