max v2;#N vpatcher 3 47 977 547;#P newex 515 312 75 196617 s init-ali.jToop;#P button 515 257 44 0;#P flonum 556 81 61 9 0 0 0 3 0 0 0 221 221 221 222 222 222 0 0 0;#P button 501 140 15 0;#P newex 455 52 39 196617 adc~ 5;#P toggle 521 80 15 0;#P user multiSlider 501 48 233 23 0. 0.01 1 2680 47;#M frgb 0 0 0;#M brgb 255 255 255;#M rgb2 127 127 127;#P newex 481 105 72 196617 attack-sensor;#P newex 384 415 82 196617 pattern-player~;#P flonum 66 186 35 9 0 0 0 3 0 0 0 221 221 221 222 222 222 0 0 0;#P newex 546 168 81 196617 pattern-tracker;#P bpatcher 206 238 168 77 0 0 ali.phasor-flex~ 0;#P newex 206 212 45 196617 phasor~;#P bpatcher 206 331 141 256 0 0 pattern-player~ 0;#P bpatcher 205 87 169 89 0 0 pattern-tracker 0;#P user multiSlider 102 186 376 17 0. 2. 1 2680 47;#M frgb 0 0 0;#M brgb 255 255 255;#M rgb2 127 127 127;#P toggle 81 27 34 0;#P newex 215 43 75 196617 ali.front 108 1;#P newex 7 43 70 196617 ali.front 97 1;#P newex 206 638 27 196617 f 0.4;#P button 206 619 15 0;#P newex 559 611 158 196617 ali.resonators~ Pipe3.res.coll 30;#P toggle 444 659 15 0;#P newex 461 658 30 196617 dac~;#P newex 25 638 31 196617 f 0.7;#P button 25 619 15 0;#P newex 339 611 213 196617 ali.resonators~ Mirdangam-low-1.m6.coll 30;#P bpatcher 25 238 168 77 0 0 ali.phasor-flex~ 0;#P newex 25 212 45 196617 phasor~;#P bpatcher 25 331 141 255 0 0 pattern-player~ 0;#P bpatcher 24 87 169 89 0 0 pattern-tracker 0;#P fasten 23 0 0 0 486 137 438 137 438 72 29 72;#P connect 12 2 0 0;#P fasten 14 0 0 0 86 71 29 71;#P fasten 15 0 2 0 107 209 30 209;#P connect 2 0 3 0;#P connect 3 0 1 0;#P connect 1 0 5 0;#P connect 5 0 6 0;#P connect 15 0 21 0;#P connect 0 2 15 0;#P fasten 0 4 1 1 185 218 200 218 200 322 161 322;#P fasten 23 0 16 0 486 134 442 134 442 70 210 70;#P connect 13 2 16 0;#P fasten 14 0 16 0 86 70 210 70;#P fasten 15 0 18 0 107 209 211 209;#P connect 18 0 19 0;#P connect 19 0 17 0;#P connect 17 0 10 0;#P connect 10 0 11 0;#P fasten 16 4 17 1 366 218 381 218 381 322 342 322;#P connect 6 0 4 0;#P connect 9 0 7 0;#P connect 8 0 7 0;#P connect 4 0 7 0;#P connect 26 0 23 0;#P connect 4 0 7 1;#P connect 9 0 7 1;#P connect 24 0 23 1;#P connect 23 0 27 0;#P connect 29 0 30 0;#P connect 25 0 23 2;#P connect 24 0 28 0;#P connect 11 0 9 0;#P pop;