max v2;#N vpatcher 0 44 250 196;#P origin 0 -107;#N comlet status report;#P outlet 475 200 15 0;#P window setfont "Sans Serif" 9.;#P newex 240 -62 57 196617 route done;#P newex 186 -112 48 196617 loadbang;#P newex 186 -89 64 196617 patcherargs;#P hidden newex 202 279 78 196617 prepend /types;#P user ubumenu 186 79 43 196617 0 1 1 0;#X add AIFF;#X add WAVE;#X prefix_set 0 0 0 0;#N comlet to ubmenu;#P hidden inlet 428 4 15 0;#N comlet ubmenu's 2nd outlet;#P outlet 448 200 15 0;#P user umenu 2 116 227 196647 1 1000 132 1;#N coll $1;#P newobj 53 98 176 196617 coll $1;#N vpatcher 2 44 669 791;#P inlet 567 29 15 0;#P window setfont "Sans Serif" 9.;#N thispatcher;#Q end;#P newobj 567 53 59 196617 thispatcher;#P connect 1 0 0 0;#P pop;#P newobj 2 98 50 196617 p buffers;#N comlet file just read;#P outlet 428 200 15 0;#P objectname file;#P message 193 4 36 196617 /clear;#B color 5;#P message 78 4 36 196617 /clear;#B color 5;#N comlet bang when doen;#P outlet 393 200 15 0;#P hidden newex 5 254 49 196617 strippath;#P comment 128 39 89 196617 drag a folder here;#P comment 19 39 75 196617 drag a file here;#P hidden newex 120 279 79 196617 prepend /folder;#P user dropfile 120 7 226 92 0;#P user panel 117 4 112 91;#X brgb 120 59 255;#X frgb 0 0 0;#X border 1;#X rounded 0;#X shadow 0;#X done;#P hidden newex 5 279 65 196617 prepend /file;#N comlet open #0-ali.multibuf-buffers collection;#P hidden inlet 358 5 15 0;#P newex 358 281 75 196617 loadmess clear;#P newex 323 116 65 196617 route symbol;#N coll $1 1;#P newobj 323 95 136 196617 coll $1 1;#N comlet output of #1.coll collection;#P outlet 323 199 15 0;#N comlet message to #1.coll collection;#P inlet 323 5 15 0;#N comlet connect to umenu/ubmenu;#P outlet 358 199 15 0;#N comlet OSC: /coll \, /clear \, /file \, /folder \, /multicoll;#P inlet 288 5 15 0;#N vpatcher 9 45 1199 773;#N comlet file name;#P outlet 692 653 15 0;#P window setfont "Sans Serif" 9.;#N vpatcher 20 74 838 786;#P window setfont "Sans Serif" 9.;#P window linecount 1;#P newex 325 262 24 196617 t 1.;#P window linecount 0;#P newex 321 200 78 196617 route 0 0. bang;#P window linecount 1;#P newex 109 524 49 196617 route int;#P newex 117 588 98 196617 pack normalize 1 1.;#P window linecount 0;#P message 97 403 63 196617 getChannels;#P window linecount 1;#P newex 108 554 40 196617 uzi;#P newex 225 343 62 196617 prepend set;#P newex 154 287 30 196617 t b s;#P newex 182 221 69 196617 route symbol;#P newex 109 492 143 196617 mxj buf.Op foo;#P window linecount 0;#P newex 179 126 47 196617 t dump f;#N coll $1 1;#P newobj 179 170 53 196617 coll $1 1;#P inlet 140 65 15 0;#P connect 5 0 8 0;#P connect 10 0 7 0;#P fasten 9 0 3 0 92 627 49 557;#P connect 8 0 3 0;#P connect 6 0 3 0;#P connect 3 0 10 0;#P connect 7 0 9 0;#P connect 4 1 5 0;#P connect 4 0 5 0;#P connect 7 2 9 1;#P connect 0 0 2 0;#P connect 2 0 1 0;#P connect 1 0 4 0;#P fasten 11 3 9 2 415 454 342 558;#P fasten 12 0 9 2 337 492;#P connect 5 1 6 0;#P connect 2 1 11 0;#P connect 11 2 12 0;#P connect 11 1 12 0;#P connect 11 0 12 0;#P pop;#P newobj 941 245 62 196617 p normalize;#P window linecount 1;#P message 164 285 82 196617 substitute jenga;#P newex 163 264 48 196617 loadbang;#P newex 173 401 47 196617 t import;#P newex 118 401 50 196617 t replace;#P newex 119 376 48 196617 route -1;#P newex 124 216 53 196617 t b s -1 s;#P newex 119 348 36 196617 zl reg;#P newex 118 309 66 196617 regexp .mp3;#N comlet OSC: /coll \, /clear \, /file;#P inlet 1100 101 15 0;#P window linecount 0;#P newex 1020 184 35 196617 t open;#N comlet OSC: /coll \, /clear \, /file;#P inlet 1020 104 15 0;#N comlet bang when done;#P outlet 1061 651 15 0;#N comlet status report;#P outlet 994 651 15 0;#P newex 433 402 27 196617 - 1;#P newex 850 480 75 196617 prepend append;#P newex 899 448 38 196617 t clear;#N comlet file name;#P outlet 899 651 15 0;#P button 899 362 15 0;#P message 736 468 14 196617 1;#P newex 736 434 45 196617 loadbang;#P newex 98 529 98 196617 pack s s s replace s;#P newex 98 484 144 196617 sprintf script send buffer-%d;#N vpatcher 72 123 628 640;#N comlet OSC messages;#P outlet 422 469 15 0;#P window setfont "Sans Serif" 9.;#P newex 158 402 65 196617 route symbol;#P newex 184 427 45 196617 unpack s;#P newex 254 337 244 196617 sprintf loading collections from multicollection %s...;#P comment 209 285 183 196617 Dump the collection \, treating the first symbol on each line as a /coll message.;#P newex 212 229 100 196617 sprintf store %s %s;#P newex 197 205 40 196617 t s s s;#P newex -11 275 193 196617 sprintf multicollection %s already loaded;#P newex 224 47 40 196617 t s s b;#P message 198 146 14 196617 1;#P message 170 146 14 196617 0;#P newex 152 125 28 196617 t s b;#P newex 197 179 27 196617 gate;#N comlet Bang when multibuffer is cleared;#P inlet 110 53 15 0;#P message 110 74 31 196617 clear;#N coll ;#P newobj 152 100 53 196617 coll;#P newex 184 448 68 196617 prepend /coll;#P message 253 365 95 196617 ...collections loaded;#P newex 197 314 53 196617 t b b s s;#P newex 173 359 70 196617 prepend refer;#N coll mouth.coll;#P newobj 158 382 53 196617 coll;#P message 140 360 31 196617 dump;#N comlet OSC messages;#P outlet 184 469 15 0;#N comlet Coll name;#P inlet 224 26 15 0;#P comment 40 99 109 196617 All the multicollections that have been loaded into this object.;#P comment 227 164 80 196617 Test whether this collection is already loaded;#P comment 251 446 147 196617 Not "sprintf /coll %s" because of symbols with spaces in them;#P connect 15 0 19 0;#P connect 13 0 12 0;#P connect 8 1 5 0;#P fasten 21 0 11 0 217 251 322 251 322 82 157 82;#P connect 18 1 11 0;#P connect 12 0 11 0;#P connect 11 0 15 0;#P connect 7 0 6 0;#P connect 5 0 6 0;#P connect 6 0 25 0;#P connect 15 1 16 0;#P connect 8 2 7 0;#P connect 25 0 24 0;#P connect 25 1 24 0;#P connect 24 0 10 0;#P connect 10 0 4 0;#P connect 17 0 14 0;#P connect 16 0 14 0;#P connect 14 0 20 0;#P connect 20 0 8 0;#P connect 18 2 17 0;#P connect 20 1 21 0;#P connect 18 0 14 1;#P connect 3 0 18 0;#P connect 8 0 9 0;#P connect 8 3 23 0;#P connect 20 2 21 1;#P connect 23 0 26 0;#P connect 9 0 26 0;#P connect 19 0 26 0;#P pop;#P newobj 606 252 57 196617 p multicoll;#P outlet 448 651 15 0;#P newex 448 517 100 196617 sprintf store %d %s;#P message 522 539 31 196617 clear;#P newex 704 537 101 196617 sprintf reading %s...;#P newex 704 512 27 196617 gate;#P newex 306 488 131 196617 pack s s s s i i i i s s;#N vpatcher 136 105 671 765;#P origin 0 5;#P window setfont "Sans Serif" 9.;#P window linecount 1;#P newex 138 330 27 196617 b;#N comlet bang when done;#P outlet 456 558 15 0;#P window linecount 0;#P newex 388 97 72 196617 prepend types;#N comlet Coll name;#P inlet 388 29 15 0;#P outlet 407 558 15 0;#N comlet OSC messages;#P outlet 54 610 15 0;#P newex 193 417 71 196617 prepend types;#P newex 149 392 54 196617 unpack s s;#P newex 55 589 65 196617 zl group 256;#P newex 137 435 31 196617 t b s;#P newex 158 553 28 196617 t s s;#P newex 158 533 65 196617 route append;#P message 203 479 55 196617 types AIFF;#P newex 158 513 35 196617 folder;#P message 281 41 45 196617 foo AIFF;#P newex 196 223 45 196617 unpack s;#P newex 232 333 193 196617 sprintf loading samples from folder %s...;#P newex 196 250 100 196617 sprintf store %s %s;#P newex 175 201 31 196617 t s s;#P newex 6 181 154 196617 sprintf folder %s already loaded;#P newex 202 43 40 196617 t s s b;#P message 176 142 14 196617 1;#P message 146 147 14 196617 0;#P newex 130 121 40 196617 t s b b;#P newex 175 175 27 196617 gate;#N comlet Bang when multibuffer is cleared;#P inlet 88 49 15 0;#P message 88 70 31 196617 clear;#N coll ;#P newobj 130 96 53 196617 coll;#P newex 158 589 65 196617 prepend /file;#P message 231 381 84 196617 ...samples loaded;#P newex 175 299 53 196617 t b s b s;#N comlet OSC messages;#P outlet 158 609 15 0;#N comlet Coll name;#P inlet 202 22 15 0;#P comment 25 94 100 196617 All the folders that have been loaded into this object.;#P comment 205 160 80 196617 Test whether this folder is already loaded;#P comment 261 439 118 196617 Default "types" \, if only one argument \, is AIFF;#P comment 191 284 183 196617 Turn each file (of the correct type(s)) in the folder into a /file message.;#P connect 13 0 17 0;#P connect 28 0 31 0;#P connect 26 1 28 0;#P connect 27 0 28 0;#P connect 11 0 10 0;#P fasten 19 0 9 0 201 275 344 275 344 78 135 78;#P connect 16 1 9 0;#P connect 10 0 9 0;#P connect 9 0 13 0;#P connect 29 0 27 0;#P connect 6 0 36 0;#P connect 13 2 14 0;#P connect 6 1 29 0;#P fasten 34 0 23 0 393 445;#P connect 27 1 23 0;#P connect 30 0 23 0;#P connect 24 0 23 0;#P connect 23 0 25 0;#P connect 25 0 26 0;#P connect 26 0 8 0;#P connect 8 0 5 0;#P connect 15 0 12 0;#P connect 14 0 12 0;#P connect 12 0 18 0;#P connect 18 0 6 0;#P connect 16 2 15 0;#P connect 16 0 12 1;#P connect 29 1 30 0;#P connect 18 1 21 0;#P connect 21 0 19 0;#P connect 22 0 16 0;#P connect 4 0 16 0;#P connect 6 2 24 0;#P connect 36 1 7 0;#P connect 6 3 20 0;#P connect 21 0 19 1;#P connect 33 0 34 0;#P fasten 13 1 32 0 120 163 448 281;#P fasten 17 0 32 0 11 258;#P connect 7 0 32 0;#P fasten 36 0 35 0 196 377 299 359;#P pop;#P newobj 541 252 53 196617 p folder;#P newex 462 381 31 196617 * 14;#N comlet OSC: /coll \, /clear \, /file;#P inlet 353 91 15 0;#P newex 679 274 184 196617 print *multibuf:Unrecognized_message;#N vpatcher 435 88 1185 790;#P window setfont "Sans Serif" 9.;#P window linecount 1;#P newex 237 463 27 196617 b;#N comlet bang when done;#P outlet 492 489 15 0;#P message 207 97 113 196617 $1;#P newex 224 58 57 196617 route bang;#P outlet 469 489 15 0;#P window linecount 0;#P newex 158 483 65 196617 route symbol;#P newex 184 508 45 196617 unpack s;#P newex 334 412 209 196617 sprintf loading samples from collection %s...;#P comment 209 366 183 196617 Dump the collection \, treating the first symbol on each line as a /file message.;#P newex 212 310 100 196617 sprintf store %s %s;#P newex 197 286 40 196617 t s s s;#P newex 6 250 170 196617 sprintf collection %s already loaded;#P newex 224 128 40 196617 t s s b;#P message 198 227 14 196617 1;#P message 170 227 14 196617 0;#P newex 152 206 28 196617 t s b;#P newex 197 260 27 196617 gate;#N comlet Bang when multibuffer is cleared;#P inlet 110 134 15 0;#P message 110 155 31 196617 clear;#N coll ;#P newobj 152 181 53 196617 coll;#P newex 184 529 65 196617 prepend /file;#P message 298 468 84 196617 ...samples loaded;#P newex 197 395 53 196617 t b b s s;#P newex 173 440 70 196617 prepend refer;#N coll test;#P newobj 158 463 53 196617 coll;#P message 140 441 31 196617 dump;#N comlet OSC messages;#P outlet 184 550 15 0;#N comlet Coll name;#P inlet 224 26 15 0;#P comment 47 179 100 196617 All the collections that have been loaded into this object.;#P comment 227 245 80 196617 Test whether this collection is already loaded;#P comment 251 527 147 196617 Not "sprintf /file %s" because of symbols with spaces in them;#P connect 15 0 19 0;#P connect 13 0 12 0;#P connect 8 1 5 0;#P connect 12 0 11 0;#P connect 18 1 11 0;#P fasten 21 0 11 0 217 332 322 332 322 163 157 163;#P connect 11 0 15 0;#P connect 5 0 6 0;#P connect 7 0 6 0;#P connect 6 0 25 0;#P connect 15 1 16 0;#P connect 8 2 7 0;#P connect 25 1 24 0;#P connect 25 0 24 0;#P connect 24 0 10 0;#P connect 10 0 4 0;#P connect 16 0 14 0;#P connect 17 0 14 0;#P connect 14 0 20 0;#P connect 20 0 8 0;#P connect 18 2 17 0;#P connect 27 0 28 0;#P connect 20 1 21 0;#P connect 18 0 14 1;#P connect 3 0 27 0;#P connect 28 0 18 0;#P connect 27 1 18 0;#P connect 6 3 30 0;#P connect 30 1 9 0;#P connect 20 2 21 1;#P connect 8 3 23 0;#P connect 19 0 26 0;#P connect 23 0 26 0;#P connect 9 0 26 0;#P fasten 30 0 29 0 451 531 507 494;#P pop;#P newobj 485 252 40 196617 p coll;#P newex 462 401 30 196617 + 12;#P newex 410 352 53 196617 t i i i i;#P newex 296 289 92 196617 t b s s s s s s;#P message 573 354 14 196617 0;#P newex 480 281 53 196617 b 4;#P newex 573 397 145 196617 sprintf script delete buffer-%i;#P message 468 309 14 196617 1;#P newex 543 376 40 196617 Uzi 0;#P newex 353 127 328 196617 route /file /clear /coll /folder /multicoll /ubmenu /types /normalize;#P number 475 354 35 9 0 0 0 3 0 0 0 221 221 221 222 222 222 0 0 0;#N counter 1 10000;#X flags 0 0;#P newobj 432 328 84 196617 counter 1 10000;#N comlet For thispatcher;#P outlet 306 651 15 0;#P newex 306 441 301 196617 sprintf script new buffer-%d newex 20 %d 400 196617 buffer~;#P comment 304 460 285 196617 We can't use %s as the last two arguments to sprintf because then filenames with spaces in them will do the wrong thing.;#P connect 12 0 26 0;#P connect 26 0 27 0;#P connect 42 1 40 0;#P connect 47 0 40 0;#P connect 43 0 44 0;#P fasten 42 0 41 0 94 259 102 328;#P connect 41 0 43 0;#P fasten 11 1 42 0 283 353 189 182;#P connect 40 0 41 1;#P fasten 42 2 41 1 218 315;#P connect 46 0 47 0;#P connect 44 0 27 3;#P connect 45 0 27 3;#P connect 43 1 45 0;#P fasten 42 3 27 4 238 320;#P connect 5 0 11 0;#P connect 12 1 1 0;#P connect 1 0 19 0;#P connect 8 0 2 0;#P connect 19 0 2 0;#P connect 27 0 2 0;#P fasten 25 0 5 0 611 173 659 173 659 122 358 122;#P connect 16 0 5 0;#P fasten 14 0 5 0 490 179 682 179 682 112 358 112;#P fasten 18 1 5 0 560 176 663 176 663 117 358 117;#P connect 3 0 12 0;#P fasten 11 2 19 9 370 415;#P fasten 11 0 3 0 301 316 437 316;#P connect 12 2 34 0;#P connect 34 0 23 0;#P connect 23 0 24 0;#P connect 22 0 24 0;#P fasten 38 0 24 0 1066 424 1140 631 1058 698 620 637 417 627 385 659 486 692 511 642;#P connect 12 3 17 0;#P connect 17 0 13 0;#P connect 9 0 7 0;#P connect 7 0 3 2;#P connect 3 0 4 0;#P connect 5 1 9 0;#P connect 5 1 14 0;#P connect 5 2 14 1;#P connect 9 3 22 0;#P fasten 11 3 23 1 383 410 464 491;#P connect 5 1 18 0;#P connect 9 2 6 0;#P connect 5 3 18 1;#P connect 9 1 10 0;#P connect 3 0 6 1;#P connect 10 0 6 1;#P connect 6 2 8 0;#P connect 5 6 18 2;#P connect 13 0 1 1;#P connect 5 1 25 0;#P connect 5 4 25 1;#P connect 5 8 25 1;#P connect 5 8 15 0;#P fasten 11 6 49 0 422 398 507 460 673 484;#P connect 29 0 20 0;#P connect 20 0 21 0;#P fasten 11 4 20 1 392 404 484 488;#P connect 28 0 29 0;#P fasten 11 5 33 0 406 400 493 472 800 509;#P fasten 5 1 30 0 904 267;#P connect 30 0 32 0;#P fasten 5 5 31 0 926 256 926 567;#P connect 33 0 31 0;#P connect 32 0 31 0;#P fasten 39 0 31 0 1151 540 1162 642 1066 706 864 680 879 634 922 626 922 672 885 665 894 644;#P connect 5 7 48 0;#P fasten 14 1 35 0 588 295 614 295 643 335 685 335 703 381 800 372 849 422 989 447 978 535;#P fasten 18 2 35 0 747 389 963 407 980 476 950 501 1001 535 979 562 1010 602;#P fasten 25 1 35 0 651 346 690 327 722 397 781 365 808 410 861 384 996 468 966 523 1013 568;#P connect 21 0 35 0;#P connect 37 0 38 0;#P fasten 14 2 36 0 1001 374;#P fasten 18 3 36 0 1000 374;#P pop;#P newobj 288 36 151 196617 p guts;#P comment 459 69 80 196617 arg1: coll-name;#P user dropfile 5 7 111 92 0;#P user panel 2 4 112 91;#X brgb 132 125 255;#X frgb 0 0 0;#X border 1;#X rounded 0;#X shadow 0;#X done;#P hidden fasten 3 0 23 0 293 96 7 96;#P hidden connect 3 3 25 0;#P hidden connect 10 0 25 0;#P hidden connect 1 0 18 0;#P hidden connect 18 0 12 0;#P hidden connect 14 0 15 0;#P connect 31 0 30 0;#P hidden connect 28 1 29 0;#P connect 30 1 32 0;#P hidden connect 29 0 3 0;#P hidden connect 15 0 3 0;#P hidden connect 12 0 3 0;#P connect 4 0 3 0;#P hidden connect 21 0 3 0;#P hidden connect 20 0 3 0;#P fasten 32 1 3 0 292 -15 305 -15 305 26 293 26;#P connect 3 1 8 0;#P fasten 6 0 8 0 328 20 451 20 451 75 328 75;#P connect 8 0 9 0;#P connect 9 0 7 0;#P connect 9 1 7 0;#P connect 11 0 3 1;#P connect 10 0 5 0;#P connect 3 3 5 0;#P fasten 3 5 19 0 433 156 398 156;#P connect 27 0 3 2;#P connect 3 2 22 0;#P hidden fasten 25 1 26 0 224 166 453 166;#P fasten 3 4 33 0 405 141 480 141;#P pop;