max v2;#N vpatcher 25 45 983 753;#P newex 526 623 85 196617 sprintf set %d%s;#P newex 601 585 103 196617 var-init $1 main-out;#P newex 199 410 34 196617 zl reg;#P newex 278 322 27 196617 / 1.;#P newex 297 280 95 196617 cents-to-playspeed;#P newex 262 280 29 196617 != 0.;#P newex 286 624 45 196617 delay 50;#P toggle 392 25 15 0;#P newex 256 42 145 196617 print-everything into-sampler;#P comment 161 597 38 196617 ----->;#P message 327 531 14 196617 0;#P message 344 531 14 196617 1;#P newex 344 506 28 196617 t b b;#P newex 199 570 110 196617 fade-in-out~ 10 15 15;#P newex 199 669 49 196617 send~ ??;#P comment 392 619 30 196617 mute;#P toggle 370 599 15 0;#P newex 199 596 34 196617 pass~;#P newex 126 298 40 196617 t b s b;#P toggle 397 599 15 0;#P newex 316 570 95 196617 poly~-mute-control;#P newex 231 372 64 196617 pack 1. 1. 1.;#P message 199 442 54 196617 \$1 \, \$2 \$3;#P newex 199 466 30 196617 line~;#P newex 126 22 25 196617 in 1;#P newex 126 71 112 196617 unpack foo 1. 1. 1. 1. 1;#P newex 144 335 60 196617 prepend set;#P newex 316 598 50 196617 thispoly~;#P newex 199 549 28 196617 *~;#P newex 199 515 74 196617 play~ noprobm;#P comment 245 73 540 196617 buffer-name \, gain [0. \, 1.] \, start-time \, end-time \, transposition in cents \, output number;#P comment 363 619 29 196617 busy;#P comment 63 556 100 196617 these are necessary to keep MSP from repeating the last signal vector over and over again after you mute the patch;#P comment 161 574 38 196617 ----->;#P comment 26 45 100 196617 fan-oute as opposed to a trigger to avoid stupid list/symbol confusion;#P connect 10 0 9 0;#P connect 9 0 16 0;#P connect 16 1 8 0;#P fasten 16 0 32 0 131 397;#P connect 32 0 12 0;#P connect 12 0 11 0;#P connect 11 0 5 0;#P fasten 8 0 5 0 149 454;#P connect 5 0 6 0;#P connect 6 0 21 0;#P connect 21 0 17 0;#P connect 34 0 20 0;#P connect 17 0 20 0;#P fasten 9 1 6 1 85 130 85 524;#P connect 13 0 32 1;#P connect 9 2 13 0;#P connect 23 0 21 1;#P connect 24 0 21 1;#P connect 10 0 26 0;#P connect 9 3 13 1;#P connect 9 2 29 0;#P connect 29 0 31 0;#P connect 9 3 29 1;#P connect 31 0 13 2;#P connect 21 2 28 0;#P connect 30 0 31 1;#P connect 9 4 30 0;#P connect 28 0 14 0;#P connect 14 0 7 0;#P connect 11 1 24 0;#P fasten 16 2 22 0 201 391 333 438;#P connect 22 0 23 0;#P connect 22 1 14 1;#P connect 14 1 18 0;#P connect 27 0 26 1;#P connect 14 2 15 0;#P fasten 9 5 34 0 531 341;#P connect 33 0 34 1;#P pop;