max v2;#N vpatcher 0 44 1236 820;#P origin 0 10;#P window setfont "Sans Serif" 9.;#P comment 43 294 53 196617 o u t p u t;#P comment 44 68 56 196617 i n p u t;#P message 182 215 19 196617 all;#P number 765 440 35 9 0 0 0 3 0 0 0 221 221 221 222 222 222 0 0 0;#P button 658 127 18 0;#P toggle 494 256 18 0;#P newex 1022 305 43 196617 t b b i;#P objectname pitch-constraint[5];#P newex 1075 386 49 196617 zl group;#P objectname pitch-constraint[4];#P newex 1090 349 30 196617 bag;#P objectname pitch-constraint[2];#P newex 1036 272 114 196617 pvar pitchconstraint 2;#B color 14;#P objectname pitch-constraint[1];#N comlet (list) note in (pitch \, vel);#P inlet 677 35 18 0;#N comlet (list) note out (pitch \, vel);#P outlet 765 637 18 0;#P newex 765 483 83 196617 pitch-constraint;#P objectname pitch-constraint;#P comment 44 228 85 196617 pitch class filter;#P comment 44 197 83 196617 number of bands;#P comment 44 158 138 196617 5-band pass thru probability;#B color 2;#P comment 44 113 155 196617 one-by-onepass thru probability;#B color 2;#P user kslider 133 215 35 1 0 12 19 7 1 214 120 0 214 120 0 255 255 255 0 0 0 0 0 0;#P objectname pitchconstraint;#P hidden newex 87 -19 69 196617 loadmess 1 1;#P newex 530 403 32 196617 gate;#P newex 533 294 32 196617 gate;#P newex 535 263 61 196617 unpack 1 1;#P newex 228 468 154 196617 pattrstorage ali.pitch-fit01.xml;#X client_rect 351 171 991 411;#X storage_rect 0 0 640 240;#P objectname ali.pitch-fit01.xml;#P bpatcher 228 382 208 82 0 0 ali.pattrstorage-helper.pat 0 ali.pitch-fit01.xml;#P objectname ali.pattrstorage-helper.pat;#P newex 860 286 63 196617 loadmess 6;#P newex 584 635 32 196617 gate;#P newex 617 359 24 196617 t 0;#P user gswitch2 826 613 39 32 0 0;#P newex 855 649 61 196617 unpack 1 1;#P newex 808 677 35 196617 print;#P newex 855 677 46 196617 noteout;#P hidden newex 28 -20 53 196617 autopattr;#X prestore groupSize 1 0 6;#X prestore probAll 96 0 1. 1. 1. 1. 1. 1. 1. 1. 1. 1. 1. 1. 1. 1. 1. 1. 1. 1. 1. 1. 1. 1. 1. 1. 1. 1. 1. 1. 1. 1. 1. 1. 1. 1. 1. 1. 1. 1. 1. 1.;#X prestore probAll 96 40 1. 1. 1. 1. 1. 1. 1. 1. 1. 1. 1. 1. 1. 1. 1. 1. 1. 1. 1. 1. 1. 1. 1. 1. 1. 1. 1. 1. 1. 1. 1. 1. 1. 1. 1. 1. 1. 1. 1. 1.;#X prestore probAll 96 80 1. 1. 1. 1. 1. 1. 1. 1. 1. 1. 1. 1. 1. 1. 1. 1.;#X prestore probGroup 6 0 1. 1. 1. 1. 1. 1.;#P objectname u197000004;#P hidden message 43 382 62 196617 windowsize;#P newex 1073 631 64 196617 plugmidiout;#P newex 765 542 30 196617 t l l;#N vpatcher 10 59 610 459;#P window setfont "Sans Serif" 9.;#P window linecount 1;#P comment 213 354 50 196617 note offs;#P outlet 229 322 15 0;#P newex 199 256 49 196617 append 0;#P outlet 130 322 15 0;#P newex 156 255 37 196617 zl rev;#P newex 141 175 43 196617 route 0;#P inlet 154 45 15 0;#P window linecount 0;#P newex 154 108 37 196617 zl rev;#P comment 118 346 42 196617 note ons;#P connect 4 0 5 0;#P connect 1 0 3 0;#P connect 2 0 1 0;#P connect 3 1 4 0;#P connect 3 0 6 0;#P connect 6 0 7 0;#P pop;#P newobj 720 145 41 196617 p split;#P user multiSlider 42 194 393 17 3. 12. 1 2920 47 0 2 2 0 0 0;#M frgb 223 223 223;#M brgb 173 173 173;#M rgb2 127 127 127;#M rgb3 0 0 0;#M rgb4 37 52 91;#M rgb5 74 105 182;#M rgb6 112 158 18;#M rgb7 149 211 110;#M rgb8 187 9 201;#M rgb9 224 62 37;#M rgb10 7 114 128;#P objectname groupSize;#P newex 842 350 69 196617 prepend size;#P newex 842 317 81 196617 pvar groupSize;#B color 14;#P newex 680 231 33 196617 - 12;#P newex 765 516 51 196617 pack 1 1;#N vpatcher 180 165 894 689;#P inlet 120 89 15 0;#P window setfont "Sans Serif" 9.;#P number 158 40 35 9 0 0 0 3 0 0 0 221 221 221 222 222 222 0 0 0;#P outlet 170 441 15 0;#P outlet 100 441 15 0;#P window linecount 1;#P newex 80 214 27 196617 t b i;#P newex 198 293 35 196617 zl nth;#P newex 197 226 36 196617 zl reg;#P newex 80 186 40 196617 Lround;#P newex 24 150 27 196617 t i i;#P newex 99 372 69 196617 ali.pass-prob;#P inlet 205 94 15 0;#P window linecount 0;#P newex 82 137 93 196617 scale 12 108 1. 5.;#P inlet 49 44 15 0;#P connect 0 0 4 0;#P connect 1 0 5 0;#P connect 5 0 8 0;#P connect 4 1 1 0;#P connect 4 0 3 0;#P connect 3 0 9 0;#P connect 7 0 3 1;#P connect 12 0 1 4;#P connect 11 0 1 4;#P connect 3 1 10 0;#P fasten 8 0 6 0 129 271;#P connect 6 0 7 0;#P connect 2 0 6 1;#P connect 8 1 7 1;#P pop;#P newobj 712 392 67 196617 p progGroup;#P user multiSlider 42 154 393 39 0. 1. 6 2937 47 0 2 2 0 0 0;#M frgb 83 83 83;#M brgb 173 173 173;#M rgb2 127 127 127;#M rgb3 0 0 0;#M rgb4 37 52 91;#M rgb5 74 105 182;#M rgb6 112 158 18;#M rgb7 149 211 110;#M rgb8 187 9 201;#M rgb9 224 62 37;#M rgb10 7 114 128;#P objectname probGroup;#P newex 654 388 24 196617 t 0;#P user kslider 42 30 35 1 12 96 19 7 1 214 120 0 214 120 0 255 255 255 0 0 0 0 0 0;#P objectname notein;#P user multiSlider 42 66 393 43 12. 108. 1 3176 15 0 0 2 0 0 0;#M frgb 66 66 66;#M brgb 173 173 173;#M rgb2 127 127 127;#M rgb3 0 0 0;#M rgb4 37 52 91;#M rgb5 74 105 182;#M rgb6 112 158 18;#M rgb7 149 211 110;#M rgb8 187 9 201;#M rgb9 224 62 37;#M rgb10 7 114 128;#P objectname noteinScroll;#P number 624 86 38 9 0 0 0 3 0 0 0 221 221 221 222 222 222 0 0 0;#P newex 605 479 97 196617 pvar noteoutScroll;#B color 14;#P newex 531 317 91 196617 pvar noteinScroll;#B color 14;#P newex 278 555 57 196617 pvar mode;#P toggle 26 48 15 0;#P objectname mode;#P message 278 588 48 196617 mode \$1;#P user multiSlider 42 294 393 43 12. 108. 1 3176 15 0 0 2 0 0 0;#M frgb 66 66 66;#M brgb 173 173 173;#M rgb2 127 127 127;#M rgb3 0 0 0;#M rgb4 37 52 91;#M rgb5 74 105 182;#M rgb6 112 158 18;#M rgb7 149 211 110;#M rgb8 187 9 201;#M rgb9 224 62 37;#M rgb10 7 114 128;#P objectname noteoutScroll;#P newex 584 388 69 196617 pvar display;#B color 14;#P newex 605 446 32 196617 gate;#P newex 642 205 30 196617 t i i;#P newex 680 255 74 196617 prepend fetch;#P newex 691 174 61 196617 unpack 1 1;#P newex 711 335 72 196617 ali.pass-prob;#P newex 533 186 69 196617 pvar display;#B color 14;#P newex 535 235 67 196617 gate;#P newex 842 388 83 196617 pvar probGroup;#P newex 680 291 79 196617 pvar probAll 2;#B color 14;#P newex 236 659 67 196617 pvar noteout;#B color 14;#P newex 310 659 61 196617 pvar notein;#B color 14;#P user multiSlider 42 110 393 43 0. 1. 96 2937 47 0 0 2 0 0 0;#M frgb 83 83 83;#M brgb 173 173 173;#M rgb2 127 127 127;#M rgb3 0 0 0;#M rgb4 37 52 91;#M rgb5 74 105 182;#M rgb6 112 158 18;#M rgb7 149 211 110;#M rgb8 187 9 201;#M rgb9 224 62 37;#M rgb10 7 114 128;#P objectname probAll;#N plugconfig;#C useviews 1 1 1 1;#C numprograms 64;#C preempt 1;#C sigvschange 1;#C sigvsdefault 32;#C windowsize;#C defaultview Interface 0 0 0;#C dragscroll 1;#C noinfo;#C uniqueid 210 67 18;#C initialpgm 1;#P newobj 43 430 55 196617 plugconfig;#P user kslider 42 258 35 1 12 96 19 7 1 214 120 0 214 120 0 255 255 255 0 0 0 0 0 0;#P objectname noteout;#P toggle 26 30 15 0;#P objectname display;#P newex 1073 572 95 196617 midiformat;#P newex 743 79 95 196617 midiparse;#P newex 743 30 58 196617 plugmidiin;#N vpatcher 10 59 610 459;#P outlet 174 355 15 0;#P window setfont "Sans Serif" 9.;#P newex 123 170 29 196617 gate;#P newex 103 274 27 196617 > 1;#P newex 167 170 58 196617 unpack 1 1;#P newex 150 139 27 196617 t l l;#N coll ;#P newobj 103 240 53 196617 coll;#P inlet 150 84 15 0;#P inlet 81 83 15 0;#P connect 6 0 2 0;#P connect 4 0 2 0;#P connect 0 0 2 0;#P connect 2 0 5 0;#P fasten 5 0 6 0 76 266 49 194 107 151;#P connect 3 0 6 1;#P connect 1 0 3 0;#P connect 3 1 4 0;#P connect 6 0 7 0;#P pop;#P newobj 854 539 58 196617 p noteoffs;#N vpatcher 717 222 1538 594;#P window setfont "Sans Serif" 9.;#P window linecount 1;#P newex 212 267 48 196617 pack 1 1;#P user kslider 168 196 54 0 36 48 31 12 1 128 128 128 128 128 128 255 255 255 0 0 0 0 0 0;#P newex 145 141 82 196617 makenote 90 75;#P toggle 50 50 15 0;#P newex 67 75 58 196617 metro 100;#N vtable 128 165 576 708 745 980000 128;#P newobj 66 105 32 196617 table;#P outlet 212 289 15 0;#P window linecount 0;#P comment 102 104 154 196617 <---put some probs in the table!;#P connect 3 0 2 0;#P connect 4 0 3 0;#P connect 2 0 5 0;#P connect 5 0 6 0;#P connect 6 0 7 0;#P connect 7 0 1 0;#P connect 6 1 7 1;#P connect 5 1 6 1;#P pop;#P newobj 624 37 39 196617 p test;#N vpatcher 10 59 610 459;#P window setfont "Sans Serif" 9.;#P newex 44 62 20 196617 t b;#P inlet 26 28 15 0;#P outlet 86 265 15 0;#P newex 84 204 55 196617 append 90;#P newex 53 100 48 196617 loadbang;#P newex 83 171 27 196617 - 1;#P newex 53 146 40 196617 uzi 12;#P connect 5 0 6 0;#P connect 6 0 2 0;#P connect 2 0 0 0;#P connect 0 2 1 0;#P connect 1 0 3 0;#P connect 3 0 4 0;#P pop;#P hidden newobj 182 233 33 196617 p init;#P hidden connect 56 0 6 0;#P hidden connect 43 1 6 0;#P hidden connect 56 0 24 0;#P hidden connect 43 1 24 0;#P hidden connect 14 0 30 0;#P hidden connect 43 1 29 0;#P hidden connect 49 0 7 0;#P hidden connect 43 1 22 0;#P hidden connect 42 0 8 0;#P hidden connect 0 0 57 0;#P connect 72 0 0 0;#P connect 51 0 52 0;#P connect 23 0 11 0;#P connect 25 0 23 0;#P connect 23 0 10 0;#P hidden fasten 52 0 51 1 233 489 443 489 443 370 431 370;#P connect 15 0 69 0;#P connect 54 0 26 0;#P connect 53 1 54 0;#P connect 15 0 14 0;#P connect 14 0 53 0;#P connect 53 0 54 1;#P connect 21 0 49 0;#P connect 64 0 14 1;#P connect 4 0 14 1;#P connect 1 0 14 1;#P connect 21 0 20 0;#P connect 20 0 27 0;#P connect 40 0 49 1;#P connect 2 0 49 1;#P connect 33 0 20 1;#P connect 31 0 20 1;#P connect 17 0 19 0;#P fasten 33 1 31 0 729 466;#P connect 16 1 31 0;#P connect 19 1 35 0;#P connect 35 0 18 0;#P connect 18 0 12 0;#P connect 39 0 17 0;#P fasten 19 0 16 0 647 328;#P connect 16 0 33 0;#P connect 64 0 39 0;#P connect 4 0 39 0;#P connect 1 0 39 0;#P connect 36 0 33 1;#P connect 12 1 16 1;#P connect 3 0 4 0;#P connect 33 0 71 0;#P connect 71 0 62 0;#P connect 62 0 34 0;#P connect 34 0 40 0;#P connect 40 0 63 0;#P connect 2 0 63 0;#P connect 13 0 33 2;#P connect 67 0 62 1;#P fasten 17 1 34 1 822 373;#P connect 47 1 45 0;#P connect 50 0 36 0;#P connect 36 0 37 0;#P connect 37 0 13 0;#P connect 40 1 2 0;#P connect 40 0 47 1;#P connect 2 0 47 1;#P connect 47 1 46 0;#P connect 46 0 44 0;#P connect 46 1 44 1;#P connect 39 1 2 1;#P connect 65 0 68 0;#P connect 2 0 5 0;#P connect 5 0 41 0;#P connect 66 0 67 0;#P connect 68 0 67 0;#P connect 4 1 5 1;#P connect 68 2 66 0;#P connect 68 1 66 0;#P connect 4 2 5 2;#P connect 65 1 66 1;#P connect 4 3 5 3;#P connect 4 4 5 4;#P connect 4 5 5 5;#P connect 4 6 5 6;#P pop;